<?xml version="1.0" encoding="utf-8"?>
<!-- Generator: Adobe Illustrator 17.0.0, SVG Export Plug-In . SVG Version: 6.00 Build 0)  -->
<!DOCTYPE svg PUBLIC "-//W3C//DTD SVG 1.1//EN" "http://www.w3.org/Graphics/SVG/1.1/DTD/svg11.dtd">
<svg version="1.1" id="Layer_2" xmlns="http://www.w3.org/2000/svg" xmlns:xlink="http://www.w3.org/1999/xlink" x="0px" y="0px"
	 width="10.548px" height="13.638px" viewBox="0 0 10.548 13.638" enable-background="new 0 0 10.548 13.638" xml:space="preserve">
<path fill="#5E8B3D" stroke="#FFFFFF" stroke-width="0.5" stroke-linecap="round" stroke-linejoin="round" stroke-miterlimit="10" d="
	M5.113,10.276c0.701-1.228,1.548-2.411,2.541-3.458L7.653,6.817C6.659,5.772,5.812,4.589,5.111,3.362L5.11,3.362
	C3.552,4.78,1.791,6.071,0.001,6.818L0,6.816c1.791,0.747,3.553,2.039,5.111,3.458L5.113,10.276z"/>
<path fill="#5E8B3D" stroke="#FFFFFF" stroke-width="0.5" stroke-linecap="round" stroke-linejoin="round" stroke-miterlimit="10" d="
	M7.648,6.819c0.857-0.903,1.823-1.704,2.899-2.345l-0.009,0.008C9.597,3.625,8.505,1.6,8.298,0C7.414,1.067,6.321,2.254,5.104,3.362
	l0.001,0.001C5.806,4.59,6.654,5.772,7.648,6.819L7.648,6.819z"/>
<path fill="#5E8B3D" stroke="#FFFFFF" stroke-width="0.5" stroke-linecap="round" stroke-linejoin="round" stroke-miterlimit="10" d="
	M7.648,6.819c0.857,0.903,1.823,1.704,2.899,2.345l-0.009-0.008c-0.942,0.857-2.034,2.882-2.241,4.482
	c-0.884-1.067-1.977-2.254-3.194-3.362l0.001-0.001C5.806,9.048,6.654,7.865,7.648,6.819L7.648,6.819z"/>
</svg>
