<?xml version="1.0" encoding="utf-8"?>
<!-- Generator: Adobe Illustrator 17.0.0, SVG Export Plug-In . SVG Version: 6.00 Build 0)  -->
<!DOCTYPE svg PUBLIC "-//W3C//DTD SVG 1.1//EN" "http://www.w3.org/Graphics/SVG/1.1/DTD/svg11.dtd">
<svg version="1.1" id="Layer_1" xmlns="http://www.w3.org/2000/svg" xmlns:xlink="http://www.w3.org/1999/xlink" x="0px" y="0px"
	 width="729.5px" height="44.917px" viewBox="0 0 729.5 44.917" enable-background="new 0 0 729.5 44.917" xml:space="preserve">
<path fill="#DEE2C7" d="M712.395,18.898l-0.015,0.012 M17.06,18.898c-1.633,0.972-3.1,2.188-4.4,3.558l0.003,0.003
	c1.296,1.363,2.757,2.573,4.383,3.54c-1.429,1.301-3.086,4.373-3.401,6.801c-1.341-1.618-2.998-3.418-4.844-5.1l0.003,0.004
	c-0.956,1.674-1.733,3.402-2.332,5.083c-5.514,14.072,721.822,14.072,716.512,0.002c-0.602-1.688-1.384-3.425-2.346-5.107
	l0.002,0.006c-1.852,1.685-3.514,3.491-4.859,5.113c-0.315-2.429-1.972-5.501-3.401-6.801c1.633-0.972,3.099-2.188,4.4-3.558
	l-0.002-0.002c-1.296-1.363-2.757-2.573-4.383-3.541 M712.38,18.91c1.429-1.301,3.086-4.373,3.401-6.801
	c1.342,1.619,2.999,3.419,4.846,5.102l0,0.001c0.961-1.68,1.741-3.415,2.343-5.102C728.279-1.961,0.943-1.961,6.457,12.111
	c0.602,1.687,1.382,3.421,2.343,5.101l-0.001-0.001c1.847-1.682,3.505-3.483,4.847-5.102c0.315,2.429,1.972,5.501,3.401,6.801"/>
<g>
	<path fill="#3D8D8C" d="M8.81,27.695c1.064-1.863,2.348-3.659,3.856-5.248l-0.001-0.001c-1.508-1.587-2.794-3.381-3.859-5.243
		l-0.001-0.001c-2.363,2.153-5.037,4.111-7.753,5.245l-0.001-0.003c2.717,1.134,5.391,3.094,7.756,5.247L8.81,27.695z"/>
	<path fill="#3D8D8C" d="M12.658,22.449c1.301-1.37,2.767-2.586,4.4-3.558l-0.013,0.012c-1.429-1.301-3.086-4.373-3.401-6.801
		c-1.342,1.619-3,3.42-4.847,5.102l0.001,0.001c1.065,1.862,2.35,3.656,3.859,5.243L12.658,22.449z"/>
	<path fill="#3D8D8C" d="M12.658,22.449c1.301,1.37,2.767,2.586,4.4,3.558l-0.013-0.012c-1.429,1.301-3.086,4.373-3.401,6.801
		c-1.342-1.619-3-3.42-4.847-5.102l0.001-0.001c1.065-1.862,2.35-3.656,3.859-5.243L12.658,22.449z"/>
</g>
<g>
	<path fill="#3D8D8C" d="M720.299,27.695c-1.064-1.863-2.348-3.659-3.856-5.248l0.001-0.001c1.508-1.587,2.794-3.381,3.859-5.243
		l0.001-0.001c2.364,2.153,5.037,4.111,7.753,5.245l0.001-0.003c-2.717,1.134-5.391,3.094-7.755,5.247L720.299,27.695z"/>
	<path fill="#3D8D8C" d="M716.451,22.449c-1.301-1.37-2.767-2.586-4.4-3.558l0.013,0.012c1.429-1.301,3.086-4.373,3.401-6.801
		c1.342,1.619,3,3.42,4.847,5.102l-0.001,0.001c-1.065,1.862-2.35,3.656-3.859,5.243L716.451,22.449z"/>
	<path fill="#3D8D8C" d="M716.451,22.449c-1.301,1.37-2.767,2.586-4.4,3.558l0.013-0.012c1.429,1.301,3.086,4.373,3.401,6.801
		c1.342-1.619,3-3.42,4.847-5.102l-0.001-0.001c-1.065-1.862-2.35-3.656-3.859-5.243L716.451,22.449z"/>
</g>
<path fill="none" style="filter:url(#drop-shadow)" stroke="#FFFFFF" stroke-linecap="round" stroke-linejoin="round" stroke-miterlimit="10" d="M712.387,26
	c1.429,1.301,3.086,4.373,3.401,6.801c3.059-3.691,7.76-8.327,12.6-10.347l-0.001,0.003c-4.839-2.02-9.541-6.657-12.6-10.347
	c-0.315,2.429-1.972,5.501-3.401,6.801l0.015-0.012c5.228,3.111,8.747,8.727,10.589,13.891C728.3,46.859,0.964,46.859,6.478,32.787
	c1.842-5.163,5.361-10.778,10.589-13.889l-0.013,0.012c-1.429-1.301-3.086-4.373-3.401-6.801c-3.059,3.691-7.761,8.327-12.6,10.347
	l-0.001-0.003c4.839,2.02,9.541,6.657,12.6,10.347c0.315-2.429,1.972-5.501,3.401-6.801c-5.228-3.11-8.747-8.725-10.589-13.889
	C0.95-1.961,728.286-1.961,722.976,12.109C721.134,17.273,717.615,22.889,712.387,26z"/>

<filter id="dropshadow" height="100%">
  <feGaussianBlur in="SourceAlpha" stdDeviation="3"/> <!-- stdDeviation is how much to blur -->
  <feOffset dx="2" dy="2" result="offsetblur"/> <!-- how much to offset -->
  <feMerge> 
    <feMergeNode/> <!-- this contains the offset blurred image -->
    <feMergeNode in="SourceGraphic"/> <!-- this contains the element that the filter is applied to -->
  </feMerge>
</filter>


<filter id="drop-shadow">
	<feGaussianBlur in="SourceAlpha" stdDeviation="2.2"/>
	<feOffset dx="0" dy="0" result="offsetblur"/>
	<feFlood flood-color="rgba(0,0,0,0.5)"/>
	<feComposite in2="offsetblur" operator="in"/>
	<feMerge>
	<feMergeNode/>
	<feMergeNode in="SourceGraphic"/>
	</feMerge>
</filter>


<filter id="f4" x="0" y="0" width="200%" height="200%">
  <feOffset result="offOut" in="SourceGraphic" dx="2" dy="20" />
  <feColorMatrix result="matrixOut" in="offOut" type="matrix"
  values="0.2 0 0 0 0 0 0.2 0 0 0 0 0 0.2 0 0 0 0 0 1 0" />
  <feGaussianBlur result="blurOut" in="matrixOut" stdDeviation="10" />
  <feBlend in="SourceGraphic" in2="blurOut" mode="normal" />
</filter>
</svg>
