<?xml version="1.0" encoding="utf-8"?>
<!DOCTYPE svg PUBLIC "-//W3C//DTD SVG 1.1//EN" "http://www.w3.org/Graphics/SVG/1.1/DTD/svg11.dtd">
<svg version="1.1" xmlns="http://www.w3.org/2000/svg" xmlns:xlink="http://www.w3.org/1999/xlink" x="0px" y="0px"
	 width="85.812px" height="105.97px" viewBox="88.924 25.045 85.812 105.97" enable-background="new 88.924 25.045 85.812 105.97"
	 xml:space="preserve">
<g id="svg_logo_org">
	<g class="logo_svg_text">
		<g class="logo_svg_ya">
			<path fill="#FFFFFF" d="M126.891,60.324l9.664,9.648c4.274,4.555,1.501,8.021,0.255,9.267l-9.063,9.031l-9.466-9.474
				c-3.161-3.812-1.757-10.349-1.398-13.052l14.843,14.837c0.669-0.307,1.437-2.339,0.074-3.701l-4.803-4.8
				C122.524,67.606,127.958,63.664,126.891,60.324z"/>
			<path fill="#FFFFFF" d="M145.118,125.012c0.218,0.218,0.218,0.571,0,0.789l-5.05,5.05c-0.218,0.218-0.571,0.218-0.789,0
				l-5.05-5.05c-0.218-0.218-0.218-0.571,0-0.789l5.05-5.05c0.218-0.218,0.571-0.218,0.789,0L145.118,125.012z"/>
			<path fill="#FFFFFF" d="M129.553,125.012c0.218,0.218,0.218,0.571,0,0.789l-5.05,5.05c-0.218,0.218-0.571,0.218-0.789,0
				l-5.05-5.05c-0.218-0.218-0.218-0.571,0-0.789l5.05-5.05c0.218-0.218,0.571-0.218,0.789,0L129.553,125.012z"/>
		</g>
		
		<g class="logo_svg_fa">
			<path fill="#FFFFFF" d="M157.146,94.222c-0.054-1.712-2.49-3.981-5.488-1.282l-6.362,6.349
				c-2.486,2.511-1.752,4.677,0.029,6.579l6.035,6.022c2.031,1.756,2.291,3.894,1.508,5.312l-10.729-10.721
				c-1.357-1.362-2.742-4.672,0.531-8.362l9.036-9.025c4.159-4.171,7.404-11.824,0.058-19.383
				c-0.038-0.039-19.935-19.927-19.935-19.927l-2.724,2.712c-3.106,3.296-0.446,5.652,0.599,6.835l17.44,17.424
				c6.332,6.941,2.232,12.781,0.19,14.843l-10.161,10.156c-3.753,4.054-2.749,8.852-0.239,11.181l10.503,10.492l5.46-5.466
				c1.305-1.237,4.251-3.595,4.251-6.794L157.146,94.222z M151.377,102.654c-0.755,0-1.367-0.612-1.367-1.367
				s0.612-1.367,1.367-1.367s1.367,0.612,1.367,1.367S152.132,102.654,151.377,102.654z"/>
				<path fill="#FFFFFF" d="M136.027,44.768c0.218,0.218,0.218,0.571,0,0.789l-3.787,3.787c-0.218,0.218-0.571,0.218-0.789,0
				l-3.787-3.787c-0.218-0.218-0.218-0.571,0-0.789l3.787-3.787c0.218-0.218,0.571-0.218,0.789,0L136.027,44.768z"/>
		</g>
		<g class="logo_svg_teme">
			<path fill="#FFFFFF" d="M145.229,89.803c0.38-0.399,5.164-5.839-0.08-11.251l-1.926-1.925l-14.061,14.044
				c-0.315,0.308-1.169,1.257-1.272,1.51l-12.531-12.485c-0.54-0.468-5.931-4.676-0.182-11.422l9.461-9.465
				c0.15-0.154,1.04-1.205,0.825-2.666l-14.21,14.193c-4.586,5.023-5.441,11.323-1.103,15.818l17.541,17.504
				c-0.363,0.251-1.109,1.77-1.016,2.814l-13.268-13.389c-1.459-1.456-3.574-1.779-5.081-0.92
				c-1.148,0.654-1.833,1.886-1.834,3.919v13.647c0,4.097,1.324,5.151,2.85,6.677l6.956,6.991l3.502-3.395
				c0.318-0.353,2.096-2.605-0.288-5.15l-12.443-12.572c0.086-0.134,1.3-2.004,3.039-0.616l21.783,21.762l4.327-4.229
				c0.085-0.103,1.384-1.472,0.01-3.174l-2.332-2.335c-0.85-0.889-5.387-5.91,0.057-12.573L145.229,89.803z M127.902,103.426
				v-2.308c0-3.024,0.588-6.014,2.936-8.361l8.21-8.206c3.213,2.678,1.306,6.486,0.116,7.606L127.902,103.426z"/>
		</g>
	</g>
	<g>
		<g class="logo_svg_goldasteh">
			<path fill="#FFFFFF" d="M152.492,41.502l-5.546,5.53v18.341l4.337-4.329c0,0,1.209-1.312,1.209-3.015
				C152.492,53.892,152.492,41.502,152.492,41.502z"/>
			<path fill="#FFFFFF" d="M111.157,41.502l5.546,5.53v18.341l-4.337-4.329c0,0-1.209-1.312-1.209-3.015
				C111.157,53.892,111.157,41.502,111.157,41.502z"/>
		</g>
		<g class="logo_svg_dot">
			<path fill="#FFFFFF" d="M140.521,30c0.231-0.178,0.273-0.51,0.095-0.74l-3.098-4.01c-0.178-0.231-0.51-0.273-0.74-0.095
				l-4.01,3.098c-0.231,0.178-0.273,0.51-0.095,0.74l3.098,4.01c0.178,0.231,0.51,0.273,0.74,0.095L140.521,30z"/>
			<path fill="#FFFFFF" d="M144.11,34.702c0.114,0.25,0.408,0.361,0.658,0.247l4.346-1.975c0.25-0.114,0.361-0.408,0.247-0.658
				l-1.975-4.346c-0.114-0.25-0.408-0.361-0.658-0.247l-4.346,1.975c-0.25,0.114-0.361,0.408-0.247,0.658L144.11,34.702z"/>
			<path fill="#FFFFFF" d="M157.314,37.447l-0.898-4.688c-0.052-0.27-0.312-0.446-0.582-0.395l-4.688,0.898
				c-0.27,0.052-0.446,0.312-0.395,0.582l0.898,4.688c0.052,0.27,0.312,0.446,0.582,0.395l4.688-0.898
				C157.189,37.977,157.366,37.717,157.314,37.447z"/>
			<path fill="#FFFFFF" d="M158.621,44.423l4.658,0.233c0.268,0.013,0.496-0.193,0.509-0.461l0.233-4.658
				c0.013-0.268-0.193-0.496-0.461-0.509l-4.658-0.233c-0.268-0.013-0.496,0.193-0.509,0.461l-0.233,4.658
				C158.146,44.182,158.353,44.41,158.621,44.423z"/>
			<path fill="#FFFFFF" d="M163.583,51.354l4.414,1.292c0.254,0.074,0.52-0.071,0.594-0.325l1.292-4.414
				c0.074-0.254-0.071-0.52-0.325-0.594l-4.414-1.292c-0.254-0.074-0.52,0.071-0.594,0.325l-1.292,4.414
				C163.183,51.014,163.329,51.28,163.583,51.354z"/>
			<path fill="#FFFFFF" d="M168.981,55.033l-2.023,3.536c-0.116,0.203-0.046,0.463,0.158,0.579l3.536,2.023
				c0.203,0.116,0.463,0.046,0.579-0.158l2.023-3.536c0.116-0.203,0.046-0.463-0.158-0.579l-3.536-2.023
				C169.356,54.759,169.097,54.829,168.981,55.033z"/>
			<path fill="#FFFFFF" d="M174.601,66.587l-2.965-2.746c-0.171-0.158-0.437-0.148-0.595,0.023l-2.746,2.965
				c-0.158,0.171-0.148,0.437,0.023,0.595l2.965,2.746c0.171,0.158,0.437,0.148,0.595-0.023l2.746-2.965
				C174.782,67.011,174.771,66.745,174.601,66.587z"/>
			<path fill="#FFFFFF" d="M171.485,73.641c-0.115-0.171-0.347-0.217-0.519-0.102l-2.978,2.002
				c-0.171,0.115-0.217,0.347-0.102,0.519l2.002,2.978c0.115,0.171,0.347,0.217,0.519,0.102l2.978-2.002
				c0.171-0.115,0.217-0.347,0.102-0.519L171.485,73.641z"/>
			<path fill="#FFFFFF" d="M169.177,82.796c-0.067-0.179-0.265-0.27-0.444-0.203l-3.105,1.156c-0.179,0.067-0.27,0.265-0.203,0.444
				l1.156,3.105c0.067,0.179,0.265,0.27,0.444,0.203l3.105-1.156c0.179-0.067,0.27-0.265,0.203-0.444L169.177,82.796z"/>
			<path fill="#FFFFFF" d="M164.744,90.938h-3.124c-0.185,0-0.335,0.15-0.335,0.335v3.124c0,0.185,0.15,0.335,0.335,0.335h3.124
				c0.185,0,0.335-0.15,0.335-0.335v-3.124C165.079,91.088,164.929,90.938,164.744,90.938z"/>
			<path fill="#FFFFFF" d="M161.791,86.09l-0.701-2.638c-0.041-0.156-0.202-0.249-0.358-0.208l-2.638,0.701
				c-0.156,0.041-0.249,0.202-0.208,0.358l0.701,2.638c0.041,0.156,0.202,0.249,0.358,0.208l2.638-0.701
				C161.739,86.406,161.832,86.246,161.791,86.09z"/>
			<path fill="#FFFFFF" d="M163.85,76.092c-0.082-0.157-0.276-0.217-0.433-0.135l-2.65,1.391c-0.157,0.082-0.217,0.276-0.135,0.433
				l1.391,2.65c0.082,0.157,0.276,0.217,0.433,0.135l2.65-1.391c0.157-0.082,0.217-0.276,0.135-0.433L163.85,76.092z"/>
			<path fill="#FFFFFF" d="M163.901,73.382c0.131,0.15,0.358,0.165,0.508,0.034l2.527-2.212c0.15-0.131,0.165-0.358,0.034-0.508
				l-2.212-2.527c-0.131-0.15-0.358-0.165-0.508-0.034l-2.527,2.212c-0.15,0.131-0.165,0.358-0.034,0.508L163.901,73.382z"/>
			<path fill="#FFFFFF" d="M161.208,63.911l2.962,2.101c0.175,0.124,0.418,0.083,0.542-0.092l2.101-2.962
				c0.124-0.175,0.083-0.418-0.092-0.542l-2.962-2.101c-0.175-0.124-0.418-0.083-0.542,0.092l-2.101,2.962
				C160.992,63.544,161.033,63.787,161.208,63.911z"/>
			<path fill="#FFFFFF" d="M163.347,58.719l1.554-3.795c0.092-0.225-0.016-0.481-0.24-0.573l-3.795-1.554
				c-0.225-0.092-0.481,0.016-0.573,0.24l-1.554,3.795c-0.092,0.225,0.016,0.481,0.24,0.573l3.795,1.554
				C162.999,59.051,163.255,58.944,163.347,58.719z"/>
			<path fill="#FFFFFF" d="M160.209,50.971l0.001-4.131c0-0.244-0.198-0.443-0.443-0.443l-4.131-0.001
				c-0.244,0-0.443,0.198-0.443,0.443l-0.001,4.131c0,0.244,0.198,0.443,0.443,0.443l4.131,0.001
				C160.01,51.413,160.209,51.215,160.209,50.971z"/>
			<path fill="#FFFFFF" d="M132.151,32.769c-0.173-0.173-0.453-0.173-0.626,0l-2.922,2.921c-0.173,0.173-0.173,0.453,0,0.626
				l2.921,2.922c0.173,0.173,0.453,0.173,0.626,0l2.922-2.921c0.173-0.173,0.173-0.453,0-0.626L132.151,32.769z"/>
			<path fill="#FFFFFF" d="M148.189,36.79c-0.085-0.218-0.331-0.325-0.549-0.24l-3.682,1.44c-0.218,0.085-0.325,0.331-0.24,0.549
				l1.44,3.682c0.085,0.218,0.331,0.325,0.549,0.24l3.682-1.44c0.218-0.085,0.325-0.331,0.24-0.549L148.189,36.79z"/>
			<path fill="#FFFFFF" d="M140.368,33.987c-0.122-0.198-0.38-0.259-0.578-0.138l-3.341,2.054c-0.198,0.122-0.259,0.38-0.138,0.578
				l2.054,3.341c0.122,0.198,0.38,0.259,0.578,0.138l3.341-2.054c0.198-0.122,0.259-0.38,0.138-0.578L140.368,33.987z"/>
			<path fill="#FFFFFF" d="M130.892,28.252l-4.01-3.098c-0.231-0.178-0.562-0.136-0.74,0.095l-3.098,4.01
				c-0.178,0.231-0.136,0.562,0.095,0.74l4.01,3.098c0.231,0.178,0.562,0.136,0.74-0.095l3.098-4.01
				C131.165,28.762,131.123,28.43,130.892,28.252z"/>
			<path fill="#FFFFFF" d="M114.546,32.974l4.346,1.975c0.25,0.114,0.545,0.003,0.658-0.247l1.975-4.346
				c0.114-0.25,0.003-0.545-0.247-0.658l-4.346-1.975c-0.25-0.114-0.545-0.003-0.658,0.247l-1.975,4.346
				C114.185,32.565,114.296,32.86,114.546,32.974z"/>
			<path fill="#FFFFFF" d="M112.514,33.262l-4.688-0.898c-0.27-0.052-0.53,0.125-0.582,0.395l-0.898,4.688
				c-0.052,0.27,0.125,0.53,0.395,0.582l4.688,0.898c0.27,0.052,0.53-0.125,0.582-0.395l0.898-4.688
				C112.96,33.574,112.784,33.314,112.514,33.262z"/>
			<path fill="#FFFFFF" d="M100.381,44.656l4.658-0.233c0.268-0.013,0.474-0.241,0.461-0.509l-0.233-4.658
				c-0.013-0.268-0.241-0.474-0.509-0.461l-4.658,0.233c-0.268,0.013-0.474,0.241-0.461,0.509l0.233,4.658
				C99.885,44.463,100.113,44.669,100.381,44.656z"/>
			<path fill="#FFFFFF" d="M95.069,52.321c0.074,0.254,0.34,0.4,0.594,0.325l4.414-1.292c0.254-0.074,0.4-0.34,0.325-0.594
				l-1.292-4.414c-0.074-0.254-0.34-0.4-0.594-0.325l-4.414,1.292c-0.254,0.074-0.4,0.34-0.325,0.594L95.069,52.321z"/>
			<path fill="#FFFFFF" d="M92.43,61.014c0.116,0.203,0.376,0.274,0.579,0.158l3.536-2.023c0.203-0.116,0.274-0.376,0.158-0.579
				l-2.023-3.536c-0.116-0.203-0.376-0.274-0.579-0.158l-3.536,2.023c-0.203,0.116-0.274,0.376-0.158,0.579L92.43,61.014z"/>
			<path fill="#FFFFFF" d="M92.377,70.17l2.965-2.746c0.171-0.158,0.181-0.424,0.023-0.595l-2.746-2.965
				c-0.158-0.171-0.424-0.181-0.595-0.023l-2.965,2.746c-0.171,0.158-0.181,0.424-0.023,0.595l2.746,2.965
				C91.94,70.317,92.206,70.328,92.377,70.17z"/>
			<path fill="#FFFFFF" d="M93.77,79.038l2.002-2.978c0.115-0.171,0.07-0.404-0.102-0.519l-2.978-2.002
				c-0.171-0.115-0.404-0.07-0.519,0.102l-2.002,2.978c-0.115,0.171-0.07,0.404,0.102,0.519l2.978,2.002
				C93.423,79.255,93.655,79.209,93.77,79.038z"/>
			<path fill="#FFFFFF" d="M98.032,83.75l-3.105-1.156c-0.179-0.067-0.377,0.024-0.444,0.203l-1.156,3.105
				c-0.067,0.179,0.024,0.377,0.203,0.444l3.105,1.156c0.179,0.067,0.377-0.024,0.444-0.203l1.156-3.105
				C98.301,84.015,98.21,83.816,98.032,83.75z"/>
			<path fill="#FFFFFF" d="M102.04,90.938h-3.124c-0.185,0-0.335,0.15-0.335,0.335v3.124c0,0.185,0.15,0.335,0.335,0.335h3.124
				c0.185,0,0.335-0.15,0.335-0.335v-3.124C102.374,91.088,102.225,90.938,102.04,90.938z"/>
			<path fill="#FFFFFF" d="M105.566,83.945l-2.638-0.701c-0.156-0.041-0.316,0.051-0.358,0.208l-0.701,2.638
				c-0.041,0.156,0.051,0.316,0.208,0.358l2.638,0.701c0.156,0.041,0.316-0.051,0.358-0.208l0.701-2.638
				C105.815,84.146,105.722,83.986,105.566,83.945z"/>
			<path fill="#FFFFFF" d="M101.637,80.431l1.391-2.65c0.082-0.157,0.022-0.351-0.135-0.433l-2.65-1.391
				c-0.157-0.082-0.351-0.022-0.433,0.135l-1.391,2.65c-0.082,0.157-0.022,0.351,0.135,0.433l2.65,1.391
				C101.361,80.648,101.555,80.588,101.637,80.431z"/>
			<path fill="#FFFFFF" d="M98.903,68.169l-2.212,2.527c-0.131,0.15-0.116,0.377,0.034,0.508l2.527,2.212
				c0.15,0.131,0.377,0.116,0.508-0.034l2.212-2.527c0.131-0.15,0.116-0.377-0.034-0.508l-2.527-2.212
				C99.261,68.005,99.034,68.02,98.903,68.169z"/>
			<path fill="#FFFFFF" d="M102.544,63.369l-2.101-2.962c-0.124-0.175-0.367-0.217-0.542-0.092l-2.962,2.101
				c-0.175,0.124-0.217,0.367-0.092,0.542l2.101,2.962c0.124,0.175,0.367,0.217,0.542,0.092l2.962-2.101
				C102.627,63.787,102.668,63.544,102.544,63.369z"/>
			<path fill="#FFFFFF" d="M104.921,56.832l-1.554-3.795c-0.092-0.225-0.349-0.332-0.573-0.24l-3.795,1.554
				c-0.225,0.092-0.332,0.349-0.24,0.573l1.554,3.795c0.092,0.225,0.349,0.332,0.573,0.24l3.795-1.554
				C104.905,57.314,105.013,57.057,104.921,56.832z"/>
			<path fill="#FFFFFF" d="M108.024,46.396l-4.131,0.001c-0.244,0-0.443,0.198-0.443,0.443l0.001,4.131
				c0,0.244,0.198,0.443,0.443,0.443l4.131-0.001c0.244,0,0.443-0.198,0.443-0.443l-0.001-4.131
				C108.467,46.594,108.269,46.396,108.024,46.396z"/>
			<path fill="#FFFFFF" d="M119.701,37.989l-3.682-1.44c-0.218-0.085-0.464,0.022-0.549,0.24l-1.44,3.682
				c-0.085,0.218,0.022,0.464,0.24,0.549l3.682,1.44c0.218,0.085,0.464-0.022,0.549-0.24l1.44-3.682
				C120.027,38.32,119.919,38.074,119.701,37.989z"/>
			<path fill="#FFFFFF" d="M127.211,35.903l-3.341-2.054c-0.198-0.122-0.456-0.06-0.578,0.138l-2.054,3.341
				c-0.122,0.198-0.06,0.456,0.138,0.578l3.341,2.054c0.198,0.122,0.456,0.06,0.578-0.138l2.054-3.341
				C127.47,36.283,127.408,36.025,127.211,35.903z"/>
		</g>
	</g>
</g>
</svg>