<?xml version="1.0" encoding="utf-8"?>
<!-- Generator: Adobe Illustrator 17.0.0, SVG Export Plug-In . SVG Version: 6.00 Build 0)  -->
<!DOCTYPE svg PUBLIC "-//W3C//DTD SVG 1.1//EN" "http://www.w3.org/Graphics/SVG/1.1/DTD/svg11.dtd">
<svg version="1.1" id="Layer_1" xmlns="http://www.w3.org/2000/svg" xmlns:xlink="http://www.w3.org/1999/xlink" x="0px" y="0px"
	 width="229.903px" height="147.24px" viewBox="0 0 229.903 147.24" enable-background="new 0 0 229.903 147.24"
	 xml:space="preserve">
<path fill="#0C6E6D" d="M229.903,66.164c-1.474,13.015-13.757,25.152-23.288,25.201c-3.044,9.858-14.042,20.992-32.807,21.871
	c-4.183,6.046-17.49,14.6-30.984,12.029c-4.212,8.515-25.502,12.616-27.546,21.643c-0.105,0.464-0.556,0.434-0.667-0.043
	c-2.102-8.996-23.33-13.098-27.536-21.599c-13.495,2.571-26.801-5.984-30.984-12.029c-18.765-0.879-29.763-12.014-32.807-21.871
	C13.76,91.316,1.485,79.192,0,66.184L229.903,66.164z"/>
<path fill="#0C706F" d="M229.256,66.167c-2.833,11.816-13.965,22.145-22.755,22.19c-3.044,9.858-14.042,20.992-32.807,21.871
	c-4.183,6.046-17.49,14.6-30.984,12.029c-4.212,8.515-25.502,12.616-27.546,21.643c-0.105,0.464-0.555,0.434-0.667-0.043
	c-2.102-8.996-23.33-13.098-27.536-21.599c-13.495,2.571-26.801-5.984-30.984-12.029C37.212,109.35,26.214,98.215,23.17,88.358
	C14.38,88.312,3.246,77.982,0.415,66.164l26.384,0.001c-1.119-11.19,9.818-22.482,17.98-22.523
	c2.328-7.541,10.742-16.058,25.096-16.731c3.2-4.625,13.379-11.168,23.702-9.202c3.217-6.503,19.456-9.641,21.064-16.523
	c0.085-0.365,0.43-0.388,0.51-0.033C116.715,8.059,133,11.196,136.222,17.71c10.323-1.967,20.502,4.577,23.702,9.202
	c14.354,0.673,22.768,9.19,25.096,16.731c8.162,0.042,18.892,11.333,17.773,22.523L229.256,66.167z"/>
<path fill="#0C706F" d="M229.256,66.259c-2.833,11.816-13.965,22.145-22.755,22.19c-3.044,9.858-14.042,20.992-32.807,21.871
	c-4.183,6.046-17.49,14.6-30.984,12.029c-4.212,8.515-25.502,12.616-27.546,21.643c-0.105,0.464-0.555,0.434-0.667-0.043
	c-2.102-8.996-23.33-13.098-27.536-21.599c-13.495,2.571-26.801-5.984-30.984-12.029C37.212,109.442,26.214,98.307,23.17,88.45
	C14.38,88.404,3.246,78.074,0.415,66.257L229.256,66.259z"/>
<path fill="none" stroke="#045353" stroke-width="0.75" stroke-miterlimit="10" d="M229.256,66.259
	c-2.832,11.817-13.965,22.145-22.755,22.19c-3.044,9.858-14.042,20.992-32.807,21.871c-4.183,6.046-17.49,14.6-30.984,12.029
	c-4.212,8.515-25.502,12.616-27.546,21.643c-0.105,0.464-0.555,0.434-0.667-0.043c-2.102-8.996-23.33-13.098-27.536-21.599
	c-13.495,2.571-26.801-5.984-30.984-12.029C37.212,109.442,26.214,98.307,23.17,88.45C14.38,88.404,3.247,78.075,0.415,66.258"/>
<path fill="none" stroke="#A2AFA7" stroke-width="1.5" stroke-miterlimit="10" d="M202.712,66.095
	c1.119-11.19-9.675-22.482-17.837-22.523c-2.328-7.541-10.742-16.058-25.096-16.731c-3.2-4.625-13.379-11.168-23.702-9.202
	c-3.222-6.514-19.508-9.651-21.072-16.556c-0.08-0.355-0.425-0.332-0.51,0.033c-1.608,6.882-17.847,10.02-21.064,16.523
	c-10.323-1.967-20.502,4.577-23.702,9.202c-14.354,0.673-22.768,9.19-25.096,16.731c-8.162,0.042-18.991,11.384-17.872,22.574"/>
</svg>