<?xml version="1.0" encoding="utf-8"?>
<!-- Generator: Adobe Illustrator 17.0.0, SVG Export Plug-In . SVG Version: 6.00 Build 0)  -->
<!DOCTYPE svg PUBLIC "-//W3C//DTD SVG 1.1//EN" "http://www.w3.org/Graphics/SVG/1.1/DTD/svg11.dtd">
<svg version="1.1" id="Layer_1" xmlns="http://www.w3.org/2000/svg" xmlns:xlink="http://www.w3.org/1999/xlink" x="0px" y="0px"
	 width="222px" height="316px" viewBox="0 0 222 316" enable-background="new 0 0 222 316" xml:space="preserve">
<path fill="#8CBA3F" d="M192.567,151.964c-7.826-3.267-15.429-10.765-20.376-16.733c-0.509,3.927-3.189,8.896-5.499,10.999
	c15.958,9.495,22.068,33.42,18.684,39.624c5.147,4.23,1.904,12.903-6.205,9.307c0.987,2.82,0.212,8.461-0.846,8.884
	c-25.1-9.213-45.31-46.233-29.329-51.779c15.605-4.794,23.689,45.951,12.831,67.009c4.935,5.17-2.867,11.375-7.192,8.179
	c-0.942,3.374-4.346,6.992-7.615,8.038v52.315c-1.88-30.553-25.664-45.5-5.217-51.751c-2.74-0.745-8.32-4.371-7.474-10.153
	c11.704,10.012,25.241-8.743,12.691-17.344c-4.7-2.82-4.794-8.743,2.115-8.884c-7.756-1.269-4.465-9.589,1.175-8.226
	c-10.435-2.538-5.828-13.772-15.699-13.49c-4.653,0.282-10.999,7.474-4.606,19.037c14.955,27.051-10.059,33.843-20.212,15.37
	c-7.131,7.86-12.089-4.87-17.297-9.636c-3.855-3.528-9.965-3.196-12.597,8.226c-1.88-10.294,2.914-15.746,5.358-16.498
	c-20.964,4.7-20.588-12.691-14.524-16.498c4.169-2.618,11.422-0.705,10.435,6.487c-2.397,12.973-30.177,1.269-21.105-21.293
	c-3.572,8.461-13.02,12.127-25.304,6.303c12.916-0.442,16.938-6.962,16.515-9.406c-14.242,15.793-20.87-3.525-30.776-8.085
	l0.001-0.004c9.906-4.559,16.534-23.878,30.776-8.085c0.423-2.444-3.599-8.964-16.515-9.406c12.284-5.824,21.732-2.157,25.304,6.303
	c-9.072-22.562,18.708-34.266,21.105-21.293c0.987,7.192-6.266,9.104-10.435,6.487c-6.064-3.807-6.44-21.199,14.524-16.498
	c-2.444-0.752-7.239-6.205-5.358-16.498c2.632,11.422,8.742,11.753,12.597,8.226c5.208-4.766,10.166-17.496,17.297-9.636
	c10.153-18.473,35.167-11.681,20.212,15.37c-6.393,11.563-0.047,18.755,4.606,19.037c9.871,0.282,5.264-10.952,15.699-13.49
	c-5.64,1.363-8.931-6.957-1.175-8.226c-6.91-0.141-6.816-6.064-2.115-8.884c12.55-8.602-0.987-27.356-12.691-17.344
	c-0.846-5.781,4.733-9.408,7.474-10.153c-20.447-6.252,3.337-21.199,5.217-51.751v52.315c3.268,1.046,6.673,4.664,7.615,8.038
	c4.324-3.196,12.127,3.008,7.192,8.179c10.858,21.058,2.773,71.793-12.832,66.998c-15.981-5.546,4.23-42.556,29.331-51.769
	c1.058,0.423,1.833,6.064,0.846,8.884c8.108-3.596,11.351,5.076,6.205,9.307c3.384,6.205-2.726,30.13-18.684,39.624
	c2.311,2.103,4.991,7.071,5.499,10.999c4.947-5.969,12.55-13.467,20.376-16.733L192.567,151.964z"/>
<g>
	<path fill="#3D8D8C" d="M180.028,160.557c3.823-3.482,8.146-6.65,12.54-8.484l-0.001,0.004c-4.395-1.834-8.719-5.003-12.542-8.486
		c-1.726,3.039-3.794,5.935-6.229,8.494l0,0C176.232,154.65,178.308,157.549,180.028,160.557z"/>
	<path fill="#3D8D8C" d="M149.029,151.634c-13.403-4.652-1.349-31.434,17.696-45.389l0,0
		C167.862,128.84,160.465,155.147,149.029,151.634z"/>
	<path fill="#3D8D8C" d="M70.722,178.031c4.169-2.618,11.422-0.705,10.435,6.487c-1.132,6.124-7.919,6.749-13.816,3.329l0.001,0.001
		C66.503,183.968,68.068,179.698,70.722,178.031z"/>
	<path fill="#3D8D8C" d="M149.029,152.29c-13.403,4.652-1.349,31.434,17.696,45.389l0,0
		C167.862,175.084,160.465,148.777,149.029,152.29z"/>
	<path fill="#3D8D8C" d="M70.722,125.893c4.169,2.618,11.422,0.705,10.435-6.487c-1.132-6.124-7.919-6.749-13.816-3.329l0.001-0.001
		C66.503,119.957,68.068,124.226,70.722,125.893z"/>
	<path fill="#3D8D8C" d="M172.125,168.917c2.169-2.618,4.85-5.529,7.836-8.249l0,0c-1.72-3.008-3.796-5.907-6.231-8.471l0,0
		c-2.091,2.197-4.453,4.145-7.103,5.722C168.936,160.021,171.616,164.99,172.125,168.917z"/>
	<path fill="#3D8D8C" d="M172.125,135.231c2.169,2.618,4.85,5.529,7.836,8.249l0,0c-1.72,3.008-3.796,5.907-6.231,8.471l0,0
		c-2.091-2.197-4.453-4.145-7.103-5.722C168.936,144.126,171.616,139.158,172.125,135.231z"/>
</g>





<filter id="dropshadow" height="100%">
  <feGaussianBlur in="SourceAlpha" stdDeviation="3"/> <!-- stdDeviation is how much to blur -->
  <feOffset dx="2" dy="2" result="offsetblur"/> <!-- how much to offset -->
  <feMerge> 
    <feMergeNode/> <!-- this contains the offset blurred image -->
    <feMergeNode in="SourceGraphic"/> <!-- this contains the element that the filter is applied to -->
  </feMerge>
</filter>


<filter id="drop-shadow">
	<feGaussianBlur in="SourceAlpha" stdDeviation="2.2"/>
	<feOffset dx="0" dy="0" result="offsetblur"/>
	<feFlood flood-color="rgba(0,0,0,0.5)"/>
	<feComposite in2="offsetblur" operator="in"/>
	<feMerge>
	<feMergeNode/>
	<feMergeNode in="SourceGraphic"/>
	</feMerge>
</filter>


<filter id="f4" x="0" y="0" width="200%" height="200%">
  <feOffset result="offOut" in="SourceGraphic" dx="2" dy="20" />
  <feColorMatrix result="matrixOut" in="offOut" type="matrix"
  values="0.2 0 0 0 0 0 0.2 0 0 0 0 0 0.2 0 0 0 0 0 1 0" />
  <feGaussianBlur result="blurOut" in="matrixOut" stdDeviation="10" />
  <feBlend in="SourceGraphic" in2="blurOut" mode="normal" />
</filter>

 





<path class="mixa" style="filter:url(#drop-shadow)" fill="none" stroke="#FFFFFF" stroke-linecap="round" stroke-linejoin="round" stroke-miterlimit="10" d="M192.567,151.964
	c-7.826-3.267-15.429-10.765-20.376-16.733c-0.509,3.927-3.189,8.896-5.499,10.999c15.958,9.495,22.068,33.42,18.684,39.624
	c5.147,4.23,1.904,12.903-6.205,9.307c0.987,2.82,0.212,8.461-0.846,8.884c-25.1-9.213-45.31-46.233-29.329-51.779
	c15.605-4.794,23.689,45.951,12.831,67.009c4.935,5.17-2.867,11.375-7.192,8.179c-0.942,3.374-4.346,6.992-7.615,8.038v52.315
	c-1.88-30.553-25.664-45.5-5.217-51.751c-2.74-0.745-8.32-4.371-7.474-10.153c11.704,10.012,25.241-8.743,12.691-17.344
	c-4.7-2.82-4.794-8.743,2.115-8.884c-7.756-1.269-4.465-9.589,1.175-8.226c-10.435-2.538-5.828-13.772-15.699-13.49
	c-4.653,0.282-10.999,7.474-4.606,19.037c14.955,27.051-10.059,33.843-20.212,15.37c-7.131,7.86-12.089-4.87-17.297-9.636
	c-3.855-3.528-9.965-3.196-12.597,8.226c-1.88-10.294,2.914-15.746,5.358-16.498c-20.964,4.7-20.588-12.691-14.524-16.498
	c4.169-2.618,11.422-0.705,10.435,6.487c-2.397,12.973-30.177,1.269-21.105-21.293c-3.572,8.461-13.02,12.127-25.304,6.303
	c12.916-0.442,16.938-6.962,16.515-9.406c-14.242,15.793-20.87-3.525-30.776-8.085l0.001-0.004
	c9.906-4.559,16.534-23.878,30.776-8.085c0.423-2.444-3.599-8.964-16.515-9.406c12.284-5.824,21.732-2.157,25.304,6.303
	c-9.072-22.562,18.708-34.266,21.105-21.293c0.987,7.192-6.266,9.105-10.435,6.487c-6.064-3.807-6.44-21.199,14.524-16.498
	c-2.444-0.752-7.239-6.205-5.358-16.498c2.632,11.422,8.742,11.753,12.597,8.226c5.208-4.766,10.166-17.496,17.297-9.636
	c10.153-18.473,35.167-11.681,20.212,15.37c-6.393,11.563-0.047,18.755,4.606,19.037c9.871,0.282,5.264-10.952,15.699-13.49
	c-5.64,1.363-8.931-6.957-1.175-8.226c-6.91-0.141-6.816-6.064-2.115-8.884c12.55-8.602-0.987-27.356-12.691-17.344
	c-0.846-5.781,4.733-9.408,7.474-10.153c-20.447-6.252,3.337-21.199,5.217-51.751v52.315c3.268,1.046,6.673,4.664,7.615,8.038
	c4.324-3.196,12.127,3.008,7.192,8.179c10.858,21.058,2.773,71.793-12.832,66.998c-15.981-5.546,4.23-42.556,29.331-51.769
	c1.058,0.423,1.833,6.064,0.846,8.884c8.108-3.596,11.351,5.076,6.205,9.307c3.384,6.205-2.726,30.13-18.684,39.624
	c2.311,2.103,4.991,7.071,5.499,10.999c4.947-5.969,12.55-13.467,20.376-16.733L192.567,151.964z"/>
<path fill="#f6fbf6" d="M49.954,152.196c9.439,0.94,11.883,17.674,28.805,10.905c-6.202,1.605-12.973,6.581-11.845,11.845
	c11.845-11.281,26.322,3.384,19.178,12.793c3.807-2.217,7.756,1.779,4.512,4.881c15.041-1.692,28.202,7.333,22.784,15.767
	c7.111,8.864,20.365,9.398,8.521-10.314c-12.879-21.434,5.796-41.246,15.758-45.876c-9.962-4.63-28.637-24.442-15.758-45.876
	c11.844-19.712-1.41-19.178-8.521-10.314c5.419,8.434-7.743,17.459-22.784,15.767c3.243,3.102-0.705,7.098-4.512,4.881
	c7.145,9.408-7.333,24.074-19.178,12.793c-1.128,5.264,5.643,10.24,11.845,11.845C61.837,134.523,59.393,151.256,49.954,152.196z"/>
<path fill="none" style="filter:url(#drop-shadow)" stroke="#FFFFFF" stroke-linecap="round" stroke-linejoin="round" stroke-miterlimit="10" d="M49.954,151.952
	c9.439,0.94,11.883,17.674,28.805,10.905c-6.202,1.605-12.973,6.581-11.845,11.845c11.845-11.281,26.322,3.384,19.178,12.793
	c3.807-2.217,7.756,1.779,4.512,4.881c15.041-1.692,28.202,7.333,22.784,15.767c7.111,8.864,20.365,9.398,8.521-10.314
	c-12.879-21.434,5.796-41.246,15.758-45.876c-9.962-4.63-28.637-24.442-15.758-45.876c11.844-19.712-1.41-19.178-8.521-10.314
	c5.419,8.434-7.743,17.459-22.784,15.767c3.243,3.102-0.705,7.098-4.512,4.881c7.145,9.408-7.333,24.074-19.178,12.793
	c-1.128,5.264,5.643,10.24,11.845,11.845C61.837,134.278,59.393,151.011,49.954,151.952z"/>
</svg>
