<?xml version="1.0" encoding="utf-8"?>
<!-- Generator: Adobe Illustrator 17.0.0, SVG Export Plug-In . SVG Version: 6.00 Build 0)  -->
<!DOCTYPE svg PUBLIC "-//W3C//DTD SVG 1.1//EN" "http://www.w3.org/Graphics/SVG/1.1/DTD/svg11.dtd">
<svg version="1.1" id="Layer_1" xmlns="http://www.w3.org/2000/svg" xmlns:xlink="http://www.w3.org/1999/xlink" x="0px" y="0px"
	 width="28.736px" height="94.284px" viewBox="0 0 28.736 94.284" enable-background="new 0 0 28.736 94.284" xml:space="preserve">
<g>
	<path fill="#0C706F" d="M28.736,94.284c-5.07-1.565-10.796-7.222-11.248-16.872c-3.109-2.151-7.508-8.995-6.186-15.935
		C6.922,59.311,4.813,48.362,0.171,47.311c-0.239-0.054-0.223-0.286,0.022-0.343c4.627-1.081,6.736-11.998,11.108-14.161
		c-1.322-6.94,3.077-13.783,6.186-15.935C17.94,7.222,23.666,1.565,28.736,0V94.284z"/>
	<g>
		<g>
			<path fill="#358887" d="M26.414,90.606c0.488-0.496,0.542-1.228,0.156-1.669c-0.369-0.457-1.127-0.492-1.679-0.088
				c-0.562,0.411-0.655,1.179-0.214,1.72C25.136,91.095,25.934,91.094,26.414,90.606z"/>
		</g>
		<g>
			<path fill="#358887" d="M23.627,86.896c0.59-0.342,0.836-1.038,0.588-1.577c-0.276-0.525-0.957-0.773-1.6-0.516
				c-0.639,0.255-0.969,0.991-0.649,1.607C22.258,87.039,23.023,87.246,23.627,86.896z"/>
		</g>
		<g>
			<path fill="#358887" d="M21.85,82.607c0.651-0.191,1.073-0.82,0.941-1.404c-0.152-0.58-0.763-0.976-1.446-0.866
				c-0.68,0.11-1.164,0.749-0.993,1.415C20.504,82.422,21.176,82.805,21.85,82.607z"/>
		</g>
		<g>
			<path fill="#358887" d="M18.886,75.385c0.523-0.453,0.633-1.172,0.292-1.655c-0.358-0.47-1.073-0.597-1.667-0.226
				c-0.578,0.359-0.773,1.142-0.353,1.7C17.562,75.772,18.365,75.836,18.886,75.385z"/>
		</g>
		<g>
			<path fill="#358887" d="M16.378,71.467c0.611-0.302,0.913-0.989,0.684-1.539c-0.23-0.548-0.9-0.836-1.564-0.62
				c-0.649,0.211-1.017,0.925-0.75,1.565C15.015,71.514,15.751,71.777,16.378,71.467z"/>
		</g>
		<g>
			<path fill="#358887" d="M14.9,67.057c0.675-0.141,1.116-0.721,1.059-1.302c-0.093-0.578-0.64-1.032-1.338-1.01
				c-0.682,0.02-1.251,0.616-1.144,1.313C13.55,66.759,14.224,67.198,14.9,67.057z"/>
		</g>
		<g>
			<path fill="#358887" d="M12.428,59.245c0.552-0.426,0.708-1.136,0.383-1.648c-0.324-0.519-1.072-0.67-1.666-0.332
				c-0.605,0.345-0.804,1.096-0.437,1.683C11.083,59.537,11.888,59.663,12.428,59.245z"/>
		</g>
		<g>
			<path fill="#358887" d="M10.009,55.197c0.61-0.322,0.859-1.051,0.556-1.627c-0.307-0.58-1.055-0.789-1.661-0.458
				c-0.607,0.331-0.853,1.052-0.551,1.624C8.658,55.313,9.398,55.52,10.009,55.197z"/>
		</g>
		<g>
			<path fill="#358887" d="M7.73,51.066c0.587-0.36,0.788-1.13,0.367-1.708c-0.387-0.591-1.244-0.665-1.742-0.206
				c-0.52,0.477-0.62,1.152-0.295,1.656C6.409,51.282,7.14,51.427,7.73,51.066z"/>
		</g>
		<g>
			<path fill="#358887" d="M4.566,47.634c0.419-0.147,0.701-0.297,0.984-0.385c0.269-0.091,0.541-0.108,0.541-0.108
				s-0.272-0.017-0.541-0.107c-0.283-0.086-0.568-0.242-0.983-0.381c-0.497-0.16-1.056-0.242-1.487-0.155
				c-0.217,0.041-0.406,0.12-0.559,0.227c-0.174,0.14-0.235,0.159-0.237,0.423C2.341,47.854,3.559,47.981,4.566,47.634z"/>
		</g>
		<g>
			<path fill="#358887" d="M6.355,45.132c0.496,0.459,1.356,0.385,1.742-0.206c0.42-0.579,0.221-1.348-0.367-1.708
				c-0.588-0.361-1.322-0.217-1.67,0.258C5.735,43.981,5.834,44.654,6.355,45.132z"/>
		</g>
		<g>
			<path fill="#358887" d="M8.905,41.172c0.606,0.33,1.353,0.122,1.661-0.458c0.303-0.576,0.054-1.305-0.556-1.627
				c-0.611-0.323-1.352-0.116-1.655,0.461C8.051,40.119,8.298,40.841,8.905,41.172z"/>
		</g>
		<g>
			<path fill="#358887" d="M11.146,37.018c0.594,0.338,1.342,0.187,1.666-0.332c0.324-0.512,0.169-1.221-0.383-1.648
				c-0.54-0.418-1.346-0.292-1.72,0.296C10.341,35.922,10.54,36.673,11.146,37.018z"/>
		</g>
		<g>
			<path fill="#358887" d="M14.621,29.539c0.698,0.022,1.244-0.431,1.338-1.01c0.057-0.581-0.384-1.162-1.059-1.302
				c-0.676-0.141-1.351,0.298-1.423,1C13.37,28.923,13.939,29.519,14.621,29.539z"/>
		</g>
		<g>
			<path fill="#358887" d="M15.499,24.975c0.664,0.216,1.334-0.072,1.564-0.62c0.229-0.549-0.074-1.237-0.684-1.539
				c-0.627-0.309-1.363-0.047-1.63,0.593C14.482,24.05,14.85,24.764,15.499,24.975z"/>
		</g>
		<g>
			<path fill="#358887" d="M17.511,20.779c0.594,0.371,1.309,0.244,1.667-0.226c0.342-0.483,0.232-1.202-0.292-1.655
				c-0.521-0.451-1.324-0.387-1.728,0.181C16.738,19.637,16.933,20.42,17.511,20.779z"/>
		</g>
		<g>
			<path fill="#358887" d="M21.346,13.946c0.683,0.111,1.294-0.286,1.446-0.866c0.132-0.585-0.291-1.213-0.941-1.404
				c-0.674-0.197-1.346,0.185-1.497,0.855C20.182,13.197,20.666,13.836,21.346,13.946z"/>
		</g>
		<g>
			<path fill="#358887" d="M22.615,9.48c0.643,0.257,1.324,0.009,1.6-0.516c0.248-0.539,0.002-1.235-0.588-1.577
				c-0.604-0.35-1.369-0.143-1.661,0.486C21.647,8.49,21.977,9.225,22.615,9.48z"/>
		</g>
		<g>
			<path fill="#358887" d="M24.891,5.435c0.553,0.404,1.31,0.369,1.679-0.088c0.386-0.441,0.332-1.173-0.156-1.669
				c-0.48-0.488-1.278-0.489-1.738,0.037C24.236,4.256,24.329,5.024,24.891,5.435z"/>
		</g>
		<g>
			<g>
				<defs>
					<path id="SVGID_1_" d="M22.317,77.938c0,0-0.024-0.292-0.049-0.585c-0.014-0.309-0.029-0.618-0.029-0.618l-2.453,1.36
						c0,0,0.012,0.008,0.037,0.022l0,0l0.001,0l0.005,0c0,0,0.012-0.001,0.021-0.002c0.018-0.001,0.045-0.003,0.079-0.006
						c0.068-0.005,0.166-0.012,0.282-0.02c0.234-0.017,0.545-0.039,0.857-0.062C21.694,77.983,22.317,77.938,22.317,77.938z"/>
				</defs>
				<use xlink:href="#SVGID_1_"  overflow="visible" fill="#358887"/>
				<clipPath id="SVGID_2_">
					<use xlink:href="#SVGID_1_"  overflow="visible"/>
				</clipPath>
				<polygon clip-path="url(#SVGID_2_)" fill="#358887" points="21.07,78.028 21.197,78.016 21.321,77.997 21.439,77.974 
					21.552,77.946 21.659,77.913 21.759,77.875 21.852,77.835 21.937,77.79 22.014,77.743 22.083,77.693 22.141,77.641 
					22.189,77.586 22.227,77.53 22.241,77.501 22.253,77.472 22.261,77.443 22.267,77.413 22.269,77.383 22.268,77.353 
					22.265,77.321 22.259,77.29 22.249,77.26 22.237,77.23 22.222,77.201 22.203,77.172 22.159,77.117 22.104,77.066 22.039,77.018 
					21.965,76.974 21.882,76.934 21.892,76.842 21.894,76.756 21.887,76.676 21.873,76.601 21.85,76.535 21.835,76.504 
					21.819,76.476 21.8,76.449 21.779,76.425 21.756,76.403 21.731,76.384 21.709,76.369 21.685,76.356 21.66,76.347 21.633,76.34 
					21.605,76.335 21.575,76.334 21.512,76.338 21.443,76.352 21.371,76.375 21.294,76.407 21.214,76.447 21.131,76.495 
					21.046,76.551 20.959,76.615 20.872,76.685 20.784,76.763 20.697,76.847 20.612,76.938 20.529,77.035 20.451,77.137 
					20.38,77.239 20.318,77.342 20.263,77.445 20.217,77.547 20.179,77.648 20.151,77.748 20.14,77.796 20.135,77.82 20.133,77.832 
					20.132,77.838 20.132,77.841 20.131,77.843 20.131,77.844 20.131,77.844 20.148,77.895 20.265,77.94 20.364,77.97 20.47,77.994 
					20.581,78.013 20.697,78.026 20.818,78.033 20.943,78.034 				"/>
			</g>
			<g>
				<defs>
					<path id="SVGID_3_" d="M21.316,76.065c0,0,0.207,0.16,0.414,0.319c0.254,0.176,0.508,0.352,0.508,0.352l-2.453,1.36
						c0,0-0.015-0.03-0.045-0.089l0,0l0,0l0.001-0.001l0.003-0.004c0,0,0.007-0.009,0.013-0.016c0.012-0.014,0.028-0.035,0.05-0.062
						c0.043-0.053,0.105-0.129,0.178-0.22c0.148-0.182,0.345-0.425,0.541-0.667C20.923,76.55,21.316,76.065,21.316,76.065z"/>
				</defs>
				<use xlink:href="#SVGID_3_"  overflow="visible" fill="#358887"/>
				<clipPath id="SVGID_4_">
					<use xlink:href="#SVGID_3_"  overflow="visible"/>
				</clipPath>
				<polygon clip-path="url(#SVGID_4_)" fill="#358887" points="22.268,77.353 22.265,77.321 22.259,77.29 22.249,77.26 
					22.237,77.23 22.222,77.201 22.203,77.172 22.159,77.117 22.104,77.066 22.039,77.018 21.965,76.974 21.882,76.934 
					21.892,76.842 21.894,76.756 21.887,76.676 21.873,76.601 21.85,76.535 21.835,76.504 21.819,76.476 21.8,76.449 21.779,76.425 
					21.756,76.403 21.731,76.384 21.709,76.369 21.685,76.356 21.66,76.347 21.633,76.34 21.605,76.335 21.575,76.334 
					21.512,76.338 21.443,76.352 21.371,76.375 21.294,76.407 21.214,76.447 21.131,76.495 21.046,76.551 20.959,76.615 
					20.872,76.685 20.784,76.763 20.697,76.847 20.612,76.938 20.529,77.035 20.451,77.137 20.38,77.239 20.318,77.342 
					20.263,77.445 20.217,77.547 20.179,77.648 20.151,77.748 20.14,77.796 20.135,77.82 20.133,77.832 20.132,77.838 
					20.132,77.841 20.131,77.843 20.131,77.844 20.131,77.844 20.148,77.895 20.265,77.94 20.364,77.97 20.47,77.994 20.581,78.013 
					20.697,78.026 20.818,78.033 20.943,78.034 21.07,78.028 21.197,78.016 21.321,77.997 21.439,77.974 21.552,77.946 
					21.659,77.913 21.759,77.875 21.852,77.835 21.937,77.79 22.014,77.743 22.083,77.693 22.141,77.641 22.189,77.586 
					22.227,77.53 22.241,77.501 22.253,77.472 22.261,77.443 22.267,77.413 22.269,77.383 				"/>
			</g>
		</g>
		<g>
			<g>
				<defs>
					<path id="SVGID_5_" d="M15.942,62.565c0,0,0.059-0.427,0.119-0.854c0.089-0.467,0.178-0.933,0.178-0.933l-2.874,1.429
						c0,0,0.032,0.021,0.095,0.063l0.001,0l0.005,0.001c0,0,0.012,0.001,0.021,0.002c0.018,0.002,0.045,0.005,0.079,0.009
						c0.068,0.008,0.165,0.02,0.281,0.033c0.233,0.028,0.543,0.064,0.853,0.101C15.322,62.491,15.942,62.565,15.942,62.565z"/>
				</defs>
				<use xlink:href="#SVGID_5_"  overflow="visible" fill="#358887"/>
				<clipPath id="SVGID_6_">
					<use xlink:href="#SVGID_5_"  overflow="visible"/>
				</clipPath>
				<polygon clip-path="url(#SVGID_6_)" fill="#358887" points="14.701,62.418 14.829,62.428 14.954,62.429 15.076,62.42 
					15.194,62.404 15.308,62.379 15.416,62.348 15.519,62.309 15.615,62.264 15.704,62.214 15.784,62.157 15.856,62.095 
					15.919,62.028 15.971,61.956 15.993,61.918 16.013,61.879 16.029,61.839 16.043,61.797 16.054,61.755 16.061,61.711 
					16.069,61.663 16.073,61.614 16.074,61.566 16.072,61.518 16.059,61.423 16.034,61.329 15.998,61.238 15.951,61.149 
					15.894,61.064 15.827,60.983 15.802,60.88 15.769,60.784 15.726,60.693 15.675,60.609 15.616,60.532 15.548,60.464 
					15.511,60.434 15.472,60.406 15.431,60.38 15.387,60.357 15.357,60.338 15.325,60.322 15.293,60.309 15.259,60.3 15.223,60.293 
					15.187,60.289 15.111,60.29 15.031,60.301 14.946,60.321 14.858,60.351 14.767,60.389 14.673,60.435 14.578,60.489 
					14.482,60.551 14.387,60.62 14.293,60.696 14.201,60.779 14.114,60.87 14.032,60.967 13.957,61.072 13.893,61.178 
					13.841,61.287 13.801,61.397 13.773,61.509 13.758,61.621 13.755,61.734 13.759,61.79 13.761,61.818 13.795,61.993 
					13.865,62.02 13.865,62.021 13.865,62.021 13.867,62.022 13.869,62.025 13.874,62.03 13.883,62.04 13.903,62.059 13.943,62.097 
					14.031,62.166 14.126,62.229 14.229,62.284 14.338,62.33 14.454,62.369 14.575,62.398 				"/>
			</g>
			<g>
				<defs>
					<path id="SVGID_7_" d="M14.799,59.98c0,0,0.075,0.046,0.187,0.114c0.11,0.072,0.256,0.167,0.402,0.262
						c0.426,0.211,0.851,0.421,0.851,0.421l-2.874,1.429c0,0-0.034-0.084-0.101-0.253l0,0l0,0l0.001-0.001l0.003-0.004
						c0,0,0.007-0.009,0.013-0.016c0.011-0.014,0.028-0.036,0.049-0.063c0.042-0.054,0.102-0.131,0.174-0.224
						c0.144-0.185,0.336-0.432,0.527-0.678C14.415,60.474,14.799,59.98,14.799,59.98z"/>
				</defs>
				<use xlink:href="#SVGID_7_"  overflow="visible" fill="#358887"/>
				<clipPath id="SVGID_8_">
					<use xlink:href="#SVGID_7_"  overflow="visible"/>
				</clipPath>
				<polygon clip-path="url(#SVGID_8_)" fill="#358887" points="16.061,61.711 16.069,61.663 16.073,61.614 16.074,61.566 
					16.072,61.518 16.059,61.423 16.034,61.329 15.998,61.238 15.951,61.149 15.894,61.064 15.827,60.983 15.802,60.88 
					15.769,60.784 15.726,60.693 15.675,60.609 15.616,60.532 15.548,60.464 15.511,60.434 15.472,60.406 15.431,60.38 
					15.387,60.357 15.357,60.338 15.325,60.322 15.293,60.309 15.259,60.3 15.223,60.293 15.187,60.289 15.111,60.29 15.031,60.301 
					14.946,60.321 14.858,60.351 14.767,60.389 14.673,60.435 14.578,60.489 14.482,60.551 14.387,60.62 14.293,60.696 
					14.201,60.779 14.114,60.87 14.032,60.967 13.957,61.072 13.893,61.178 13.841,61.287 13.801,61.397 13.773,61.509 
					13.758,61.621 13.755,61.734 13.759,61.79 13.761,61.818 13.795,61.993 13.865,62.02 13.865,62.021 13.865,62.021 
					13.867,62.022 13.869,62.025 13.874,62.03 13.883,62.04 13.903,62.059 13.943,62.097 14.031,62.166 14.126,62.229 
					14.229,62.284 14.338,62.33 14.454,62.369 14.575,62.398 14.701,62.418 14.829,62.428 14.954,62.429 15.076,62.42 
					15.194,62.404 15.308,62.379 15.416,62.348 15.519,62.309 15.615,62.264 15.704,62.214 15.784,62.157 15.856,62.095 
					15.919,62.028 15.971,61.956 15.993,61.918 16.013,61.879 16.029,61.839 16.043,61.797 16.054,61.755 				"/>
			</g>
		</g>
		<g>
			<g>
				<defs>
					<path id="SVGID_9_" d="M14.799,34.303l0.003-0.003c0,0,0.006-0.004,0.01-0.007c0.009-0.005,0.022-0.013,0.038-0.023
						c0.033-0.02,0.079-0.048,0.135-0.082c0.11-0.071,0.256-0.167,0.402-0.262c0.426-0.211,0.851-0.421,0.851-0.421L13.413,32.1
						c0,0-0.05,0.077-0.148,0.229l0,0l0,0l0.001,0.001l0.003,0.004c0,0,0.007,0.009,0.013,0.017
						c0.011,0.014,0.028,0.036,0.049,0.063c0.042,0.054,0.102,0.131,0.174,0.224c0.144,0.185,0.336,0.432,0.527,0.678
						C14.415,33.81,14.799,34.303,14.799,34.303z"/>
				</defs>
				<use xlink:href="#SVGID_9_"  overflow="visible" fill="#358887"/>
				<clipPath id="SVGID_10_">
					<use xlink:href="#SVGID_9_"  overflow="visible"/>
				</clipPath>
				<polygon clip-path="url(#SVGID_10_)" fill="#358887" points="14.032,33.316 14.114,33.414 14.201,33.504 14.293,33.588 
					14.387,33.664 14.482,33.733 14.578,33.794 14.673,33.848 14.767,33.894 14.858,33.933 14.946,33.962 15.031,33.983 
					15.111,33.994 15.187,33.994 15.223,33.99 15.259,33.984 15.293,33.974 15.325,33.962 15.357,33.946 15.387,33.927 
					15.431,33.904 15.472,33.878 15.511,33.85 15.548,33.819 15.616,33.751 15.675,33.675 15.726,33.591 15.769,33.5 15.802,33.403 
					15.827,33.301 15.894,33.22 15.951,33.134 15.998,33.046 16.034,32.954 16.059,32.861 16.072,32.765 16.074,32.717 
					16.073,32.669 16.069,32.621 16.061,32.573 16.054,32.529 16.043,32.486 16.029,32.445 16.013,32.405 15.993,32.366 
					15.971,32.328 15.919,32.256 15.856,32.189 15.784,32.127 15.704,32.07 15.615,32.019 15.519,31.974 15.416,31.936 
					15.308,31.904 15.194,31.88 15.076,31.863 14.954,31.855 14.829,31.856 14.701,31.866 14.575,31.886 14.454,31.915 
					14.338,31.953 14.229,32 14.126,32.055 14.031,32.117 13.943,32.187 13.903,32.225 13.883,32.244 13.829,32.307 13.765,32.439 
					13.765,32.44 13.765,32.441 13.764,32.445 13.763,32.452 13.761,32.466 13.758,32.494 13.755,32.55 13.758,32.662 
					13.773,32.775 13.801,32.887 13.841,32.997 13.893,33.105 13.957,33.212 				"/>
			</g>
			<g>
				<defs>
					<path id="SVGID_11_" d="M15.942,31.718c0,0,0.059,0.427,0.119,0.854c0.089,0.467,0.178,0.933,0.178,0.933L13.413,32.1
						c0,0,0.016-0.029,0.047-0.087l0,0l0.001,0l0.005-0.001c0,0,0.012-0.001,0.021-0.002c0.018-0.002,0.045-0.005,0.079-0.009
						c0.068-0.008,0.165-0.02,0.281-0.033c0.233-0.028,0.543-0.064,0.853-0.101C15.322,31.792,15.942,31.718,15.942,31.718z"/>
				</defs>
				<use xlink:href="#SVGID_11_"  overflow="visible" fill="#358887"/>
				<clipPath id="SVGID_12_">
					<use xlink:href="#SVGID_11_"  overflow="visible"/>
				</clipPath>
				<polygon clip-path="url(#SVGID_12_)" fill="#358887" points="15.387,33.927 15.431,33.904 15.472,33.878 15.511,33.85 
					15.548,33.819 15.616,33.751 15.675,33.675 15.726,33.591 15.769,33.5 15.802,33.403 15.827,33.301 15.894,33.22 15.951,33.134 
					15.998,33.046 16.034,32.954 16.059,32.861 16.072,32.765 16.074,32.717 16.073,32.669 16.069,32.621 16.061,32.573 
					16.054,32.529 16.043,32.486 16.029,32.445 16.013,32.405 15.993,32.366 15.971,32.328 15.919,32.256 15.856,32.189 
					15.784,32.127 15.704,32.07 15.615,32.019 15.519,31.974 15.416,31.936 15.308,31.904 15.194,31.88 15.076,31.863 
					14.954,31.855 14.829,31.856 14.701,31.866 14.575,31.886 14.454,31.915 14.338,31.953 14.229,32 14.126,32.055 14.031,32.117 
					13.943,32.187 13.903,32.225 13.883,32.244 13.829,32.307 13.765,32.439 13.765,32.44 13.765,32.441 13.764,32.445 
					13.763,32.452 13.761,32.466 13.758,32.494 13.755,32.55 13.758,32.662 13.773,32.775 13.801,32.887 13.841,32.997 
					13.893,33.105 13.957,33.212 14.032,33.316 14.114,33.414 14.201,33.504 14.293,33.588 14.387,33.664 14.482,33.733 
					14.578,33.794 14.673,33.848 14.767,33.894 14.858,33.933 14.946,33.962 15.031,33.983 15.111,33.994 15.187,33.994 
					15.223,33.99 15.259,33.984 15.293,33.974 15.325,33.962 15.357,33.946 				"/>
			</g>
		</g>
		<g>
			<g>
				<defs>
					<path id="SVGID_13_" d="M21.316,18.219c0,0,0.207-0.16,0.414-0.319c0.254-0.176,0.508-0.352,0.508-0.352l-2.434-1.35
						c0,0-0.021,0.026-0.063,0.079l0,0l0,0l0.001,0.001l0.003,0.004c0,0,0.007,0.009,0.013,0.016
						c0.012,0.014,0.028,0.035,0.05,0.062c0.043,0.053,0.105,0.129,0.178,0.22c0.148,0.182,0.345,0.425,0.541,0.667
						C20.923,17.734,21.316,18.219,21.316,18.219z"/>
				</defs>
				<use xlink:href="#SVGID_13_"  overflow="visible" fill="#358887"/>
				<clipPath id="SVGID_14_">
					<use xlink:href="#SVGID_13_"  overflow="visible"/>
				</clipPath>
				<path clip-path="url(#SVGID_14_)" fill="#358887" d="M20.529,17.248l0.083,0.097l0.085,0.091l0.087,0.084l0.088,0.078
					l0.087,0.071l0.087,0.063l0.085,0.056l0.083,0.048l0.08,0.04l0.077,0.032l0.073,0.023l0.068,0.014l0.063,0.004l0.03-0.002
					l0.028-0.004l0.027-0.007l0.025-0.01l0.024-0.012l0.022-0.015l0.025-0.019l0.023-0.022l0.021-0.024l0.019-0.026l0.017-0.028
					l0.015-0.031l0.023-0.067l0.015-0.074l0.006-0.08l-0.002-0.086l-0.01-0.091l0.083-0.04l0.074-0.044l0.065-0.048l0.055-0.052
					l0.045-0.055l0.018-0.029l0.015-0.029l0.012-0.03l0.009-0.031l0.006-0.031l0.003-0.032l0.001-0.03l-0.002-0.03l-0.005-0.03
					l-0.009-0.029l-0.012-0.029l-0.014-0.029l-0.037-0.056l-0.048-0.054l-0.058-0.052l-0.068-0.05l-0.077-0.047l-0.085-0.044
					l-0.093-0.041l-0.1-0.037l-0.107-0.033l-0.113-0.028l-0.118-0.023l-0.123-0.018l-0.127-0.012l-0.128-0.006l-0.125,0.001
					l-0.121,0.007l-0.116,0.013l-0.111,0.019l-0.105,0.025l-0.099,0.03l-0.047,0.017l-0.023,0.009l-0.011,0.005l-0.006,0.002
					l-0.003,0.001l-0.001,0.001l-0.001,0l0,0l-0.013,0.017c-0.02,0.029-0.019,0.028-0.029,0.044l0,0l0,0.001l0,0.001l0,0.003
					l0.001,0.006l0.002,0.012l0.005,0.024l0.011,0.049l0.029,0.099l0.038,0.101l0.046,0.102l0.055,0.103l0.063,0.103l0.07,0.102
					L20.529,17.248z"/>
			</g>
			<g>
				<defs>
					<path id="SVGID_15_" d="M22.317,16.345c0,0-0.024,0.293-0.049,0.585c-0.014,0.309-0.029,0.618-0.029,0.618l-2.434-1.35
						c0,0,0.006-0.011,0.019-0.033l0,0l0,0l0.001,0l0.005,0c0,0,0.012,0.001,0.021,0.001c0.018,0.001,0.045,0.003,0.079,0.006
						c0.068,0.005,0.166,0.012,0.282,0.02c0.234,0.017,0.545,0.039,0.857,0.062C21.694,16.301,22.317,16.345,22.317,16.345z"/>
				</defs>
				<use xlink:href="#SVGID_15_"  overflow="visible" fill="#358887"/>
				<clipPath id="SVGID_16_">
					<use xlink:href="#SVGID_15_"  overflow="visible"/>
				</clipPath>
				<path clip-path="url(#SVGID_16_)" fill="#358887" d="M21.731,17.9l0.025-0.019l0.023-0.022l0.021-0.024l0.019-0.026l0.017-0.028
					l0.015-0.031l0.023-0.067l0.015-0.074l0.006-0.08l-0.002-0.086l-0.01-0.091l0.083-0.04l0.074-0.044l0.065-0.048l0.055-0.052
					l0.045-0.055l0.018-0.029l0.015-0.029l0.012-0.03l0.009-0.031l0.006-0.031l0.003-0.032l0.001-0.03l-0.002-0.03l-0.005-0.03
					l-0.009-0.029l-0.012-0.029l-0.014-0.029l-0.037-0.056l-0.048-0.054l-0.058-0.052l-0.068-0.05l-0.077-0.047l-0.085-0.044
					l-0.093-0.041l-0.1-0.037l-0.107-0.033l-0.113-0.028l-0.118-0.023l-0.123-0.018l-0.127-0.012l-0.128-0.006l-0.125,0.001
					l-0.121,0.007l-0.116,0.013l-0.111,0.019l-0.105,0.025l-0.099,0.03l-0.047,0.017l-0.023,0.009l-0.011,0.005l-0.006,0.002
					l-0.003,0.001l-0.001,0.001l-0.001,0l0,0l-0.013,0.017c-0.02,0.029-0.019,0.028-0.029,0.044l0,0l0,0.001l0,0.001l0,0.003
					l0.001,0.006l0.002,0.012l0.005,0.024l0.011,0.049l0.029,0.099l0.038,0.101l0.046,0.102l0.055,0.103l0.063,0.103l0.07,0.102
					l0.078,0.101l0.083,0.097l0.085,0.091l0.087,0.084l0.088,0.078l0.087,0.071l0.087,0.063l0.085,0.056l0.083,0.048l0.08,0.04
					l0.077,0.032l0.073,0.023l0.068,0.014l0.063,0.004l0.03-0.002l0.028-0.004l0.027-0.007l0.025-0.01l0.024-0.012L21.731,17.9z"/>
			</g>
		</g>
	</g>
</g>
</svg>
