<?xml version="1.0" encoding="utf-8"?>
<!-- Generator: Adobe Illustrator 17.0.0, SVG Export Plug-In . SVG Version: 6.00 Build 0)  -->
<!DOCTYPE svg PUBLIC "-//W3C//DTD SVG 1.1//EN" "http://www.w3.org/Graphics/SVG/1.1/DTD/svg11.dtd">
<svg version="1.1" xmlns="http://www.w3.org/2000/svg" xmlns:xlink="http://www.w3.org/1999/xlink" x="0px" y="0px"
	 width="585.563px" height="316.125px" viewBox="0 0 585.563 316.125" enable-background="new 0 0 585.563 316.125"
	 xml:space="preserve">
<g id="Layer_2">
</g>
<g id="Layer_1">
	<g>
		<path fill="#3D8D8C" d="M555,0.64H35c-5.523,0-10,4.477-10,10v128.13c-5.735,6.912-14.53,15.574-23.583,19.355
			c9.053,3.781,17.848,12.444,23.583,19.356V305.64c0,5.523,4.477,10,10,10h520c16.569,0,30-13.431,30-30v-255
			C585,14.071,571.568,0.64,555,0.64z"/>
	</g>
	<g>
		<path fill="none" style="filter:url(#drop-shadow)" stroke="#FFFFFF" stroke-miterlimit="10" d="M555,0.64H35c-5.523,0-10,4.477-10,10v128.13
			c-5.735,6.912-14.53,15.574-23.583,19.355c9.053,3.781,17.848,12.444,23.583,19.356V305.64c0,5.523,4.477,10,10,10h520
			c16.569,0,30-13.431,30-30v-255C585,14.071,571.568,0.64,555,0.64z"/>
	</g>
</g>
<filter id="dropshadow" height="100%">
  <feGaussianBlur in="SourceAlpha" stdDeviation="3"/> <!-- stdDeviation is how much to blur -->
  <feOffset dx="2" dy="2" result="offsetblur"/> <!-- how much to offset -->
  <feMerge> 
    <feMergeNode/> <!-- this contains the offset blurred image -->
    <feMergeNode in="SourceGraphic"/> <!-- this contains the element that the filter is applied to -->
  </feMerge>
</filter>


<filter id="drop-shadow">
	<feGaussianBlur in="SourceAlpha" stdDeviation="2.2"/>
	<feOffset dx="0" dy="0" result="offsetblur"/>
	<feFlood flood-color="rgba(0,0,0,0.5)"/>
	<feComposite in2="offsetblur" operator="in"/>
	<feMerge>
	<feMergeNode/>
	<feMergeNode in="SourceGraphic"/>
	</feMerge>
</filter>


<filter id="f4" x="0" y="0" width="200%" height="200%">
  <feOffset result="offOut" in="SourceGraphic" dx="2" dy="20" />
  <feColorMatrix result="matrixOut" in="offOut" type="matrix"
  values="0.2 0 0 0 0 0 0.2 0 0 0 0 0 0.2 0 0 0 0 0 1 0" />
  <feGaussianBlur result="blurOut" in="matrixOut" stdDeviation="10" />
  <feBlend in="SourceGraphic" in2="blurOut" mode="normal" />
</filter>
</svg>
