<?xml version="1.0" encoding="utf-8"?>
<!-- Generator: Adobe Illustrator 17.0.0, SVG Export Plug-In . SVG Version: 6.00 Build 0)  -->
<!DOCTYPE svg PUBLIC "-//W3C//DTD SVG 1.1//EN" "http://www.w3.org/Graphics/SVG/1.1/DTD/svg11.dtd">
<svg version="1.1" id="Layer_1" xmlns="http://www.w3.org/2000/svg" xmlns:xlink="http://www.w3.org/1999/xlink" x="0px" y="0px"
	 width="100%" height="100%" viewBox="0 0 100 20" enable-background="new 0 0 100 20" xml:space="preserve">
<path fill="#FFFFFF" d="M57.874,12.4c0.358-0.009,0.306,0.254,0.205,0.482c-0.14,0.317-0.41,0.519-0.604,0.783
	c-0.037,0.05-0.146,0.272-0.189,0.289c0-0.011,0-0.021,0-0.032c0.055-0.203,0.116-0.363,0.227-0.509
	c0.139-0.184,0.335-0.333,0.443-0.547c-0.013-0.081-0.152-0.099-0.259-0.08c-0.23,0.04-0.439,0.112-0.637,0.193
	c-0.587,0.239-1.178,0.488-1.705,0.793c-0.194,0.113-0.564,0.277-0.691,0.439c0.14,0.166,0.445,0.21,0.556,0.402
	c-0.004,0.009-0.007,0.018-0.011,0.027c-0.056,0.002-0.188-0.018-0.221,0.005c0.116,0.151,0.282,0.289,0.432,0.407
	c0.316,0.251,0.625,0.522,0.944,0.772c0.196,0.153,0.452,0.329,0.556,0.568c0.175,0.405-0.055,0.823-0.291,0.997
	c-0.082,0.061-0.223,0.145-0.378,0.096c-0.004,0.002-0.007,0.004-0.011,0.005c0.002,0.322,0,0.648-0.097,0.874
	c-0.137,0.319-0.451,0.505-0.734,0.681c-0.315,0.196-0.652,0.411-1.015,0.552c-0.309,0.072-0.619,0.143-0.928,0.214
	c-0.259,0.065-0.531,0.159-0.836,0.161c0.031-0.072,0.201-0.113,0.275-0.145c0.248-0.105,0.496-0.211,0.745-0.316
	c0.831-0.355,1.718-0.715,2.315-1.308c0.297-0.296,0.044-0.69-0.081-0.991c-0.039-0.093,0.032-0.401,0.092-0.456
	c0.007,0,0.014,0,0.022,0c0.052,0.077,0.086,0.204,0.162,0.257c0.243,0.169,0.575-0.092,0.691-0.214
	c-0.01-0.181-0.522-0.569-0.664-0.675c-0.445-0.334-0.932-0.672-1.279-1.104c-0.086-0.107-0.168-0.216-0.254-0.327
	c-0.032-0.039-0.065-0.079-0.097-0.118c0.004-0.105,0.007-0.211,0.011-0.316c0.021-0.128,0.021-0.237,0.065-0.338
	c0.074-0.17,0.314-0.276,0.47-0.37c0.629-0.381,1.349-0.685,2.072-0.965c0.153-0.048,0.306-0.096,0.459-0.145
	C57.712,12.429,57.793,12.415,57.874,12.4z M51.851,12.92c0.059-0.002,0.09,0.011,0.124,0.032c0.087,0.236-0.143,0.388-0.243,0.514
	c-0.043,0.054-0.086,0.107-0.13,0.161c-0.002,0-0.004,0-0.005,0c0-0.009,0-0.018,0-0.027c0.074-0.187,0.191-0.286,0.302-0.429
	c-0.013-0.028-0.024-0.042-0.054-0.054c-0.085-0.022-0.355,0.138-0.448,0.171c-0.352,0.127-0.892,0.191-1.241,0.021
	c-0.004,0.004-0.007,0.007-0.011,0.011c0.022,0.1-0.008,0.245-0.059,0.295c-0.002,0-0.004,0-0.005,0
	c-0.003-0.105-0.005-0.226-0.043-0.3c-0.039-0.074-0.129-0.133-0.14-0.23c0.013-0.044,0.023-0.08,0.043-0.113
	c0.011,0,0.022,0,0.032,0c0.153,0.096,0.279,0.195,0.486,0.247C50.935,13.34,51.557,13.074,51.851,12.92z M51.204,14.694
	c-0.096-0.006-0.137-0.101-0.194-0.15c-0.004,0.002-0.007,0.004-0.011,0.005c0.056,0.806,0.112,1.611,0.167,2.417
	c0.082,0.524,0.003,1.135-0.2,1.468c-0.005,0-0.011,0-0.016,0c-0.002-0.002-0.004-0.004-0.005-0.005
	c-0.003-0.206,0.064-0.433,0.027-0.665c-0.045-0.661-0.09-1.322-0.135-1.983c-0.022-0.323-0.043-0.647-0.065-0.97
	c-0.007-0.171-0.014-0.343-0.022-0.514c-0.02-0.079-0.04-0.157-0.059-0.236c0.016-0.048,0.032-0.096,0.049-0.145
	c0.022-0.06,0.047-0.2,0.108-0.22c0.005,0.004,0.011,0.007,0.016,0.011c0.081,0.211,0.162,0.422,0.243,0.632
	C51.15,14.45,51.201,14.544,51.204,14.694z M52.904,14.287c0.088,0.011,0.321,0.18,0.367,0.241
	c-0.005,0.132-0.098,0.244-0.156,0.332c-0.013,0-0.025,0-0.038,0c-0.104-0.073-0.209-0.146-0.313-0.22
	c-0.045,0.082-0.09,0.164-0.135,0.247c-0.011,0-0.022,0-0.032,0c-0.113-0.08-0.227-0.161-0.34-0.241
	c0.009-0.066,0.121-0.294,0.162-0.332c0.116,0.006,0.309,0.227,0.367,0.209C52.825,14.444,52.864,14.365,52.904,14.287z
	 M41.058,14.71c0.011,0,0.022,0,0.032,0c0.278,0.398,0.456,0.849,0.583,1.41c0.158,0.702,0.152,1.488,0.68,1.822
	c0.004-0.002,0.007-0.004,0.011-0.005c0-0.002,0-0.004,0-0.005c-0.051-0.096-0.065-0.251-0.065-0.386c0-0.969,0.735-0.803,1.414-0.6
	c0.243,0.063,0.486,0.125,0.729,0.188c0.216,0.027,0.432,0.054,0.648,0.08c0.005,0.004,0.011,0.007,0.016,0.011
	c-0.001,0.073-0.115,0.365-0.156,0.386c-0.162,0.039-0.311,0.024-0.443,0.075c-0.431,0.169-0.804,0.418-1.225,0.6
	c-0.144,0.062-0.298,0.115-0.459,0.155c-0.067,0.007-0.133,0.014-0.2,0.021c-0.002,0.001-0.059,0.155-0.07,0.171
	c-0.011-0.004-0.022-0.007-0.032-0.011c-0.011-0.054-0.022-0.107-0.032-0.161c-0.124-0.026-0.243-0.116-0.335-0.182
	c-0.274-0.198-0.388-0.448-0.475-0.836c-0.022-0.138-0.043-0.275-0.065-0.413c-0.002,0-0.004,0-0.005,0
	c-0.002,0.002-0.004,0.004-0.005,0.005c-0.018,0.239-0.159,0.402-0.275,0.547c-0.282,0.35-0.664,0.612-1.101,0.809
	c-0.176,0.079-0.572,0.21-0.793,0.08c-0.338-0.198-0.24-0.883-0.102-1.227c0.052-0.13,0.134-0.244,0.189-0.365
	c0.007,0,0.014,0,0.022,0c0,0.011,0,0.021,0,0.032c-0.085,0.241-0.418,0.907-0.119,1.125c0.178,0.13,0.546,0.028,0.718-0.032
	c0.509-0.179,1.087-0.602,1.344-1.029c0.081-0.135-0.016-0.484-0.049-0.611c-0.076-0.301-0.159-0.554-0.27-0.815
	c-0.061-0.132-0.122-0.264-0.183-0.397C40.957,15.061,41.03,14.773,41.058,14.71z M53.433,16.356
	c-0.106-0.006-0.149-0.096-0.281-0.075c-0.3,0.047-0.607,0.145-0.723-0.155c-0.127-0.328,0.161-0.769,0.367-0.841
	c0.162-0.057,0.354,0.035,0.443,0.096c0.309,0.217,0.63,0.787,0.415,1.313c-0.111,0.272-0.358,0.479-0.626,0.595
	c-0.147,0.064-0.482,0.193-0.712,0.123c-0.004,0.002-0.007,0.004-0.011,0.005c0.002,0.322,0,0.648-0.097,0.874
	c-0.137,0.319-0.451,0.505-0.734,0.681c-0.315,0.196-0.652,0.411-1.015,0.552c-0.309,0.071-0.619,0.143-0.928,0.214
	c-0.259,0.065-0.531,0.16-0.836,0.161c0.031-0.072,0.201-0.113,0.275-0.145c0.248-0.105,0.497-0.211,0.745-0.316
	c0.831-0.355,1.718-0.715,2.315-1.308c0.297-0.296,0.044-0.69-0.081-0.991c-0.039-0.093,0.032-0.401,0.092-0.456
	c0.007,0,0.014,0,0.022,0c0.061,0.09,0.095,0.233,0.2,0.279c0.119,0.052,0.317,0.018,0.437-0.011
	c0.326-0.078,0.672-0.183,0.863-0.397c0.008-0.376-0.217-0.649-0.453-0.788c-0.134-0.079-0.404-0.107-0.47,0.054
	c0.002,0.02,0.004,0.039,0.005,0.059c0.094,0.129,0.288,0,0.437,0.021C53.238,15.923,53.418,16.196,53.433,16.356z M34.701,15.546
	c0.089,0.012,0.32,0.179,0.367,0.241c-0.002,0.113-0.094,0.28-0.162,0.338c-0.039-0.006-0.359-0.231-0.367-0.257
	C34.594,15.761,34.647,15.654,34.701,15.546z M55.278,15.879c0.093,0.003,0.327,0.176,0.372,0.236c0,0.115-0.093,0.281-0.162,0.338
	c-0.04-0.006-0.359-0.23-0.367-0.257C55.174,16.089,55.226,15.984,55.278,15.879z M58.856,16.029
	c0.278-0.006,0.774,0.312,0.815,0.52c0.021,0.103-0.081,0.297-0.108,0.381c-0.2,0.066-0.399,0.132-0.599,0.198
	c-0.015,0.059-0.007,0.149-0.022,0.198c-0.011,0.002-0.022,0.004-0.032,0.005c-0.039-0.041-0.044-0.105-0.081-0.15
	c-0.178,0.073-0.356,0.146-0.534,0.22c0.16,0.33,0.337,0.508,0.146,0.949c-0.112,0.259-0.481,0.485-0.712,0.638
	c-0.335,0.221-0.702,0.459-1.095,0.611c-0.297,0.068-0.594,0.136-0.89,0.204c-0.272,0.069-0.559,0.171-0.88,0.171
	c0.004-0.009,0.007-0.018,0.011-0.027c0.36-0.157,0.72-0.314,1.079-0.472c0.599-0.255,1.171-0.512,1.695-0.836
	c0.249-0.154,0.507-0.3,0.696-0.514c-0.04-0.219-0.236-0.366-0.308-0.563c-0.023-0.063,0.003-0.16,0.016-0.209
	c0.102-0.368,0.3-0.354,0.61-0.498c-0.107-0.216-0.231-0.478-0.038-0.718C58.681,16.065,58.762,16.067,58.856,16.029z
	 M35.063,16.077c0.102,0.004,0.311,0.174,0.372,0.236c-0.005,0.134-0.098,0.246-0.157,0.338c-0.009,0-0.018,0-0.027,0
	c-0.108-0.073-0.216-0.146-0.324-0.22c-0.004,0.002-0.007,0.004-0.011,0.005c-0.021,0.073-0.077,0.201-0.135,0.241
	c-0.045-0.014-0.355-0.231-0.362-0.263c0.041-0.088,0.093-0.257,0.167-0.316c0.081,0.011,0.302,0.169,0.345,0.225
	c0.004-0.002,0.007-0.004,0.011-0.005C34.984,16.238,35.023,16.157,35.063,16.077z M50.135,16.147
	c0.073,0.016,0.421,0.376,0.453,0.45c-0.002,0.011-0.004,0.021-0.005,0.032c-0.077,0.011-0.14-0.01-0.205-0.021
	c-0.002,0.002-0.004,0.004-0.005,0.005c0.147,0.311,0.412,0.667,0.291,1.147c-0.152,0.606-1.15,1.109-1.765,1.292
	c-0.203,0.06-0.517,0.112-0.772,0.064c-0.609-0.115-1.121-0.639-0.977-1.431c0.031-0.169,0.053-0.49,0.156-0.573
	c0.005,0,0.011,0,0.016,0c0,0.025,0,0.05,0,0.075c-0.031,0.139-0.061,0.279-0.092,0.418c-0.052,0.272,0.073,0.496,0.173,0.643
	c0.562,0.831,1.954,0.302,2.563-0.096c0.149-0.097,0.553-0.342,0.577-0.531c-0.178-0.281-0.258-0.588-0.389-0.922
	c-0.022-0.057-0.087-0.094-0.103-0.145C50.034,16.486,50.11,16.182,50.135,16.147z M58.694,16.441
	c-0.007,0.005-0.014,0.011-0.022,0.016c0.041,0.095,0.087,0.257,0.162,0.322c0.124-0.045,0.248-0.089,0.372-0.134
	c0-0.002,0-0.004,0-0.005C59.096,16.526,58.915,16.441,58.694,16.441z M33.703,16.457c-0.014,0.287-0.293,0.562-0.151,0.906
	c0.19,0.46,1.25,0.641,1.97,0.52c0.414-0.07,0.795-0.143,1.149-0.263c0.171-0.057,0.342-0.114,0.513-0.171
	c0.167-0.068,0.335-0.136,0.502-0.204c0.086-0.037,0.201-0.125,0.308-0.113c0.03,0.126-0.035,0.292,0.016,0.413
	c0.088,0.209,0.543,0.253,0.68,0.054c-0.014-0.113-0.09-0.17-0.119-0.263c-0.032-0.104,0.063-0.362,0.102-0.429
	c0.07,0.016,0.084,0.115,0.108,0.177c0.114,0.292,0.054,0.705-0.102,0.911c-0.189,0.249-0.632,0.205-0.783-0.048
	c-0.047-0.078-0.064-0.182-0.081-0.289c-0.007-0.046,0.003-0.096-0.011-0.129c-0.005,0.002-0.011,0.004-0.016,0.005
	c-0.154,0.112-0.458,0.205-0.648,0.284c-0.448,0.188-0.911,0.343-1.446,0.456c-0.217,0.046-0.448,0.034-0.685,0.07
	c-0.172,0.025-0.382-0.002-0.529-0.027c-0.553-0.095-0.934-0.242-1.047-0.772c-0.022-0.104-0.037-0.267-0.016-0.391
	c0.02-0.098,0.04-0.197,0.059-0.295c0.046-0.148,0.117-0.288,0.2-0.402C33.685,16.457,33.694,16.457,33.703,16.457z M48.533,16.742
	c0.093,0.003,0.327,0.175,0.372,0.236c0,0.115-0.093,0.281-0.162,0.338c-0.04-0.006-0.359-0.23-0.367-0.257
	C48.428,16.952,48.48,16.847,48.533,16.742z M45.98,16.892c0.598-0.005,0.776,1.003,0.523,1.506
	c-0.132,0.264-0.381,0.426-0.615,0.59c-0.338,0.236-0.729,0.485-1.139,0.638c-0.252,0.057-0.504,0.114-0.755,0.171
	c-0.236,0.054-0.471,0.107-0.707,0.161c-0.072,0.016-0.22,0.064-0.302,0.032c0.004-0.002,0.007-0.004,0.011-0.005
	c0.045-0.044,0.117-0.064,0.178-0.091c0.212-0.091,0.425-0.182,0.637-0.273c0.692-0.296,1.379-0.594,1.986-0.97
	c0.218-0.135,0.578-0.324,0.691-0.552c-0.056-0.279-0.621-0.139-0.831-0.268c-0.316-0.195-0.026-0.735,0.151-0.863
	C45.858,16.93,45.918,16.921,45.98,16.892z M42.775,17.176c-0.155,0.061-0.31,0.094-0.362,0.252
	c-0.021,0.063,0.166,0.491,0.194,0.589c0.132,0.039,0.302-0.011,0.405-0.043c0.296-0.091,0.542-0.207,0.804-0.322
	c0.115-0.052,0.23-0.104,0.345-0.155c-0.182-0.054-0.363-0.107-0.545-0.161C43.359,17.26,43.098,17.18,42.775,17.176z
	 M45.867,17.283c-0.052,0.022-0.093,0.021-0.113,0.075c0,0.018,0,0.036,0,0.054c0.047,0.113,0.324,0.112,0.459,0.07
	c0-0.002,0-0.004,0-0.005C46.118,17.375,46.069,17.281,45.867,17.283z M38.479,18.821c0.088,0.011,0.321,0.18,0.367,0.241
	c-0.005,0.132-0.098,0.244-0.156,0.332c-0.013,0-0.025,0-0.038,0c-0.104-0.073-0.209-0.146-0.313-0.22
	c-0.045,0.082-0.09,0.164-0.135,0.247c-0.011,0-0.022,0-0.032,0c-0.113-0.08-0.227-0.161-0.34-0.241
	c0.009-0.066,0.121-0.294,0.162-0.332c0.116,0.006,0.309,0.227,0.367,0.209C38.4,18.978,38.439,18.899,38.479,18.821z"/>
<path fill="#FFFFFF" d="M18.815,0.438c0.123,0.087,0.113,0.434,0.144,0.609c0.108,0.593-0.045,2.13,0.397,2.33
	c0-0.003,0-0.006,0-0.009c-0.522-0.819,0.585-1.326,1.174-0.735c-0.003,0.006-0.006,0.012-0.009,0.018c-0.003,0-0.006,0-0.009,0
	c-0.099-0.027-0.199-0.054-0.298-0.081c-0.329-0.058-0.645,0.092-0.822,0.206c0,0.436,0.404,0.824,0.858,0.636
	c0.175-0.072,0.458-0.35,0.587-0.367c0,0.003,0,0.006,0,0.009c-0.063,0.364-0.782,0.871-1.318,0.726
	c-0.216-0.058-0.314-0.199-0.452-0.332c0.01,0.434-0.034,1.049-0.47,0.986c-0.109-0.016-0.18-0.009-0.253-0.054
	c-0.124-0.076-0.18-0.259-0.262-0.376c-0.012,0-0.024,0-0.036,0C17.92,4.1,17.753,4.193,17.785,4.417
	c0.045,0.042,0.09,0.084,0.135,0.125c0.171,0.106,0.422,0.111,0.479,0.332c0.121,0.476-0.353,0.649-0.704,0.708
	c-0.18,0.03-0.312-0.088-0.424-0.072c-0.048,0.027-0.096,0.054-0.144,0.081c-0.166,0.071-0.541,0.153-0.723,0.036
	c-0.198-0.128-0.163-0.4-0.208-0.69c-0.093-0.607,0.01-1.321-0.108-1.891c-0.044-0.21-0.161-0.512,0-0.663c0.003,0,0.006,0,0.009,0
	c0.068,0.194,0.121,0.411,0.162,0.654c0.012,0.182,0.024,0.365,0.036,0.547c0.009,0.278,0.018,0.556,0.027,0.833
	c0.049,0.319-0.06,0.738,0.135,0.905c0.131,0.111,0.468,0.036,0.605-0.018c-0.034-0.385,0.224-1.016,0.605-0.914
	c0.024-0.238,0.265-0.829,0.524-0.654c0.069,0.241,0.255,0.481,0.569,0.367c0.074-0.027,0.131-0.039,0.163-0.108
	c0.047-0.117,0.013-0.813-0.009-0.95c-0.018-0.499-0.036-0.998-0.054-1.496C18.8,1.173,18.721,0.766,18.815,0.438z M22.653,0.734
	c0.094,0.092,0.15,0.434,0.009,0.502c-0.018,0.003-0.036,0.006-0.054,0.009c-0.034-0.03-0.089-0.086-0.108-0.099
	c-0.016,0.081-0.056,0.107-0.126,0.134c-0.03-0.012-0.06-0.024-0.09-0.036c-0.026-0.069-0.089-0.327-0.054-0.376
	c0.016-0.035,0.031-0.044,0.063-0.063c0.006,0.003,0.012,0.006,0.018,0.009c-0.002,0.113-0.011,0.209,0.009,0.296
	c0.015,0.012,0.03,0.024,0.045,0.036c0.012-0.003,0.024-0.006,0.036-0.009c0.044-0.018,0.053-0.04,0.081-0.072
	c-0.003-0.131-0.036-0.212,0-0.314c0.006,0,0.012,0,0.018,0c0.026,0.097,0.041,0.267,0.09,0.349
	c0.006,0.003,0.012,0.006,0.018,0.009c0.03-0.006,0.06-0.012,0.09-0.018c0-0.003,0-0.006,0-0.009
	C22.667,0.958,22.585,0.874,22.653,0.734z M25.046,1.334c0.251,0.044,0.444,0.186,0.551,0.376c-0.013,0.097-0.047,0.198-0.09,0.269
	c-0.138,0.045-0.277,0.09-0.415,0.134c-0.003,0.045-0.006,0.09-0.009,0.134c-0.006,0.003-0.012,0.006-0.018,0.009
	c-0.012-0.009-0.024-0.018-0.036-0.027c-0.009-0.027-0.018-0.054-0.027-0.081c-0.003,0-0.006,0-0.009,0
	c-0.155,0.095-0.322,0.141-0.388,0.323c-0.062,0.17,0.009,0.406,0.045,0.547c0.09,0.353,0.217,0.775,0.126,1.183
	c-0.006-0.003-0.012-0.006-0.018-0.009c-0.027-0.71-0.633-1.909,0.117-2.267C24.794,1.602,24.656,1.487,25.046,1.334z M24.044,1.343
	c0.006,0,0.012,0,0.018,0c0.085,0.088,0.247,0.538,0.253,0.699c-0.068-0.016-0.089-0.062-0.135-0.099c-0.003,0-0.006,0-0.009,0
	c0.045,0.618,0.09,1.237,0.135,1.855c0.047,0.296-0.026,0.74-0.163,0.878c-0.003,0-0.006,0-0.009,0
	c0.002-0.552,0.021-1.116-0.063-1.64c-0.009-0.173-0.018-0.346-0.027-0.52c-0.015-0.254-0.03-0.508-0.045-0.762
	c-0.015-0.057-0.03-0.113-0.045-0.17C23.983,1.505,24.013,1.424,24.044,1.343z M22.806,1.379c0.167,0.058,0.401,0.507,0.199,0.708
	c-0.003,0-0.006,0-0.009,0c0.018-0.347-0.097-0.414-0.244-0.6C22.77,1.451,22.788,1.415,22.806,1.379z M22.563,1.388
	c0.095,0.067,0.096,0.318,0.126,0.448c0.085,0.361,0.058,0.789,0.126,1.201c0.006,0.182,0.012,0.365,0.018,0.547
	c0.059,0.359-0.055,0.752,0.316,0.798c0.351,0.043,0.349-0.411,0.298-0.726c-0.033-0.484-0.066-0.968-0.099-1.452
	c-0.006-0.125-0.012-0.251-0.018-0.376c-0.015-0.063-0.03-0.125-0.045-0.188c0.03-0.081,0.06-0.161,0.09-0.242
	c0.012,0.003,0.024,0.006,0.036,0.009c0.061,0.23,0.223,0.425,0.235,0.69c-0.012,0-0.024,0-0.036,0
	c-0.033-0.033-0.066-0.066-0.099-0.099c-0.003,0-0.006,0-0.009,0c0.014,0.652,0.255,1.77,0.036,2.321
	c-0.191,0.48-0.779,0.512-0.813-0.125c-0.006,0.003-0.012,0.006-0.018,0.009c-0.013,0.391-0.497,0.702-0.849,0.43
	c-0.126-0.097-0.204-0.304-0.253-0.475c-0.018-0.075-0.036-0.149-0.054-0.224c-0.02,0.242-0.205,0.352-0.406,0.412
	c-0.092,0.027-0.254,0.038-0.298-0.036c-0.264-0.308,0.43-0.853,0.533-0.977c-0.011-0.069-0.026-0.113-0.072-0.063
	c-0.266,0.121-0.476,0.421-0.822,0.457c0.012-0.015,0.024-0.03,0.036-0.045c0.241-0.104,0.592-0.387,0.777-0.565
	c-0.047-0.097-0.011-0.297,0.054-0.367c0.006,0.003,0.012,0.006,0.018,0.009c0.033,0.069,0.066,0.137,0.099,0.206
	c0.03-0.03,0.06-0.06,0.09-0.09c0.191-0.094,0.305-0.435,0.596-0.385c0.003,0.009,0.006,0.018,0.009,0.027
	c0.091,0.239-0.466,0.699-0.578,0.833c0.064,0.331,0.117,0.798,0.343,0.977c0.211,0.166,0.58,0.083,0.677-0.143
	c0.138-0.323,0.043-1.596-0.027-1.963C22.528,1.944,22.452,1.642,22.563,1.388z M24.902,1.63c-0.007,0.077,0.064,0.155,0.09,0.233
	c0.087-0.027,0.175-0.054,0.262-0.081c0.003-0.006,0.006-0.012,0.009-0.018c-0.006-0.009-0.012-0.018-0.018-0.027
	C25.133,1.694,25.063,1.632,24.902,1.63z M27.105,1.971c0.102,0.073,0.105,0.352,0.135,0.493c0.075,0.344,0.057,0.748,0.117,1.138
	c0.006,0.179,0.012,0.358,0.018,0.538c0.042,0.27-0.022,0.56,0.108,0.735c0.09,0.12,0.363,0.088,0.497,0.027
	c0.187-0.085,0.276-0.282,0.452-0.376c0.012,0.003,0.024,0.006,0.036,0.009c-0.006,0.076-0.043,0.142-0.018,0.215
	c0.05,0.149,0.34,0.203,0.497,0.108c0.133-0.08,0.213-0.265,0.307-0.385c0.009,0,0.018,0,0.027,0
	c0.003,0.003,0.006,0.006,0.009,0.009c-0.001,0.103-0.035,0.155-0.018,0.233c0.075,0.062,0.229,0.177,0.334,0.054
	c-0.025-0.041-0.046-0.046-0.054-0.108c0.024-0.075,0.048-0.149,0.072-0.224c0.015,0.003,0.03,0.006,0.045,0.009
	c0.163,0.461-0.194,0.933-0.542,0.484c-0.006,0.003-0.012,0.006-0.018,0.009c-0.07,0.207-0.528,0.427-0.704,0.161
	c-0.018-0.081-0.036-0.161-0.054-0.242c-0.003,0-0.006,0-0.009,0c-0.144,0.06-0.223,0.249-0.361,0.332
	c-0.427,0.255-0.672-0.039-0.723-0.439c-0.003,0.006-0.006,0.012-0.009,0.018c-0.036,0.131-0.072,0.263-0.108,0.394
	c-0.16,0.369-0.655,0.605-1.165,0.618c0.038-0.094,0.394-0.252,0.497-0.314c0.325-0.196,0.6-0.399,0.704-0.815
	c0.05-0.201,0.054-0.562,0.018-0.789c-0.06-0.375-0.009-0.73-0.072-1.075C27.067,2.48,26.985,2.238,27.105,1.971z M26.166,2.266
	c0.121,0.063,0.431,0.56,0.19,0.708c0.015-0.338-0.094-0.412-0.244-0.591C26.13,2.344,26.148,2.305,26.166,2.266z M25.046,2.356
	c0.109,0.009,0.558,0.236,0.614,0.305c0,0.003,0,0.006,0,0.009c-0.006,0-0.012,0-0.018,0c-0.066,0.003-0.132,0.006-0.199,0.009
	c0.003,0.006,0.006,0.012,0.009,0.018c0.069,0.042,0.139,0.084,0.208,0.125c0.326,0.144,0.556,0.29,0.479,0.78
	c0.334,0.144,0.453,0.35,0.397,0.806c0.223,0.055,0.627,0.358,0.397,0.672c-0.003,0-0.006,0-0.009,0
	c-0.125-0.548-1.245-0.397-0.921-1.246c-0.09-0.045-0.181-0.09-0.271-0.134c-0.196-0.119-0.226-0.376-0.153-0.636
	c-0.235-0.082-0.306-0.303-0.497-0.421C25.07,2.547,25.058,2.451,25.046,2.356z M22.03,2.634c-0.172,0.152-0.343,0.305-0.515,0.457
	c0.009,0.03,0.018,0.06,0.027,0.09c0.003,0,0.006,0,0.009,0c0.009-0.009,0.018-0.018,0.027-0.027c0.102-0.048,0.443-0.403,0.47-0.52
	C22.042,2.634,22.036,2.634,22.03,2.634z M25.651,3.109c-0.041,0.277,0.223,0.39,0.415,0.466C26.07,3.3,25.857,3.17,25.651,3.109z
	 M21.416,3.503c-0.146,0.184-0.367,0.288-0.479,0.511c0.012,0.009,0.024,0.018,0.036,0.027c0.157,0.086,0.491-0.087,0.524-0.197
	c-0.009-0.06-0.018-0.119-0.027-0.179C21.454,3.602,21.46,3.537,21.416,3.503z M26.076,3.861c-0.053,0.226,0.236,0.528,0.415,0.511
	C26.488,4.072,26.282,3.958,26.076,3.861z M17.514,4.668c-0.143,0.101-0.592,0.352-0.217,0.547c0.206-0.091,0.449-0.281,0.262-0.547
	C17.544,4.668,17.529,4.668,17.514,4.668z M17.758,4.784c-0.003,0.211-0.119,0.345-0.199,0.484c0,0.003,0,0.006,0,0.009
	c0.284,0.032,0.571-0.037,0.741-0.152c0-0.012,0-0.024,0-0.036C18.205,4.947,17.918,4.855,17.758,4.784z M18.878,5.349
	c0.09,0.029,0.208,0.109,0.262,0.179c-0.02,0.086-0.067,0.184-0.126,0.233c-0.006-0.006-0.012-0.012-0.018-0.018
	c-0.075-0.045-0.151-0.09-0.226-0.134c-0.018,0.062-0.054,0.133-0.099,0.17c-0.084-0.06-0.169-0.119-0.253-0.179
	c0.042-0.078,0.084-0.155,0.126-0.233c0.081,0.038,0.181,0.094,0.235,0.161c0.006-0.003,0.012-0.006,0.018-0.009
	C18.824,5.462,18.851,5.406,18.878,5.349z"/>
<path fill="#FFFFFF" d="M75.974,0c0.025,0.002,0.024,0,0.036,0.012c0.152,0.16,0.179,0.599,0.228,0.87
	c0.061,0.33,0.029,0.718,0.084,1.074c0.006,0.166,0.012,0.332,0.018,0.498c0.006,0.206,0.012,0.412,0.018,0.618
	c0.008,0.25,0.016,0.5,0.024,0.75c0.006,0.14,0.012,0.28,0.018,0.42c0.066,0.355,0.273,0.64,0.715,0.474
	c0.076-0.029,0.151-0.073,0.21-0.12c0.223-0.176,0.322-0.495,0.529-0.69c0.02,0.004,0.04,0.008,0.06,0.012
	c0.029,0.142,0.022,0.277,0.084,0.378c0.083,0.136,0.228,0.212,0.366,0.294c0.498,0.293,1.039,0.293,1.604,0.054
	c0.13-0.068,0.26-0.136,0.39-0.204c0.094-0.059,0.199-0.198,0.33-0.204c0.004,0.006,0.008,0.012,0.012,0.018
	c0.043,0.119-0.109,0.273,0,0.42c0.053,0.072,0.143,0.089,0.252,0.108c0.417,0.073,0.591-0.239,0.739-0.462
	c0.049-0.074,0.084-0.203,0.192-0.216c0.083,0.085-0.056,0.223-0.03,0.33c0.041,0.171,0.406,0.326,0.547,0.138
	c0-0.006,0-0.012,0-0.018c-0.028-0.03-0.056-0.06-0.084-0.09c0-0.156,0.076-0.283,0.114-0.414c0.014,0,0.028,0,0.042,0
	c0.167,0.085,0.109,0.567,0.042,0.726c-0.075,0.178-0.3,0.453-0.601,0.33c-0.137-0.056-0.176-0.185-0.27-0.282
	c-0.004,0.002-0.008,0.004-0.012,0.006c-0.101,0.291-0.645,0.637-1.015,0.36c-0.152-0.114-0.096-0.249-0.174-0.426
	c-0.008,0-0.016,0-0.024,0c-0.361,0.28-1.007,0.7-1.682,0.498c-0.218-0.065-0.446-0.178-0.619-0.3
	c-0.197-0.139-0.249-0.336-0.372-0.552c-0.01,0.008-0.02,0.016-0.03,0.024c-0.086,0.221-0.358,0.625-0.553,0.738
	c-0.302,0.176-0.702,0.006-0.829-0.204c-0.197-0.325-0.116-0.764-0.186-1.224c-0.008-0.216-0.016-0.432-0.024-0.648
	c-0.004-0.128-0.008-0.256-0.012-0.384c-0.072-0.469,0-0.987-0.078-1.434c-0.037-0.211-0.051-0.402-0.102-0.594
	c-0.025-0.092-0.097-0.211-0.078-0.324C75.876,0.225,75.931,0.112,75.974,0z M47.524,0.036c0.025,0.002,0.024,0,0.036,0.012
	c0.152,0.16,0.179,0.599,0.228,0.87c0.053,0.29,0.03,0.629,0.078,0.942c0.006,0.15,0.012,0.3,0.018,0.45
	c0.006,0.194,0.012,0.388,0.018,0.582c0.006,0.206,0.012,0.412,0.018,0.618c0.064,0.417-0.035,0.85,0.156,1.122
	c0.253,0.359,1.087,0.011,1.351-0.126c0.084-0.044,0.277-0.125,0.294-0.228c-0.094-0.229-0.358-0.264-0.685-0.264
	c-0.122,0-0.245,0.006-0.33-0.03c-0.467-0.198-0.079-1.056,0.246-1.14c0.198-0.051,0.364,0.073,0.462,0.15
	c0.3,0.234,0.567,0.786,0.426,1.35c-0.145,0.58-0.656,0.832-1.291,0.93c-0.378,0.058-0.61-0.125-0.709-0.354
	c-0.145-0.337-0.079-0.715-0.144-1.14c-0.032-0.784-0.064-1.568-0.096-2.351c-0.038-0.237-0.059-0.466-0.114-0.684
	c-0.025-0.1-0.104-0.228-0.084-0.348C47.426,0.261,47.481,0.148,47.524,0.036z M69.127,0.036c0.012,0.002,0.024,0.004,0.036,0.006
	c0.144,0.076,0.164,0.417,0.114,0.618c-0.122,0.491-0.584,0.752-0.895,0.246c-0.004,0.002-0.008,0.004-0.012,0.006
	c-0.08,0.228-0.32,0.406-0.589,0.45c-0.098,0.016-0.191-0.011-0.27-0.018c-0.002,0.002-0.004,0.004-0.006,0.006
	c0.003,0.327-0.022,0.654-0.144,0.864c-0.275,0.472-1.176,0.968-1.76,1.152c-0.621,0.196-1.4,0.145-1.736-0.276
	c-0.272-0.341-0.417-0.966-0.276-1.56c0.031-0.129,0.045-0.326,0.132-0.402c0.01,0.002,0.02,0.004,0.03,0.006
	c-0.04,0.248-0.08,0.496-0.12,0.744c-0.053,0.315,0.234,0.716,0.39,0.84c0.825,0.652,2.228-0.007,2.823-0.426
	c0.154-0.109,0.33-0.218,0.444-0.366c0.094-0.122,0.055-0.323,0.006-0.48c-0.063-0.201-0.22-0.418-0.258-0.6
	c-0.02-0.094,0.037-0.197,0.06-0.264c0.021-0.06,0.023-0.136,0.066-0.174c0.008,0,0.016,0,0.024,0
	c0.072,0.11,0.12,0.262,0.222,0.342c0.059,0.047,0.134,0.086,0.216,0.108c0.394,0.107,0.62-0.162,0.757-0.378
	c0.056-0.089,0.118-0.277,0.24-0.294c0.004,0.002,0.008,0.004,0.012,0.006c0.034,0.113-0.072,0.23-0.042,0.33
	c0.046,0.152,0.412,0.298,0.522,0.102c-0.034-0.058-0.068-0.116-0.102-0.174C68.994,0.375,69.099,0.092,69.127,0.036z M83.836,0.096
	c0.066-0.002,0.1,0.012,0.138,0.036c0.097,0.264-0.159,0.434-0.27,0.576c-0.048,0.06-0.096,0.12-0.144,0.18
	c-0.002,0-0.004,0-0.006,0c0-0.01,0-0.02,0-0.03c0.082-0.209,0.213-0.32,0.336-0.48c-0.015-0.031-0.027-0.047-0.06-0.06
	c-0.095-0.024-0.395,0.154-0.499,0.192c-0.391,0.142-0.993,0.213-1.381,0.024c-0.004,0.004-0.008,0.008-0.012,0.012
	c0.024,0.112-0.009,0.274-0.066,0.33c-0.002,0-0.004,0-0.006,0c-0.004-0.118-0.005-0.253-0.048-0.336
	c-0.043-0.083-0.144-0.149-0.156-0.258c0.014-0.049,0.025-0.089,0.048-0.126c0.012,0,0.024,0,0.036,0
	c0.17,0.108,0.311,0.218,0.54,0.276C82.816,0.565,83.508,0.268,83.836,0.096z M48.221,0.39c0.208,0.017,0.371,0.423,0.408,0.642
	c0.025,0.145,0.002,0.409-0.084,0.468c-0.008,0.002-0.016,0.004-0.024,0.006c0-0.02,0-0.04,0-0.06
	c0.096-0.306-0.087-0.582-0.222-0.726c-0.052-0.05-0.104-0.1-0.156-0.15C48.123,0.51,48.201,0.428,48.221,0.39z M45.092,0.756
	c0.006,0,0.012,0,0.018,0c0.061,0.055,0.081,0.176,0.114,0.258c0.064,0.158,0.312,0.687,0.282,0.858c-0.012,0-0.024,0-0.036,0
	c-0.067-0.036-0.132-0.106-0.174-0.168c-0.006,0.004-0.012,0.008-0.018,0.012c0.048,0.614,0.096,1.228,0.144,1.841
	c0.036,0.229-0.023,0.655-0.06,0.858c-0.013,0.071-0.045,0.183-0.03,0.252c0.04-0.04,0.08-0.08,0.12-0.12
	c0.088-0.086,0.176-0.172,0.264-0.258c0.282-0.228,0.688-0.684,1.261-0.51c0.126,0.038,0.23,0.105,0.324,0.174
	c0.105,0.077,0.251,0.171,0.27,0.33c0.009,0.078-0.019,0.18-0.036,0.24c-0.095,0.333-0.274,0.487-0.571,0.618
	c-0.466,0.205-0.972,0.389-1.489,0.552c-0.327,0.103-0.671,0.19-0.925,0.366c0,0.008,0,0.016,0,0.024
	c0.197,0.286,0.63,0.331,0.937,0.51c0.022,0.108-0.002,0.344-0.048,0.426c-0.213,0.029-0.426-0.035-0.583-0.09
	c-0.489-0.17-0.732-0.423-0.883-0.93c-0.028-0.134-0.056-0.268-0.084-0.402c-0.002,0-0.004,0-0.006,0
	C43.882,5.598,43.88,5.6,43.878,5.602c-0.052,0.386-0.318,0.557-0.655,0.654c-0.148,0.043-0.399,0.068-0.474-0.054
	c-0.093-0.15-0.015-0.454,0.036-0.582c0.133-0.336,0.365-0.589,0.625-0.798c0.066-0.058,0.132-0.116,0.198-0.174
	c-0.02-0.052-0.04-0.104-0.06-0.156c-0.006,0.006-0.012,0.012-0.018,0.018c-0.11,0.084-0.22,0.168-0.33,0.252
	c-0.208,0.147-0.43,0.264-0.667,0.384c-0.098,0.05-0.202,0.125-0.336,0.132c0-0.002,0-0.004,0-0.006
	c0.077-0.127,0.27-0.215,0.396-0.294c0.22-0.138,0.422-0.306,0.625-0.462c0.084-0.07,0.168-0.14,0.252-0.21
	c-0.058-0.195,0.003-0.411,0.078-0.588c0.01,0.002,0.02,0.004,0.03,0.006c0.056,0.114,0.112,0.228,0.168,0.342
	c0.018-0.018,0.036-0.036,0.054-0.054c0.07-0.066,0.14-0.132,0.21-0.198c0.172-0.138,0.311-0.315,0.498-0.438
	c0.05-0.033,0.261-0.148,0.33-0.054c0.079,0.108-0.07,0.362-0.108,0.426c-0.162,0.273-0.373,0.464-0.565,0.702
	c-0.078,0.076-0.156,0.152-0.234,0.228c0.067,0.35,0.221,1.265,0.432,1.428c0.004-0.002,0.008-0.004,0.012-0.006
	c0.001-0.334,0.411-0.795,0.577-1.008c0.086-0.11,0.192-0.186,0.222-0.354c0-0.112,0-0.224,0-0.336c0-0.313,0.005-0.614-0.042-0.894
	c-0.034-0.52-0.068-1.04-0.102-1.56c-0.008-0.158-0.016-0.316-0.024-0.474c-0.016-0.099-0.053-0.186-0.072-0.264
	C44.912,1.118,45.054,0.82,45.092,0.756z M77.103,0.894c0.208,0.017,0.371,0.423,0.408,0.642c0.025,0.145,0.002,0.409-0.084,0.468
	c-0.008,0.002-0.016,0.004-0.024,0.006c0-0.02,0-0.04,0-0.06c0.096-0.306-0.088-0.582-0.222-0.726c-0.052-0.05-0.104-0.1-0.156-0.15
	C77.005,1.014,77.084,0.932,77.103,0.894z M83.109,2.117c-0.107-0.007-0.153-0.113-0.216-0.168
	c-0.004,0.002-0.008,0.004-0.012,0.006c0.038,0.554,0.076,1.108,0.114,1.661c0.045,0.29,0.057,0.663,0.006,0.948
	c-0.031,0.174-0.119,0.702-0.246,0.732c0.01-0.232,0.02-0.464,0.03-0.696c-0.01-0.212-0.02-0.424-0.03-0.636
	c-0.046-0.642-0.092-1.284-0.138-1.925c-0.002-0.102-0.004-0.204-0.006-0.306c-0.041-0.259-0.098-0.292,0-0.534
	c0.024-0.059,0.04-0.178,0.102-0.198c0.006,0.004,0.012,0.008,0.018,0.012c0.09,0.236,0.18,0.472,0.27,0.708
	C83.049,1.844,83.106,1.949,83.109,2.117z M32.221,1.266c0.277-0.005,0.096,0.348,0.036,0.45c-0.16,0.273-0.384,0.47-0.577,0.708
	c-0.078,0.076-0.156,0.152-0.234,0.228c0.119,0.615,0.228,1.535,0.793,1.691c0.139,0.038,0.321-0.008,0.438-0.036
	c0.002-0.114,0.004-0.228,0.006-0.342c0.054-0.334,0.124-0.605,0.276-0.834c0.062-0.093,0.187-0.284,0.372-0.204
	c0.089,0.038,0.131,0.142,0.168,0.234c0.199,0.485,0.037,1.051-0.27,1.296c-0.11,0.088-0.31,0.169-0.402,0.258
	c0.002,0.057,0,0.128-0.024,0.162c-0.012,0.012-0.006,0.008-0.03,0.012c-0.035-0.034-0.024-0.104-0.054-0.144
	c-0.07,0.034-0.15,0.065-0.234,0.084c-0.593,0.13-0.862-0.421-0.985-0.816c-0.032-0.148-0.064-0.296-0.096-0.444
	c-0.002,0-0.004,0-0.006,0c-0.002,0.002-0.004,0.004-0.006,0.006c-0.052,0.386-0.318,0.557-0.655,0.654
	c-0.148,0.043-0.399,0.067-0.474-0.054c-0.093-0.15-0.015-0.454,0.036-0.582c0.133-0.336,0.365-0.589,0.625-0.798
	c0.066-0.058,0.132-0.116,0.198-0.174c-0.02-0.052-0.04-0.104-0.06-0.156c-0.006,0.006-0.012,0.012-0.018,0.018
	c-0.11,0.084-0.22,0.168-0.33,0.252c-0.209,0.147-0.43,0.264-0.667,0.384c-0.098,0.05-0.202,0.125-0.336,0.132
	c0-0.002,0-0.004,0-0.006c0.077-0.127,0.27-0.215,0.396-0.294c0.22-0.138,0.422-0.306,0.625-0.462c0.084-0.07,0.168-0.14,0.252-0.21
	c-0.058-0.195,0.003-0.411,0.078-0.588c0.01,0.002,0.02,0.004,0.03,0.006c0.056,0.114,0.112,0.228,0.168,0.342
	c0.018-0.018,0.036-0.036,0.054-0.054c0.07-0.066,0.14-0.132,0.21-0.198c0.177-0.143,0.32-0.327,0.517-0.45
	C32.096,1.303,32.158,1.296,32.221,1.266z M32.161,1.505c-0.287,0.223-0.587,0.457-0.829,0.726c0.018,0.052,0.036,0.104,0.054,0.156
	c0.01-0.01,0.02-0.02,0.03-0.03c0.056-0.054,0.112-0.108,0.168-0.162c0.161-0.13,0.297-0.295,0.438-0.444
	c0.051-0.054,0.164-0.149,0.144-0.246C32.165,1.505,32.163,1.505,32.161,1.505z M67.848,1.553c0.012,0.002,0.024,0.004,0.036,0.006
	c0.096,0.178,0.232,0.338,0.318,0.534c0.156,0.354,0.25,0.744,0.348,1.164c0.1,0.424,0.131,1.232,0.354,1.512
	c0.134,0.168,0.481,0.121,0.667,0.042c-0.02-0.068-0.04-0.136-0.06-0.204c-0.09-0.443,0.159-0.749,0.33-0.966
	c0.069-0.088,0.219-0.268,0.396-0.198c0.268,0.106,0.278,0.738,0.174,1.044c-0.026,0.076-0.147,0.239-0.132,0.288
	c0.524,0.038,0.953,0.059,1.213-0.276c0.093-0.12,0.146-0.287,0.21-0.432c0.061-0.137,0.289-0.397,0.408-0.486
	c0.099-0.074,0.291-0.178,0.45-0.084c0.273,0.161,0.403,1.076,0.096,1.29c-0.066,0.046-0.231,0.01-0.3-0.006
	c-0.279-0.064-0.464-0.174-0.661-0.312c-0.042,0.088-0.084,0.176-0.126,0.264c-0.145,0.243-0.361,0.483-0.673,0.558
	c-0.195,0.047-0.671-0.028-0.829-0.078c-0.062-0.02-0.209-0.092-0.234-0.072c-0.138,0.057-0.248,0.162-0.408,0.21
	c-0.11,0.033-0.271,0.026-0.384,0c-0.415-0.096-0.452-0.468-0.535-0.894c-0.016-0.1-0.032-0.2-0.048-0.3c-0.002,0-0.004,0-0.006,0
	c-0.002,0.002-0.004,0.004-0.006,0.006c-0.026,0.28-0.188,0.459-0.324,0.63c-0.301,0.376-0.728,0.68-1.201,0.882
	c-0.196,0.084-0.581,0.227-0.847,0.114c-0.518-0.221-0.256-1.415-0.03-1.769c0.006,0,0.012,0,0.018,0
	c0.002,0.002,0.004,0.004,0.006,0.006c-0.005,0.317-0.328,0.889-0.102,1.194c0.152,0.205,0.597,0.124,0.829,0.042
	c0.543-0.191,1.04-0.554,1.363-0.972c0.056-0.072,0.112-0.144,0.168-0.216c0.064-0.145-0.005-0.4-0.036-0.528
	c-0.115-0.474-0.247-0.854-0.42-1.254c-0.038-0.08-0.076-0.16-0.114-0.24C67.733,1.954,67.811,1.603,67.848,1.553z M48.815,1.757
	c0.103,0.004,0.364,0.196,0.414,0.264c0,0.128-0.104,0.314-0.18,0.378c-0.044-0.007-0.4-0.258-0.408-0.288
	C48.699,1.993,48.757,1.875,48.815,1.757z M58.617,1.757c0.103,0.004,0.364,0.196,0.414,0.264c0,0.128-0.104,0.314-0.18,0.378
	c-0.044-0.007-0.4-0.258-0.408-0.288C58.501,1.993,58.559,1.875,58.617,1.757z M77.673,2.363c0.098,0.012,0.357,0.201,0.408,0.27
	c-0.005,0.148-0.109,0.273-0.174,0.372c-0.014,0-0.028,0-0.042,0c-0.116-0.082-0.232-0.164-0.348-0.246
	c-0.05,0.092-0.1,0.184-0.15,0.276c-0.012,0-0.024,0-0.036,0c-0.126-0.09-0.252-0.18-0.378-0.27c0.01-0.073,0.134-0.329,0.18-0.372
	c0.129,0.006,0.344,0.254,0.408,0.234C77.585,2.539,77.63,2.451,77.673,2.363z M70.028,2.399c0.098,0.012,0.357,0.201,0.408,0.27
	c-0.005,0.148-0.109,0.273-0.174,0.372c-0.014,0-0.028,0-0.042,0c-0.116-0.082-0.232-0.164-0.348-0.246
	c-0.05,0.092-0.1,0.184-0.15,0.276c-0.012,0-0.024,0-0.036,0c-0.126-0.09-0.252-0.18-0.378-0.27c0.01-0.073,0.134-0.329,0.18-0.372
	c0.129,0.006,0.344,0.254,0.408,0.234C69.94,2.575,69.984,2.487,70.028,2.399z M31.182,2.885c-0.158,0.207-0.721,0.56-0.757,0.822
	c0.111,0.119,0.367,0.044,0.498-0.006c0.44-0.167,0.447-0.345,0.276-0.816C31.194,2.885,31.188,2.885,31.182,2.885z M54.641,2.927
	c0.012,0,0.024,0,0.036,0c0.108,0.129,0.21,0.258,0.282,0.426c0.141,0.325,0.046,0.774-0.126,0.996
	c-0.148,0.191-0.405,0.276-0.649,0.372c-0.498,0.196-1.018,0.324-1.604,0.444c-0.49,0.101-1.182,0.107-1.58-0.072
	c-0.501-0.226-0.694-0.888-0.462-1.542c0.043-0.121,0.1-0.337,0.204-0.396c0.006-0.002,0.012-0.004,0.018-0.006
	c0.002,0.002,0.004,0.004,0.006,0.006c-0.007,0.159-0.089,0.288-0.138,0.414c-0.094,0.239-0.078,0.565,0.054,0.738
	c0.63,0.824,2.559,0.312,3.375,0.024c0.267-0.094,0.607-0.18,0.787-0.366c-0.008-0.239-0.257-0.361-0.336-0.54
	C54.449,3.289,54.591,3.009,54.641,2.927z M31.939,4.918c-0.002,0.209-0.095,0.405-0.138,0.6c-0.119,0.534,0.077,0.909,0.517,1.002
	c0.238,0.05,0.474-0.029,0.637-0.096c0.464-0.191,0.854-0.475,1.183-0.804c0.087-0.087,0.486-0.402,0.318-0.594
	c-0.481,0.116-1.118,0.061-0.967-0.54c0.026-0.07,0.052-0.14,0.078-0.21c0.043-0.073,0.099-0.15,0.162-0.204
	c0.048-0.041,0.1-0.088,0.162-0.114c0.329-0.136,0.56,0.22,0.673,0.408c0.032,0.058,0.064,0.116,0.096,0.174
	c0.167-0.047,0.335-0.158,0.474-0.246c0.073-0.046,0.136-0.127,0.246-0.132c0.004,0.006,0.008,0.012,0.012,0.018
	c0.032,0.085-0.03,0.173-0.012,0.27c0.035,0.191,0.184,0.256,0.306,0.36c0.008-0.006,0.016-0.012,0.024-0.018
	c0.053-0.175,0.186-0.346,0.276-0.498c0.263-0.442,0.533-1.009,1.123-1.116c0.452-0.082,0.917,0.334,0.979,0.648
	c0.07,0.353-0.22,0.75-0.39,0.876c0.002,0.004,0.004,0.008,0.006,0.012c0.002,0,0.004,0,0.006,0
	c0.104-0.038,0.208-0.076,0.312-0.114c0.292-0.116,0.585-0.232,0.877-0.348c0.119-0.051,0.304-0.094,0.384-0.186
	c-0.109-0.143-0.341-0.297-0.547-0.336c-0.158-0.03-0.255,0.092-0.366,0.066c0-0.091,0.127-0.412,0.174-0.456
	c0.249-0.235,1.327-0.275,1.736-0.15c0.148,0.045,0.521,0.179,0.534,0.33c-0.06,0.116-0.12,0.232-0.18,0.348
	c-0.202,0.086-0.404,0.172-0.607,0.258c0.008,0.01,0.016,0.02,0.024,0.03c0.078,0.035,0.145,0.095,0.234,0.126
	c0.449,0.156,0.978-0.036,1.153-0.324c0.062-0.136,0.124-0.272,0.186-0.408c0.077-0.13,0.231-0.321,0.348-0.414
	c0.098-0.078,0.239-0.203,0.432-0.144c0.363,0.11,0.435,0.953,0.198,1.272c-0.059,0.079-0.225,0.068-0.342,0.042
	c-0.27-0.06-0.468-0.183-0.661-0.318c-0.032,0.07-0.064,0.14-0.096,0.21C41.4,4.38,41.272,4.554,41.104,4.672
	c-0.503,0.356-1.249,0.02-1.513-0.324c-0.722,0.368-1.469,0.707-2.348,0.924c-0.182,0.045-0.387,0.064-0.589,0.096
	c-0.096,0.004-0.192,0.008-0.288,0.012c-0.084,0.002-0.168,0.004-0.252,0.006c-0.151-0.023-0.342-0.085-0.451-0.09
	c-0.023,0.098-0.073,0.252-0.144,0.306c-0.006,0-0.012,0-0.018,0c-0.018-0.128,0.028-0.243,0.048-0.354
	c-0.146-0.097-0.264-0.208-0.318-0.396c-0.008-0.062-0.016-0.124-0.024-0.186c-0.004,0.004-0.008,0.008-0.012,0.012
	c-0.072,0.048-0.144,0.096-0.216,0.144c-0.098,0.054-0.196,0.108-0.294,0.162c-0.001,0.227-0.081,0.43-0.162,0.588
	c-0.23,0.449-0.981,1.065-1.447,1.29c-0.225,0.109-0.618,0.229-0.925,0.108c-0.762-0.301-0.489-1.429-0.24-2.051
	C31.919,4.918,31.929,4.918,31.939,4.918z M61.007,3.017c0.273-0.005,0.419,0.081,0.619,0.144c0.232,0.074,0.464,0.148,0.697,0.222
	c0.472,0.146,0.999,0.173,1.525,0.276c0,0.012,0,0.024,0,0.036c-0.033,0.073-0.153,0.333-0.21,0.366
	c-0.121,0.072-0.472-0.059-0.649-0.03c-0.286,0.047-0.532,0.09-0.781,0.168c-0.42,0.132-0.832,0.282-1.231,0.438
	c-0.194,0.068-0.388,0.136-0.583,0.204c-0.408,0.227-0.902,0.299-1.447,0.396c-0.198,0.035-0.488,0.067-0.709,0.03
	c-0.143-0.024-0.27-0.067-0.396-0.09c-0.033,0.092-0.066,0.227-0.138,0.282c-0.008,0-0.016,0-0.024,0
	c-0.018-0.13,0.056-0.241,0.054-0.336c-0.211-0.074-0.405-0.311-0.481-0.522c-0.062-0.174-0.053-0.403-0.15-0.54
	c-0.006,0.004-0.012,0.008-0.018,0.012c-0.078,0.339-0.121,0.778-0.571,0.708c-0.002,0.002-0.004,0.004-0.006,0.006
	c0.004,0.368-0.031,0.734-0.144,0.996c-0.175,0.406-0.724,0.733-1.099,0.954c-0.254,0.15-0.697,0.385-1.111,0.258
	c-0.558-0.171-0.62-0.992-0.432-1.613c0.043-0.144,0.075-0.383,0.18-0.468c0.006,0,0.012,0,0.018,0c0,0.016,0,0.032,0,0.048
	c-0.154,0.488-0.295,1.061,0.066,1.422C54.069,6.464,54.215,6.58,54.4,6.55c0.799-0.129,1.282-0.577,1.796-0.99
	c0.374-0.301-0.003-0.809-0.102-1.134c-0.028-0.091,0.084-0.451,0.138-0.462c0.008,0.006,0.016,0.012,0.024,0.018
	c0.032,0.086,0.086,0.212,0.156,0.264c0.217,0.16,0.465-0.01,0.534-0.186c0.047-0.118,0.036-0.504,0.132-0.552
	c0.194-0.05,0.229,0.291,0.264,0.432c0.083,0.331,0.156,0.509,0.402,0.672c0.043,0.028,0.101,0.076,0.15,0.078
	c0.092-0.166,0.184-0.332,0.276-0.498c0.262-0.44,0.53-1.02,1.117-1.128c0.453-0.083,0.915,0.321,0.985,0.624
	c0.083,0.358-0.208,0.763-0.384,0.894c0.002,0.004,0.004,0.008,0.006,0.012c0.002,0,0.004,0,0.006,0
	c0.498-0.186,0.997-0.372,1.495-0.558c0.224-0.08,0.448-0.16,0.673-0.24c-0.304-0.092-0.609-0.184-0.913-0.276
	c-0.077-0.016-0.093,0.053-0.144,0.066c-0.118,0.031-0.664-0.026-0.763-0.054c-0.002-0.004-0.004-0.008-0.006-0.012
	c0.001-0.089,0.186-0.434,0.24-0.456C60.659,3.049,60.833,3.033,61.007,3.017z M51.854,3.041c0.098,0.012,0.357,0.201,0.408,0.27
	c-0.005,0.148-0.109,0.273-0.174,0.372c-0.014,0-0.028,0-0.042,0c-0.116-0.082-0.232-0.164-0.348-0.246
	c-0.05,0.092-0.1,0.184-0.15,0.276c-0.012,0-0.024,0-0.036,0c-0.126-0.09-0.252-0.18-0.378-0.27c0.01-0.073,0.134-0.329,0.18-0.372
	c0.129,0.006,0.344,0.254,0.408,0.234C51.766,3.217,51.81,3.129,51.854,3.041z M48.905,3.305c-0.03,0.016-0.06,0.032-0.09,0.048
	c-0.004,0.026-0.008,0.052-0.012,0.078c0.059,0.116,0.37,0.162,0.54,0.132c0-0.002,0-0.004,0-0.006
	C49.227,3.428,49.157,3.303,48.905,3.305z M33.14,3.383c-0.189,0.121-0.272,0.342-0.33,0.594c-0.014,0.059-0.06,0.236-0.018,0.294
	c0.17-0.064,0.522-0.233,0.607-0.372C33.487,3.753,33.282,3.392,33.14,3.383z M42.077,3.461c-0.091,0.036-0.153,0.035-0.198,0.114
	c0.006,0.012,0.012,0.024,0.018,0.036c0.146,0.059,0.329,0.246,0.529,0.216c0.002-0.006,0.004-0.012,0.006-0.018
	C42.493,3.652,42.238,3.456,42.077,3.461z M59.211,3.515c-0.12,0.052-0.227,0.061-0.324,0.126c-0.322,0.213-0.527,0.557-0.727,0.894
	c-0.04,0.074-0.08,0.148-0.12,0.222c0.208,0.083,0.564,0.073,0.787,0.012c0.531-0.144,0.953-0.361,1.267-0.72
	C60.048,3.778,59.564,3.513,59.211,3.515z M44.647,3.533C44.36,3.756,44.06,3.99,43.818,4.259c0.018,0.052,0.036,0.104,0.054,0.156
	c0.01-0.01,0.02-0.02,0.03-0.03c0.056-0.054,0.112-0.108,0.168-0.162c0.161-0.13,0.297-0.295,0.438-0.444
	c0.051-0.054,0.164-0.149,0.144-0.246C44.651,3.533,44.649,3.533,44.647,3.533z M39.542,3.557c-0.058,0.008-0.116,0.016-0.174,0.024
	c0.002,0.004,0.004,0.008,0.006,0.012c0.112,0.045,0.255,0.17,0.324,0.264c0.14-0.068,0.28-0.136,0.42-0.204
	C40.015,3.552,39.74,3.556,39.542,3.557z M37.038,3.629c-0.105,0.043-0.201,0.044-0.288,0.096c-0.406,0.239-0.685,0.712-0.901,1.14
	c0.094,0.083,0.512,0.082,0.673,0.048c0.446-0.093,0.806-0.265,1.117-0.492c0.085-0.062,0.249-0.159,0.264-0.282
	C37.795,3.883,37.409,3.628,37.038,3.629z M75.235,3.689c0.081,0.018,0.469,0.421,0.504,0.504c-0.002,0.012-0.004,0.024-0.006,0.036
	c-0.085,0.012-0.155-0.011-0.228-0.024c-0.002,0.002-0.004,0.004-0.006,0.006c0.164,0.348,0.458,0.747,0.324,1.284
	c-0.169,0.678-1.28,1.241-1.964,1.446c-0.226,0.068-0.575,0.126-0.859,0.072c-0.678-0.128-1.248-0.715-1.087-1.601
	c0.034-0.189,0.059-0.548,0.174-0.642c0.006,0,0.012,0,0.018,0c0,0.028,0,0.056,0,0.084c-0.034,0.156-0.068,0.312-0.102,0.468
	c-0.058,0.305,0.081,0.555,0.192,0.72c0.626,0.93,2.174,0.338,2.853-0.108c0.166-0.109,0.616-0.382,0.643-0.594
	c-0.198-0.314-0.287-0.659-0.432-1.032c-0.025-0.063-0.097-0.105-0.114-0.162C75.122,4.068,75.207,3.729,75.235,3.689z
	 M70.058,3.893c-0.185,0.113-0.332,0.266-0.426,0.468c0.069,0.109,0.157,0.245,0.3,0.276c0.131-0.099,0.266-0.146,0.354-0.288
	C70.249,4.2,70.205,3.925,70.058,3.893z M72.172,3.941c-0.091,0.036-0.153,0.035-0.198,0.114c0.006,0.012,0.012,0.024,0.018,0.036
	c0.145,0.059,0.329,0.246,0.529,0.216c0.002-0.006,0.004-0.012,0.006-0.018C72.588,4.132,72.333,3.936,72.172,3.941z M46.533,4.223
	c-0.068,0.014-0.136,0.028-0.204,0.042c-0.183,0.057-0.354,0.156-0.499,0.258c-0.219,0.155-0.469,0.35-0.637,0.558
	c-0.106,0.116-0.212,0.232-0.318,0.348c0.004,0.004,0.008,0.008,0.012,0.012c0.584-0.221,1.22-0.363,1.796-0.588
	c0.116-0.045,0.562-0.178,0.583-0.276C47.091,4.366,46.925,4.222,46.533,4.223z M33.891,4.367c-0.073,0.027-0.131,0.016-0.162,0.084
	c-0.008,0.015-0.01,0.028-0.006,0.042c0.018,0.121,0.415,0.187,0.511,0.09C34.162,4.479,34.064,4.367,33.891,4.367z M73.457,4.877
	c0.103,0.004,0.364,0.196,0.414,0.264c0,0.128-0.104,0.315-0.18,0.378c-0.044-0.007-0.4-0.258-0.408-0.288
	C73.341,5.112,73.399,4.994,73.457,4.877z M43.668,4.912c-0.158,0.207-0.721,0.56-0.757,0.822c0.111,0.119,0.367,0.044,0.499-0.006
	c0.44-0.167,0.447-0.345,0.276-0.816C43.68,4.912,43.674,4.912,43.668,4.912z"/>
</svg>
