<?xml version="1.0" encoding="utf-8"?>
<!-- Generator: Adobe Illustrator 17.0.0, SVG Export Plug-In . SVG Version: 6.00 Build 0)  -->
<!DOCTYPE svg PUBLIC "-//W3C//DTD SVG 1.1//EN" "http://www.w3.org/Graphics/SVG/1.1/DTD/svg11.dtd">
<svg version="1.1" id="Layer_4" xmlns="http://www.w3.org/2000/svg" xmlns:xlink="http://www.w3.org/1999/xlink" x="0px" y="0px"
	 width="58.618px" height="8.365px" viewBox="0 0 58.618 8.365" enable-background="new 0 0 58.618 8.365" xml:space="preserve">
<g>
	<path fill="#9F8E70" d="M15.349,6.964h-2.794V5.573h1.402V1.391H8.37l0.015,1.386l4.17,0.004v1.401H6.979V2.781H5.587v4.183H4.185
		V2.781L0,2.792v4.172L2.807,6.97L2.794,8.365h4.185V5.573l4.176-0.012l0.009,2.804h5.576V0h-1.391V6.964z M2.794,5.577H1.399V4.183
		h1.395V5.577z"/>
	<rect x="8.371" y="6.964" fill="#9F8E70" width="1.401" height="1.401"/>
	<rect x="5.587" y="0" fill="#9F8E70" width="1.391" height="1.391"/>
	<rect x="2.794" y="0" fill="#9F8E70" width="1.391" height="1.391"/>
	<rect x="0" y="0" fill="#9F8E70" width="1.391" height="1.391"/>
	<rect x="18.142" y="0" fill="#9F8E70" width="1.391" height="8.365"/>
	<rect x="20.925" y="1.391" fill="#9F8E70" width="1.402" height="1.391"/>
	<path fill="#9F8E70" d="M23.718,4.183h-2.783v4.183h6.968V6.962h-5.578V5.573h5.578V1.391h-4.185V4.183z M25.095,2.761h1.4v1.4
		h-1.4V2.761z"/>
	<polygon fill="#9F8E70" points="33.594,4.183 30.801,4.183 30.801,5.573 29.409,5.573 29.409,6.965 30.801,6.965 30.801,8.365 
		34.986,8.365 34.986,6.962 32.195,6.962 32.195,5.573 34.986,5.573 34.986,0 33.594,0 	"/>
	<rect x="48.857" y="0" fill="#9F8E70" width="1.391" height="1.391"/>
	<rect x="51.64" y="0" fill="#9F8E70" width="1.391" height="1.391"/>
	<rect x="54.433" y="0" fill="#9F8E70" width="1.391" height="1.391"/>
	<rect x="57.227" y="0" fill="#9F8E70" width="1.391" height="5.573"/>
	<path fill="#9F8E70" d="M37.702,5.576h4.177V5.573h1.391v0.002h4.185V5.573h8.37V4.809V4.183V4.172V3.025V2.781h-1.391v0.245v1.147
		v0.011h-1.402V4.172V3.627V2.781H51.64v0.846v0.545v0.011h-1.391V4.172V3.627V2.781h-1.391v0.846v0.545v0.011h-1.402V1.391h-1.397
		V0h-1.391v1.391H43.27v2.792h-1.391v0h-1.391V2.781h1.391V1.391h-4.185v1.391h1.391v1.401h-1.391v0h-1.391v0.886v0.505v0.002v1.388
		v0.003v0.165v1.233h22.316V6.964H37.702V5.576z M44.662,2.793h1.4v1.39h-1.4V2.793z"/>
</g>
</svg>
