<?xml version="1.0" encoding="utf-8"?>
<!-- Generator: Adobe Illustrator 17.0.0, SVG Export Plug-In . SVG Version: 6.00 Build 0)  -->
<!DOCTYPE svg PUBLIC "-//W3C//DTD SVG 1.1//EN" "http://www.w3.org/Graphics/SVG/1.1/DTD/svg11.dtd">
<svg version="1.1" id="Layer_1" xmlns="http://www.w3.org/2000/svg" xmlns:xlink="http://www.w3.org/1999/xlink" x="0px" y="0px"
	 width="841.89px" height="595.28px" viewBox="0 0 841.89 595.28" enable-background="new 0 0 841.89 595.28" xml:space="preserve">
<path fill="#5E8C3D" d="M353,106.407c2.846,5.358,15.611,6.203,8.639,19.892c9.173-4.635,14.549-0.109,15.187,4.737
	c7.112-10.804,15.029,2.675,25.126,1c-11.658-2.847-12.395-16.882-27.539-11.5c-4.186-14.518-14.697-6.769-21.377-16.033h-0.07
	c-6.68,9.263-17.191,1.514-21.377,16.033c-15.144-5.382-15.882,8.653-27.539,11.5c10.097,1.675,18.014-11.804,25.126-1
	c0.638-4.845,6.014-9.372,15.187-4.737C337.389,112.611,350.154,111.765,353,106.407z"/>
<path fill="#5E8C3D" d="M353,435.932c2.846-5.358,15.611-6.203,8.639-19.892c9.173,4.635,14.549,0.109,15.187-4.737
	c7.112,10.804,15.029-2.675,25.126-1c-11.658,2.847-12.395,16.882-27.539,11.5c-4.186,14.518-14.697,6.769-21.377,16.033h-0.07
	c-6.68-9.263-17.191-1.514-21.377-16.033c-15.144,5.382-15.882-8.653-27.539-11.5c10.097-1.675,18.014,11.804,25.126,1
	c0.638,4.845,6.014,9.372,15.187,4.737C337.389,429.728,350.154,430.574,353,435.932z"/>
<g>
	
		<path fill="#F4FAF3" stroke="#18733A" stroke-width="0.1" stroke-linecap="round" stroke-linejoin="round" stroke-miterlimit="10" d="
		M329.146,411.197c0.646,4.803,5.934,9.602,15.215,4.912c-6.973,13.689,5.793,14.535,8.639,19.892
		c2.845-5.358,15.611-6.204,8.639-19.892c9.281,4.69,14.849-0.186,15.204-4.781c6.786,10.303,13.616-1.172,23.438-1.172H411
		c5.523,0,10-4.477,10-10v-240c0-12.851-8.08-23.814-19.436-28.087l-0.006,0.016c-10.401,1.009-17.839-11.709-24.703-0.972
		c-0.635-4.657-5.934-9.602-15.215-4.912c6.973-13.689-5.793-14.535-8.639-19.892c-2.846,5.358-15.611,6.204-8.639,19.892
		c-9.281-4.69-14.705-0.14-15.215,4.912c-6.833-10.8-14.771,2.294-24.703,0.972l-0.006-0.016
		C293.08,136.342,285,147.306,285,160.156v240c0,5.523,4.477,10,10,10h11.313C315.25,410.333,322.833,421.625,329.146,411.197z"/>
</g>
</svg>
