<svg xmlns="http://www.w3.org/2000/svg" viewBox="0 0 4800 1500"><defs><style>.cls-1{fill:#1d1d1b;}.cls-2{fill:#fff;}</style></defs><title>Jibres-Logo-en-black-zero</title><g id="Jibres-icon"><circle id="Circle" class="cls-1" cx="750" cy="750" r="750"/><path id="Shape" class="cls-2" d="M1159.78,488.89v400h-800v-400h-100v400a100,100,0,0,0,100,100h800a100,100,0,0,0,100-100v-400Z"/></g><g id="Jibres-wordmark"><path class="cls-1" d="M2000,1118.79l64.55-79c32.82,35.6,73.3,57.85,111.59,57.85,77.67,0,105-51.18,105-126.83V409H2384V969.71c0,135.73-61.26,230.29-206.77,230.29C2109.4,1200,2043.76,1166.62,2000,1118.79Z"/><path class="cls-1" d="M2538,453.91c0-38.29,29.53-68.91,70-68.91s70,30.62,70,68.91c0,40.47-29.53,71.09-70,71.09S2538,494.38,2538,453.91Z"/><rect class="cls-1" x="2558" y="633" width="100" height="557"/><path class="cls-1" d="M3388,912.7c0,160.41-103.93,286.29-256,286.29-80.95,0-145.5-40.1-188.16-99.14v91.34H2841V300h102.84V724.43c42.66-57.93,107.21-98,188.16-98C3284.07,626.4,3388,752.28,3388,912.7Zm-106.12,0c0-102.49-68.92-184.93-167.38-184.93s-169.57,86.89-169.57,184.93,71.11,183.8,169.57,183.8S3281.88,1014.07,3281.88,912.7Z"/><path class="cls-1" d="M3777,621V744.41c-77.54-13.35-157.26,28.9-157.26,149l-1.09-4.44V1188H3516V632.12h102.65v95.61C3648.14,671,3703.83,621,3777,621Z"/><path class="cls-1" d="M4343,952.22H3925.11c16.41,87.9,84.24,143.53,178.32,143.53,72.2,0,128-23.36,180.5-60.08v105.7c-46,34.49-111.58,55.63-186,55.63-173.94,0-279-131.29-279-287.06C3819,755.29,3926.21,624,4087,624,4257.67,624,4355,776.43,4343,952.22Zm-416.79-86.78H4234.7c-15.31-81.22-71.11-136.85-149.87-136.85C4001.69,728.59,3942.62,785.33,3926.21,865.44Z"/><path class="cls-1" d="M4416,1110.12l64.55-77.86c33.91,33.37,80.95,64.52,132.37,64.52,45.95,0,79.87-24.48,79.87-61.18,0-107.9-261.47-67.86-260.38-257,0-84.54,68.92-154.62,176.14-154.62,76.58-1.11,141.13,40.05,175,79l-60.17,76.75c-24.07-22.24-67.83-54.5-113.78-54.5-41.57,0-71.11,22.24-71.11,55.61C4537.44,881,4800,844.27,4800,1037.82,4798.91,1129,4723.42,1198,4609.64,1198,4540.72,1198,4460.86,1161.29,4416,1110.12Z"/></g></svg>