<?xml version="1.0" encoding="UTF-8" standalone="no"?>
<!DOCTYPE svg  PUBLIC '-//W3C//DTD SVG 20010904//EN'  'http://www.w3.org/TR/2001/REC-SVG-20010904/DTD/svg10.dtd'>
<svg xmlns="http://www.w3.org/2000/svg" height="2048pt" width="2048pt" version="1.0" preserveAspectRatio="xMidYMid meet" viewBox="0 0 2048.000000 2048.000000">
 <metadata>Created by potrace 1.11, written by Peter Selinger 2001-2013</metadata>
 <g transform="translate(0 2048) scale(0.1 -0.1)">
  <path d="m9645 20469c-1383-82-2708-432-3935-1040-451-223-740-390-1150-664-615-411-1086-801-1616-1337-490-496-858-948-1243-1528-263-396-432-689-650-1130-614-1239-959-2555-1041-3964-13-230-13-902 0-1132 82-1409 427-2725 1041-3964 218-441 387-734 650-1130 385-580 753-1032 1243-1528 530-536 1001-926 1616-1337 410-274 699-441 1150-664 1239-614 2555-959 3964-1041 230-13 902-13 1132 0 1409 82 2725 427 3964 1041 451 223 740 390 1150 664 615 411 1086 801 1616 1337 490 496 858 948 1243 1528 263 396 432 689 650 1130 555 1121 897 2327 1010 3565 33 353 41 553 41 965s-8 612-41 965c-113 1238-455 2444-1010 3565-223 451-390 740-664 1150-411 615-801 1086-1337 1616-496 490-948 858-1528 1243-396 263-689 432-1130 650-1239 614-2555 959-3964 1041-206 12-954 11-1161-1zm-4865-9549v-2730h5460 5460v2730 2730h680 680l-2-2837-3-2838-27-102c-72-270-197-484-388-666-189-181-413-297-680-354-82-17-313-18-5720-18s-5638 1-5720 18c-267 57-491 173-680 354-191 182-316 396-388 666l-27 102-3 2838-2 2837h680 680v-2730z"/>
 </g>
</svg>
