<svg xmlns="http://www.w3.org/2000/svg" viewBox="0 0 3800 3600"><defs><style>.cls-1{fill:#fff;}</style></defs><title>Jibres-Logo-en-vertical-white-safe</title><g id="Jibres-icon"><path class="cls-1" d="M1900,500c-414.21,0-750,335.79-750,750s335.79,750,750,750,750-335.79,750-750S2314.21,500,1900,500Zm509.78,888.89a100,100,0,0,1-100,100h-800a100,100,0,0,1-100-100v-400h100v400h800v-400h100Z"/></g><g id="Jibres-wordmark"><path class="cls-1" d="M500,3018.79l64.55-79c32.82,35.6,73.3,57.85,111.59,57.85,77.67,0,105-51.18,105-126.83V2309H884v560.71C884,3005.44,822.74,3100,677.23,3100,609.4,3100,543.76,3066.62,500,3018.79Z"/><path class="cls-1" d="M1038,2353.91c0-38.29,29.53-68.91,70-68.91s70,30.62,70,68.91c0,40.47-29.53,71.09-70,71.09S1038,2394.38,1038,2353.91Z"/><rect class="cls-1" x="1058" y="2533" width="100" height="557"/><path class="cls-1" d="M1888,2812.7c0,160.41-103.93,286.29-256,286.29-81,0-145.5-40.1-188.16-99.14v91.34H1341V2200h102.84v424.43c42.66-57.93,107.21-98,188.16-98C1784.07,2526.4,1888,2652.28,1888,2812.7Zm-106.12,0c0-102.49-68.92-184.93-167.38-184.93s-169.57,86.89-169.57,184.93,71.11,183.8,169.57,183.8S1781.88,2914.07,1781.88,2812.7Z"/><path class="cls-1" d="M2277,2521v123.41c-77.54-13.35-157.26,28.9-157.26,149l-1.09-4.44V3088H2016V2532.12h102.65v95.61C2148.14,2571,2203.83,2521,2277,2521Z"/><path class="cls-1" d="M2843,2852.22H2425.11c16.41,87.9,84.24,143.53,178.32,143.53,72.2,0,128-23.36,180.5-60.08v105.7C2738,3075.86,2672.35,3097,2598,3097c-173.94,0-279-131.29-279-287.06,0-154.65,107.21-285.94,268-285.94C2757.67,2524,2855,2676.43,2843,2852.22Zm-416.79-86.78H2734.7c-15.31-81.22-71.11-136.85-149.87-136.85C2501.69,2628.59,2442.62,2685.33,2426.21,2765.44Z"/><path class="cls-1" d="M2916,3010.12l64.55-77.86c33.91,33.37,80.95,64.52,132.37,64.52,45.95,0,79.87-24.48,79.87-61.18,0-107.9-261.47-67.86-260.38-257,0-84.54,68.92-154.62,176.14-154.62,76.58-1.11,141.13,40.05,175,79l-60.17,76.75c-24.07-22.24-67.83-54.5-113.78-54.5-41.57,0-71.11,22.24-71.11,55.61-1.09,100.12,261.47,63.41,261.47,257C3298.91,3029,3223.42,3098,3109.64,3098,3040.72,3098,2960.86,3061.29,2916,3010.12Z"/></g></svg>