<svg xmlns="http://www.w3.org/2000/svg" viewBox="0 0 3500 3500"><defs><style>.cls-1{fill:#c80a5a;}.cls-2{fill:#fff;}</style></defs><title>Jibres-Logo-en-vertical-safe</title><g id="Jibres-icon"><circle id="Circle" class="cls-1" cx="1750" cy="1250" r="750"/><path id="Shape" class="cls-2" d="M2159.78,988.89v400h-800v-400h-100v400a100,100,0,0,0,100,100h800a100,100,0,0,0,100-100v-400Z"/></g><g id="Jibres-wordmark"><path class="cls-1" d="M500,2927.81l57.63-70.21c29.31,31.64,65.45,51.42,99.63,51.42,69.36,0,93.78-45.49,93.78-112.73v-499.4h91.82V2795.3c0,120.64-54.7,204.7-184.62,204.7C597.68,3000,539.07,2970.33,500,2927.81Z"/><path class="cls-1" d="M980.36,2336.81c0-34,26.36-61.25,62.5-61.25s62.5,27.22,62.5,61.25c0,36-26.37,63.19-62.5,63.19S980.36,2372.78,980.36,2336.81Z"/><rect class="cls-1" x="998.21" y="2496" width="89.29" height="495.11"/><path class="cls-1" d="M1739.29,2744.62c0,142.59-92.8,254.48-228.57,254.48-72.28,0-129.91-35.64-168-88.13v81.2h-91.82V2200h91.82v377.27c38.1-51.49,95.73-87.14,168-87.14C1646.49,2490.13,1739.29,2602,1739.29,2744.62Zm-94.75,0c0-91.1-61.54-164.38-149.45-164.38s-151.4,77.24-151.4,164.38S1407.18,2908,1495.09,2908,1644.54,2834.73,1644.54,2744.62Z"/><path class="cls-1" d="M2086.61,2485.33V2595c-69.23-11.86-140.41,25.69-140.41,132.42l-1-3.95v265.83h-91.66V2495.22h91.66v85C1971.55,2529.8,2021.28,2485.33,2086.61,2485.33Z"/><path class="cls-1" d="M2592,2779.75H2218.85c14.65,78.13,75.21,127.58,159.21,127.58,64.46,0,114.28-20.76,161.16-53.4v94c-41,30.66-99.63,49.45-166,49.45-155.31,0-249.07-116.7-249.07-255.16,0-137.47,95.72-254.17,239.3-254.17C2515.78,2488,2602.71,2623.49,2592,2779.75Zm-372.14-77.14h275.44c-13.68-72.19-63.49-121.64-133.82-121.64C2287.22,2581,2234.48,2631.4,2219.83,2702.61Z"/><path class="cls-1" d="M2657.14,2920.11l57.63-69.21c30.28,29.66,72.29,57.34,118.2,57.34,41,0,71.3-21.75,71.3-54.38,0-95.91-233.45-60.31-232.47-228.4,0-75.15,61.53-137.44,157.26-137.44,68.38-1,126,35.6,156.29,70.2l-53.73,68.23c-21.49-19.78-60.56-48.45-101.58-48.45-37.12,0-63.5,19.77-63.5,49.44-1,89,233.46,56.35,233.46,228.4-1,81.08-68.38,142.38-170,142.38C2768.5,2998.22,2697.19,2965.59,2657.14,2920.11Z"/></g></svg>