<?xml version="1.0" encoding="utf-8"?>
<!-- Generator: Adobe Illustrator 20.1.0, SVG Export Plug-In . SVG Version: 6.00 Build 0)  -->
<svg version="1.1" id="Layer_1" xmlns="http://www.w3.org/2000/svg" xmlns:xlink="http://www.w3.org/1999/xlink" x="0px" y="0px"
	 viewBox="0 0 1414.2 1414.2" style="enable-background:new 0 0 1414.2 1414.2;" xml:space="preserve">
<style type="text/css">
	.st0{fill:#C01541;}
	.st1{fill:#E0D7C1;}
</style>
<path class="st0" d="M707.1,707.1l217.8-217.8c17.1-17.1,15.2-45.3-3.9-60L692.3,253.6l-70.8,149.3L707.1,707.1z"/>
<path class="st0" d="M707.1,707.1L489.3,489.3c-17.1-17.1-45.3-15.2-60,3.9L253.6,721.9l149.3,70.8L707.1,707.1z"/>
<path class="st0" d="M707.1,707.1L489.3,924.9c-17.1,17.1-15.2,45.3,3.9,60l228.6,175.7l70.8-149.3L707.1,707.1z"/>
<path class="st0" d="M707.1,707.1l217.8,217.8c17.1,17.1,45.3,15.2,60-3.9l175.7-228.6l-149.3-70.8L707.1,707.1z"/>
<path class="st1" d="M707.1,707.1l-500-500l434.5,28.7c55.5,3.7,97.3,51.9,93.1,107.4L707.1,707.1z"/>
<path class="st1" d="M707.1,707.1l-500,500l28.7-434.5c3.7-55.5,51.9-97.3,107.4-93.1L707.1,707.1z"/>
<path class="st1" d="M707.1,707.1l500,500l-434.5-28.7c-55.5-3.7-97.3-51.9-93.1-107.4L707.1,707.1z"/>
<path class="st1" d="M707.1,707.1l500-500l-28.7,434.5c-3.7,55.5-51.9,97.3-107.4,93.1L707.1,707.1z"/>
</svg>
