<svg xmlns="http://www.w3.org/2000/svg" viewBox="0 0 4800 1500"><defs><style>.cls-1{fill:#c80a5a;}.cls-2{fill:#fff;}.cls-3{fill:#231f20;}</style></defs><title>Jibres-Logo-en</title><g id="Jibres-icon"><circle id="Circle" class="cls-1" cx="750" cy="750" r="750"/><path id="Shape" class="cls-2" d="M1159.78,488.89v400h-800v-400h-100v400a100,100,0,0,0,100,100h800a100,100,0,0,0,100-100v-400Z"/></g><g id="Jibres-wordmark"><path class="cls-3" d="M2000,1115.4l64.55-78.39c32.82,35.33,73.3,57.41,111.59,57.41,77.67,0,105-50.78,105-125.86V411H2384V967.46c0,134.69-61.26,228.54-206.77,228.54C2109.4,1196,2043.76,1162.88,2000,1115.4Z"/><path class="cls-3" d="M2538,455.91c0-38.29,29.53-68.91,70-68.91s70,30.62,70,68.91c0,40.47-29.53,71.09-70,71.09S2538,496.38,2538,455.91Z"/><rect class="cls-3" x="2558" y="633" width="100" height="553"/><path class="cls-3" d="M3388,910.93c0,159.17-103.93,284.07-256,284.07-80.95,0-145.5-39.79-188.16-98.37v90.63H2841V303h102.84V724.13c42.66-57.48,107.21-97.27,188.16-97.27C3284.07,626.86,3388,751.76,3388,910.93Zm-106.12,0c0-101.69-68.92-183.48-167.38-183.48s-169.57,86.21-169.57,183.48,71.11,182.38,169.57,182.38S3281.88,1011.52,3281.88,910.93Z"/><path class="cls-3" d="M3777,621V743.54c-77.54-13.25-157.26,28.7-157.26,147.92l-1.09-4.41v297H3516V632h102.65V727C3648.14,670.68,3703.83,621,3777,621Z"/><path class="cls-3" d="M4343,950.93H3925.11c16.41,87.29,84.24,142.53,178.32,142.53,72.2,0,128-23.2,180.5-59.66v105C4238,1173,4172.35,1194,4098,1194c-173.94,0-279-130.37-279-285,0-153.58,107.21-284,268-284C4257.67,625,4355,776.37,4343,950.93Zm-416.79-86.18H4234.7c-15.31-80.65-71.11-135.89-149.87-135.89C4001.69,728.86,3942.62,785.2,3926.21,864.75Z"/><path class="cls-3" d="M4416,1106.74l64.55-77.33c33.91,33.14,80.95,64.07,132.37,64.07,45.95,0,79.87-24.3,79.87-60.75,0-107.15-261.47-67.38-260.38-255.17,0-83.95,68.92-153.54,176.14-153.54,76.58-1.1,141.13,39.77,175,78.43l-60.17,76.22c-24.07-22.1-67.83-54.13-113.78-54.13-41.57,0-71.11,22.09-71.11,55.23-1.09,99.42,261.47,63,261.47,255.17-1.09,90.57-76.58,159.06-190.36,159.06C4540.72,1194,4460.86,1157.55,4416,1106.74Z"/></g></svg>