<svg xmlns="http://www.w3.org/2000/svg" viewBox="0 0 5800 2500"><defs><style>.cls-1{fill:#c80a5a;}.cls-2{fill:#fff;}.cls-3{fill:#231f20;}</style></defs><title>Jibres-Logo-en-safe</title><g id="Jibres-icon"><circle id="Circle" class="cls-1" cx="1250" cy="1250" r="750"/><path id="Shape" class="cls-2" d="M1659.78,988.89v400h-800v-400h-100v400a100,100,0,0,0,100,100h800a100,100,0,0,0,100-100v-400Z"/></g><g id="Jibres-wordmark"><path class="cls-3" d="M2500,1615.4l64.55-78.39c32.82,35.33,73.3,57.41,111.59,57.41,77.67,0,105-50.78,105-125.86V911H2884v556.46c0,134.69-61.26,228.54-206.77,228.54C2609.4,1696,2543.76,1662.88,2500,1615.4Z"/><path class="cls-3" d="M3038,955.91c0-38.29,29.53-68.91,70-68.91s70,30.62,70,68.91c0,40.47-29.53,71.09-70,71.09S3038,996.38,3038,955.91Z"/><rect class="cls-3" x="3058" y="1133" width="100" height="553"/><path class="cls-3" d="M3888,1410.93c0,159.17-103.93,284.07-256,284.07-80.95,0-145.5-39.79-188.16-98.37v90.63H3341V803h102.84v421.13c42.66-57.48,107.21-97.27,188.16-97.27C3784.07,1126.86,3888,1251.76,3888,1410.93Zm-106.12,0c0-101.69-68.92-183.48-167.38-183.48s-169.57,86.21-169.57,183.48,71.11,182.38,169.57,182.38S3781.88,1511.52,3781.88,1410.93Z"/><path class="cls-3" d="M4277,1121v122.54c-77.54-13.25-157.26,28.7-157.26,147.92l-1.09-4.41v297H4016V1132h102.65V1227C4148.14,1170.68,4203.83,1121,4277,1121Z"/><path class="cls-3" d="M4843,1450.93H4425.11c16.41,87.29,84.24,142.53,178.32,142.53,72.2,0,128-23.2,180.5-59.66v105C4738,1673,4672.35,1694,4598,1694c-173.94,0-279-130.37-279-285,0-153.58,107.21-284,268-284C4757.67,1125,4855,1276.37,4843,1450.93Zm-416.79-86.18H4734.7c-15.31-80.65-71.11-135.89-149.87-135.89C4501.69,1228.86,4442.62,1285.2,4426.21,1364.75Z"/><path class="cls-3" d="M4916,1606.74l64.55-77.33c33.91,33.14,80.95,64.07,132.37,64.07,45.95,0,79.87-24.3,79.87-60.75,0-107.15-261.47-67.38-260.38-255.17,0-84,68.92-153.54,176.14-153.54,76.58-1.1,141.13,39.77,175,78.43l-60.17,76.22c-24.07-22.1-67.83-54.13-113.78-54.13-41.57,0-71.11,22.09-71.11,55.23-1.09,99.42,261.47,63,261.47,255.17-1.09,90.57-76.58,159.06-190.36,159.06C5040.72,1694,4960.86,1657.55,4916,1606.74Z"/></g></svg>