<svg xmlns="http://www.w3.org/2000/svg" viewBox="0 0 5000 1700"><defs><style>.cls-1{fill:#c80a5a;}.cls-2{fill:#fff;}.cls-3{fill:#231f20;}</style></defs><title>Jibres-Logo-en-pad</title><g id="Jibres-icon"><circle id="Circle" class="cls-1" cx="850" cy="850" r="750"/><path id="Shape" class="cls-2" d="M1259.78,588.89v400h-800v-400h-100v400a100,100,0,0,0,100,100h800a100,100,0,0,0,100-100v-400Z"/></g><g id="Jibres-wordmark"><path class="cls-3" d="M2100,1215.4l64.55-78.39c32.82,35.33,73.3,57.41,111.59,57.41,77.67,0,105-50.78,105-125.86V511H2484v556.46c0,134.69-61.26,228.54-206.77,228.54C2209.4,1296,2143.76,1262.88,2100,1215.4Z"/><path class="cls-3" d="M2638,555.91c0-38.29,29.53-68.91,70-68.91s70,30.62,70,68.91c0,40.47-29.53,71.09-70,71.09S2638,596.38,2638,555.91Z"/><rect class="cls-3" x="2658" y="733" width="100" height="553"/><path class="cls-3" d="M3488,1010.93c0,159.17-103.93,284.07-256,284.07-80.95,0-145.5-39.79-188.16-98.37v90.63H2941V403h102.84V824.13c42.66-57.48,107.21-97.27,188.16-97.27C3384.07,726.86,3488,851.76,3488,1010.93Zm-106.12,0c0-101.69-68.92-183.48-167.38-183.48s-169.57,86.21-169.57,183.48,71.11,182.38,169.57,182.38S3381.88,1111.52,3381.88,1010.93Z"/><path class="cls-3" d="M3877,721V843.54c-77.54-13.25-157.26,28.7-157.26,147.92l-1.09-4.41v297H3616V732h102.65V827C3748.14,770.68,3803.83,721,3877,721Z"/><path class="cls-3" d="M4443,1050.93H4025.11c16.41,87.29,84.24,142.53,178.32,142.53,72.2,0,128-23.2,180.5-59.66v105C4338,1273,4272.35,1294,4198,1294c-173.94,0-279-130.37-279-285,0-153.58,107.21-284,268-284C4357.67,725,4455,876.37,4443,1050.93Zm-416.79-86.18H4334.7c-15.31-80.65-71.11-135.89-149.87-135.89C4101.69,828.86,4042.62,885.2,4026.21,964.75Z"/><path class="cls-3" d="M4516,1206.74l64.55-77.33c33.91,33.14,80.95,64.07,132.37,64.07,45.95,0,79.87-24.3,79.87-60.75,0-107.15-261.47-67.38-260.38-255.17,0-83.95,68.92-153.54,176.14-153.54,76.58-1.1,141.13,39.77,175,78.43l-60.17,76.22c-24.07-22.1-67.83-54.13-113.78-54.13-41.57,0-71.11,22.09-71.11,55.23-1.09,99.42,261.47,63,261.47,255.17-1.09,90.57-76.58,159.06-190.36,159.06C4640.72,1294,4560.86,1257.55,4516,1206.74Z"/></g></svg>