<svg xmlns="http://www.w3.org/2000/svg" viewBox="0 0 2800 2600"><defs><style>.cls-1{fill:#c80a5a;}.cls-2{fill:#fff;}</style></defs><title>Jibres-Logo-en-vertical-zero</title><g id="Jibres-icon"><circle id="Circle" class="cls-1" cx="1400" cy="750" r="750"/><path id="Shape" class="cls-2" d="M1809.78,488.89v400h-800v-400h-100v400a100,100,0,0,0,100,100h800a100,100,0,0,0,100-100v-400Z"/></g><g id="Jibres-wordmark"><path class="cls-1" d="M0,2518.79l64.55-79c32.82,35.6,73.3,57.85,111.59,57.85,77.67,0,105-51.18,105-126.83V1809H384v560.71C384,2505.44,322.74,2600,177.23,2600,109.4,2600,43.76,2566.62,0,2518.79Z"/><path class="cls-1" d="M538,1853.91c0-38.29,29.53-68.91,70-68.91s70,30.62,70,68.91c0,40.47-29.53,71.09-70,71.09S538,1894.38,538,1853.91Z"/><rect class="cls-1" x="558" y="2033" width="100" height="557"/><path class="cls-1" d="M1388,2312.7c0,160.41-103.93,286.29-256,286.29-81,0-145.5-40.1-188.16-99.14v91.34H841V1700H943.84v424.43c42.66-57.93,107.21-98,188.16-98C1284.07,2026.4,1388,2152.28,1388,2312.7Zm-106.12,0c0-102.49-68.92-184.93-167.38-184.93s-169.57,86.89-169.57,184.93,71.11,183.8,169.57,183.8S1281.88,2414.07,1281.88,2312.7Z"/><path class="cls-1" d="M1777,2021v123.41c-77.54-13.35-157.26,28.9-157.26,149l-1.09-4.44V2588H1516V2032.12h102.65v95.61C1648.14,2071,1703.83,2021,1777,2021Z"/><path class="cls-1" d="M2343,2352.22H1925.11c16.41,87.9,84.24,143.53,178.32,143.53,72.2,0,128-23.36,180.5-60.08v105.7C2238,2575.86,2172.35,2597,2098,2597c-173.94,0-279-131.29-279-287.06,0-154.65,107.21-285.94,268-285.94C2257.67,2024,2355,2176.43,2343,2352.22Zm-416.79-86.78H2234.7c-15.31-81.22-71.11-136.85-149.87-136.85C2001.69,2128.59,1942.62,2185.33,1926.21,2265.44Z"/><path class="cls-1" d="M2416,2510.12l64.55-77.86c33.91,33.37,80.95,64.52,132.37,64.52,45.95,0,79.87-24.48,79.87-61.18,0-107.9-261.47-67.86-260.38-257,0-84.54,68.92-154.62,176.14-154.62,76.58-1.11,141.13,40.05,175,79l-60.17,76.75c-24.07-22.24-67.83-54.5-113.78-54.5-41.57,0-71.11,22.24-71.11,55.61-1.09,100.12,261.47,63.41,261.47,257C2798.91,2529,2723.42,2598,2609.64,2598,2540.72,2598,2460.86,2561.29,2416,2510.12Z"/></g></svg>