<svg xmlns="http://www.w3.org/2000/svg" viewBox="0 0 5200 1500"><defs><style>.cls-1{fill:#c80a5a;}.cls-2{fill:#fff;}.cls-3{fill:#231f20;}</style></defs><title>Jibres-Logo-fa</title><g id="Jibres-icon"><circle id="Circle" class="cls-1" cx="4450" cy="750" r="750"/><path id="Shape" class="cls-2" d="M4859.78,488.89v400h-800v-400h-100v400a100,100,0,0,0,100,100h800a100,100,0,0,0,100-100v-400Z"/></g><g id="Jibres-wordmark"><path class="cls-3" d="M1225,641a337.17,337.17,0,0,0-2.45-37.55q-2.46-21.43-6.13-44.36t-8.09-45.34q-4.41-22.42-8.33-40.72t-7.11-30.71q-3.2-12.44-4.17-15.36l-102,30.72q2,7.3,5.4,20.72t7.11,30.23q3.68,16.81,7.35,35.59t6.61,36.81q3,18,4.91,33.64a218.45,218.45,0,0,1,2,26.33q0,27.3-8.58,43.63t-20.59,25.11a67.74,67.74,0,0,1-24.51,11.7,128.18,128.18,0,0,1-20.34,3.42q-45.58,0-66.67-19t-22.06-60V494.28H850.49V641q0,24.38-8.58,40.46t-21.32,25.84A77.66,77.66,0,0,1,793.38,721a99.79,99.79,0,0,1-25.73,3.91,141.76,141.76,0,0,1-36.28-4.64q-17.64-4.62-31.62-19t-22.3-41q-8.34-26.58-8.33-70.95V494.28H561.77V837.52q0,35.1-6.87,62.89t-25.73,46.81q-18.88,19-52.94,29t-88.48,10h-98q-41.19,0-75-14.62a186.77,186.77,0,0,1-60.79-41.2,183.77,183.77,0,0,1-39.46-61.19q-14-35.1-14-75.57,0-51.67,19.61-108.24t53.43-125.3L77,513.3q-38.23,80-57.6,148.94T0,795.1q0,68.74,21.57,123.6t60.54,93.61q39,38.76,92.4,59.72t117.65,21h95.59q139.69,0,210.53-62.41t70.84-193.07V801.93a104.87,104.87,0,0,0,22.06,15.6,102.39,102.39,0,0,0,23.53,8.78,161.25,161.25,0,0,0,25.49,3.9q13.23,1,27.45,1A250,250,0,0,0,802,828.74a180.35,180.35,0,0,0,35-8.53,171.43,171.43,0,0,0,33.58-16.09A158.56,158.56,0,0,0,901,779.5q25.49,24.87,62.26,38.27t83.82,13.41a190.25,190.25,0,0,0,64.22-12.43,172.25,172.25,0,0,0,57.1-35.35q25.24-23.4,40.93-59T1225,641Z"/><polygon class="cls-3" points="1730 1005.51 1812 1088 1894 1006.49 1811.02 924 1730 1005.51"/><polygon class="cls-3" points="2256 1012.99 2334.01 1091 2413 1012.99 2333.02 934 2256 1012.99"/><polygon class="cls-3" points="2070 1012.99 2148.01 1091 2227 1012.99 2147.02 934 2070 1012.99"/><polygon class="cls-3" points="2785 997.51 2867 1080 2949 998.49 2866.02 916 2785 997.51"/><path class="cls-3" d="M3186.78,549q-56.34-20-97.48-35.37t-72.24-27.08q-31.11-11.71-54.86-20.74t-45.31-17.07q-21.55-8.06-43.84-15.62t-49.71-16.34q-30.86-9.75-56.82-9.76A127.23,127.23,0,0,0,2744,409q-34.78,6.84-60.74,27.08a177.24,177.24,0,0,0-43.59,50,297.25,297.25,0,0,0-27.92,62.45l98.94,29.77q7.83-21,17.64-34.65t23-20q13.22-6.33,30.36-6.1t39.19,6.59l244.41,85.38q-23,13.18-51.92,26.59t-62,26.11q-33.06,12.69-68.81,23.9t-72.25,19.76q-36.49,8.55-73.23,13.42a538.37,538.37,0,0,1-71,4.88H2469.7q-3.43,0-10.77-.49a97.74,97.74,0,0,1-16.41-2.68,95.44,95.44,0,0,1-18.37-6.59,63.33,63.33,0,0,1-17.14-12,60.27,60.27,0,0,1-13-19q-5.15-11.46-5.15-28v-162H2282.11v165.4a89.21,89.21,0,0,1-2.94,22.2q-2.94,11.47-12.74,21t-29.14,15.86q-19.36,6.35-51.68,6.34H1991.16q-3.44,0-10.77-.49A97.74,97.74,0,0,1,1964,721a95.44,95.44,0,0,1-18.37-6.59,63.33,63.33,0,0,1-17.14-12,60.27,60.27,0,0,1-13-19q-5.15-11.46-5.15-28v-162H1803.57v165.4a89.21,89.21,0,0,1-2.94,22.2q-2.94,11.47-12.74,21t-29.14,15.86q-19.35,6.35-51.68,6.34h-82.28q-4.9,0-17.88-2.68a85.21,85.21,0,0,1-26.7-11q-13.71-8.29-24.24-23.42t-10.53-40V493.85H1438.17V798.3q0,51.24-11.27,87.09t-34.28,58.07q-23,22.18-58.53,32.44t-84.5,10.25H1182V1093h67.59q67.61,0,121-20t91.35-57.09q38-37.08,59.26-89.78t24.25-118.07q19.57,16.11,38.69,19.52a226.17,226.17,0,0,0,33.31,3.3V831h89.63q48,0,86-12.19t64.41-35.13q22,23.42,56.32,35.37t77.39,12h194.45q48,0,86-12.19t64.4-35.13q22,23.42,56.33,35.37t77.39,12h196.41a600.34,600.34,0,0,0,126.61-13.66,973.27,973.27,0,0,0,121.72-34.4,1127.1,1127.1,0,0,0,109.23-45.13q50.94-24.39,89.14-45.86T3174,655.59q23-14.88,26-16.83Z"/></g></svg>