<?xml version="1.0"?>
<svg version="1.1" id="Capa_1" xmlns="http://www.w3.org/2000/svg" xmlns:xlink="http://www.w3.org/1999/xlink" x="0px" y="0px"
	 viewBox="0 0 296 296" style="enable-background:new 0 0 296 296;" xml:space="preserve">
<g>
	<path style="fill:#FFFFFF;" d="M111,280h72v-47h-72V280z M137.736,249.014l6.19,5.043l14.219-15.467l11.043,10.152l-23.781,25.869
		l-17.145-13.969L137.736,249.014z"/>
	<path style="fill:#FFFFFF;" d="M183,108h-72v48h72V108z M145.407,149.611l-17.145-13.969l9.475-11.629l6.19,5.043l14.219-15.467
		l11.043,10.152L145.407,149.611z"/>
	<rect x="198" y="233" style="fill:#FFFFFF;" width="65" height="47"/>
	<path style="fill:#FFFFFF;" d="M111,218h72v-47h-72V218z M137.736,186.014l6.19,5.043l14.219-15.467l11.043,10.152l-23.781,25.869
		l-17.145-13.969L137.736,186.014z"/>
	<path style="fill:#FFFFFF;" d="M33,280h63v-47H33V280z M54.237,249.014l6.19,5.043l14.219-15.467l11.043,10.152l-23.781,25.869
		l-17.146-13.969L54.237,249.014z"/>
	<path style="fill:#FFFFFF;" d="M96,108H33v48h63V108z M61.908,149.611l-17.146-13.969l9.475-11.629l6.19,5.043l14.219-15.467
		l11.043,10.152L61.908,149.611z"/>
	<path style="fill:#FFFFFF;" d="M33,218h63v-47H33V218z M54.237,186.014l6.19,5.043l14.219-15.467l11.043,10.152l-23.781,25.869
		l-17.146-13.969L54.237,186.014z"/>
	<path style="fill:#FFFFFF;" d="M198,156h65v-48h-65V156z M219.736,124.014l6.19,5.043l14.219-15.467l11.043,10.152l-23.781,25.869
		l-17.146-13.969L219.736,124.014z"/>
	<path style="fill:#FFFFFF;" d="M263,171h-65v47h65V171z M227.407,211.611l-17.146-13.969l9.475-11.629l6.19,5.043l14.219-15.467
		l11.043,10.152L227.407,211.611z"/>
	<path style="fill:#FFFFFF;" d="M73,60c4.411,0,8-3.589,8-8V24c0-4.411-3.589-8-8-8s-8,3.589-8,8v28C65,56.411,68.589,60,73,60z"/>
	<path style="fill:#FFFFFF;" d="M148,60c4.411,0,8-3.589,8-8V24c0-4.411-3.589-8-8-8s-8,3.589-8,8v28C140,56.411,143.589,60,148,60z
		"/>
	<path style="fill:#FFFFFF;" d="M223,60c4.411,0,8-3.589,8-8V24c0-4.411-3.589-8-8-8c-4.411,0-8,3.589-8,8v28
		C215,56.411,218.589,60,223,60z"/>
	<path style="fill:#DE3100;" d="M263,50h-16v2c0,13.233-10.767,24-24,24s-24-10.767-24-24v-2h-27v2c0,13.233-10.767,24-24,24
		s-24-10.767-24-24v-2H97v2c0,13.233-10.767,24-24,24S49,65.233,49,52v-2H33v42h230V50z"/>
	<path d="M271.333,34H247V24c0-13.233-10.767-24-24-24s-24,10.767-24,24v10h-27V24c0-13.233-10.767-24-24-24s-24,10.767-24,24v10H97
		V24C97,10.767,86.233,0,73,0S49,10.767,49,24v10H25.333C20.915,34,17,37.582,17,42v58v188c0,4.418,3.915,8,8.333,8h246
		c4.418,0,7.667-3.582,7.667-8V100V42C279,37.582,275.751,34,271.333,34z M96,171v47H33v-47H96z M33,156v-48h63v48H33z M96,233v47
		H33v-47H96z M183,171v47h-72v-47H183z M111,156v-48h72v48H111z M183,233v47h-72v-47H183z M263,233v47h-65v-47H263z M198,218v-47h65
		v47H198z M263,156h-65v-48h65V156z M215,24c0-4.411,3.589-8,8-8c4.411,0,8,3.589,8,8v28c0,4.411-3.589,8-8,8c-4.411,0-8-3.589-8-8
		V24z M140,24c0-4.411,3.589-8,8-8s8,3.589,8,8v28c0,4.411-3.589,8-8,8s-8-3.589-8-8V24z M65,24c0-4.411,3.589-8,8-8s8,3.589,8,8v28
		c0,4.411-3.589,8-8,8s-8-3.589-8-8V24z M33,50h16v2c0,13.233,10.767,24,24,24s24-10.767,24-24v-2h27v2c0,13.233,10.767,24,24,24
		s24-10.767,24-24v-2h27v2c0,13.233,10.767,24,24,24s24-10.767,24-24v-2h16v42H33V50z"/>
	<polygon points="60.428,129.057 54.237,124.014 44.763,135.643 61.908,149.611 85.689,123.742 74.646,113.59 	"/>
	<polygon points="143.927,129.057 137.736,124.014 128.262,135.643 145.407,149.611 169.188,123.742 158.145,113.59 	"/>
	<polygon points="251.188,123.742 240.145,113.59 225.927,129.057 219.736,124.014 210.262,135.643 227.407,149.611 	"/>
	<polygon points="85.689,185.742 74.646,175.59 60.428,191.057 54.237,186.014 44.763,197.643 61.908,211.611 	"/>
	<polygon points="169.188,185.742 158.145,175.59 143.927,191.057 137.736,186.014 128.262,197.643 145.407,211.611 	"/>
	<polygon points="225.927,191.057 219.736,186.014 210.262,197.643 227.407,211.611 251.188,185.742 240.145,175.59 	"/>
	<polygon points="85.689,248.742 74.646,238.59 60.428,254.057 54.237,249.014 44.763,260.643 61.908,274.611 	"/>
	<polygon points="169.188,248.742 158.145,238.59 143.927,254.057 137.736,249.014 128.262,260.643 145.407,274.611 	"/>
</g>
</svg>
