<?xml version="1.0" encoding="utf-8"?>
<svg version="1.1" xmlns="http://www.w3.org/2000/svg" xmlns:xlink="http://www.w3.org/1999/xlink" x="0px" y="0px"
	 viewBox="0 0 512 512" style="enable-background:new 0 0 512 512;" xml:space="preserve">
<path style="fill:#6FB0B6;" d="M140.8,409.6c-70.579,0-128-57.421-128-128c0-67.311,52.224-122.65,118.281-127.633
	C142.925,94.652,194.782,51.2,256,51.2s113.075,43.452,124.919,102.767C446.976,158.95,499.2,214.289,499.2,281.6
	c0,70.579-57.421,128-128,128H140.8z"/>
<path style="fill:#FEDEA1;" d="M256,460.8c-21.171,0-38.4-17.229-38.4-38.4S234.829,384,256,384c21.171,0,38.4,17.229,38.4,38.4
	S277.171,460.8,256,460.8z"/>
	<path style="fill:#573A32;" d="M183.603,350.003l18.099,18.099c28.996-28.996,79.599-28.996,108.604,0l18.099-18.099
		C289.749,311.296,222.251,311.296,183.603,350.003z"/>
	<path style="fill:#573A32;" d="M147.396,313.796l18.099,18.099C189.679,307.729,221.824,294.4,256,294.4
		s66.321,13.329,90.496,37.504l18.099-18.099C335.599,284.774,297.028,268.8,256,268.8S176.401,284.774,147.396,313.796z"/>
	<path style="fill:#573A32;" d="M111.172,277.572l18.099,18.099c69.897-69.854,183.552-69.854,253.449,0l18.099-18.099
		C320.973,197.726,191.027,197.726,111.172,277.572z"/>
	<path style="fill:#573A32;" d="M391.305,142.234C374.98,81.749,320.162,38.4,256,38.4S137.028,81.749,120.695,142.234
		C52.54,152.013,0,210.782,0,281.6c0,77.636,63.164,140.8,140.8,140.8h64c0,28.228,22.972,51.2,51.2,51.2s51.2-22.972,51.2-51.2h64
		c77.636,0,140.8-63.164,140.8-140.8C512,210.782,459.46,152.013,391.305,142.234z M256,448c-14.123,0-25.6-11.477-25.6-25.6
		s11.477-25.6,25.6-25.6c14.123,0,25.6,11.477,25.6,25.6S270.123,448,256,448z M371.2,396.8c-19.268,0-44.16,0-70.929,0
		c-8.875-15.275-25.37-25.6-44.271-25.6s-35.396,10.325-44.271,25.6c-26.769,0-51.661,0-70.929,0
		c-63.625,0-115.2-51.575-115.2-115.2s51.575-115.2,115.2-115.2c0.435,0,0.845,0.119,1.28,0.128C148.463,108.945,196.719,64,256,64
		s107.537,44.945,113.92,102.528c0.435-0.009,0.845-0.128,1.28-0.128c63.625,0,115.2,51.575,115.2,115.2S434.825,396.8,371.2,396.8z
		"/>
</svg>
