<?xml version="1.0" encoding="utf-8"?>
<svg version="1.1" xmlns="http://www.w3.org/2000/svg" xmlns:xlink="http://www.w3.org/1999/xlink" x="0px" y="0px"
	 viewBox="0 0 495 495" style="enable-background:new 0 0 495 495;" xml:space="preserve">
	<path style="fill:#CD2A00;" d="M360.57,226.14c2.819,0,5.616,0.098,8.393,0.27c2.839-12.999,4.277-26.302,4.277-39.789
		c0-102.9-83.72-186.62-186.62-186.62v104.4c44.11,0,80,35.88,80,80c0,44.11-35.89,80-80,80v221.9l53.14-66.813
		c-8.717-17.802-13.62-37.797-13.62-58.918C226.141,286.445,286.445,226.14,360.57,226.14z"/>
	<path style="fill:#D8D7DA;" d="M266.62,184.401c0-44.12-35.89-80-80-80v160C230.73,264.401,266.62,228.511,266.62,184.401z"/>
	<path style="fill:#FF3501;" d="M106.62,184.401c0-44.12,35.89-80,80-80V0.001C83.72,0.001,0,83.721,0,186.621
		c0,42.37,13.9,82.33,40.23,115.62l146.39,184.06v-221.9C142.51,264.401,106.62,228.511,106.62,184.401z"/>
	<path style="fill:#FFFFFF;" d="M106.62,184.401c0,44.11,35.89,80,80,80v-160C142.51,104.401,106.62,140.281,106.62,184.401z"/>
	<path style="fill:#FFDA44;" d="M317.505,417.128l4.998-46.906l-31.614-35.01l46.155-9.741l23.526-40.885V226.14
		c-74.125,0-134.43,60.305-134.43,134.429c0,21.121,4.902,41.117,13.62,58.918c21.875,44.673,67.806,75.511,120.81,75.511v-97.12
		L317.505,417.128z"/>
	<path style="fill:#FFCD00;" d="M368.963,226.41c-2.777-0.172-5.573-0.27-8.393-0.27v58.446l23.526,40.885l46.155,9.741
		l-31.614,35.01l4.998,46.906l-43.065-19.249v97.12c74.125,0,134.43-60.305,134.43-134.429
		C495,289.264,439.193,230.758,368.963,226.41z"/>
	<polygon style="fill:#2488FF;" points="290.889,335.212 322.503,370.222 317.505,417.128 360.57,397.879 403.636,417.128
		398.638,370.222 430.252,335.212 384.097,325.471 360.57,284.586 337.044,325.471 	"/>
</svg>
