<svg xmlns="http://www.w3.org/2000/svg" viewBox="0 0 3000 2800"><defs><style>.cls-1{fill:#c80a5a;}.cls-2{fill:#fff;}.cls-3{fill:#231f20;}</style></defs><title>Jibres-Logo-en-vertical-pad</title><g id="Jibres-icon"><circle id="Circle" class="cls-1" cx="1500" cy="850" r="750"/><path id="Shape" class="cls-2" d="M1909.78,588.89v400h-800v-400h-100v400a100,100,0,0,0,100,100h800a100,100,0,0,0,100-100v-400Z"/></g><g id="Jibres-wordmark"><path class="cls-3" d="M100,2618.79l64.55-79c32.82,35.6,73.3,57.85,111.59,57.85,77.67,0,105-51.18,105-126.83V1909H484v560.71C484,2605.44,422.74,2700,277.23,2700,209.4,2700,143.76,2666.62,100,2618.79Z"/><path class="cls-3" d="M638,1953.91c0-38.29,29.53-68.91,70-68.91s70,30.62,70,68.91c0,40.47-29.53,71.09-70,71.09S638,1994.38,638,1953.91Z"/><rect class="cls-3" x="658" y="2133" width="100" height="557"/><path class="cls-3" d="M1488,2412.7c0,160.41-103.93,286.29-256,286.29-81,0-145.5-40.1-188.16-99.14v91.34H941V1800h102.84v424.43c42.66-57.93,107.21-98,188.16-98C1384.07,2126.4,1488,2252.28,1488,2412.7Zm-106.12,0c0-102.49-68.92-184.93-167.38-184.93s-169.57,86.89-169.57,184.93,71.11,183.8,169.57,183.8S1381.88,2514.07,1381.88,2412.7Z"/><path class="cls-3" d="M1877,2121v123.41c-77.54-13.35-157.26,28.9-157.26,149l-1.09-4.44V2688H1616V2132.12h102.65v95.61C1748.14,2171,1803.83,2121,1877,2121Z"/><path class="cls-3" d="M2443,2452.22H2025.11c16.41,87.9,84.24,143.53,178.32,143.53,72.2,0,128-23.36,180.5-60.08v105.7C2338,2675.86,2272.35,2697,2198,2697c-173.94,0-279-131.29-279-287.06,0-154.65,107.21-285.94,268-285.94C2357.67,2124,2455,2276.43,2443,2452.22Zm-416.79-86.78H2334.7c-15.31-81.22-71.11-136.85-149.87-136.85C2101.69,2228.59,2042.62,2285.33,2026.21,2365.44Z"/><path class="cls-3" d="M2516,2610.12l64.55-77.86c33.91,33.37,80.95,64.52,132.37,64.52,45.95,0,79.87-24.48,79.87-61.18,0-107.9-261.47-67.86-260.38-257,0-84.54,68.92-154.62,176.14-154.62,76.58-1.11,141.13,40.05,175,79l-60.17,76.75c-24.07-22.24-67.83-54.5-113.78-54.5-41.57,0-71.11,22.24-71.11,55.61-1.09,100.12,261.47,63.41,261.47,257C2898.91,2629,2823.42,2698,2709.64,2698,2640.72,2698,2560.86,2661.29,2516,2610.12Z"/></g></svg>