<svg xmlns="http://www.w3.org/2000/svg" viewBox="0 0 5000 1700"><defs><style>.cls-1{fill:#fff;}</style></defs><title>Jibres-Logo-en-white</title><g id="Jibres-icon"><path class="cls-1" d="M850,100c-414.21,0-750,335.79-750,750s335.79,750,750,750,750-335.79,750-750S1264.21,100,850,100Zm509.78,888.89a100,100,0,0,1-100,100h-800a100,100,0,0,1-100-100v-400h100v400h800v-400h100Z"/></g><g id="Jibres-wordmark"><path class="cls-1" d="M2100,1218.79l64.55-79c32.82,35.6,73.3,57.85,111.59,57.85,77.67,0,105-51.18,105-126.83V509H2484v560.71c0,135.73-61.26,230.29-206.77,230.29C2209.4,1300,2143.76,1266.62,2100,1218.79Z"/><path class="cls-1" d="M2638,553.91c0-38.29,29.53-68.91,70-68.91s70,30.62,70,68.91c0,40.47-29.53,71.09-70,71.09S2638,594.38,2638,553.91Z"/><rect class="cls-1" x="2658" y="733" width="100" height="557"/><path class="cls-1" d="M3488,1012.7c0,160.41-103.93,286.29-256,286.29-80.95,0-145.5-40.1-188.16-99.14v91.34H2941V400h102.84V824.43c42.66-57.93,107.21-98,188.16-98C3384.07,726.4,3488,852.28,3488,1012.7Zm-106.12,0c0-102.49-68.92-184.93-167.38-184.93s-169.57,86.89-169.57,184.93,71.11,183.8,169.57,183.8S3381.88,1114.07,3381.88,1012.7Z"/><path class="cls-1" d="M3877,721V844.41c-77.54-13.35-157.26,28.9-157.26,149l-1.09-4.44V1288H3616V732.12h102.65v95.61C3748.14,771,3803.83,721,3877,721Z"/><path class="cls-1" d="M4443,1052.22H4025.11c16.41,87.9,84.24,143.53,178.32,143.53,72.2,0,128-23.36,180.5-60.08v105.7c-46,34.49-111.58,55.63-186,55.63-173.94,0-279-131.29-279-287.06C3919,855.29,4026.21,724,4187,724,4357.67,724,4455,876.43,4443,1052.22Zm-416.79-86.78H4334.7c-15.31-81.22-71.11-136.85-149.87-136.85C4101.69,828.59,4042.62,885.33,4026.21,965.44Z"/><path class="cls-1" d="M4516,1210.12l64.55-77.86c33.91,33.37,80.95,64.52,132.37,64.52,45.95,0,79.87-24.48,79.87-61.18,0-107.9-261.47-67.86-260.38-257,0-84.54,68.92-154.62,176.14-154.62,76.58-1.11,141.13,40.05,175,79l-60.17,76.75c-24.07-22.24-67.83-54.5-113.78-54.5-41.57,0-71.11,22.24-71.11,55.61C4637.44,981,4900,944.27,4900,1137.82,4898.91,1229,4823.42,1298,4709.64,1298,4640.72,1298,4560.86,1261.29,4516,1210.12Z"/></g></svg>