<svg xmlns="http://www.w3.org/2000/svg" viewBox="0 0 6200 2500"><defs><style>.cls-1{fill:#c80a5a;}.cls-2{fill:#fff;}</style></defs><title>Jibres-Logo-fa-safe</title><g id="Jibres-icon"><circle id="Circle" class="cls-1" cx="4950" cy="1250" r="750"/><path id="Shape" class="cls-2" d="M5359.78,988.89v400h-800v-400h-100v400a100,100,0,0,0,100,100h800a100,100,0,0,0,100-100v-400Z"/></g><g id="Jibres-wordmark"><path class="cls-1" d="M1725,1145.54a351.33,351.33,0,0,0-2.45-38.34q-2.46-21.89-6.13-45.29t-8.09-46.3q-4.41-22.89-8.33-41.57t-7.11-31.36q-3.2-12.69-4.17-15.68l-102,31.36q2,7.47,5.4,21.16t7.11,30.86q3.68,17.18,7.35,36.34t6.61,37.59q3,18.42,4.91,34.34a227.91,227.91,0,0,1,2,26.89q0,27.89-8.58,44.55t-20.59,25.64a67.15,67.15,0,0,1-24.51,11.94,126.2,126.2,0,0,1-20.34,3.49q-45.58,0-66.67-19.42t-22.06-61.23V995.7H1350.49v149.84q0,24.89-8.58,41.31t-21.32,26.39a77.24,77.24,0,0,1-27.21,13.93,97.67,97.67,0,0,1-25.73,4,139.22,139.22,0,0,1-36.28-4.73q-17.64-4.73-31.62-19.42t-22.3-41.81q-8.34-27.12-8.33-72.43V995.7H1061.77v350.45q0,35.83-6.87,64.22t-25.73,47.79q-18.88,19.41-52.94,29.62T887.75,1498h-98q-41.19,0-75-14.93a185.07,185.07,0,0,1-100.25-104.54q-14-35.85-14-77.16,0-52.75,19.61-110.51t53.43-127.94L577,1015.11q-38.24,81.64-57.6,152.08T500,1302.84q0,70.2,21.57,126.2t60.54,95.57q39,39.59,92.4,61T792.16,1607h95.59q139.69,0,210.53-63.72t70.84-197.13v-36.34a105.09,105.09,0,0,0,22.06,15.93,101.11,101.11,0,0,0,23.53,9,157.86,157.86,0,0,0,25.49,4q13.23,1,27.45,1a245.56,245.56,0,0,0,34.31-2.49,178.07,178.07,0,0,0,35-8.71,170.19,170.19,0,0,0,33.58-16.43,159.44,159.44,0,0,0,30.39-25.14q25.49,25.39,62.26,39.08t83.82,13.69a187.05,187.05,0,0,0,64.22-12.69,171.75,171.75,0,0,0,57.1-36.1q25.24-23.9,40.93-60.23T1725,1145.54Z"/><polygon class="cls-1" points="2230 1517.01 2312 1601 2394 1517.99 2311.02 1434 2230 1517.01"/><polygon class="cls-1" points="2756 1525.5 2834.01 1605 2913 1525.5 2833.02 1445 2756 1525.5"/><polygon class="cls-1" points="2570 1525.5 2648.01 1605 2727 1525.5 2647.02 1445 2570 1525.5"/><polygon class="cls-1" points="3285 1509.01 3367 1593 3449 1509.99 3366.02 1426 3285 1509.01"/><path class="cls-1" d="M3686.78,1051.88q-56.34-20.42-97.48-36.1t-72.24-27.63Q3486,976.21,3462.2,967t-45.31-17.42q-21.55-8.22-43.84-15.93T3323.34,917q-30.86-10-56.82-10a124.42,124.42,0,0,0-22.53,2q-34.78,7-60.74,27.63a179.94,179.94,0,0,0-43.59,51,306.45,306.45,0,0,0-27.92,63.73l98.94,30.37q7.83-21.4,17.64-35.35t23-20.41q13.22-6.47,30.36-6.22t39.19,6.72l244.41,87.12q-23,13.46-51.92,27.14t-62,26.63q-33.06,13-68.81,24.4t-72.25,20.16a744.39,744.39,0,0,1-73.23,13.69,527.21,527.21,0,0,1-71,5H2969.7c-2.29,0-5.88-.16-10.77-.5a97.53,97.53,0,0,1-34.78-9.45,63.64,63.64,0,0,1-17.14-12.2,61.61,61.61,0,0,1-13-19.42q-5.15-11.68-5.15-28.63V995.12H2782.11V1163.9a92.76,92.76,0,0,1-2.94,22.65q-2.94,11.7-12.74,21.41t-29.14,16.18q-19.36,6.48-51.68,6.47H2491.16c-2.29,0-5.88-.16-10.77-.5a97.53,97.53,0,0,1-34.78-9.45,63.64,63.64,0,0,1-17.14-12.2,61.61,61.61,0,0,1-13-19.42q-5.14-11.68-5.15-28.63V995.12H2303.57V1163.9a92.76,92.76,0,0,1-2.94,22.65q-2.94,11.7-12.74,21.41t-29.14,16.18q-19.35,6.48-51.68,6.47h-82.28q-4.9,0-17.88-2.74t-26.7-11.2q-13.71-8.46-24.24-23.89T2045.44,1152V995.62H1938.17v310.67q0,52.28-11.27,88.87t-34.28,59.24q-23,22.65-58.53,33.11t-84.5,10.46H1682v109h67.59q67.61,0,121-20.41t91.35-58.25q38-37.85,59.26-91.61t24.25-120.48q19.57,16.43,38.69,19.91a220.7,220.7,0,0,0,33.31,3.37v.12h89.63q48,0,86-12.45t64.41-35.85q22,23.89,56.32,36.1t77.39,12.2h194.45q48,0,86-12.45t64.4-35.85q22,23.89,56.33,36.1t77.39,12.2h196.41a588.56,588.56,0,0,0,126.61-14,957.62,957.62,0,0,0,121.72-35.09,1117,1117,0,0,0,109.23-46.06q50.94-24.88,89.14-46.8t61.23-37.09q23-15.18,26-17.17Z"/></g></svg>