<svg xmlns="http://www.w3.org/2000/svg" viewBox="0 0 5400 1700"><defs><style>.cls-1{fill:#c80a5a;}.cls-2{fill:#fff;}</style></defs><title>Jibres-Logo-fa</title><g id="Jibres-icon"><circle id="Circle" class="cls-1" cx="4550" cy="850" r="750"/><path id="Shape" class="cls-2" d="M4959.78,588.89v400h-800v-400h-100v400a100,100,0,0,0,100,100h800a100,100,0,0,0,100-100v-400Z"/></g><g id="Jibres-wordmark"><path class="cls-1" d="M1325,745.54a351.33,351.33,0,0,0-2.45-38.34q-2.46-21.88-6.13-45.29t-8.09-46.3q-4.41-22.89-8.33-41.57t-7.11-31.36q-3.2-12.69-4.17-15.68l-102,31.36q2,7.47,5.4,21.16t7.11,30.86q3.68,17.18,7.35,36.34t6.61,37.59q3,18.42,4.91,34.34a227.91,227.91,0,0,1,2,26.89q0,27.88-8.58,44.55t-20.59,25.64a67.15,67.15,0,0,1-24.51,11.94,126.2,126.2,0,0,1-20.34,3.49q-45.58,0-66.67-19.42t-22.06-61.23V595.7H950.49V745.54q0,24.88-8.58,41.31t-21.32,26.39a77.24,77.24,0,0,1-27.21,13.93,97.67,97.67,0,0,1-25.73,4,139.22,139.22,0,0,1-36.28-4.73q-17.64-4.73-31.62-19.42t-22.3-41.81q-8.34-27.12-8.33-72.43V595.7H661.77V946.15q0,35.83-6.87,64.22t-25.73,47.79q-18.88,19.41-52.94,29.62T487.75,1098h-98q-41.19,0-75-14.93A185.07,185.07,0,0,1,214.46,978.51q-14-35.85-14-77.16,0-52.76,19.61-110.51T273.53,662.9L177,615.11q-38.24,81.64-57.6,152.08T100,902.84q0,70.2,21.57,126.2t60.54,95.57q39,39.59,92.4,61T392.16,1207h95.59q139.69,0,210.53-63.72t70.84-197.13V909.81a105.09,105.09,0,0,0,22.06,15.93,101.11,101.11,0,0,0,23.53,9,157.86,157.86,0,0,0,25.49,4q13.23,1,27.45,1A245.56,245.56,0,0,0,902,937.19a178.07,178.07,0,0,0,35-8.71,170.19,170.19,0,0,0,33.58-16.43A159.44,159.44,0,0,0,1001,886.91q25.49,25.4,62.26,39.08t83.82,13.69A187.05,187.05,0,0,0,1211.28,927a171.75,171.75,0,0,0,57.1-36.1q25.24-23.89,40.93-60.23T1325,745.54Z"/><polygon class="cls-1" points="1830 1117.01 1912 1201 1994 1117.99 1911.02 1034 1830 1117.01"/><polygon class="cls-1" points="2356 1125.5 2434.01 1205 2513 1125.5 2433.02 1045 2356 1125.5"/><polygon class="cls-1" points="2170 1125.5 2248.01 1205 2327 1125.5 2247.02 1045 2170 1125.5"/><polygon class="cls-1" points="2885 1109.01 2967 1193 3049 1109.99 2966.02 1026 2885 1109.01"/><path class="cls-1" d="M3286.78,651.88q-56.34-20.42-97.48-36.1t-72.24-27.63Q3086,576.21,3062.2,567t-45.31-17.42q-21.55-8.22-43.84-15.93T2923.34,517q-30.86-10-56.82-10a124.42,124.42,0,0,0-22.53,2q-34.78,7-60.74,27.63a179.94,179.94,0,0,0-43.59,51,306.45,306.45,0,0,0-27.92,63.73l98.94,30.37q7.83-21.4,17.64-35.35t23-20.41q13.22-6.47,30.36-6.22t39.19,6.72l244.41,87.12q-23,13.46-51.92,27.14t-62,26.63q-33.06,13-68.81,24.4t-72.25,20.16a744.39,744.39,0,0,1-73.23,13.69,527.21,527.21,0,0,1-71,5H2569.7c-2.29,0-5.88-.16-10.77-.5a97.53,97.53,0,0,1-34.78-9.45,63.64,63.64,0,0,1-17.14-12.2A61.61,61.61,0,0,1,2494,789q-5.15-11.68-5.15-28.63V595.12H2382.11V763.9a92.76,92.76,0,0,1-2.94,22.65q-2.94,11.7-12.74,21.41t-29.14,16.18q-19.36,6.48-51.68,6.47H2091.16c-2.29,0-5.88-.16-10.77-.5a97.53,97.53,0,0,1-34.78-9.45,63.64,63.64,0,0,1-17.14-12.2,61.61,61.61,0,0,1-13-19.42q-5.15-11.68-5.15-28.63V595.12H1903.57V763.9a92.76,92.76,0,0,1-2.94,22.65q-2.94,11.7-12.74,21.41t-29.14,16.18q-19.35,6.48-51.68,6.47h-82.28q-4.9,0-17.88-2.74t-26.7-11.2q-13.71-8.46-24.24-23.89T1645.44,752V595.62H1538.17V906.29q0,52.28-11.27,88.87t-34.28,59.24q-23,22.65-58.53,33.11t-84.5,10.46H1282v109h67.59q67.61,0,121-20.41t91.35-58.25q38-37.85,59.26-91.61t24.25-120.48q19.57,16.43,38.69,19.91a220.7,220.7,0,0,0,33.31,3.37v.12h89.63q48,0,86-12.45t64.41-35.85q22,23.89,56.32,36.1t77.39,12.2h194.45q48,0,86-12.45t64.4-35.85q22,23.89,56.33,36.1t77.39,12.2h196.41a588.56,588.56,0,0,0,126.61-13.95,957.62,957.62,0,0,0,121.72-35.09,1117,1117,0,0,0,109.23-46.06q50.94-24.88,89.14-46.8T3274,760.66q23-15.18,26-17.17Z"/></g></svg>