<svg xmlns="http://www.w3.org/2000/svg" viewBox="0 0 6200 2500"><defs><style>.cls-1{fill:#c80a5a;}.cls-2{fill:#fff;}.cls-3{fill:#231f20;}</style></defs><title>Jibres-Logo-fa-safe</title><g id="Jibres-icon"><circle id="Circle" class="cls-1" cx="4950" cy="1250" r="750"/><path id="Shape" class="cls-2" d="M5359.78,988.89v400h-800v-400h-100v400a100,100,0,0,0,100,100h800a100,100,0,0,0,100-100v-400Z"/></g><g id="Jibres-wordmark"><path class="cls-3" d="M1725,1141a337.17,337.17,0,0,0-2.45-37.55q-2.46-21.43-6.13-44.36t-8.09-45.34q-4.41-22.42-8.33-40.72t-7.11-30.71q-3.2-12.43-4.17-15.36l-102,30.72q2,7.31,5.4,20.72t7.11,30.23q3.68,16.82,7.35,35.59t6.61,36.81q3,18,4.91,33.64a218.45,218.45,0,0,1,2,26.33q0,27.3-8.58,43.63t-20.59,25.11a67.74,67.74,0,0,1-24.51,11.7,128.18,128.18,0,0,1-20.34,3.42q-45.58,0-66.67-19t-22.06-60V994.28H1350.49V1141q0,24.38-8.58,40.46t-21.32,25.84a77.66,77.66,0,0,1-27.21,13.65,99.79,99.79,0,0,1-25.73,3.91,141.76,141.76,0,0,1-36.28-4.64q-17.64-4.62-31.62-19t-22.3-41q-8.34-26.58-8.33-71V994.28H1061.77v343.24q0,35.1-6.87,62.89t-25.73,46.81q-18.88,19-52.94,29t-88.48,10h-98q-41.19,0-75-14.62a186.77,186.77,0,0,1-60.79-41.2,183.77,183.77,0,0,1-39.46-61.19q-14-35.1-14-75.57,0-51.67,19.61-108.24t53.43-125.3L577,1013.3q-38.24,80-57.6,148.94T500,1295.1q0,68.75,21.57,123.6t60.54,93.61q39,38.76,92.4,59.72t117.65,21h95.59q139.69,0,210.53-62.41t70.84-193.07v-35.59a104.87,104.87,0,0,0,22.06,15.6,102.39,102.39,0,0,0,23.53,8.78,161.25,161.25,0,0,0,25.49,3.9q13.23,1,27.45,1a250,250,0,0,0,34.31-2.44,180.35,180.35,0,0,0,35-8.53,171.43,171.43,0,0,0,33.58-16.09A158.56,158.56,0,0,0,1401,1279.5q25.49,24.87,62.26,38.27t83.82,13.41a190.25,190.25,0,0,0,64.22-12.43,172.25,172.25,0,0,0,57.1-35.35q25.24-23.4,40.93-59T1725,1141Z"/><polygon class="cls-3" points="2230 1505.51 2312 1588 2394 1506.49 2311.02 1424 2230 1505.51"/><polygon class="cls-3" points="2756 1512.99 2834.01 1591 2913 1512.99 2833.02 1434 2756 1512.99"/><polygon class="cls-3" points="2570 1512.99 2648.01 1591 2727 1512.99 2647.02 1434 2570 1512.99"/><polygon class="cls-3" points="3285 1497.52 3367 1580 3449 1498.49 3366.02 1416 3285 1497.52"/><path class="cls-3" d="M3686.78,1049q-56.34-20-97.48-35.37t-72.24-27.08q-31.11-11.71-54.86-20.74t-45.31-17.07q-21.55-8.06-43.84-15.62t-49.71-16.34q-30.86-9.75-56.82-9.76a127.23,127.23,0,0,0-22.53,2q-34.78,6.84-60.74,27.08a177.24,177.24,0,0,0-43.59,50,297.25,297.25,0,0,0-27.92,62.45l98.94,29.77q7.83-21,17.64-34.65t23-20q13.22-6.33,30.36-6.1t39.19,6.59l244.41,85.38q-23,13.18-51.92,26.59t-62,26.11q-33.06,12.69-68.81,23.9t-72.25,19.76q-36.49,8.55-73.23,13.42a538.37,538.37,0,0,1-71,4.88H2969.7q-3.43,0-10.77-.49a97.74,97.74,0,0,1-16.41-2.68,95.44,95.44,0,0,1-18.37-6.59,63.33,63.33,0,0,1-17.14-12,60.27,60.27,0,0,1-13-19q-5.15-11.46-5.15-28.05v-162H2782.11v165.4a89.21,89.21,0,0,1-2.94,22.2q-2.94,11.47-12.74,21t-29.14,15.86q-19.36,6.35-51.68,6.34H2491.16q-3.43,0-10.77-.49A97.74,97.74,0,0,1,2464,1221a95.44,95.44,0,0,1-18.37-6.59,63.33,63.33,0,0,1-17.14-12,60.27,60.27,0,0,1-13-19q-5.14-11.46-5.15-28.05v-162H2303.57v165.4a89.21,89.21,0,0,1-2.94,22.2q-2.94,11.47-12.74,21t-29.14,15.86q-19.35,6.35-51.68,6.34h-82.28q-4.9,0-17.88-2.68a85.21,85.21,0,0,1-26.7-11q-13.71-8.3-24.24-23.42t-10.53-40V993.85H1938.17V1298.3q0,51.24-11.27,87.09t-34.28,58.07q-23,22.18-58.53,32.44t-84.5,10.25H1682V1593h67.59q67.61,0,121-20t91.35-57.09q38-37.08,59.26-89.78t24.25-118.07q19.57,16.11,38.69,19.52a226.17,226.17,0,0,0,33.31,3.3v.11h89.63q48,0,86-12.19t64.41-35.13q22,23.41,56.32,35.37t77.39,12h194.45q48,0,86-12.19t64.4-35.13q22,23.41,56.33,35.37t77.39,12h196.41a600.34,600.34,0,0,0,126.61-13.66,973.27,973.27,0,0,0,121.72-34.4,1127.1,1127.1,0,0,0,109.23-45.13q50.94-24.39,89.14-45.86t61.23-36.35q23-14.88,26-16.83Z"/></g></svg>