<svg xmlns="http://www.w3.org/2000/svg" viewBox="0 0 5000 1700"><defs><style>.cls-1{fill:#c80a5a;}.cls-2{fill:#fff;}</style></defs><circle class="cls-1" cx="850" cy="850" r="750"/><path class="cls-2" d="M1259.8 588.9v400h-800v-400h-100v400a100 100 0 0 0 100 100h800a100 100 0 0 0 100-100v-400Z"/><path class="cls-1" d="M2100 1218.8l64.6-79c32.8 35.6 73.3 57.9 111.6 57.9 77.7 0 105-51.2 105-126.8V509H2484v560.7c0 135.7-61.3 230.3-206.8 230.3C2209.4 1300 2143.8 1266.6 2100 1218.8Z"/><path class="cls-1" d="M2638 553.9c0-38.3 29.5-68.9 70-68.9s70 30.6 70 68.9c0 40.5-29.5 71.1-70 71.1S2638 594.4 2638 553.9Z"/><rect class="cls-1" x="2658" y="733" width="100" height="557"/><path class="cls-1" d="M3488 1012.7c0 160.4-103.9 286.3-256 286.3-80.9 0-145.5-40.1-188.2-99.1v91.3H2941V400h102.8V824.4c42.7-57.9 107.2-98 188.2-98C3384.1 726.4 3488 852.3 3488 1012.7Zm-106.1 0c0-102.5-68.9-184.9-167.4-184.9s-169.6 86.9-169.6 184.9 71.1 183.8 169.6 183.8S3381.9 1114.1 3381.9 1012.7Z"/><path class="cls-1" d="M3877 721V844.4c-77.5-13.3-157.3 28.9-157.3 149l-1.1-4.4V1288H3616V732.1h102.7v95.6C3748.1 771 3803.8 721 3877 721Z"/><path class="cls-1" d="M4443 1052.2H4025.1c16.4 87.9 84.2 143.5 178.3 143.5 72.2 0 128-23.4 180.5-60.1v105.7c-46 34.5-111.6 55.6-186 55.6-173.9 0-279-131.3-279-287.1C3919 855.3 4026.2 724 4187 724 4357.7 724 4455 876.4 4443 1052.2Zm-416.8-86.8H4334.7c-15.3-81.2-71.1-136.8-149.9-136.8C4101.7 828.6 4042.6 885.3 4026.2 965.4Z"/><path class="cls-1" d="M4516 1210.1l64.6-77.9c33.9 33.4 81 64.5 132.4 64.5 46 0 79.9-24.5 79.9-61.2 0-107.9-261.5-67.9-260.4-257 0-84.5 68.9-154.6 176.1-154.6 76.6-1.1 141.1 40.1 175 79l-60.2 76.8c-24.1-22.2-67.8-54.5-113.8-54.5-41.6 0-71.1 22.2-71.1 55.6C4637.4 981 4900 944.3 4900 1137.8 4898.9 1229 4823.4 1298 4709.6 1298 4640.7 1298 4560.9 1261.3 4516 1210.1Z"/></svg>
