<svg xmlns="http://www.w3.org/2000/svg" viewBox="0 0 2700 2700"><defs><style>.cls-1{fill:#c80a5a;}.cls-2{fill:#fff;}</style></defs><circle class="cls-1" cx="1350" cy="850" r="750"/><path class="cls-2" d="M1759.8 588.9v400h-800v-400h-100v400a100 100 0 0 0 100 100h800a100 100 0 0 0 100-100v-400Z"/><path class="cls-1" d="M100 2527.8l57.6-70.2c29.3 31.6 65.5 51.4 99.6 51.4 69.4 0 93.8-45.5 93.8-112.7v-499.4h91.8V2395.3c0 120.6-54.7 204.7-184.6 204.7C197.7 2600 139.1 2570.3 100 2527.8Z"/><path class="cls-1" d="M580.4 1936.8c0-34 26.4-61.2 62.5-61.2s62.5 27.2 62.5 61.3c0 36-26.4 63.2-62.5 63.2S580.4 1972.8 580.4 1936.8Z"/><rect class="cls-1" x="598.2" y="2096" width="89.3" height="495.1"/><path class="cls-1" d="M1339.3 2344.6c0 142.6-92.8 254.5-228.6 254.5-72.3 0-129.9-35.6-168-88.1v81.2H850.9V1800h91.8v377.3c38.1-51.5 95.7-87.1 168-87.1C1246.5 2090.1 1339.3 2202 1339.3 2344.6Zm-94.7 0c0-91.1-61.5-164.4-149.4-164.4s-151.4 77.2-151.4 164.4S1007.2 2508 1095.1 2508 1244.5 2434.7 1244.5 2344.6Z"/><path class="cls-1" d="M1686.6 2085.3V2195c-69.2-11.9-140.4 25.7-140.4 132.4l-1-3.9v265.8h-91.7V2095.2h91.7v85C1571.6 2129.8 1621.3 2085.3 1686.6 2085.3Z"/><path class="cls-1" d="M2192 2379.8H1818.9c14.7 78.1 75.2 127.6 159.2 127.6 64.5 0 114.3-20.8 161.2-53.4v94c-41 30.7-99.6 49.5-166 49.5-155.3 0-249.1-116.7-249.1-255.2 0-137.5 95.7-254.2 239.3-254.2C2115.8 2088 2202.7 2223.5 2192 2379.8Zm-372.1-77.1h275.4c-13.7-72.2-63.5-121.6-133.8-121.6C1887.2 2181 1834.5 2231.4 1819.8 2302.6Z"/><path class="cls-1" d="M2257.1 2520.1l57.6-69.2c30.3 29.7 72.3 57.3 118.2 57.3 41 0 71.3-21.7 71.3-54.4 0-95.9-233.4-60.3-232.5-228.4 0-75.1 61.5-137.4 157.3-137.4 68.4-1 126 35.6 156.3 70.2l-53.7 68.2c-21.5-19.8-60.6-48.4-101.6-48.4-37.1 0-63.5 19.8-63.5 49.4-1 89 233.5 56.4 233.5 228.4-1 81.1-68.4 142.4-170 142.4C2368.5 2598.2 2297.2 2565.6 2257.1 2520.1Z"/></svg>