<svg xmlns="http://www.w3.org/2000/svg" viewBox="0 0 5400 1700"><defs><style>.cls-1{fill:#c80a5a;}.cls-2{fill:#fff;}</style></defs><circle class="cls-1" cx="4550" cy="850" r="750"/><path class="cls-2" d="M4959.8 588.9v400h-800v-400h-100v400a100 100 0 0 0 100 100h800a100 100 0 0 0 100-100v-400Z"/><path class="cls-1" d="M1325 745.5a351.3 351.3 0 0 0-2.4-38.3q-2.5-21.9-6.1-45.3t-8.1-46.3q-4.4-22.9-8.3-41.6t-7.1-31.4q-3.2-12.7-4.2-15.7l-102 31.4q2 7.5 5.4 21.2t7.1 30.9q3.7 17.2 7.4 36.3t6.6 37.6q3 18.4 4.9 34.3a227.9 227.9 0 0 1 2 26.9q0 27.9-8.6 44.6t-20.6 25.6a67.2 67.2 0 0 1-24.5 11.9 126.2 126.2 0 0 1-20.3 3.5q-45.6 0-66.7-19.4t-22.1-61.2V595.7H950.5V745.5q0 24.9-8.6 41.3t-21.3 26.4a77.2 77.2 0 0 1-27.2 13.9 97.7 97.7 0 0 1-25.7 4 139.2 139.2 0 0 1-36.3-4.7q-17.6-4.7-31.6-19.4t-22.3-41.8q-8.3-27.1-8.3-72.4V595.7H661.8V946.2q0 35.8-6.9 64.2t-25.7 47.8q-18.9 19.4-52.9 29.6T487.8 1098h-98q-41.2 0-75-14.9A185.1 185.1 0 0 1 214.5 978.5q-14-35.8-14-77.2 0-52.8 19.6-110.5T273.5 662.9L177 615.1q-38.2 81.6-57.6 152.1T100 902.8q0 70.2 21.6 126.2t60.5 95.6q39 39.6 92.4 61T392.2 1207h95.6q139.7 0 210.5-63.7t70.8-197.1V909.8a105.1 105.1 0 0 0 22.1 15.9 101.1 101.1 0 0 0 23.5 9 157.9 157.9 0 0 0 25.5 4q13.2 1 27.5 1A245.6 245.6 0 0 0 902 937.2a178.1 178.1 0 0 0 35-8.7 170.2 170.2 0 0 0 33.6-16.4A159.4 159.4 0 0 0 1001 886.9q25.5 25.4 62.3 39.1t83.8 13.7A187.1 187.1 0 0 0 1211.3 927a171.8 171.8 0 0 0 57.1-36.1q25.2-23.9 40.9-60.2T1325 745.5Z"/><polygon class="cls-1" points="1830 1117 1912 1201 1994 1118 1911 1034 1830 1117"/><polygon class="cls-1" points="2356 1125.5 2434 1205 2513 1125.5 2433 1045 2356 1125.5"/><polygon class="cls-1" points="2170 1125.5 2248 1205 2327 1125.5 2247 1045 2170 1125.5"/><polygon class="cls-1" points="2885 1109 2967 1193 3049 1110 2966 1026 2885 1109"/><path class="cls-1" d="M3286.8 651.9q-56.3-20.4-97.5-36.1t-72.2-27.6Q3086 576.2 3062.2 567t-45.3-17.4q-21.5-8.2-43.8-15.9T2923.3 517q-30.9-10-56.8-10a124.4 124.4 0 0 0-22.5 2q-34.8 7-60.7 27.6a179.9 179.9 0 0 0-43.6 51 306.5 306.5 0 0 0-27.9 63.7l98.9 30.4q7.8-21.4 17.6-35.3t23-20.4q13.2-6.5 30.4-6.2t39.2 6.7l244.4 87.1q-23 13.5-51.9 27.1t-62 26.6q-33.1 13-68.8 24.4t-72.2 20.2a744.4 744.4 0 0 1-73.2 13.7 527.2 527.2 0 0 1-71 5H2569.7c-2.3 0-5.9-0.2-10.8-0.5a97.5 97.5 0 0 1-34.8-9.4 63.6 63.6 0 0 1-17.1-12.2A61.6 61.6 0 0 1 2494 789q-5.1-11.7-5.1-28.6V595.1H2382.1V763.9a92.8 92.8 0 0 1-2.9 22.7q-2.9 11.7-12.7 21.4t-29.1 16.2q-19.4 6.5-51.7 6.5H2091.2c-2.3 0-5.9-0.2-10.8-0.5a97.5 97.5 0 0 1-34.8-9.4 63.6 63.6 0 0 1-17.1-12.2 61.6 61.6 0 0 1-13-19.4q-5.1-11.7-5.1-28.6V595.1H1903.6V763.9a92.8 92.8 0 0 1-2.9 22.7q-2.9 11.7-12.7 21.4t-29.1 16.2q-19.3 6.5-51.7 6.5h-82.3q-4.9 0-17.9-2.7t-26.7-11.2q-13.7-8.5-24.2-23.9T1645.4 752V595.6H1538.2V906.3q0 52.3-11.3 88.9t-34.3 59.2q-23 22.7-58.5 33.1t-84.5 10.5H1282v109h67.6q67.6 0 121-20.4t91.4-58.2q38-37.8 59.3-91.6t24.3-120.5q19.6 16.4 38.7 19.9a220.7 220.7 0 0 0 33.3 3.4v0.1h89.6q48 0 86-12.4t64.4-35.8q22 23.9 56.3 36.1t77.4 12.2h194.5q48 0 86-12.4t64.4-35.8q22 23.9 56.3 36.1t77.4 12.2h196.4a588.6 588.6 0 0 0 126.6-13.9 957.6 957.6 0 0 0 121.7-35.1 1117 1117 0 0 0 109.2-46.1q50.9-24.9 89.1-46.8T3274 760.7q23-15.2 26-17.2Z"/></svg>