<?xml version="1.0" standalone="no"?>
<!DOCTYPE svg PUBLIC "-//W3C//DTD SVG 20010904//EN"
 "http://www.w3.org/TR/2001/REC-SVG-20010904/DTD/svg10.dtd">
<svg version="1.0" xmlns="http://www.w3.org/2000/svg"
 width="500.000000pt" height="500.000000pt" viewBox="0 0 500.000000 500.000000"
 preserveAspectRatio="xMidYMid meet">
<metadata>
Created by potrace 1.11, written by Peter Selinger 2001-2013
</metadata>
<g transform="translate(0.000000,500.000000) scale(0.100000,-0.100000)"
fill="#000000" stroke="none">
<path d="M2245 4889 c-705 -76 -1346 -466 -1745 -1059 -115 -171 -224 -391
-280 -567 -13 -40 -26 -70 -29 -68 -3 2 -6 -9 -7 -23 -2 -35 -52 -243 -53
-217 0 11 10 66 23 123 15 64 19 98 11 92 -6 -5 -18 -34 -25 -65 -7 -30 -16
-52 -20 -50 -4 2 -5 -7 -2 -22 3 -18 1 -24 -6 -19 -8 5 -10 -2 -5 -25 4 -23 3
-30 -5 -25 -8 5 -10 -2 -6 -24 4 -18 2 -30 -4 -30 -7 0 -9 -14 -5 -37 5 -26 3
-34 -6 -29 -8 6 -10 -3 -5 -33 4 -27 3 -41 -4 -41 -13 0 -14 -19 -14 -300 -1
-372 77 -710 242 -1046 326 -663 920 -1137 1640 -1309 302 -72 714 -84 975
-29 39 8 78 15 87 15 10 0 20 4 23 9 3 4 14 6 25 3 12 -3 20 0 20 7 0 7 8 9
20 5 12 -4 20 -2 20 5 0 7 8 9 20 5 11 -4 20 -2 20 4 0 6 7 8 15 5 8 -4 15 -1
15 6 0 7 7 10 15 7 8 -4 17 -2 20 3 3 5 12 7 20 3 8 -3 15 0 15 6 0 6 7 8 15
5 8 -4 15 -1 15 6 0 7 7 10 15 6 8 -3 15 -1 15 5 0 6 4 8 9 5 5 -4 11 -1 13 5
2 6 15 12 30 12 14 1 24 6 20 11 -3 5 2 7 11 3 10 -4 17 -2 17 4 0 6 7 8 16 5
10 -4 13 -2 8 6 -5 7 -2 9 9 5 9 -3 18 1 21 10 4 10 14 13 27 10 12 -3 18 -3
15 0 -7 7 35 39 47 35 4 -1 7 3 7 9 0 5 4 8 9 4 5 -3 22 7 38 21 15 15 21 21
12 15 -9 -6 -20 -7 -24 -3 -5 4 -4 1 0 -7 6 -11 4 -13 -9 -8 -11 5 -15 3 -10
-5 4 -7 3 -8 -4 -4 -6 4 -25 0 -41 -9 -17 -8 -34 -15 -38 -15 -4 0 44 28 107
61 690 365 1148 1005 1277 1784 26 157 26 554 0 710 -88 528 -313 972 -682
1340 -358 359 -792 584 -1295 672 -116 20 -187 25 -355 28 -115 2 -250 -1
-300 -6z m145 -231 c119 -37 210 -162 210 -289 0 -127 -104 -232 -230 -232
-101 0 -170 58 -170 145 0 44 4 54 34 84 39 39 67 43 96 14 24 -24 25 -48 4
-78 -26 -37 -102 -22 -105 21 0 7 -5 1 -10 -12 -12 -30 14 -86 52 -114 73 -53
200 -19 258 70 25 38 31 57 31 102 0 99 -60 194 -154 244 -64 34 -182 31 -257
-6 -73 -35 -150 -117 -191 -203 -18 -38 -34 -71 -35 -72 -1 -2 -45 18 -99 45
-95 47 -99 48 -188 48 -105 0 -157 -18 -224 -80 -118 -106 -117 -305 1 -399
36 -29 45 -31 116 -31 66 0 83 4 114 25 41 28 77 86 77 124 0 31 -26 86 -40
86 -6 0 -10 -12 -10 -27 0 -37 -27 -63 -65 -63 -40 0 -55 16 -55 56 0 82 133
85 175 4 33 -63 2 -162 -64 -205 -123 -81 -283 -40 -346 89 -24 50 -27 64 -23
143 4 103 29 164 91 220 122 109 297 120 465 28 l63 -35 33 73 c41 89 97 154
167 192 93 51 185 61 279 33z m772 -80 c106 -49 183 -150 218 -283 7 -27 14
-51 16 -53 1 -2 41 9 88 24 72 22 100 26 164 22 225 -13 370 -195 318 -399
-33 -128 -102 -191 -216 -197 -81 -5 -129 9 -177 51 -68 60 -86 168 -37 226
52 63 164 60 164 -4 0 -31 -46 -68 -74 -59 -29 9 -37 24 -33 57 4 31 -3 34
-26 9 -73 -80 -10 -214 113 -242 113 -25 211 37 245 155 43 146 -23 280 -172
347 -71 33 -202 31 -301 -5 -52 -19 -74 -23 -77 -14 -2 7 -11 39 -20 72 -35
126 -106 214 -212 262 -139 64 -299 7 -367 -129 -31 -62 -33 -117 -7 -173 64
-138 257 -170 307 -50 20 48 18 62 -6 40 -29 -26 -79 -24 -102 5 -24 30 -20
58 12 81 55 39 123 -14 123 -97 0 -53 -22 -88 -73 -114 -95 -49 -222 -7 -285
94 -41 67 -42 155 -2 232 31 62 112 137 170 158 65 24 179 17 249 -16z m-2011
-623 c104 -36 163 -117 163 -225 0 -128 -82 -220 -195 -220 -77 0 -129 49
-129 123 0 40 15 57 52 57 39 0 65 -41 49 -76 -10 -22 -17 -26 -46 -22 -41 5
-43 -1 -12 -30 51 -48 132 -37 190 27 94 105 67 256 -58 320 -68 35 -174 41
-237 13 -163 -72 -229 -261 -161 -458 l28 -82 -78 -22 c-132 -38 -211 -100
-268 -210 -33 -63 -34 -186 -1 -247 48 -90 137 -152 220 -153 176 -1 283 219
156 319 -15 12 -40 21 -57 21 l-31 0 22 -20 c42 -40 18 -110 -38 -110 -37 0
-52 21 -48 66 4 48 39 75 97 76 55 1 89 -24 120 -86 23 -45 24 -53 13 -105
-16 -76 -55 -129 -121 -163 -129 -68 -286 -6 -358 140 -24 48 -28 69 -27 137
0 66 5 90 28 137 51 108 145 180 281 218 33 9 59 20 58 26 -1 5 -12 36 -25 69
-32 85 -32 229 0 299 79 173 236 242 413 181z m3135 -273 c59 -30 128 -109
153 -175 42 -113 24 -250 -48 -367 l-30 -49 65 -30 c83 -39 136 -81 176 -139
38 -56 68 -148 68 -212 0 -154 -123 -290 -278 -306 -179 -19 -317 179 -229
329 41 69 103 92 172 63 47 -20 71 -59 57 -91 -21 -45 -92 -42 -107 5 -8 25
11 60 32 60 13 0 14 3 6 11 -20 20 -79 1 -112 -36 -51 -59 -53 -137 -5 -211
37 -57 85 -87 149 -92 100 -8 199 47 251 140 25 46 29 63 29 133 0 67 -4 89
-28 136 -36 74 -116 149 -205 190 -39 19 -72 37 -72 41 0 4 13 29 29 55 120
197 80 422 -91 507 -91 46 -232 33 -296 -27 -38 -35 -62 -92 -62 -146 0 -63
13 -98 52 -138 54 -56 126 -66 172 -25 18 16 17 17 -15 22 -64 10 -80 99 -22
121 61 23 105 -60 68 -130 -49 -95 -208 -70 -267 42 -17 32 -22 59 -22 112 0
73 15 116 58 163 69 77 245 99 352 44z m-807 -240 c21 -20 58 -56 83 -80 68
-64 131 -183 163 -310 43 -171 47 -183 99 -259 48 -71 48 -73 32 -98 -29 -44
-57 -48 -158 -20 -66 18 -96 22 -109 14 -10 -5 -41 -56 -69 -112 -27 -56 -67
-133 -89 -171 -37 -66 -70 -174 -57 -194 3 -5 32 -12 64 -14 69 -7 124 -33
208 -98 34 -26 69 -50 79 -51 25 -5 36 -41 22 -70 -10 -20 -42 -34 -187 -81
-216 -70 -340 -100 -380 -92 -16 4 -30 10 -30 14 0 5 23 27 51 51 48 40 52 41
86 31 29 -9 43 -8 67 3 17 8 58 24 91 35 55 19 105 53 105 72 0 15 -66 35
-156 46 -148 19 -193 16 -257 -18 -77 -41 -211 -78 -327 -91 -116 -14 -222 -2
-353 38 -71 21 -92 24 -105 15 -10 -6 -35 -21 -57 -33 -38 -21 -45 -21 -270
-13 -270 10 -307 9 -337 -7 -13 -7 -76 -62 -141 -123 -65 -61 -130 -116 -145
-123 -15 -7 -58 -12 -97 -12 l-70 0 33 29 c18 17 43 30 56 30 31 0 161 105
265 215 94 100 93 108 -9 108 -48 0 -72 -9 -197 -71 -121 -61 -150 -72 -193
-72 -52 0 -140 18 -140 28 0 3 10 16 22 29 23 25 52 30 64 12 22 -36 205 39
369 150 93 63 140 73 210 46 89 -33 166 7 180 93 12 74 16 85 44 112 16 17 43
30 69 35 42 7 52 21 30 43 -16 16 -58 15 -210 -5 -87 -11 -134 -13 -149 -7
-17 8 14 16 147 39 l169 28 85 -21 c113 -29 312 -70 380 -78 54 -6 284 24 356
47 17 5 59 29 93 53 46 33 82 49 136 61 41 9 84 24 97 35 13 10 35 20 48 22
33 4 105 96 164 210 27 51 64 115 83 142 32 45 34 52 27 95 -10 58 -7 92 11
110 12 12 17 9 34 -20 12 -20 21 -51 21 -76 0 -38 2 -42 31 -48 17 -4 33 -4
37 0 17 17 -66 140 -177 263 -90 99 -122 141 -127 167 -9 48 1 55 19 14 8 -19
32 -50 54 -69 23 -19 54 -46 69 -60 31 -27 65 -49 76 -50 4 0 -16 33 -43 73
-37 54 -52 86 -55 118 l-4 44 16 -43 c9 -24 33 -60 53 -80z m-3352 -544 c-3
-7 -5 -2 -5 12 0 14 2 19 5 13 2 -7 2 -19 0 -25z m-10 -65 c-3 -10 -5 -4 -5
12 0 17 2 24 5 18 2 -7 2 -21 0 -30z m-10 -80 c-3 -10 -5 -4 -5 12 0 17 2 24
5 18 2 -7 2 -21 0 -30z m-10 -120 c-3 -10 -5 -2 -5 17 0 19 2 27 5 18 2 -10 2
-26 0 -35z m592 -43 c70 -20 139 -86 156 -150 5 -19 4 -21 -4 -10 -10 13 -11
13 -11 0 -1 -8 -9 1 -20 20 -25 48 -70 89 -116 105 -22 8 -31 14 -21 15 39 1
115 -60 145 -115 10 -17 11 -18 12 -3 0 20 -62 93 -94 111 -12 6 -46 17 -76
23 -30 7 -44 13 -30 13 14 1 40 -3 59 -9z m-106 -7 c-7 -2 -19 -2 -25 0 -7 3
-2 5 12 5 14 0 19 -2 13 -5z m-53 -13 c-8 -5 -19 -10 -25 -10 -5 0 -3 5 5 10
8 5 20 10 25 10 6 0 3 -5 -5 -10z m63 -7 c-7 -2 -19 -2 -25 0 -7 3 -2 5 12 5
14 0 19 -2 13 -5z m-44 -7 c-2 -2 -15 -9 -29 -15 -24 -11 -24 -11 -6 3 16 13
49 24 35 12z m-89 -19 c0 -2 -17 -19 -37 -38 l-38 -34 34 38 c33 34 41 42 41
34z m0 -30 c0 -2 -12 -14 -27 -28 l-28 -24 24 28 c23 25 31 32 31 24z m383
-159 c3 -30 1 -45 -5 -42 -6 4 -8 -2 -4 -14 8 -23 -8 -39 -20 -21 -4 8 -3 9 4
5 8 -5 11 0 10 11 -2 30 3 129 7 118 2 -5 5 -31 8 -57z m14 0 c-2 -13 -4 -3
-4 22 0 25 2 35 4 23 2 -13 2 -33 0 -45z m3570 -87 c62 -28 127 -94 154 -154
33 -76 32 -183 -2 -257 -53 -112 -151 -189 -282 -223 -33 -9 -61 -17 -63 -19
-1 -2 9 -35 23 -73 20 -55 26 -88 26 -155 0 -152 -63 -259 -188 -321 -60 -29
-71 -31 -142 -27 -91 5 -153 30 -202 79 -45 45 -63 92 -64 164 -1 120 81 215
187 215 84 0 136 -47 136 -123 0 -40 -15 -57 -50 -57 -40 0 -66 34 -54 68 8
23 15 27 47 27 20 0 37 3 37 7 0 3 -14 18 -31 32 -58 49 -155 23 -206 -56 -24
-36 -28 -52 -28 -113 0 -94 29 -141 111 -181 201 -98 408 33 422 268 4 64 0
92 -21 160 -14 46 -27 87 -27 92 -1 5 32 19 73 31 92 26 151 61 206 120 80 86
106 187 77 289 -30 102 -144 196 -239 196 -135 0 -242 -146 -193 -264 18 -43
61 -76 100 -76 30 0 30 0 8 16 -26 18 -30 74 -6 98 24 25 71 20 89 -8 51 -77
-77 -160 -163 -106 -89 56 -93 196 -9 296 60 71 183 96 274 55z m-3792 -21
l20 -25 -22 19 c-13 11 -23 24 -23 29 0 6 1 8 3 6 1 -2 11 -15 22 -29z m75 16
c0 -2 -8 -10 -17 -17 -16 -13 -17 -12 -4 4 13 16 21 21 21 13z m99 -22 c-6 -7
-15 -11 -21 -8 -5 3 -4 12 3 20 6 7 15 11 21 8 5 -3 4 -12 -3 -20z m-49 -24
c0 -5 -19 -9 -42 -9 l-43 2 40 7 c22 4 41 8 43 9 1 0 2 -3 2 -9z m120 -493 c0
-2 -10 -12 -22 -23 l-23 -19 19 23 c18 21 26 27 26 19z m2664 -601 c105 -32
166 -118 166 -236 0 -95 -22 -159 -76 -219 -117 -130 -313 -148 -488 -45 -32
19 -59 33 -60 32 -33 -77 -80 -160 -91 -164 -8 -4 -13 -10 -10 -14 6 -10 -22
-33 -44 -36 -9 -2 1 13 24 35 22 20 41 40 43 44 12 33 78 157 82 154 3 -1 45
-23 93 -47 76 -37 100 -44 165 -48 63 -3 88 0 136 18 74 28 142 89 172 155 30
64 33 170 5 231 -36 79 -136 133 -219 118 -133 -24 -206 -161 -125 -235 l26
-24 -6 24 c-9 36 9 61 43 61 54 0 77 -80 28 -96 -32 -10 -83 4 -107 30 -95
101 9 266 175 275 11 1 42 -5 68 -13z m-1343 -263 c13 -16 12 -17 -3 -4 -17
13 -22 21 -14 21 2 0 10 -8 17 -17z m412 0 c-7 -2 -19 -2 -25 0 -7 3 -2 5 12
5 14 0 19 -2 13 -5z m81 1 c20 -7 11 -24 -12 -24 -14 0 -14 2 -3 9 11 7 7 10
-15 14 -20 3 -22 4 -7 6 12 0 28 -2 37 -5z m45 -29 c13 7 49 -38 56 -70 l6
-30 -17 33 c-9 18 -29 40 -45 49 -15 9 -25 21 -22 27 4 6 8 6 11 -2 2 -7 7
-10 11 -7z m-160 1 c-2 -2 -15 -9 -29 -15 -24 -11 -24 -11 -6 3 16 13 49 24
35 12z m-89 -19 c0 -2 -10 -12 -22 -23 l-23 -19 19 23 c18 21 26 27 26 19z
m-583 -49 c-3 -7 -5 -2 -5 12 0 14 2 19 5 13 2 -7 2 -19 0 -25z m603 28 c0 -2
-8 -10 -17 -17 -16 -13 -17 -12 -4 4 13 16 21 21 21 13z m210 -79 c-15 -7 -28
-25 -31 -42 -6 -26 -7 -27 -8 -6 -1 28 25 61 48 61 10 0 7 -5 -9 -13z m48 -22
c-3 -3 -9 2 -12 12 -6 14 -5 15 5 6 7 -7 10 -15 7 -18z m-331 -37 c-3 -8 -6
-5 -6 6 -1 11 2 17 5 13 3 -3 4 -12 1 -19z m333 -13 c-13 -14 -33 -24 -44 -24
-19 2 -19 2 2 6 12 2 30 15 40 28 9 13 19 21 21 19 3 -2 -6 -15 -19 -29z m160
-221 c0 -8 -19 -13 -24 -6 -3 5 1 9 9 9 8 0 15 -2 15 -3z m530 -129 c-14 -8
-29 -14 -35 -14 -5 0 1 6 15 14 14 8 30 14 35 14 6 0 -1 -6 -15 -14z m-60 -25
c-8 -5 -19 -10 -25 -10 -5 0 -3 5 5 10 8 5 20 10 25 10 6 0 3 -5 -5 -10z"/>
<path d="M430 2894 c1 -14 54 -82 81 -103 27 -21 84 -51 96 -51 4 0 -12 12
-37 26 -56 32 -76 49 -111 98 -16 21 -29 35 -29 30z"/>
<path d="M633 2733 c9 -2 25 -2 35 0 9 3 1 5 -18 5 -19 0 -27 -2 -17 -5z"/>
<path d="M2959 453 c-13 -16 -12 -17 4 -4 16 13 21 21 13 21 -2 0 -10 -8 -17
-17z"/>
</g>
</svg>
