<?xml version="1.0" standalone="no"?>
<!DOCTYPE svg PUBLIC "-//W3C//DTD SVG 20010904//EN"
 "http://www.w3.org/TR/2001/REC-SVG-20010904/DTD/svg10.dtd">
<svg version="1.0" xmlns="http://www.w3.org/2000/svg"
 width="1024.000000pt" height="1024.000000pt" viewBox="0 0 1024.000000 1024.000000"
 preserveAspectRatio="xMidYMid meet">
<metadata>
Created by potrace 1.11, written by Peter Selinger 2001-2013
</metadata>
<g transform="translate(0.000000,1024.000000) scale(0.100000,-0.100000)"
fill="#000000" stroke="none">
<path d="M5145 9620 c5 -8 26 -35 47 -60 127 -153 218 -410 218 -618 0 -41
-63 -904 -140 -1917 -77 -1013 -140 -1853 -140 -1866 0 -19 246 222 1130 1106
1228 1227 1174 1168 1201 1308 23 116 -26 270 -113 353 -24 23 -511 400 -1083
839 -572 439 -1060 814 -1085 834 -24 20 -40 29 -35 21z"/>
<path d="M2520 7459 c-68 -13 -160 -63 -206 -111 -23 -24 -400 -511 -839
-1083 -439 -572 -814 -1060 -834 -1085 -39 -49 -29 -46 39 12 153 128 410 218
619 218 42 0 904 -63 1916 -140 1012 -77 1851 -140 1865 -140 20 0 -195 220
-1104 1129 -770 770 -1145 1138 -1176 1155 -90 49 -183 64 -280 45z"/>
<path d="M6265 3980 c1227 -1228 1168 -1174 1308 -1201 116 -23 270 26 353
113 23 24 400 511 839 1083 439 572 814 1060 834 1085 39 49 29 46 -39 -12
-153 -128 -410 -218 -619 -218 -42 0 -904 63 -1916 140 -1012 77 -1851 140
-1865 140 -20 0 195 -220 1105 -1130z"/>
<path d="M3969 3963 c-1233 -1236 -1163 -1159 -1191 -1299 -22 -112 28 -268
114 -350 24 -23 511 -400 1083 -839 572 -439 1060 -814 1085 -834 49 -39 46
-29 -12 39 -127 153 -218 410 -218 618 0 41 63 906 140 1921 78 1015 139 1854
138 1864 -2 12 -355 -335 -1139 -1120z"/>
</g>
</svg>
