<?xml version="1.0" encoding="utf-8"?>
<!-- Generator: Adobe Illustrator 20.1.0, SVG Export Plug-In . SVG Version: 6.00 Build 0)  -->
<svg version="1.1" id="Layer_1" xmlns="http://www.w3.org/2000/svg" xmlns:xlink="http://www.w3.org/1999/xlink" x="0px" y="0px"
	 viewBox="0 0 40 40" style="enable-background:new 0 0 40 40;" xml:space="preserve">
<style type="text/css">
	.st0{fill:#008A9F;stroke:#008A9F;stroke-width:0.25;}
</style>
<g id="__x0023_Layer_x0020_3">
	<path class="st0" d="M31,8.8c0,2.2-0.1,4.1-0.1,6.1C22.8,16.6,19.6,25.1,13,29.4C-5.9,38.7-3.6,4.2,16.2,18.9
		c-0.4,0.7-0.8,1.4-1.3,2.1C-4,8.4,0.6,40.7,15.9,22.5C20,17.1,22.2,8.6,31,8.8z M22.3,22.7c0,0-1.1,1.4-1.7,2
		c18.2,19.1,27.3-10,10.5-9.4c0,0.8,0,2,0,5.8C37.7,22.3,34,34.7,22.3,22.7z"/>
</g>
</svg>
