<?xml version="1.0" encoding="utf-8"?>
<!-- Generator: Adobe Illustrator 20.1.0, SVG Export Plug-In . SVG Version: 6.00 Build 0)  -->
<svg version="1.1" xmlns="http://www.w3.org/2000/svg" xmlns:xlink="http://www.w3.org/1999/xlink" x="0px" y="0px"
	 viewBox="0 0 60 60" style="enable-background:new 0 0 60 60;" xml:space="preserve">
<style type="text/css">
	.st0{fill-rule:evenodd;clip-rule:evenodd;fill:url(#SVGID_1_);}
	.st1{fill-rule:evenodd;clip-rule:evenodd;fill:none;stroke:#AA1F00;stroke-width:1.1846;}
	.st2{fill-rule:evenodd;clip-rule:evenodd;fill:#D12236;}
	.st3{fill-rule:evenodd;clip-rule:evenodd;fill:url(#SVGID_2_);}
	.st4{fill-rule:evenodd;clip-rule:evenodd;fill:none;stroke:#FF9F00;stroke-width:1.382;}
	.st5{fill-rule:evenodd;clip-rule:evenodd;fill:#605D5C;}
</style>
<g id="Layer_1">
</g>
<g id="_x23_Layer_3">
	<g>
		<radialGradient id="SVGID_1_" cx="20.95" cy="4.7908" r="9.8889" gradientUnits="userSpaceOnUse">
			<stop  offset="0" style="stop-color:#FFFFFF"/>
			<stop  offset="1.423460e-02" style="stop-color:#FEFBFB"/>
			<stop  offset="0.2907" style="stop-color:#EEAEB0"/>
			<stop  offset="0.5372" style="stop-color:#E27175"/>
			<stop  offset="0.7449" style="stop-color:#D9454A"/>
			<stop  offset="0.9056" style="stop-color:#D32A30"/>
			<stop  offset="1" style="stop-color:#D12026"/>
		</radialGradient>
		<path class="st0" d="M27.8,1.1l-8.8,5.2c-2.3,0.9-1.8,3.4-1.8,3.4l0,0l0,19l4.7-2.7c-2.5-9.3,5.9-10.9,5.9-10.9l0,0V7.7
			c0.1-2.3,1.8-0.9,1.8-0.9l0,0l11.7,6.7l-0.1-3.6c0.1-3-1.7-3.5-1.7-3.5l0,0l-9-5.3c-0.5-0.4-0.9-0.5-1.4-0.5
			C28.3,0.6,27.8,1.1,27.8,1.1L27.8,1.1z"/>
		<path class="st1" d="M17.1,28.7l0-19c0,0-0.5-2.5,1.8-3.4l8.8-5.2c0,0,1.3-1.1,2.7,0l9,5.3c0,0,1.8,0.5,1.7,3.5l0.1,3.6L29.6,6.8
			c0,0-1.7-1.4-1.8,0.9v7.4c0,0-8.4,1.6-5.9,10.9L17.1,28.7z"/>
		<path class="st2" d="M30.2,9.8l16.6,9.6c0,0,2.4,0.9,2.1,3.3L49,32.9c0,0,0.3,1.7-1.4,2.4l-9.1,5c0,0-1.3,1.3-3.9-0.3l-3.2-1.8
			l11.6-6.7c0,0,2.1-0.7,0.1-2l-6.5-3.8c0,0,2.8-8-6.6-10.6L30.2,9.8z"/>
		<path class="st1" d="M30.2,9.8l16.6,9.6c0,0,2.4,0.9,2.1,3.3L49,32.9c0,0,0.3,1.7-1.4,2.4l-9.1,5c0,0-1.3,1.3-3.9-0.3l-3.2-1.8
			l11.6-6.7c0,0,2.1-0.7,0.1-2l-6.5-3.8c0,0,2.8-8-6.6-10.6L30.2,9.8z"/>
		<path class="st2" d="M40.1,30.7l-16.7,9.4c0,0-2,1.7-3.9,0.2l-8.9-5c0,0-1.6-0.6-1.3-2.4l0.3-10.4c0,0-0.5-1.8,2.2-3.2l3.2-1.9
			l-0.2,13.4c0,0-0.4,2.2,1.7,1.1l6.5-3.7c0,0,5.5,6.5,12.5-0.3L40.1,30.7z"/>
		<path class="st1" d="M40.1,30.7l-16.7,9.4c0,0-2,1.7-3.9,0.2l-8.9-5c0,0-1.6-0.6-1.3-2.4l0.3-10.4c0,0-0.5-1.8,2.2-3.2l3.2-1.9
			l-0.2,13.4c0,0-0.4,2.2,1.7,1.1l6.5-3.7c0,0,5.5,6.5,12.5-0.3L40.1,30.7z"/>
		<linearGradient id="SVGID_2_" gradientUnits="userSpaceOnUse" x1="34.8924" y1="29.0623" x2="22.6351" y2="16.3694">
			<stop  offset="0" style="stop-color:#FFD886"/>
			<stop  offset="8.000000e-02" style="stop-color:#FFD886"/>
			<stop  offset="0.49" style="stop-color:#FFD454"/>
			<stop  offset="1" style="stop-color:#FFD20B"/>
		</linearGradient>
		<path class="st3" d="M23.5,23.1c0,3.1,2.5,5.7,5.7,5.7c3.1,0,5.7-2.5,5.7-5.7l0,0c0-3.1-2.5-5.7-5.7-5.7
			C26,17.4,23.5,20,23.5,23.1z"/>
		<circle class="st4" cx="29.1" cy="23.1" r="5.7"/>
		<path class="st5" d="M22.9,48.7c0,0.8,0,1.5,0,2.3c0.8,0,1.5,0,2.3,0c0.3,0,0.5-0.2,0.5-0.5c0-0.6,0-1.2,0-1.8
			c0-0.3-0.2-0.5-0.5-0.5c-0.6,0-1.2,0-1.8,0C23.2,48.2,22.9,48.5,22.9,48.7L22.9,48.7z M16.5,43.6c0.5-0.4,1.1-0.4,1.7-0.4
			c0,2.3,0,4.6,0,6.9c0,0.5,0.4,0.9,0.9,0.9c0.4,0,0.8,0,1.2,0c0.2,0,0.5-0.2,0.5-0.5c0-0.5,0-1,0-1.4c0-0.2,0-0.4,0-0.6
			c0,0,0-0.1,0-0.1c0.1-0.6,0.6-1.1,1.1-1.4c0.3-0.1,0.6-0.2,0.8-0.2c0.9,0,1.7,0,2.6,0c0.3,0,0.7,0,1,0.1c0.8,0.2,1.4,0.9,1.5,1.7
			c0,0.4,0,0.7,0,1.1c0,0.4,0,0.8,0,1.1c0,0.6-0.4,1.2-0.9,1.5c-0.3,0.2-0.7,0.3-1,0.3c-0.6,0-1.2,0-1.8,0c-0.5,0-1.1-0.2-1.5-0.6
			c-0.3,0.4-0.7,0.6-1.2,0.6c-1,0-2,0-3,0c-0.5,0-1.1-0.2-1.4-0.5c-0.3,0.2-0.6,0.4-1,0.5c-0.2,0-0.4,0-0.6,0c-0.6,0-1.1,0-1.7,0
			c-0.5,0-1-0.2-1.4-0.5c-0.4,0.3-0.9,0.5-1.4,0.5c-2.7,0-5.4,0-8.1,0c-0.3,0-0.6-0.1-0.9-0.2c0,0,0,0,0,0c-0.5-0.3-0.9-0.8-1-1.3
			l0,0c0,0,0-0.1,0-0.1c0-0.2,0-0.3,0-0.5c0-1.2,0-2.4,0-3.6c0.6,0,1.2,0.1,1.7,0.5c0.3,0.2,0.5,0.6,0.6,1c0,0.5,0,1,0,1.5
			c0,0.1,0,0.3,0,0.4c0,0.5,0.5,0.9,0.9,0.9c2,0,3.9,0,5.9,0c0.1,0,0.3,0,0.4,0c0.4-0.1,0.6-0.5,0.6-0.9c0-0.4,0-0.7,0-1.1
			c0-0.4,0-0.8,0.1-1.2c0.1-0.4,0.5-0.8,0.9-0.9c0.4-0.2,0.8-0.2,1.2-0.2c0,1,0,1.9,0,2.9c0,0.5-0.1,0.9-0.2,1.4c0.7,0,1.3,0,2,0
			c0.5,0,0.9-0.4,0.9-0.9c0-1.7,0-3.4,0-5.1c0-0.1,0-0.3,0-0.4c0,0,0-0.1,0-0.1C16,44.1,16.2,43.8,16.5,43.6z"/>
		<path class="st5" d="M42.7,43.8c0.3-0.4,0.8-0.6,1.3-0.6c0.2,0,0.4,0,0.6,0c0,2.2,0,4.3,0,6.5c0,0.3,0,0.5,0.1,0.8
			c0.1,0.3,0.5,0.5,0.9,0.5c0.5,0,1,0,1.5,0c0.2,0,0.4-0.2,0.5-0.4c0-0.2,0-0.3,0-0.5c0-0.6,0-1.3,0-1.9c0-0.4,0.2-0.7,0.5-1
			c0.2-0.2,0.5-0.3,0.8-0.4c0,0,0.1,0,0.1,0c0.3,0,0.5,0,0.8,0c0,1.2,0,2.5,0,3.7c0,0.3,0,0.6-0.2,0.9c-0.3,0.7-1,1.2-1.8,1.2
			c-1,0-2.1,0-3.1,0c-0.5,0-1-0.2-1.3-0.5c0,0-0.1,0-0.1,0c-0.4,0.3-0.9,0.5-1.4,0.5c-2.5,0-5,0-7.5,0c-0.3,0-0.5,0-0.8-0.1
			c-0.7-0.2-1.2-0.7-1.4-1.3c-0.1-0.2-0.1-0.5-0.1-0.8c0-1.2,0-2.4,0-3.7c0.5,0,1.1,0.1,1.6,0.4c0.4,0.2,0.6,0.6,0.7,1
			c0,0.5,0,1.1,0,1.6c0,0.1,0,0.2,0,0.3c0,0.5,0.5,0.9,0.9,0.9c1.9,0,3.8,0,5.7,0c0.2,0,0.4,0,0.6-0.1c0.3-0.1,0.5-0.4,0.6-0.7
			c0.1-0.2,0-0.4,0-0.6c0-1.7,0-3.3,0-5C42.4,44.3,42.5,44,42.7,43.8z"/>
		<path class="st5" d="M51.6,43.2c0.4,0,0.8,0,1.1,0.1c0.4,0.1,0.8,0.4,1,0.9c0.1,0.4,0.1,0.7,0.1,1.1c0,1.6,0,3.2,0,4.7
			c0,0.4,0.2,0.7,0.6,0.9c0.2,0.1,0.5,0.1,0.7,0.1c0.4,0,0.8,0,1.3,0c0.1,0,0.2-0.1,0.3-0.1c0,0,0.1,0,0.1-0.1
			c0-0.1,0.1-0.2,0.1-0.2c0-0.2,0-0.4,0-0.6c0-0.6,0-1.2,0-1.8c0.1-0.7,0.7-1.2,1.3-1.3c0,0,0.1,0,0.1,0c0,0,0.1,0,0.1,0
			c0.2,0,0.4,0,0.6,0c0.1,0,0,0.1,0,0.2c0,1.2,0,2.4,0,3.6c0,0.5-0.2,1.1-0.6,1.4l0,0c-0.1,0-0.1,0-0.1,0.1l0,0
			c-0.4,0.3-0.8,0.4-1.2,0.4c-1.2,0-2.3,0-3.5,0c-0.4,0-0.8-0.1-1.1-0.3c-0.5-0.4-0.9-1-0.9-1.6C51.6,48.1,51.6,45.7,51.6,43.2z"/>
		<path class="st5" d="M47,43.8c0.1-0.1,0.3,0,0.4,0.1c0.3,0.3,0.7,0.7,1,1c0.1,0.1,0.1,0.3,0,0.4c-0.3,0.3-0.7,0.7-1,1
			c-0.1,0.1-0.3,0.1-0.5,0c-0.3-0.3-0.6-0.6-1-1c-0.1-0.1-0.1-0.2-0.1-0.3c0-0.2,0.1-0.3,0.2-0.4C46.4,44.4,46.7,44.1,47,43.8z"/>
		<path class="st5" d="M5.7,44.8c0.1-0.1,0.2-0.1,0.3-0.1c0.1,0,0.2,0.1,0.3,0.2c0.3,0.3,0.6,0.6,0.9,0.9c0.3-0.3,0.5-0.5,0.8-0.8
			c0.1-0.1,0.2-0.2,0.3-0.2c0.1,0,0.2,0,0.3,0.1c0.3,0.3,0.7,0.7,1,1c0.1,0.1,0.1,0.3,0,0.4c-0.3,0.3-0.7,0.7-1,1
			c-0.1,0.1-0.3,0.1-0.4,0c-0.3-0.3-0.6-0.6-0.9-0.9c0,0,0,0,0-0.1c0,0,0,0,0,0c-0.3,0.3-0.6,0.6-0.9,0.9c-0.1,0.1-0.3,0.1-0.5,0
			c-0.3-0.3-0.7-0.7-1-1c-0.1-0.1-0.1-0.3,0-0.4C5.1,45.5,5.4,45.1,5.7,44.8z"/>
		<path class="st5" d="M37.8,45.1c0.2-0.1,0.4-0.1,0.7-0.1c0.2,0,0.5,0,0.7,0c-0.2,0.3-0.3,0.6-0.5,0.9c0.2,0,0.4,0,0.5,0
			c0.2,0.1,0.3,0.2,0.3,0.4c0,0.2-0.1,0.5-0.2,0.7c-0.1,0.2-0.1,0.3-0.3,0.5c-0.1,0.1-0.3,0.2-0.5,0.2c-0.3,0-0.7,0-1,0
			c0.2-0.3,0.3-0.6,0.5-0.9c0,0,0,0,0,0c-0.2,0-0.4,0-0.6,0c-0.2-0.1-0.3-0.2-0.3-0.4c0-0.2,0.1-0.4,0.2-0.6
			C37.5,45.5,37.6,45.2,37.8,45.1z"/>
		<path class="st5" d="M55.2,53.3c0.1-0.1,0.3-0.1,0.5,0c0.3,0.3,0.7,0.7,1,1c0.1,0.1,0.1,0.3,0,0.5c-0.3,0.3-0.7,0.7-1,1
			c-0.1,0.1-0.2,0.1-0.3,0.1c-0.1,0-0.2-0.1-0.3-0.2c-0.3-0.3-0.6-0.6-0.9-0.9c0,0,0,0,0,0c-0.1-0.1-0.1-0.3,0-0.4
			C54.6,54,54.9,53.6,55.2,53.3z"/>
		<path class="st5" d="M8.4,57.7c0,0.4,0,0.8,0,1.2c0,0.1,0.1,0.2,0.2,0.3c0.1,0,0.1,0,0.2,0c0.4,0,0.9,0,1.3,0c0.1,0,0.1,0,0.2,0
			c0.1,0,0.2-0.1,0.2-0.2c0-0.3,0-0.7,0-1c0-0.1-0.1-0.2-0.3-0.2C9.6,57.7,9,57.7,8.4,57.7L8.4,57.7z M7.2,55c0.3,0,0.7,0,0.9,0.3
			c0.2,0.2,0.2,0.4,0.2,0.7c0,0.5,0,0.9,0,1.4C8.5,57.1,8.7,57,8.8,57c0.3-0.1,0.7-0.1,1.1-0.1c0.4,0,0.8-0.1,1.2,0.1
			c0.3,0.1,0.5,0.4,0.5,0.7c0,0.3,0,0.6,0,0.8c0,0.3,0,0.6-0.1,0.9c0,0,0,0.1,0,0.1c0,0.1-0.2,0.2-0.3,0.3C11,59.9,10.7,60,10.4,60
			c-0.7,0-1.4,0-2.1,0c-0.3,0-0.7-0.1-0.9-0.4c-0.2-0.2-0.2-0.5-0.2-0.7C7.2,57.6,7.2,56.3,7.2,55z"/>
		<path class="st5" d="M22.2,55c0.3,0,0.7,0,0.9,0.2c0.2,0.2,0.3,0.4,0.3,0.6c0,0.7,0,1.5,0,2.2c0.3,0,0.7,0,1-0.1
			c0.4-0.2,0.7-0.6,0.9-1c0.3,0,0.7,0,1,0c0,0.5-0.4,1-0.8,1.3c0.3,0.1,0.5,0.3,0.7,0.6c0.2,0.4,0.1,0.8,0.1,1.3c-0.4,0-0.8,0-1.2,0
			c0-0.3,0-0.6,0-0.9c0-0.1-0.1-0.2-0.2-0.2c-0.5,0-1,0-1.5,0c0,0.4,0,0.8,0,1.2c-0.4,0-0.8,0-1.2,0C22.2,58.3,22.2,56.6,22.2,55z"
			/>
		<path class="st5" d="M41.6,55c0.3,0,0.6,0,0.8,0.2c0.2,0.1,0.3,0.3,0.3,0.5c0,1.4,0,2.9,0,4.3c-0.4,0-0.8,0-1.1,0
			C41.6,58.3,41.6,56.6,41.6,55z"/>
		<path class="st5" d="M43.7,55c0.1,0,0.2,0,0.4,0c0.3,0,0.5,0.1,0.6,0.4c0.1,0.2,0.1,0.3,0.1,0.5c0,1.4,0,2.7,0,4.1
			c-0.4,0-0.8,0-1.1,0C43.7,58.3,43.7,56.7,43.7,55z"/>
		<path class="st5" d="M51.1,55.9c0.3,0,0.7,0,0.9,0.3c0.2,0.2,0.2,0.5,0.2,0.8c0.2,0,0.4,0,0.5,0c0,0.3,0,0.5,0,0.8
			c-0.2,0-0.4,0-0.5,0c0,0.4,0,0.9,0,1.3c0.1,0.2,0.4,0.2,0.5,0.2c0,0.3,0,0.5,0,0.8c-0.4,0-0.8,0-1.1-0.1c-0.3-0.1-0.6-0.5-0.6-0.8
			c0-0.4,0-0.9,0-1.3c-0.2,0-0.4,0-0.5,0c0-0.3,0-0.5,0-0.8c0.2,0,0.4,0,0.5,0C51.1,56.5,51.1,56.2,51.1,55.9z"/>
		<path class="st5" d="M30.2,57.2c0.2-0.3,0.6-0.3,0.9-0.3c0.4,0,0.7,0,1.1,0.1c0.2,0,0.4,0.2,0.5,0.3c0.2-0.3,0.6-0.4,1-0.4
			c0.4,0,0.9-0.1,1.3,0.1c0.3,0.1,0.5,0.4,0.6,0.7c0,0.8,0,1.5,0,2.3c-0.4,0-0.8,0-1.1,0c0-0.6,0-1.2,0-1.8c0-0.1,0-0.3,0-0.4
			c0-0.1-0.1-0.1-0.2-0.1c-0.2-0.1-0.4,0-0.6,0c-0.2,0-0.5,0-0.7,0c0,0.2,0,0.4,0,0.6c0,0.6,0,1.1,0,1.7c-0.4,0-0.8,0-1.2,0
			c0-0.7,0-1.4,0-2c0-0.1-0.1-0.2-0.2-0.3c-0.4,0-0.9,0-1.3,0c0,0.1,0,0.1,0,0.2c0,0.7,0,1.4,0,2.1c-0.4,0-0.8,0-1.1,0
			c0-1,0-2,0-3.1c0.1,0,0.3,0,0.4,0C29.8,56.9,30,57,30.2,57.2C30.2,57.3,30.2,57.3,30.2,57.2z"/>
		<path class="st5" d="M13.6,57.7c-0.1,0-0.1,0.1-0.2,0.2c-0.1,0.2,0,0.4,0,0.6c0,0.2,0,0.4,0,0.6c0,0.1,0.1,0.1,0.2,0.2
			c0.1,0,0.2,0,0.3,0c0.5,0,1,0,1.5,0c0-0.3,0-0.7,0-1c0-0.1,0-0.2,0-0.3c0-0.1-0.1-0.1-0.2-0.2c-0.1,0-0.1,0-0.2,0
			c-0.4,0-0.9,0-1.3,0C13.7,57.7,13.6,57.7,13.6,57.7L13.6,57.7z M12.4,57.3c0.2-0.3,0.6-0.4,0.9-0.4c0.7,0,1.4,0,2.1,0
			c0.2,0,0.5,0.1,0.7,0.2c0.2,0.1,0.4,0.3,0.4,0.6c0,0.2,0,0.4,0,0.7c0,0.6,0,1.1,0,1.7c-0.3,0-0.8,0-1-0.3c0,0,0,0,0-0.1
			c0,0,0,0,0,0.1c-0.2,0.2-0.5,0.3-0.8,0.3c-0.5,0-1,0-1.4,0c-0.4,0-0.8-0.1-1-0.4c-0.1-0.1-0.1-0.2-0.1-0.3c0,0,0-0.1,0-0.1
			c0-0.4,0-0.8,0-1.1C12.2,57.8,12.3,57.5,12.4,57.3z"/>
		<path class="st5" d="M17.3,56.9c0.4,0,0.7,0.1,1,0.4c0.2-0.3,0.5-0.4,0.8-0.4c0.4,0,0.8,0,1.1,0c0.3,0,0.6,0.1,0.8,0.2
			c0,0,0,0,0,0c0.2,0.1,0.3,0.3,0.3,0.6c0,0.8,0,1.5,0,2.3c-0.4,0-0.8,0-1.1,0c0-0.7,0-1.3,0-2c0-0.1-0.1-0.2-0.2-0.3
			c-0.1,0-0.3,0-0.4,0c-0.4,0-0.8,0-1.2,0c0,0.8,0,1.5,0,2.3c-0.4,0-0.8,0-1.1,0C17.3,58.9,17.3,57.9,17.3,56.9z"/>
		<path class="st5" d="M37.8,57.7c-0.2,0-0.2,0.3-0.2,0.5c0.6,0,1.3,0,1.9,0c0.3,0,0.3-0.4,0.1-0.5c-0.1,0-0.3,0-0.4,0
			c-0.3,0-0.7,0-1,0C38,57.7,37.9,57.7,37.8,57.7L37.8,57.7z M37,57c0.3-0.1,0.6-0.1,0.9-0.1c0.6,0,1.3,0,1.9,0
			c0.3,0,0.7,0.1,0.9,0.4c0.2,0.3,0.2,0.6,0.2,0.9c0,0.3-0.3,0.5-0.6,0.5c-0.7,0-1.3,0-2,0c-0.3,0-0.6-0.1-0.7-0.3
			c0,0.2,0,0.4,0,0.6c0,0.1,0.1,0.2,0.2,0.2c0.1,0,0.3,0,0.4,0c0.6,0,1.2,0,1.8,0c0.4,0.1,0.7,0.4,0.7,0.8c-1,0-2.1,0-3.1,0
			c-0.2,0-0.5,0-0.7-0.1c-0.3-0.1-0.4-0.4-0.5-0.6c0-0.5,0-1,0-1.6C36.5,57.4,36.7,57.1,37,57z"/>
		<path class="st5" d="M47.1,57.7c-0.1,0-0.2,0.1-0.2,0.2c0,0.3,0,0.7,0,1c0,0.1,0.1,0.2,0.2,0.2c0.1,0,0.2,0,0.3,0
			c0.5,0,1.1,0,1.6,0c0-0.3,0-0.7,0-1c0-0.1,0-0.2,0-0.3c0-0.1-0.1-0.2-0.2-0.2c-0.1,0-0.2,0-0.4,0c-0.3,0-0.7,0-1,0
			C47.3,57.7,47.2,57.7,47.1,57.7L47.1,57.7z M45.9,57.4c0.2-0.3,0.6-0.5,0.9-0.5c0.6,0,1.3,0,1.9,0c0.3,0,0.6,0,0.9,0.1
			c0.3,0.1,0.6,0.5,0.6,0.9c0,0.7,0,1.4,0,2.1c-0.4,0-0.8,0-1-0.4c-0.2,0.3-0.6,0.3-0.9,0.4c-0.5,0-0.9,0-1.4,0
			c-0.4,0-0.8-0.2-1-0.5c-0.2-0.3-0.1-0.7-0.1-1C45.7,58.1,45.7,57.7,45.9,57.4z"/>
	</g>
</g>
</svg>
