<?xml version="1.0" encoding="utf-8"?>
<!-- Generator: Adobe Illustrator 20.1.0, SVG Export Plug-In . SVG Version: 6.00 Build 0)  -->
<svg version="1.1" id="Layer_1" xmlns="http://www.w3.org/2000/svg" xmlns:xlink="http://www.w3.org/1999/xlink" x="0px" y="0px"
	 viewBox="0 0 60 60" style="enable-background:new 0 0 60 60;" xml:space="preserve">
<style type="text/css">
	.st0{fill:#2C241A;}
	.st1{fill:#FFF6B1;}
	.st2{fill:#E30612;}
	.st3{fill:#F7A70B;}
	.st4{fill:#FEF481;}
</style>
<g>
	<path class="st0" d="M29,1.8c0.6-0.4,0.8-1.1,1.1-1.8c0.2,0.6,0.4,1.2,0.9,1.6c2.4,2,5.5,2.5,8.1,4.1c1.2,0.7,2.3,1.6,3.1,2.6
		c1.2,1.4,1.8,3.3,3,4.7c0.6,0.7,1.4,1.2,2.2,1.7c-0.8,0.5-1.7,0.8-2.5,1.1c0.5,0.4,1.2,1,1.9,0.6c0.1-0.3,0.2-0.7,0.3-1
		c0.4-0.1,0.7,0.1,1,0.3c0.1,0.4,0.2,0.7,0.2,1.1c0.9,0.2,1.1,1.1,1.2,1.9c-0.1,0.2-0.2,0.3-0.3,0.5c0.3,0.5,0.5,0.9,0.7,1.5
		c-0.3,0.6-0.5,1.2-0.9,1.7c0,0.2-0.1,0.5-0.1,0.7c0.9,0.6,0.7,1.6,0.7,2.5c0.5-0.4,0.6-1.3,1.3-1.4c0.6,0.4,0.7,1.2,0.8,1.8
		c0.2,0.5-0.2,0.9-0.4,1.3c0.2,0.4,0.7,0.8,0.6,1.3c0.1,0.6-0.4,0.8-0.8,1.2c-0.1,0.4-0.1,1-0.6,1.2c-0.6,0.2-1.1,0.7-1.5,1.3
		c0.7,0.1,0.7,0.8,0.8,1.3c0.2,0.2,0.5,0.4,0.7,0.7c0.4-0.1,0.9-0.5,1.3-0.2c0.1,0.7,0,1.5-0.3,2.1c0,0.3,0.3,0.7-0.1,0.9
		c-0.3,0.2-0.6,0.3-0.9,0.4c0.5,0.6,0.6,1.4,0.3,2.1c-0.3,0.1-0.7,0.1-1,0.2c-0.4,1-1.9,0.4-2.2,1.5c0.1,0.5,0.1,1,0.1,1.6
		c0.5-0.1,1-0.2,1.5-0.3c0.5,0.7,0,1.4-0.2,2.1c-0.2,0.4-0.6,0.7-0.8,1.1c-0.2-0.1-0.6-0.2-0.8-0.2c0,0.5,0.2,0.9,0.3,1.4
		c-0.1,0.3-0.4,0.5-0.6,0.7c-0.1,0.4-0.2,0.9-0.8,0.8C45.2,48.3,44,49,43,49.8c0.3,0.3,0.6,0.5,0.6,0.9c0.1,0.5-0.4,0.8-0.7,1.1
		c0.1,0.9-1.1,1.3-0.9,2.2c0.6,0.1,1.2,0.2,1.8,0.3c-0.1,0.3-0.1,0.5-0.2,0.8c-0.2,0.1-0.5,0.1-0.8,0.2c-0.3,0.2-0.5,0.5-0.8,0.7
		c-0.3,0-0.5-0.1-0.8-0.2c-0.2,0.7-0.7,1-1.2,1.4c-1.4-0.1-2.9-0.6-4.2,0.1l0.4,0.2c-0.1,0.2-0.3,0.5-0.4,0.7
		c1.5-0.2,3.3-0.5,4.7,0.2c-0.8,0.1-1.6,0.1-2.4,0.2c0.3,0.5,0.7,1,1.1,1.4c-1-0.2-2-0.3-3-0.2c-0.9,0-1.9,0.2-2.7-0.4
		c-0.3-0.3,0.3-0.5,0.4-0.8c-1-0.1-2.1-0.1-2.7-1c-0.6,0-1.1-0.1-1.7,0c-0.2-0.1-0.3-0.2-0.5-0.3c-0.6,1-1.8,0.9-2.8,1.1
		c0.2,0.2,0.4,0.4,0.6,0.7c-1.6,1.2-3.7,0.8-5.6,0.5c0.3-0.3,0.6-0.5,0.9-0.8c-0.8-0.4-1.6-0.6-2.3-1.1c1.5,0,3,0.4,4.6,0.1
		c-0.1-0.3-0.2-0.6-0.4-0.8c0.4-0.1,0.8-0.3,1.2-0.2c1.2,0.1,2.4,0,3.5-0.4c-1.9-0.2-3.7,0.4-5.6,0.2c-2.3-0.1-4.2-1.3-6-2.6
		c-0.5-0.4-1.1-0.3-1.6-0.3c0.7-0.9,1.7-1.4,2.8-1.5c-0.2-0.5-0.3-0.9-0.4-1.4c-1.9-0.8-3.6-1.8-5.1-3.2c-0.9-0.8-1.1-2-1.6-3
		c-0.2-0.5-0.7-0.6-1.1-0.8c0.9-0.5,2-0.5,2.9-0.1c0.1-0.7,0.2-1.3,0.4-2c-1.6-0.9-2.9-2.3-3.9-3.8c-0.5-0.9-0.6-1.9-0.8-2.9
		c-0.1-0.6-0.6-0.9-1-1.3c1-0.1,2,0,2.9,0.6c0.2-0.5,0.4-1.1,0.6-1.6c-1.2-1.1-2.1-2.5-2.4-4.1c-0.4-1.6,0.3-3.2,0-4.8
		c0.6,0.8,1.2,1.5,1.7,2.4c0.3-0.7,0.8-1.3,1.3-1.8c-0.5-0.7-1-1.5-1-2.3c-0.3-2.3,0.8-4.4,1.7-6.4c0.8,0.4,1.5,1.2,1.3,2.1
		c0.7-0.8,1.5-1.4,2.3-1.9c-0.9-0.5-1.9-0.9-2.5-1.8c1.1-0.4,1.8-1.3,2.5-2.2c1-1.5,1.8-3,3-4.3c1.3-1.4,3-2.5,4.8-3.2
		C25.7,3.5,27.5,2.9,29,1.8 M30.1,1.3c-1.6,1.9-4.1,2.6-6.4,3.5c-1.8,0.7-3.4,1.9-4.6,3.3c-1.7,1.9-2.6,4.5-4.8,6.1
		c0.7,0.5,1.5,0.8,2.2,1.2c1.1,0.6,1.7,1.6,2.7,2.2c1.5-2.3,3.5-4.4,5.9-5.7c2.6-1.4,5.8-1.7,8.6-0.7c3.1,1.1,5.5,3.6,7.3,6.4
		c0.6-0.3,1.3-0.6,1.8-1.1c1.1-1,2.6-1.2,3.9-1.8c-0.6-0.4-1.3-0.9-1.7-1.4c-1.3-1.5-1.9-3.3-3.1-4.8C40.6,7,39,6,37.4,5.2
		C34.9,4,32,3.4,30.1,1.3 M27.5,11.4c-3.2,0.9-5.8,3.3-7.6,6.1c-3.3,5.1-4.4,11.5-3.4,17.4c0.7,4.5,2.5,8.8,5.7,12.1
		c5.4,0,10.7-0.1,16.1-0.2c2.5-2.6,4.1-5.9,5-9.3c1.5-5.7,1.1-11.9-1.4-17.3c-1.4-3.1-3.6-6-6.5-7.7C33,11.1,30.1,10.6,27.5,11.4
		 M15.7,19.3c0.7-0.5,1.6-0.8,2.5-0.8c-0.5,1.3-1.1,2.5-1.9,3.7c-0.7,1.1-1.9,1.7-3,2.2c0,0.5,0.1,1,0.1,1.5
		c0.6-0.4,1.2-0.8,1.8-1.3c-0.3,1.2,0.3,2.4-0.1,3.5c-0.6,1.9-1.7,3.7-2,5.7c0.6-0.7,1.2-1.5,1.6-2.3c0.3,0.9-0.2,1.8,0.2,2.6
		c0.4,1,0.7,2,0.5,3c-0.1,1.4-0.7,2.7-0.9,4c0.2,0.6,0.8,1.1,1.1,1.6c0.3-0.9,0.8-1.6,1-2.5c0.5,0.7,0.7,1.6,0.9,2.4
		c0.3,0.9,0.9,1.7,1.1,2.7c0.4,1.3,0.4,2.7,0.1,4c0.5,0.2,1,0.5,1.5,0.7c-0.2-1,0-2-0.2-2.9c0.6,0.4,0.9,1.1,1.3,1.7
		c0.6,0.7,1.6,1,2.2,1.8c0.7,1.1,1,2.4,1.4,3.7c0.1,0.5,0.7,0.5,1,0.8c-0.8-0.6-0.4-1.7-0.5-2.6c0-0.9,1.1-0.6,1.7-0.6
		c0.9,0.1,1.8-0.4,2.7-0.6c0.8,0.1,1.6,0.7,2.4,0.5c0.7,0,1.6-0.3,2.2,0.2c0.3,0.6,0.2,1.3,0,2c-0.5,0.4-1.1,0.8-1.6,1.4
		c1-0.1,1.6-0.8,2.1-1.6c0.1-0.4,0.1-0.9,0.4-1.3c0.4-0.4,0.3-1,0.5-1.5c0.4-0.3,0.7-0.5,1.1-0.8c0.4-0.3,1-0.3,1.3-0.7
		c0.3-0.2,0.5-0.7,0.9-0.5c0.3,0,0.4,0.4,0.5,0.7c0.8-0.7,1.3-1.7,1.4-2.8c-0.1-0.5-0.4-1-0.5-1.5c0.4-0.5,0.8-1.1,1.4-1.3
		c-0.1-0.5-0.1-1,0.2-1.4c0.6-0.6,0.4-1.6,1.2-1.9c0.4,0.5,0.7,0.9,1.2,1.4c0.5-0.6,0.7-1.4,0.9-2.1c0.1-1.1-0.8-1.9-1-2.9
		c0.1-0.6,0.3-1.3,1-1.6c-0.2-0.3-0.5-0.7-0.7-1c0.3-0.2,0.5-0.4,0.8-0.6c0.1-0.4-0.2-1.1,0.4-1.3c0.4-0.2,0.7,0.3,1,0.5
		c-0.5-1.1-1.5-2-1.3-3.3c-0.2-0.2-0.5-0.4-0.7-0.6c0.3-0.5,0.3-1,0.2-1.5c0.6-0.8,0.3-1.8-0.1-2.7c0.3-0.1,0.5-0.4,0.8-0.3
		c0.3,0.3,0.5,0.6,0.8,0.9c0.2-0.3,0.5-0.7,0.7-1c-0.3-0.4-0.6-0.8-0.9-1.1c-0.5-0.4-1.1-0.3-1.6-0.6c-0.3-0.3-0.4-0.6-0.6-0.9
		c-0.7-0.5-1.7-1.2-1.2-2.2c-0.4-0.7-0.8-1.3-0.9-2.1c-0.1-0.1-0.2-0.2-0.2-0.3c-0.2,0.1-0.6,0.3-0.7,0.4c3.1,5.3,3.9,11.8,2.8,17.8
		c-0.8,4.4-2.8,8.7-6,11.8c-2.1,2-5,3.4-8,3.4c-3.3,0-6.4-1.7-8.6-4.1c-3-3.2-4.7-7.5-5.4-11.8c-0.9-5.8,0-12,3-17.1
		c-1-0.6-1.7-1.6-2.6-2.2C15.8,16.8,15.8,18.1,15.7,19.3 M46.5,17.1c0.3,0.6,1.1,0.7,1.5,1.2c0.2,0.4-0.1,0.8-0.1,1.2
		c0.9,1.1,0.3,2.6,0.3,3.9c0.2-0.1,0.4-0.2,0.5-0.3c0-0.3,0.1-0.5,0.1-0.8c0.3-0.5,0.6-1,0.8-1.6c-0.2-0.4-0.5-0.8-0.6-1.3
		c0-0.6,0.3-1.2,0-1.7c-0.3-0.4-0.8-0.5-1-1c-0.2-0.4-0.3-0.8-0.5-1.1C47.4,16.2,47.1,16.8,46.5,17.1 M11.1,21.2
		c0,1,0.3,2.1,1.1,2.8c0.2-1.3,0.1-2.7,0.4-4c0.2-1,0.8-1.8,0.8-2.8c0-0.5-0.5-0.9-0.7-1.3C11.9,17.6,11.2,19.3,11.1,21.2
		 M42.2,17.5c0.7,0.3,1.5,0.3,2.2,0.5c0-0.6,0-1.3-0.1-1.9C43.6,16.5,42.9,17,42.2,17.5 M44.6,16.1c0.1,0.7,0.1,1.4,0.1,2.1
		c0.3,0.3,0.5,0.5,0.8,0.8c-0.2,0.2-0.4,0.4-0.6,0.7c0.2,0.5,0.8,0.7,1.2,1c0.1,0.3,0.1,0.6,0.2,0.9c0.6,0.6,1.2,1.1,1.6,1.8
		c0-1,0.2-2.1,0.1-3.1c-0.7-0.4-0.4-1.2-0.2-1.8c-0.4-0.2-0.9-0.4-1.3-0.7c-0.2-0.3-0.3-0.5-0.4-0.8C45.6,16.7,45.1,16.5,44.6,16.1
		 M13.6,18.5c-0.8,1.3-0.8,2.9-0.9,4.4c0.2,0.3,0.4,0.6,0.5,0.8c0.6-0.8,1.2-1.5,1.6-2.4c0.8-1.6,0.4-3.4,0.9-5
		C15,16.9,14.1,17.6,13.6,18.5 M42.6,18c0.3,0.7,0.6,1.3,1,1.9c-0.1,0.2-0.2,0.4-0.3,0.6c0.4,0.5,0.8,0.9,1.3,1.3
		c0.3,0.4,0.6,1,1.2,1.1c0.8,0.1,1.3,0.7,1.9,1.1c-0.2-1.3-1.8-1.8-1.9-3.2c-0.7-0.2-1.1-0.7-1.2-1.4c0.1-0.1,0.4-0.4,0.5-0.5
		C44.4,18.3,43.5,18.1,42.6,18 M15.9,19.7c-0.2,0.4-0.3,0.9-0.5,1.3c-0.4,1.1-1.1,2-1.7,2.9c0.6-0.3,1.3-0.6,1.8-1.1
		c1.1-1.1,1.7-2.6,2.3-4C17.1,19,16.3,19.1,15.9,19.7 M48.5,23.7c-0.4,0.7-0.7,1.5-1.2,2.1c0.3,0.3,0.5,0.5,0.8,0.8
		c-0.2,0.3-0.6,0.5-0.9,0.7c0.2,0.6,0.4,1.2,0.6,1.7c-0.1,0.3-0.3,0.6-0.4,0.9c0.3,0.3,0.6,0.6,0.7,1c0.1,0.8,0,1.5,0.1,2.3
		c0.3-0.5,0.6-1.1,0.7-1.7c0.2-0.9,0.7-1.6,1.1-2.4c-0.3-0.6-0.5-1.3-0.1-2c-0.7-0.8-0.4-1.8-0.4-2.7C49.4,23.8,48.9,23.2,48.5,23.7
		 M10.7,26.7c-0.2,1.4,0.3,2.9,0.7,4.2c0.3,0.2,0.5,0.5,0.8,0.7c-0.1-2.7,1.4-5.4,0.6-8.1C12.1,24.6,11,25.4,10.7,26.7 M49.8,26.1
		c0.2,0.3,0.3,0.5,0.5,0.8c-0.1,0.3-0.2,0.6-0.3,0.9c0.1,0.5,0.5,1,0.2,1.5c-0.4,0.8-0.8,1.6-1,2.4c0.5-0.5,1.1-0.8,1.7-1.2
		c0.2-0.4,0.3-0.8,0.6-1.1c0.2-0.2,0.5-0.4,0.5-0.7c-0.2-0.5-0.5-0.9-0.7-1.4c0.1-0.3,0.3-0.6,0.4-1c-0.1-0.7-0.3-1.3-0.6-1.9
		C50.7,25.1,50.3,25.6,49.8,26.1 M9.3,24.8C9.2,25.9,9,27,9.1,28c0.2,1.6,1,3.2,2.3,4.1c-0.2-1.3-0.9-2.4-1-3.7
		c-0.1-0.7,0-1.4-0.1-2.1C10.1,25.8,9.7,25.3,9.3,24.8 M45.7,25c0.2,0.8,0.4,1.6,0.4,2.4c-0.1,0.2-0.2,0.3-0.3,0.5
		c0.1,0.5,0,0.9-0.1,1.4c0.2,0.1,0.4,0.3,0.6,0.4c0,0.5-0.1,1.1,0.3,1.5c0.5,0.8,0.9,1.6,1.2,2.4c0.1-0.8,0.1-1.5,0.1-2.3
		c0-0.6-0.5-1-0.8-1.5c0.1-0.3,0.3-0.6,0.4-0.9c-0.3-0.6-0.6-1.2-0.5-1.9c0.2-0.2,0.4-0.4,0.7-0.5C46.9,26.1,46.3,25.6,45.7,25
		 M13.3,26.9c-0.3,2-1.1,4.1-0.5,6.1c0.5-1.5,1.2-3,1.7-4.4c0.5-1,0.3-2.2,0.1-3.3C14.2,25.7,13.3,26.1,13.3,26.9 M11,35.6
		c0.4,1.9,1.5,3.5,2.7,5c-0.1-1.4,0-2.7,0-4.1c0-1.8-1-3.3-1.9-4.8C11.6,33,10.7,34.2,11,35.6 M13.7,34.2c0.1,0.9,0.5,1.8,0.4,2.7
		c-0.1,1.4-0.1,2.7,0,4.1c0.6-1.7,1.2-3.5,1-5.3c-0.3-1-0.7-2-0.7-3C14.1,33.1,13.6,33.6,13.7,34.2 M47.6,34
		c0.1,0.3,0.1,0.6,0.1,0.9c-0.4,0.3-0.9,0.7-1.3,1.1c0.2,0.3,0.4,0.5,0.6,0.8c-0.3,0.1-0.5,0.3-0.8,0.4c0.2,1.1,0.5,2.2,0.6,3.3
		c-0.1,0.6-0.7,1.1-0.9,1.7c1.2-0.5,1.6-1.8,2.2-2.9c0.3-0.4,0.9-0.6,1.2-1c0-0.4-0.1-0.7-0.1-1.1c0.3-0.2,0.5-0.4,0.8-0.6
		c0.3-0.6,0.3-1.4,0.4-2c-0.6-0.4-0.8-1.1-0.9-1.8C48.9,33.1,48.3,33.6,47.6,34 M45.5,34.6c0.2,0.3,0.7,0.7,0.4,1.1
		c-0.3,0.5-0.7,0.9-0.9,1.4c0.4,0.8,0.9,1.5,1,2.4c0.1,1.1-0.5,2.2-1.1,3.1c0.7-0.6,1.1-1.4,1.5-2.2c0.1-1.2-0.5-2.3-0.5-3.5
		c0.2-0.1,0.4-0.2,0.6-0.4c-0.1-0.2-0.3-0.5-0.4-0.7c0.4-0.4,0.8-0.9,1.3-1.2c-0.2-0.7-0.5-1.3-1-1.7C46,33.5,46.3,34.4,45.5,34.6
		 M8.8,33.8c0.6,1.4,0.5,3.1,1.5,4.3c0.9,1.3,2,2.5,3.4,3.2c-1.2-1.9-2.9-3.8-3.1-6.1C10.7,34.1,9.5,34,8.8,33.8 M50.8,34.7
		c-0.1,0.7-0.2,1.4-0.4,2.1c-0.3,0.2-0.6,0.4-0.9,0.6c0.1,0.5,0.4,1.1-0.2,1.4c-0.6,0.4-1.2,0.9-1.4,1.6c0.5-0.1,1.2-0.2,1.6-0.6
		c0.4-0.4,0.9-0.4,1.4-0.5c0.1-0.7-0.1-1.3-0.5-1.8c0.4-0.2,0.8-0.5,1.2-0.7c-0.1-0.1-0.2-0.3-0.3-0.5c0.3-0.6,0.4-1.3,0.5-2
		C51.5,34.4,51.2,34.6,50.8,34.7 M13.9,41.1c0,1.3-0.8,2.7-0.1,3.9c0.8,1.6,2.2,2.9,3.5,4.1c-0.3-1.2-0.5-2.4-0.7-3.7
		C16.2,43.7,15,42.4,13.9,41.1 M16.1,43.1c0.2,0.8,0.7,1.5,0.8,2.4c0.2,1.1,0.3,2.2,0.6,3.3c0.4,0.1,0.7,0.2,1.1,0.3
		c0.2-1.6,0.2-3.3-0.6-4.8c-0.6-1-0.9-2.1-1.2-3.2C16.5,41.7,16,42.4,16.1,43.1 M42.5,44.2c-0.4,0.4-0.9,0.8-1.3,1.2
		c0.2,0.5,0.5,0.9,0.5,1.4c0,0.7-0.3,1.3-0.4,2c1-0.8,0.7-2.2,1.5-3.2c-0.1-0.2-0.3-0.5-0.4-0.7c0.3-0.5,0.5-1,0.9-1.5
		c0.4-0.1,0.7-0.1,1.1-0.1c0.1-0.3,0.4-0.5,0.3-0.8c-0.3-0.5-0.7-0.9-1-1.3C43.4,42.3,42.3,43,42.5,44.2 M45.8,42.5
		c-0.6,0.2-1,0.7-1.5,1.1c-0.3,0.1-0.6,0.1-0.9,0.1c-0.2,0.4-0.4,0.9-0.6,1.3c0.2,0.2,0.3,0.5,0.5,0.7c-0.9,0.7-0.6,2-1.3,2.8
		c-0.6,0.9-1.5,1.6-2.1,2.5c1-0.6,1.6-1.6,2.6-2.2c0.7-0.5,1.4-1,2-1.7c0-0.4-0.1-0.8,0.1-1.1c0.6-0.3,1.2-0.1,1.8-0.1
		c0.1-0.7,0.1-1.5,0.3-2.2c0.1-0.5,0.6-0.5,1-0.7c0-0.5,0-1,0.1-1.5C47,41.9,46.5,42.3,45.8,42.5 M46.9,43.7
		c-0.1,0.8-0.1,1.6-0.4,2.4c-0.5,0.4-1.2,0.1-1.8,0.2c0,0.4,0.2,0.9-0.1,1.2c-1.1,1.2-2.7,1.9-3.8,3.2c0.6-0.2,1.3-0.4,1.8-1
		c1-1.1,2.5-1.8,4-1.6c0.2-0.4,0.5-0.9,0.7-1.3c0-0.5-0.3-1.1,0.1-1.6c0.3,0,0.6,0,0.8,0c0.6-0.6,0.9-1.4,1.1-2.2
		c-0.1,0-0.2-0.1-0.3-0.2C48.3,43,47.6,43.4,46.9,43.7 M11.2,43.6c0.9,1.2,1,2.9,2.2,3.9c1.4,1.2,2.9,2.2,4.5,2.8
		c-0.6-0.8-1.4-1.4-2.1-2.1c-1.1-1.1-2.2-2.3-2.6-3.7C13,43.6,11.9,43.8,11.2,43.6 M22.4,47.2c0.4,0.3,0.7,0.6,1.1,0.9
		c4.3,0.1,8.6-0.1,13-0.1c0.7,0,1.1-0.6,1.6-1C32.8,47.1,27.6,47.3,22.4,47.2 M23.8,48.4c0.6,0.3,1.1,0.9,1.8,0.8
		c3.3,0,6.5,0,9.8-0.2c0.5-0.2,0.8-0.5,1.2-0.8C32.3,48.3,28.1,48.4,23.8,48.4 M20.6,48.3c0,0.6-0.1,1.3,0.3,1.8
		c0.3,0.4,0.7,0.7,1,1c1,0.9,1.7,2.2,2.8,3.1c-0.3-1-0.6-2.1-1.1-3c-0.4-0.7-1.2-1.1-1.8-1.6C21.3,49.2,21,48.7,20.6,48.3
		 M17.8,49.3c0.3,0.8,0.6,1.7,0.8,2.5c0.3,0.9,1.1,1.5,2,1.9c1.7,0.8,3.5,1.2,5.3,1.6c-0.7-0.4-1.4-0.8-1.9-1.4
		c-1.1-1.1-1.9-2.5-3.3-3.3C19.7,50,18.8,49.6,17.8,49.3 M25.7,49.5c2.9,1.4,6.4,1.4,9.2-0.2C31.8,49.4,28.7,49.5,25.7,49.5
		 M37.6,50.4c-0.4,0.3-0.8,0.6-1.2,0.9c-0.1,0.6-0.2,1.2-0.6,1.7c-0.1,0.7-0.4,1.3-0.8,1.9c0.4-0.3,0.9-0.5,1.3-0.9
		c0.3-0.4,0.4-0.8,0.6-1.2c0.3,0,0.5-0.1,0.8-0.1c0.1-0.4,0.1-0.9,0.5-1.1c0.3-0.2,0.7,0,1,0c0.1-0.2,0.2-0.5,0.4-0.7
		c0-0.5-0.1-1-0.1-1.4C38.9,49.7,38.4,50.3,37.6,50.4 M39.8,50.3c0.3,0.1,0.4,0,0.3-0.4C39.8,49.9,39.7,50,39.8,50.3 M39.6,51.4
		c-0.1,0.2-0.2,0.5-0.3,0.7c-0.3-0.2-0.5-0.3-0.8-0.5c-0.4,0.3-0.5,0.9-0.7,1.4c-0.3,0-0.5,0-0.8,0c-0.2,0.5-0.4,1.1-0.8,1.4
		c-0.9,0.8-2.1,0.9-3.2,1.3c1,0,1.9,0,2.8-0.3c1-0.4,1.9-0.9,2.9-1.1c0.1,0.3,0.3,0.5,0.4,0.8c0.7-0.1,0.7-0.9,1-1.4
		c0.5,0,1,0.4,1.4,0.1c0.2-0.6,0.3-1.1,0.8-1.5c0-0.6,0.5-1.1,0.9-1.5c0-0.2-0.1-0.5-0.2-0.7C42,50.6,40.9,51.2,39.6,51.4 M28,52.2
		c-0.7,0-1.3,0-2,0c0,0.7,0,1.5,0,2.2c0.8,0.4,1.5,0.8,2.2,1.3c0.2-0.2,0.4-0.4,0.6-0.6c-0.7-0.8-1.4-1.5-2.1-2.2
		c0.1-0.1,0.2-0.2,0.2-0.2c0.4,0.4,0.8,0.8,1.2,1.2c0.5-0.3,1.1-0.6,1.7-0.6c0.8,0,1.6,0.3,2.3,0.5c0.6-0.3,1.1-0.6,1.7-0.9
		c-0.3,0.6-0.8,0.8-1.4,1.1c-0.4,0.2-0.6,0.7-0.9,1c0.2,0.2,0.5,0.4,0.7,0.6c0.7-0.6,1.4-1.3,2.1-1.9c0.1-0.5,0-1,0-1.5
		c-0.7-0.1-1.5,0-2.2,0c-0.8,0.1-1.5-0.4-2.2-0.5C29.3,51.8,28.7,52.1,28,52.2 M16.4,53.1c1.5,0.8,2.8,2,4.4,2.6
		c2.2,0.9,4.7,0.4,7,0.3c-1.7-0.4-3.5-0.6-5.1-1.1c-1.6-0.5-3.2-1.1-4.2-2.4C17.8,52.6,17.1,52.8,16.4,53.1 M28.3,54.1
		c0.2,0.2,0.4,0.5,0.6,0.7c0.8-0.1,1.6-0.2,2.4,0c0.1-0.3,0.3-0.5,0.4-0.8C30.7,53.6,29.4,53.4,28.3,54.1 M40.3,54.1
		c-0.1,0.4-0.1,1-0.6,1.1c-0.5,0.3-1-0.2-1.3-0.5c-0.9,0.3-1.8,0.9-2.8,1.1c-1,0.2-2,0.1-3.1,0.3c1.2,0.1,2.4,0.2,3.6,0.5
		c1.2-0.1,2.5-0.2,3.6,0.2c0.5-0.4,0.9-0.9,1.2-1.5c0.3,0,0.6,0.1,0.8,0.2c0.5-0.4,1-0.7,1.6-0.9c-0.6-0.1-1.2-0.2-1.8-0.4
		C41.3,54.3,40.8,54.2,40.3,54.1 M29.5,55c-0.3,0.2-0.5,0.4-0.8,0.6c0.2,0.6,0.4,1.2,0.8,1.7c0.5-0.1,1.1,0,1.6,0
		c0.4-0.4,0.6-1,0.8-1.5c-0.4-0.3-0.8-0.6-1.2-0.8C30.3,55.1,29.9,55.1,29.5,55 M31.6,56.6c1.2,0.5,2.6,0.5,3.9,0.5
		c0-0.1,0-0.2,0-0.3c-1-0.2-1.9-0.2-2.9-0.3C32.4,56.5,32,56.5,31.6,56.6 M24.4,57c0.3,0.5,0.7,1,1.2,1.4c0.8-0.4,1.7-0.4,2.5-0.6
		c0.4-0.2,0.9-0.6,0.7-1.1C27.3,57.1,25.8,57,24.4,57 M31.5,57c0.2,0.4,0.3,0.8,0.7,1c0.8,0.3,1.8,0.1,2.5,0.6
		c0.5-0.3,0.9-0.7,1.3-1.2C34.5,57.4,33,57.4,31.5,57 M21.3,58c0.4,0.2,0.8,0.4,1.1,0.7c-0.1,0.2-0.2,0.5-0.3,0.7
		c1.4,0.1,3,0.4,4.3-0.4c-0.6-0.3-1.2-0.6-1.7-1C23.6,58.2,22.4,58.2,21.3,58 M35.6,58.4c-0.6,0.4-1.2,0.6-1.8,0.9
		c1.5,0.5,3.1-0.1,4.7,0.3c-0.3-0.4-0.6-0.9-0.1-1.4C37.4,58.2,36.5,58.4,35.6,58.4L35.6,58.4z"/>
	<path class="st1" d="M30.1,1.3c1.9,2.1,4.8,2.8,7.2,4C39,6,40.6,7,41.8,8.5c1.2,1.5,1.9,3.4,3.1,4.8c0.5,0.6,1.1,1,1.7,1.4
		c-1.3,0.6-2.8,0.8-3.9,1.8c-0.5,0.5-1.1,0.8-1.8,1.1c-1.7-2.8-4.2-5.2-7.3-6.4c-2.8-1-6-0.8-8.6,0.7c-2.5,1.3-4.4,3.4-5.9,5.7
		c-1-0.6-1.7-1.7-2.7-2.2c-0.7-0.4-1.5-0.8-2.2-1.2c2.2-1.5,3.1-4.1,4.8-6.1c1.3-1.5,2.9-2.6,4.6-3.3C26,3.8,28.6,3.2,30.1,1.3
		 M29.8,2.7c0,0.1,0.1,0.3,0.1,0.5c0.3-0.1,0.6-0.3,0.8-0.4C30.5,2.8,30.1,2.7,29.8,2.7 M29.8,6.9c0.2,0.2,0.5,0.4,0.8,0.6
		c-0.3,0.8-1.3,1.4-2.1,1.1c-0.8-0.7-0.1-1.8,0-2.7c-0.5,0.9-0.7,2-0.5,3c0.2,0.7,1.1,0.8,1.6,0.5c0.8-0.6,1.2-1.6,1.1-2.6
		c-0.2-0.4-0.5-0.7-0.6-1.1c0.8,0.1,1-0.7,1-1.3c-0.2,0.1-0.5,0.3-0.6,0.4c-0.1-0.5-0.1-0.9-0.2-1.4C30.1,4.6,30,5.7,29.8,6.9
		 M26.2,4.7c-0.1,1.1,0.3,2.1,0.6,3.2C26.8,6.8,26.5,5.7,26.2,4.7 M23,6.5c0.1,1.1,0.5,2,1,3C23.9,8.4,23.4,7.4,23,6.5 M37.6,7.2
		c0.1,0.1,0.3,0.3,0.4,0.4c0.4-0.2,0.7-0.5,0.6-1C38.2,6.8,37.9,7,37.6,7.2 M25.1,8.3c0,0.7-0.4,1.2-0.6,1.8
		c0.3-0.3,0.8-0.4,0.8-0.9c0-0.8,0.3-1.6,0.4-2.3C25.4,7.3,25.1,7.8,25.1,8.3 M31.1,8.5c0.4,0.6,1,0.8,1.6,1.1
		c1.3,0.6,2.8,0.9,4.1,0.2c-0.3,0.6-0.8,1.1-0.8,1.8c0.4,0.4,0.8-0.2,1.2-0.4c-0.1-0.1-0.4-0.2-0.5-0.3c-0.1-1,0.9-1.8,1.5-2.5
		C39.6,8.5,40.8,8.8,42,9c-0.8-0.6-1.9-0.6-2.9-0.7c-1.1-0.2-1.6,1-2.4,1.5c-1.9,0-4-0.5-5.2-2.1C31.4,8,31.2,8.2,31.1,8.5
		 M21.7,7.9c0.2,0.8,0.8,1.5,1,2.3c0,1-0.9,2-1.9,1.8c-0.6-0.4-0.6-1.2-0.9-1.8c0.2,0.7,0.3,1.5,0.8,2.1c0.2,0.3,0.7,0.6,1.1,0.5
		c0.8-0.2,1.2-1,1.2-1.8C23,9.8,22.5,8.7,21.7,7.9 M26.5,9.6c-0.3,0-0.5-0.1-0.8-0.1c0,0.3-0.1,0.6-0.1,0.9c0.2,0,0.4,0,0.7,0.1
		c0-0.2,0.1-0.5,0.1-0.6c0.2,0,0.5,0.1,0.7,0.2c0-0.2,0.1-0.6,0.2-0.8c-0.2-0.1-0.5-0.2-0.6-0.3C26.6,9,26.5,9.4,26.5,9.6
		 M38.4,12.2c0.4,0,0.8-0.2,1.1-0.3c-0.2-0.2-0.3-0.4-0.5-0.7c0.4-0.7,0.9-1.4,1.3-2.1C39.4,9.9,38.5,10.9,38.4,12.2 M21,9.7
		c0,0.3,0,0.6,0,0.9c0.2,0,0.5,0,0.7,0c0-0.3,0-0.6,0-0.9C21.4,9.7,21.2,9.7,21,9.7 M37.9,13.4c0.2-0.1,0.5-0.2,0.7-0.4
		c0-0.2,0-0.5-0.1-0.7C38.1,12.6,37.5,12.8,37.9,13.4L37.9,13.4z"/>
	<path class="st2" d="M29.8,2.7c0.3,0,0.6,0,0.9,0.1c-0.3,0.1-0.6,0.3-0.8,0.4C29.9,3.1,29.9,2.8,29.8,2.7 M29.8,6.9
		c0.2-1.2,0.3-2.3,0.4-3.5c0.1,0.5,0.1,0.9,0.2,1.4c0.2-0.1,0.5-0.3,0.6-0.4c0,0.6-0.1,1.4-1,1.3c0.1,0.4,0.4,0.8,0.6,1.1
		c0.1,1-0.2,2.1-1.1,2.6C29,9.8,28.1,9.7,27.9,9c-0.2-1,0-2.1,0.5-3c-0.1,0.9-0.8,2,0,2.7c0.9,0.3,1.8-0.3,2.1-1.1
		C30.3,7.3,30,7.1,29.8,6.9 M26.2,4.7c0.3,1,0.6,2.1,0.6,3.2C26.4,6.9,26.1,5.8,26.2,4.7 M23,6.5c0.4,0.9,0.9,1.9,1,3
		C23.5,8.5,23.1,7.5,23,6.5 M37.6,7.2c0.3-0.2,0.6-0.4,1-0.6c0.1,0.5-0.2,0.8-0.6,1C37.8,7.5,37.7,7.3,37.6,7.2 M25.1,8.3
		c0-0.5,0.2-1,0.5-1.4c0,0.8-0.3,1.6-0.4,2.3c0,0.4-0.5,0.6-0.8,0.9C24.7,9.5,25.1,8.9,25.1,8.3 M31.1,8.5c0.1-0.3,0.2-0.6,0.4-0.8
		c1.2,1.6,3.3,2.1,5.2,2.1c0.8-0.5,1.3-1.7,2.4-1.5c1,0.1,2.1,0.1,2.9,0.7c-1.2-0.2-2.4-0.5-3.6-0.6c-0.6,0.8-1.6,1.5-1.5,2.5
		c0.1,0.1,0.4,0.2,0.5,0.3c-0.4,0.2-0.8,0.7-1.2,0.4c-0.1-0.7,0.5-1.2,0.8-1.8c-1.3,0.7-2.8,0.3-4.1-0.2C32.1,9.3,31.5,9.1,31.1,8.5
		 M21.7,7.9C22.5,8.7,23,9.8,23,11c0,0.8-0.5,1.6-1.2,1.8c-0.4,0.1-0.8-0.1-1.1-0.5c-0.5-0.6-0.6-1.4-0.8-2.1
		c0.3,0.6,0.3,1.4,0.9,1.8c1,0.2,1.9-0.9,1.9-1.8C22.5,9.3,21.8,8.7,21.7,7.9 M26.5,9.6c0-0.2,0.1-0.5,0.2-0.7
		c0.2,0.1,0.5,0.2,0.6,0.3c0,0.2-0.1,0.6-0.2,0.8c-0.2,0-0.5-0.1-0.7-0.2c0,0.2-0.1,0.5-0.1,0.6c-0.2,0-0.4,0-0.7-0.1
		c0-0.3,0.1-0.6,0.1-0.9C26,9.5,26.2,9.5,26.5,9.6 M38.4,12.2c0.1-1.3,1.1-2.3,1.9-3.1c-0.4,0.7-0.9,1.4-1.3,2.1
		c0.2,0.2,0.3,0.4,0.5,0.7C39.1,12,38.8,12.2,38.4,12.2 M21,9.7c0.2,0,0.5,0,0.7,0c0,0.3,0,0.6,0,0.9c-0.2,0-0.5,0-0.7,0
		C21,10.3,21,10,21,9.7 M37.9,13.4c-0.4-0.6,0.3-0.8,0.7-1.1c0,0.2,0.1,0.5,0.1,0.7C38.4,13.2,38.1,13.3,37.9,13.4 M27.6,20.7
		c0.3,0.6,0.5,1.4,1.3,1.4c0.6,0.1,0.9-0.4,1.3-0.8c0.3,0.4,0.6,0.9,1.2,0.8c0.7,0,0.9-0.8,1.3-1.3c0.2,0.7,0.1,1.6-0.6,2
		c-0.6,0.3-1.3,0-1.9-0.2c-0.9,0.4-2,0.4-2.6-0.4C27.5,21.8,27.5,21.3,27.6,20.7 M29,23.8c0.4-0.4,0.8-0.7,1.2-1
		c0.4,0.4,0.9,0.6,1.1,1.1c0,3.6-0.1,7.2-0.1,10.8c3.3-2.7,3.9-7.9,1.5-11.3c1.2,0.9,2.1,2.2,2.7,3.7c0.7,2.1,0.4,4.6-0.7,6.5
		c-0.6,1.1-1.6,2-2.5,2.8c1.1,0.5,2.3,0.6,3.5,0.6c-1.4,0.8-3.1,0.5-4.7,0.6c-0.2,0.4-0.4,0.7-0.6,1.1c-0.3-0.4-0.5-0.8-0.8-1.1
		c-1.5-0.2-3.3,0.4-4.6-0.8c1.2,0.1,2.4,0.2,3.5-0.3c-1.3-1.3-2.7-2.7-3.3-4.5c-1.1-3,0-6.6,2.7-8.4c-2.6,3.3-2,8.7,1.5,11.2
		C29.1,31,28.9,27.4,29,23.8 M22,27.1c1-1.9,2.8-3.3,4.9-4c-1.6,1.6-3.2,3.3-3.7,5.5c-0.6,2.5,0.4,5,1.2,7.3
		C21.8,34,20.5,30.1,22,27.1 M33.6,23.2c2,0.7,3.8,2.2,4.7,4.2c1.4,3,0,6.9-2.7,8.6c0.6-1.5,1.3-2.9,1.5-4.5
		c0.4-1.9-0.1-3.9-1.2-5.5C35.2,24.9,34.3,24.1,33.6,23.2L33.6,23.2z"/>
	<path class="st3" d="M46.5,17.1c0.6-0.3,0.9-0.9,1.1-1.6c0.2,0.4,0.3,0.8,0.5,1.1c0.2,0.5,0.7,0.6,1,1c0.3,0.5,0.1,1.1,0,1.7
		c0.2,0.5,0.4,0.9,0.6,1.3c-0.3,0.5-0.5,1.1-0.8,1.6c0,0.3-0.1,0.5-0.1,0.8c-0.2,0.1-0.4,0.2-0.5,0.3c0-1.3,0.6-2.8-0.3-3.9
		c0.1-0.4,0.4-0.8,0.1-1.2C47.5,17.8,46.8,17.8,46.5,17.1 M11.1,21.2c0-1.9,0.8-3.6,1.6-5.3c0.3,0.4,0.7,0.8,0.7,1.3
		c0,1-0.6,1.9-0.8,2.8c-0.3,1.3-0.2,2.7-0.4,4C11.5,23.3,11.1,22.2,11.1,21.2 M42.6,18c0.9,0,1.8,0.3,2.5,0.9
		c-0.1,0.1-0.4,0.4-0.5,0.5c0.2,0.7,0.6,1.2,1.2,1.4c0.1,1.4,1.7,1.9,1.9,3.2c-0.6-0.5-1.1-1-1.9-1.1c-0.6,0-0.9-0.6-1.2-1.1
		c-0.5-0.3-1-0.8-1.3-1.3c0.1-0.2,0.2-0.4,0.3-0.6C43.2,19.3,42.9,18.7,42.6,18 M15.9,19.7c0.4-0.6,1.2-0.7,1.9-0.9
		c-0.6,1.4-1.2,2.9-2.3,4c-0.5,0.5-1.2,0.8-1.8,1.1c0.6-0.9,1.4-1.8,1.7-2.9C15.5,20.5,15.6,20.1,15.9,19.7 M49.8,26.1
		c0.5-0.5,0.9-1,1.3-1.6c0.2,0.6,0.4,1.3,0.6,1.9c-0.2,0.3-0.3,0.6-0.4,1c0.2,0.5,0.5,0.9,0.7,1.4c0,0.3-0.3,0.5-0.5,0.7
		c-0.3,0.3-0.4,0.8-0.6,1.1c-0.6,0.4-1.2,0.7-1.7,1.2c0.3-0.8,0.7-1.6,1-2.4c0.3-0.5-0.1-1-0.2-1.5c0.1-0.3,0.2-0.6,0.3-0.9
		C50.1,26.6,49.9,26.4,49.8,26.1 M9.3,24.8c0.4,0.5,0.8,1,1,1.5c0.1,0.7,0,1.4,0.1,2.1c0.2,1.3,0.8,2.5,1,3.7
		c-1.3-1-2.1-2.5-2.3-4.1C9,27,9.2,25.9,9.3,24.8 M45.7,25c0.6,0.5,1.2,1,1.9,1.5c-0.2,0.2-0.5,0.3-0.7,0.5
		c-0.1,0.7,0.3,1.3,0.5,1.9c-0.1,0.3-0.3,0.6-0.4,0.9c0.2,0.5,0.8,0.9,0.8,1.5c0,0.8,0,1.5-0.1,2.3c-0.3-0.9-0.7-1.7-1.2-2.4
		c-0.3-0.4-0.2-1-0.3-1.5c-0.2-0.2-0.4-0.3-0.6-0.4c0.2-0.4,0.3-0.9,0.1-1.4c0.1-0.2,0.2-0.3,0.3-0.5C46.1,26.6,45.9,25.8,45.7,25
		 M13.3,26.9c0-0.9,0.9-1.2,1.4-1.7c0.1,1.1,0.3,2.2-0.1,3.3C14,30,13.4,31.5,12.9,33C12.2,31,13,28.9,13.3,26.9 M13.7,34.2
		c-0.1-0.6,0.4-1.1,0.7-1.6c0,1.1,0.4,2,0.7,3c0.3,1.8-0.4,3.6-1,5.3c-0.2-1.4-0.1-2.7,0-4.1C14.1,36,13.8,35.1,13.7,34.2
		 M45.5,34.6c0.8-0.2,0.6-1.1,0.9-1.7c0.6,0.4,0.9,1,1,1.7c-0.5,0.4-0.9,0.8-1.3,1.2c0.1,0.2,0.3,0.5,0.4,0.7
		c-0.2,0.1-0.4,0.2-0.6,0.4c0,1.2,0.6,2.3,0.5,3.5c-0.4,0.8-0.8,1.6-1.5,2.2c0.6-0.9,1.2-2,1.1-3.1c-0.2-0.9-0.7-1.6-1-2.4
		c0.2-0.5,0.6-1,0.9-1.4C46.2,35.3,45.6,34.9,45.5,34.6 M8.8,33.8c0.7,0.3,1.9,0.3,1.8,1.4c0.2,2.4,1.9,4.2,3.1,6.1
		c-1.4-0.7-2.5-1.9-3.4-3.2C9.3,36.9,9.4,35.2,8.8,33.8 M50.8,34.7c0.4-0.1,0.7-0.2,1.1-0.4c-0.1,0.7-0.2,1.4-0.5,2
		c0.1,0.1,0.2,0.3,0.3,0.5c-0.4,0.2-0.8,0.4-1.2,0.7c0.3,0.6,0.6,1.2,0.5,1.8c-0.5,0.1-1,0.2-1.4,0.5c-0.4,0.4-1,0.4-1.6,0.6
		c0.2-0.7,0.8-1.2,1.4-1.6c0.5-0.3,0.3-0.9,0.2-1.4c0.3-0.2,0.6-0.4,0.9-0.6C50.6,36.1,50.7,35.4,50.8,34.7 M16.1,43.1
		c-0.1-0.7,0.4-1.4,0.7-2c0.3,1.1,0.6,2.2,1.2,3.2c0.8,1.5,0.8,3.2,0.6,4.8c-0.4-0.1-0.7-0.2-1.1-0.3c-0.3-1.1-0.4-2.2-0.6-3.3
		C16.8,44.6,16.3,43.9,16.1,43.1 M42.5,44.2c-0.2-1.2,0.9-2,1.1-3.1c0.3,0.4,0.7,0.9,1,1.3c0.1,0.3-0.2,0.5-0.3,0.8
		c-0.4,0-0.7,0.1-1.1,0.1c-0.3,0.5-0.5,1-0.9,1.5c0.1,0.2,0.3,0.5,0.4,0.7c-0.8,0.9-0.5,2.3-1.5,3.2c0.1-0.7,0.4-1.3,0.4-2
		c0-0.5-0.3-0.9-0.5-1.4C41.6,45,42,44.6,42.5,44.2 M46.9,43.7c0.7-0.3,1.4-0.7,2.2-0.8c0.1,0,0.2,0.1,0.3,0.2
		c-0.2,0.8-0.5,1.6-1.1,2.2c-0.3,0-0.6,0-0.8,0c-0.4,0.5-0.1,1.1-0.1,1.6c-0.2,0.4-0.5,0.9-0.7,1.3c-1.5-0.2-3,0.5-4,1.6
		c-0.5,0.5-1.1,0.7-1.8,1c1.1-1.3,2.6-2,3.8-3.2c0.4-0.3,0.1-0.8,0.1-1.2c0.6-0.1,1.3,0.2,1.8-0.2C46.8,45.3,46.8,44.5,46.9,43.7
		 M11.2,43.6c0.7,0.1,1.8-0.1,2,0.8c0.5,1.5,1.6,2.7,2.6,3.7c0.7,0.7,1.5,1.3,2.1,2.1c-1.7-0.6-3.2-1.6-4.5-2.8
		C12.2,46.6,12.1,44.8,11.2,43.6 M20.6,48.3c0.4,0.4,0.7,0.9,1.2,1.2c0.6,0.5,1.4,0.8,1.8,1.6c0.5,1,0.8,2,1.1,3
		c-1.1-0.9-1.8-2.1-2.8-3.1c-0.3-0.3-0.7-0.6-1-1C20.5,49.5,20.7,48.9,20.6,48.3 M37.6,50.4c0.8-0.1,1.2-0.7,1.8-1.1
		c0.1,0.5,0.1,1,0.1,1.4c-0.1,0.2-0.2,0.5-0.4,0.7c-0.3,0-0.7-0.2-1,0c-0.4,0.2-0.4,0.7-0.5,1.1c-0.3,0-0.5,0.1-0.8,0.1
		c-0.2,0.4-0.3,0.9-0.6,1.2c-0.4,0.4-0.8,0.6-1.3,0.9c0.4-0.6,0.7-1.2,0.8-1.9c0.4-0.5,0.6-1.1,0.6-1.7C36.8,51,37.2,50.7,37.6,50.4
		 M16.4,53.1c0.7-0.3,1.4-0.5,2.1-0.6c1.1,1.3,2.7,1.9,4.2,2.4c1.7,0.5,3.4,0.7,5.1,1.1c-2.3,0.1-4.8,0.6-7-0.3
		C19.2,55.1,17.9,53.9,16.4,53.1 M40.3,54.1c0.5,0.1,1,0.2,1.5,0.2c0.6,0.1,1.2,0.2,1.8,0.4c-0.6,0.2-1.2,0.5-1.6,0.9
		c-0.3-0.1-0.6-0.1-0.8-0.2c-0.3,0.6-0.7,1.1-1.2,1.5c-1.2-0.4-2.4-0.3-3.6-0.2c-1.2-0.3-2.4-0.4-3.6-0.5c1-0.2,2-0.1,3.1-0.3
		c1-0.3,1.8-0.8,2.8-1.1c0.3,0.4,0.8,0.8,1.3,0.5C40.3,55.1,40.3,54.5,40.3,54.1L40.3,54.1z"/>
	<path class="st4" d="M44.6,16.1c0.4,0.3,0.9,0.6,1.4,0.9c0.2,0.3,0.3,0.5,0.4,0.8c0.4,0.3,0.9,0.5,1.3,0.7
		c-0.2,0.6-0.5,1.4,0.2,1.8c0.1,1-0.1,2.1-0.1,3.1c-0.4-0.7-1.1-1.2-1.6-1.8c0-0.3-0.1-0.6-0.2-0.9c-0.5-0.3-1-0.5-1.2-1
		c0.2-0.2,0.4-0.4,0.6-0.7c-0.3-0.3-0.5-0.5-0.8-0.8C44.8,17.5,44.7,16.8,44.6,16.1 M13.6,18.5c0.5-0.9,1.4-1.6,2.1-2.2
		c-0.5,1.6-0.1,3.5-0.9,5c-0.4,0.9-1,1.6-1.6,2.4c-0.2-0.3-0.4-0.6-0.5-0.8C12.8,21.4,12.8,19.8,13.6,18.5 M48.5,23.7
		c0.4-0.5,0.9,0.2,1,0.6c0,0.9-0.3,2,0.4,2.7c-0.5,0.6-0.3,1.3,0.1,2c-0.4,0.8-0.8,1.6-1.1,2.4c-0.2,0.6-0.4,1.2-0.7,1.7
		c-0.1-0.8,0.1-1.5-0.1-2.3c-0.2-0.4-0.5-0.7-0.7-1c0.1-0.3,0.4-0.6,0.4-0.9c-0.2-0.6-0.5-1.1-0.6-1.7c0.3-0.2,0.6-0.4,0.9-0.7
		c-0.2-0.3-0.5-0.5-0.8-0.8C47.8,25.1,48.1,24.4,48.5,23.7 M10.7,26.7c0.2-1.3,1.3-2.2,2.1-3.1c0.8,2.7-0.6,5.4-0.6,8.1
		c-0.3-0.3-0.5-0.5-0.8-0.7C11,29.6,10.5,28.2,10.7,26.7 M11,35.6c-0.3-1.4,0.6-2.6,0.9-3.9c0.8,1.5,1.8,3,1.9,4.8
		c0,1.4-0.1,2.7,0,4.1C12.5,39.1,11.4,37.5,11,35.6 M47.6,34c0.6-0.4,1.2-0.9,1.9-1.3c0.1,0.7,0.3,1.4,0.9,1.8
		c-0.1,0.7-0.1,1.4-0.4,2c-0.3,0.2-0.6,0.4-0.8,0.6c0,0.4,0.1,0.7,0.1,1.1c-0.3,0.4-0.9,0.6-1.2,1c-0.6,1-1.1,2.3-2.2,2.9
		c0.2-0.6,0.7-1.1,0.9-1.7c0-1.1-0.4-2.2-0.6-3.3c0.3-0.1,0.5-0.3,0.8-0.4c-0.2-0.3-0.4-0.5-0.6-0.8c0.4-0.4,0.8-0.7,1.3-1.1
		C47.7,34.6,47.7,34.3,47.6,34 M13.9,41.1c1.1,1.3,2.4,2.6,2.7,4.4c0.2,1.2,0.3,2.5,0.7,3.7c-1.3-1.2-2.7-2.5-3.5-4.1
		C13.1,43.7,13.9,42.4,13.9,41.1 M45.8,42.5c0.7-0.2,1.2-0.6,1.8-1c0,0.5,0,1-0.1,1.5c-0.3,0.2-0.9,0.2-1,0.7
		c-0.2,0.7-0.1,1.5-0.3,2.2c-0.6,0-1.3-0.1-1.8,0.1c-0.1,0.4-0.1,0.7-0.1,1.1c-0.6,0.6-1.3,1.2-2,1.7c-1,0.6-1.6,1.6-2.6,2.2
		c0.6-0.9,1.5-1.6,2.1-2.5c0.7-0.8,0.4-2.1,1.3-2.8c-0.2-0.2-0.3-0.5-0.5-0.7c0.2-0.4,0.4-0.8,0.6-1.3c0.3,0,0.6,0,0.9-0.1
		C44.8,43.2,45.2,42.7,45.8,42.5 M17.8,49.3c1,0.3,1.9,0.7,2.8,1.2c1.4,0.8,2.2,2.2,3.3,3.3c0.5,0.6,1.2,1,1.9,1.4
		c-1.8-0.4-3.6-0.8-5.3-1.6c-0.8-0.4-1.7-1-2-1.9C18.4,51,18.1,50.1,17.8,49.3 M39.8,50.3c-0.1-0.3,0-0.4,0.3-0.4
		C40.2,50.3,40.1,50.4,39.8,50.3 M39.6,51.4c1.2-0.1,2.3-0.7,3.5-1.2c0,0.2,0.1,0.5,0.2,0.7c-0.4,0.4-0.9,0.8-0.9,1.5
		c-0.5,0.4-0.6,1-0.8,1.5c-0.4,0.2-0.9-0.1-1.4-0.1c-0.3,0.5-0.3,1.3-1,1.4c-0.1-0.3-0.3-0.5-0.4-0.8c-1,0.2-1.9,0.8-2.9,1.1
		c-0.9,0.2-1.9,0.2-2.8,0.3c1.1-0.4,2.3-0.5,3.2-1.3c0.5-0.3,0.6-0.9,0.8-1.4c0.3,0,0.5,0,0.8,0c0.1-0.5,0.2-1,0.7-1.4
		c0.3,0.2,0.5,0.3,0.8,0.5C39.4,51.8,39.5,51.6,39.6,51.4 M28,52.2c0.7,0,1.3-0.4,2-0.6c0.8,0.1,1.4,0.6,2.2,0.5
		c0.7,0,1.5-0.1,2.2,0c0,0.5,0.1,1,0,1.5c-0.7,0.6-1.4,1.3-2.1,1.9c-0.3-0.2-0.5-0.4-0.7-0.6c0.3-0.4,0.4-0.8,0.9-1
		c0.5-0.3,1.1-0.6,1.4-1.1c-0.6,0.3-1.1,0.6-1.7,0.9c-0.7-0.3-1.5-0.5-2.3-0.5c-0.6,0-1.2,0.3-1.7,0.6c-0.4-0.4-0.8-0.8-1.2-1.2
		c-0.1,0.1-0.2,0.2-0.2,0.2c0.7,0.7,1.4,1.4,2.1,2.2c-0.2,0.2-0.4,0.4-0.6,0.6c-0.7-0.5-1.5-1-2.2-1.3c0-0.7,0-1.5,0-2.2
		C26.7,52.2,27.4,52.2,28,52.2 M29.5,55c0.4,0.1,0.9,0.1,1.3-0.1c0.4,0.3,0.8,0.5,1.2,0.8c-0.2,0.5-0.4,1.1-0.8,1.5
		c-0.5,0-1.1,0-1.6,0c-0.4-0.5-0.6-1.1-0.8-1.7C28.9,55.4,29.2,55.2,29.5,55 M24.4,57c1.4,0,2.9,0.1,4.3-0.3
		c0.2,0.5-0.3,0.9-0.7,1.1c-0.8,0.3-1.7,0.2-2.5,0.6C25.1,58,24.7,57.5,24.4,57 M31.5,57c1.5,0.3,3,0.3,4.5,0.4
		c-0.4,0.5-0.8,0.9-1.3,1.2C34,58.1,33,58.3,32.2,58C31.8,57.9,31.6,57.4,31.5,57 M21.3,58c1.1,0.2,2.3,0.2,3.4,0
		c0.5,0.4,1.1,0.7,1.7,1c-1.3,0.7-2.9,0.4-4.3,0.4c0.1-0.2,0.2-0.5,0.3-0.7C22.1,58.4,21.7,58.2,21.3,58 M35.6,58.4
		c0.9,0,1.9-0.2,2.8-0.2c-0.5,0.4-0.2,0.9,0.1,1.4c-1.5-0.3-3.1,0.2-4.7-0.3C34.4,59,35,58.7,35.6,58.4L35.6,58.4z"/>
</g>
</svg>
