<?xml version="1.0" encoding="utf-8"?>
<!-- Generator: Adobe Illustrator 20.1.0, SVG Export Plug-In . SVG Version: 6.00 Build 0)  -->
<svg version="1.1" id="Layer_1" xmlns="http://www.w3.org/2000/svg" xmlns:xlink="http://www.w3.org/1999/xlink" x="0px" y="0px"
	 viewBox="0 0 40 40" style="enable-background:new 0 0 40 40;" xml:space="preserve">
<style type="text/css">
	.st0{fill:#050007;}
	.st1{fill:#98110F;}
</style>
<g id="__x0023_Layer_x0020_3">
	<g id="_908018784">
		<path class="st0" d="M20,2.8c-1,3-1.6,6.1-3.4,8.9c0.8,1.4,1.6,2.4,1.8,4.8c1.2-0.7,1.9-0.7,3.1,0c0.2-2.3,0.8-3.3,1.9-4.7
			C21.5,8.7,20.9,5.9,20,2.8z"/>
		<path class="st1" d="M5.9,6.6l0.5,1.3c-1.1,0.6-2.3,1.9-2.6,3.1v27l14,0c0-3.5,0-7,0-10.5c-4.8-1.2-6.5-5.8-5.7-10.1
			c1.8,0.5,2.8,1.8,3.6,3c0.2-1.6,0.9-2.4,1.5-3.3c1.6,1.3,2.2,4.9,2.1,7.5V40L2.2,40c0-9.6,0-19.7,0-29.3C2.3,9.2,3.7,6.5,5.9,6.6z
			"/>
		<path class="st0" d="M10.9,19.1C9.7,11.8,8.5,7.6,3.6,3.5C11,4.7,15,10.7,17,16.2c-1.3-0.4-2.7-0.7-3.5,0.9
			C12.5,16.3,11.3,15.5,10.9,19.1z"/>
		<path class="st0" d="M11.7,6.4c-1.3-1.3-4-2.2-4.1-3.3S8,1.5,9.7,1.7c0.6-0.6,2.2-0.8,2.2,0.6C11.9,3.7,11.9,4.6,11.7,6.4z"/>
		<path class="st1" d="M13.5,2.2c-0.1,1.6-0.3,2.8-1.1,5c1.3,1.4,1.7,1.9,3.3,3.9c0.8-1.6,1.1-2.5,1.9-3.9C16,5.9,14.9,4.2,13.5,2.2
			z"/>
		<path class="st0" d="M29,19.1c1.2-7.3,2.4-11.5,7.3-15.6C29,4.7,25,10.7,22.9,16.2c1.3-0.4,2.7-0.7,3.5,0.9
			C27.4,16.3,28.6,15.5,29,19.1z"/>
		<path class="st1" d="M26.5,2.2c0.1,1.6,0.3,2.8,1.1,5c-1.3,1.4-1.7,1.9-3.3,3.9c-0.8-1.6-1.1-2.5-1.9-3.9C24,5.9,25,4.2,26.5,2.2z
			"/>
		<path class="st0" d="M17.7,6c-1.4-1.7-3.1-3.4-3.1-4.2c-0.1-0.7-0.2-1.5,1.9-1.2c0.3-0.9,2.1-0.9,2.2,0.4
			C18.8,2.4,18.7,4.1,17.7,6z"/>
		<path class="st0" d="M22.3,6c1.4-1.7,3.1-3.4,3.1-4.2c0.1-0.7,0.2-1.5-1.9-1.2c-0.3-0.9-2.1-0.9-2.2,0.4C21.1,2.4,21.3,4.2,22.3,6
			z"/>
		<path class="st0" d="M28.3,6.4c1.3-1.3,4-2.2,4.1-3.3c0.1-1.1-0.4-1.6-2.1-1.4C29.6,1,28,0.8,28,2.3S28.1,4.5,28.3,6.4z"/>
		<path class="st1" d="M34.1,6.6l-0.5,1.3c1.1,0.6,2.3,1.9,2.6,3.2v27l-14,0c0-3.5,0-7,0-10.5c4.8-1.2,6.5-5.8,5.7-10.1
			c-1.8,0.5-2.8,1.8-3.6,3c-0.2-1.6-0.9-2.4-1.5-3.3c-1.6,1.3-2.2,4.9-2.1,7.5V40l17.1,0c0-9.7,0-19.7,0-29.3
			C37.7,9.2,36.3,6.5,34.1,6.6z"/>
	</g>
</g>
</svg>
