<?xml version="1.0" encoding="utf-8"?>
<!-- Generator: Adobe Illustrator 20.1.0, SVG Export Plug-In . SVG Version: 6.00 Build 0)  -->
<svg version="1.1" id="Layer_1" xmlns="http://www.w3.org/2000/svg" xmlns:xlink="http://www.w3.org/1999/xlink" x="0px" y="0px"
	 viewBox="0 0 60 60" style="enable-background:new 0 0 60 60;" xml:space="preserve">
<style type="text/css">
	.st0{fill:#7CD0F5;}
	.st1{fill:#02AAE8;}
	.st2{fill:#006FB8;}
	.st3{fill:#024B8F;}
</style>
<g>
	<path class="st0" d="M34.2,4.8c0.1-0.1,0.2-0.3,0.4-0.2c1.1,1.3,1.8,2.8,2.2,4.4c0.3-0.1,0.6-0.3,0.9-0.5c1.9-1,4-1.6,6.1-2.2
		c0.1,0,0.1,0,0.2,0c0,1-0.2,2-0.3,2.9c-0.2,1.2-0.5,2.4-1,3.5c-0.1,0.2-0.1,0.3-0.2,0.5c2.4,0,4.7,0.7,6.8,1.7c0,0,0,0,0,0
		c-1.5,1.9-3.1,3.7-5,5.2c-0.2,0.2-0.5,0.4-0.7,0.6c1.4,1.2,2.5,2.9,3.1,4.6c-2.1,0.9-4.4,1.7-6.7,2c0.1,0.7,0.1,1.3,0.1,2
		c-0.1,0.7-0.2,1.3-0.4,2c-0.1,0.2-0.1,0.3-0.2,0.5c-1.3-0.1-2.5-0.3-3.7-0.6c-0.4-0.1-0.8-0.2-1.1-0.3c-0.1,0-0.2,0-0.3-0.1
		c-0.4,0.7-0.9,1.4-1.4,2c-0.2,0.2-0.5,0.5-0.8,0.7c-0.1,0-0.2,0-0.2,0c-0.9-0.6-1.8-1.2-2.6-2c-0.1-0.1-0.2-0.2-0.3-0.3
		c-0.7,0.5-1.6,0.8-2.4,1c-0.1,0-0.2,0-0.3,0c-0.4-0.7-0.9-1.5-1.1-2.3c-0.1-0.2-0.1-0.4-0.2-0.6c-0.9,0.1-1.7,0-2.6-0.3
		c-0.1-0.8-0.1-1.5-0.1-2.3c0-0.2,0-0.4,0.1-0.6c0.5,0.1,0.9,0.3,1.4,0.2c0.4,0,0.8,0,1.2-0.1c-0.2,1-0.3,2,0,3
		c1-0.1,1.8-0.7,2.6-1.2c0.3,1,0.7,2,1.4,2.8c0.1,0.1,0.2,0.2,0.3,0.1c0.5-0.3,0.8-0.8,1.1-1.3c0.3-0.4,0.5-0.9,0.7-1.3
		c0.9,0.9,2,1.7,3.2,2.2c0.1,0,0.2,0,0.3,0.1c0.2-0.6,0.4-1.2,0.4-1.8c0-0.7,0-1.3-0.1-2c1.7,0.4,3.5,0.7,5.3,0.4
		c-0.2-1-0.7-1.9-1.3-2.7c-0.3-0.4-0.7-0.8-1-1.2c1-0.2,1.9-0.6,2.8-0.9c1.1-0.4,2.1-1,3.1-1.7c-0.5-0.5-1.2-0.9-1.9-1.2
		c-1.1-0.4-2.1-0.7-3.3-0.9c0,0,0-0.1,0-0.1c0.6-0.6,1.2-1.2,1.8-1.9c0.7-0.8,1.3-1.7,1.8-2.6c0.1-0.3,0.3-0.5,0.4-0.8
		c-0.5,0-1.1,0-1.6,0.1c-0.8,0.1-1.6,0.3-2.4,0.5c-0.8,0.2-1.5,0.5-2.3,0.8c0.3-1,0.6-2.1,0.7-3.1c0.1-0.6,0.1-1.1,0.1-1.7
		c0-0.3,0-0.5-0.1-0.8c-0.8,0.5-1.6,1-2.3,1.7c-0.9,0.8-1.7,1.6-2.4,2.5c-0.2-0.5-0.3-1.1-0.6-1.6c-0.3-0.8-0.8-1.6-1.5-2.1
		c-0.5,0.7-0.9,1.5-1.2,2.3c-0.3,0.8-0.6,1.6-0.8,2.5c-0.9-0.7-1.9-1.3-3-1.3c-0.1,0.6-0.2,1.2-0.2,1.8c0,0.7,0.1,1.5,0.2,2.2
		c-0.9,0-1.9,0-2.8,0.5c-0.1,0-0.1,0.2-0.1,0.2c0.2,0.9,0.7,1.6,1.2,2.3c0.1,0.1,0.2,0.2,0.1,0.3c-0.8,0.5-1.6,1-2.1,1.8
		c0.3,0.3,0.6,0.6,1,0.9c0.4,0.2,0.8,0.4,1.2,0.6c-0.6,0.8-1,1.6-1.2,2.6c-0.6-0.2-1.1-0.6-1.6-1c-0.2-0.1-0.4-0.3-0.6-0.5
		c0.2-0.9,0.6-1.8,1.1-2.6c-0.2-0.3-0.4-0.5-0.5-0.8c-0.4-0.6-0.7-1.2-0.9-1.8c0.1-0.2,0.3-0.4,0.5-0.6c0.4-0.4,0.7-0.7,1.1-1.1
		c0.2-0.1,0.3-0.2,0.5-0.4c0-0.2-0.1-0.4-0.1-0.6c-0.2-1-0.2-2.1-0.2-3.1c0.1,0,0.2-0.1,0.4-0.2c0.8-0.4,1.8-0.6,2.7-0.6
		c0.3-1.7,1-3.3,1.6-4.8c0.9,0.1,1.7,0.3,2.5,0.7c0.4,0.2,0.7,0.4,1.1,0.7c0.4-0.6,0.9-1.2,1.3-1.7c0.6-0.7,1.2-1.3,1.9-2
		C33.5,5.4,33.8,5.1,34.2,4.8L34.2,4.8z"/>
	<path class="st1" d="M34.4,10.7c0.7-0.6,1.5-1.2,2.3-1.7c0.1,0.2,0.1,0.5,0.1,0.8c0.1,0.6,0,1.1-0.1,1.7c-0.1,1.1-0.4,2.1-0.7,3.1
		c0.7-0.3,1.5-0.6,2.3-0.8c0.8-0.2,1.6-0.4,2.4-0.5c0.5-0.1,1.1-0.1,1.6-0.1c-0.1,0.3-0.2,0.5-0.4,0.8c-0.5,1-1.2,1.8-1.8,2.6
		c-0.5,0.7-1.2,1.3-1.8,1.9c0,0,0,0.1,0,0.1c1.1,0.2,2.2,0.5,3.3,0.9c0.7,0.3,1.4,0.7,1.9,1.2c-0.9,0.7-2,1.2-3.1,1.7
		c-0.9,0.4-1.8,0.7-2.8,0.9c0.4,0.4,0.7,0.8,1,1.2c0.6,0.8,1.1,1.7,1.3,2.7c-1.8,0.3-3.5,0-5.3-0.4c0.1,0.6,0.1,1.3,0.1,2
		c0,0.6-0.2,1.2-0.4,1.8c-0.1,0-0.2,0-0.3-0.1c-1.2-0.5-2.3-1.3-3.2-2.2c-0.2,0.4-0.4,0.9-0.7,1.3c-0.3,0.5-0.7,1-1.1,1.3
		c-0.1,0.1-0.2,0-0.3-0.1c-0.6-0.8-1.1-1.8-1.4-2.8c-0.8,0.5-1.6,1.1-2.6,1.2c-0.3-1-0.2-2,0-3c-0.4,0.1-0.8,0.1-1.2,0.1
		c-0.5,0-1-0.1-1.4-0.2l0,0c0.1-1,0.6-1.8,1.2-2.6c-0.4-0.2-0.9-0.4-1.2-0.6c-0.4-0.2-0.7-0.5-1-0.9c0.5-0.8,1.3-1.3,2.1-1.8
		c0.1-0.1-0.1-0.2-0.1-0.3c-0.5-0.7-1-1.5-1.2-2.3c0-0.1,0-0.2,0.1-0.2C23,17,24,16.9,24.9,17c-0.1-0.7-0.2-1.5-0.2-2.2
		c0-0.6,0-1.2,0.2-1.8c1.1,0,2.2,0.6,3,1.3c0.2-0.8,0.5-1.7,0.8-2.5c0.3-0.8,0.7-1.6,1.2-2.3c0.7,0.5,1.1,1.3,1.5,2.1
		c0.2,0.5,0.4,1.1,0.6,1.6C32.7,12.3,33.5,11.5,34.4,10.7 M31,14.4c-0.3,0.4-0.5,0.8-0.7,1.2c-0.2,0.3-0.4,0.7-0.6,1.1
		c-0.2-0.4-0.4-0.7-0.6-1.1c-0.3-0.5-0.7-1-1.2-1.3c-0.3,1.1-0.5,2.3-0.4,3.5c-0.1,0-0.2-0.1-0.2-0.1c-0.6-0.3-1.3-0.6-2-0.6
		c-0.1,0-0.2,0-0.2,0c0.1,0.3,0.2,0.6,0.3,0.9c0.2,0.6,0.5,1.2,0.8,1.7c-0.7,0-1.3,0.2-1.9,0.4c-0.2,0.1-0.4,0.1-0.5,0.2
		c0.4,0.4,0.8,0.8,1.3,1.1c0.2,0.1,0.4,0.2,0.6,0.4c-0.7,0.5-1.3,1-1.8,1.7c0.1,0,0.1,0.1,0.2,0.1c0.4,0.1,0.9,0.2,1.4,0.2
		c0.2,0,0.5,0,0.7,0c-0.1,0.3-0.3,0.6-0.5,1c-0.2,0.5-0.4,0.9-0.4,1.4c0.6-0.1,1.3-0.3,1.8-0.7c0.1-0.1,0.3-0.2,0.4-0.2
		c0,0.7,0,1.3,0.1,2c0.1,0.2,0.1,0.5,0.2,0.7c0.2-0.2,0.4-0.3,0.6-0.5c0.5-0.4,0.8-1,1.1-1.5c0.1,0.1,0.2,0.3,0.3,0.5
		c0.4,0.7,0.8,1.3,1.4,1.9c0.1,0.1,0.1-0.1,0.1-0.1c0.3-0.9,0.5-1.8,0.5-2.7c0,0,0,0,0.1-0.1c0.9,0.6,2,1.1,3.1,1.4
		c0-0.2-0.1-0.5-0.1-0.7c-0.1-0.6-0.4-1.1-0.6-1.7c-0.1-0.3-0.3-0.5-0.4-0.8c1.4,0.1,2.7-0.1,4-0.4c0,0,0-0.1-0.1-0.1
		c-0.9-0.8-1.9-1.5-3-1.9c0-0.1,0.1-0.1,0.2-0.2c1.1-0.6,2.1-1.3,3-2.1c0.2-0.1,0.4-0.3,0.5-0.4c-1-0.2-2-0.2-3-0.1
		c-0.4,0-0.8,0.1-1.2,0.1c0.1-0.2,0.2-0.3,0.3-0.5c0.3-0.4,0.5-0.8,0.7-1.2c0.3-0.5,0.5-1,0.7-1.6c0.1-0.3,0.2-0.5,0.2-0.8
		c-0.6,0.3-1.2,0.5-1.7,0.8c-0.7,0.4-1.5,0.9-2.1,1.4c0-0.2,0-0.4,0-0.6c0.1-1,0-1.9-0.2-2.8c0-0.1,0-0.2-0.1-0.3
		C31.6,13.6,31.3,14,31,14.4L31,14.4z"/>
	<path class="st2" d="M31,14.4c0.3-0.4,0.6-0.8,0.9-1.2c0.1,0.1,0.1,0.2,0.1,0.3c0.2,0.9,0.3,1.9,0.2,2.8c0,0.2-0.1,0.4,0,0.6
		c0.6-0.6,1.4-1,2.1-1.4c0.5-0.3,1.1-0.6,1.7-0.8c0,0.3-0.2,0.5-0.2,0.8C35.6,16,35.3,16.5,35,17c-0.2,0.4-0.4,0.8-0.7,1.2
		c-0.1,0.1-0.2,0.3-0.3,0.5c0.4,0,0.8-0.1,1.2-0.1c1-0.1,2,0,3,0.1c-0.1,0.2-0.3,0.3-0.5,0.4c-0.9,0.8-1.9,1.5-3,2.1
		c-0.1,0-0.2,0.1-0.2,0.2c1.1,0.4,2.1,1.1,3,1.9c0,0,0.1,0.1,0.1,0.1c-1.3,0.3-2.7,0.5-4,0.4c0.1,0.3,0.3,0.5,0.4,0.8
		c0.2,0.5,0.5,1.1,0.6,1.7c0.1,0.2,0.1,0.4,0.1,0.7c-1.1-0.3-2.2-0.7-3.1-1.4c0,0,0,0-0.1,0.1c0,0.9-0.2,1.8-0.5,2.7
		c0,0.1-0.1,0.2-0.1,0.1c-0.6-0.6-1-1.2-1.4-1.9c-0.1-0.2-0.1-0.3-0.3-0.5c-0.3,0.5-0.7,1.1-1.1,1.5c-0.2,0.2-0.4,0.4-0.6,0.5
		c-0.1-0.2-0.1-0.5-0.2-0.7c-0.1-0.6-0.1-1.3-0.1-2c-0.2,0.1-0.3,0.2-0.4,0.2c-0.6,0.3-1.2,0.5-1.8,0.7c0-0.5,0.2-1,0.4-1.4
		c0.1-0.3,0.3-0.6,0.5-1c-0.2,0-0.5,0-0.7,0c-0.5,0-0.9-0.1-1.4-0.2c-0.1,0-0.1-0.1-0.2-0.1c0.5-0.7,1.1-1.2,1.8-1.7
		c-0.2-0.1-0.4-0.2-0.6-0.4c-0.5-0.3-0.9-0.7-1.3-1.1c0.1-0.1,0.3-0.2,0.5-0.2c0.6-0.2,1.3-0.4,1.9-0.4c-0.3-0.6-0.6-1.1-0.8-1.7
		c-0.1-0.3-0.2-0.6-0.3-0.9c0.1,0,0.2,0,0.2,0c0.7,0.1,1.4,0.3,2,0.6c0.1,0,0.2,0.1,0.2,0.1c0-1.2,0.1-2.3,0.4-3.5
		c0.5,0.4,0.9,0.8,1.2,1.3c0.2,0.3,0.4,0.7,0.6,1.1c0.2-0.4,0.4-0.7,0.6-1.1C30.5,15.2,30.7,14.8,31,14.4 M29.7,16.8
		c-0.4,0.8-0.6,1.7-0.7,2.6c-0.3-0.5-0.7-0.9-1.1-1.2c-0.1-0.1-0.2-0.2-0.4-0.3c0,0.7,0.2,1.3,0.4,1.9c0,0.1,0.1,0.2,0.1,0.3
		c0,0-0.1,0-0.1,0c-0.6-0.3-1.2-0.4-1.9-0.3c0.3,0.6,0.8,1.1,1.4,1.4c0,0,0,0.1,0,0.1c-0.7,0.1-1.3,0.3-1.9,0.7
		c0.6,0.3,1.2,0.4,1.9,0.4c0,0-0.1,0.1-0.1,0.1c-0.5,0.4-1,0.9-1.3,1.5c0.7,0,1.3-0.3,1.9-0.6c-0.3,0.6-0.5,1.3-0.6,2.1
		c0.6-0.4,1.1-0.9,1.5-1.5c0,0.7,0.2,1.5,0.5,2.1c0,0,0,0,0.1,0c0.3-0.7,0.6-1.4,0.6-2.1c0.4,0.7,1,1.2,1.6,1.7
		c0-0.8-0.2-1.6-0.5-2.3c0.8,0.4,1.6,0.6,2.5,0.6c-0.5-0.7-1.1-1.3-1.8-1.7c0.9-0.1,1.8-0.4,2.7-0.8c0,0,0,0,0,0
		c-0.8-0.3-1.7-0.5-2.6-0.5c0.8-0.6,1.5-1.3,2.1-2.1c-0.8,0.1-1.5,0.4-2.2,0.7c-0.2,0.1-0.3,0.2-0.5,0.3c0.5-0.8,0.7-1.7,0.9-2.7
		c-0.7,0.6-1.4,1.3-1.9,2.2C30.2,18.4,30,17.5,29.7,16.8L29.7,16.8z"/>
	<path class="st3" d="M10.9,36.8c0.5-0.3,1.1-0.5,1.6-0.8c0,1.8,0,3.5,0,5.3c0,0.3,0,0.5,0.1,0.8c0.1,0.4,0.5,0.7,0.8,0.7
		c0.2,0.1,0.4,0,0.7,0c0.3,0,0.6,0,0.8-0.1c0.2-0.1,0.3-0.2,0.4-0.4c0.7-0.7,1.3-1.4,1.9-2.1c0.3-0.3,0.7-0.5,1.1-0.6
		c0.5-0.1,1,0.1,1.3,0.4c0.2,0.2,0.4,0.3,0.6,0.5c0.2,0.2,0.5,0.4,0.7,0.7c0.4,0.5,0.5,1.3,0.4,1.9c-0.1,0.6-0.5,1.1-1.1,1.4
		c-0.6,0.3-1.4,0.4-2,0.1c-0.5-0.2-0.8-0.6-1.1-0.9c-0.1-0.1-0.3-0.3-0.4-0.4c-0.1,0.1-0.2,0.2-0.3,0.4c-0.5,0.5-1.2,0.8-2,0.8
		c-0.7,0-1.3,0.1-2-0.2c-0.9-0.3-1.5-1.2-1.5-2.2C10.9,40.3,10.9,38.5,10.9,36.8 M18.4,41.5c-0.2,0.1-0.3,0.3-0.5,0.4
		c0,0.1-0.2,0.1-0.1,0.2c0.3,0.3,0.6,0.6,0.9,0.9c0.3,0.2,0.7,0.2,0.9-0.1c0.1-0.2,0.1-0.5,0-0.7c-0.2-0.2-0.3-0.3-0.5-0.5
		C18.9,41.6,18.7,41.4,18.4,41.5 M22.1,36.8c0.5-0.3,1.1-0.6,1.6-0.8c0,1.9,0,3.8,0,5.6c0,0.6,0.5,1.2,1.1,1.2c3,0,6,0,8.9,0
		c0,0.5,0,1.1,0,1.6c-3.1,0-6.3,0-9.4,0c-0.9,0-1.8-0.6-2.1-1.5c-0.1-0.3-0.2-0.6-0.2-1C22.1,40.2,22.1,38.5,22.1,36.8 M45.5,36.8
		c0.5-0.3,1.1-0.5,1.6-0.8c0,1.9,0,3.7,0,5.6c0,0.5,0.3,1,0.8,1.2c0.2,0.1,0.5,0.1,0.7,0.1c1.4,0,2.8,0,4.1,0c0,0.5,0,1.1,0,1.6
		c-1.5,0-2.9,0-4.4,0c-0.3,0-0.7,0-1-0.1c-0.5-0.1-1-0.5-1.4-0.9c-0.4,0.4-0.9,0.7-1.5,0.8c-0.6,0.2-1.2,0.1-1.8,0.1
		c-2.4,0-4.8,0-7.2,0c0-0.5,0-1.1,0-1.6c2.7,0,5.4,0,8.2,0c0.5,0,1.1-0.3,1.4-0.7c0.4-0.4,0.5-1,0.5-1.6
		C45.5,39.3,45.5,38,45.5,36.8 M53.6,36.8c0.5-0.3,1.1-0.5,1.6-0.8c0,1.9,0,3.8,0,5.7c0,0.6,0.5,1.1,1.1,1.1c1.2,0,2.5,0,3.7,0v1.6
		c-1.4,0-2.7,0-4.1,0c-1,0-1.9-0.7-2.2-1.6c-0.2-0.5-0.1-1-0.1-1.6C53.6,39.8,53.5,38.3,53.6,36.8 M8.1,37.9
		c0.5-0.3,1.1-0.6,1.6-0.8c0,1.3,0,2.6,0,3.9c0,0.9-0.4,1.8-1.1,2.4c-0.6,0.6-1.3,0.9-2.1,1c-0.3,0-0.5,0-0.8,0c-0.9,0-1.8,0-2.7,0
		c-0.4,0-0.9,0-1.3-0.1c-0.9-0.3-1.6-1.1-1.7-2.1v-3.5c0.5-0.3,1.1-0.5,1.6-0.8c0,1.2,0,2.4,0,3.6c0,0.6,0.5,1.2,1.1,1.2
		c1,0,2,0,3,0c0.2,0,0.4,0,0.7,0c0.7-0.1,1.3-0.7,1.5-1.3c0.1-0.3,0.1-0.6,0.1-0.9C8.1,39.7,8.1,38.8,8.1,37.9 M40.3,37.7
		c0.3-0.2,0.6-0.3,1-0.5c0,0.3,0,0.6,0,0.9c-0.3,0.2-0.6,0.3-1,0.5c0.3,0,0.6,0,0.9,0.2c0.4,0.4,0.3,1.1-0.1,1.4
		c-0.4,0.2-0.9,0.5-1.4,0.7c0-0.3,0-0.6,0-0.9c0.3-0.1,0.6-0.3,1-0.5c-0.3,0-0.6,0-0.8-0.2c-0.4-0.3-0.4-1,0-1.3
		C39.9,37.9,40.1,37.8,40.3,37.7 M4.7,38c0-0.1,0.1,0,0.2,0c0.4,0.4,0.7,0.7,1.1,1.1c0.1,0.1,0.1,0.2,0,0.3C5.7,39.7,5.3,40,5,40.3
		c-0.1,0.1-0.1,0.1-0.2,0.1c-0.1,0-0.1-0.1-0.2-0.1C4.3,40,4,39.7,3.7,39.3c-0.1-0.1-0.1-0.2,0-0.3C4,38.7,4.4,38.4,4.7,38 M50.2,38
		c0-0.1,0.1,0,0.2-0.1c0.4,0.4,0.7,0.7,1.1,1.1c0.1,0.1,0.1,0.2,0,0.3c-0.3,0.3-0.7,0.7-1,1c0,0-0.1,0-0.1,0.1
		c-0.2,0-0.2-0.2-0.4-0.3c-0.3-0.3-0.5-0.5-0.8-0.8c-0.1-0.1-0.1-0.2,0-0.3C49.5,38.7,49.9,38.4,50.2,38 M57.1,45.6
		c0.1,0,0.2,0,0.2,0c0.3,0.2,0.5,0.5,0.8,0.8c0.1,0.1,0.2,0.2,0.3,0.3c0,0.1,0,0.2-0.1,0.2c-0.3,0.3-0.7,0.7-1,1
		c-0.1,0.1-0.2,0.1-0.3,0c-0.3-0.3-0.7-0.7-1-1c-0.1-0.1-0.1-0.2,0-0.3C56.4,46.4,56.7,46,57.1,45.6 M5.5,50.5
		c0.2-0.7,0.9-1.2,1.6-1.2c0.8,0,1.5,0,2.3,0c-0.3,0.3-0.6,0.6-0.9,0.9c-0.5,0-0.9,0-1.4,0c-0.3,0-0.6,0.2-0.8,0.5
		c-0.2,0.4,0,0.8,0.3,1C7,52,7.5,51.9,7.9,51.9c0.6,0,1.2,0.2,1.5,0.6c0.5,0.6,0.6,1.5,0.1,2.1c-0.3,0.4-0.8,0.7-1.3,0.8H5.9
		c0-0.3,0-0.6,0-0.9c0.7,0,1.5,0,2.2,0c0.4,0,0.8-0.4,0.9-0.8c0.1-0.5-0.3-0.9-0.8-1c-0.4,0-0.8,0-1.2,0c-0.4,0-0.8-0.3-1.1-0.6
		C5.5,51.7,5.3,51.1,5.5,50.5 M50,53.9c0-1.5,0-3.1,0-4.6c0.3,0,0.6,0,0.9,0c0,1.2,0,2.5,0,3.7c0.8-0.8,1.6-1.6,2.4-2.4
		c0.4,0,0.8,0,1.3,0c-0.8,0.8-1.6,1.6-2.4,2.4c0.8,0.8,1.6,1.6,2.5,2.5h-1.3c-0.8-0.8-1.6-1.6-2.4-2.4c0,0.8,0,1.6,0,2.4H50
		C49.9,54.9,50,54.4,50,53.9 M34.4,55.4c0-2,0-4,0-6.1c0.7,0,1.5,0,2.2,0c0.5,0,1.1,0.3,1.4,0.7c0.5,0.6,0.4,1.5-0.1,2.1
		c0.3,0.2,0.6,0.5,0.7,0.9c0.2,0.6,0.1,1.3-0.3,1.7c-0.3,0.3-0.7,0.5-1.1,0.6H34.4 M35.3,50.2c0,0.6,0,1.1,0,1.7c0.4,0,0.9,0,1.3,0
		c0.5,0,0.9-0.5,0.8-0.9c0-0.4-0.4-0.8-0.8-0.8C36.1,50.2,35.7,50.2,35.3,50.2 M35.3,52.8c0,0.6,0,1.1,0,1.7c0.6,0,1.2,0,1.8,0
		c0.4,0,0.7-0.3,0.8-0.7c0.1-0.5-0.3-1-0.8-1C36.5,52.8,35.9,52.8,35.3,52.8 M11.8,50.6c0.6,0,1.1,0,1.7,0c0.3,0,0.7,0.1,1,0.3
		c0.3,0.2,0.4,0.6,0.4,1c0,1.2,0,2.3,0,3.5h-3c-0.4,0-0.8-0.3-1-0.6c-0.5-0.6-0.4-1.5,0.1-2c0.3-0.3,0.7-0.5,1.1-0.5
		c0.7,0,1.3,0,2,0c0-0.2,0-0.3-0.1-0.5c-0.1-0.2-0.3-0.4-0.6-0.4c-0.8,0-1.6,0-2.4,0C11.2,51.2,11.5,50.9,11.8,50.6 M11.8,53.3
		c-0.3,0.1-0.5,0.4-0.4,0.6c0,0.3,0.3,0.6,0.6,0.6c0.7,0,1.3,0,2,0c0-0.4,0-0.9,0-1.3c-0.6,0-1.1,0-1.7,0
		C12.2,53.2,12,53.2,11.8,53.3 M16.7,50.6c1.3,0,2.6,0,3.9,0c0.2,0,0.5,0,0.7,0.1c0.4,0.2,0.8,0.7,0.8,1.2c0,1.2,0,2.4,0,3.6h-0.9
		c0-1,0-2,0-3c0-0.2,0-0.4-0.1-0.6c-0.1-0.2-0.3-0.4-0.6-0.3c-0.4,0-0.7,0-1.1,0c0,1.3,0,2.6,0,4h-0.9c0-1.3,0-2.6,0-3.9
		c-0.6,0-1.2,0-1.7,0c0,1.3,0,2.6,0,4h-0.9c0-1.3,0-2.6,0-4C16.1,51.2,16.4,50.9,16.7,50.6 M24,50.6c0.6,0,1.2,0,1.8,0
		c0.3,0,0.6,0.1,0.9,0.3c0.3,0.3,0.5,0.7,0.5,1.1c0,1.2,0,2.3,0,3.5h-3c-0.7-0.1-1.3-0.7-1.4-1.4c-0.1-0.8,0.6-1.6,1.4-1.7
		c0.7,0,1.4,0,2.1,0c0-0.2,0-0.4-0.1-0.5c-0.1-0.2-0.4-0.4-0.6-0.4c-0.8,0-1.6,0-2.4,0C23.4,51.2,23.7,50.9,24,50.6 M23.6,53.8
		c-0.1,0.4,0.2,0.8,0.6,0.8c0.7,0,1.3,0,2,0c0-0.4,0-0.9,0-1.3c-0.6,0-1.3,0-1.9,0C24,53.2,23.7,53.4,23.6,53.8 M28.9,50.6
		c0.6,0,1.2,0,1.9,0c0.3,0,0.6,0,0.9,0.1c0.5,0.2,0.8,0.7,0.8,1.2c0,1.2,0,2.4,0,3.6h-0.9c0-1.1,0-2.2,0-3.3c0-0.3-0.3-0.6-0.6-0.6
		c-0.7,0-1.3,0-2,0c0,1.3,0,2.6,0,3.9H28c0-1.3,0-2.6,0-4C28.3,51.2,28.6,50.9,28.9,50.6 M40.7,50.6c0.1-0.1,0.2,0,0.2,0
		c0.6,0,1.1,0,1.7,0c0.7,0,1.2,0.6,1.2,1.3c0,1.2,0,2.4,0,3.6h-3c-0.5-0.1-1-0.4-1.2-0.8c-0.2-0.5-0.2-1.1,0.1-1.5
		c0.3-0.5,0.8-0.7,1.3-0.7c0.7,0,1.3,0,2,0c0-0.2,0-0.4-0.1-0.6c-0.1-0.1-0.3-0.3-0.5-0.3c-0.8,0-1.6,0-2.5,0
		C40.1,51.2,40.4,50.9,40.7,50.6 M40.3,53.9c0,0.3,0.3,0.6,0.7,0.6c0.7,0,1.3,0,2,0c0-0.4,0-0.9,0-1.3c-0.7,0-1.3,0-2,0
		C40.6,53.2,40.3,53.6,40.3,53.9 M45.5,50.6c0.7,0,1.4,0,2.2,0c0.3,0,0.7,0.1,0.9,0.3c0.3,0.3,0.5,0.6,0.5,1c0,1.2,0,2.3,0,3.5h-0.9
		c0-1.1,0-2.2,0-3.3c0-0.3-0.3-0.6-0.6-0.6c-0.7,0-1.3,0-2,0c0,1.3,0,2.6,0,3.9h-0.9c0-1.3,0-2.7,0-4C45,51.2,45.3,50.9,45.5,50.6
		L45.5,50.6z"/>
</g>
</svg>
