<?xml version="1.0" encoding="utf-8"?>
<!-- Generator: Adobe Illustrator 20.1.0, SVG Export Plug-In . SVG Version: 6.00 Build 0)  -->
<svg version="1.1" id="Layer_1" xmlns="http://www.w3.org/2000/svg" xmlns:xlink="http://www.w3.org/1999/xlink" x="0px" y="0px"
	 viewBox="0 0 60 60" style="enable-background:new 0 0 60 60;" xml:space="preserve">
<style type="text/css">
	.st0{fill:#DF343A;}
</style>
<g>
	<path class="st0" d="M38.8,3.5c1.8-0.5,3.7,1,3.9,2.8c0.1,0.6-0.1,1.2-0.3,1.7c-0.7,1.6-2.9,2.3-4.4,1.5c-0.7-0.4-1.3-1-1.5-1.7
		c-0.4-1.2-0.1-2.6,0.8-3.4C37.7,3.9,38.3,3.7,38.8,3.5 M31.5,5.6c1.9-0.4,3.8,1.4,3.7,3.3c-0.1,0.7-0.2,1.3-0.7,1.9
		c-1,1.3-3,1.6-4.3,0.7c-0.6-0.4-1.1-1-1.3-1.8c-0.3-1.2,0.1-2.6,1-3.4C30.4,5.9,31,5.7,31.5,5.6 M24.5,8.9c1.7-0.4,3.6,0.9,3.9,2.7
		c0.1,0.7,0,1.4-0.4,2c-0.7,1.1-2.1,1.8-3.4,1.6c-0.7-0.1-1.3-0.5-1.8-1c-1.2-1.2-1.1-3.5,0.2-4.6C23.5,9.3,24,9,24.5,8.9
		 M36.4,11.5c2.8-0.8,5.6-1.4,8.5-1.7c0,1.8,0,3.7,0.1,5.5c-4.1,0.4-8.3,1.2-12.2,2.9c0,0.1,0,0.2-0.1,0.3c1.2,0.5,2.6,0.3,3.8,0.7
		c0.7,0.2,1.4,0.4,2,0.8c1.2,0.7,2.2,1.9,2.6,3.2c0.2,0.5,0.2,1.1,0.2,1.6c0,1.1-0.3,2.2-0.9,3.2c-0.6,1.1-1.6,2.1-2.6,2.9
		c-1,0.8-2,1.4-3.1,2c-4.8,2.7-10.3,4.1-15.7,4.7c0-1.9-0.1-3.7,0-5.6c3-0.2,6-0.7,8.9-1.6c2.3-0.7,4.5-1.7,6.4-3.1
		c0.9-0.6,1.7-1.4,2.1-2.5c-0.4-0.6-1.1-1-1.8-1.1c-0.9-0.2-1.7-0.2-2.6-0.2c0-1.5,0.1-3.1,0-4.6c0-0.2-0.1-0.3-0.1-0.5
		c-1.2,0.7-2.4,1.4-3.4,2.4c-0.3,0.3-0.6,0.7-0.7,1.2c-0.1,0.3,0.1,0.7,0.4,0.9c0.8,0.5,1.8,0.6,2.7,0.6c0.4,0,0.8,0.1,1.1,0.1
		c0,1.7,0,3.3,0,5c-1.5,0-3,0-4.5-0.4c-1.1-0.3-2.2-0.8-3.1-1.6c-0.9-0.8-1.4-1.8-1.6-3c-0.3-1.5,0-3,0.7-4.3
		c0.7-1.2,1.7-2.3,2.8-3.1c0.9-0.7,2-1.4,3-1.9C31.5,13.3,33.9,12.3,36.4,11.5 M45.2,40.5c0.8-0.7,1.5-1.6,2.3-2.2
		c0.1,2.4,0,4.9,0,7.3c0,0.7,0.6,1.3,1.3,1.4c1,0.1,2.1,0,3.1,0.1c0,1.1,0,2.2,0,3.3c-1.2,0-2.3,0-3.5,0c-1,0-1.9-0.7-2.4-1.5
		c-0.5,0.6-1.1,1.2-1.8,1.4c-0.4,0.1-0.7,0.1-1.1,0.1c-2.6,0-5.2,0-7.9,0c0-1.1,0-2.2,0-3.2c2.8,0,5.6,0,8.4,0
		c0.5,0,1.1-0.2,1.4-0.6c0.3-0.3,0.3-0.8,0.3-1.1C45.7,43.8,45.3,42.2,45.2,40.5 M52.9,40.3c0.7-0.7,1.3-1.4,2.1-1.9
		c0.2,2.4,0,4.8,0.1,7.3c0,0.7,0.6,1.4,1.3,1.5c1.2,0.1,2.4,0,3.6,0.1c0,1.1,0,2.2,0,3.3c-1.4,0-2.8,0.1-4.3-0.1
		c-0.8-0.2-1.5-0.7-2-1.4c-0.5-0.8-0.8-1.7-0.7-2.6c0.1-1.7,0-3.4-0.2-5.1C52.8,41,52.6,40.5,52.9,40.3 M11.5,43
		c0.6-0.7,1.2-1.4,2.1-1.7c0.4,0.2,0.7,0.6,0.9,1c0.5,1,1,2,1.1,3.1c0.1,0.9,0,1.8-0.3,2.7c-0.2,0.6-0.6,1.1-1.2,1.4
		c-0.5,0.3-1.1,0.3-1.6,0.5c0.5,0.9,1,1.9,1.7,2.6c0.1,0.1,0.3,0.3,0.5,0.3c0.1,0,0.3-0.1,0.3-0.2c0.4-1,0.3-2.2,0.7-3.2
		c0.4-0.9,1.1-1.6,1.9-2c0.7-0.3,1.5-0.3,2.3-0.3c4.7,0,9.3,0,14,0c0,1.1,0,2.2,0,3.3c-5,0-9.9,0-14.9,0c-0.6,0-1.2,0-1.8,0.1
		c-0.4,0.1-0.8,0.3-1,0.8c-0.2,0.6-0.1,1.2,0.1,1.8c0.3,0.7,0.8,1.4,0.9,2.2c0,0.3,0,0.8-0.3,0.9c-0.6,0.3-1.3,0.5-1.9,0.3
		c-0.7-0.2-1.3-0.6-1.8-1.1c-1.4-1.4-2.2-3.3-2.6-5.2c-0.8,0-1.7-0.1-2.5-0.2c0,1.4-0.1,3-0.9,4.2c-0.7,1.1-1.8,2-3.1,2.2
		c-1.5,0.1-2.9-0.4-4.3-1c0-0.1,0-0.2,0-0.3c1.5-0.4,3.1-0.6,4.5-1.4c1-0.5,1.8-1.3,2.2-2.3c0.2-0.6,0.3-1.4,0-2
		c-0.4-0.7-1.2-1-1.8-1.6c-0.2-0.3-0.4-0.6-0.3-0.9C4.9,46,5.5,45.2,6,44.4c0.8,0.9,1.5,1.9,2.5,2.5c0.5,0.3,1.2,0.3,1.8,0.3
		C10.3,45.7,10.6,44.2,11.5,43 M11.8,47.2c0.8,0,1.6-0.2,2.3-0.3c0-1.1-0.6-2.2-1.4-3C12,44.8,11.7,46,11.8,47.2 M40.4,41.6
		c0.4-0.2,0.8-0.2,1.2,0c0.3,0.1,0.5,0.4,0.6,0.7c0,0.2-0.1,0.3-0.2,0.4c-0.5-0.1-1-0.3-1.6-0.2c-0.3,0.1-0.6,0.3-0.6,0.6
		C40,43.6,40.5,44,41,44c0.6,0,1.1-0.3,1.7-0.4c0,0.3,0,0.7-0.1,1c-0.8,0.2-1.6,0.4-2.2,0.9c-0.4,0.3-0.7,0.7-1.1,0.9
		c-0.1,0.1-0.2,0-0.3-0.1c-0.3-0.2-0.4-0.5-0.5-0.7c0.1-0.1,0.1-0.3,0.2-0.4c0.3-0.2,0.7-0.3,1-0.5c-0.3-0.3-0.6-0.6-0.8-1
		c-0.1-0.2-0.1-0.5,0.1-0.7C39.3,42.5,39.8,41.9,40.4,41.6 M23,42.8c1-0.3,2.1,0.5,2,1.6c0,0.8-0.6,1.4-1.3,1.5
		c-0.7,0.2-1.6-0.3-1.8-1c-0.2-0.5-0.1-1.1,0.2-1.6C22.4,43.1,22.7,42.9,23,42.8 M27.6,42.8c0.8-0.2,1.7,0.3,2,1.1
		c0.2,0.5,0,1.2-0.4,1.6c-0.4,0.4-1.1,0.6-1.7,0.4c-0.3-0.1-0.6-0.3-0.8-0.6c-0.5-0.6-0.4-1.5,0.1-2.1C27,43,27.3,42.9,27.6,42.8
		 M32,42.8c0.9-0.2,1.9,0.4,2,1.3c0.2,0.9-0.7,1.9-1.7,1.8c-0.8,0-1.6-0.7-1.5-1.6C30.8,43.6,31.3,43,32,42.8 M50,42.8
		c0.5-0.1,1.1,0,1.5,0.4c0.3,0.2,0.4,0.6,0.5,0.9c0.1,0.8-0.4,1.6-1.1,1.8c-0.8,0.3-1.8-0.2-2-1C48.6,44,49.1,43,50,42.8 M57.2,53.3
		c0.9-0.3,2,0.5,2,1.5c0,0.4-0.1,0.7-0.3,1c-0.4,0.5-1.1,0.7-1.8,0.6c-0.7-0.1-1.2-0.8-1.2-1.4C55.9,54.2,56.4,53.5,57.2,53.3
		 M19.5,53.7c0.6,0,1.2-0.1,1.8,0c0.3,0,0.5,0.3,0.5,0.6c0,0.2-0.1,0.5-0.3,0.6c0.2,0.2,0.4,0.4,0.4,0.7c0,0.3-0.2,0.7-0.5,0.7
		c-0.6,0.1-1.2,0-1.9,0C19.6,55.5,19.6,54.6,19.5,53.7 M22.6,56.4c0.4-0.9,0.7-1.8,1-2.8c0.2,0,0.5,0,0.8,0.1c0.4,0.9,0.7,1.8,1,2.7
		c-0.3,0-0.6,0-0.9,0c-0.2-0.5-0.3-1-0.5-1.6c-0.2,0.5-0.4,1-0.6,1.6C23.2,56.4,22.9,56.4,22.6,56.4 M26.6,53.7c0.2,0,0.5,0,0.7,0
		c0.3,0.4,0.6,0.8,0.9,1.3c0-0.4,0-0.8,0-1.3c0.3,0,0.5,0,0.8,0c0,0.9,0,1.8,0,2.7c-0.3,0-0.5,0-0.8,0c-0.3-0.4-0.6-0.8-0.9-1.2
		c0,0.4,0,0.8,0,1.2c-0.3,0-0.5,0-0.8,0C26.6,55.5,26.6,54.6,26.6,53.7 M30.4,53.7c0.3,0,0.5,0,0.8,0c0,0.4,0,0.7,0,1.1
		c0.3-0.3,0.5-0.7,0.9-1c0.3-0.1,0.6-0.1,0.9-0.1c-0.3,0.4-0.6,0.8-0.9,1.2c0.3,0.5,0.7,1,1.1,1.6c-0.3,0-0.6,0-1-0.1
		c-0.4-0.4-0.7-0.9-1-1.4c0,0.5,0,1,0,1.4c-0.3,0-0.5,0-0.8,0C30.4,55.5,30.4,54.6,30.4,53.7 M35.8,53.8c0.5-0.2,1.1-0.2,1.6,0
		c0.3,0.1,0.4,0.4,0.5,0.7c-0.4,0.1-0.8-0.2-1.3-0.2c-0.2,0-0.4,0.1-0.5,0.2c0.5,0.2,1,0.3,1.5,0.6c0.3,0.2,0.4,0.6,0.2,0.9
		c-0.6,0.8-2.2,0.7-2.5-0.3c0.3,0,0.5,0,0.8,0c0.1,0.1,0.3,0.3,0.6,0.3c0.2,0,0.4-0.1,0.6-0.3c-0.5-0.3-1.1-0.4-1.6-0.6
		C35.2,54.7,35.4,54,35.8,53.8 M39.1,53.7c0.3,0,0.5,0,0.8,0c0,0.9,0,1.8,0,2.7c-0.3,0-0.5,0-0.8,0C39.1,55.5,39.1,54.6,39.1,53.7
		 M40.7,53.7c0.2,0,0.5,0,0.7,0c0,0.9,0,1.8,0,2.7c-0.3,0-0.5,0-0.8,0c0-0.4,0-0.8,0-1.1c-0.2,0-0.4,0-0.7,0c0-0.2,0-0.3,0-0.5
		c0.2,0,0.4,0,0.7,0C40.7,54.4,40.7,54.1,40.7,53.7 M43.6,53.7c0.3,0,0.5,0,0.8,0c0.3,0.9,0.6,1.8,1,2.7c-0.3,0-0.6,0-0.9,0
		c-0.2-0.5-0.3-1-0.5-1.5c-0.2,0.5-0.4,1-0.5,1.5c-0.3,0-0.6,0-0.8,0C43,55.5,43.3,54.6,43.6,53.7 M46.1,53.7c0.2,0,0.5,0,0.7,0
		c0,0.9,0,1.8,0,2.7c-0.3,0-0.5,0-0.8,0C46.1,55.5,46.1,54.6,46.1,53.7 M47.8,53.7c0.3,0,0.5,0,0.8,0c0,0.9,0,1.8,0,2.7
		c-0.3,0-0.5,0-0.8,0c0-0.4,0-0.7,0-1.1c-0.2,0-0.4,0-0.6-0.1c-0.1-0.1-0.1-0.2-0.1-0.4c0.2,0,0.4,0,0.7,0
		C47.8,54.4,47.8,54.1,47.8,53.7 M49.5,53.7c0.7,0,1.4-0.2,2,0.1c0.3,0.1,0.4,0.3,0.4,0.6c0,0.3-0.3,0.5-0.5,0.7
		c0.4,0.3,0.5,0.9,0.5,1.4c-0.3,0-0.6,0-0.8,0c0-0.5-0.1-1-0.7-1.2c0-0.1,0-0.2,0-0.3c0.2-0.1,0.5-0.1,0.6-0.4c0-0.1,0-0.2-0.1-0.3
		c-0.3,0-0.5,0-0.8,0c0,0.7,0,1.5,0,2.2c-0.2,0-0.5,0-0.7,0C49.5,55.5,49.5,54.6,49.5,53.7L49.5,53.7z"/>
</g>
</svg>
