<?xml version="1.0" encoding="utf-8"?>
<!-- Generator: Adobe Illustrator 20.1.0, SVG Export Plug-In . SVG Version: 6.00 Build 0)  -->
<svg version="1.1" id="Layer_1" xmlns="http://www.w3.org/2000/svg" xmlns:xlink="http://www.w3.org/1999/xlink" x="0px" y="0px"
	 viewBox="0 0 60 60" style="enable-background:new 0 0 60 60;" xml:space="preserve">
<style type="text/css">
	.st0{fill:#7D99CB;}
	.st1{fill:#5F92E4;}
</style>
<g>
	<path class="st0" d="M1.2,0.3C1.2,0.1,1.4,0,1.6,0C8.3,0,15,0,21.7,0c0.3,0,0.5,0,0.8,0C34.7,0,46.9,0,59,0c0,0.2-0.1,0.4-0.1,0.6
		c-1,0-1.9,0-2.9,0c-7.5,0-15,0-22.5,0c-0.1,0-0.2,0-0.3,0c-10.6,0-21.1,0-31.7,0C1.4,0.6,1.2,0.5,1.2,0.3 M24.8,1.6
		c1.5-0.1,2.9-0.1,4.4,0.1c0.6,0,1.1,0.2,1.6,0.3c9.4,0,18.8,0,28.1,0c0,0.2,0,0.4,0,0.5c-9.2,0-18.5,0-27.7,0c-0.5,0-1,0.2-1.6,0.2
		c-0.3,0-0.5,0-0.8,0.1c-0.2,0-0.5,0-0.7,0c-0.5,0-1,0-1.5,0c-0.2,0-0.5,0-0.7,0c-0.5,0-0.9,0-1.4,0c-1,0-1.9-0.1-2.8-0.3
		c-3.7,0-7.3,0-11,0c-0.2,0-0.3,0-0.5,0c-2.9,0-5.8,0-8.7,0c-0.2,0-0.3-0.1-0.3-0.3c0-0.2,0.2-0.3,0.3-0.3c3,0,6,0,9,0
		c0.8,0,1.6,0,2.4,0c3,0,5.9,0,8.9,0c0.8-0.2,1.6-0.3,2.4-0.3C24.4,1.6,24.6,1.6,24.8,1.6 M20.1,3.5c1.3-0.1,2.5-0.1,3.8-0.1
		c1.2,0,2.5,0,3.7,0.1c0.2,0,0.4,0,0.6,0c0.3,0,0.6,0,0.9,0.1c0.2,0,0.4,0.1,0.6,0.1c0.4,0.1,0.7,0.2,1.1,0.2c9.4,0,18.7,0,28.1,0
		c0,0.2,0,0.4,0,0.5c-9.4,0-18.7,0-28.1,0c-0.8,0.1-1.6,0.2-2.5,0.2c-0.3,0.1-0.6,0-0.9,0c-0.7,0.1-1.5,0-2.2,0
		c-0.4,0.1-0.9,0-1.3,0c-0.8-0.1-1.5,0-2.3-0.1c-0.8,0-1.6-0.1-2.4-0.1c-0.5,0-0.9-0.1-1.3-0.2c-4.5,0-9.1,0-13.6,0
		c-0.3,0-0.5,0-0.8,0c-0.8,0-1.5,0-2.3,0c0-0.2,0-0.3,0-0.5c0.5,0,1.1,0.1,1.6,0c5,0,9.9,0,14.9,0c0.2,0,0.4-0.1,0.6-0.1
		C18.9,3.6,19.5,3.5,20.1,3.5 M1,5.8c0-0.4,0.4-0.6,0.7-0.6c1,0,2,0,3,0c0.4,0,0.8,0,1.2,0.1c0.3,0,0.6,0.1,0.9,0.1
		c0.1,0,0.3,0.1,0.4,0.1c0.6,0.2,1.2,0.1,1.8,0.1c1.9,0,3.8,0,5.7,0c0.4,0,0.8,0.1,1.2,0c1-0.2,1.9-0.3,2.9-0.3c0.3,0,0.6,0,0.9,0
		c0.5,0,1.1-0.1,1.6,0c1.6,0,3.2,0,4.7,0c0.3,0.1,0.5,0,0.8,0c0.8,0.1,1.5,0.1,2.3,0.2c0.2,0,0.3,0.1,0.5,0.1c9.7,0,19.5,0,29.2,0
		c0,0.2,0,0.4,0,0.6c-9.5,0-19.1,0-28.6,0c-0.3,0-0.7,0-1,0.1c-0.4,0.1-0.7,0.1-1.1,0.1c-0.6,0-1.1,0.1-1.7,0.1
		c-0.4,0.1-0.8,0-1.2,0.1c-1.6,0-3.3,0-4.9,0c-1-0.1-1.9-0.1-2.9-0.1c-0.2,0-0.5,0-0.7-0.1c-0.3,0-0.6-0.1-1-0.2c-2.7,0-5.4,0-8,0
		c-0.3,0-0.7,0.1-1,0.2c-0.2,0-0.4,0-0.6,0.1C5.8,6.4,5.4,6.4,5,6.5c-1.1,0-2.3,0-3.4,0C1.3,6.5,0.9,6.2,1,5.8 M20.8,7.1
		c0.4-0.1,0.9,0,1.3,0c0.4,0,0.7,0,1.1,0c0.7,0,1.3,0,2,0c0.5,0,1.1,0,1.6,0.1c0.4,0,0.8,0.1,1.2,0.1c0.3,0,0.6,0.1,1,0.2
		c9,0,18.1,0,27.1,0c0.3,0,0.7,0,1,0c0.6,0,1.2,0,1.8,0c0,0.2,0,0.4,0,0.5C49,8,39,8,29.1,8c-0.8,0.1-1.6,0.2-2.4,0.3
		c-0.3,0.1-0.5,0-0.8,0c-0.5,0.1-1,0-1.5,0.1c-1.5,0-3.1,0-4.6,0c-1.5-0.1-3.1-0.1-4.6-0.3c-0.3,0-0.5-0.1-0.8-0.1
		c-0.9,0-1.8,0-2.7,0c-0.6,0-1.1,0.1-1.6,0.2c-0.2,0-0.4,0-0.6,0.1c-0.4,0-0.8,0-1.2,0.1c-1.9,0-3.9,0-5.8,0c-0.2,0-0.4,0-0.5-0.1
		C1.6,8,1.5,7.6,1.8,7.4c0.2-0.2,0.5-0.3,0.8-0.3c1.5,0,2.9,0,4.4,0c0.6,0.1,1.2,0,1.8,0c0.2,0,0.4,0,0.6,0.1
		c0.6,0.1,1.2,0.2,1.8,0.3c0.9,0,1.9,0,2.8,0c0.6,0,1.2-0.2,1.9-0.2C17.5,7.1,19.2,7.1,20.8,7.1 M2.4,9C2.5,8.9,2.8,9,3,9
		c2.4,0,4.9,0,7.3,0c0.5,0,1,0,1.5,0.1c0.4,0.1,0.8,0.2,1.2,0.1c0.7,0,1.4,0.1,2.1-0.1c0.6-0.1,1.2-0.1,1.8-0.1c0.3,0,0.7,0,1,0
		c1.7,0,3.5,0,5.2,0c1.2,0.1,2.3,0.1,3.5,0.2c0.3,0,0.7,0.1,1,0.1c3.1,0,6.2,0,9.3,0c0.2,0,0.3,0,0.5,0c7.2,0,14.3,0,21.5,0
		c0,0.2,0,0.4,0,0.5c-10.4,0-20.7,0-31.1,0c-0.4,0-0.7,0.1-1.1,0.2c-0.2,0-0.3,0-0.5,0.1c-0.4,0-0.8,0-1.2,0.1c-0.3,0-0.6,0-0.9,0
		c-0.7,0.1-1.3,0-2,0.1c-1,0-1.9,0-2.9,0c-0.5-0.1-1.1,0-1.6-0.1c-0.7,0-1.3-0.1-2-0.1c-0.3,0-0.7-0.1-1-0.1c-0.7,0-1.4,0-2.1,0
		c-0.4,0.1-0.8,0.2-1.2,0.2c-0.3,0-0.6,0-0.9,0c-2.6,0-5.1,0-7.7,0C2.5,10.2,2.1,10,2,9.7C1.9,9.4,2.1,9.2,2.4,9 M3,11.3
		c0.1-0.4,0.5-0.5,0.9-0.5c0.6,0,1.1,0,1.7,0c1.3,0,2.5,0,3.8,0c1,0,2,0,2.9,0.1c0.4,0,0.7,0.1,1.1,0.1c0.5,0.1,1,0,1.5-0.1
		c1.9-0.2,3.8-0.1,5.6-0.1c0.5,0,1.1,0,1.6,0c0.4,0,0.8,0,1.2,0c0.3,0,0.6,0,0.9,0c0.5,0,1,0.1,1.6,0.1c0.3,0,0.6,0.1,0.9,0.1
		c7.6,0,15.3,0,22.9,0c0.1,0,0.2,0,0.3,0c3,0,6,0,9.1,0c0,0.2,0,0.4,0,0.5c-10.7,0-21.4,0-32.1,0C25.9,11.9,25,12,24.1,12
		c-0.3,0-0.5,0-0.8,0c-0.6,0.1-1.3,0-1.9,0.1c-0.9,0-1.9,0-2.8,0c-0.5-0.1-1.1,0-1.6-0.1c-0.8,0-1.6-0.1-2.4-0.2
		c-0.7-0.2-1.4,0-2,0.1c-0.3,0-0.5,0-0.8,0.1c-0.7,0-1.5,0.1-2.2,0c-1.4,0-2.7,0-4.1,0c-0.7-0.1-1.3,0-2,0c-0.1,0-0.2-0.1-0.3-0.1
		C3.1,11.7,2.9,11.5,3,11.3 M5,12.6c0.5,0,1,0,1.5,0c1.9,0,3.7,0,5.6,0c0.5,0,0.9,0.1,1.4,0c1.1,0.1,2.3-0.1,3.4,0
		c0.9,0,1.8-0.1,2.7,0c0.5,0.1,1,0,1.4,0c0.5,0,1,0.1,1.5,0.1c0.8,0.1,1.6,0.2,2.4,0.3c11.4,0,22.7,0,34.1,0c0,0.2,0,0.4,0,0.5
		c-11,0-22,0-33,0c-0.5,0-1,0-1.5,0c-0.6,0.1-1.1,0.1-1.7,0.2c-0.5,0-1,0.1-1.4,0.1c-0.3,0.1-0.5,0-0.8,0.1c-0.5,0-0.9,0-1.4,0
		c-1.3,0-2.6,0-3.9,0c-0.3-0.1-0.7,0-1,0c-0.5,0-1,0-1.6,0c-0.6,0-1.1,0-1.7,0c-1.7,0-3.4,0-5.1,0c-0.2,0-0.5,0-0.7,0
		c-0.3,0-0.8-0.2-0.8-0.6C4.2,12.9,4.6,12.6,5,12.6 M6.3,14.8c0.1-0.3,0.5-0.4,0.8-0.4c0.8,0,1.6,0,2.5,0c1.4,0,2.8,0,4.2,0
		c0.4,0,0.7,0,1.1,0c0.4,0,0.8,0,1.3,0c0.7,0.1,1.4,0.1,2.1,0.1c0.2,0,0.5,0.1,0.7,0.1c0.2,0,0.4,0.1,0.6,0.1c0.2,0,0.4,0.1,0.6,0.1
		c0.4,0.1,0.8,0,1.2,0c8.1,0,16.2,0,24.3,0c0.9,0,1.7,0,2.6,0c3.6,0,7.1,0,10.7,0c0,0.2,0,0.4,0,0.5c-0.3,0-0.5,0-0.8,0
		c-0.2,0-0.4,0-0.6,0c-6,0-12,0-18.1,0c-0.7,0-1.4,0-2.2,0c-5.5,0-11,0-16.5,0c-0.3,0-0.5,0-0.8,0c-1.1,0.2-2.2,0.2-3.3,0.3
		c-0.4,0-0.8,0-1.2,0c-0.7,0-1.4,0-2,0c-1.2,0-2.4,0-3.5,0c-0.1,0-0.2,0-0.3,0c-0.9,0-1.9,0-2.8,0C6.5,15.7,6.1,15.2,6.3,14.8
		 M9.6,16.9c0-0.4,0.4-0.6,0.8-0.6c3.1,0,6.2,0,9.3,0c0.6,0.1,1.3,0,1.9,0c0.3,0.1,0.5,0,0.8,0c0.6,0,1.2,0.1,1.8,0.1
		c0.6,0.1,1.3,0.1,1.9,0.2c6.4,0,12.7,0,19.1,0c0.6,0,1.2,0,1.8,0c4,0,7.9,0,11.9,0c0,0.2,0,0.4,0,0.5c-1.1,0-2.2,0-3.3,0
		c-5.2,0-10.5,0-15.7,0c-0.4,0-0.9,0-1.3,0c-4,0-8,0-11.9,0c-0.4,0-0.7,0.1-1,0.1c-0.1,0-0.2,0-0.4,0.1c-0.9,0.1-1.8,0.2-2.7,0.2
		c-0.7,0.1-1.3,0-2,0.1c-0.4,0-0.9,0-1.3,0c-0.1,0-0.2,0-0.3,0c-2.9,0-5.8,0-8.7,0C9.9,17.6,9.6,17.3,9.6,16.9 M12.3,18.4
		c0.2-0.2,0.5-0.3,0.7-0.3c0.9,0,1.7,0,2.6,0c0.7,0.1,1.4,0,2.1,0.1c0.2,0,0.5,0,0.7,0c0.4,0,0.8,0,1.1,0c0.2,0,0.5,0,0.7,0
		c0.6,0,1.3,0,1.9,0c0.5,0,1,0.1,1.5,0c0.5,0,1,0,1.5,0c0.2,0,0.4,0,0.6,0.1c0.3,0,0.7,0.1,1,0.1c0.2,0,0.4,0.1,0.6,0.1
		c0.4,0.1,0.7,0.1,1.1,0.1c0.2,0,0.5,0,0.7,0c9.9,0,19.8,0,29.7,0c0,0.2,0,0.4,0,0.5c-10,0-19.9,0-29.9,0c-0.7,0-1.4,0.1-2.1,0.2
		c-0.6,0.1-1.3,0.1-1.9,0.1c-0.5,0-1.1,0.1-1.6,0c-1,0-2,0-3,0c-0.4,0-0.7,0-1.1,0c-0.2,0-0.4,0-0.5,0c-1,0-2,0-3,0
		c-0.8,0.1-1.6,0-2.4,0c-0.4,0-0.8,0.1-1.1-0.2c0-0.1-0.1-0.2-0.1-0.2C12.1,18.8,12.1,18.6,12.3,18.4 M11.8,20.5
		c0.1-0.4,0.5-0.5,0.8-0.5c1.1,0,2.2,0,3.4,0c0.6,0,1.3,0.1,1.9,0.1c0.3,0,0.7,0.1,1,0.1c0.6,0.1,1.2-0.1,1.8-0.1
		c0.4,0,0.8,0,1.2-0.1c1.4,0,2.7-0.1,4.1,0c0.3,0,0.6,0,0.9,0c0.5,0,0.9,0,1.4,0.1c0.2,0,0.5,0,0.7,0.1c0.5,0.1,0.9,0.1,1.4,0.1
		c7.7,0,15.4,0,23.1,0c0.2,0,0.4,0,0.5,0c0.5,0.1,1,0,1.5,0c1.1,0,2.3,0,3.4,0c0,0.2,0,0.4,0,0.5c-7,0-14,0-21,0c-0.3,0-0.6,0-0.9,0
		c-2.2,0-4.4,0-6.6,0c-0.3,0-0.6,0-0.9,0c-0.3,0.1-0.6,0.1-1,0.2c-0.3,0-0.6,0.1-0.9,0.1c-0.6,0-1.3,0.1-1.9,0.1c-0.1,0-0.2,0-0.3,0
		c-0.8,0-1.6,0-2.5,0c-0.1,0-0.2,0-0.3,0c-0.7,0-1.4,0-2.1-0.1c-0.2,0-0.4,0-0.7-0.1c-0.6-0.2-1.2-0.1-1.7,0c-0.2,0-0.4,0-0.6,0.1
		c-0.4,0-0.8,0-1.2,0.1c-1.4,0-2.8,0-4.1,0C12,21.2,11.7,20.9,11.8,20.5 M12.8,21.9c0.5,0,1,0,1.5,0c0.5,0,0.9,0,1.4,0
		c0.7,0,1.5,0.1,2.2,0.2c0.7,0.1,1.5,0.2,2.2,0.2c0.4,0,0.7,0,1.1,0c0.7-0.1,1.3-0.2,2-0.2c0.3-0.1,0.7,0,1.1-0.1
		c1.7,0,3.5,0,5.2,0.1c0.3,0,0.6,0.1,0.8,0.1c8.5,0,17,0,25.6,0c1,0.1,2,0,3,0c0,0.2,0,0.4,0,0.5c-9.5,0-19.1,0-28.6,0
		c-0.6,0.1-1.2,0.2-1.8,0.2c-1.4,0.1-2.8,0.1-4.2,0.1c-0.3-0.1-0.5,0-0.8-0.1c-0.7,0-1.5-0.1-2.2-0.2c-0.4,0-0.8,0-1.2,0
		c-0.5,0-0.9,0.1-1.4,0.1c-0.8,0.1-1.5,0.2-2.3,0.2c-1.2,0-2.4,0-3.5,0c-0.3,0-0.7-0.3-0.7-0.6C12.2,22.1,12.5,21.9,12.8,21.9
		 M13.9,23.7c0.4-0.2,0.8-0.1,1.2-0.1c0.3,0,0.6,0,0.9,0c0.4,0,0.8,0,1.2,0.1c0.8,0,1.6,0.2,2.3,0.3c2.1,0,4.2,0,6.3,0
		c0.2,0,0.4,0,0.5,0c1.3-0.3,2.7-0.2,4.1,0.1c9.5,0,19,0,28.6,0c0,0.2,0,0.4,0,0.6c-6.8,0-13.6,0-20.5,0c-0.3,0-0.7-0.1-1,0
		c-2.2,0-4.4,0-6.6,0c-0.3,0-0.5,0-0.8,0.1c-0.4,0.1-0.8,0.2-1.2,0.3c-0.4,0-0.8,0.1-1.2,0c-0.5,0-1-0.1-1.5-0.3
		c-0.1-0.1-0.3,0-0.4,0c-2.1,0-4.1,0-6.2,0c-0.9,0.1-1.8,0.2-2.8,0.3c-0.8,0-1.6,0-2.3,0c-0.3,0-0.6-0.1-0.8-0.3
		C13.4,24.3,13.6,23.9,13.9,23.7 M15.9,26.2c-0.1-0.4,0.4-0.7,0.8-0.7c0.4,0,0.7,0.2,1.1,0.3c0.3,0.1,0.5,0.1,0.8,0.1
		c10.2,0,20.4,0,30.6,0c1.1,0.1,2.2,0,3.3,0c2.2,0,4.4,0,6.5,0c0,0.2,0,0.4,0,0.5c-13.6,0-27.3,0-40.9,0c-0.4,0-0.8,0.3-1.3,0.3
		C16.4,26.8,15.9,26.6,15.9,26.2L15.9,26.2z"/>
	<path class="st1" d="M50.6,28.6c0.4-0.4,0.9-0.8,1.3-1.2c-0.1,0.6-0.5,1-0.9,1.4c-1.1,1.1-2.4,2-3.6,2.9c-0.3,0.2-0.5,0.5-0.9,0.6
		c0.2-0.6,0.7-1,1.2-1.3C48.7,30.1,49.7,29.4,50.6,28.6 M40.2,29.7c0.6-0.5,1.1-1,1.7-1.5c-0.2,0.6-0.6,1.1-1.1,1.6
		c-0.6,0.6-1.3,1.1-1.9,1.6c0.2,0.1,0.4,0.3,0.5,0.5c-0.1,0.3-0.2,0.6-0.5,0.8c-0.2-0.1-0.4-0.2-0.5-0.4c0-0.3,0.2-0.5,0.3-0.8
		c-0.6,0.5-1.2,0.9-1.8,1.3c-0.2,0.1-0.4,0.4-0.7,0.4c0.1-0.3,0.3-0.7,0.6-0.9C37.9,31.4,39.1,30.7,40.2,29.7 M58.4,29.6
		c-0.3,0.8-0.9,1.4-1.5,1.9c-1.2,1.1-2.6,2-3.9,2.9c0.1-0.4,0.3-0.7,0.6-1c0.8-0.7,1.8-1.3,2.6-2C57,30.9,57.6,30.2,58.4,29.6
		 M7.4,31.3c0.1-0.2,0.2-0.4,0.4-0.6c0.2,0.1,0.4,0.3,0.5,0.5c0,0.3-0.2,0.7-0.5,0.8c-0.1-0.1-0.3-0.2-0.4-0.4
		C7.3,31.8,7.1,32,7,32.1c-0.2-0.1-0.4-0.3-0.5-0.4c0.1-0.3,0.3-0.6,0.4-0.8c0.1,0,0.2,0,0.3,0.1C7.2,31.1,7.3,31.2,7.4,31.3
		 M23.1,32.5c0.2-0.3,0.3-0.6,0.5-0.9c0.2,0.2,0.5,0.3,0.5,0.7c-0.1,0.3-0.2,0.6-0.4,0.7C23.4,32.8,23.2,32.7,23.1,32.5 M43.9,32.4
		c0.1-0.2,0.2-0.4,0.4-0.6c0.2,0.1,0.4,0.3,0.5,0.6c-0.1,0.3-0.2,0.5-0.5,0.7c-0.2-0.1-0.3-0.3-0.5-0.4c-0.1,0.2-0.2,0.4-0.5,0.6
		c-0.2-0.1-0.3-0.3-0.5-0.4c0.1-0.3,0.3-0.6,0.5-0.9c0,0,0.1,0,0.2,0C43.7,32.1,43.8,32.2,43.9,32.4 M47.2,32.4
		c0.1-0.1,0.1-0.3,0.2-0.4c0,0,0,0.2,0,0.2c-0.1,0.4-0.1,0.8-0.2,1.2c0,0.2,0,0.3-0.1,0.5c0,0.7-0.2,1.3-0.5,1.9
		c-0.2,0.3-0.4,0.7-0.8,0.7c-0.1-0.1-0.1-0.1-0.2-0.2c-0.2,0.3-0.4,0.6-0.7,0.8c-0.2,0.1-0.5,0-0.7,0.1c-0.7,0.1-1.3,0.5-1.7,1
		c-0.4,0.5-0.6,1-1.1,1.4c-0.4,0.4-0.8,0.6-1.3,0.9c-0.2,0.1-0.4,0.2-0.6,0.2c0.3-0.4,0.8-0.6,1.2-1c1.1-0.9,1.6-2.4,2.8-3.1
		c0.5-0.3,1.1-0.4,1.7-0.4c0.1,0,0.3-0.1,0.3-0.3c0-0.6,0.1-1.2,0.1-1.8c0-0.6,0.3-1.1,0.6-1.6c0,0,0.1,0.1,0.1,0.1
		c-0.2,0.8-0.4,1.6-0.3,2.5c0,0.1,0.1,0.2,0.2,0.3c0.1,0,0.3,0,0.4-0.1c0.1-0.2,0.1-0.4,0.1-0.6c0-0.5,0.1-1,0.1-1.5
		C46.9,32.9,47.1,32.7,47.2,32.4 M55.2,33.5c0.1-0.3,0.2-0.7,0.5-0.9c0.2,0.1,0.4,0.2,0.5,0.4c0.1,0.3-0.2,0.6-0.4,0.9
		C55.5,33.8,55.4,33.7,55.2,33.5 M15.2,33.1c0.2-0.1,0.3-0.3,0.4-0.5c0,0.5-0.4,1-0.7,1.3c-0.3,0.4-0.7,0.7-1,1
		c-0.6,0.6-1.2,1.1-1.7,1.6c0.1,0,0.2,0,0.3,0c0.2,0.1,0.5,0.2,0.5,0.4c0.1,0.6-0.1,1.3-0.4,1.8c-0.2,0.3-0.5,0.6-0.9,0.6
		c-0.3,0-0.5-0.3-0.5-0.6c-0.2-0.6,0-1.3,0.1-1.9c0.1-0.5,0.1-1.1,0.3-1.6c0.1-0.2,0.1-0.4,0.2-0.6c0.1,0.1,0.1,0.2,0,0.3
		c-0.1,0.5-0.1,1.1-0.2,1.6c0.3-0.3,0.6-0.6,0.9-0.9C13.4,34.9,14.3,34.1,15.2,33.1 M11.6,37.8c-0.1,0.1,0,0.3,0,0.4
		c0.2,0.2,0.6,0.2,0.9,0c0.1-0.1,0.1-0.3,0.1-0.4C12.3,37.6,11.8,37.5,11.6,37.8 M35.5,35.6c0.1-0.7,0.2-1.4,0.7-1.9
		c-0.1,0.6-0.2,1.1-0.2,1.7c0,0.3,0.1,0.6,0.4,0.8c0.2,0.1,0.5,0.1,0.7,0c0.2-0.2,0.3-0.4,0.6-0.5c0.2-0.1,0.4,0.1,0.5-0.1
		c0.1-0.1,0.2-0.3,0.4-0.4c0,0.4-0.2,0.7-0.5,1c-0.1,0.1-0.3,0.1-0.5,0.1c-0.5,0.2-0.6,0.8-1.1,1c-0.3,0.1-0.7-0.1-0.9-0.3l0.1-0.1
		c0,0-0.1,0-0.1,0c-0.1,0.1-0.2,0.3-0.3,0.5c0.2,0.2,0.6,0.4,0.6,0.7c0,0.4-0.1,0.8-0.2,1.2c-0.3,0.8-0.9,1.6-1.7,1.9
		c-0.6,0.2-1.3,0.2-1.7-0.3c-0.3-0.3-0.3-0.8-0.3-1.3c0.1-0.8,0.5-1.6,0.9-2.3c0.2-0.3,0.3-0.6,0.5-0.8c0,0.3-0.1,0.6-0.3,0.8
		c-0.2,0.5-0.5,1-0.6,1.5c-0.1,0.3,0,0.7,0.2,1c0.2,0.2,0.5,0.3,0.7,0.3c0.8,0.1,1.8-0.3,2.1-1.2c-0.2-0.3-0.6-0.3-0.8-0.6
		c0-0.2,0-0.3,0.1-0.5c0.2-0.5,0.5-0.9,0.7-1.3C35.5,36.1,35.4,35.8,35.5,35.6 M55.7,34.2c0.1-0.2,0.2-0.4,0.4-0.6
		c0.2,0.1,0.4,0.2,0.5,0.4c0,0.3-0.2,0.7-0.4,0.9c-0.2-0.1-0.3-0.3-0.5-0.4c-0.1,0.2-0.2,0.4-0.4,0.6c-0.2-0.1-0.4-0.3-0.5-0.4
		c0.1-0.3,0.3-0.6,0.5-0.9C55.4,33.9,55.6,34.1,55.7,34.2 M7,34.9c0.1-0.3,0.2-0.7,0.3-1c0.4,0.2,0.5,0.7,0.5,1.1
		c-0.1,0.7-0.4,1.4-0.7,2.1c0.2,0.2,0.6,0.3,0.6,0.7c0.1,0.8-0.3,1.7-0.7,2.4c-0.3,0.5-0.8,1-1.5,1.2c-0.2,0-0.4,0-0.6,0
		c-0.4-0.1-0.7-0.4-0.9-0.7c-0.4-0.7-0.2-1.5,0-2.3c0.2-0.6,0.5-1.2,0.8-1.8c0-0.1,0.1-0.2,0.2-0.2c0,0.3-0.1,0.5-0.2,0.8
		c-0.2,0.6-0.5,1.2-0.6,1.8c0,0.4,0,0.8,0.3,1c0.3,0.3,0.8,0.3,1.2,0.2c0.7-0.1,1.4-0.6,1.5-1.4c-0.3-0.2-0.6-0.3-0.8-0.6
		c-0.1-0.4,0.1-0.7,0.3-1.1c0.2-0.4,0.4-0.8,0.4-1.2c-0.1-0.2-0.1-0.4-0.3-0.6C7.1,35.1,7,35,7,34.9 M25.2,36.1
		c0-0.6,0.2-1.2,0.5-1.8c0,0.1,0.1,0.2,0.1,0.3c0,0.2,0,0.5,0,0.7c-0.1,0.4,0,0.8,0,1.2c-0.1,0.6-0.2,1.1-0.6,1.6
		c-0.1-0.1,0-0.3,0-0.4C25.2,37.2,25.2,36.7,25.2,36.1 M52.8,34.6c0.1,0.1,0,0.3,0,0.5c0,0.4-0.1,0.7-0.1,1.1
		c-0.1,0.4-0.1,0.8,0.2,1.1c0.2,0.3,0.6,0.3,0.8,0.2c0.3-0.1,0.4-0.4,0.6-0.6c0.1-0.1,0.3,0,0.4,0c0.1-0.1,0.2-0.2,0.3-0.4
		c0.2,0.2,0.3-0.1,0.4-0.3c0.3,0,0.3-0.2,0.4-0.4c0,0,0.1,0.1,0.1,0.1c-0.1,0.3-0.1,0.6-0.3,0.8c-0.2,0.2-0.4,0.4-0.7,0.5
		c-0.1,0.1-0.2,0.2-0.3,0.3c-0.1,0.1-0.4,0.1-0.5,0.2c-0.3,0.2-0.4,0.7-0.8,0.9c-0.1,0.1-0.2,0.1-0.3,0.1c-0.3,0-0.5-0.2-0.6-0.4
		c-0.3,0.5-0.5,1-1.1,1.2c-0.3,0.2-0.7-0.1-1,0c-0.2,0-0.4,0.1-0.6,0.2c0-0.3,0.2-0.4,0.4-0.6c0.3-0.3,0.6-0.5,1-0.5
		c0.2,0,0.4,0.1,0.5,0.1c0.3,0,0.4-0.3,0.5-0.5c0.1-0.7,0.1-1.4,0.2-2.1C52.5,35.4,52.7,35,52.8,34.6 M18.1,35.1
		c0.2,0.2,0.5,0.4,0.5,0.7c0,0.3-0.2,0.5-0.4,0.7c-0.2-0.1-0.4-0.3-0.6-0.4C17.8,35.7,17.9,35.4,18.1,35.1 M17.1,35.1
		c0.2,0.2,0.6,0.4,0.5,0.8c-0.1,0.2-0.2,0.5-0.4,0.6c-0.2-0.2-0.4-0.3-0.6-0.5C16.8,35.7,16.9,35.4,17.1,35.1 M48.5,35.6
		c0.1-0.1,0.1-0.2,0.2-0.3c-0.1,0.6,0,1.2-0.1,1.8c0,0.5-0.1,1-0.3,1.5c-0.1,0.2-0.2,0.4-0.4,0.5c0-0.3,0.1-0.6,0.1-0.9
		c0-0.5,0-0.9,0-1.4C48.2,36.4,48.3,36,48.5,35.6 M23,35.5c0.3,0,0.5,0.2,0.8,0.2c0.2,0.1,0.4-0.1,0.6-0.2c0,0.2-0.1,0.5-0.3,0.6
		c-0.6,0.5-1.1,1.1-1.7,1.6c-0.2,0.1-0.3,0.4-0.5,0.4c-0.2-0.1-0.5-0.1-0.7-0.2c-0.2,0.3-0.4,0.6-0.7,0.7c-0.8,0.5-1.8,0.7-2.7,0.8
		c-0.9,0.1-1.8,0.2-2.7-0.1c-0.4-0.1-0.6-0.5-0.6-0.8c0-0.4-0.1-0.8,0.1-1.2c0.1,0.2,0.2,0.5,0.3,0.6c0.2,0.2,0.6,0.2,0.9,0.3
		c0.9,0.1,1.8,0,2.7-0.1c0.8-0.1,1.7-0.2,2.4-0.6c0.2-0.1,0.3-0.2,0.4-0.3c0,0.1,0,0.2,0,0.2c0.9-0.1,1.5-0.8,2.1-1.4
		c-0.2-0.1-0.5-0.3-0.7-0.3c-0.2,0-0.3,0.2-0.4,0.3c0,0-0.1,0-0.1,0C22.3,35.9,22.5,35.5,23,35.5 M30.9,36.4c0-0.1,0.2-0.3,0.2-0.1
		c-0.1,0.4-0.2,0.7-0.4,1c-0.2,0.3-0.7,0.3-0.9,0.6c-0.3,0.4-0.3,1.1-0.8,1.4c-0.3,0.2-0.7,0.2-1.1,0.2c0-0.1,0-0.2,0.1-0.2
		c0.4-0.3,0.9-0.5,1.2-0.9c0.3-0.4,0.4-1,0.8-1.3C30.3,36.8,30.7,36.7,30.9,36.4 M26.7,37.4c0.1-0.4,0.3-0.7,0.5-1
		c0.4,0.2,0.8,0.6,0.8,1.1c0,0.5-0.2,1.1-0.6,1.4c-0.3,0.3-0.7,0.5-1.2,0.5c0.1-0.3,0.4-0.4,0.6-0.6c0.2-0.2,0.4-0.4,0.5-0.6
		C27.3,37.8,27,37.6,26.7,37.4 M40.4,36.5c0.3-0.1,0.6,0.3,0.6,0.6c0,0.6-0.2,1.1-0.5,1.6c-0.1,0.2-0.3,0.4-0.5,0.5
		c-0.3,0.1-0.7,0.3-1,0.3c0.4-0.6,1.3-0.7,1.5-1.5c-0.3,0.2-0.6,0-0.7-0.2C39.9,37.3,40.1,36.8,40.4,36.5 M9.5,38.5
		c0.5-0.5,0.6-1.2,1-1.8c0.2,0.2,0.1,0.4,0,0.5c-0.2,0.5-0.3,1.1-0.6,1.6c-0.2,0.3-0.6,0.4-1,0.5c-0.2,0-0.4,0.2-0.6,0
		C8.6,39.1,9.1,38.9,9.5,38.5 M36.4,40.5c0.1-0.2,0.2-0.4,0.4-0.6c0.2,0.1,0.4,0.3,0.5,0.6c0,0.3-0.2,0.5-0.5,0.7
		c-0.2-0.1-0.3-0.2-0.5-0.4c-0.1,0.2-0.2,0.4-0.5,0.6c-0.2-0.1-0.3-0.3-0.5-0.4c0.1-0.3,0.3-0.6,0.5-0.8
		C36.1,40,36.2,40.3,36.4,40.5 M30,41.5c0.1-0.2,0.2-0.4,0.4-0.6c0.3,0.1,0.6,0.4,0.5,0.7c-0.1,0.2-0.2,0.4-0.4,0.6
		c-0.2,0-0.3-0.2-0.5-0.4c-0.1,0.2-0.2,0.4-0.4,0.6c-0.2,0-0.4-0.3-0.6-0.4c0.2-0.3,0.2-0.7,0.5-0.9C29.7,41.2,29.9,41.3,30,41.5
		 M52.5,42.2c0-0.4,0.2-0.7,0.5-0.9c0.2,0.1,0.4,0.3,0.5,0.5c0,0.3-0.2,0.6-0.4,0.8C52.9,42.5,52.6,42.4,52.5,42.2 M29.9,42.2
		c0.1-0.2,0.3,0.1,0.4,0.2c0.3,0.3,0,0.8-0.3,1c-0.2-0.2-0.3-0.3-0.5-0.5C29.6,42.7,29.8,42.5,29.9,42.2 M33.2,45.3
		c0.2-0.2,0.3-0.4,0.5-0.5c-0.1,0.6-0.5,1.1-0.9,1.6c-1.3,1.3-2.8,2.4-4.3,3.5c-0.1,0.1-0.3,0.2-0.4,0.3c0.1-0.3,0.3-0.6,0.5-0.9
		c0.6-0.6,1.4-1.2,2.1-1.7C31.6,46.8,32.4,46.1,33.2,45.3 M32.8,47.9c0.3,0.1,0.5,0.3,0.6,0.6c-0.1,0.3-0.2,0.7-0.5,0.9
		c-0.2-0.2-0.4-0.3-0.6-0.5C32.5,48.5,32.6,48.2,32.8,47.9 M33.3,49.1c0.3,0.1,0.5,0.3,0.5,0.6c0,0.3-0.2,0.6-0.4,0.8
		c-0.1,0.1-0.2,0-0.2-0.1c-0.1-0.1-0.2-0.2-0.3-0.3c-0.1,0.2-0.2,0.4-0.4,0.6c-0.3-0.1-0.4-0.3-0.6-0.4c0.1-0.3,0.3-0.7,0.5-0.9
		c0,0,0.1,0,0.1-0.1c0.2,0.1,0.3,0.3,0.5,0.5C33,49.5,33.2,49.3,33.3,49.1 M27.4,51.9c0-0.7,0.4-1.2,0.6-1.8c0.1,0.1,0.1,0.2,0,0.4
		c-0.2,1,0,2-0.2,2.9c-0.1,0.7-0.3,1.5-0.8,2.1c-0.4,0.7-1.3,1.2-2.1,1.2c-0.4,0-0.8,0-1.1-0.3c-0.2-0.2-0.2-0.6-0.2-0.9
		c0.1-0.4,0.1-0.8,0.2-1.1c0.2,0.1,0,0.4,0.2,0.6c0.1,0.2,0.2,0.3,0.4,0.3c0.6,0.2,1.3,0.1,1.9-0.1c0.4-0.2,0.8-0.5,0.9-1
		C27.4,53.4,27.4,52.6,27.4,51.9 M31.5,52.2c0.1-0.4,0.2-0.8,0.5-1.1c0,0.3,0,0.5,0,0.8c0,0.2-0.1,0.4-0.1,0.6
		c0,0.2-0.1,0.4-0.1,0.6c0,0.6-0.2,1.3-0.1,1.9c0.1,0.4,0.6,0.4,1,0.3c0.2-0.1,0.4-0.3,0.6-0.5c0.1,0,0.2,0,0.2,0
		c0.2-0.1,0.2-0.4,0.4-0.5c0.1,0,0.2,0.1,0.3,0c0.1-0.2,0.2-0.4,0.2-0.5c0.1,0.2,0.1,0.4,0,0.6c-0.1,0.3-0.3,0.6-0.6,0.7
		c-0.1,0.1-0.2,0.3-0.3,0.3c-0.2,0.1-0.3,0-0.5,0.1c-0.3,0.2-0.5,0.7-0.9,0.8c-0.3,0.1-0.8-0.1-0.9-0.4c-0.2-0.7-0.1-1.4,0-2.1
		C31.3,53.3,31.4,52.8,31.5,52.2 M37.4,51.7c0-0.1-0.1-0.2,0-0.3c1.2,0.7,1.8,2.3,1.3,3.6c-0.2,0.7-0.7,1.3-1.3,1.7c0,0-0.1,0-0.2,0
		c0.1-0.4,0.4-0.7,0.5-1.1c0.4-0.7,0.5-1.6,0.2-2.4C38,52.7,37.7,52.2,37.4,51.7 M20,54.5c-0.1-1.2,0.5-2.3,1.5-2.9
		c0.1,0.1,0,0.3-0.1,0.4c-0.4,0.7-0.7,1.5-0.7,2.3c0,0.8,0.4,1.7,0.8,2.4c0.1,0.1,0.1,0.2,0.1,0.3c-0.1,0-0.2-0.1-0.4-0.2
		C20.5,56.2,20.1,55.4,20,54.5 M30.7,53.3c0.2-0.2,0.2-0.4,0.5-0.6c0,0.3-0.1,0.5-0.2,0.8c-0.1,0.2-0.2,0.4-0.3,0.6
		c-0.3,0.2-0.7,0.3-0.9,0.6c-0.3,0.5-0.4,1.1-0.9,1.5c-0.4,0.2-0.9,0.3-1.4,0.2c0.1-0.2,0.4-0.3,0.6-0.5c0.4-0.3,0.9-0.5,1.2-1
		c0.2-0.3,0.3-0.7,0.6-1C30.1,53.6,30.4,53.5,30.7,53.3 M25.8,53.1c0.1-0.1,0.3-0.1,0.4-0.2c0,0.1,0.1,0.2,0.1,0.2
		c-0.2,0-0.3,0.1-0.4,0.2c0,0.1,0.1,0.2,0.1,0.3c-0.1,0.2-0.3,0.3-0.5,0.4c-0.1,0-0.4-0.2-0.2-0.3c0.1,0,0.3,0,0.4,0
		C25.8,53.5,25.7,53.2,25.8,53.1 M30.5,57.2c0.3,0.1,0.6,0.4,0.5,0.8c-0.1,0.3-0.2,0.5-0.4,0.7c-0.2,0-0.3-0.3-0.5-0.4
		c-0.1,0.2-0.2,0.5-0.4,0.6c-0.3,0-0.5-0.3-0.6-0.5c0.2-0.3,0.3-0.7,0.5-1c0.2,0.1,0.4,0.3,0.5,0.5C30.2,57.6,30.3,57.4,30.5,57.2
		 M30,58.6c0.2,0.1,0.4,0.3,0.5,0.5c0,0.4-0.2,0.7-0.4,1c-0.2-0.2-0.4-0.3-0.5-0.5C29.6,59.2,29.8,58.9,30,58.6L30,58.6z"/>
</g>
</svg>
