<?xml version="1.0" encoding="utf-8"?>
<!-- Generator: Adobe Illustrator 20.1.0, SVG Export Plug-In . SVG Version: 6.00 Build 0)  -->
<svg version="1.1" id="Layer_1" xmlns="http://www.w3.org/2000/svg" xmlns:xlink="http://www.w3.org/1999/xlink" x="0px" y="0px"
	 viewBox="0 0 60 60" style="enable-background:new 0 0 60 60;" xml:space="preserve">
<style type="text/css">
	.st0{fill:#3497FD;}
</style>
<g>
	<path class="st0" d="M5,5.6c0.3,0,0.6,0,0.8,0c16,0,32,0,48,0c0.3,0,0.6,0,0.9,0c1.4,0,2.9,0.7,3.8,1.8c1,1.1,1.6,2.5,1.6,4
		c0,0.9,0,1.7,0,2.6c-9.6,0-19.2,0-28.8,0c-0.5-0.1-1,0-1.6,0c-0.4-0.1-0.7,0-1.1,0c-0.3,0-0.6,0-0.9,0c-1.2-0.1-2.4-0.1-3.6-0.2
		c-1.4-0.1-2.7-0.5-4.1-0.6c-1.5-0.2-3.1-0.2-4.7-0.1c-0.7,0.1-1.5,0.2-2,0.7c-0.3,0.2-0.3,0.6-0.2,0.9c0.3,0.4,0.8,0.7,1.2,0.8
		c0.3,0.1,0.7,0,1,0.1c0.4,0,0.9,0,1.3,0c1.5,0.1,3,0,4.4-0.3c0.1,0,0.1,0,0.2,0c0.5-0.1,1-0.1,1.5-0.2c1.9-0.3,3.8-0.3,5.8-0.4
		c0.8,0,1.6,0,2.4-0.1c9.7,0,19.5,0,29.2,0c0,0.8,0,1.6,0,2.4c-10.3,0-20.5,0-30.8,0c-0.1,0-0.3,0-0.4-0.1c-0.3,0-0.6-0.1-1-0.1
		c-2-0.3-4-0.6-6-0.6c-0.6-0.1-1.3,0-1.9-0.1c-2.6,0-5.2,0-7.9,0c-0.7,0.1-1.5,0-2.2,0.1c-0.8,0-1.6-0.1-2.3,0.4
		c-0.4,0.2-0.7,0.7-0.5,1.1c0.2,0.4,0.7,0.6,1.1,0.8c0.9,0.2,1.8,0.1,2.7,0.2c1,0.1,2,0,3,0c1.1,0,2.2,0,3.3,0c1.8,0,3.6,0,5.4-0.1
		c0.4,0,0.7,0,1.1-0.1c0.8-0.1,1.6-0.2,2.3-0.2c0.2,0,0.4-0.1,0.6-0.1c0.5,0,0.9-0.1,1.4-0.2c0.1,0,0.1,0,0.2,0
		c1.2-0.2,2.4,0,3.6-0.2c5,0,10,0,15.1,0c0.2,0,0.4,0,0.6,0c4.2,0,8.3,0,12.5,0c0,0.8,0,1.6,0,2.4c-8.7,0-17.3,0-26,0
		c-0.5,0-1,0-1.4-0.1c-1.5-0.1-2.9-0.2-4.4-0.3c-1.2-0.1-2.4-0.2-3.6-0.2c-1.9-0.1-3.8-0.2-5.6-0.2c-1.1-0.1-2.3,0-3.4,0
		c-1.9,0-3.8,0-5.7,0c-0.1,0-0.3,0-0.4,0c-0.5,0-1,0-1.5,0c-0.8,0.1-1.6-0.1-2.4,0.2c-0.5,0.2-0.9,0.6-0.9,1.1
		c0,0.3,0.2,0.5,0.4,0.7c0.5,0.3,1.2,0.4,1.9,0.4c0.7,0.1,1.5,0,2.2,0c1.3,0.1,2.7,0,4.1,0c1.3,0,2.6,0,3.9,0c1.4,0.1,2.8,0,4.2,0
		c3.1-0.2,6.2-0.4,9.3-0.6c1-0.1,2.1-0.1,3.1-0.2c4.5,0,9.1,0,13.6,0c0.6,0,1.1,0,1.7,0c3.6,0,7.2,0,10.9,0c0,0.8,0,1.5,0,2.3
		c-8.6,0-17.1,0-25.7,0c-0.7,0-1.4-0.1-2.1-0.2c-0.2,0-0.5-0.1-0.7-0.1c-0.2,0-0.5-0.1-0.7-0.1c-0.2,0-0.5-0.1-0.7-0.1
		c-0.5-0.1-1.1-0.1-1.6-0.2c-1.3-0.1-2.7-0.2-4-0.2c-0.5-0.1-1,0-1.6-0.1c-0.8,0-1.7,0-2.5-0.1c-3.5,0-6.9,0-10.4,0
		c-0.1,0-0.2,0-0.3,0c-0.8,0-1.6,0-2.5,0.1c-0.6,0-1.1,0-1.7,0c-0.6,0-1.1,0.2-1.5,0.6c-0.3,0.3-0.4,0.8-0.1,1.1
		c0.4,0.4,1,0.6,1.5,0.6c0.6,0.1,1.1,0,1.7,0.1c0.9,0,1.8,0,2.7,0c1,0,1.9,0,2.9,0c0.5,0.1,1.1,0,1.6,0c1,0,2.1,0,3.1,0
		c1.1,0.1,2.3,0,3.4,0c0.6-0.1,1.2,0,1.8-0.1c2.5-0.1,5-0.2,7.5-0.4c0.8,0,1.6-0.1,2.3-0.2c0.2,0,0.4,0,0.6-0.1
		c1.2-0.1,2.4-0.1,3.6-0.1c3.9,0,7.8,0,11.7,0c1.3-0.1,2.6,0,4,0c2.6,0,5.1,0,7.7,0c0,0.7,0,1.5,0,2.2c-8.2,0-16.3,0-24.5,0
		c-0.4,0-0.9-0.1-1.3-0.1c-0.2,0-0.4-0.1-0.6-0.1c-0.5-0.1-1-0.1-1.5-0.2c-0.3,0-0.5-0.1-0.8-0.1c-1-0.1-1.9-0.2-2.9-0.2
		c-0.5-0.1-0.9,0-1.4-0.1c-0.5,0-1.1,0-1.6,0c-1.2,0-2.4,0-3.6,0c-4.4,0-8.7,0-13.1,0c-0.3,0-0.5,0-0.8,0c-0.6,0-1.3,0-1.9,0
		c-0.8,0-1.6,0-2.2,0.4c-0.4,0.2-0.6,0.6-0.6,1c0.1,0.4,0.4,0.6,0.7,0.7c0.5,0.2,1.1,0.3,1.7,0.3C6.4,28,7.2,27.9,8,28
		c0.7,0,1.5,0,2.2,0c1.2,0.1,2.5,0,3.7,0.1c1.5,0,2.9,0,4.4,0c1.5,0,2.9,0,4.4,0c0.6-0.1,1.1,0,1.7-0.1c2.3-0.1,4.6-0.2,6.9-0.4
		c0.5,0,0.9-0.1,1.4-0.1c0.3,0,0.6-0.1,0.9-0.1c0.2,0,0.5-0.1,0.7-0.1c0.4,0,0.9-0.1,1.3-0.1c4.4,0,8.9,0,13.3,0
		c0.8-0.1,1.6,0,2.3,0c2.9,0,5.9,0,8.8,0c0,0.8,0,1.5,0,2.3c-8.6,0-17.2,0-25.8,0c-0.2,0-0.5,0-0.7-0.1c-0.3,0-0.7-0.1-1-0.1
		c-0.2,0-0.5-0.1-0.7-0.1c-0.2,0-0.5-0.1-0.7-0.1c-0.5-0.1-1-0.1-1.5-0.2c-0.3,0-0.6-0.1-0.9-0.1c-0.8-0.1-1.5-0.1-2.3-0.2
		c-0.6-0.1-1.2-0.1-1.9-0.1c-0.5-0.1-1,0-1.6-0.1c-0.7,0-1.4,0-2.1,0c-0.2,0-0.4,0-0.6,0c-3.5,0-7,0-10.5,0c-0.8,0.1-1.7,0-2.5,0.1
		c-0.4,0-0.8,0-1.2,0c-0.6,0-1.2,0-1.8,0.3c-0.3,0.2-0.7,0.5-0.6,0.9c0,0.3,0.2,0.5,0.4,0.7c0.4,0.3,1,0.4,1.5,0.4
		c0.5,0.1,1,0,1.6,0.1c0.7,0,1.5,0,2.2,0c1.1,0.1,2.2,0,3.3,0c1.9,0.1,3.8,0,5.8,0.1c0.8,0,1.6,0,2.4,0c0.6-0.1,1.3,0,1.9-0.1
		c2.2-0.1,4.4-0.2,6.6-0.4c0.7,0,1.4-0.1,2.1-0.2c0.3,0,0.6,0,1-0.1c0.7,0,1.4-0.1,2.1-0.2c4.5,0,9,0,13.5,0c1.1-0.1,2.2,0,3.3,0
		c2.9,0,5.9,0,8.8,0c0,0.7,0,1.5,0,2.2c-8.8,0-17.6,0-26.4,0c-0.3,0-0.6,0-0.8-0.1c-0.2,0-0.4,0-0.6-0.1c-3.8-0.3-7.5-0.6-11.3-0.7
		c-0.6-0.1-1.2,0-1.9,0c-0.3,0-0.6,0-0.9,0c-2.5,0-5.1,0-7.6,0c-0.8,0-1.6,0.1-2.4,0c-0.8,0.1-1.5-0.1-2.3,0.2
		c-0.4,0.2-0.9,0.4-1,0.9c-0.1,0.4,0.2,0.8,0.5,1c0.5,0.2,1.1,0.3,1.6,0.3c0.9,0.1,1.8,0,2.8,0c1.5,0.1,2.9,0,4.4,0
		c1.4,0,2.8,0,4.2,0c1.3,0,2.7,0,4-0.1c0.5,0,1.1,0,1.6-0.1c0.4,0,0.8,0,1.2-0.1c0.8,0,1.5-0.1,2.3-0.2c1.8-0.1,3.6-0.3,5.4-0.4
		c1-0.1,2,0,3.1-0.1c3.7,0,7.3,0,11,0c0.3,0,0.5,0,0.8,0c4.1,0,8.2,0,12.3,0c0,0.8,0,1.5,0,2.3c-10.2,0-20.4,0-30.6,0
		c-0.8,0-1.6-0.1-2.4-0.2c-0.3,0-0.7-0.1-1-0.1c-0.3,0-0.5-0.1-0.8-0.1c-0.7-0.1-1.4-0.2-2.1-0.2c-0.7-0.1-1.5-0.1-2.2-0.1
		c-0.5-0.1-0.9,0-1.4,0c-2.4,0-4.7,0-7.1,0c-0.3,0-0.6,0-0.9,0c-0.5,0.1-1.1,0-1.6,0c-0.6,0-1.3-0.1-1.9,0.2
		c-0.4,0.2-0.8,0.5-0.9,0.9c-0.1,0.3,0.2,0.6,0.4,0.8c0.5,0.3,1.2,0.4,1.9,0.4c1.1,0.1,2.2,0,3.3,0.1c2.4,0,4.9,0,7.3,0
		c0.5,0,1.1,0,1.6,0c0.5,0,0.9,0,1.4-0.1c0.8,0,1.6-0.1,2.4-0.2c0.2,0,0.4-0.1,0.6-0.1c0.2,0,0.4-0.1,0.6-0.1c0.5,0,0.9-0.1,1.4-0.2
		c0.2,0,0.5,0,0.7-0.1c1.1,0,2.2,0,3.4,0c4.8,0,9.6,0,14.4,0c0.5,0,1.1,0,1.6,0c4,0,7.9,0,11.9,0c0,0.8,0,1.6,0,2.5
		c-8.6,0-17.2,0-25.8,0c-1.5,0-3,0-4.6,0c-0.6-0.1-1.2-0.1-1.9-0.1c-1.6-0.1-3.3-0.2-4.9-0.4c-0.9-0.1-1.8-0.3-2.7-0.4
		c-0.3,0-0.6-0.1-0.9-0.1C19,38,18.5,38,18.1,38c-0.7-0.1-1.5,0-2.2,0c-0.6,0.1-1.1,0-1.7,0.1c-0.5,0.1-1.1,0.4-1.3,0.9
		c-0.2,0.4-0.1,0.9,0.3,1.1c0.5,0.4,1.2,0.6,1.9,0.7c0.3,0,0.5,0.1,0.8,0.1c1.4,0.1,2.9,0.1,4.3-0.2c0.9-0.2,1.8-0.3,2.7-0.5
		c1.2-0.1,2.3-0.2,3.5-0.3c1.7-0.1,3.4-0.2,5.1-0.2c9.5,0,19,0,28.4,0c0,1.1,0.1,2.2,0,3.4c-0.2,1.9-1.5,3.6-3.3,4.4
		c-0.6,0.3-1.3,0.4-1.9,0.5c-16.4,0-32.8,0-49.1,0c-1.2,0-2.4-0.4-3.3-1.1c-1.4-1-2.3-2.7-2.3-4.4C0,32,0,21.7,0,11.4
		C0,10,0.5,8.6,1.4,7.6C2.3,6.5,3.6,5.8,5,5.6 M45.4,51.5c0.1-0.6,0.4-1.1,0.8-1.5c0.1,0.1,0.2,0.2,0.3,0.3c-0.4,0.5-0.7,1-0.7,1.7
		c0,0.7,0.2,1.4,0.7,1.9c-0.1,0.1-0.2,0.2-0.3,0.3C45.5,53.5,45.2,52.4,45.4,51.5 M57.8,50.3c0.1-0.1,0.2-0.2,0.3-0.3
		c0.6,0.6,0.9,1.4,0.8,2.2c0,0.7-0.4,1.4-0.8,2c-0.1-0.1-0.2-0.2-0.3-0.3c0.6-0.7,0.9-1.8,0.5-2.7C58.2,50.8,58,50.6,57.8,50.3
		 M4,50.8c0.5-0.2,1-0.4,1.5-0.5c0.1,0.2,0.1,0.3,0.2,0.5c-0.4,0.1-0.9,0.2-1.3,0.4c0.2,0.4,0.3,0.9,0.7,1.2c0.3,0.2,0.7,0.1,1,0.1
		c0-0.3-0.2-0.5-0.3-0.7c0.2-0.1,0.3-0.2,0.5-0.4c0.2,0.4,0.5,0.8,0.3,1.3c-0.1,0.2-0.3,0.4-0.5,0.4c-0.4,0-1,0.1-1.3-0.4
		c-0.3,0.4-0.8,0.4-1.2,0.4c0,0.1,0,0.2,0,0.2c-0.2,0.6-0.8,0.9-1.4,1c-0.4,0.1-1,0-1.2-0.4c-0.3-0.5-0.3-1.1-0.1-1.6
		c0.2,0,0.3,0.1,0.5,0.2c-0.1,0.3-0.2,0.7,0.1,1c0.2,0.2,0.5,0.2,0.7,0.2c0.4,0,0.7-0.1,1-0.4c-0.3-0.2-0.7-0.2-1-0.3
		c0.1-0.2,0.1-0.4,0.2-0.5c0.7,0,1.3,0,2,0c0-0.6-0.5-1-0.5-1.5C4,50.9,4,50.8,4,50.8 M7.1,50.3c0.2,0,0.4,0,0.5,0
		c0,0.7-0.1,1.4,0.1,2.1c0,0,0.1,0.1,0.1,0.1c0.3,0,0.5,0,0.8,0c0-0.3-0.2-0.5-0.3-0.7c0.2-0.1,0.3-0.2,0.5-0.3
		c0.2,0.4,0.5,0.9,0.3,1.4c-0.3,0.5-0.8,0.2-1.3,0.3c-0.4,0.1-0.7-0.4-0.7-0.8C7.1,51.7,7.1,51,7.1,50.3 M14.2,50.3
		c0.2,0,0.4,0,0.6,0c0,0.5,0,1,0,1.5c0,0.2,0,0.4,0.1,0.6c0.2,0.1,0.4,0.1,0.6,0.1c0-0.2-0.1-0.5,0-0.8c0.1-0.3,0.5-0.5,0.8-0.5
		c0.3,0,0.7,0.1,0.9,0.3c-0.1,0.1-0.2,0.3-0.2,0.4c-0.3-0.1-0.5-0.2-0.8-0.2c-0.1,0.1-0.2,0.2-0.2,0.3c0.1,0.1,0.2,0.3,0.3,0.3
		c0.3,0,0.7,0,1,0c0,0.2,0,0.4,0,0.6c-0.8,0-1.7,0-2.5,0c-0.4,0-0.6-0.5-0.6-0.8C14.2,51.7,14.2,51,14.2,50.3 M17.7,50.6
		c0.2-0.1,0.3-0.2,0.5-0.3c0.3,0.7,0.6,1.3,0.9,2c0.2-0.6,0.1-1.3,0.1-1.9c0.2,0,0.4,0,0.5,0c0,0.4,0,0.9,0,1.3c0,0.3,0,0.6,0.3,0.8
		c0.2,0,0.3,0,0.5,0c0.1-0.7,0-1.4,0-2.1c0.2,0,0.4,0,0.6,0c0,0.5,0,1.1,0,1.6c0.3-0.3,0.6-0.7,1.1-0.7c0.5,0.1,0.8,0.6,0.7,1.1
		c-0.1,0.4-0.4,0.8-0.9,0.8c-0.7,0-1.4,0-2.1,0c-0.3,0-0.5-0.3-0.6-0.6c-0.4,0.6-1.3,0.7-1.9,0.3c0-0.1,0-0.3,0-0.4c0.3,0,0.7,0,1,0
		C18.3,51.9,17.9,51.2,17.7,50.6 M22.1,51.9c-0.2,0-0.4,0.2-0.6,0.4c-0.1,0.1-0.2,0.2-0.3,0.3c0.3,0,0.6,0,0.9,0
		c0.2-0.1,0.2-0.3,0.2-0.5C22.4,52,22.3,51.8,22.1,51.9 M30.4,50.3c0.2,0,0.4,0,0.6,0c0,0.6,0,1.2,0,1.8c0,0.1,0,0.3,0.1,0.4
		c0.2,0,0.4,0,0.6,0c0.2-0.3,0.1-0.6,0.1-0.9c0.2,0,0.3,0,0.5,0c0,0.3,0,0.7,0.3,0.9c0.2,0,0.5,0,0.7,0c0-0.3-0.2-0.5-0.3-0.7
		c0.2-0.1,0.3-0.2,0.5-0.4c0.2,0.4,0.5,1,0.2,1.5c-0.2,0.3-0.6,0.2-0.9,0.2c-0.3,0-0.5-0.1-0.6-0.3c-0.1,0.2-0.2,0.3-0.4,0.3
		c-0.3,0-0.5,0-0.8,0c-0.3-0.1-0.4-0.4-0.5-0.6C30.3,51.8,30.4,51.1,30.4,50.3 M37.2,50.8c0.4-0.2,0.9-0.3,1.3-0.5
		c0.1,0.2,0.1,0.3,0.2,0.5c-0.4,0.1-0.8,0.2-1.2,0.4c0.1,0.3,0.3,0.6,0.4,0.9c0.1,0.3,0.4,0.4,0.7,0.4c0.1,0,0.3-0.1,0.3-0.2
		c0-0.2,0-0.5,0-0.7c0.2,0,0.4,0,0.5,0c0,0.3,0,0.5,0.1,0.8c0.1,0.2,0.3,0.2,0.5,0.2c0.2-0.2,0.1-0.6,0.1-0.9c0.2,0,0.3,0,0.5,0
		c0.1,0.3,0,0.7,0.2,0.9c0.1,0,0.2,0,0.2,0c0.1-0.3,0-0.6,0.1-0.8c0.2,0,0.3,0,0.5,0c0.1,0.3,0,0.6,0.2,0.8c0.1,0,0.3,0.1,0.3,0
		c0-0.3-0.1-0.5-0.2-0.7c0.1-0.1,0.3-0.2,0.4-0.3c0.3,0.4,0.5,1,0.1,1.5c-0.3,0.3-0.8,0.2-1.1-0.1c-0.1,0.3-0.4,0.3-0.7,0.3
		c-0.1-0.1-0.2-0.2-0.4-0.3c-0.3,0.4-0.9,0.4-1.2,0c-0.1,0.3-0.5,0.3-0.7,0.3c-0.3,0-0.5-0.1-0.7-0.3c-0.3,0.4-0.8,0.3-1.2,0.3
		c-0.3,0-0.5-0.2-0.7-0.4c-0.3,0-0.5,0.1-0.8,0c-0.4,0-0.7-0.5-0.6-0.8c0.1-0.3,0.5-0.5,0.8-0.7c0-0.1-0.1-0.2-0.1-0.3
		c0.1-0.1,0.3-0.2,0.4-0.3c0.2,0.6,0.4,1.2,0.7,1.7c0.3,0.1,0.7,0.1,1,0.1c0-0.5-0.5-0.9-0.5-1.5C37,50.9,37.1,50.8,37.2,50.8
		 M35.1,52.2c0.2,0.1,0.4,0.1,0.7,0.1c-0.1-0.2-0.1-0.3-0.2-0.5C35.4,51.9,35.2,52,35.1,52.2 M51.5,50.3c0.2,0,0.4,0,0.5,0
		c0,0.6,0,1.1,0,1.7c0,0.2,0,0.4,0.2,0.5c0.2,0,0.3,0,0.5,0c0-0.1,0.1-0.1,0.1-0.2c0-0.3,0-0.5,0-0.8c0.2,0,0.3,0,0.5,0
		c0,0.3,0,0.7,0.3,0.9c0.1,0,0.3,0,0.4,0c0.1-0.3,0.1-0.6,0.1-0.9c0.2,0,0.3,0,0.5,0c0.1,0.3,0,0.6,0.2,0.9c0.1,0.2,0.4,0,0.4-0.1
		c0-0.2,0-0.5,0-0.7c0.2,0,0.3,0,0.5,0c0,0.3,0,0.6,0.2,0.8c0.1,0.1,0.3,0.1,0.4,0c0-0.3-0.1-0.5-0.2-0.8c0.1-0.1,0.3-0.2,0.4-0.3
		c0.2,0.3,0.4,0.7,0.3,1c0,0.3-0.2,0.6-0.4,0.7c-0.3,0.1-0.7,0-0.9-0.3c-0.1,0.2-0.3,0.4-0.6,0.3c-0.2,0-0.4-0.2-0.5-0.3
		c-0.3,0.4-1,0.5-1.2,0c-0.1,0.1-0.2,0.3-0.4,0.3c-0.3,0-0.6,0-0.9,0c-0.3-0.2-0.5-0.5-0.5-0.8C51.5,51.7,51.5,51,51.5,50.3
		 M23.3,50.4c0.2,0,0.3,0,0.5,0c0,0.9,0,1.9,0,2.8c-0.2,0-0.4,0-0.5,0C23.3,52.2,23.3,51.3,23.3,50.4 M27.1,50.4c0.2,0,0.3,0,0.5,0
		c0,0.9,0,1.9,0,2.8c0,0,0,0.1,0,0.1c-0.1,0.2-0.2,0.5-0.4,0.7c-0.5,0.4-1.3,0.4-1.7-0.1c-0.4-0.5-0.3-1.2-0.1-1.7
		c0.1,0.1,0.3,0.1,0.4,0.2c-0.1,0.3-0.2,0.7,0,1c0.2,0.3,0.7,0.3,1,0.2c0.3-0.1,0.3-0.4,0.3-0.6C27.1,52,27.1,51.2,27.1,50.4
		 M55.1,50.4c0.2,0,0.3,0,0.5,0c0,0.2,0,0.4,0,0.5c-0.2,0-0.4,0-0.5,0C55.1,50.7,55.1,50.5,55.1,50.4 M41.2,50.4c0.1,0,0.3,0,0.4,0
		c0,0.2,0,0.4,0,0.5c-0.1,0-0.3,0-0.4,0C41.2,50.8,41.2,50.6,41.2,50.4 M28.6,51.2c0.2-0.1,0.3-0.4,0.5-0.4l-0.1,0.1
		c0.3,0.4,0.6,0.7,0.8,1.1c0.3,0.3,0.2,0.9-0.2,1.2c-0.3,0.2-0.7,0.1-1,0.1c-0.4,0-0.6-0.3-0.8-0.5c0.1-0.1,0.3-0.3,0.4-0.4
		c0.3,0.4,0.8,0.2,1.2,0.2c0-0.1,0-0.3-0.1-0.4C29.2,51.8,28.9,51.5,28.6,51.2 M5.9,50.8c0.2,0,0.4,0,0.5,0c0,0.2,0,0.4,0,0.6
		c-0.2,0-0.4,0-0.5,0C5.9,51.2,5.9,51,5.9,50.8 M32.9,50.8c0.2,0,0.3,0,0.5,0c0,0.2,0,0.4,0,0.5c-0.2,0-0.3,0-0.5,0
		C32.9,51.2,32.9,51,32.9,50.8 M33.5,50.8c0.2,0,0.3,0,0.5,0c0,0.2,0,0.4,0,0.5c-0.2,0-0.3,0-0.5,0C33.5,51.2,33.5,51,33.5,50.8
		 M52.7,50.8c0.2,0,0.3,0,0.5,0c0,0.2,0,0.4,0,0.5c-0.2,0-0.3,0-0.5,0C52.7,51.2,52.7,51,52.7,50.8 M53.4,50.8c0.2,0,0.3,0,0.5,0
		c0,0.2,0,0.4,0,0.5c-0.2,0-0.3,0-0.5,0C53.4,51.2,53.4,51,53.4,50.8 M54.9,50.9c0.2,0,0.3,0,0.5,0c0,0.2,0,0.3,0,0.5
		c-0.2,0-0.3,0-0.5,0C54.9,51.3,54.9,51.1,54.9,50.9 M55.5,50.9c0.2,0,0.3,0,0.5,0c0,0.2,0,0.3,0,0.5c-0.2,0-0.3,0-0.5,0
		C55.5,51.3,55.5,51.1,55.5,50.9 M40.9,51c0.1,0,0.3,0,0.4,0c0,0.2,0,0.3,0,0.5c-0.1,0-0.3,0-0.4,0C40.9,51.3,40.9,51.2,40.9,51
		 M41.4,51c0.1,0,0.3,0,0.4,0c0,0.2,0,0.3,0,0.5c-0.1,0-0.3,0-0.4,0C41.4,51.3,41.4,51.2,41.4,51 M11.2,51.4c0.2,0,0.3,0,0.5,0
		c0,0.2,0,0.3,0,0.5c-0.2,0-0.3,0-0.5,0C11.2,51.7,11.2,51.5,11.2,51.4 M11.8,51.4c0.2,0,0.3,0,0.5,0c0,0.2,0,0.3,0,0.5
		c-0.2,0-0.3,0-0.5,0C11.8,51.7,11.8,51.5,11.8,51.4 M13,51.8c0.2-0.1,0.3-0.2,0.5-0.3c0.2,0.4,0.6,0.9,0.3,1.4
		c-0.1,0.1-0.1,0.1-0.2,0.2c-0.1,0-0.2,0.1-0.4,0.1c-0.9,0-1.7,0-2.6,0c-0.3,0-0.6-0.2-0.7-0.4c-0.1-0.2-0.1-0.5-0.1-0.7
		c0.2,0,0.4,0,0.6,0c0,0.2,0,0.3,0,0.5c0.9,0.1,1.9,0,2.8,0C13.3,52.2,13.1,52,13,51.8 M50.3,51.8c0.2-0.1,0.3-0.2,0.5-0.4
		c0.2,0.3,0.3,0.6,0.4,1c0,0.3-0.2,0.7-0.5,0.7c-1,0-1.9,0-2.9,0c-0.5-0.1-0.6-0.7-0.5-1.2c0.2,0,0.3,0,0.5,0c0,0.2,0,0.4,0.1,0.5
		c0.9,0,1.8,0,2.7,0C50.6,52.2,50.5,52,50.3,51.8 M43.9,52.2c0.1-0.2,0.4-0.3,0.6-0.3c-0.2,0.1-0.4,0.3-0.4,0.6c0.1,0,0.2,0,0.3,0
		c0,0.2,0,0.4,0,0.6c-0.2,0-0.4,0-0.6,0C43.8,52.8,43.7,52.5,43.9,52.2 M39,53.5c0.2,0,0.4,0,0.5,0c0,0.2,0,0.3,0,0.5
		c-0.2,0-0.4,0-0.5,0C39,53.8,39,53.7,39,53.5 M8.3,53.5c0.2,0,0.4,0,0.6,0c0,0.2,0,0.4,0,0.6c-0.2,0-0.4,0-0.6,0
		C8.3,53.9,8.3,53.7,8.3,53.5 M31.9,53.5c0.2,0,0.4,0,0.6,0c0,0.2,0,0.4,0,0.6c-0.2,0-0.4,0-0.6,0C31.9,53.9,31.9,53.7,31.9,53.5
		 M48.8,53.5c0.2,0,0.4,0,0.6,0c0,0.2,0,0.4,0,0.6c-0.2,0-0.4,0-0.6,0C48.8,53.9,48.8,53.7,48.8,53.5L48.8,53.5z"/>
</g>
</svg>
