<?xml version="1.0" encoding="utf-8"?>
<!-- Generator: Adobe Illustrator 20.1.0, SVG Export Plug-In . SVG Version: 6.00 Build 0)  -->
<svg version="1.1" id="Layer_1" xmlns="http://www.w3.org/2000/svg" xmlns:xlink="http://www.w3.org/1999/xlink" x="0px" y="0px"
	 viewBox="0 0 60 60" style="enable-background:new 0 0 60 60;" xml:space="preserve">
<style type="text/css">
	.st0{fill:#2E428D;}
</style>
<g>
	<path class="st0" d="M28.3,0h0.4c0.1,4,0.3,7.9,0.4,11.9c0.2,0,0.3-0.3,0.5-0.4c0.2-0.3,0.6-0.4,0.5-0.8c0-3.6,0-7.1,0-10.7h0.4
		c0.6,0.1,1.1,0.1,1.7,0.2c-0.1,2.7-0.3,5.4-0.4,8.1c-0.1,0.8,0,1.6-0.1,2.3c0.4-0.2,0.9-0.3,1.3-0.2c0.3-3.3,0.7-6.7,1-10
		C34.7,0.6,35.3,0.8,36,1c-0.5,3.5-1,7-1.6,10.5c0.4,0,0.8-0.1,1.3,0c0.6-3.3,1.3-6.6,1.9-9.8c0.6,0.3,1.3,0.7,1.9,1
		c-0.7,3-1.5,6-2.2,8.9c-0.1,0.3-0.2,0.6-0.2,0.9c0,0,0.1,0.1,0.1,0.1c0.3,0.1,0.6,0.2,0.9,0.4c1-3.2,1.9-6.4,2.9-9.5
		c0.5,0.4,1,0.8,1.6,1.2c-1.6,4.7-3.2,9.4-4.8,14.1c-0.1,0.2,0,0.4,0,0.7c0.1,0.4,0.1,0.8,0.1,1.2c0,0,0.1,0.1,0.1,0.1
		c0.2-0.3,0.3-0.7,0.5-1.1c1.8-4.5,3.6-9.1,5.5-13.6c0.5,0.5,0.9,1,1.4,1.5c-2.1,4.5-4.2,9.1-6.3,13.6c0.2,0.3,0.5,0.6,0.3,0.9
		c-0.3,0.4-0.8,0.6-1,1.1c-0.1,0.3,0,0.7,0.1,1c0.1-0.1,0.2-0.3,0.2-0.4c2.5-4.9,5.1-9.8,7.6-14.8c0.4,0.6,0.7,1.2,1.1,1.8
		c-2.8,4.8-5.5,9.6-8.3,14.3c0.2,0.1,0.3,0.3,0.5,0.4c0.1,0,0.2-0.1,0.3-0.2c2.8-4.3,5.6-8.5,8.4-12.8c0.2,0.6,0.5,1.2,0.6,1.8
		c-0.2,0.4-0.5,0.7-0.7,1c-2.5,3.4-5,6.9-7.4,10.3c-0.3,0.4-0.6,0.7-0.5,1.2c0,0.3,0.4,0.2,0.5,0c2.9-3.7,5.7-7.3,8.7-11
		c0.1,0.7,0.3,1.4,0.4,2.1c-3.5,4-7,8.1-10.6,12.1c-0.1,0.1-0.3,0.3-0.1,0.5c0.1,0,0.3,0,0.4-0.1c3.4-3.5,6.9-7.1,10.3-10.6
		c0,0.5,0,1.1,0,1.6c0,0.1,0,0.3-0.1,0.4c-3.3,3.1-6.5,6.1-9.8,9.2c-0.3,0.4-0.7,0.6-1,1c-1.2,1.2-2.5,2.4-3.7,3.6
		c0.1,0,0.3,0,0.4,0c3.5-3.1,7-6.1,10.4-9.2c1.2-1,2.3-2.1,3.5-3c-0.1,0.6-0.2,1.3-0.3,1.9c0,0.3-0.3,0.4-0.5,0.6
		c-4.1,3.3-8.2,6.5-12.3,9.8c0.2,0,0.3,0,0.5-0.1c3.9-2.8,7.8-5.7,11.8-8.5c-0.2,0.5-0.4,0.9-0.5,1.4c-0.1,0.2-0.1,0.4-0.3,0.6
		c-2,1.3-4,2.6-6,4c-1.3,0.9-2.7,1.7-4,2.6c0.2,0,0.3-0.1,0.4-0.1c1.6-1,3.3-1.9,4.9-2.9c1.3-0.8,2.6-1.6,4-2.3
		c-0.7,1.3-1.6,2.4-2.5,3.4c-0.3,0.3-0.7,0.6-0.9,0.9c0.2,0.3,0.5,0.5,0.7,0.8c0,1.8,0,3.5,0,5.3c-9.7,0-19.3,0-29,0
		c0-1.7,0-3.4,0-5c0.2-0.2,0.5-0.4,0.7-0.7c-1-1-2-2-2.9-3.1c-0.3-0.4-0.6-0.8-0.9-1.3c3.1,1.6,6.3,3.3,9.4,4.9
		c0.1,0,0.2,0.1,0.4,0.1c-0.4-0.3-0.8-0.5-1.2-0.8c-3-1.8-6-3.7-9.1-5.5c-0.1-0.1-0.3-0.2-0.3-0.3c-0.2-0.5-0.5-1-0.7-1.5
		c1.7,1.1,3.3,2.2,5,3.3c2.4,1.6,4.8,3.2,7.2,4.7c0.1,0.1,0.3,0.1,0.5,0.1c-0.4-0.3-0.8-0.6-1.2-0.9c-4-2.9-8-5.9-12-8.8
		c-0.2-0.7-0.4-1.5-0.5-2.2c4.8,3.9,9.6,7.9,14.3,11.8c0.1,0.1,0.3,0.1,0.5,0.1c-3.3-3-6.5-6-9.8-9c-1.8-1.6-3.5-3.2-5.3-4.8
		c0-0.6,0-1.2,0-1.8c0.8,0.7,1.5,1.5,2.2,2.2c4.5,4.5,9,9,13.4,13.4c0.1,0,0.2,0,0.2,0c-4.3-4.7-8.7-9.5-13-14.2c-0.9-1-1.9-2-2.8-3
		c0.1-0.7,0.2-1.5,0.4-2.2c5.3,6.5,10.6,13,15.9,19.5c0.1,0,0.2,0,0.3,0c-5.3-7-10.6-14.1-15.8-21.1c0.2-0.6,0.5-1.2,0.7-1.9
		c1.8,2.6,3.5,5.2,5.3,7.8c3.4,5.1,6.8,10.1,10.3,15.2c0.1,0,0.2,0,0.3,0c-5-8.2-10.1-16.4-15.1-24.6c0.4-0.6,0.8-1.3,1.2-1.9
		c2.8,5.1,5.6,10.3,8.4,15.4c0.2-0.2,0.4-0.3,0.6-0.4c-0.7-1.4-1.4-2.8-2.1-4.2c-0.3-0.1-0.5-0.2-0.7-0.4c-0.2-0.2-0.3-0.5-0.3-0.8
		c-0.1-0.3-0.4-0.6-0.5-0.9c0-0.4,0.2-0.9-0.1-1.3c-1.5-2.9-2.9-5.8-4.4-8.8c0.5-0.5,0.9-1.1,1.3-1.6c0.4,0.9,0.8,1.8,1.1,2.6
		c0.1-0.2,0.2-0.5,0.5-0.6c0.2,0,0.4-0.1,0.6,0.1c0.3,0.4,0.6,0.8,0.9,1.2c-0.6-1.5-1.2-3.1-1.8-4.6C16.9,4.4,17.4,4,18,3.6
		c0.6,1.9,1.3,3.8,1.9,5.7c0.1-0.2,0.2-0.4,0.3-0.6c0.2-0.2,0.4-0.3,0.7-0.4c-0.5-1.9-1-3.7-1.5-5.6c0.7-0.3,1.3-0.7,2-1
		c0.4,2.2,0.9,4.5,1.3,6.7c0.1,0.4,0.5,0.7,0.5,1.2c0,0.2-0.2,0.4-0.4,0.5c-0.1,0-0.2-0.1-0.3-0.1c0.1,0.6,0.1,1.1,0.1,1.7
		c0.1,0.4,0.6,0.4,0.9,0.4c0.5,0,0.9,0.3,1.3,0.6c0.2,0.2,0.4,0.5,0.7,0.6c0.2,0,0.3-0.1,0.5-0.2c0.2,0,0.4,0.2,0.6,0.3
		c0.4-0.1,0.9-0.3,1.3-0.5c0.3-0.1,0.3,0.2,0.5,0.4c0.1-0.1,0.2-0.2,0.2-0.3c0-0.6-0.2-1.1-0.2-1.7c0-0.5,0.1-1.1,0.2-1.6
		c-0.2,0.1-0.5,0.4-0.7,0.2c-0.3-0.4-0.5-0.9-0.5-1.4c-0.2,0-0.3,0-0.5-0.1c0.4-0.7,0.2-1.5,0.1-2.2c-0.1-2-0.3-4-0.4-6
		C27.2,0.1,27.8,0.1,28.3,0 M16.6,8.9c-0.1,0.6,0.1,1.3,0.2,1.9c0.1,0.5,0.4,0.9,0.5,1.3c0.2,0.5,0.2,1.1,0.5,1.5
		c0.2,0.4,0.6,0.7,0.9,1.1c0.2,0.2,0.2,0.5,0.2,0.8c0,0.7-0.3,1.3-0.4,2C18.4,18,19,18.2,19,18.7c0,0.2,0.1,0.4,0.2,0.5
		c0.3,0.2,0.7,0.2,1,0.3c0.5,0.2,1,0.4,1.2,0.9c0.1,0.3,0,0.7,0,1c0.1,0.2,0.3,0.4,0.3,0.6c0.1,0.4,0.1,0.8,0.2,1.2
		c0,0.2,0.1,0.4,0.3,0.4c0.4-0.1,0.4-0.7,0.9-0.7c0.3,0,0.2,0.4,0.5,0.4c0.3,0.1,0.8,0,1,0.3c0.2,0.1,0.2,0.4,0.3,0.6
		c0.2,0.9,0.7,1.7,1.3,2.3c0.2,0.2,0.5,0.3,0.8,0.4c0.3,0.2,0.6,0.5,0.9,0.5c0.8,0.2,1.3,1,2.2,0.9c0.7-0.2,1.3-0.9,2.1-0.9
		c0.4,0,0.7,0.2,0.9,0.4c0.4,0.4,0.5,1,0.9,1.4c0.1,0.2,0.3,0.2,0.5,0.2c0.9,0,1.8,0.2,2.7,0.3c0.4,0.1,0.8,0.3,1.3,0.4
		c0.2-0.8,0.2-1.7,0.8-2.3c0.3-0.4,0.9-0.6,1.4-0.6c-0.3-0.1-0.6-0.1-0.8-0.3c-0.2-0.4,0.1-1-0.3-1.3c-0.4-0.3-0.8-0.5-1.1-0.8
		c-0.6-0.6-0.7-1.4-0.5-2.2c0.2-0.4,0.7-0.5,1-0.9c0.1-0.2,0.1-0.4-0.1-0.5c-0.4-0.2-0.9,0-1.3-0.3c-0.3-0.4-0.1-1-0.2-1.5
		c-0.1-0.4,0-0.7,0-1.1c0-0.4-0.6-0.6-0.5-1.1c0-0.8,0.9-1.3,1-2.1c0-0.2-0.1-0.5-0.1-0.7c0-0.3,0-0.7,0.1-1
		c0.1-0.2-0.1-0.3-0.2-0.4c-0.3-0.2-0.7-0.3-0.9-0.6c-0.1,0-0.3,0-0.4,0c-0.3-0.2-0.5-0.5-0.8-0.6c-0.4,0-0.8,0.1-1.2,0
		c-0.6-0.2-1-0.6-1.4-1.1c-0.2,0-0.5,0-0.7,0c-0.4,0.3-1.1,0.4-1.6,0.1c-0.4,0.4-0.8,0.9-1.2,1.3c-0.1,0.1-0.3,0.1-0.4,0.1
		c0.1,0.2,0.2,0.5,0.1,0.7c-0.1,0.3-0.4,0.5-0.7,0.6c-0.1-0.1-0.2-0.3-0.3-0.4c-0.5,0-0.9,0.2-1.3,0.3c-0.2,0.1-0.4-0.1-0.6-0.1
		c-0.3,0.1-0.7,0.2-0.9,0c-0.4-0.4-0.8-0.8-1.3-0.9c-0.5-0.1-1.1-0.2-1.5-0.6c-0.3-0.4,0-0.9-0.2-1.3c-0.3,0-0.7,0.1-1-0.2
		c-0.2-0.5,0-1-0.1-1.6c0-0.1-0.1-0.3-0.2-0.2c-0.4,0.1-0.5,0.5-0.8,0.8c-0.4,0.3-0.8,0.6-1.3,0.7c-0.3,0.1-0.6,0-0.8-0.2
		c-0.3-0.5-0.6-1.1-1.2-1.4C16.7,8.6,16.6,8.7,16.6,8.9 M23.1,23.4c-0.2,0.3-0.3,0.6-0.7,0.6c0,0.1,0,0.4-0.2,0.4
		c-0.3,0-0.6,0.1-0.7,0.4c0,0.3,0.4,0.5,0.5,0.9c0,0.2,0.1,0.4,0.2,0.5c0.6,0.7,1.5,1.1,2.3,1.5c0,0.5,0.4,0.9,0.5,1.4
		c0.1,0.2-0.2,0.4-0.1,0.6c0.1,0.2,0.2,0.3,0.3,0.4c0,0.2,0.1,0.5,0.2,0.7c0-0.3,0-0.6,0.3-0.8c0.3-0.1,0.4,0.2,0.6,0.3
		c0.2,0.2,0.4,0.4,0.5,0.7c-0.1,0.2-0.2,0.4-0.3,0.5c1-0.1,2.1-0.1,3.1-0.1c0.4-0.3,0.7-0.6,1-1c0.1-0.2,0.4-0.2,0.6-0.2
		c0-0.4,0.4-0.7,0.5-1.1c0.1-0.3,0.2-0.5,0.5-0.6c0.2-0.1,0.3,0.1,0.5,0.1c0,0.5,0,1,0,1.4c0,0.2-0.1,0.3-0.1,0.5
		c0.3,0.2,0.6,0.3,0.9,0.5c0.2,0.1,0.3,0.3,0.5,0.2c1.7-0.1,3.4,0,5.1-0.1c0.3,0.1,0.7-0.2,0.6-0.6c-0.3,0-0.7,0-1-0.1
		c-0.3-0.1-0.6-0.1-0.9-0.2c-1-0.5-2.2-0.4-3.2-0.5c-0.6,0-0.9-0.5-1.1-1c-0.2-0.4-0.4-0.9-0.9-1c-0.6,0-1.1,0.3-1.6,0.7
		c-0.5,0.3-1.2,0.2-1.7,0c-0.3-0.2-0.6-0.6-1-0.7c-0.2-0.1-0.5,0-0.6-0.2c-0.4-0.4-0.9-0.6-1.4-0.8c-0.4-0.3-0.7-0.7-0.9-1.2
		c-0.4-0.6-0.5-1.3-0.8-1.9c-0.3-0.1-0.5,0-0.8-0.1C23.4,23.7,23.2,23.5,23.1,23.4 M22.5,27c1.4,2.7,2.8,5.4,4.3,8
		c0.1,0.2,0.2,0.5,0.5,0.5c-1.2-2.7-2.5-5.3-3.8-8C23.2,27.3,22.8,27.2,22.5,27 M31.7,30.1c-0.3,1.8-0.5,3.6-0.8,5.4
		c0,0,0.1-0.1,0.1-0.1c0.4-2.2,0.8-4.3,1.2-6.5C31.9,29.3,31.7,29.7,31.7,30.1 M25.8,30.3c-0.1,0.3-0.1,0.7,0.1,1.1
		c0.6,1.3,1.1,2.7,1.7,4c0,0.1,0.1,0.2,0.2,0.2c-0.4-1.2-0.8-2.4-1.3-3.6c-0.2-0.1-0.3-0.2-0.4-0.4c0.1-0.2,0.1-0.4,0.1-0.6
		C26.1,30.7,25.9,30.5,25.8,30.3 M30.6,30.9c-0.1,1.5-0.2,3.1-0.2,4.6c0.1,0,0.2,0,0.2,0c0.1-1.6,0.3-3.3,0.4-4.9
		C30.8,30.7,30.6,30.7,30.6,30.9 M32.5,31.1c-0.4,1.5-0.8,3-1.1,4.5c0,0,0.1-0.1,0.2-0.1c0.4-1.4,0.8-2.8,1.2-4.2
		C32.7,31.2,32.6,31.1,32.5,31.1 M33.3,31.6c-0.4,1.3-0.9,2.6-1.4,3.9c0.1,0,0.2,0,0.2,0c0.4-1.2,0.9-2.5,1.4-3.7
		C33.4,31.8,33.3,31.7,33.3,31.6 M29.6,31.9c0,1.2,0,2.4,0,3.6c0.1,0,0.2,0,0.4,0c0-1.3,0-2.6,0-3.9C29.9,31.7,29.7,31.8,29.6,31.9
		 M35.1,31.7c-0.7,1.3-1.5,2.5-2.2,3.8c0.1,0,0.2,0,0.2,0c0.8-1.2,1.6-2.5,2.4-3.8C35.3,31.7,35.2,31.7,35.1,31.7 M36.1,31.7
		c-0.9,1.3-1.7,2.5-2.6,3.8c0.1,0,0.2,0,0.3,0c1-1.3,1.9-2.5,2.9-3.8C36.5,31.7,36.3,31.7,36.1,31.7 M34.3,35.5c0.1,0,0.2,0,0.3,0
		c1.2-1.3,2.4-2.6,3.6-3.8c-0.2,0-0.4,0-0.7,0C36.5,33,35.4,34.2,34.3,35.5 M34,31.8c-0.6,1.2-1.1,2.5-1.7,3.7c0.1,0,0.2,0,0.2,0
		c0.6-1.2,1.3-2.5,1.9-3.7C34.3,31.8,34.2,31.8,34,31.8 M27.8,31.9c0.3,1.1,0.5,2.2,0.7,3.4c0,0.1,0,0.3,0.2,0.3
		c-0.2-1.2-0.4-2.4-0.6-3.7C28.1,31.9,27.9,31.9,27.8,31.9 M28.7,31.9c0.1,1.2,0.2,2.4,0.4,3.6c0.1,0,0.2,0,0.2,0
		c0-1.2-0.2-2.4-0.2-3.6C28.9,31.9,28.8,31.9,28.7,31.9 M27,32c0.3,1.2,0.7,2.3,1,3.5c0.1,0,0.2,0,0.2,0c-0.3-1.2-0.6-2.4-1-3.6
		C27.2,32,27.1,32,27,32 M15.9,36.2c0,1.3,0,2.6,0,3.9c9.3,0,18.5,0,27.8,0c0-1.3,0-2.6,0-3.9C34.5,36.2,25.2,36.1,15.9,36.2
		 M23,1.1c0.6-0.2,1.2-0.4,1.8-0.6c0.3,2.5,0.6,5,0.9,7.5c-0.5,0-1.1,0-1.6,0C23.8,5.8,23.4,3.5,23,1.1 M26.4,15.7
		c0.8-0.8,2-1.2,3.1-1.2c1.6,0,3.2,0.8,4.2,2.1c0.4,0.4,0.7,1,0.8,1.5c0.2,1.1,0.2,2.2,0.1,3.3c0,0.2,0,0.4,0.1,0.6
		c0.4,0.5,0.9,0.8,1.5,1.1c-0.2,0.4-0.5,0.8-0.7,1.2c-0.5-0.2-0.9-0.4-1.3-0.8c-0.5-0.6-0.9-1.3-1-2c-0.1-0.1-0.3-0.2-0.4-0.3
		c0.1-0.3,0.2-0.7,0.3-1c0.2,0,0.3-0.1,0.5-0.1c0-0.6,0-1.2-0.2-1.7c-0.2,0.1-0.3,0.1-0.5,0.2c-0.1-0.4-0.3-0.7-0.6-1
		c0.1-0.1,0.2-0.2,0.3-0.3c-0.4-0.5-0.8-0.9-1.4-1.2c-0.1,0.1-0.2,0.3-0.3,0.4c-0.3-0.1-0.6-0.2-0.9-0.2c0-0.2,0-0.3-0.1-0.5
		c-0.6,0-1.2,0-1.8,0.1c0,0.2,0,0.4,0.1,0.6c-0.3,0.2-0.7,0.3-1,0.5C27,16.5,26.6,16.1,26.4,15.7 M22.7,16.3
		c0.2-0.4,0.5-0.8,0.7-1.3c0.5,0.2,1,0.5,1.4,0.9c0.6,0.5,0.8,1.3,0.8,2.1c0.1,0.1,0.3,0.1,0.4,0.2c-0.1,0.3-0.2,0.7-0.2,1
		c-0.2,0-0.3,0-0.5,0c-0.1,0.6,0,1.3,0.2,1.9c0.1,0,0.3-0.1,0.4-0.1c0.1,0.3,0.3,0.6,0.5,0.8c-0.1,0.1-0.3,0.2-0.4,0.3
		c0.3,0.5,0.9,0.9,1.4,1.2c0.1-0.1,0.2-0.2,0.3-0.4c0.3,0.1,0.6,0.2,0.9,0.3c0,0.2,0,0.3,0.1,0.5c0.6,0.1,1.2,0.1,1.8-0.1
		c0-0.2-0.1-0.3-0.1-0.5c0.3-0.1,0.7-0.3,1-0.5c0.3,0.4,0.5,0.8,0.8,1.2c-1.2,0.8-2.7,1.1-4.1,0.8c-1-0.2-2-0.8-2.8-1.5
		c-1-1.1-1.3-2.6-1.2-4c0-0.6,0.1-1.2-0.1-1.8C23.8,16.9,23.2,16.6,22.7,16.3 M28.5,16.2c0.4,0,0.8,0,1.2,0c0,0.2,0,0.3,0,0.5
		c0.4,0,0.8,0.2,1.2,0.3c0.1-0.1,0.2-0.2,0.3-0.4c0.3,0.2,0.6,0.4,0.9,0.7c-0.1,0.1-0.2,0.2-0.4,0.3c0.4,0.3,0.7,0.8,0.8,1.3
		c0.2,0,0.3,0,0.5,0c0,0.4,0,0.7,0,1.1c-0.1,0-0.3,0-0.4,0c0,0.4-0.2,0.9-0.3,1.3c0.1,0.1,0.2,0.2,0.3,0.3c-0.3,0.3-0.5,0.6-0.8,0.8
		c-0.1-0.1-0.2-0.2-0.3-0.3c-0.4,0.3-0.8,0.6-1.3,0.7c0,0.1,0.1,0.2,0.1,0.3c-0.4,0.1-0.8,0.1-1.2,0.1c0-0.1,0-0.2,0-0.3
		c-0.5-0.1-0.9-0.3-1.4-0.5c-0.1,0.1-0.1,0.2-0.2,0.3c-0.3-0.2-0.6-0.4-0.8-0.7c0.1-0.1,0.2-0.2,0.2-0.3c-0.3-0.3-0.5-0.7-0.6-1.2
		c-0.1-0.1-0.3,0-0.5,0c0-0.4,0-0.7,0-1.1c0.1,0,0.3,0,0.4,0c0-0.4,0.2-0.8,0.4-1.2c-0.1-0.1-0.2-0.3-0.4-0.4
		c0.2-0.3,0.5-0.6,0.7-0.8c0.1,0.1,0.3,0.1,0.4,0.2c0.3-0.3,0.7-0.5,1.1-0.6C28.5,16.5,28.5,16.4,28.5,16.2 M29.4,17.6
		c0,0.1-0.1,0.3-0.1,0.4c-0.2-0.1-0.3-0.2-0.5-0.2c0.1,0.2,0.2,0.4,0.4,0.5c0,0.2,0,0.5,0,0.7c-0.3-0.1-0.5-0.3-0.8-0.5
		c0,0.5,0.4,0.7,0.7,0.9c0,0.2,0,0.4,0,0.6c-0.4-0.1-0.7-0.3-1-0.6c0,0.3,0.1,0.6,0.2,0.8c0.2,0.2,0.5,0.4,0.7,0.5
		c0,0.2,0,0.4,0,0.6c-0.5-0.1-0.9-0.5-1.3-0.9c0.1,0.5,0.3,1.1,0.8,1.4c0.4,0.2,0.8,0.4,1.2,0.2c0.7-0.2,1.1-0.9,1.2-1.6
		c-0.4,0.4-0.8,0.8-1.3,0.9c0-0.2,0-0.4,0-0.6c0.3-0.1,0.6-0.3,0.7-0.5c0.2-0.2,0.2-0.5,0.2-0.8c-0.3,0.2-0.6,0.5-1,0.6
		c0-0.2,0-0.4,0-0.6c0.4-0.2,0.7-0.5,0.7-0.9c-0.3,0.2-0.5,0.4-0.8,0.5c0-0.2,0-0.5,0-0.7c0.2-0.1,0.4-0.3,0.4-0.5
		c-0.2,0.1-0.3,0.2-0.5,0.2C29.5,17.9,29.5,17.8,29.4,17.6C29.4,17.6,29.4,17.6,29.4,17.6 M41.3,36.8c0-0.1,0.1-0.2,0.2-0.3
		c0.1,0.1,0.2,0.2,0.2,0.2c-0.1,0.1-0.1,0.2-0.2,0.2C41.4,37,41.3,36.9,41.3,36.8 M37.5,36.7c0.1,0.1,0.2,0.1,0.3,0.2
		c0-0.1,0.1-0.2,0.2-0.3c0.1,0.1,0.2,0.2,0.3,0.3c-0.1,0.1-0.2,0.2-0.2,0.3c0-0.1-0.1-0.2-0.2-0.3c-0.1,0.1-0.2,0.2-0.3,0.2
		c-0.1-0.1-0.2-0.2-0.3-0.3C37.3,36.8,37.4,36.7,37.5,36.7 M40.5,37.1c0.1-0.1,0.2-0.2,0.3-0.3c0,0.5,0,1,0,1.4
		c0.3,0.1,0.6,0.1,0.9,0.1c-0.1-0.1-0.2-0.2-0.3-0.4c0.1-0.2,0.2-0.3,0.3-0.5c0.2,0.3,0.3,0.7,0.2,1.1c-0.1,0.2-0.3,0.4-0.6,0.4
		c-0.2,0-0.4-0.2-0.5-0.4C40.5,39.1,40,39,39.6,39c-0.3,0-0.7,0.1-0.8-0.3c0-0.3-0.1-0.6,0.1-0.8c0.1,0.2,0,0.4,0.2,0.5
		c0.4,0.1,0.9,0,1.3,0C40.5,37.9,40.6,37.5,40.5,37.1 M39.4,37.5c0-0.3,0.3-0.4,0.5-0.5c0,0.1-0.1,0.3-0.2,0.4
		c0.1,0.1,0.2,0.1,0.2,0.3c0,0.2-0.2,0.3-0.4,0.4c0-0.1,0.1-0.2,0.1-0.3C39.6,37.6,39.5,37.5,39.4,37.5 M21.9,37.1
		c0.3,0,0.6,0,0.9,0c0.4,0.2,0.4,0.7,0.1,1c0.2,0.3,0.1,0.6,0.2,1c-0.1,0-0.2,0-0.4,0c0-0.2,0-0.5-0.1-0.7c-0.1,0-0.3,0-0.4,0
		c0,0.3,0,0.5,0,0.8c-0.1,0-0.2,0-0.3,0C21.9,38.5,21.9,37.8,21.9,37.1 M22.2,37.5c0,0.2,0,0.3,0,0.5c0.2,0,0.6,0,0.6-0.3
		C22.8,37.4,22.4,37.5,22.2,37.5 M23.9,37.2c0.1,0,0.2,0,0.3,0c0.2,0.6,0.3,1.3,0.5,2c-0.1,0-0.2,0-0.4,0c0-0.1-0.1-0.3-0.1-0.4
		c-0.1,0-0.3,0-0.4,0c0,0.1-0.1,0.3-0.1,0.4c-0.1,0-0.3,0-0.3,0C23.6,38.5,23.7,37.8,23.9,37.2 M24.1,37.7c0,0.2-0.1,0.4-0.1,0.6
		c0.1,0,0.2,0,0.3,0C24.2,38.1,24.1,37.9,24.1,37.7 M24.8,37.2c0.4,0,0.8,0,1.2,0c0,0.1,0,0.2,0,0.4c-0.1,0-0.3,0-0.4,0
		c0,0.5,0,1.1,0,1.6c-0.1,0-0.2,0-0.3,0c0-0.5,0-1,0-1.6c-0.1,0-0.3,0-0.4,0C24.8,37.4,24.8,37.3,24.8,37.2 M30.8,37.1
		c0.1,0,0.2,0,0.3,0c0,0.2,0,0.5,0,0.7c0.2-0.2,0.3-0.5,0.5-0.7c0.1,0,0.3,0,0.4,0c-0.2,0.3-0.4,0.6-0.5,0.8
		c0.2,0.4,0.4,0.8,0.6,1.1c-0.1,0-0.3,0-0.4,0c-0.1-0.3-0.2-0.6-0.5-0.8c0,0.3,0,0.5,0,0.8c-0.1,0-0.2,0-0.3,0
		C30.8,38.5,30.7,37.8,30.8,37.1 M35.3,37.4c0.1-0.1,0.2-0.2,0.3-0.3c0,0.4,0,0.8,0.1,1.2c0.3,0.1,0.8,0.1,1.1,0
		c-0.2-0.2-0.5-0.2-0.7,0c0-0.2,0-0.6,0.3-0.6c0.3,0,0.6,0.1,1,0.2c0,0.1-0.1,0.3-0.1,0.4c0,0-0.1,0.1-0.1,0.1c0.2,0,0.5,0,0.7,0
		c-0.1-0.1-0.2-0.2-0.3-0.4c0.1-0.1,0.2-0.3,0.2-0.4c0.3,0.3,0.4,0.9,0.1,1.2c-0.3,0.3-1,0.2-1-0.3c-0.2,0.2-0.4,0.5-0.7,0.5
		c-0.3,0-0.6,0.1-0.8-0.2C35.3,38.3,35.3,37.8,35.3,37.4 M42.1,37.4c0.1-0.1,0.2-0.2,0.3-0.3c0,0.4,0,0.8,0,1.2
		c0,0.2,0.2,0.1,0.3,0.1c0.2,0,0.3,0,0.5,0c-0.1-0.1-0.2-0.2-0.3-0.4c0.1-0.2,0.2-0.3,0.3-0.5c0.3,0.4,0.4,1.1-0.1,1.4
		c-0.3,0.1-0.8,0.1-0.9-0.2C42.1,38.3,42.1,37.8,42.1,37.4 M16.3,37.2c0.4,0,0.8,0,1.1,0c0,0.1,0,0.3,0,0.4c-0.1,0-0.3,0-0.4,0
		c0,0.5,0,1,0,1.5c-0.1,0-0.3,0-0.3,0c0-0.5,0-1,0-1.6c-0.1,0-0.3,0-0.4,0C16.4,37.5,16.3,37.4,16.3,37.2 M17.8,37.2
		c0.4,0,0.7,0,1.1,0c0,0.1,0,0.3,0,0.4c-0.3,0-0.5,0-0.8,0c0,0.1,0,0.2,0,0.4c0.2,0,0.5,0,0.7,0c0,0.1,0,0.3,0,0.4
		c-0.2,0-0.5,0-0.7,0c0,0.1,0,0.3,0,0.4c0.3,0,0.5,0,0.8,0c0,0.1,0,0.3,0,0.4c-0.4,0-0.8,0-1.1,0C17.8,38.5,17.8,37.9,17.8,37.2
		 M19.7,38.8c0.1-0.5,0-1.1,0.1-1.6c0.1,0,0.3,0,0.3,0c0,0.5,0,1.1,0,1.6c0,0.4-0.5,0.5-0.8,0.3c-0.2-0.2-0.2-0.5-0.2-0.7
		c0.1,0,0.2,0,0.3,0C19.4,38.5,19.4,38.9,19.7,38.8 M20.8,37.2c0.1,0,0.2,0,0.3,0c0.2,0.6,0.3,1.3,0.5,1.9c-0.1,0-0.2,0-0.3,0
		c0-0.1-0.1-0.2-0.1-0.4c-0.1,0-0.3,0-0.4,0c0,0.1-0.1,0.2-0.1,0.4c-0.1,0-0.3,0-0.3,0C20.5,38.5,20.7,37.9,20.8,37.2 M21,37.8
		c0,0.2-0.1,0.4-0.1,0.6c0.1,0,0.2,0,0.3,0C21.1,38.2,21.1,38,21,37.8 M26.5,37.2c0.3,0,0.6,0,0.9,0c0.3,0.2,0.3,0.6,0.2,0.9
		c0.2,0.3,0.2,0.8-0.2,1c-0.3,0-0.6,0-0.9,0C26.5,38.5,26.5,37.8,26.5,37.2 M26.8,37.9c0.2,0,0.3,0,0.5,0c0-0.1,0-0.3-0.1-0.3
		c-0.1,0-0.2,0-0.4,0C26.8,37.7,26.8,37.8,26.8,37.9 M26.8,38.3c0,0.2,0,0.3,0,0.5c0.2,0,0.3,0,0.5-0.1c0.1-0.1,0-0.3,0-0.4
		C27.2,38.3,27,38.3,26.8,38.3 M28.3,37.2c0.1,0,0.2,0,0.4,0c0.1,0.6,0.3,1.3,0.5,1.9c-0.1,0-0.3,0-0.3,0c0-0.1-0.1-0.3-0.1-0.4
		c-0.1,0-0.3,0-0.4,0c0,0.1-0.1,0.2-0.1,0.4c-0.1,0-0.2,0-0.3,0C28,38.5,28.1,37.9,28.3,37.2 M28.5,37.8c-0.1,0.2-0.1,0.4-0.2,0.6
		c0.1,0,0.2,0,0.3,0C28.6,38.2,28.5,38,28.5,37.8 M29.3,37.2c0.1,0,0.2,0,0.3,0c0.2,0.4,0.3,0.8,0.5,1.2c0-0.4,0-0.8,0-1.2
		c0.1,0,0.2,0,0.3,0c0,0.6,0,1.3,0,1.9c-0.1,0-0.2,0-0.3,0c-0.2-0.4-0.3-0.8-0.5-1.2c0,0.4,0,0.8,0,1.2c-0.1,0-0.2,0-0.3,0
		C29.3,38.5,29.3,37.9,29.3,37.2 M32.7,37.5c0.1-0.1,0.2-0.2,0.3-0.2c0.1,0.1,0.2,0.1,0.2,0.2c0.1-0.1,0.2-0.1,0.3-0.2
		c0.1,0.1,0.2,0.2,0.2,0.3c-0.1,0.1-0.2,0.2-0.2,0.2c-0.1-0.1-0.2-0.2-0.2-0.2c-0.1,0.1-0.2,0.2-0.2,0.2
		C32.9,37.7,32.8,37.6,32.7,37.5 M33.9,37.7c0.4,0.2,0.3,0.9-0.2,1.1c-0.4,0.2-0.9,0.1-1.3,0.1c-0.4-0.2-0.3-0.7-0.2-1.1
		c0.2,0.1,0.1,0.4,0.3,0.5c0.4,0.1,0.9,0,1.3,0c-0.1-0.1-0.1-0.2-0.2-0.3C33.8,38,33.8,37.9,33.9,37.7 M34.8,38
		c0.1,0,0.1,0.2,0.2,0.2c0.1,0.4,0.2,0.9,0,1.2c-0.2,0.2-0.6,0.1-0.8,0c0.3-0.2,0.5-0.4,0.8-0.7c-0.1-0.1-0.2-0.3-0.3-0.4
		C34.6,38.3,34.7,38.1,34.8,38 M36.4,39.5c0.1-0.1,0.2-0.2,0.3-0.3c0.1,0.1,0.2,0.2,0.3,0.3c-0.1,0.1-0.2,0.2-0.3,0.3
		C36.6,39.7,36.5,39.6,36.4,39.5 M42.8,39.3c0.1,0.1,0.2,0.2,0.3,0.2c-0.1,0.1-0.2,0.2-0.3,0.3c-0.1-0.1-0.1-0.2-0.2-0.2
		C42.6,39.5,42.7,39.4,42.8,39.3 M23.5,45.5c0.7,0,1.4,0,2.1,0c0,1.4,0,2.9,0,4.3c0,0.3,0,0.6,0.3,0.8c0.1,0.2,0.4,0.2,0.5,0.2
		c1.4,0,2.8,0,4.1,0c0.3,0,0.5-0.2,0.6-0.4c0.1-0.2,0-0.4,0.1-0.6c-1.4,0-2.8,0-4.2,0c0-0.7,0-1.4,0-2.2c1.9,0,3.8,0,5.7,0
		c0,0.8,0,1.6,0,2.5c0,0.4,0.3,0.7,0.7,0.7c1.5,0,3.1,0,4.6,0c0.1,0,0.3,0,0.4,0.1c0,0.7,0,1.4,0,2.1c-1.3,0-2.5,0-3.8,0
		c-0.9,0-1.7-0.7-1.9-1.6c-0.2,0.9-1,1.6-1.9,1.6c-1.8,0-3.6,0-5.4,0c-1,0-1.9-0.9-1.9-1.9C23.5,49.2,23.5,47.4,23.5,45.5
		 M14.2,46.2c0.5-0.4,1.4-0.3,1.8,0.3c0.3,0.4,0.3,1.1,0,1.5c-0.4,0.5-1.2,0.7-1.7,0.3c-0.3-0.2-0.4-0.5-0.5-0.7
		c-0.1,0.5-0.5,0.9-0.9,1c-0.7,0.2-1.4-0.3-1.5-0.9c-0.2-0.7,0.4-1.5,1.2-1.6c0.6,0,1.2,0.4,1.3,1C13.8,46.7,14,46.4,14.2,46.2
		 M36.3,47c0.1-0.6,0.6-1,1.2-1c0.7-0.1,1.3,0.5,1.3,1.2c0,0.7-0.6,1.3-1.3,1.3c-0.6,0-1.1-0.5-1.2-1c-0.1,0.8-1.1,1.3-1.8,0.9
		c-0.7-0.3-1-1.3-0.5-1.9c0.4-0.5,1.1-0.7,1.7-0.4C36.1,46.3,36.3,46.7,36.3,47 M39.4,49c0.7,0,1.4,0,2.1,0c0.1,1.6,0,3.1,0,4.7
		c0,0.3,0.3,0.6,0.7,0.6c1.1,0,2.1,0,3.2,0c0,0.7,0,1.4,0,2.2c-1,0-2.1,0-3.1,0c-0.9,0-1.7-0.7-1.9-1.6c-0.1,0.5-0.5,1.1-1,1.4
		c-0.4,0.2-0.8,0.3-1.3,0.3c-2.8,0-5.6,0-8.4,0c0-0.7,0-1.4,0-2.2c3,0,5.9,0,8.9,0c0.4,0,0.7-0.3,0.7-0.7
		C39.4,52.1,39.4,50.6,39.4,49 M46.5,49c0.7,0,1.4,0,2.2,0c0,1.5,0,3.1,0,4.6c0,0.4,0.3,0.7,0.7,0.7c1.1,0,2.1,0,3.2,0v2.2
		c-1.3,0-2.6,0-3.9,0c-1.1,0.1-2.2-0.9-2.1-2C46.5,52.7,46.5,50.9,46.5,49 M7.5,49.7c3.9,0,7.8,0,11.7,0c0,0.7,0,1.4,0,2.1
		c-3.3,0-6.5,0-9.8,0C8.3,51.9,7.4,50.8,7.5,49.7 M20.3,49.7c0.7,0,1.4,0,2.2,0c0,1.4,0,2.8,0,4.1c0,1-0.9,1.9-1.9,1.9
		c-0.9,0-1.8,0-2.8,0c0-0.7,0-1.4,0-2.2c0.6,0,1.2,0,1.8,0c0.4,0,0.7-0.3,0.7-0.7C20.3,51.9,20.3,50.8,20.3,49.7 M43.6,50.1
		c0.7-0.3,1.5,0.1,1.7,0.8c0.2,0.8-0.4,1.6-1.2,1.6c-0.6,0-1.2-0.5-1.3-1.1C42.8,50.8,43.1,50.3,43.6,50.1 M26.5,54.2
		c0.6-0.3,1.5,0.1,1.7,0.7c0.3,0.7-0.3,1.7-1.1,1.7c-0.7,0.1-1.3-0.5-1.3-1.2C25.7,54.9,26,54.4,26.5,54.2 M49,58.9
		c-0.1-0.7,0.4-1.4,1.1-1.5c0.7-0.1,1.3,0.4,1.4,1.1c0.1,0.7-0.4,1.3-1,1.4h-0.4C49.6,59.9,49.1,59.5,49,58.9L49,58.9z"/>
</g>
</svg>
