<?xml version="1.0" encoding="utf-8"?>
<!-- Generator: Adobe Illustrator 20.1.0, SVG Export Plug-In . SVG Version: 6.00 Build 0)  -->
<svg version="1.1" xmlns="http://www.w3.org/2000/svg" xmlns:xlink="http://www.w3.org/1999/xlink" x="0px" y="0px"
	 viewBox="0 0 60 60" style="enable-background:new 0 0 60 60;" xml:space="preserve">
<style type="text/css">
	.st0{fill-rule:evenodd;clip-rule:evenodd;fill:#FDC645;}
	.st1{fill:#FDC645;}
</style>
<g id="Layer_1">
</g>
<g id="_x23_Layer_3">
	<g>
		<g>
			<g>
				<path class="st0" d="M19.5,13.8H56l0.4-2.6c0,0,0,0,0-0.1c0-0.2-0.1-0.3-0.2-0.5c-0.2-0.2-0.5-0.3-0.8-0.4c-0.1,0-0.1,0-0.2,0
					h-34L23,6.7h32.2c0.2,0,0.5,0,0.7,0.1c1.1,0.2,2.1,0.7,2.8,1.4c0.8,0.8,1.3,1.8,1.3,3c0,0.2,0,0.4,0,0.6L56.4,36
					c-0.2,1.2-0.7,2.4-1.5,3.2c-0.8,0.8-1.9,1.3-3.2,1.3h-0.2H20.7H2.8H0L1.2,38L16.6,5.5H2.5V1.9h17h2.8l-1.2,2.6L5.7,37h15h30.7
					h0.2c0.3,0,0.5-0.1,0.7-0.3c0.3-0.3,0.5-0.7,0.5-1.2l1.8-12H14.9L19.5,13.8L19.5,13.8z M22.4,31.3c-0.5,0-1,0.4-1,1l0,0
					c0,0.6,0.4,1,1,1l22.8,0c0.5,0,1-0.4,1-1l0,0c0-0.6-0.4-1-1-1H22.4L22.4,31.3z M41.4,25.9c-0.6,0-1,0.4-1,1l0,0c0,0.6,0.4,1,1,1
					h4.4c0.6,0,1-0.4,1-1l0,0c0-0.6-0.4-1-1-1H41.4L41.4,25.9z M25.8,25.9c-0.6,0-1,0.4-1,1l0,0c0,0.6,0.4,1,1,1h11.6
					c0.6,0,1-0.4,1-1l0,0c0-0.6-0.4-1-1-1H25.8z"/>
			</g>
		</g>
		<g>
			<path class="st1" d="M15,49.9c0-0.6,0-1.2-0.1-1.8c0-0.6,0-1.2-0.1-1.8c-0.1-1.3-0.1-2.7-0.2-4.2c-0.2,0-0.4,0-0.5,0
				c-0.2,0-0.3,0-0.6,0c0,0.1,0,0.3,0,0.6c0,0.3,0,0.7,0,1.1c0,0.4,0,0.9,0.1,1.4c0,0.5,0,1,0.1,1.6c0,0.5,0,1.1,0.1,1.6
				c0,0.6,0,1.1,0.1,1.6c0,0.5,0,1,0,1.5c0,0.5,0,0.8,0,1.2c0,0.4,0,0.7-0.1,1.1c-0.1,0.3-0.2,0.6-0.4,0.8c-0.2,0.2-0.4,0.4-0.6,0.6
				c-0.2,0.2-0.5,0.3-0.7,0.4c-0.2,0.1-0.5,0.2-0.8,0.2C11.1,56,10.9,56,10.6,56c0,0-0.1,0-0.1,0c0,0-0.1,0-0.1,0h0
				c-0.2,0-0.4,0-0.6-0.1c-0.2-0.1-0.4-0.1-0.6-0.2c-0.2-0.1-0.4-0.2-0.6-0.4c-0.2-0.1-0.4-0.3-0.5-0.5c-0.1-0.2-0.3-0.4-0.3-0.7
				c-0.1-0.3-0.1-0.6-0.1-0.9c0-0.4,0-0.8,0.1-1.1c0.1-0.3,0.1-0.6,0.2-0.9c0.1-0.3,0.2-0.6,0.3-0.8l-1-0.4
				c-0.1,0.1-0.1,0.2-0.2,0.4C7.1,50.5,7,50.7,6.9,51s-0.2,0.6-0.2,1c-0.1,0.4-0.1,0.8-0.1,1.3c0,0.5,0,0.9,0.2,1.2
				c0.1,0.4,0.3,0.7,0.5,1c0.2,0.3,0.4,0.5,0.7,0.7c0.3,0.2,0.5,0.4,0.8,0.5C9,56.8,9.3,56.9,9.6,57c0.3,0.1,0.6,0.1,0.9,0.1
				c0,0,0.1,0,0.1,0c0,0,0.1,0,0.1,0c0.3,0,0.6,0,1-0.1s0.7-0.2,1-0.3c0.3-0.1,0.6-0.3,0.9-0.5c0.3-0.2,0.6-0.5,0.8-0.8
				c0.2-0.3,0.4-0.7,0.5-1.1c0.1-0.4,0.2-0.9,0.2-1.5c0-0.4,0-0.8,0-1.3C15,51,15,50.5,15,49.9z"/>
			
				<rect x="22.4" y="56.5" transform="matrix(0.7071 -0.7071 0.7071 0.7071 -33.672 33.0373)" class="st1" width="1.3" height="1.3"/>
			
				<rect x="23.7" y="54.4" transform="matrix(0.7071 -0.7071 0.7071 0.7071 -31.8321 33.4184)" class="st1" width="1.5" height="1.4"/>
			<polygon class="st1" points="21.6,54.1 20.6,55.1 21.6,56.2 22.6,55.1 			"/>
			<path class="st1" d="M21.5,52.6c0.1,0,0.2,0,0.4,0c0.2,0,0.4,0,0.6,0c0.2,0,0.4,0,0.6,0c0.2,0,0.3,0,0.5-0.1
				c0.4-0.1,0.7-0.3,1-0.5c0.3-0.2,0.5-0.5,0.7-0.9c0.1-0.3,0.2-0.7,0.2-1.1c0-0.3,0-0.6-0.1-0.9c-0.1-0.3-0.2-0.7-0.3-1.1
				c-0.1-0.2-0.1-0.3-0.2-0.5c-0.1-0.2-0.1-0.3-0.2-0.4c-0.1-0.1-0.1-0.3-0.2-0.4c0-0.1-0.1-0.2-0.1-0.3l-1,0.5
				c0,0.1,0.1,0.2,0.1,0.3c0,0.1,0.1,0.2,0.1,0.4c0.1,0.1,0.1,0.3,0.2,0.4c0.1,0.1,0.1,0.3,0.1,0.4c0.1,0.3,0.2,0.6,0.3,0.9
				c0.1,0.3,0.1,0.5,0.1,0.7c0,0.3,0,0.5-0.1,0.6v0c-0.1,0.2-0.3,0.4-0.5,0.5c-0.2,0.1-0.5,0.2-0.8,0.3c-0.3,0.1-0.6,0.1-0.9,0.1
				c-0.3,0-0.6,0-0.9,0h-0.8c0,0,0,0,0,0c0,0,0,0,0,0h-0.1c-0.3,0-0.6,0-0.8-0.1c-0.2-0.1-0.4-0.2-0.5-0.3c-0.1-0.1-0.2-0.3-0.2-0.4
				c0-0.2,0-0.4,0-0.6v-0.1v-0.2c0-0.1,0-0.3,0-0.6c0-0.3,0-0.6,0-0.9c0-0.2,0-0.5,0-0.7c0-0.3,0-0.5,0-0.8c0-0.4,0-0.8,0-1.2
				c0-0.4,0-0.8,0-1.2c0-0.4,0-0.7-0.1-1.1c0-0.3-0.1-0.6-0.1-0.9l-1.1,0.2c0,0.2,0.1,0.5,0.1,0.9c0,0.3,0,0.7,0.1,1.1
				c0,0.4,0,0.8,0,1.2c0,0.4,0,0.8,0,1.2c0,0.2,0,0.4,0,0.6c0,0.2,0,0.4,0,0.6c0,0.5,0,0.9,0,1.2c0,0.3,0,0.5,0,0.6V50
				c0,0.1,0,0.2,0,0.4c0,0.1,0,0.3,0.1,0.5c0,0.2,0.1,0.3,0.2,0.5c0.1,0.2,0.2,0.3,0.3,0.5c0.2,0.2,0.5,0.4,0.9,0.5
				c0.3,0.1,0.8,0.2,1.3,0.2c0,0,0,0,0,0c0,0,0,0,0,0H21.5z"/>
			<polygon class="st1" points="28.1,53.7 28.1,53.7 28.1,53.7 			"/>
			<rect x="31.1" y="48" transform="matrix(0.707 -0.7072 0.7072 0.707 -25.124 36.7348)" class="st1" width="1.4" height="1.5"/>
			
				<rect x="41.5" y="54.4" transform="matrix(0.7071 -0.7071 0.7071 0.7071 -26.6101 45.9784)" class="st1" width="1.4" height="1.5"/>
			<path class="st1" d="M42.8,51c0.1-0.3,0.2-0.7,0.2-1.1c0-0.3,0-0.6-0.1-0.9c-0.1-0.3-0.2-0.7-0.3-1.1c-0.1-0.2-0.1-0.3-0.2-0.5
				c-0.1-0.2-0.1-0.3-0.2-0.4c-0.1-0.1-0.1-0.3-0.2-0.4c0-0.1-0.1-0.2-0.1-0.3l-1,0.5c0,0.1,0.1,0.2,0.1,0.3c0,0.1,0.1,0.2,0.1,0.4
				c0.1,0.1,0.1,0.3,0.2,0.4c0.1,0.1,0.1,0.3,0.1,0.4c0.1,0.3,0.2,0.6,0.3,0.9c0.1,0.3,0.1,0.5,0.1,0.7c0,0.3,0,0.5-0.1,0.6v0
				c-0.1,0.2-0.3,0.4-0.5,0.5c-0.2,0.1-0.5,0.2-0.8,0.3c-0.3,0.1-0.6,0.1-0.9,0.1c-0.3,0-0.6,0-0.9,0h-0.5c-0.2,0-0.4,0-0.6-0.1
				c-0.2,0-0.4-0.1-0.6-0.3c-0.2-0.1-0.4-0.4-0.7-0.7c-0.2-0.3-0.5-0.7-0.8-1.2c-0.1-0.3-0.2-0.5-0.3-0.6c-0.1-0.1-0.1-0.2-0.1-0.2
				L34.4,49c0,0.1,0.1,0.1,0.1,0.2c0,0.1,0.1,0.2,0.2,0.4c0.1,0.2,0.2,0.4,0.2,0.6c0.1,0.2,0.2,0.5,0.2,0.7c0.1,0.3,0.1,0.5,0.2,0.8
				c0,0.3,0.1,0.6,0.1,0.8c0,0.2,0,0.5,0,0.7c0,0.2-0.1,0.5-0.2,0.7c-0.1,0.3-0.3,0.6-0.5,0.9s-0.5,0.5-0.8,0.7
				c-0.3,0.2-0.7,0.3-1.1,0.4c-0.4,0.1-0.9,0.2-1.3,0.2c-0.4,0-0.7,0-1-0.1s-0.6-0.2-0.9-0.3c-0.3-0.1-0.5-0.3-0.7-0.5
				c-0.2-0.2-0.3-0.4-0.5-0.5c-0.1-0.2-0.2-0.4-0.3-0.6c-0.1-0.2-0.1-0.4-0.1-0.5c0-0.2-0.1-0.5,0-0.7c0-0.3,0-0.5,0.1-0.8
				c0-0.3,0.1-0.5,0.2-0.8c0.1-0.3,0.1-0.5,0.2-0.7c0.1-0.2,0.2-0.4,0.2-0.6c0.1-0.2,0.2-0.3,0.2-0.4c-0.2-0.1-0.3-0.2-0.4-0.3
				c-0.1-0.1-0.3-0.2-0.4-0.3c-0.2,0.3-0.4,0.7-0.5,1c-0.2,0.4-0.3,0.8-0.4,1.2c-0.1,0.4-0.2,0.9-0.2,1.3c0,0.4,0,0.9,0,1.3v0
				c0.2,1.2,0.7,2,1.5,2.6c0.8,0.6,1.8,0.9,3,0.9c0.5,0,1-0.1,1.5-0.2c0.5-0.1,0.9-0.3,1.4-0.5c0.4-0.2,0.8-0.5,1.1-0.9
				c0.3-0.4,0.6-0.8,0.8-1.3c0.1-0.3,0.2-0.6,0.2-0.9c0-0.3,0.1-0.6,0.1-0.9c0,0,0-0.1,0-0.1c0-0.1,0-0.1,0-0.2c0-0.1,0-0.1,0-0.2
				c0-0.1,0-0.1,0-0.1c0.4,0.3,0.9,0.4,1.3,0.5c0.1,0,0.1,0,0.2,0h1.1c0.1,0,0.2,0,0.4,0c0.2,0,0.4,0,0.6,0c0.2,0,0.4,0,0.6,0
				c0.2,0,0.3,0,0.5-0.1c0.4-0.1,0.7-0.3,1-0.5C42.4,51.6,42.6,51.3,42.8,51z"/>
			
				<rect x="39" y="54.4" transform="matrix(0.7047 -0.7095 0.7095 0.7047 -27.3649 44.4492)" class="st1" width="1.4" height="1.5"/>
			<path class="st1" d="M48.1,51.7c0-0.1,0-0.3-0.1-0.5c0-0.2-0.1-0.3-0.1-0.5c0-0.2-0.1-0.4-0.1-0.6c0-0.2-0.1-0.4-0.1-0.5
				c-0.1-0.4-0.2-0.8-0.3-1.3l-1.1,0.3c0,0.1,0,0.2,0.1,0.3c0,0.1,0.1,0.3,0.1,0.5c0.1,0.2,0.1,0.4,0.2,0.6c0.1,0.2,0.1,0.4,0.2,0.6
				c0.1,0.2,0.1,0.4,0.1,0.6c0,0.2,0.1,0.4,0.1,0.6c0,0.1,0,0.1,0,0.1c0,0,0,0.1,0,0.1c0,0.5-0.1,0.9-0.3,1.3
				c-0.2,0.4-0.5,0.8-0.9,1.2c-0.4,0.4-0.8,0.7-1.2,1.1c-0.5,0.3-0.9,0.6-1.4,0.9l0.5,1c0.4-0.2,0.7-0.4,1.1-0.6
				c0.4-0.2,0.7-0.5,1-0.8c0.3-0.3,0.6-0.6,0.9-0.9c0.3-0.3,0.5-0.6,0.7-1c0.2-0.3,0.4-0.7,0.5-1.1s0.2-0.7,0.2-1.1
				c0-0.1,0-0.1,0-0.2C48.1,51.8,48.1,51.7,48.1,51.7z"/>
			
				<rect x="51" y="44.6" transform="matrix(0.7071 -0.7071 0.7071 0.7071 -16.9082 49.8387)" class="st1" width="1.4" height="1.5"/>
			<path class="st1" d="M53.1,51.9c0-0.1,0-0.1,0-0.2c0-0.1,0-0.3-0.1-0.5c0-0.2-0.1-0.3-0.1-0.5c0-0.2-0.1-0.4-0.1-0.6
				c0-0.2-0.1-0.4-0.1-0.5c-0.1-0.4-0.2-0.8-0.3-1.3l-1.1,0.3c0,0.1,0,0.2,0.1,0.3c0,0.1,0.1,0.3,0.1,0.5c0.1,0.2,0.1,0.4,0.2,0.6
				c0.1,0.2,0.1,0.4,0.2,0.6c0.1,0.2,0.1,0.4,0.1,0.6c0,0.2,0.1,0.4,0.1,0.6c0,0.1,0,0.1,0,0.1c0,0,0,0.1,0,0.1
				c0,0.5-0.1,0.9-0.3,1.3c-0.2,0.4-0.5,0.8-0.9,1.2c-0.4,0.4-0.8,0.7-1.2,1.1c-0.5,0.3-0.9,0.6-1.4,0.9l0.5,1
				c0.4-0.2,0.7-0.4,1.1-0.6c0.4-0.2,0.7-0.5,1-0.8c0.3-0.3,0.6-0.6,0.9-0.9c0.3-0.3,0.5-0.6,0.7-1c0.2-0.3,0.4-0.7,0.5-1.1
				s0.2-0.7,0.2-1.1C53.1,52,53.1,51.9,53.1,51.9z"/>
		</g>
	</g>
</g>
</svg>
