<svg xmlns="http://www.w3.org/2000/svg" viewBox="0 0 3500 3500"><defs><style>.cls-1{fill:#1d1d1b;}.cls-2{fill:#fff;}</style></defs><title>Jibres-Logo-fa-vertical-black-safe</title><g id="Jibres-icon"><circle id="Circle" class="cls-1" cx="1750" cy="1250" r="750"/><path id="Shape" class="cls-2" d="M2159.78,988.89v400h-800v-400h-100v400a100,100,0,0,0,100,100h800a100,100,0,0,0,100-100v-400Z"/></g><g id="Jibres-wordmark"><path class="cls-1" d="M1457,2637.42a278.48,278.48,0,0,0-1.91-30.12q-1.92-17.21-4.79-35.59t-6.32-36.37q-3.45-18-6.51-32.66T1432,2478q-2.51-10-3.26-12.32L1349,2490.36q1.53,5.86,4.22,16.62t5.55,24.25q2.88,13.48,5.75,28.55t5.16,29.53q2.31,14.47,3.84,27a181.21,181.21,0,0,1,1.53,21.12q0,21.91-6.71,35t-16.08,20.14a52.54,52.54,0,0,1-19.15,9.39,98.52,98.52,0,0,1-15.89,2.74q-35.61,0-52.08-15.26t-17.24-48.11V2519.69h-83.48v117.73q0,19.56-6.71,32.46a62.33,62.33,0,0,1-16.66,20.73,60.32,60.32,0,0,1-21.25,11,76.23,76.23,0,0,1-20.11,3.13,108.37,108.37,0,0,1-28.34-3.72q-13.79-3.72-24.7-15.25t-17.42-32.86q-6.52-21.32-6.51-56.91v-76.27H938.88v275.36q0,28.15-5.36,50.45t-20.11,37.55q-14.74,15.25-41.36,23.27t-69.12,8h-76.6q-32.16,0-58.59-11.73a146,146,0,0,1-47.49-33.05,147.94,147.94,0,0,1-30.83-49.09,166.41,166.41,0,0,1-10.91-60.63q0-41.45,15.32-86.83t41.74-100.52l-75.44-37.55q-29.88,64.16-45,119.49T500,2761q0,55.16,16.85,99.15t47.3,75.1a208.93,208.93,0,0,0,72.19,47.91Q678.07,3000,728.25,3000h74.68q109.14,0,164.48-50.07t55.34-154.88v-28.56A82.26,82.26,0,0,0,1040,2779a78.64,78.64,0,0,0,18.38,7,123.6,123.6,0,0,0,19.92,3.13q10.34.78,21.44.78a191.4,191.4,0,0,0,26.81-1.95,138.41,138.41,0,0,0,27.38-6.85,132.77,132.77,0,0,0,26.24-12.91,125,125,0,0,0,23.74-19.75q19.9,20,48.64,30.71T1318,2790a145.19,145.19,0,0,0,50.17-10,134,134,0,0,0,44.62-28.36q19.73-18.77,32-47.33T1457,2637.42Z"/><polygon class="cls-1" points="1851.56 2929.29 1915.62 2995.29 1979.69 2930.07 1914.86 2864.07 1851.56 2929.29"/><polygon class="cls-1" points="2262.5 2935.96 2323.44 2998.43 2385.16 2935.96 2322.67 2872.71 2262.5 2935.96"/><polygon class="cls-1" points="2117.19 2935.96 2178.13 2998.43 2239.84 2935.96 2177.36 2872.71 2117.19 2935.96"/><polygon class="cls-1" points="2675.78 2923.01 2739.84 2989 2803.91 2923.78 2739.08 2857.79 2675.78 2923.01"/><path class="cls-1" d="M2989.67,2563.83q-44-16-76.15-28.36t-56.44-21.71q-24.32-9.39-42.86-16.62t-35.4-13.69q-16.84-6.47-34.25-12.52t-38.84-13.11q-24.11-7.82-44.39-7.82a96.43,96.43,0,0,0-17.6,1.57q-27.16,5.47-47.45,21.7a141.38,141.38,0,0,0-34.06,40.1,241.79,241.79,0,0,0-21.81,50.07l77.3,23.86q6.12-16.8,13.78-27.77t18-16a51.45,51.45,0,0,1,23.73-4.89q13.38.21,30.61,5.28l190.95,68.46q-18,10.56-40.56,21.32t-48.41,20.93q-25.83,10.17-53.76,19.16t-56.45,15.85a581.94,581.94,0,0,1-57.21,10.76,410.53,410.53,0,0,1-55.48,3.91H2429.45c-1.78,0-4.59-.13-8.41-.39a73.92,73.92,0,0,1-12.82-2.16,73,73,0,0,1-14.35-5.28,49.52,49.52,0,0,1-13.4-9.58,48.54,48.54,0,0,1-10.14-15.26q-4-9.18-4-22.49V2519.24H2282.9v132.61a73.41,73.41,0,0,1-2.3,17.8,36,36,0,0,1-9.95,16.82q-7.67,7.62-22.77,12.71t-40.37,5.09H2055.6q-2.68,0-8.42-.39a74.08,74.08,0,0,1-12.82-2.16,73,73,0,0,1-14.35-5.28,49.52,49.52,0,0,1-13.4-9.58,48.54,48.54,0,0,1-10.14-15.26q-4-9.18-4-22.49V2519.24H1909v132.61a73.41,73.41,0,0,1-2.3,17.8,36,36,0,0,1-10,16.82q-7.66,7.62-22.77,12.71t-40.37,5.09h-64.29q-3.83,0-14-2.15a65.35,65.35,0,0,1-20.86-8.81,63.63,63.63,0,0,1-18.94-18.77q-8.24-12.12-8.23-32.08V2519.63h-83.8v244.1q0,41.07-8.8,69.82T1588,2880.1q-18,17.8-45.72,26t-66,8.21h-52.81V3000h52.81q52.8,0,94.51-16t71.37-45.77q29.65-29.73,46.3-72t18.94-94.67q15.3,12.91,30.23,15.65a171.42,171.42,0,0,0,26,2.64v.1h70q37.5,0,67.16-9.78t50.32-28.17q17.22,18.78,44,28.36t60.46,9.59h151.91q37.5,0,67.16-9.78T2325,2752q17.22,18.78,44,28.36t60.46,9.59H2582.9a457.3,457.3,0,0,0,98.92-11,744.49,744.49,0,0,0,95.09-27.58,869,869,0,0,0,85.33-36.18q39.8-19.56,69.65-36.77t47.83-29.14q18-11.94,20.28-13.5Z"/></g></svg>