<?xml version="1.0" encoding="utf-8"?>
<svg version="1.1" xmlns="http://www.w3.org/2000/svg" xmlns:xlink="http://www.w3.org/1999/xlink" x="0px" y="0px"
	 viewBox="0 0 500 500" style="enable-background:new 0 0 500 500;" xml:space="preserve">
<style type="text/css">
	.st1{fill:#7048A3;}
	.st2{fill:#DCE6FF;}
	.st3{fill:url(#SVGID_1_);}
	.st4{opacity:0.2;}
	.st5{fill:url(#SVGID_2_);}
	.st6{fill:url(#SVGID_3_);}
	.st7{opacity:0.1;}
	.st8{fill:#FFB227;}
	.st9{opacity:0.3;}
	.st10{fill:#FFFFFF;}
	.st11{display:none;}
	.st12{display:inline;fill:#FF58D5;}
	.st13{display:none;fill:#FF58D5;}
	.st14{font-family:'Montserrat-Medium';}
	.st15{font-size:7.3952px;}
	.st16{fill:#002B66;}
	.st17{fill:#FF58D5;}
	.st18{fill:#005898;}
	.st19{display:inline;}
	.st20{fill:#1D262D;}
</style>
<g id="OBJECTS">
	<g>
		<g>
			<g>
				<g>
					<path class="st1" d="M82.49,400.77c-0.36,0-0.7-0.14-0.95-0.4c-0.25-0.25-0.4-0.59-0.4-0.95c0-0.09,0.01-0.18,0.03-0.26
						c0.02-0.09,0.04-0.17,0.07-0.26c0.04-0.08,0.08-0.15,0.13-0.22c0.05-0.08,0.11-0.14,0.17-0.21c0.06-0.06,0.13-0.12,0.21-0.17
						c0.07-0.04,0.14-0.09,0.23-0.13c0.08-0.03,0.16-0.05,0.25-0.07c0.17-0.04,0.35-0.04,0.52,0c0.09,0.02,0.17,0.04,0.25,0.07
						c0.08,0.04,0.16,0.08,0.23,0.13c0.07,0.05,0.14,0.11,0.21,0.17c0.06,0.06,0.12,0.13,0.17,0.21c0.05,0.07,0.09,0.14,0.12,0.22
						c0.04,0.09,0.06,0.17,0.08,0.26c0.02,0.08,0.03,0.17,0.03,0.26c0,0.36-0.14,0.7-0.4,0.95
						C83.19,400.63,82.86,400.77,82.49,400.77z"/>
				</g>
				<g>
					<path class="st1" d="M379.44,397.95c-0.38-0.65-0.15-1.48,0.49-1.84l0,0c0.65-0.37,1.48-0.14,1.84,0.5l0,0
						c0.37,0.65,0.14,1.47-0.5,1.84l0,0l0,0l0,0c-0.21,0.13-0.44,0.18-0.67,0.18l0,0C380.14,398.62,379.69,398.38,379.44,397.95z
						 M76.97,394.47L76.97,394.47L76.97,394.47c-0.42-0.62-0.26-1.46,0.35-1.88l0,0c0.62-0.41,1.46-0.26,1.88,0.36l0,0
						c0.41,0.61,0.25,1.46-0.36,1.87l0,0c-0.23,0.16-0.49,0.23-0.76,0.23l0,0C77.65,395.05,77.23,394.85,76.97,394.47z
						 M385.64,394.25c-0.41-0.62-0.23-1.46,0.4-1.86l0,0c0.62-0.41,1.46-0.22,1.86,0.4l0,0c0.41,0.62,0.22,1.46-0.4,1.86l0,0
						c-0.22,0.14-0.48,0.22-0.73,0.22l0,0C386.33,394.87,385.9,394.66,385.64,394.25z M391.64,390.24c-0.44-0.61-0.31-1.45,0.3-1.89
						l0,0c0.6-0.44,1.45-0.3,1.89,0.31l0,0c0.43,0.6,0.3,1.45-0.31,1.88l0,0l0,0l0,0c-0.23,0.17-0.51,0.26-0.79,0.26l0,0
						C392.32,390.8,391.9,390.6,391.64,390.24z M73.17,388.14c-0.34-0.66-0.09-1.48,0.57-1.82l0,0c0.67-0.35,1.48-0.1,1.83,0.57l0,0
						c0.34,0.66,0.09,1.48-0.57,1.82l0,0c-0.2,0.11-0.41,0.15-0.63,0.15l0,0C73.88,388.86,73.42,388.6,73.17,388.14z M397.42,385.91
						c-0.47-0.59-0.38-1.43,0.21-1.9l0,0c0.58-0.47,1.43-0.38,1.9,0.21l0,0c0.47,0.58,0.38,1.42-0.21,1.89l0,0l0,0l0,0
						c-0.25,0.21-0.55,0.31-0.85,0.31l0,0C398.08,386.41,397.69,386.23,397.42,385.91z M70.11,381.45L70.11,381.45L70.11,381.45
						c-0.27-0.7,0.07-1.49,0.76-1.75l0,0c0.69-0.27,1.48,0.07,1.75,0.76l0,0c0.27,0.69-0.06,1.48-0.76,1.75l0,0
						c-0.16,0.06-0.32,0.1-0.49,0.1l0,0C70.83,382.3,70.32,381.98,70.11,381.45z M402.97,381.29c-0.49-0.55-0.45-1.4,0.11-1.9l0,0
						c0.56-0.5,1.41-0.45,1.91,0.11l0,0c0.49,0.55,0.45,1.4-0.11,1.9l0,0c-0.26,0.23-0.58,0.34-0.9,0.34l0,0
						C403.61,381.74,403.24,381.59,402.97,381.29z M408.28,376.39c-0.52-0.53-0.52-1.39,0.01-1.91l0,0
						c0.53-0.52,1.39-0.52,1.91,0.01l0,0c0.52,0.53,0.52,1.39-0.01,1.92l0,0c0,0,0,0,0-0.01l0,0c-0.26,0.26-0.6,0.4-0.95,0.4l0,0
						C408.89,376.8,408.54,376.66,408.28,376.39z M67.79,374.46c-0.2-0.72,0.23-1.46,0.94-1.66l0,0c0.72-0.2,1.47,0.22,1.66,0.94
						l0,0c0.19,0.72-0.23,1.46-0.94,1.66l0,0c-0.13,0.04-0.24,0.05-0.36,0.05l0,0C68.5,375.46,67.96,375.06,67.79,374.46z
						 M413.34,371.23c-0.56-0.5-0.59-1.36-0.09-1.91l0,0c0.5-0.55,1.36-0.58,1.91-0.08l0,0c0.55,0.5,0.59,1.36,0.09,1.91l0,0
						c-0.27,0.29-0.63,0.43-1,0.43l0,0C413.92,371.59,413.59,371.47,413.34,371.23z M66.22,367.27
						C66.22,367.27,66.22,367.27,66.22,367.27L66.22,367.27c-0.12-0.74,0.39-1.43,1.12-1.55l0,0c0.74-0.13,1.43,0.38,1.56,1.11l0,0
						c0.12,0.74-0.38,1.43-1.12,1.56l0,0c-0.07,0.01-0.14,0.02-0.22,0.02l0,0C66.9,368.4,66.33,367.93,66.22,367.27z M418.12,365.84
						c-0.58-0.48-0.66-1.33-0.18-1.91l0,0c0.48-0.57,1.33-0.65,1.9-0.17l0,0c0.58,0.47,0.66,1.32,0.18,1.9l0,0l0,0l0,0
						c-0.26,0.32-0.65,0.49-1.04,0.49l0,0C418.68,366.14,418.38,366.04,418.12,365.84z M65.41,359.95
						c-0.05-0.74,0.52-1.38,1.27-1.42l0,0c0.74-0.04,1.38,0.52,1.42,1.27l0,0c0.05,0.74-0.52,1.38-1.26,1.42l0,0
						c-0.03,0-0.05,0-0.08,0l0,0C66.05,361.22,65.45,360.67,65.41,359.95z M422.64,360.2c-0.59-0.45-0.72-1.3-0.27-1.89l0,0
						c0.45-0.6,1.3-0.72,1.89-0.28l0,0c0.59,0.45,0.72,1.3,0.27,1.89l0,0c-0.26,0.36-0.67,0.55-1.08,0.55l0,0
						C423.17,360.47,422.88,360.38,422.64,360.2z M426.88,354.36c-0.62-0.42-0.78-1.26-0.37-1.87l0,0c0.42-0.62,1.26-0.78,1.88-0.37
						l0,0c0.61,0.41,0.77,1.25,0.36,1.87l0,0c-0.26,0.39-0.68,0.59-1.12,0.59l0,0C427.37,354.58,427.11,354.51,426.88,354.36z
						 M66.64,354c-0.75-0.04-1.32-0.67-1.29-1.4l0,0c0.04-0.75,0.67-1.32,1.4-1.29l0,0c0.75,0.03,1.32,0.66,1.29,1.4l0,0
						c-0.03,0.73-0.63,1.29-1.34,1.29l0,0C66.69,354,66.66,354,66.64,354z M430.82,348.3c-0.64-0.39-0.85-1.22-0.46-1.85l0,0
						c0.39-0.64,1.21-0.84,1.85-0.46l0,0c0.64,0.39,0.85,1.21,0.46,1.85l0,0l0,0l0,0c-0.25,0.42-0.7,0.66-1.16,0.66l0,0
						C431.28,348.5,431.04,348.43,430.82,348.3z M67.21,346.81c-0.74-0.11-1.24-0.8-1.13-1.54l0,0c0.12-0.74,0.8-1.24,1.54-1.12l0,0
						c0.74,0.11,1.24,0.8,1.13,1.54l0,0c-0.11,0.67-0.68,1.14-1.33,1.14l0,0C67.34,346.82,67.27,346.82,67.21,346.81z
						 M434.46,342.06c-0.66-0.35-0.9-1.17-0.55-1.83l0,0c0.36-0.66,1.17-0.91,1.84-0.55l0,0c0.65,0.35,0.9,1.17,0.54,1.83l0,0
						c0,0,0,0,0.01,0l0,0c-0.25,0.45-0.71,0.71-1.2,0.71l0,0C434.88,342.23,434.66,342.17,434.46,342.06z M68.54,339.72
						c-0.72-0.2-1.14-0.94-0.94-1.66l0,0c0,0,0,0-0.01,0l0,0c0.2-0.72,0.94-1.14,1.66-0.95l0,0c0.72,0.2,1.15,0.94,0.95,1.66l0,0
						c-0.16,0.6-0.7,1-1.3,1l0,0C68.78,339.76,68.66,339.74,68.54,339.72z M437.78,335.66c-0.67-0.32-0.95-1.13-0.64-1.8l0,0
						c0.32-0.67,1.12-0.96,1.8-0.65l0,0c0.67,0.32,0.96,1.13,0.64,1.8l0,0c0,0,0,0,0,0.01l0,0c-0.22,0.49-0.71,0.77-1.22,0.77l0,0
						C438.16,335.78,437.97,335.74,437.78,335.66z M70.66,332.81c-0.69-0.27-1.03-1.06-0.76-1.75l0,0c0.27-0.69,1.06-1.03,1.75-0.76
						l0,0c0.69,0.28,1.03,1.06,0.76,1.75l0,0c-0.22,0.53-0.72,0.85-1.26,0.85l0,0C71,332.91,70.82,332.88,70.66,332.81z
						 M440.78,329.08c-0.69-0.29-1.02-1.07-0.73-1.76l0,0c0.28-0.68,1.07-1.01,1.76-0.73l0,0c0.68,0.29,1.01,1.08,0.73,1.76l0,0l0,0
						l0,0c-0.22,0.52-0.72,0.84-1.25,0.84l0,0C441.12,329.19,440.94,329.15,440.78,329.08z M73.57,326.21
						c-0.65-0.36-0.9-1.18-0.54-1.84l0,0c0.35-0.66,1.17-0.9,1.83-0.54l0,0c0.66,0.35,0.9,1.17,0.55,1.83l0,0
						c-0.24,0.45-0.71,0.71-1.2,0.71l0,0C73.99,326.37,73.78,326.32,73.57,326.21z M443.44,322.37c-0.7-0.25-1.06-1.02-0.82-1.72
						l0,0c0.25-0.7,1.03-1.07,1.73-0.82l0,0c0.7,0.24,1.07,1.02,0.82,1.72l0,0c-0.2,0.56-0.72,0.9-1.27,0.9l0,0
						C443.74,322.45,443.59,322.42,443.44,322.37z M77.2,319.97c-0.61-0.41-0.78-1.25-0.37-1.87l0,0c0.41-0.62,1.25-0.79,1.87-0.37
						l0,0c0.62,0.41,0.79,1.25,0.38,1.87l0,0c-0.27,0.39-0.69,0.59-1.12,0.59l0,0C77.69,320.19,77.43,320.12,77.2,319.97z
						 M445.75,315.53c-0.71-0.22-1.12-0.96-0.9-1.68l0,0c0.21-0.71,0.96-1.12,1.67-0.9l0,0c0.72,0.21,1.12,0.96,0.91,1.67l0,0
						c-0.17,0.59-0.71,0.96-1.3,0.96l0,0C446.01,315.58,445.88,315.56,445.75,315.53z M81.35,314.06c-0.58-0.46-0.69-1.3-0.23-1.9
						l0,0c0.46-0.59,1.3-0.69,1.89-0.23l0,0c0.59,0.46,0.7,1.3,0.24,1.89l0,0c-0.27,0.35-0.67,0.53-1.07,0.53l0,0
						C81.89,314.35,81.6,314.25,81.35,314.06z M85.88,308.43c-0.57-0.49-0.64-1.33-0.15-1.9l0,0c0.48-0.57,1.33-0.64,1.9-0.15l0,0
						c0.57,0.49,0.64,1.33,0.15,1.9l0,0c-0.27,0.31-0.65,0.48-1.03,0.48l0,0C86.44,308.75,86.13,308.65,85.88,308.43z M447.7,308.58
						c-0.72-0.18-1.17-0.91-0.99-1.64l0,0c0.17-0.72,0.91-1.17,1.63-0.99l0,0c0.73,0.17,1.17,0.91,1,1.63l0,0
						c-0.15,0.62-0.71,1.03-1.31,1.03l0,0C447.92,308.62,447.81,308.6,447.7,308.58z M90.6,302.98c-0.55-0.49-0.6-1.35-0.11-1.91
						l0,0c0.49-0.56,1.35-0.6,1.91-0.11l0,0c0.56,0.49,0.6,1.34,0.11,1.9l0,0c-0.26,0.31-0.64,0.46-1.01,0.46l0,0
						C91.19,303.32,90.86,303.2,90.6,302.98z M449.29,301.54c-0.74-0.14-1.22-0.85-1.09-1.57l0,0c0.14-0.74,0.85-1.22,1.57-1.08l0,0
						c0.74,0.13,1.22,0.84,1.08,1.57l0,0c0,0,0,0,0-0.01l0,0c-0.12,0.66-0.68,1.11-1.32,1.11l0,0
						C449.46,301.56,449.37,301.55,449.29,301.54z M95.42,297.59c-0.56-0.49-0.61-1.35-0.12-1.91l0,0c0.5-0.56,1.35-0.61,1.91-0.12
						l0,0c0.56,0.49,0.61,1.35,0.12,1.91h-0.01c-0.26,0.31-0.63,0.46-1.01,0.46l0,0C95.99,297.93,95.67,297.81,95.42,297.59z
						 M450.49,294.41c-0.74-0.09-1.26-0.77-1.16-1.51l0,0c0.09-0.74,0.77-1.26,1.51-1.16l0,0c0.74,0.09,1.26,0.77,1.16,1.51l0,0
						c-0.09,0.67-0.67,1.17-1.33,1.17l0,0C450.61,294.42,450.55,294.42,450.49,294.41z M100.18,292.15
						c-0.58-0.48-0.65-1.33-0.17-1.9l0,0l0,0l0,0c0.49-0.58,1.33-0.65,1.91-0.16l0,0c0.57,0.48,0.64,1.32,0.16,1.9l0,0
						c-0.27,0.31-0.65,0.48-1.03,0.48l0,0C100.73,292.47,100.43,292.37,100.18,292.15z M451.3,287.24c-0.75-0.05-1.3-0.7-1.24-1.45
						l0,0c0.05-0.74,0.7-1.3,1.44-1.24l0,0c0.75,0.05,1.3,0.7,1.25,1.45l0,0c-0.05,0.7-0.65,1.24-1.34,1.24l0,0
						C451.37,287.24,451.34,287.24,451.3,287.24z M104.74,286.56c-0.59-0.44-0.71-1.29-0.26-1.89l0,0c0.44-0.59,1.29-0.71,1.89-0.26
						l0,0c0.59,0.44,0.71,1.29,0.26,1.89l0,0c-0.26,0.35-0.67,0.54-1.08,0.54l0,0C105.27,286.83,104.98,286.75,104.74,286.56z
						 M108.95,280.69c-0.62-0.4-0.81-1.23-0.41-1.86l0,0c0.41-0.63,1.23-0.81,1.86-0.41l0,0c0.63,0.4,0.81,1.23,0.41,1.86l0,0
						c-0.25,0.4-0.69,0.62-1.13,0.62l0,0C109.43,280.91,109.17,280.83,108.95,280.69z M451.72,280.03
						c-0.75-0.02-1.34-0.64-1.32-1.39l0,0c0.02-0.74,0.63-1.33,1.38-1.31l0,0c0.75,0.02,1.34,0.63,1.32,1.38l0,0
						c-0.02,0.74-0.62,1.32-1.35,1.32l0,0C451.74,280.03,451.73,280.03,451.72,280.03z M112.68,274.51
						c-0.67-0.34-0.93-1.15-0.58-1.82l0,0l0,0l0,0c0.35-0.67,1.16-0.92,1.83-0.59l0,0c0.66,0.35,0.92,1.16,0.58,1.83l0,0
						c-0.24,0.46-0.71,0.73-1.2,0.73l0,0C113.09,274.66,112.88,274.62,112.68,274.51z M450.36,271.5L450.36,271.5
						c-0.02-0.75,0.57-1.37,1.3-1.39l0,0c0.75-0.02,1.37,0.57,1.39,1.31l0,0c0.03,0.74-0.56,1.37-1.3,1.39l0,0
						c-0.02,0-0.03,0-0.05,0l0,0C450.98,272.81,450.39,272.23,450.36,271.5z M115.78,267.98c-0.7-0.26-1.05-1.04-0.79-1.74l0,0
						c0.27-0.7,1.04-1.05,1.75-0.79l0,0c0.69,0.27,1.04,1.04,0.78,1.75l0,0c-0.21,0.54-0.72,0.87-1.27,0.87l0,0
						C116.09,268.07,115.93,268.05,115.78,267.98z M449.96,264.36c-0.06-0.74,0.48-1.39,1.23-1.45l0,0c0.74-0.06,1.4,0.49,1.46,1.23
						l0,0c0.06,0.74-0.49,1.39-1.23,1.46l0,0c-0.04,0-0.08,0-0.12,0l0,0C450.61,265.6,450.01,265.07,449.96,264.36z M118.03,261.13
						c-0.73-0.16-1.19-0.88-1.03-1.61l0,0c0.15-0.73,0.87-1.19,1.6-1.03l0,0c0.73,0.15,1.19,0.87,1.03,1.6l0,0
						c-0.14,0.64-0.7,1.06-1.32,1.06l0,0C118.23,261.15,118.13,261.15,118.03,261.13z M449.19,257.25c-0.1-0.74,0.41-1.41,1.15-1.51
						l0,0c0.74-0.1,1.42,0.41,1.52,1.15l0,0l0,0l0,0c0.1,0.74-0.42,1.42-1.16,1.52l0,0c-0.05,0.01-0.12,0.01-0.18,0.01l0,0
						C449.85,258.42,449.28,257.93,449.19,257.25z M119.2,254.01c-0.75-0.04-1.32-0.67-1.3-1.4l0,0l0,0l0,0
						c0.04-0.75,0.67-1.32,1.4-1.3l0,0c0.75,0.03,1.33,0.66,1.3,1.4l0,0c-0.03,0.73-0.63,1.3-1.35,1.3l0,0
						C119.23,254.01,119.22,254.01,119.2,254.01z M448.05,250.2c-0.14-0.74,0.34-1.44,1.07-1.57l0,0c0.74-0.14,1.44,0.34,1.57,1.07
						l0,0c0.14,0.74-0.34,1.44-1.08,1.58l0,0c-0.08,0.01-0.16,0.02-0.24,0.02l0,0C448.74,251.29,448.17,250.84,448.05,250.2z
						 M117.52,245.67c-0.12-0.74,0.4-1.43,1.12-1.54l0,0c0.74-0.12,1.43,0.39,1.55,1.12h-0.01c0.12,0.74-0.39,1.43-1.12,1.54l0,0
						c-0.07,0.01-0.13,0.02-0.21,0.02l0,0C118.2,246.81,117.62,246.34,117.52,245.67z M446.56,243.2c-0.17-0.73,0.27-1.45,1-1.63
						l0,0c0.73-0.17,1.46,0.28,1.63,1l0,0l0,0l0,0c0.17,0.73-0.28,1.46-1,1.63l0,0c-0.11,0.03-0.22,0.04-0.31,0.04l0,0
						C447.26,244.23,446.71,243.82,446.56,243.2z M115.85,238.9c-0.24-0.7,0.13-1.48,0.84-1.71l0,0c0.7-0.24,1.48,0.13,1.72,0.84
						l0,0c0.23,0.7-0.13,1.48-0.85,1.72l0,0c-0.14,0.04-0.29,0.07-0.43,0.07l0,0C116.56,239.82,116.04,239.46,115.85,238.9z
						 M444.72,236.29L444.72,236.29c-0.21-0.72,0.21-1.47,0.92-1.67l0,0c0.72-0.22,1.47,0.2,1.67,0.91l0,0c0,0,0,0,0,0.01l0,0
						c0.21,0.71-0.2,1.46-0.92,1.67l0,0c-0.13,0.04-0.25,0.05-0.38,0.05l0,0C445.43,237.26,444.89,236.87,444.72,236.29z
						 M113.08,232.45c-0.34-0.66-0.08-1.48,0.58-1.82l0,0c0.67-0.33,1.48-0.07,1.82,0.59l0,0c0.34,0.66,0.08,1.48-0.58,1.81l0,0
						c-0.2,0.11-0.41,0.15-0.61,0.15l0,0C113.79,233.19,113.32,232.92,113.08,232.45z M442.55,229.46c-0.24-0.7,0.13-1.48,0.84-1.72
						l0,0c0.7-0.24,1.48,0.13,1.72,0.84l0,0c0.24,0.7-0.14,1.48-0.84,1.72l0,0c-0.14,0.04-0.3,0.07-0.44,0.07l0,0
						C443.26,230.37,442.74,230.02,442.55,229.46z M109.51,226.34c-0.4-0.62-0.22-1.46,0.4-1.86l0,0c0.63-0.41,1.47-0.23,1.87,0.4
						l0,0c0.41,0.62,0.22,1.46-0.4,1.86l0,0c-0.22,0.15-0.49,0.22-0.74,0.22l0,0C110.2,226.95,109.77,226.74,109.51,226.34z
						 M440.04,222.76c-0.28-0.68,0.05-1.48,0.75-1.75l0,0c0.69-0.28,1.48,0.06,1.75,0.75l0,0c0.28,0.69-0.05,1.48-0.75,1.76l0,0
						c-0.16,0.06-0.33,0.1-0.5,0.1l0,0C440.75,223.62,440.25,223.29,440.04,222.76z M105.42,220.49c-0.45-0.59-0.32-1.44,0.27-1.88
						l0,0c0.6-0.45,1.45-0.32,1.89,0.28l0,0c0.45,0.59,0.32,1.44-0.28,1.88l0,0c-0.23,0.18-0.52,0.27-0.8,0.27l0,0
						C106.09,221.04,105.68,220.85,105.42,220.49z M437.21,216.2c-0.31-0.68-0.02-1.48,0.66-1.79l0,0c0.67-0.31,1.48-0.02,1.79,0.66
						l0,0c0.31,0.67,0.02,1.48-0.66,1.79l0,0c-0.19,0.08-0.38,0.13-0.57,0.13l0,0C437.92,216.98,437.43,216.69,437.21,216.2z
						 M101.03,214.82C101.03,214.82,101.03,214.82,101.03,214.82L101.03,214.82c-0.46-0.59-0.36-1.44,0.22-1.9l0,0
						c0.58-0.47,1.43-0.37,1.89,0.22l0,0c0.47,0.58,0.37,1.44-0.22,1.9l0,0c-0.25,0.2-0.55,0.29-0.84,0.29l0,0
						C101.69,215.32,101.3,215.15,101.03,214.82z M434.05,209.78c-0.35-0.66-0.09-1.48,0.57-1.82l0,0c0.66-0.35,1.48-0.09,1.82,0.57
						l0,0c0.35,0.66,0.09,1.48-0.57,1.83l0,0c-0.2,0.1-0.41,0.15-0.62,0.15l0,0C434.76,210.51,434.28,210.24,434.05,209.78z
						 M96.54,209.15L96.54,209.15L96.54,209.15c-0.46-0.58-0.36-1.43,0.22-1.89l0,0c0.58-0.46,1.43-0.36,1.89,0.22l0,0
						c0.47,0.58,0.37,1.43-0.22,1.89l0,0c-0.25,0.2-0.55,0.3-0.84,0.3l0,0C97.21,209.67,96.81,209.49,96.54,209.15z M430.58,203.52
						c-0.38-0.64-0.17-1.47,0.48-1.84l0,0c0.64-0.38,1.47-0.17,1.84,0.48l0,0c0.38,0.64,0.17,1.47-0.48,1.84l0,0
						c-0.22,0.13-0.45,0.19-0.68,0.19l0,0C431.28,204.19,430.83,203.96,430.58,203.52z M92.12,203.38c-0.44-0.6-0.32-1.45,0.29-1.89
						l0,0c0.6-0.44,1.45-0.32,1.89,0.29l0,0c0.44,0.6,0.32,1.45-0.29,1.89l0,0c-0.24,0.18-0.52,0.26-0.8,0.26l0,0
						C92.8,203.93,92.38,203.74,92.12,203.38z M426.8,197.45c-0.41-0.62-0.24-1.46,0.38-1.86l0,0c0.63-0.41,1.46-0.24,1.87,0.38l0,0
						l0,0l0,0c0.41,0.63,0.24,1.47-0.39,1.87l0,0c-0.22,0.15-0.49,0.22-0.74,0.22l0,0C427.48,198.06,427.05,197.85,426.8,197.45z
						 M87.97,197.36c-0.41-0.63-0.22-1.47,0.41-1.86l0,0c0.63-0.4,1.47-0.22,1.86,0.41l0,0c0.41,0.63,0.22,1.46-0.41,1.86l0,0
						c-0.22,0.14-0.48,0.21-0.72,0.21l0,0C88.67,197.98,88.24,197.77,87.97,197.36z M422.71,191.58c-0.44-0.6-0.32-1.45,0.29-1.89
						l0,0c0.59-0.44,1.44-0.31,1.88,0.29l0,0c0.44,0.6,0.31,1.45-0.29,1.89l0,0c-0.23,0.18-0.52,0.26-0.79,0.26l0,0
						C423.38,192.13,422.97,191.94,422.71,191.58z M84.31,191.01c-0.34-0.67-0.09-1.48,0.58-1.83l0,0c0.66-0.34,1.48-0.08,1.82,0.58
						l0,0c0.34,0.66,0.08,1.48-0.58,1.82l0,0c-0.2,0.11-0.41,0.15-0.62,0.15l0,0C85.02,191.73,84.55,191.47,84.31,191.01z
						 M418.33,185.93c-0.48-0.58-0.39-1.43,0.19-1.9l0,0c0.58-0.48,1.43-0.39,1.9,0.19l0,0c0.48,0.58,0.39,1.43-0.19,1.9l0,0
						c-0.25,0.21-0.56,0.31-0.86,0.31l0,0C418.99,186.43,418.6,186.26,418.33,185.93z M81.2,184.37c-0.29-0.69,0.04-1.48,0.73-1.77
						l0,0c0.68-0.29,1.48,0.04,1.76,0.73l0,0c0.29,0.68-0.04,1.48-0.73,1.76l0,0c-0.16,0.07-0.34,0.11-0.51,0.11l0,0
						C81.92,185.19,81.42,184.88,81.2,184.37z M413.66,180.52L413.66,180.52c-0.5-0.55-0.46-1.4,0.09-1.91l0,0
						c0.55-0.5,1.4-0.46,1.91,0.09l0,0c0.5,0.55,0.46,1.4-0.09,1.91l0,0c-0.26,0.23-0.58,0.35-0.91,0.35l0,0
						C414.29,180.96,413.93,180.81,413.66,180.52z M78.66,177.48c-0.23-0.71,0.15-1.47,0.86-1.7l0,0c0.71-0.22,1.48,0.16,1.7,0.87
						l0,0c0.22,0.71-0.16,1.47-0.87,1.7l0,0c-0.13,0.05-0.28,0.06-0.41,0.06l0,0C79.37,178.42,78.84,178.06,78.66,177.48z
						 M408.71,175.36c-0.53-0.52-0.53-1.39-0.01-1.91l0,0c0.52-0.53,1.38-0.54,1.91-0.02l0,0l0,0l0,0c0.53,0.53,0.54,1.38,0.01,1.91
						l0,0c-0.26,0.27-0.61,0.4-0.95,0.4l0,0C409.32,175.75,408.97,175.62,408.71,175.36z M76.69,170.42
						c-0.17-0.72,0.28-1.45,1.01-1.62l0,0c0.73-0.17,1.45,0.28,1.62,1.01l0,0c0.17,0.72-0.28,1.45-1.01,1.62l0,0
						c-0.1,0.03-0.21,0.04-0.31,0.04l0,0C77.39,171.46,76.84,171.05,76.69,170.42z M403.49,170.47c-0.56-0.49-0.61-1.35-0.12-1.91
						l0,0c0.49-0.56,1.35-0.61,1.91-0.12l0,0l0,0l0,0c0.56,0.49,0.61,1.35,0.12,1.91l0,0c-0.27,0.31-0.64,0.46-1.01,0.46l0,0
						C404.07,170.82,403.76,170.7,403.49,170.47z M398.04,165.8c-0.58-0.48-0.65-1.33-0.17-1.9l0,0c0.48-0.57,1.33-0.65,1.9-0.16
						l0,0c0.58,0.48,0.65,1.32,0.17,1.9l0,0c-0.27,0.32-0.65,0.49-1.03,0.49l0,0C398.6,166.12,398.29,166.01,398.04,165.8z
						 M75.31,163.22c-0.12-0.74,0.4-1.42,1.13-1.53l0,0c0.74-0.11,1.42,0.4,1.54,1.13l0,0c0.11,0.74-0.41,1.42-1.14,1.53l0,0
						c-0.06,0.02-0.13,0.02-0.2,0.02l0,0C75.99,164.37,75.41,163.9,75.31,163.22z M392.51,161.13L392.51,161.13
						c-0.58-0.49-0.64-1.34-0.15-1.91l0,0c0.49-0.57,1.34-0.63,1.91-0.14l0,0l0,0l0,0c0.57,0.49,0.63,1.34,0.14,1.91l0,0
						c-0.27,0.31-0.65,0.47-1.03,0.47l0,0C393.07,161.46,392.76,161.35,392.51,161.13z M74.53,155.93L74.53,155.93L74.53,155.93
						c-0.05-0.75,0.51-1.39,1.26-1.43l0,0c0.74-0.05,1.39,0.51,1.43,1.26l0,0c0.04,0.74-0.51,1.39-1.26,1.43l0,0
						c-0.03,0-0.06,0-0.09,0l0,0C75.17,157.19,74.58,156.64,74.53,155.93z M387.06,156.28c-0.54-0.51-0.57-1.37-0.05-1.91l0,0
						c0.5-0.54,1.36-0.57,1.91-0.06l0,0c0.54,0.51,0.57,1.37,0.05,1.92l0,0c-0.26,0.28-0.62,0.42-0.98,0.42l0,0
						C387.66,156.65,387.33,156.53,387.06,156.28z M381.93,151.06c-0.5-0.56-0.45-1.41,0.1-1.91l0,0c0.56-0.49,1.41-0.45,1.91,0.11
						l0,0c0.5,0.56,0.45,1.4-0.1,1.91l0,0c-0.26,0.22-0.59,0.34-0.9,0.34l0,0C382.56,151.51,382.19,151.35,381.93,151.06z
						 M75.68,149.98c-0.75-0.01-1.34-0.63-1.33-1.37l0,0c0.02-0.75,0.63-1.34,1.38-1.33l0,0c0.75,0.02,1.34,0.63,1.32,1.38l0,0
						c-0.01,0.74-0.61,1.32-1.35,1.32l0,0C75.69,149.98,75.69,149.98,75.68,149.98z M377.35,145.25L377.35,145.25
						c-0.42-0.61-0.26-1.46,0.36-1.87l0,0c0.61-0.42,1.45-0.26,1.87,0.35l0,0c0.41,0.62,0.26,1.46-0.36,1.88l0,0
						c-0.23,0.15-0.5,0.23-0.76,0.23l0,0C378.03,145.85,377.61,145.64,377.35,145.25z M76.01,142.77c-0.75-0.08-1.29-0.75-1.21-1.48
						l0,0c0.08-0.74,0.74-1.28,1.48-1.21l0,0c0.74,0.08,1.28,0.75,1.2,1.48l0,0c-0.07,0.69-0.66,1.21-1.34,1.21l0,0
						C76.1,142.78,76.05,142.77,76.01,142.77z M373.71,138.75L373.71,138.75c-0.3-0.68,0.01-1.48,0.69-1.78l0,0
						c0.68-0.3,1.49,0.01,1.78,0.69l0,0c0.3,0.68-0.01,1.49-0.69,1.78l0,0c-0.18,0.08-0.36,0.12-0.54,0.12l0,0
						C374.43,139.56,373.94,139.25,373.71,138.75z M76.95,135.61c-0.73-0.14-1.21-0.86-1.05-1.59l0,0l0,0l0,0
						c0.14-0.73,0.86-1.2,1.59-1.05l0,0c0.73,0.15,1.2,0.86,1.05,1.59l0,0c-0.14,0.64-0.69,1.08-1.32,1.08l0,0
						C77.13,135.63,77.04,135.63,76.95,135.61z M187.04,131.75c-0.04-0.75,0.54-1.38,1.29-1.41l0,0c0.75-0.04,1.37,0.54,1.4,1.29
						l0,0c0.04,0.75-0.54,1.38-1.29,1.41l0,0c-0.02,0-0.04,0-0.05,0l0,0C187.67,133.03,187.07,132.47,187.04,131.75z M371.44,131.6
						L371.44,131.6c-0.14-0.73,0.33-1.44,1.06-1.59l0,0c0.73-0.14,1.44,0.33,1.59,1.06l0,0l0,0l0,0c0.14,0.73-0.33,1.44-1.06,1.58
						l0,0c-0.09,0.02-0.18,0.03-0.27,0.03l0,0C372.14,132.68,371.58,132.24,371.44,131.6z M180.99,132.62
						c-0.74-0.12-1.24-0.81-1.12-1.55l0,0c0.11-0.73,0.8-1.24,1.54-1.12l0,0c0.73,0.12,1.24,0.8,1.12,1.54l0,0
						c-0.11,0.67-0.67,1.14-1.33,1.14l0,0C181.12,132.63,181.06,132.63,180.99,132.62z M194.2,130.94
						c-0.19-0.72,0.25-1.46,0.97-1.64l0,0c0.72-0.19,1.46,0.24,1.65,0.97l0,0c0.18,0.72-0.25,1.46-0.97,1.64l0,0
						c-0.12,0.03-0.22,0.04-0.34,0.04l0,0C194.91,131.95,194.37,131.55,194.2,130.94z M173.76,130.86c-0.7-0.23-1.09-0.99-0.86-1.7
						l0,0c0.23-0.71,0.99-1.1,1.7-0.86l0,0c0.71,0.23,1.09,1,0.86,1.7l0,0c-0.19,0.58-0.72,0.94-1.29,0.94l0,0
						C174.05,130.93,173.9,130.9,173.76,130.86z M201.08,128.74c-0.32-0.68-0.02-1.48,0.67-1.79l0,0c0.67-0.32,1.48-0.02,1.78,0.67
						l0,0c0.32,0.67,0.02,1.48-0.67,1.79l0,0c-0.18,0.08-0.37,0.12-0.56,0.12l0,0C201.79,129.53,201.3,129.24,201.08,128.74z
						 M78.64,128.59c-0.71-0.23-1.1-1-0.86-1.7l0,0c0.23-0.71,1-1.1,1.71-0.86l0,0c0.7,0.23,1.09,0.99,0.85,1.7l0,0
						c-0.18,0.58-0.71,0.94-1.28,0.94l0,0C78.92,128.66,78.79,128.63,78.64,128.59z M166.91,128.11c-0.67-0.32-0.96-1.12-0.65-1.8
						l0,0c0.31-0.67,1.12-0.96,1.79-0.65l0,0c0.67,0.31,0.97,1.12,0.65,1.8l0,0c-0.22,0.49-0.71,0.77-1.22,0.77l0,0
						C167.29,128.24,167.09,128.19,166.91,128.11z M207.48,125.42c-0.4-0.62-0.22-1.46,0.4-1.86l0,0c0.63-0.4,1.47-0.22,1.87,0.4
						l0,0c0.41,0.63,0.22,1.47-0.41,1.87l0,0c-0.22,0.14-0.48,0.22-0.73,0.22l0,0C208.18,126.04,207.75,125.83,207.48,125.42z
						 M370.73,124.17c-0.01-0.75,0.59-1.36,1.34-1.36l0,0c0.75-0.01,1.35,0.59,1.36,1.34l0,0c0,0.75-0.6,1.35-1.35,1.36l0,0
						C371.35,125.51,370.73,124.91,370.73,124.17z M160.42,124.7c-0.65-0.37-0.87-1.2-0.49-1.84l0,0c0.37-0.65,1.2-0.87,1.84-0.5
						l0,0c0.65,0.37,0.87,1.2,0.5,1.84l0,0c-0.25,0.43-0.7,0.67-1.17,0.67l0,0C160.86,124.88,160.63,124.82,160.42,124.7z
						 M81.16,121.82c-0.67-0.32-0.96-1.13-0.64-1.8l0,0c0.32-0.67,1.12-0.96,1.8-0.64l0,0c0.67,0.32,0.95,1.12,0.64,1.8l0,0
						c-0.23,0.49-0.72,0.76-1.22,0.76l0,0C81.54,121.95,81.34,121.91,81.16,121.82z M213.39,121.27c-0.48-0.58-0.4-1.43,0.18-1.91
						l0,0c0.58-0.47,1.42-0.4,1.9,0.18l0,0c0.48,0.58,0.4,1.43-0.17,1.9l0,0c-0.26,0.22-0.57,0.31-0.86,0.31l0,0
						C214.04,121.76,213.66,121.59,213.39,121.27z M154.2,120.9L154.2,120.9c-0.63-0.4-0.81-1.23-0.41-1.86l0,0
						c0.4-0.63,1.24-0.81,1.87-0.41l0,0c0.62,0.41,0.81,1.23,0.41,1.86l0,0c-0.26,0.4-0.69,0.62-1.13,0.62l0,0
						C154.68,121.11,154.42,121.05,154.2,120.9z M372.37,118.3c-0.74-0.09-1.26-0.76-1.18-1.49l0,0c0.09-0.75,0.76-1.27,1.5-1.18
						l0,0c0.74,0.08,1.27,0.76,1.18,1.49l0,0c-0.08,0.69-0.67,1.2-1.33,1.2l0,0C372.49,118.31,372.42,118.3,372.37,118.3z
						 M148.14,116.91L148.14,116.91c-0.62-0.41-0.78-1.25-0.37-1.87l0,0c0.41-0.62,1.25-0.78,1.87-0.37l0,0
						c0.62,0.41,0.78,1.25,0.37,1.87l0,0c-0.26,0.39-0.68,0.6-1.12,0.6l0,0C148.64,117.14,148.38,117.07,148.14,116.91z
						 M218.8,116.5c-0.53-0.53-0.53-1.39-0.01-1.92l0,0c0.52-0.52,1.38-0.53,1.91,0l0,0c0.53,0.52,0.53,1.38,0.01,1.91l0,0
						c-0.26,0.26-0.61,0.4-0.96,0.4l0,0C219.41,116.88,219.06,116.76,218.8,116.5z M84.57,115.45c-0.61-0.41-0.77-1.26-0.35-1.87
						l0,0c0.42-0.62,1.26-0.77,1.88-0.35l0,0c0.61,0.42,0.76,1.26,0.34,1.88l0,0c-0.26,0.38-0.68,0.58-1.12,0.58l0,0
						C85.07,115.7,84.81,115.61,84.57,115.45z M142.14,112.95c-0.63-0.4-0.81-1.23-0.41-1.86l0,0c0.41-0.63,1.24-0.82,1.87-0.41l0,0
						c0.62,0.4,0.81,1.23,0.41,1.86l0,0c-0.25,0.4-0.69,0.62-1.13,0.62l0,0C142.62,113.16,142.37,113.1,142.14,112.95z
						 M223.77,111.25c-0.57-0.49-0.62-1.34-0.13-1.9l0,0c0,0,0,0,0-0.01l0,0c0.49-0.56,1.34-0.62,1.91-0.13l0,0
						c0.56,0.49,0.62,1.34,0.13,1.91l0.01-0.01c-0.27,0.31-0.65,0.47-1.03,0.47l0,0C224.34,111.58,224.02,111.48,223.77,111.25z
						 M373.41,111.15c-0.73-0.13-1.22-0.84-1.09-1.57l0,0c0.13-0.74,0.84-1.22,1.57-1.09l0,0c0.74,0.13,1.22,0.83,1.09,1.57l0,0l0,0
						l0,0c-0.12,0.65-0.68,1.11-1.32,1.11l0,0C373.57,111.17,373.49,111.17,373.41,111.15z M88.98,109.75
						c-0.52-0.53-0.51-1.39,0.02-1.91l0,0l0,0l0,0c0.53-0.52,1.39-0.52,1.91,0.01l0,0c0.52,0.53,0.51,1.39-0.01,1.91l0,0
						c-0.27,0.26-0.61,0.39-0.95,0.39l0,0C89.6,110.14,89.25,110.02,88.98,109.75z M136.01,109.29L136.01,109.29
						c-0.65-0.36-0.88-1.19-0.52-1.84l0,0c0.36-0.66,1.18-0.89,1.84-0.53l0,0c0,0,0,0,0,0.01l0,0c0.65,0.36,0.88,1.18,0.52,1.83l0,0
						c-0.24,0.45-0.7,0.7-1.18,0.7l0,0C136.45,109.46,136.22,109.4,136.01,109.29z M129.67,106.09c-0.68-0.31-0.98-1.11-0.67-1.78
						l0,0c0.31-0.68,1.11-0.99,1.78-0.68l0,0c0.68,0.31,0.98,1.11,0.67,1.79l0,0c-0.22,0.5-0.72,0.79-1.23,0.79l0,0
						C130.04,106.2,129.85,106.17,129.67,106.09z M228.43,105.74c-0.58-0.48-0.67-1.32-0.21-1.91l0,0c0.47-0.58,1.32-0.67,1.9-0.2
						l0,0c0.58,0.47,0.67,1.31,0.21,1.9l0,0c-0.27,0.33-0.66,0.5-1.05,0.5l0,0C228.98,106.04,228.68,105.94,228.43,105.74z
						 M94.46,105.05c-0.39-0.64-0.19-1.47,0.45-1.85l0,0c0.64-0.39,1.47-0.18,1.85,0.45l0,0c0.39,0.64,0.19,1.47-0.45,1.85l0,0
						c-0.22,0.13-0.47,0.2-0.7,0.2l0,0C95.16,105.7,94.71,105.47,94.46,105.05z M374.72,104.05c-0.74-0.14-1.22-0.84-1.1-1.57l0,0
						c0.14-0.74,0.84-1.22,1.57-1.1l0,0c0.74,0.13,1.22,0.83,1.1,1.57l0,0c-0.12,0.66-0.68,1.12-1.33,1.12l0,0
						C374.87,104.07,374.8,104.06,374.72,104.05z M123.08,103.54c-0.71-0.23-1.11-0.99-0.88-1.7l0,0c0.22-0.71,0.99-1.1,1.7-0.87
						l0,0l0,0l0,0c0.71,0.22,1.1,0.98,0.87,1.69l0,0c-0.18,0.58-0.71,0.94-1.29,0.94l0,0C123.35,103.6,123.22,103.58,123.08,103.54z
						 M100.9,101.8c-0.22-0.71,0.18-1.47,0.9-1.68l0,0l0,0l0,0c0.71-0.22,1.47,0.19,1.68,0.9l0,0c0.22,0.72-0.19,1.47-0.91,1.68l0,0
						c-0.13,0.04-0.26,0.06-0.39,0.06l0,0C101.61,102.77,101.07,102.39,100.9,101.8z M116.27,101.91c-0.74-0.12-1.24-0.8-1.13-1.54
						l0,0c0.12-0.74,0.8-1.24,1.54-1.12l0,0c0,0,0,0,0-0.01l0,0c0.74,0.12,1.24,0.81,1.13,1.55l0,0c-0.11,0.67-0.67,1.14-1.33,1.14
						l0,0C116.41,101.93,116.34,101.92,116.27,101.91z M107.93,100.26c-0.04-0.75,0.53-1.38,1.28-1.41l0,0
						c0.75-0.05,1.38,0.53,1.42,1.28l0,0c0.04,0.74-0.54,1.38-1.28,1.41l0,0c-0.03,0-0.04,0-0.07,0l0,0
						C108.57,101.53,107.97,100.97,107.93,100.26z M232.93,100.09c-0.58-0.47-0.68-1.31-0.22-1.9l0,0c0.46-0.58,1.3-0.68,1.89-0.22
						l0,0c0.58,0.47,0.68,1.31,0.22,1.9l0,0c-0.27,0.34-0.67,0.51-1.06,0.51l0,0C233.48,100.38,233.18,100.29,232.93,100.09z
						 M375.88,96.92c-0.74-0.08-1.27-0.75-1.19-1.49l0,0c0.09-0.74,0.76-1.27,1.49-1.19l0,0c0.75,0.09,1.28,0.76,1.19,1.5l0,0
						c-0.07,0.68-0.66,1.19-1.33,1.19l0,0C375.99,96.93,375.93,96.93,375.88,96.92z M237.43,94.44c-0.58-0.48-0.67-1.32-0.19-1.9
						l0,0c0.47-0.58,1.32-0.67,1.9-0.19l0,0c0.58,0.47,0.66,1.31,0.19,1.9l0,0c-0.27,0.32-0.66,0.49-1.04,0.49l0,0
						C237.98,94.75,237.68,94.64,237.43,94.44z M375.09,88.4c-0.01-0.75,0.59-1.36,1.33-1.37l0,0c0.75-0.01,1.36,0.59,1.37,1.33l0,0
						c0.01,0.75-0.58,1.36-1.33,1.37l0,0c0,0-0.01,0-0.02,0l0,0C375.7,89.73,375.1,89.13,375.09,88.4z M242.07,88.91
						c-0.56-0.5-0.6-1.35-0.1-1.91l0,0c0.49-0.55,1.35-0.6,1.9-0.1l0,0c0.56,0.49,0.6,1.35,0.11,1.91l0,0
						c-0.27,0.3-0.64,0.44-1.01,0.44l0,0C242.65,89.25,242.32,89.14,242.07,88.91z M247,83.64c-0.52-0.54-0.52-1.39,0.02-1.91l0,0
						c0.52-0.53,1.39-0.52,1.91,0.01l0,0c0.52,0.53,0.51,1.39-0.02,1.91v0.01c-0.26,0.25-0.6,0.38-0.94,0.38l0,0
						C247.61,84.03,247.26,83.9,247,83.64z M374.37,81.49c-0.15-0.74,0.32-1.45,1.04-1.6l0,0c0.73-0.15,1.45,0.32,1.6,1.04l0,0
						c0.15,0.73-0.32,1.45-1.04,1.6l0,0c-0.1,0.02-0.19,0.03-0.28,0.03l0,0C375.06,82.56,374.5,82.12,374.37,81.49z M252.24,78.67
						c-0.49-0.56-0.43-1.41,0.13-1.91l0,0c0.56-0.49,1.41-0.43,1.91,0.13l0,0c0.49,0.56,0.42,1.41-0.13,1.91l0,0
						c-0.25,0.22-0.57,0.32-0.88,0.32l0,0C252.89,79.13,252.51,78.98,252.24,78.67z M372.23,74.91L372.23,74.91
						c-0.31-0.68,0-1.48,0.68-1.78l0,0c0.67-0.31,1.48,0,1.78,0.67l0,0c0.31,0.68,0,1.48-0.68,1.78l0,0
						c-0.18,0.08-0.36,0.13-0.55,0.13l0,0C372.95,75.71,372.45,75.4,372.23,74.91z M257.77,74.03c-0.45-0.58-0.34-1.44,0.25-1.89
						l0,0l0,0l0,0c0.59-0.46,1.43-0.34,1.89,0.24l0,0c0.46,0.59,0.34,1.44-0.24,1.9l0,0c-0.24,0.19-0.54,0.28-0.83,0.28l0,0
						C258.44,74.56,258.04,74.38,257.77,74.03z M263.58,69.73c-0.41-0.62-0.26-1.46,0.36-1.88l0,0l0,0l0,0
						c0.62-0.41,1.46-0.26,1.87,0.36l0,0c0.42,0.62,0.26,1.46-0.35,1.87l0,0c-0.23,0.16-0.5,0.23-0.76,0.23l0,0
						C264.26,70.32,263.84,70.11,263.58,69.73z M368.77,68.88c-0.42-0.61-0.28-1.45,0.32-1.88l0,0c0.61-0.43,1.45-0.29,1.88,0.32
						l0,0c0.43,0.6,0.29,1.45-0.32,1.88l0,0c-0.23,0.16-0.5,0.24-0.77,0.24l0,0C369.45,69.45,369.04,69.25,368.77,68.88z
						 M269.62,65.78c-0.38-0.64-0.17-1.47,0.47-1.85l0,0l0,0l0,0c0.64-0.38,1.47-0.17,1.85,0.47l0,0c0.38,0.64,0.17,1.47-0.47,1.85
						l0,0c-0.22,0.13-0.46,0.19-0.69,0.19l0,0C270.33,66.44,269.88,66.21,269.62,65.78z M364.25,63.56
						c-0.53-0.52-0.53-1.38-0.01-1.91l0,0c0.53-0.53,1.38-0.53,1.91-0.01l0,0c0.53,0.52,0.54,1.38,0.01,1.91l0,0
						c-0.26,0.27-0.61,0.4-0.95,0.4l0,0C364.87,63.95,364.51,63.82,364.25,63.56z M275.9,62.2c-0.34-0.67-0.09-1.48,0.58-1.83l0,0
						c0,0,0,0,0,0.01l0,0c0.66-0.35,1.48-0.09,1.82,0.57l0,0c0.34,0.67,0.09,1.49-0.58,1.83l0,0c-0.2,0.1-0.41,0.15-0.62,0.15l0,0
						C276.61,62.93,276.14,62.66,275.9,62.2z M282.36,58.99c-0.31-0.67,0-1.48,0.68-1.78l0,0l0,0l0,0c0.67-0.3,1.48,0.01,1.78,0.68
						l0,0c0.31,0.68,0,1.48-0.68,1.78l0,0c-0.18,0.08-0.36,0.12-0.55,0.12l0,0C283.08,59.79,282.59,59.49,282.36,58.99z
						 M358.9,59.05L358.9,59.05c-0.6-0.43-0.75-1.28-0.32-1.88l0,0c0.44-0.61,1.28-0.75,1.89-0.31l0,0l0,0l0,0
						c0.6,0.43,0.75,1.28,0.31,1.88l0,0c-0.26,0.37-0.67,0.57-1.1,0.57l0,0C359.41,59.31,359.14,59.22,358.9,59.05z M289.01,56.17
						c-0.26-0.69,0.09-1.48,0.78-1.74l0,0c0.7-0.26,1.48,0.09,1.75,0.79l0,0c0.26,0.69-0.09,1.48-0.79,1.74l0,0
						c-0.15,0.05-0.31,0.08-0.48,0.08l0,0C289.73,57.05,289.22,56.71,289.01,56.17z M352.91,55.43L352.91,55.43
						c-0.67-0.33-0.94-1.15-0.6-1.81l0,0c0.34-0.67,1.15-0.94,1.82-0.6l0,0c0.67,0.33,0.94,1.14,0.59,1.81l0,0
						c-0.23,0.48-0.71,0.75-1.21,0.75l0,0C353.3,55.57,353.1,55.53,352.91,55.43z M295.82,53.76c-0.22-0.71,0.18-1.47,0.89-1.69l0,0
						c0.71-0.22,1.47,0.18,1.69,0.89l0,0c0.22,0.72-0.18,1.48-0.89,1.69l0,0c-0.13,0.05-0.27,0.06-0.41,0.06l0,0
						C296.53,54.72,296,54.34,295.82,53.76z M346.42,52.76c-0.71-0.23-1.1-0.99-0.86-1.7l0,0c0.23-0.71,1-1.1,1.71-0.86l0,0l0,0l0,0
						c0.7,0.23,1.09,1,0.85,1.71l0,0c-0.19,0.57-0.71,0.93-1.28,0.93l0,0C346.7,52.83,346.56,52.8,346.42,52.76z M302.75,51.77
						c-0.17-0.73,0.27-1.46,1-1.63l0,0c0.72-0.18,1.45,0.26,1.63,0.99l0,0c0.17,0.72-0.27,1.45-1,1.63l0,0
						c-0.11,0.03-0.21,0.04-0.32,0.04l0,0C303.46,52.79,302.91,52.38,302.75,51.77z M309.81,50.19c-0.13-0.73,0.35-1.43,1.09-1.57
						l0,0l0,0l0,0c0.74-0.13,1.43,0.36,1.57,1.1l0,0c0.13,0.73-0.36,1.43-1.1,1.57l0,0c-0.07,0.01-0.15,0.02-0.23,0.02l0,0
						C310.48,51.31,309.92,50.85,309.81,50.19z M339.6,50.99c-0.73-0.14-1.21-0.85-1.07-1.58l0,0c0.14-0.73,0.85-1.21,1.58-1.07l0,0
						c0.73,0.14,1.21,0.85,1.07,1.58l0,0c-0.13,0.65-0.69,1.1-1.33,1.1l0,0C339.77,51.02,339.69,51.01,339.6,50.99z M316.93,49.08
						c-0.07-0.74,0.47-1.4,1.21-1.48l0,0c0.75-0.08,1.4,0.46,1.48,1.2l0,0c0.07,0.75-0.47,1.41-1.21,1.49l0,0
						c-0.04,0.01-0.09,0.01-0.14,0.01l0,0C317.6,50.3,317.02,49.78,316.93,49.08z M332.6,50.06L332.6,50.06
						c-0.75-0.06-1.3-0.71-1.24-1.46l0,0c0.05-0.74,0.71-1.3,1.45-1.23l0,0c0.75,0.05,1.3,0.7,1.24,1.45l0,0
						c-0.05,0.7-0.65,1.24-1.35,1.24l0,0C332.67,50.06,332.64,50.06,332.6,50.06z M324.13,48.53c-0.01-0.75,0.59-1.36,1.33-1.38l0,0
						c0.75-0.01,1.36,0.58,1.37,1.32l0,0c0.02,0.75-0.58,1.37-1.32,1.38l0,0c0,0-0.01,0-0.02,0l0,0
						C324.75,49.85,324.15,49.26,324.13,48.53z"/>
				</g>
				<g>
					<path class="st1" d="M374.09,402.12c-0.18,0-0.35-0.04-0.51-0.1c-0.16-0.07-0.31-0.17-0.44-0.3c-0.25-0.26-0.4-0.59-0.4-0.95
						c0-0.36,0.14-0.7,0.4-0.95c0.5-0.5,1.4-0.5,1.91,0c0.25,0.25,0.4,0.59,0.4,0.95c0,0.36-0.14,0.69-0.4,0.95
						C374.79,401.98,374.45,402.12,374.09,402.12z"/>
				</g>
			</g>
			<path class="st2" d="M76.04,418.09h334.74c-1.79-9.45-3.42-18.9-0.58-27.81c5.29-16.58,24.42-25.86,29.49-42.51
				c4.52-14.84-3.55-30.43-12.51-43.09c-8.96-12.66-19.53-25.48-20.76-40.94c-1.06-13.21,4.99-25.91,11.89-37.22
				c6.9-11.31,14.91-22.26,18.51-35.01c3.6-12.75,1.68-28.2-8.66-36.48c-12.3-9.86-30.17-5.86-45.5-2.15
				c-15.32,3.71-34.22,5.54-44.26-6.62c-6.43-7.78-6.84-18.81-11.04-27.99c-8.38-18.31-31.56-26.43-51.29-22.37
				c-19.73,4.06-36.16,17.79-49.09,33.23s-23.22,32.95-36.21,48.35c-11,13.03-26.96,25.34-43.54,21.35
				c-14.86-3.58-24.85-19.31-39.97-21.6c-10.82-1.64-21.8,4.46-28.29,13.27c-6.49,8.82-9.12,19.92-10.1,30.82
				c-2.54,28.33,5.45,57.47,22.07,80.55c8.77,12.17,20.51,26.52,14.46,40.25c-7.81,17.7-38.49,16.09-44.51,34.48
				c-2.35,7.17,0.21,14.99,3.4,21.82C67.53,405.35,71.49,411.94,76.04,418.09z"/>
			<g>
				<linearGradient id="SVGID_1_" gradientUnits="userSpaceOnUse" x1="342.999" y1="272.9044" x2="398.9557" y2="272.9044">
					<stop  offset="0" style="stop-color:#484BA3"/>
					<stop  offset="1" style="stop-color:#6468CC"/>
				</linearGradient>
				<path class="st3" d="M387.86,247.3c-14.82-14.27-11.48-39.35-22.65-56.62c-2-3.1-4.56-5.98-7.89-7.56
					c-3.34-1.58-7.56-1.65-10.53,0.55c-3.56,2.64-4.42,7.77-3.37,12.08c1.05,4.31,3.61,8.06,5.84,11.88
					c7.98,13.67,12.2,29.9,9.7,45.53c-2.66,16.67-12.62,31.67-14.14,48.48c-1.05,11.61,2.07,23.33,7.31,33.75
					c5.24,10.42,12.51,19.67,20.17,28.46c-3.57-9.34-2.47-20.32-0.26-30.06c2.22-9.75,6.58-18.89,11.59-27.54
					c5.49-9.47,11.89-18.67,14.6-29.28C400.94,266.36,395.74,254.89,387.86,247.3z"/>
				<path class="st4" d="M387.86,247.3c-14.82-14.27-11.48-39.35-22.65-56.62c-2-3.1-4.56-5.98-7.89-7.56
					c-3.34-1.58-7.56-1.65-10.53,0.55c-3.56,2.64-4.42,7.77-3.37,12.08c1.05,4.31,3.61,8.06,5.84,11.88
					c7.98,13.67,12.2,29.9,9.7,45.53c-2.66,16.67-12.62,31.67-14.14,48.48c-1.05,11.61,2.07,23.33,7.31,33.75
					c5.24,10.42,12.51,19.67,20.17,28.46c-3.57-9.34-2.47-20.32-0.26-30.06c2.22-9.75,6.58-18.89,11.59-27.54
					c5.49-9.47,11.89-18.67,14.6-29.28C400.94,266.36,395.74,254.89,387.86,247.3z"/>
				<path class="st4" d="M377.8,229.83c-0.73,12.46-6.77,24.73-13.5,35.57c-6.9,11.1-14.8,22.01-19.22,34.15
					c-0.09,0.69-0.19,1.39-0.25,2.09c-1.05,11.61,2.07,23.33,7.31,33.75c5.24,10.42,12.51,19.67,20.17,28.46
					c-3.57-9.34-2.47-20.32-0.26-30.06c2.22-9.75,6.58-18.89,11.59-27.54c5.49-9.47,11.89-18.67,14.6-29.28s-2.49-22.07-10.37-29.66
					C382.85,242.47,379.92,236.41,377.8,229.83z"/>
				<g>
					<linearGradient id="SVGID_2_" gradientUnits="userSpaceOnUse" x1="381.1721" y1="260.322" x2="447.467" y2="260.322">
						<stop  offset="0" style="stop-color:#484BA3"/>
						<stop  offset="1" style="stop-color:#6468CC"/>
					</linearGradient>
					<path class="st5" d="M384.95,350.78c-3.85-23.96-4.76-48.4-2.71-72.58c1.14-13.47,3.41-27.43,11.23-38.47
						c5.77-8.13,14.28-14.27,18.82-23.15c7.99-15.66,1.71-35.96,10.41-51.23c3.13-5.5,9.24-10.23,15.37-8.67
						c6.29,1.6,9.34,8.95,9.41,15.44c0.18,18.56-15.6,33.64-18.77,51.93c-3.16,18.27,6.65,36.13,8.62,54.57
						c1.69,15.81-2.51,31.83-9.49,46.11c-6.99,14.29-16.67,27.06-26.56,39.52C393.49,363,386.19,358.56,384.95,350.78z"/>
					<path class="st4" d="M384.95,350.78c-3.85-23.96-4.76-48.4-2.71-72.58c1.14-13.47,3.41-27.43,11.23-38.47
						c5.77-8.13,14.28-14.27,18.82-23.15c7.99-15.66,1.71-35.96,10.41-51.23c3.13-5.5,9.24-10.23,15.37-8.67
						c6.29,1.6,9.34,8.95,9.41,15.44c0.18,18.56-15.6,33.64-18.77,51.93c-3.16,18.27,6.65,36.13,8.62,54.57
						c1.69,15.81-2.51,31.83-9.49,46.11c-6.99,14.29-16.67,27.06-26.56,39.52C393.49,363,386.19,358.56,384.95,350.78z"/>
					<path class="st4" d="M411.53,217.95c-4.67,8.16-12.6,14.07-18.07,21.78c-7.82,11.03-10.09,24.99-11.23,38.47
						c-1.67,19.77-1.36,39.7,0.9,59.41c3.26,8.51,7.15,16.78,11.62,24.74c2.04,0.91,4.26,1.55,6.52,1.91
						c2.86-3.61,5.71-7.24,8.48-10.93c9.28-16.7,16.63-34.42,18.63-53.3C431.35,271.94,422.25,244.32,411.53,217.95z"/>
					<linearGradient id="SVGID_3_" gradientUnits="userSpaceOnUse" x1="386.4815" y1="369.3952" x2="386.4815" y2="115.7359">
						<stop  offset="0" style="stop-color:#484BA3"/>
						<stop  offset="1" style="stop-color:#6468CC"/>
					</linearGradient>
					<path class="st6" d="M373.64,363.06c-15.69-6.26-23.45-24.89-22.47-41.75c0.98-16.86,8.77-32.46,16.19-47.63
						c7.42-15.17,14.78-31.09,14.8-47.98c0.01-19-9.29-36.84-11.19-55.75c-1.47-14.6,1.64-29.62,8.79-42.43
						c2.84-5.09,6.79-10.18,12.47-11.48c8.27-1.9,16.33,5.54,18.35,13.78c2.02,8.24-0.27,16.85-2.41,25.06
						c-3.81,14.57-7.21,29.57-5.81,44.56c1.62,17.31,9.49,33.32,14.26,50.04c11.48,40.28,3.9,85.57-20.08,119.92
						C388.65,367.52,381.17,366.07,373.64,363.06z"/>
					<path class="st7" d="M417.9,269.98c-0.91-0.41-1.97-0.02-2.38,0.89c-3.8,8.34-9.29,15.88-16.01,22.1
						c0.4-1.62,0.78-3.24,1.1-4.88c3.71-19.07,0.96-38.35-2.21-54.7c-0.26-1.36-0.54-2.72-0.81-4.08c2.56-4.09,4.88-8.39,6.87-12.79
						c0.41-0.91,0.01-1.97-0.9-2.38c-0.91-0.41-1.97-0.01-2.38,0.9c-1.4,3.09-2.97,6.13-4.67,9.08c-0.41-1.92-0.82-3.84-1.22-5.73
						c-2.68-12.5-5.45-25.42-6.53-38.31c-0.62-7.37-0.62-14.32-0.02-20.84c5.46-4.88,10.77-10.06,15.78-15.4
						c0.68-0.73,0.64-1.86-0.08-2.54c-0.72-0.68-1.86-0.64-2.54,0.08c-3.99,4.26-8.18,8.41-12.49,12.39
						c1.43-9.5,4.24-18.01,8.44-25.42c0.49-0.86,0.19-1.96-0.68-2.45c-0.87-0.49-1.96-0.19-2.45,0.68
						c-7.37,13.01-10.68,29.13-9.89,47.97c-2.84-3.56-5.98-6.88-9.39-9.9c-0.74-0.66-1.88-0.59-2.54,0.15
						c-0.66,0.74-0.59,1.88,0.15,2.54c4.59,4.09,8.7,8.73,12.19,13.79c0.01,0.01,0.01,0.01,0.02,0.02c1.15,12.85,3.87,25.63,6.53,38
						c1.05,4.89,2.13,9.95,3.1,14.93c2.02,10.4,3.85,22.01,3.91,33.92c-3.73-7.51-8.45-14.46-14.12-20.7
						c-0.67-0.74-1.8-0.79-2.54-0.12c-0.74,0.67-0.79,1.81-0.12,2.54c7.01,7.72,12.53,16.54,16.42,26.22
						c0.03,0.07,0.08,0.13,0.12,0.2c-0.26,3.75-0.72,7.52-1.45,11.27c-0.65,3.36-1.53,6.7-2.52,10.01
						c-0.08,0.18-0.14,0.36-0.16,0.55c-1.79,5.84-3.97,11.59-6.1,17.22c-1.18,3.1-2.38,6.3-3.52,9.49
						c-6.19-11.64-11.28-23.89-15.1-36.51c-0.29-0.95-1.29-1.49-2.24-1.2c-0.95,0.29-1.49,1.29-1.2,2.24
						c4.21,13.9,9.91,27.38,16.95,40.09c-3.48,10.56-6.6,23.56-4.62,36.5c0.14,0.89,0.9,1.53,1.78,1.53c0.09,0,0.18-0.01,0.27-0.02
						c0.98-0.15,1.66-1.07,1.51-2.05c-2.11-13.77,1.98-27.88,5.78-38.63c1.2-3.39,2.5-6.83,3.77-10.16
						c2.14-5.63,4.32-11.39,6.12-17.27c8.99-7.12,16.24-16.38,21.01-26.82C419.21,271.46,418.81,270.39,417.9,269.98z"/>
				</g>
				<path class="st8" d="M408.3,362.13c-7.79,0.43-15.74,1.21-23.6,1.57c-7.86-0.36-15.81-1.14-23.6-1.57
					c-1.53,19.4,3.26,39.25,13.49,55.81h4.19h11.84h4.19C405.03,401.38,409.83,381.53,408.3,362.13z"/>
				<path class="st7" d="M408.3,362.13c-7.79,0.43-15.74,1.21-23.6,1.57c-7.86-0.36-15.81-1.14-23.6-1.57
					c-0.47,5.95-0.34,11.95,0.35,17.88l47.1-12.65C408.52,365.62,408.44,363.87,408.3,362.13z"/>
				<rect x="356.93" y="356.71" class="st8" width="55.54" height="9.6"/>
				<rect x="356.93" y="356.71" class="st9" width="55.54" height="9.6"/>
			</g>
			<g>
				<path class="st1" d="M347.9,418.09H153.06c-9.95,0-18.02-8.07-18.02-18.02V137.49c0-9.95,8.07-18.02,18.02-18.02H347.9
					c9.95,0,18.02,8.07,18.02,18.02v262.58C365.93,410.02,357.86,418.09,347.9,418.09z"/>
				<g class="st7">
					<path class="st10" d="M365.93,190.26L141.95,414.24c3.06,2.41,6.92,3.85,11.12,3.85h30.26l182.6-182.6V190.26z"/>
					<path class="st10" d="M135.04,398.96l230.89-230.89v-30.58c0-9.95-8.07-18.02-18.02-18.02h-23.84L135.04,308.49V398.96z"/>
				</g>
				<path class="st10" d="M347.9,123.97h-47.61v5.19c0,3.35-2.72,6.07-6.07,6.07h-87.47c-3.35,0-6.07-2.72-6.07-6.07v-5.19h-47.61
					c-7.46,0-13.52,6.07-13.52,13.52v262.58c0,7.46,6.07,13.52,13.52,13.52H347.9c7.46,0,13.52-6.07,13.52-13.52V137.49
					C361.43,130.03,355.36,123.97,347.9,123.97z"/>
				<path class="st4" d="M252.74,127.65c0,1.25-1.01,2.26-2.26,2.26c-1.25,0-2.26-1.01-2.26-2.26c0-1.25,1.01-2.26,2.26-2.26
					C251.73,125.39,252.74,126.4,252.74,127.65z"/>
				<path class="st4" d="M230.07,127.65c0,1.25-1.01,2.26-2.26,2.26c-1.25,0-2.26-1.01-2.26-2.26c0-1.25,1.01-2.26,2.26-2.26
					C229.06,125.39,230.07,126.4,230.07,127.65z"/>
				<path class="st4" d="M275.41,127.65c0,1.25-1.01,2.26-2.26,2.26c-1.25,0-2.26-1.01-2.26-2.26c0-1.25,1.01-2.26,2.26-2.26
					C274.4,125.39,275.41,126.4,275.41,127.65z"/>
				<g>
					<g class="st7">
						<path d="M178.4,199.75h-15.67c-6.41,0-11.63-5.22-11.63-11.63v-15.67c0-6.41,5.22-11.63,11.63-11.63h15.67
							c6.41,0,11.63,5.22,11.63,11.63v15.67C190.03,194.53,184.81,199.75,178.4,199.75z M162.73,168.92c-1.95,0-3.53,1.58-3.53,3.53
							v15.67c0,1.95,1.58,3.53,3.53,3.53h15.67c1.95,0,3.53-1.58,3.53-3.53v-15.67c0-1.95-1.58-3.53-3.53-3.53H162.73z"/>
					</g>
					<g>
						<path class="st7" d="M339.93,169.88H202.51c-1.96,0-3.55-1.59-3.55-3.55l0,0c0-1.96,1.59-3.55,3.55-3.55h137.42
							c1.96,0,3.55,1.59,3.55,3.55l0,0C343.48,168.29,341.89,169.88,339.93,169.88z"/>
						<path class="st7" d="M339.61,184.09H202.19c-1.96,0-3.55-1.59-3.55-3.55v0c0-1.96,1.59-3.55,3.55-3.55h137.42
							c1.96,0,3.55,1.59,3.55,3.55v0C343.16,182.5,341.57,184.09,339.61,184.09z"/>
						<path class="st7" d="M269.12,198.29h-66.62c-1.96,0-3.55-1.59-3.55-3.55l0,0c0-1.96,1.59-3.55,3.55-3.55h66.62
							c1.96,0,3.55,1.59,3.55,3.55l0,0C272.68,196.7,271.09,198.29,269.12,198.29z"/>
					</g>
				</g>
				<g>
					<g class="st7">
						<path d="M178.4,257.29h-15.67c-6.41,0-11.63-5.22-11.63-11.63v-15.67c0-6.41,5.22-11.63,11.63-11.63h15.67
							c6.41,0,11.63,5.22,11.63,11.63v15.67C190.03,252.07,184.81,257.29,178.4,257.29z M162.73,226.46c-1.95,0-3.53,1.58-3.53,3.53
							v15.67c0,1.95,1.58,3.53,3.53,3.53h15.67c1.95,0,3.53-1.58,3.53-3.53v-15.67c0-1.95-1.58-3.53-3.53-3.53H162.73z"/>
					</g>
					<g>
						<path class="st7" d="M339.93,227.42H202.51c-1.96,0-3.55-1.59-3.55-3.55l0,0c0-1.96,1.59-3.55,3.55-3.55h137.42
							c1.96,0,3.55,1.59,3.55,3.55l0,0C343.48,225.83,341.89,227.42,339.93,227.42z"/>
						<path class="st7" d="M339.61,241.63H202.19c-1.96,0-3.55-1.59-3.55-3.55l0,0c0-1.96,1.59-3.55,3.55-3.55h137.42
							c1.96,0,3.55,1.59,3.55,3.55l0,0C343.16,240.04,341.57,241.63,339.61,241.63z"/>
						<path class="st7" d="M269.12,255.83h-66.62c-1.96,0-3.55-1.59-3.55-3.55v0c0-1.96,1.59-3.55,3.55-3.55h66.62
							c1.96,0,3.55,1.59,3.55,3.55v0C272.68,254.24,271.09,255.83,269.12,255.83z"/>
					</g>
				</g>
				<g>
					<g class="st7">
						<path d="M178.4,314.83h-15.67c-6.41,0-11.63-5.22-11.63-11.63v-15.67c0-6.41,5.22-11.63,11.63-11.63h15.67
							c6.41,0,11.63,5.22,11.63,11.63v15.67C190.03,309.61,184.81,314.83,178.4,314.83z M162.73,284c-1.95,0-3.53,1.58-3.53,3.53
							v15.67c0,1.95,1.58,3.53,3.53,3.53h15.67c1.95,0,3.53-1.58,3.53-3.53v-15.67c0-1.95-1.58-3.53-3.53-3.53H162.73z"/>
					</g>
					<g>
						<path class="st7" d="M339.93,284.96H202.51c-1.96,0-3.55-1.59-3.55-3.55l0,0c0-1.96,1.59-3.55,3.55-3.55h137.42
							c1.96,0,3.55,1.59,3.55,3.55l0,0C343.48,283.37,341.89,284.96,339.93,284.96z"/>
						<path class="st7" d="M339.61,299.17H202.19c-1.96,0-3.55-1.59-3.55-3.55l0,0c0-1.96,1.59-3.55,3.55-3.55h137.42
							c1.96,0,3.55,1.59,3.55,3.55l0,0C343.16,297.58,341.57,299.17,339.61,299.17z"/>
						<path class="st7" d="M269.12,313.37h-66.62c-1.96,0-3.55-1.59-3.55-3.55l0,0c0-1.96,1.59-3.55,3.55-3.55h66.62
							c1.96,0,3.55,1.59,3.55,3.55l0,0C272.68,311.78,271.09,313.37,269.12,313.37z"/>
					</g>
				</g>
				<g>
					<g class="st7">
						<path d="M178.4,372.37h-15.67c-6.41,0-11.63-5.22-11.63-11.63v-15.67c0-6.41,5.22-11.63,11.63-11.63h15.67
							c6.41,0,11.63,5.22,11.63,11.63v15.67C190.03,367.15,184.81,372.37,178.4,372.37z M162.73,341.54c-1.95,0-3.53,1.58-3.53,3.53
							v15.67c0,1.95,1.58,3.53,3.53,3.53h15.67c1.95,0,3.53-1.58,3.53-3.53v-15.67c0-1.95-1.58-3.53-3.53-3.53H162.73z"/>
					</g>
					<g>
						<path class="st7" d="M339.93,342.5H202.51c-1.96,0-3.55-1.59-3.55-3.55l0,0c0-1.96,1.59-3.55,3.55-3.55h137.42
							c1.96,0,3.55,1.59,3.55,3.55l0,0C343.48,340.91,341.89,342.5,339.93,342.5z"/>
						<path class="st7" d="M339.61,356.71H202.19c-1.96,0-3.55-1.59-3.55-3.55l0,0c0-1.96,1.59-3.55,3.55-3.55h137.42
							c1.96,0,3.55,1.59,3.55,3.55l0,0C343.16,355.12,341.57,356.71,339.61,356.71z"/>
						<path class="st7" d="M269.12,370.91h-66.62c-1.96,0-3.55-1.59-3.55-3.55v0c0-1.96,1.59-3.55,3.55-3.55h66.62
							c1.96,0,3.55,1.59,3.55,3.55v0C272.68,369.32,271.09,370.91,269.12,370.91z"/>
					</g>
				</g>
				<g class="st11">
					<circle class="st12" cx="154.79" cy="132.1" r="2.19"/>
					<circle class="st12" cx="162.68" cy="132.1" r="2.19"/>
					<circle class="st12" cx="170.56" cy="132.1" r="2.19"/>
					<circle class="st12" cx="178.45" cy="132.1" r="2.19"/>
					<circle class="st12" cx="186.33" cy="132.1" r="2.19"/>
				</g>
				<g class="st11">
					<rect x="307.8" y="128.37" class="st12" width="12.81" height="7.08"/>

						<rect x="320.61" y="130" transform="matrix(-1 -1.224647e-16 1.224647e-16 -1 643.0031 263.8097)" class="st12" width="1.79" height="3.82"/>
				</g>
				<text transform="matrix(1 0 0 1 329.0105 134.2885)" class="st13 st14 st15">100%</text>
				<path class="st16" d="M198.36,209.13c-8.98,8.16-18.31,17.36-26.49,26.31c-2.69-3.31-4.93-7.03-6.96-10.78
					c-3.59,0.9-7.18,1.79-10.77,2.69c5.39,6.73,11.37,13.13,18.22,18.36C181.05,233.96,189.67,220.88,198.36,209.13z"/>
				<path class="st16" d="M198.36,266.67c-8.98,8.16-18.31,17.36-26.49,26.31c-2.69-3.31-4.93-7.03-6.96-10.78
					c-3.59,0.9-7.18,1.79-10.77,2.69c5.39,6.73,11.37,13.13,18.22,18.36C181.05,291.5,189.67,278.42,198.36,266.67z"/>
				<path class="st16" d="M198.36,324.21c-8.98,8.16-18.31,17.36-26.49,26.31c-2.69-3.31-4.93-7.03-6.96-10.78
					c-3.59,0.9-7.18,1.79-10.77,2.69c5.39,6.73,11.37,13.13,18.22,18.36C181.05,349.04,189.67,335.96,198.36,324.21z"/>
			</g>
			<path class="st16" d="M188.92,132.1c-6.12,10.47-12.25,22.05-17.37,33.05c-3.56-2.35-6.81-5.22-9.88-8.19
				c-3.15,1.93-6.31,3.86-9.46,5.79c7.16,4.8,14.79,9.11,22.89,12.04C179.86,160.98,184.16,145.91,188.92,132.1z"/>
			<g>
				<polygon class="st17" points="78.4,404.51 82.52,394.7 90.34,399.25 83.84,407.68 				"/>
				<polygon class="st17" points="125.46,411.08 123.53,398.74 136.21,398.74 134.28,411.08 				"/>
				<path class="st17" d="M80.11,290.08c1.21,3.4,2.42,7.16,1.12,10.53c0.95,1.79-0.3,4.61-1.93,5.82
					c-1.63,1.21-4.13,1.04-5.58-0.39c-1.12-1.1-1.54-2.73-1.71-4.29c-0.44-4.2,0.77-8.55,3.3-11.93c-0.04-1.06,0.52-2.25,1.58-2.31
					C77.97,287.44,79.76,289.07,80.11,290.08z"/>
				<path class="st16" d="M114.48,204.22c-1.57-2.26-1.42-5.39-0.22-7.86c1.19-2.48,3.27-4.41,5.42-6.12
					c2.15-1.71,4.44-3.29,6.29-5.32c3.36-3.71,5.04-8.88,4.49-13.86c-0.27-2.47-1.17-5.02-3.15-6.52
					c-3.08-2.34-7.75-1.24-10.62,1.36c-2.87,2.6-4.41,6.32-6.01,9.85c-1.6,3.53-3.49,7.16-6.75,9.26c-2,1.29-4.38,1.9-6.39,3.19
					c-4.25,2.72-6.17,8.59-4.35,13.3c-1.81,1.77-2.2,4.77-1.22,7.1c0.98,2.33,3.04,4.08,5.29,5.22c4.3,2.18,9.56,2.35,14,0.46
					c-0.89-2.25-0.42-5.56,1.42-7.13C113.55,206.4,114.56,205.36,114.48,204.22z"/>
				<path class="st17" d="M158.75,174.88c-1.29-2.01-0.73-5,1.22-6.4c-0.48-2.33,1.21-5.35,3.57-5.67c1.51-0.2,3.21,0.58,3.67,2.03
					c0.26,0.85,0.08,1.77-0.16,2.62c-0.99,3.57-2.91,6.88-5.51,9.52C160.66,176.43,159.32,175.75,158.75,174.88z"/>
				<path class="st8" d="M81.18,293.51c2.17-16.55,10.1-32.28,22.1-43.88c3.12-3.01,6.51-5.76,9.35-9.04s5.14-7.23,5.54-11.55
					c0.2-2.16-0.11-4.43-1.3-6.25c-1.19-1.81-3.36-3.06-5.51-2.76c-6.65,0.94-12.25,5.87-16.57,11.01
					c-13.56,16.11-21.02,37.25-20.58,58.3C76.47,291.54,78.16,292.67,81.18,293.51z"/>
				<path class="st4" d="M81.18,293.51c2.17-16.55,10.1-32.28,22.1-43.88c3.12-3.01,6.51-5.76,9.35-9.04s5.14-7.23,5.54-11.55
					c0.2-2.16-0.11-4.43-1.3-6.25c-1.19-1.81-3.36-3.06-5.51-2.76c-6.65,0.94-12.25,5.87-16.57,11.01
					c-13.56,16.11-21.02,37.25-20.58,58.3C76.47,291.54,78.16,292.67,81.18,293.51z"/>
				<path class="st18" d="M123.47,321.17c-2.15,28.29-13.82,55.78-32.67,76.99c-2.92-0.91-5.58-2.95-7.71-5.14
					c3.21-17.48,15.88-32.7,17.28-50.42c0.74-9.44-1.73-18.8-2.91-28.19c-1.19-9.39-3.94-23.51,1.59-31.2
					c8.25,4.32,18.31,14.62,23.1,22.6c1.59,2.64,2.95,5.48,3.48,8.52C126.15,317.38,123.71,318.1,123.47,321.17z"/>
				<path class="st9" d="M123.47,321.17c-2.15,28.29-13.82,55.78-32.67,76.99c-2.92-0.91-5.58-2.95-7.71-5.14
					c3.21-17.48,15.88-32.7,17.28-50.42c0.74-9.44-1.73-18.8-2.91-28.19c-1.19-9.39-3.94-23.51,1.59-31.2
					c8.25,4.32,18.31,14.62,23.1,22.6c1.59,2.64,2.95,5.48,3.48,8.52C126.15,317.38,123.71,318.1,123.47,321.17z"/>
				<path class="st4" d="M125.63,314.34c-0.53-3.04-1.89-5.87-3.48-8.52c-4.69-7.81-14.4-17.81-22.54-22.29
					c-0.38,0.17-0.75,0.35-1.12,0.54c-4.43,7.27-2.51,19.38-1.3,28.32c0.26,0.47,0.52,0.94,0.79,1.4
					c4.54,7.78,10.36,14.8,14.42,22.85c2.55,5.04,4.36,10.7,4.56,16.3c3.47-10.27,5.68-20.95,6.5-31.76
					C123.71,318.1,126.15,317.38,125.63,314.34z"/>
				<path class="st18" d="M128.19,283.12c9.51,38.66,12.43,78.93,8.6,118.56h-12.97c-3.61-14.5-6.87-30.53-6.73-45.48
					c0.09-9.25,1.61-18.69-0.74-27.64c-2.09-7.97-7.07-14.81-11.19-21.94c-4.13-7.13-7.57-15.3-6.11-23.41
					C108.69,280.9,118.55,280.79,128.19,283.12z"/>
				<path class="st4" d="M115.73,281.48c4.27,1.98,9.09,3.94,13.56,6.34c-0.36-1.57-0.72-3.13-1.1-4.69
					c-9.64-2.34-19.5-2.22-29.14,0.1c-1.46,8.11,1.98,16.28,6.11,23.41c4.13,7.13,9.1,13.97,11.19,21.94
					c2.35,8.95,0.83,18.39,0.74,27.64c-0.14,14.94,3.12,30.97,6.73,45.48h6.05C134.55,361.25,129.69,319.72,115.73,281.48z"/>
				<path class="st4" d="M129.8,290.12c-0.17-0.77-0.33-1.54-0.51-2.31c-0.15-0.67-0.31-1.33-0.47-2c-3.03-0.92-5.4-2.35-9.05-3.23
					c-2.16-0.52-4.38-0.95-6.59-1.15c-2.87,0.04-5.74,0.27-8.6,0.7c-2.63,0.78-5.04,2.16-7.1,3.96c-0.12,0.29-0.25,0.57-0.35,0.87
					c-0.01,0.02-0.02,0.05-0.03,0.07c-0.17,0.5-0.33,1-0.47,1.53c-0.01,0.04-0.02,0.08-0.03,0.12c-0.13,0.52-0.25,1.05-0.35,1.6
					c-0.01,0.03-0.01,0.06-0.01,0.08c-0.31,1.69-0.46,3.47-0.51,5.3c0,0.04,0,0.08,0,0.12c-0.01,0.58-0.01,1.17-0.01,1.76
					c0,0.05,0,0.11,0,0.16c0.01,0.59,0.03,1.18,0.06,1.78c0,0.04,0,0.07,0.01,0.11c0.06,1.23,0.15,2.46,0.27,3.68
					c0,0.03,0.01,0.07,0.01,0.1c0.06,0.58,0.12,1.17,0.18,1.74c0.01,0.07,0.02,0.15,0.02,0.22c0.06,0.56,0.13,1.11,0.2,1.66
					c0.01,0.09,0.02,0.17,0.03,0.26c0.07,0.54,0.14,1.07,0.21,1.6c0.01,0.1,0.03,0.2,0.04,0.3c0.04,0.32,0.09,0.64,0.13,0.95
					C109.85,307.95,121.9,300.62,129.8,290.12z"/>
				<path class="st8" d="M93.59,298.15c11.07,3.22,27.18-5.9,38.01-9.85c-0.86-11.45-3.45-23.44-4.31-34.89
					c-0.94-12.4-2.19-25.64-10.01-35.31c-3.17-3.92-10.42-1.67-14.23,1.64c-3.81,3.31-5.91,8.15-7.46,12.95
					C89.49,251.46,88.3,279.13,93.59,298.15z"/>
				<path class="st4" d="M127.29,253.4c-0.82-10.92-1.9-22.49-7.48-31.7c-2.35,0.59-4.63,1.61-6.73,2.81
					c-4.29,2.46-7.86,6.4-12.24,8.68c7.52,8.41,16.54,15.45,26.5,20.75C127.32,253.76,127.3,253.58,127.29,253.4z"/>
				<path class="st17" d="M108.13,203.68c-0.9,5.09-1.4,10.25-1.49,15.42c2.53,0.69,5.25,1.64,7.82,1.13
					c0.76-5.24,0.99-10.7,0.74-15.99C112.69,203.44,110.74,203.38,108.13,203.68z"/>
				<path class="st4" d="M107.01,212.33c2.42,1.73,5.09,3.11,7.92,4.04c0.35-3.7,0.45-7.46,0.31-11.16
					c-0.29-0.43-0.61-0.84-0.99-1.2c-0.03-0.02-0.06-0.04-0.08-0.07c-2.04-0.51-3.8-0.52-6.04-0.27
					C107.62,206.54,107.26,209.43,107.01,212.33z"/>
				<path class="st17" d="M108.36,193.66c5.74,3.11,10.27,8.38,12.47,14.53c-1.28,2.41-3.6,4.2-6.21,5
					c-3.81,1.18-8.21,0.59-11.36-1.85c-3.16-2.44-4.84-6.77-3.83-10.63C100.43,196.86,104.85,191.76,108.36,193.66z"/>
				<path class="st8" d="M163.33,175.3c-3.1,11.86-6.86,23.63-12.74,34.38c-5.87,10.75-13.98,20.5-24.41,26.93
					c-3.25,2-6.78,3.69-10.56,4.22s-7.86-0.22-10.81-2.65c-2.94-2.43-6.46-7.9-4.25-11.02c2.76-3.9,7.67-5.48,12.12-7.25
					c20.75-8.23,37.65-25.65,45.24-46.64L163.33,175.3z"/>
				<path class="st16" d="M114.27,195.58c0.09,0.55-0.13,1.11-0.48,1.54s-0.82,0.74-1.29,1.03c-2.55,1.53-5.49,2.42-8.46,2.54
					c1.03,1.41,1.24,3.45,0.81,5.15c0.95,0.76,1.66,1.74,2.61,2.5c-0.82-0.51-2.08-0.84-2.98-1.18c-0.54-0.2-1.21-0.36-1.65,0.02
					c-0.33,0.28-0.39,0.79-0.25,1.19c0.14,0.41,0.44,0.74,0.76,1.03c0.95,0.87,2.12,1.49,3.37,1.78c0.38,1.17,0.25,2.53,0.07,3.75
					c-3.45-0.84-7.67-2.46-9.48-5.52c-1.22-2.06-1.25-4.61-1.05-6.99c0.28-3.43,0.99-6.96,3.06-9.7c2.08-2.74,5.83-4.45,9.06-3.27
					C110.89,190.39,113.82,192.91,114.27,195.58z"/>
				<g>
					<path class="st18" d="M136.21,404.63h-12.68c-1.23,0-2.22-0.99-2.22-2.22v-1.45c0-1.23,0.99-2.22,2.22-2.22h12.68
						c1.23,0,2.22,0.99,2.22,2.22v1.45C138.43,403.64,137.43,404.63,136.21,404.63z"/>
					<path class="st18" d="M136.21,404.63h-12.68c-1.23,0-2.22-0.99-2.22-2.22v-1.45c0-1.23,0.99-2.22,2.22-2.22h12.68
						c1.23,0,2.22,0.99,2.22,2.22v1.45C138.43,403.64,137.43,404.63,136.21,404.63z"/>
				</g>
				<g>
					<path class="st18" d="M91.11,401.56l-10.91-6.46c-1.05-0.62-1.4-1.99-0.78-3.04l0.74-1.25c0.62-1.05,1.99-1.4,3.04-0.78
						l10.91,6.46c1.05,0.62,1.4,1.99,0.78,3.04l-0.74,1.25C93.53,401.83,92.17,402.18,91.11,401.56z"/>
					<path class="st18" d="M91.11,401.56l-10.91-6.46c-1.05-0.62-1.4-1.99-0.78-3.04l0.74-1.25c0.62-1.05,1.99-1.4,3.04-0.78
						l10.91,6.46c1.05,0.62,1.4,1.99,0.78,3.04l-0.74,1.25C93.53,401.83,92.17,402.18,91.11,401.56z"/>
				</g>
				<polygon class="st18" points="125.46,411.08 121.31,418.09 147.48,418.09 134.28,411.08 				"/>
				<polygon class="st18" points="87.03,412.57 83.84,407.68 78.4,404.51 71.79,407.59 84.39,414.93 85.6,415.81 93.35,416.59
					"/>
			</g>
			<path class="st4" d="M292.42,407.68h-83.87c-1.53,0-2.76-1.24-2.76-2.76l0,0c0-1.53,1.24-2.76,2.76-2.76h83.87
				c1.53,0,2.76,1.24,2.76,2.76l0,0C295.18,406.44,293.95,407.68,292.42,407.68z"/>
		</g>
		<g class="st4">
			<circle cx="430.25" cy="123.15" r="3.68"/>
			<path d="M208.62,78.87c0,1.74-1.41,3.16-3.16,3.16s-3.16-1.41-3.16-3.16c0-1.74,1.41-3.16,3.16-3.16S208.62,77.12,208.62,78.87z"
				/>
			<path d="M111.95,66c0,1.13-0.92,2.05-2.05,2.05c-1.13,0-2.05-0.92-2.05-2.05c0-1.13,0.92-2.05,2.05-2.05
				C111.03,63.95,111.95,64.87,111.95,66z"/>
			<path d="M109.68,137.68c0,1.23-1,2.23-2.23,2.23c-1.23,0-2.23-1-2.23-2.23s1-2.23,2.23-2.23
				C108.68,135.44,109.68,136.44,109.68,137.68z"/>
			<path d="M57.84,184.66c0,2.42-1.96,4.37-4.37,4.37s-4.37-1.96-4.37-4.37s1.96-4.37,4.37-4.37S57.84,182.24,57.84,184.66z"/>
			<path d="M321.5,78.72c0,1.26-1.02,2.29-2.29,2.29s-2.29-1.02-2.29-2.29s1.02-2.29,2.29-2.29S321.5,77.46,321.5,78.72z"/>
			<path d="M394.73,80.3L394.73,80.3c0.57,1.77,1.96,3.16,3.73,3.73l0,0l0,0c-1.77,0.57-3.16,1.96-3.73,3.73l0,0l0,0
				c-0.57-1.77-1.96-3.16-3.73-3.73l0,0l0,0C392.77,83.46,394.16,82.07,394.73,80.3L394.73,80.3z"/>
			<path d="M445.24,382.68L445.24,382.68c0.57,1.77,1.96,3.16,3.73,3.73l0,0l0,0c-1.77,0.57-3.16,1.96-3.73,3.73l0,0l0,0
				c-0.57-1.77-1.96-3.16-3.73-3.73l0,0l0,0C443.28,385.84,444.67,384.45,445.24,382.68L445.24,382.68z"/>
			<path d="M456.83,210.55L456.83,210.55c0.57,1.77,1.96,3.16,3.73,3.73l0,0l0,0c-1.77,0.57-3.16,1.96-3.73,3.73l0,0l0,0
				c-0.57-1.77-1.96-3.16-3.73-3.73l0,0l0,0C454.87,213.71,456.26,212.32,456.83,210.55L456.83,210.55z"/>
			<path d="M351.09,100.34L351.09,100.34c0.57,1.77,1.96,3.16,3.73,3.73l0,0l0,0c-1.77,0.57-3.16,1.96-3.73,3.73l0,0l0,0
				c-0.57-1.77-1.96-3.16-3.73-3.73h0h0C349.13,103.5,350.52,102.11,351.09,100.34L351.09,100.34z"/>
			<path d="M252.74,47.57L252.74,47.57c0.57,1.77,1.96,3.16,3.73,3.73l0,0l0,0c-1.77,0.57-3.16,1.96-3.73,3.73l0,0l0,0
				c-0.57-1.77-1.96-3.16-3.73-3.73l0,0l0,0C250.78,50.74,252.17,49.35,252.74,47.57L252.74,47.57z"/>
			<path d="M57.84,85.52L57.84,85.52c0.57,1.77,1.96,3.16,3.73,3.73l0,0l0,0c-1.77,0.57-3.16,1.96-3.73,3.73l0,0l0,0
				c-0.57-1.77-1.96-3.16-3.73-3.73h0h0C55.88,88.68,57.26,87.29,57.84,85.52L57.84,85.52z"/>
			<path d="M162.44,75.4L162.44,75.4c0.57,1.77,1.96,3.16,3.73,3.73l0,0l0,0c-1.77,0.57-3.16,1.96-3.73,3.73l0,0l0,0
				c-0.57-1.77-1.96-3.16-3.73-3.73l0,0l0,0C160.48,78.56,161.87,77.17,162.44,75.4L162.44,75.4z"/>
			<path d="M52.82,261.64L52.82,261.64c0.57,1.77,1.96,3.16,3.73,3.73l0,0l0,0c-1.77,0.57-3.16,1.96-3.73,3.73l0,0l0,0
				c-0.57-1.77-1.96-3.16-3.73-3.73l0,0l0,0C50.86,264.8,52.25,263.41,52.82,261.64L52.82,261.64z"/>
		</g>
	</g>
</g>
<g id="DESIGNED_BY_FREEPIK" class="st11">
	<g class="st19">
		<g id="XMLID_1_">
			<g id="XMLID_20_">
				<path id="XMLID_28_" class="st20" d="M260.1,465.46c-0.43,0.44-0.8,0.93-1.11,1.45l-0.47-0.24c-0.07-0.3-0.35-0.5-0.66-0.47
					c-0.33,0.04-0.57,0.34-0.53,0.67s0.34,0.57,0.67,0.53c0.07-0.01,0.13-0.03,0.18-0.05l0.45,0.23c-0.25,0.55-0.43,1.14-0.54,1.74
					l0.75,0.13c0.23-1.31,0.85-2.51,1.79-3.47L260.1,465.46z"/>
				<path id="XMLID_27_" class="st20" d="M265.59,463.16c-0.17,0-0.34,0.01-0.51,0.02l-0.07-0.63c0.19-0.15,0.3-0.39,0.27-0.64
					c-0.05-0.39-0.4-0.67-0.8-0.63s-0.67,0.4-0.63,0.8c0.03,0.25,0.19,0.46,0.4,0.56l0.07,0.62c-0.71,0.12-1.4,0.33-2.06,0.65
					l0.33,0.68c0.93-0.45,1.94-0.67,3-0.67c0.5,0,0.99,0.05,1.48,0.16l0.16-0.74C266.69,463.22,266.14,463.16,265.59,463.16z"/>
				<path id="XMLID_26_" class="st20" d="M272.19,465.71c0.33-0.04,0.57-0.34,0.53-0.67c-0.04-0.33-0.34-0.57-0.67-0.53
					c-0.31,0.04-0.54,0.3-0.53,0.61l-0.42,0.36c-0.42-0.43-0.89-0.81-1.41-1.14l-0.4,0.64c1.13,0.71,2.02,1.73,2.56,2.93l0.69-0.31
					c-0.25-0.55-0.57-1.07-0.94-1.55l0.4-0.35C272.06,465.71,272.13,465.72,272.19,465.71z"/>
				<path id="XMLID_25_" class="st20" d="M265.04,473.37c-0.39,0.02-0.77,0.03-1.16,0.03c-0.88,0-1.73-0.06-2.48-0.18
					c-0.39-0.06-0.85-0.15-1.27-0.29c1.05,1.86,3.07,3.13,5.39,3.13c2.86,0,5.26-1.92,5.95-4.5c-0.68,0.45-1.51,0.83-2.46,1.12
					C267.84,473.05,266.46,473.29,265.04,473.37z"/>
				<path id="XMLID_21_" class="st20" d="M265.59,464.68c-3.35,0-6.08,2.67-6.08,5.94c0,0.43,0.05,0.85,0.14,1.26
					c0.67,0.48,2.71,0.89,5.35,0.73c2.88-0.17,5.3-0.96,6.67-2.16c-0.01-0.19-0.02-0.39-0.05-0.58
					C271.24,466.91,268.65,464.68,265.59,464.68z M263.43,471.19c-1.02,0-1.85-0.83-1.85-1.85c0-1.02,0.83-1.85,1.85-1.85
					c1.02,0,1.85,0.83,1.85,1.85C265.28,470.36,264.45,471.19,263.43,471.19z M268.17,470.29c-0.75,0-1.36-0.61-1.36-1.36
					s0.61-1.36,1.36-1.36c0.75,0,1.36,0.61,1.36,1.36S268.92,470.29,268.17,470.29z"/>
			</g>
			<path id="XMLID_18_" class="st20" d="M281.6,466.55c-0.29-0.12-0.81-0.31-1.38-0.24c-0.55,0.07-0.84,0.34-0.84,1.01v0.87h2.23
				v1.72h-2.23v5.45h-1.93v-5.45h-1.34v-1.72h1.34v-0.89c0-1.68,0.9-2.78,2.57-2.78c0.64,0,1.16,0.12,1.59,0.31L281.6,466.55z"/>
			<path id="XMLID_16_" class="st20" d="M286.3,469.88c-0.18-0.03-0.36-0.05-0.53-0.05c-0.9,0-1.51,0.55-1.51,1.61v3.91h-1.93v-7.17
				h1.87v0.78c0.45-0.67,1.14-0.98,2.02-0.98c0.41,0,0.85,0.13,1.09,0.34L286.3,469.88z"/>
			<path id="XMLID_13_" class="st20" d="M293.97,471.76c0,0.22-0.01,0.49-0.04,0.65h-5.08c0.21,1.04,0.93,1.49,1.84,1.49
				c0.62,0,1.3-0.25,1.81-0.69l1.13,1.24c-0.81,0.75-1.85,1.09-3.06,1.09c-2.2,0-3.72-1.5-3.72-3.75c0-2.26,1.48-3.8,3.63-3.8
				C292.54,467.99,293.96,469.52,293.97,471.76z M288.85,471.09h3.18c-0.18-0.92-0.73-1.44-1.56-1.44
				C289.55,469.65,289.02,470.2,288.85,471.09z"/>
			<path id="XMLID_10_" class="st20" d="M301.62,471.76c0,0.22-0.02,0.49-0.04,0.65h-5.08c0.21,1.04,0.93,1.49,1.84,1.49
				c0.62,0,1.3-0.25,1.81-0.69l1.13,1.24c-0.81,0.75-1.85,1.09-3.06,1.09c-2.2,0-3.72-1.5-3.72-3.75c0-2.26,1.48-3.8,3.63-3.8
				C300.2,467.99,301.61,469.52,301.62,471.76z M296.5,471.09h3.18c-0.18-0.92-0.73-1.44-1.56-1.44
				C297.21,469.65,296.67,470.2,296.5,471.09z"/>
			<path id="XMLID_7_" class="st20" d="M309.96,471.76c0,2.15-1.5,3.77-3.47,3.77c-0.96,0-1.64-0.38-2.11-0.93v3.71h-1.92v-10.13
				h1.89v0.79c0.47-0.58,1.15-0.98,2.14-0.98C308.47,467.99,309.96,469.61,309.96,471.76z M304.29,471.76
				c0,1.13,0.75,1.98,1.84,1.98c1.14,0,1.85-0.88,1.85-1.98c0-1.1-0.71-1.98-1.85-1.98C305.03,469.79,304.29,470.63,304.29,471.76z"
				/>
			<path id="XMLID_4_" class="st20" d="M313.07,465.83c0,0.7-0.54,1.23-1.24,1.23c-0.7,0-1.23-0.53-1.23-1.23
				c0-0.7,0.53-1.24,1.23-1.24C312.53,464.59,313.07,465.14,313.07,465.83z M312.81,475.35h-1.93v-7.17h1.93V475.35z"/>
			<path id="XMLID_2_" class="st20" d="M316.03,470.73l2.7-2.55h2.37l-3.48,3.38l3.5,3.8h-2.38l-2.72-2.9v2.9h-1.93v-10.66h1.93
				V470.73z"/>
		</g>
		<g>
			<path class="st20" d="M184.41,475.29v-1.05c-0.53,0.72-1.39,1.23-2.39,1.23c-1.85,0-3.15-1.41-3.15-3.71
				c0-2.26,1.29-3.72,3.15-3.72c0.95,0,1.82,0.47,2.39,1.25v-3.76h1.1v9.77H184.41z M184.41,473.37v-3.21
				c-0.4-0.62-1.24-1.14-2.12-1.14c-1.42,0-2.27,1.17-2.27,2.74c0,1.57,0.85,2.72,2.27,2.72
				C183.17,474.48,184.02,473.98,184.41,473.37z"/>
			<path class="st20" d="M186.93,471.74c0-2.05,1.46-3.71,3.49-3.71c2.14,0,3.4,1.67,3.4,3.79v0.28h-5.73
				c0.09,1.33,1.03,2.45,2.55,2.45c0.81,0,1.63-0.32,2.18-0.89l0.53,0.72c-0.7,0.7-1.65,1.08-2.81,1.08
				C188.44,475.46,186.93,473.96,186.93,471.74z M190.4,468.95c-1.51,0-2.26,1.27-2.31,2.36h4.64
				C192.72,470.25,192.01,468.95,190.4,468.95z"/>
			<path class="st20" d="M194.61,474.35l0.57-0.79c0.47,0.54,1.36,1.01,2.33,1.01c1.08,0,1.67-0.51,1.67-1.22
				c0-1.71-4.38-0.66-4.38-3.28c0-1.1,0.95-2.04,2.64-2.04c1.2,0,2.05,0.45,2.62,1.03l-0.51,0.76c-0.42-0.51-1.2-0.89-2.11-0.89
				c-0.97,0-1.57,0.48-1.57,1.11c0,1.55,4.38,0.53,4.38,3.28c0,1.19-0.95,2.14-2.78,2.14C196.31,475.46,195.32,475.11,194.61,474.35
				z"/>
			<path class="st20" d="M201.48,466.47c0-0.41,0.34-0.75,0.73-0.75c0.41,0,0.75,0.34,0.75,0.75c0,0.41-0.34,0.73-0.75,0.73
				C201.81,467.2,201.48,466.88,201.48,466.47z M201.67,475.29v-7.07h1.1v7.07H201.67z"/>
			<path class="st20" d="M204.58,477.1l0.56-0.82c0.59,0.7,1.29,0.97,2.3,0.97c1.17,0,2.27-0.57,2.27-2.12v-1.01
				c-0.51,0.72-1.38,1.26-2.37,1.26c-1.85,0-3.15-1.38-3.15-3.66c0-2.27,1.29-3.68,3.15-3.68c0.95,0,1.8,0.47,2.37,1.25v-1.07h1.1
				v6.87c0,2.34-1.64,3.08-3.37,3.08C206.24,478.16,205.42,477.92,204.58,477.1z M209.71,473.25v-3.09
				c-0.38-0.62-1.23-1.14-2.11-1.14c-1.42,0-2.27,1.13-2.27,2.7c0,1.55,0.85,2.7,2.27,2.7
				C208.48,474.41,209.33,473.87,209.71,473.25z"/>
			<path class="st20" d="M217.41,475.29v-4.63c0-1.24-0.63-1.64-1.58-1.64c-0.86,0-1.68,0.53-2.09,1.1v5.17h-1.1v-7.07h1.1v1.03
				c0.5-0.59,1.46-1.2,2.52-1.2c1.48,0,2.26,0.75,2.26,2.29v4.97H217.41z"/>
			<path class="st20" d="M219.93,471.74c0-2.05,1.46-3.71,3.49-3.71c2.14,0,3.4,1.67,3.4,3.79v0.28h-5.73
				c0.09,1.33,1.03,2.45,2.55,2.45c0.81,0,1.63-0.32,2.18-0.89l0.53,0.72c-0.7,0.7-1.66,1.08-2.81,1.08
				C221.44,475.46,219.93,473.96,219.93,471.74z M223.4,468.95c-1.51,0-2.26,1.27-2.31,2.36h4.64
				C225.72,470.25,225.02,468.95,223.4,468.95z"/>
			<path class="st20" d="M233.35,475.29v-1.05c-0.53,0.72-1.39,1.23-2.39,1.23c-1.85,0-3.15-1.41-3.15-3.71
				c0-2.26,1.29-3.72,3.15-3.72c0.95,0,1.82,0.47,2.39,1.25v-3.76h1.1v9.77H233.35z M233.35,473.37v-3.21
				c-0.4-0.62-1.25-1.14-2.12-1.14c-1.42,0-2.27,1.17-2.27,2.74c0,1.57,0.85,2.72,2.27,2.72
				C232.1,474.48,232.95,473.98,233.35,473.37z"/>
			<path class="st20" d="M239.69,475.29v-9.77h1.1v3.76c0.57-0.78,1.42-1.25,2.39-1.25c1.85,0,3.15,1.46,3.15,3.72
				c0,2.3-1.3,3.71-3.15,3.71c-1,0-1.86-0.51-2.39-1.23v1.05H239.69z M242.9,474.48c1.44,0,2.29-1.16,2.29-2.72
				c0-1.57-0.85-2.74-2.29-2.74c-0.86,0-1.73,0.53-2.11,1.14v3.21C241.17,473.98,242.04,474.48,242.9,474.48z"/>
			<path class="st20" d="M247.53,477.06c0.16,0.07,0.42,0.12,0.6,0.12c0.48,0,0.81-0.16,1.05-0.75l0.47-1.07l-2.96-7.15h1.19
				l2.36,5.8l2.34-5.8h1.2l-3.54,8.51c-0.42,1.03-1.14,1.42-2.08,1.44c-0.23,0-0.6-0.04-0.81-0.1L247.53,477.06z"/>
		</g>
	</g>
</g>
</svg>
