<?xml version="1.0" encoding="utf-8"?>
<svg version="1.1" xmlns="http://www.w3.org/2000/svg" xmlns:xlink="http://www.w3.org/1999/xlink" x="0px" y="0px"
	 viewBox="0 0 750 500" style="enable-background:new 0 0 750 500;" xml:space="preserve">
<style type="text/css">
	.st0{fill:#FFFFFF;}
	.st1{fill:#71BF9D;}
	.st2{fill:none;stroke:#E57E55;stroke-width:0.9971;stroke-linecap:round;stroke-linejoin:round;stroke-miterlimit:10;}
	.st3{fill:none;stroke:#E57E55;stroke-width:0.7983;stroke-linecap:round;stroke-linejoin:round;stroke-miterlimit:10;}
	.st4{fill:#FFD25A;}
	.st5{fill:#FFBE57;}
	.st6{fill:none;stroke:#FFFFFF;stroke-width:0.9735;stroke-miterlimit:10;}
	.st7{fill:#764582;}
	.st8{fill:#9D68AA;}
	.st9{fill:#FFFFFF;stroke:#764582;stroke-width:0.9736;stroke-miterlimit:10;}
	.st10{fill-rule:evenodd;clip-rule:evenodd;fill:#764582;}
	.st11{fill-rule:evenodd;clip-rule:evenodd;fill:#FFFFFF;stroke:#764582;stroke-width:1.0244;stroke-miterlimit:10;}
	.st12{fill:none;stroke:#764582;stroke-width:1.265;stroke-miterlimit:10;}
	.st13{fill:#FFFFFF;stroke:#764582;stroke-width:1.0244;stroke-linecap:round;stroke-linejoin:round;stroke-miterlimit:10;}
	.st14{opacity:0.7;fill:#A1ABAD;}
	.st15{fill:#DD4026;}
	.st16{fill:#E2E2E2;}
	.st17{fill:#FD6141;}
	.st18{fill:none;}
	.st19{fill:none;stroke:#EFE9DA;stroke-width:1.1573;stroke-linecap:round;stroke-miterlimit:10;}
	.st20{fill:none;stroke:#EFE9DA;stroke-width:1.1573;stroke-miterlimit:10;}
	.st21{fill:#3C8460;}
	.st22{opacity:0.2;fill:#764582;}
	.st23{fill:#E4BCE8;}
	.st24{fill:none;stroke:#FFFFFF;stroke-width:0.9734;stroke-miterlimit:10;}
	.st25{fill:#FDEEFF;}
	.st26{display:none;}
	.st27{display:inline;fill:#A1ABAD;}
	.st28{font-family:'Arial-Black';}
	.st29{font-size:21px;}
	.st30{fill:#A1ABAD;}
	.st31{fill:#FFCC5A;stroke:#764582;stroke-width:0.9736;stroke-miterlimit:10;}
	.st32{display:none;fill:#764582;}
	.st33{display:none;fill-rule:evenodd;clip-rule:evenodd;fill:#9D68AA;}
	.st34{fill:#FFB072;}
	.st35{fill:#3E2344;}
	.st36{fill:#FFDCAE;}
	.st37{fill:#FFFFFF;stroke:#FD6141;stroke-width:1.8544;stroke-linecap:round;stroke-linejoin:round;stroke-miterlimit:10;}
	.st38{fill:#FF8976;}
	.st39{fill:#F99441;}
	.st40{clip-path:url(#SVGID_2_);fill:#FFAEC1;}
	.st41{clip-path:url(#SVGID_2_);fill:#FFB072;}
	.st42{fill:#552F5E;}
	.st43{fill:#F29353;}
	.st44{clip-path:url(#SVGID_4_);fill:#FFAEC1;}
	.st45{clip-path:url(#SVGID_4_);fill:#FFB072;}
	.st46{fill:none;stroke:#FFFFFF;stroke-width:0.4986;stroke-miterlimit:10;}
	.st47{fill-rule:evenodd;clip-rule:evenodd;fill:#FFB072;}
	.st48{fill:#E57E55;}
	.st49{opacity:0.5;fill:#E57E55;}
	.st50{opacity:0.7;fill-rule:evenodd;clip-rule:evenodd;fill:#A1ABAD;}
	.st51{fill:none;stroke:#FFFFFF;stroke-width:0.4986;stroke-linecap:round;stroke-linejoin:round;stroke-miterlimit:10;}
	.st52{fill-rule:evenodd;clip-rule:evenodd;fill:#FD6141;}
	.st53{opacity:0.5;}
	.st54{fill-rule:evenodd;clip-rule:evenodd;fill:#DD4026;}
	.st55{clip-path:url(#SVGID_6_);fill:#DD4026;}
	.st56{fill:#F7B614;}
	.st57{opacity:0.5;fill:#FFBE57;}
	.st58{clip-path:url(#SVGID_8_);fill:#DD4026;}
	.st59{fill:none;stroke:#FFFFFF;stroke-width:0.4986;stroke-linecap:round;stroke-miterlimit:10;}
	.st60{opacity:0.3;fill:#764582;}
	.st61{display:inline;}
	.st62{fill:#112129;}
</style>
<g id="BACKGROUND">
	<rect class="st0" width="750" height="500"/>
</g>
<g id="OBJECTS">
	<g>
		<g>
			<path class="st1" d="M596.25,335.31c-1.85-9.52-19.54-11.1-19.54-11.1s10.34-17.24,3.01-25.05s-24.18,10.53-24.18,10.53
				s-5.56-11.59-13.84,0c0,0-13.79-10.53-25.71-5.12c-8.52,3.87-7.26,14.08-5.85,19.6H275.98c-0.2-0.41-0.44-0.81-0.75-1.18
				c-7.91-9.55-30.85-4.63-30.85-4.63s9.58-23.66-6.22-30.83c-15.8-7.17-34.07,6.78-34.07,6.78c-10.96-15.35-18.33,0-18.33,0
				s-22.32-24.3-32.04-13.95c-9.71,10.35,3.98,33.19,3.98,33.19s-23.44,2.1-25.89,14.71c-2.45,12.61,40.56,25.71,40.56,25.71
				l393.26,0.75C565.63,354.71,598.09,344.83,596.25,335.31z"/>
			<g>
				<path class="st2" d="M194.01,350.25c-7.07-20.03-17.81-38.76-31.53-54.97"/>
				<path class="st2" d="M194,350.97c0.55-15.81,2.19-31.58,4.92-47.17"/>
				<path class="st2" d="M189.76,339.99c-10.2-5.06-21.15-8.6-32.38-10.46"/>
				<path class="st2" d="M179.34,318.53c2.06-4.78,3.46-9.84,4.17-15"/>
			</g>
			<g>
				<path class="st3" d="M547.86,352.01c5.66-16.04,14.26-31.03,25.25-44.01"/>
				<path class="st3" d="M547.87,352.58c-0.44-12.66-1.76-25.29-3.94-37.76"/>
				<path class="st3" d="M551.27,343.79c8.16-4.05,16.93-6.88,25.92-8.37"/>
				<path class="st3" d="M559.61,326.61c-1.65-3.83-2.77-7.88-3.34-12.01"/>
			</g>
			<g>
				<g>
					<g>
						<path class="st0" d="M173.98,285.94c0.2,0.04,0.34,0.15,0.49,0.25c0.13,0.12,0.27,0.24,0.35,0.42c0.1,0.22,0,0.47-0.22,0.57
							c-0.09,0.04-0.18,0.05-0.27,0.03c-0.2-0.04-0.34-0.15-0.49-0.25c-0.13-0.12-0.27-0.24-0.35-0.42
							c-0.1-0.21-0.01-0.47,0.21-0.58C173.8,285.93,173.89,285.92,173.98,285.94z"/>
					</g>
					<g>
						<path class="st0" d="M175.58,287.23c0.2,0.05,0.34,0.16,0.49,0.26c0.13,0.13,0.26,0.25,0.34,0.43
							c0.09,0.22-0.01,0.47-0.23,0.57c-0.09,0.04-0.18,0.05-0.27,0.03c-0.2-0.05-0.34-0.16-0.48-0.26
							c-0.13-0.12-0.26-0.24-0.34-0.43c-0.09-0.21,0-0.47,0.22-0.57C175.4,287.22,175.49,287.21,175.58,287.23z"/>
					</g>
					<g>
						<path class="st0" d="M177.15,288.56c0.2,0.05,0.34,0.17,0.48,0.27c0.13,0.13,0.26,0.25,0.33,0.44
							c0.09,0.22-0.03,0.47-0.24,0.56c-0.09,0.04-0.19,0.04-0.27,0.02c-0.19-0.05-0.33-0.16-0.47-0.27
							c-0.13-0.13-0.25-0.25-0.33-0.44c-0.09-0.22,0.02-0.47,0.24-0.56C176.96,288.54,177.06,288.54,177.15,288.56z"/>
					</g>
					<g>
						<path class="st0" d="M179.85,291.01c0.19,0.06,0.33,0.18,0.47,0.29c0.12,0.13,0.25,0.26,0.31,0.45
							c0.08,0.22-0.04,0.47-0.27,0.55c-0.09,0.03-0.19,0.04-0.27,0.01c-0.19-0.06-0.32-0.18-0.46-0.29
							c-0.12-0.13-0.25-0.26-0.31-0.45c-0.08-0.22,0.04-0.47,0.26-0.55C179.67,290.99,179.76,290.99,179.85,291.01z"/>
					</g>
					<g>
						<path class="st0" d="M181.72,292.82c0.14,0.01,0.22,0.08,0.31,0.15c0.07,0.09,0.14,0.17,0.15,0.31
							c0.02,0.27-0.18,0.52-0.45,0.55c-0.03,0-0.07,0-0.1,0c-0.14-0.01-0.22-0.09-0.31-0.15c-0.07-0.09-0.14-0.17-0.15-0.31
							c-0.02-0.27,0.18-0.52,0.45-0.55C181.65,292.81,181.68,292.81,181.72,292.82z"/>
					</g>
					<g>
						<path class="st0" d="M183.24,294.4c0.14,0.02,0.22,0.09,0.31,0.16c0.07,0.09,0.14,0.17,0.15,0.31
							c0.02,0.28-0.2,0.51-0.47,0.53c-0.03,0-0.07,0-0.1,0c-0.14-0.02-0.22-0.09-0.3-0.16c-0.06-0.09-0.13-0.17-0.14-0.31
							c-0.02-0.27,0.19-0.51,0.46-0.54C183.18,294.39,183.21,294.39,183.24,294.4z"/>
					</g>
				</g>
				<g>
					<g>
						<path class="st0" d="M156.09,280.6c1.35-0.86,2.96-1.17,4.52-1.18c1.59,0.04,3.12,0.47,4.54,1.04
							c1.42,0.6,2.77,1.33,4.06,2.14c1.29,0.81,2.52,1.71,3.71,2.65c0.16,0.13,0.19,0.37,0.05,0.54c-0.13,0.16-0.36,0.2-0.52,0.08
							c-1.22-0.87-2.47-1.7-3.74-2.46c-1.27-0.77-2.58-1.47-3.95-2.02c-1.35-0.56-2.77-0.97-4.18-1.02c-1.43-0.01-2.88,0.21-4.1,0.9
							c-0.17,0.09-0.41,0.02-0.52-0.16C155.85,280.94,155.91,280.71,156.09,280.6z"/>
					</g>
					<g>
						<path class="st0" d="M155.64,281.77c-0.05,0.16-0.17,0.24-0.25,0.36c-0.1,0.1-0.2,0.2-0.37,0.24
							c-0.23,0.06-0.49-0.06-0.57-0.29c-0.02-0.07-0.03-0.15-0.01-0.23c0.04-0.18,0.15-0.31,0.25-0.44c0.11-0.12,0.26-0.2,0.44-0.24
							c0.26-0.05,0.48,0.13,0.52,0.37C155.66,281.63,155.66,281.7,155.64,281.77z"/>
					</g>
					<g>
						<path class="st0" d="M154.54,282.98c-0.01,0.17-0.08,0.29-0.15,0.42c-0.1,0.11-0.16,0.24-0.31,0.32
							c-0.2,0.12-0.48,0.06-0.62-0.15c-0.04-0.07-0.06-0.14-0.07-0.22c-0.01-0.18,0.05-0.34,0.14-0.47c0.1-0.13,0.2-0.26,0.36-0.34
							c0.23-0.11,0.48,0,0.59,0.23C154.53,282.83,154.55,282.91,154.54,282.98z"/>
					</g>
					<g>
						<path class="st0" d="M153.74,284.43c-0.06,0.3-0.15,0.58-0.24,0.86l-0.22,0.86c-0.14,0.58-0.27,1.16-0.43,1.75
							c-0.06,0.2-0.27,0.32-0.48,0.27c-0.18-0.04-0.29-0.19-0.29-0.36c-0.02-0.64,0.1-1.26,0.23-1.89l0.29-0.92
							c0.12-0.3,0.27-0.59,0.42-0.87c0.1-0.19,0.37-0.24,0.54-0.12C153.72,284.1,153.77,284.27,153.74,284.43z"/>
					</g>
					<g>
						<path class="st0" d="M152.73,289.42c0.09,0.09,0.09,0.18,0.1,0.27c-0.02,0.09-0.02,0.18-0.12,0.27
							c-0.22,0.2-0.56,0.2-0.77-0.01l-0.01-0.01c-0.09-0.1-0.09-0.19-0.1-0.28c0.02-0.09,0.03-0.19,0.12-0.28
							c0.21-0.2,0.56-0.19,0.76,0.02L152.73,289.42z"/>
					</g>
					<g>
						<path class="st0" d="M152.74,291.24c0.09,0.09,0.1,0.18,0.12,0.27c-0.01,0.09-0.01,0.18-0.1,0.27
							c-0.2,0.22-0.54,0.24-0.76,0.05l-0.01-0.01c-0.09-0.09-0.1-0.18-0.12-0.27c0.01-0.09,0.01-0.19,0.1-0.28
							c0.2-0.22,0.54-0.23,0.76-0.03L152.74,291.24z"/>
					</g>
				</g>
			</g>
			<g>
				<g>
					<g>
						<path class="st0" d="M579.17,310.77c0.05,0.21,0.01,0.4-0.02,0.59c-0.05,0.19-0.11,0.37-0.24,0.54
							c-0.16,0.19-0.43,0.22-0.61,0.06c-0.08-0.07-0.12-0.15-0.14-0.24c-0.05-0.21,0-0.39,0.03-0.58c0.05-0.18,0.1-0.37,0.23-0.53
							c0.15-0.19,0.42-0.23,0.61-0.08C579.1,310.59,579.15,310.68,579.17,310.77z"/>
					</g>
					<g>
						<path class="st0" d="M578.66,312.92c0.04,0.21-0.01,0.4-0.04,0.59c-0.06,0.18-0.12,0.37-0.26,0.53
							c-0.16,0.19-0.44,0.2-0.61,0.04c-0.07-0.07-0.12-0.16-0.13-0.25c-0.04-0.21,0.01-0.39,0.05-0.58
							c0.06-0.18,0.12-0.36,0.25-0.52c0.16-0.19,0.43-0.21,0.61-0.05C578.59,312.74,578.64,312.83,578.66,312.92z"/>
					</g>
					<g>
						<path class="st0" d="M578.05,315.04c0.03,0.21-0.02,0.4-0.06,0.59c-0.07,0.18-0.14,0.36-0.28,0.52
							c-0.17,0.18-0.45,0.19-0.62,0.02c-0.07-0.07-0.11-0.16-0.12-0.25c-0.03-0.21,0.03-0.39,0.07-0.58
							c0.07-0.18,0.13-0.36,0.27-0.52c0.17-0.18,0.44-0.2,0.62-0.03C578,314.86,578.04,314.95,578.05,315.04z"/>
					</g>
					<g>
						<path class="st0" d="M576.82,318.75c0.02,0.21-0.04,0.4-0.1,0.58c-0.08,0.18-0.15,0.36-0.31,0.5
							c-0.18,0.17-0.45,0.17-0.62-0.01c-0.07-0.07-0.1-0.17-0.11-0.26c-0.02-0.21,0.04-0.39,0.1-0.58c0.08-0.18,0.15-0.35,0.3-0.5
							c0.18-0.17,0.45-0.17,0.62,0C576.77,318.56,576.81,318.66,576.82,318.75z"/>
					</g>
					<g>
						<path class="st0" d="M575.84,321.35c0.04,0.14,0,0.25-0.03,0.37c-0.05,0.1-0.1,0.21-0.23,0.28c-0.25,0.14-0.55,0.05-0.68-0.2
							c-0.02-0.03-0.03-0.06-0.04-0.09c-0.04-0.14,0-0.25,0.03-0.36c0.05-0.1,0.1-0.21,0.23-0.28c0.24-0.14,0.55-0.06,0.68,0.19
							C575.82,321.28,575.83,321.32,575.84,321.35z"/>
					</g>
					<g>
						<path class="st0" d="M574.93,323.52c0.04,0.14,0,0.25-0.04,0.37c-0.06,0.1-0.11,0.21-0.24,0.28
							c-0.25,0.14-0.55,0.03-0.68-0.22c-0.01-0.03-0.03-0.06-0.03-0.09c-0.04-0.14,0-0.25,0.04-0.36c0.06-0.1,0.11-0.2,0.24-0.27
							c0.25-0.14,0.55-0.04,0.68,0.21C574.9,323.45,574.92,323.48,574.93,323.52z"/>
					</g>
				</g>
				<g>
					<g>
						<path class="st0" d="M568.06,301.63c1.4-0.84,2.87-1.6,4.49-2.04c1.58-0.44,3.46-0.56,5.04,0.37
							c0.79,0.48,1.36,1.25,1.67,2.06c0.31,0.82,0.45,1.66,0.52,2.5c0.08,1.67-0.12,3.31-0.44,4.91c-0.05,0.22-0.26,0.36-0.47,0.32
							c-0.2-0.04-0.33-0.24-0.3-0.45c0.24-1.57,0.37-3.16,0.26-4.71c-0.12-1.51-0.56-3.09-1.77-3.78c-1.2-0.73-2.81-0.71-4.28-0.31
							c-1.5,0.37-2.94,1.05-4.34,1.8c-0.19,0.11-0.43,0.04-0.54-0.15C567.81,301.98,567.88,301.75,568.06,301.63z"/>
					</g>
					<g>
						<path class="st0" d="M567.45,302.8c-0.09,0.16-0.22,0.25-0.35,0.35c-0.14,0.07-0.28,0.16-0.46,0.17
							c-0.25,0.02-0.47-0.17-0.48-0.42c0-0.08,0.02-0.16,0.05-0.23c0.09-0.17,0.22-0.27,0.35-0.36c0.15-0.08,0.29-0.16,0.48-0.17
							c0.26-0.01,0.46,0.18,0.47,0.43C567.51,302.66,567.49,302.74,567.45,302.8z"/>
					</g>
					<g>
						<path class="st0" d="M565.92,303.81c-0.08,0.17-0.21,0.26-0.33,0.37c-0.14,0.08-0.27,0.17-0.46,0.19
							c-0.25,0.03-0.48-0.15-0.5-0.4c-0.01-0.08,0.01-0.16,0.04-0.23c0.08-0.17,0.21-0.27,0.33-0.38c0.14-0.08,0.28-0.17,0.47-0.19
							c0.26-0.03,0.47,0.16,0.49,0.41C565.97,303.66,565.96,303.74,565.92,303.81z"/>
					</g>
					<g>
						<path class="st0" d="M564.44,304.89c-0.47,0.47-0.98,0.87-1.47,1.29c-0.52,0.4-1.02,0.82-1.57,1.17
							c-0.19,0.12-0.43,0.07-0.55-0.11c-0.1-0.15-0.07-0.35,0.04-0.48c0.44-0.5,0.95-0.93,1.45-1.36c0.52-0.41,1.05-0.81,1.63-1.14
							c0.2-0.11,0.44-0.05,0.54,0.15C564.6,304.57,564.56,304.76,564.44,304.89z"/>
					</g>
					<g>
						<path class="st0" d="M560.15,308.46c-0.01,0.13-0.08,0.2-0.14,0.28c-0.08,0.06-0.16,0.12-0.29,0.12
							c-0.3,0-0.54-0.25-0.53-0.55l0-0.02c0.01-0.13,0.08-0.21,0.14-0.28c0.08-0.06,0.16-0.12,0.29-0.12c0.31,0,0.54,0.25,0.52,0.56
							L560.15,308.46z"/>
					</g>
					<g>
						<path class="st0" d="M558.73,309.82c-0.01,0.13-0.07,0.2-0.13,0.28c-0.08,0.06-0.15,0.12-0.28,0.13
							c-0.3,0.01-0.55-0.22-0.55-0.53l0-0.02c0.01-0.13,0.07-0.21,0.13-0.29c0.08-0.06,0.16-0.12,0.29-0.13
							c0.31-0.01,0.55,0.24,0.54,0.54L558.73,309.82z"/>
					</g>
				</g>
			</g>
		</g>
		<g>
			<path class="st4" d="M368.97,249.71c-59.89-0.94-220.05,48.64-239.59,0c-16.1-40.08,44.11-37.01,47.61-70.19
				c3.5-33.19-12.18-47.32,12.81-62.68c24.99-15.36,65.71,5.97,92.61-15.36c26.89-21.33,40.93-36.87,101.47-44.25
				c60.54-7.37,105.35,60.84,131.25,67.6c25.9,6.76,63.01-10.45,81.21,10.45c18.2,20.89-40.61,67.14-28,86.42
				c12.6,19.28,43.46,29.73,31.53,56.77C587.94,305.5,427.26,250.62,368.97,249.71z"/>
			<g>
				<g>
					<g>
						<path class="st0" d="M129.95,231.15c-0.01-0.27,0.07-0.52,0.15-0.76c0.11-0.23,0.21-0.47,0.38-0.67
							c0.2-0.24,0.5-0.23,0.64-0.02c0.05,0.09,0.09,0.2,0.08,0.32c-0.01,0.26-0.09,0.49-0.17,0.73c-0.11,0.22-0.19,0.45-0.35,0.66
							c-0.19,0.24-0.47,0.27-0.63,0.07C129.99,231.38,129.95,231.27,129.95,231.15z"/>
					</g>
					<g>
						<path class="st0" d="M131.05,228.46c0.03-0.27,0.15-0.5,0.25-0.73c0.13-0.22,0.25-0.45,0.46-0.62
							c0.24-0.2,0.53-0.17,0.64,0.06c0.05,0.1,0.06,0.21,0.04,0.32c-0.05,0.25-0.15,0.48-0.26,0.7c-0.12,0.21-0.25,0.42-0.44,0.6
							c-0.21,0.21-0.5,0.21-0.63-0.01C131.06,228.7,131.04,228.58,131.05,228.46z"/>
					</g>
					<g>
						<path class="st0" d="M132.48,225.94c0.06-0.26,0.2-0.48,0.33-0.7c0.15-0.2,0.31-0.4,0.53-0.56c0.26-0.18,0.54-0.12,0.62,0.13
							c0.04,0.1,0.03,0.22,0,0.33c-0.07,0.25-0.21,0.45-0.34,0.66c-0.15,0.2-0.29,0.4-0.5,0.55c-0.25,0.18-0.53,0.14-0.64-0.09
							C132.46,226.18,132.45,226.06,132.48,225.94z"/>
					</g>
					<g>
						<path class="st0" d="M135.66,221.92c0.11-0.25,0.28-0.43,0.45-0.62c0.19-0.17,0.37-0.35,0.62-0.46
							c0.29-0.13,0.55-0.02,0.59,0.24c0.02,0.11,0,0.22-0.05,0.32c-0.12,0.24-0.29,0.41-0.45,0.6c-0.18,0.17-0.36,0.33-0.59,0.45
							c-0.27,0.14-0.54,0.05-0.6-0.2C135.59,222.14,135.61,222.03,135.66,221.92z"/>
					</g>
					<g>
						<path class="st0" d="M138.3,219.41c0.06-0.17,0.17-0.27,0.28-0.38c0.13-0.09,0.25-0.18,0.43-0.2
							c0.34-0.05,0.57,0.18,0.51,0.49c-0.01,0.04-0.02,0.08-0.03,0.11c-0.06,0.17-0.17,0.26-0.28,0.37
							c-0.12,0.08-0.24,0.17-0.41,0.2c-0.33,0.05-0.57-0.16-0.53-0.48C138.28,219.49,138.29,219.45,138.3,219.41z"/>
					</g>
					<g>
						<path class="st0" d="M140.77,217.56c0.08-0.16,0.2-0.25,0.32-0.35c0.14-0.07,0.27-0.15,0.45-0.16
							c0.35-0.01,0.54,0.25,0.45,0.55c-0.01,0.04-0.03,0.07-0.04,0.11c-0.08,0.16-0.2,0.24-0.31,0.33
							c-0.13,0.07-0.26,0.15-0.43,0.16c-0.34,0.02-0.55-0.21-0.48-0.53C140.74,217.63,140.75,217.59,140.77,217.56z"/>
					</g>
				</g>
				<g>
					<g>
						<path class="st0" d="M136.47,256.5c-0.73-0.77-1.34-1.65-2.01-2.48c-0.57-0.89-1.16-1.78-1.7-2.7
							c-0.47-0.95-0.98-1.89-1.42-2.86l-1.17-2.96c-0.68-2.02-1.13-4.13-1.26-6.27c-0.13-2.14,0.08-4.3,0.64-6.36
							c0.08-0.29,0.31-0.46,0.52-0.4c0.2,0.06,0.3,0.32,0.24,0.59c-0.46,2-0.61,4.07-0.45,6.11c0.14,2.04,0.59,4.07,1.26,6.01
							l1.12,2.9c0.42,0.94,0.91,1.86,1.36,2.79c0.51,0.9,1.06,1.77,1.6,2.65c0.63,0.82,1.19,1.69,1.87,2.47
							c0.19,0.21,0.21,0.5,0.05,0.64C136.94,256.76,136.66,256.7,136.47,256.5z"/>
					</g>
					<g>
						<path class="st0" d="M137.96,257.11c0.21,0.09,0.34,0.24,0.51,0.38c0.14,0.15,0.29,0.29,0.39,0.5
							c0.13,0.28,0.01,0.56-0.26,0.6c-0.09,0.01-0.18,0-0.27-0.03c-0.22-0.08-0.38-0.22-0.55-0.35c-0.15-0.16-0.28-0.33-0.36-0.55
							c-0.11-0.3,0.03-0.56,0.29-0.59C137.79,257.06,137.88,257.07,137.96,257.11z"/>
					</g>
					<g>
						<path class="st0" d="M139.68,258.74c0.22,0.07,0.36,0.22,0.54,0.33c0.16,0.14,0.32,0.27,0.43,0.46
							c0.15,0.27,0.06,0.55-0.21,0.62c-0.09,0.02-0.18,0.02-0.27-0.01c-0.23-0.06-0.4-0.19-0.58-0.31c-0.17-0.13-0.31-0.3-0.42-0.51
							c-0.14-0.29-0.03-0.56,0.24-0.61C139.5,258.7,139.6,258.71,139.68,258.74z"/>
					</g>
					<g>
						<path class="st0" d="M141.54,260.21c0.74,0.43,1.46,0.85,2.19,1.27c0.73,0.41,1.46,0.82,2.2,1.23
							c0.25,0.15,0.35,0.41,0.23,0.59c-0.1,0.15-0.33,0.19-0.55,0.12c-0.84-0.26-1.61-0.67-2.38-1.08c-0.75-0.45-1.48-0.93-2.14-1.5
							c-0.22-0.2-0.26-0.49-0.1-0.64C141.12,260.09,141.35,260.1,141.54,260.21z"/>
					</g>
					<g>
						<path class="st0" d="M147.92,263.5c0.15-0.05,0.27-0.02,0.39,0.01c0.12,0.05,0.23,0.09,0.33,0.22
							c0.21,0.29,0.13,0.62-0.21,0.74l-0.02,0.01c-0.15,0.05-0.28,0.01-0.41-0.01c-0.12-0.05-0.24-0.1-0.34-0.22
							c-0.21-0.29-0.1-0.62,0.23-0.73L147.92,263.5z"/>
					</g>
					<g>
						<path class="st0" d="M150.36,264.15c0.14-0.07,0.26-0.04,0.38-0.03c0.12,0.03,0.24,0.06,0.35,0.17
							c0.24,0.24,0.24,0.59-0.09,0.76l-0.02,0.01c-0.14,0.07-0.28,0.05-0.41,0.05c-0.13-0.04-0.26-0.07-0.37-0.18
							c-0.25-0.26-0.18-0.6,0.13-0.75L150.36,264.15z"/>
					</g>
				</g>
			</g>
			<path class="st5" d="M371.06,88.27c-28.05,4.56-49.87,17.33-65.46,38.31c-14.55,19.15-11.43,43.78,1.04,62.93
				c11.43,18.24,33.25,24.63,54.03,29.19c58.19,13.68,111.18,31.01,166.25,48.34c23.9,7.3,51.95,18.24,72.73,1.82
				c0.01-0.01,0.02-0.02,0.03-0.03c2.03-1.61,2.91-4.07,2.42-6.44c-3.31-16.14-24.01-25.78-33.77-40.71
				c-12.6-19.28,46.21-65.52,28-86.42c-18.2-20.89-55.31-3.69-81.21-10.45c-3.07-0.8-6.41-2.47-10.01-4.77
				C458.78,109.76,422.16,80.35,371.06,88.27z"/>
			<path class="st6" d="M577.36,281.38c-24.48,0-66.52-9.39-107.17-18.48c-40.01-8.94-77.8-17.39-101.12-17.75
				c-0.59-0.01-1.21-0.01-1.82-0.01c-19.18,0-47.42,4.59-77.32,9.46c-34.48,5.61-73.56,11.96-103.89,11.96
				c-29.86,0-46.8-6.01-51.76-18.36c-7.67-19.09,3.65-25.9,19.31-35.34c12.56-7.57,26.8-16.14,28.57-32.92
				c1.25-11.85,0.13-21.46-0.76-29.19c-1.67-14.41-2.51-21.64,11.38-30.18c5.99-3.68,13.43-5.25,24.9-5.25
				c4.37,0,8.83,0.22,13.55,0.44c4.78,0.23,9.71,0.47,14.62,0.47c11.97,0,27.33-1.29,40.05-11.38c2.47-1.96,4.84-3.88,7.14-5.74
				c22.16-17.92,38.17-30.87,91.56-37.38c2.8-0.34,5.64-0.51,8.45-0.51c33.91,0,62.73,24.56,85.89,44.29
				c13.82,11.78,24.74,21.08,34.71,23.68c4.83,1.26,10.35,1.87,16.87,1.87c6.08,0,12.36-0.52,18.43-1.02
				c6.05-0.5,11.76-0.98,17.25-0.98c12.75,0,20.53,2.68,26.01,8.97c7.53,8.64-4,26.19-14.18,41.67
				c-11.12,16.92-21.63,32.9-14.2,44.25c4.29,6.56,10.34,12.01,16.19,17.27c12.28,11.05,21.98,19.78,15,35.58
				C593.72,279.75,587.45,281.38,577.36,281.38z"/>
		</g>
		<g>
			<path class="st7" d="M538.98,330.85H226.21c-2.13,0-3.85-1.73-3.85-3.85V157.74c0-2.13,1.73-3.85,3.85-3.85h312.77
				c2.13,0,3.85,1.73,3.85,3.85v169.26C542.83,329.12,541.11,330.85,538.98,330.85z"/>
			<path class="st8" d="M533.37,324.17H220.6c-2.13,0-3.85-1.73-3.85-3.85V151.06c0-2.13,1.73-3.85,3.85-3.85h312.77
				c2.13,0,3.85,1.73,3.85,3.85v169.26C537.23,322.44,535.5,324.17,533.37,324.17z"/>
			<g>
				<path class="st9" d="M529.5,317.49H213.27c-1.17,0-2.12-0.95-2.12-2.12V142.65c0-1.17,0.95-2.12,2.12-2.12H529.5
					c1.17,0,2.12,0.95,2.12,2.12v172.72C531.62,316.54,530.67,317.49,529.5,317.49z"/>
				<path class="st10" d="M229.01,155.69h20.5v-1.21h-20.5V155.69z M224.19,156.29h2.41v-2.41h-2.41V156.29z M229.01,162.32h20.5
					v-1.21h-20.5V162.32z M224.19,162.92h2.41v-2.41h-2.41V162.92z M229.01,168.95h20.5v-1.21h-20.5V168.95z M224.19,169.55h2.41
					v-2.41h-2.41V169.55z"/>
				<path class="st11" d="M300.09,268.46H239.3c-8.35,0-15.11-6.77-15.11-15.11v-58.01c0-8.35,6.77-15.11,15.11-15.11h60.79
					c8.35,0,15.11,6.77,15.11,15.11v58.01C315.21,261.69,308.44,268.46,300.09,268.46z"/>
				<path class="st11" d="M402.33,268.46h-60.79c-8.35,0-15.11-6.77-15.11-15.11v-58.01c0-8.35,6.77-15.11,15.11-15.11h60.79
					c8.35,0,15.11,6.77,15.11,15.11v58.01C417.44,261.69,410.68,268.46,402.33,268.46z"/>
				<path class="st11" d="M504.57,268.46h-60.79c-8.35,0-15.11-6.77-15.11-15.11v-58.01c0-8.35,6.77-15.11,15.11-15.11h60.79
					c8.35,0,15.11,6.77,15.11,15.11v58.01C519.68,261.69,512.92,268.46,504.57,268.46z"/>
				<g>
					<g>
						<g>
							<path class="st7" d="M497.41,162.9l-1.53-10.19c-0.04-0.28-0.28-0.49-0.56-0.49l-2.74-0.02l0.01-1.26l2.74,0.02
								c0.91,0.01,1.67,0.66,1.81,1.56l0.17,1.13l17.29,0.11l-1.78,8.04L497.41,162.9z M497.49,154.92l1,6.64l13.29-0.95l1.23-5.59
								L497.49,154.92z"/>
						</g>
						<g>
							<path class="st7" d="M513.05,165.3l-14.94-0.09c-0.32,0-0.62-0.14-0.83-0.39c-0.21-0.25-0.3-0.57-0.24-0.88l0.29-1.81
								l1.25,0.2l-0.26,1.62l14.74,0.09L513.05,165.3z"/>
						</g>
						<path class="st12" d="M501.92,167.8c-0.01,0.94-0.77,1.7-1.72,1.7c-0.94-0.01-1.7-0.77-1.7-1.72c0.01-0.94,0.77-1.7,1.72-1.7
							C501.17,166.09,501.93,166.86,501.92,167.8z"/>
						<path class="st12" d="M510.87,167.86c-0.01,0.94-0.77,1.7-1.72,1.69c-0.94-0.01-1.7-0.77-1.69-1.72
							c0.01-0.94,0.77-1.7,1.72-1.69C510.12,166.15,510.88,166.92,510.87,167.86z"/>
					</g>
				</g>
				<line class="st13" x1="325.99" y1="274.56" x2="417.44" y2="274.56"/>
			</g>
			<g>
				<path class="st14" d="M407.3,236.21c0,1.25-14.94,2.26-33.36,2.26c-18.42,0-33.36-1.01-33.36-2.26c0-1.25,14.94-2.26,33.36-2.26
					C392.37,233.95,407.3,234.96,407.3,236.21z"/>
				<g>
					<g>
						<path class="st15" d="M347.39,212.63c0,0,0.67-1.69,6.51,0.53c3.17,1.2,7.3,4.11,15.33,0.6c0,0,2.45,8.12-7.79,7.41
							C351.2,220.46,347.39,212.63,347.39,212.63z"/>
						<path class="st16" d="M404.34,225.7l2.37,0.62c1.35,0.71,1.28,4.3,0.16,5.41c0,0-9.58,5.6-37.62,6.07
							c-16.13-0.31-26.91-3.07-27.41-4.16c-0.5-1.1-0.54-3.55-0.44-5.28l3.04-3.54L404.34,225.7z"/>
						<path class="st17" d="M347.39,212.63c0,0-3.16,3.03-3.54,5.53c-0.54,3.59-1.15,5.37-0.76,9c0,0,9.1,3.55,24.25,3.72
							c7.48,0.09,18.21-0.37,26.06-1.76c6.68-1.19,13.3-2.79,13.3-2.79c-1.93-6.75-7.77-4.25-16.08-6.88
							c-5.66-1.79-19.13-12.91-19.13-12.91s-3.12,2.32-3.29,3.51c-0.11,0.75,1.38,2.71,1.38,2.71s-0.37,6.39-6.75,6.81
							C356.63,219.97,347.39,212.63,347.39,212.63z"/>
						<path class="st18" d="M406.71,226.33c0,0-5.03,3.41-12.37,4.83c-7.5,1.46-19.76,1.94-27.4,1.65
							c-8.44-0.32-25.54-4.44-25.54-4.44"/>
						<path class="st19" d="M369.58,212.75c0,0,3.23,0.01,4.37,0.41c2.69,0.94,10.48,7.16,16.32,7.9"/>
						<path class="st16" d="M379.23,212.51l-2.6,4.2c-0.36,0.5-1.92-0.62-1.56-1.12l2.41-4.44
							C378,210.49,379.75,211.84,379.23,212.51z"/>
						<path class="st16" d="M383.01,214.75l-2.74,4.46c-0.33,0.75-2.08-0.03-1.75-0.78l2.73-5.03
							C381.78,212.72,383.53,214.08,383.01,214.75z"/>
						<path class="st16" d="M386.8,216.98l-2.77,4.48c-0.29,0.63-2.01-0.17-1.72-0.8l2.73-5.03
							C385.57,214.96,387.32,216.31,386.8,216.98z"/>
						<path class="st16" d="M371.32,214.84c0.05-1.23,2.03-1.15,1.98,0.08l-0.79,7.47c0,1.08-1.13,1.08-1.13,0L371.32,214.84z"/>
						<path class="st19" d="M364.41,230.94c0,0,0.91-3.33,4.11-4.84c3.58-1.69,12.09,1.5,16.8-1.11c1.38-0.77,4.95-3.94,4.95-3.94"
							/>
						<path class="st19" d="M344.68,216.19c0,0,5.05,2.26,7.4,5.24c1.06,1.34,2.53,8.57,2.53,8.57"/>
					</g>
				</g>
			</g>
			<g>
				<path class="st14" d="M302.48,236.21c0,1.25-14.94,2.26-33.36,2.26c-18.42,0-33.36-1.01-33.36-2.26
					c0-1.25,14.94-2.26,33.36-2.26C287.55,233.95,302.48,234.96,302.48,236.21z"/>
				<g>
					<g>
						<path class="st15" d="M242.57,212.63c0,0,0.67-1.69,6.51,0.53c3.17,1.2,7.3,4.11,15.33,0.6c0,0,2.45,8.12-7.79,7.41
							C246.38,220.46,242.57,212.63,242.57,212.63z"/>
						<path class="st16" d="M299.52,225.7l2.37,0.62c1.35,0.71,1.28,4.3,0.16,5.41c0,0-9.58,5.6-37.62,6.07
							c-16.13-0.31-26.91-3.07-27.41-4.16c-0.5-1.1-0.54-3.55-0.44-5.28l3.04-3.54L299.52,225.7z"/>
						<path class="st4" d="M242.57,212.63c0,0-3.16,3.03-3.54,5.53c-0.54,3.59-1.15,5.37-0.76,9c0,0,9.1,3.55,24.25,3.72
							c7.48,0.09,18.21-0.37,26.06-1.76c6.68-1.19,13.3-2.79,13.3-2.79c-1.93-6.75-7.77-4.25-16.08-6.88
							c-5.66-1.79-19.13-12.91-19.13-12.91s-3.12,2.32-3.29,3.51c-0.11,0.75,1.38,2.71,1.38,2.71s-0.37,6.39-6.75,6.81
							C251.81,219.97,242.57,212.63,242.57,212.63z"/>
						<path class="st18" d="M301.89,226.33c0,0-5.03,3.41-12.37,4.83c-7.5,1.46-19.76,1.94-27.4,1.65
							c-8.44-0.32-25.54-4.44-25.54-4.44"/>
						<path class="st20" d="M264.76,212.75c0,0,3.23,0.01,4.37,0.41c2.69,0.94,10.48,7.16,16.32,7.9"/>
						<path class="st16" d="M274.41,212.51l-2.6,4.2c-0.36,0.5-1.92-0.62-1.56-1.12l2.41-4.44
							C273.18,210.49,274.93,211.84,274.41,212.51z"/>
						<path class="st16" d="M278.19,214.75l-2.74,4.46c-0.33,0.75-2.08-0.03-1.75-0.78l2.73-5.03
							C276.96,212.72,278.71,214.08,278.19,214.75z"/>
						<path class="st16" d="M281.98,216.98l-2.77,4.48c-0.29,0.63-2.01-0.17-1.72-0.8l2.73-5.03
							C280.75,214.96,282.5,216.31,281.98,216.98z"/>
						<path class="st16" d="M266.5,214.84c0.05-1.23,2.03-1.15,1.98,0.08l-0.79,7.47c0,1.08-1.13,1.08-1.13,0L266.5,214.84z"/>
						<path class="st20" d="M259.6,230.94c0,0,0.91-3.33,4.11-4.84c3.58-1.69,12.09,1.5,16.8-1.11c1.38-0.77,4.95-3.94,4.95-3.94"/>
						<path class="st20" d="M239.86,216.19c0,0,5.05,2.26,7.4,5.24c1.06,1.34,2.53,8.57,2.53,8.57"/>
					</g>
				</g>
			</g>
			<g>
				<path class="st14" d="M507.33,236.21c0,1.25-14.94,2.26-33.36,2.26c-18.42,0-33.36-1.01-33.36-2.26
					c0-1.25,14.94-2.26,33.36-2.26C492.39,233.95,507.33,234.96,507.33,236.21z"/>
				<g>
					<g>
						<path class="st21" d="M447.41,212.63c0,0,0.67-1.69,6.51,0.53c3.17,1.2,7.3,4.11,15.33,0.6c0,0,2.45,8.12-7.79,7.41
							C451.22,220.46,447.41,212.63,447.41,212.63z"/>
						<path class="st16" d="M504.36,225.7l2.37,0.62c1.35,0.71,1.28,4.3,0.16,5.41c0,0-9.58,5.6-37.62,6.07
							c-16.13-0.31-26.91-3.07-27.41-4.16c-0.5-1.1-0.54-3.55-0.44-5.28l3.04-3.54L504.36,225.7z"/>
						<path class="st1" d="M447.41,212.63c0,0-3.16,3.03-3.54,5.53c-0.54,3.59-1.15,5.37-0.76,9c0,0,9.1,3.55,24.25,3.72
							c7.48,0.09,18.21-0.37,26.06-1.76c6.68-1.19,13.3-2.79,13.3-2.79c-1.93-6.75-7.77-4.25-16.08-6.88
							c-5.66-1.79-19.13-12.91-19.13-12.91s-3.12,2.32-3.29,3.51c-0.11,0.75,1.38,2.71,1.38,2.71s-0.37,6.39-6.75,6.81
							C456.66,219.97,447.41,212.63,447.41,212.63z"/>
						<path class="st18" d="M506.73,226.33c0,0-5.03,3.41-12.37,4.83c-7.5,1.46-19.76,1.94-27.4,1.65
							c-8.44-0.32-25.54-4.44-25.54-4.44"/>
						<path class="st20" d="M469.61,212.75c0,0,3.23,0.01,4.37,0.41c2.69,0.94,10.48,7.16,16.32,7.9"/>
						<path class="st16" d="M479.25,212.51l-2.6,4.2c-0.36,0.5-1.92-0.62-1.56-1.12l2.41-4.44
							C478.02,210.49,479.77,211.84,479.25,212.51z"/>
						<path class="st16" d="M483.04,214.75l-2.74,4.46c-0.33,0.75-2.08-0.03-1.75-0.78l2.73-5.03
							C481.81,212.72,483.56,214.08,483.04,214.75z"/>
						<path class="st16" d="M486.82,216.98l-2.77,4.48c-0.29,0.63-2.01-0.17-1.72-0.8l2.73-5.03
							C485.59,214.96,487.34,216.31,486.82,216.98z"/>
						<path class="st16" d="M471.34,214.84c0.05-1.23,2.03-1.15,1.98,0.08l-0.79,7.47c0,1.08-1.13,1.08-1.13,0L471.34,214.84z"/>
						<path class="st20" d="M464.44,230.94c0,0,0.91-3.33,4.11-4.84c3.58-1.69,12.09,1.5,16.8-1.11c1.38-0.77,4.95-3.94,4.95-3.94"
							/>
						<path class="st20" d="M444.71,216.19c0,0,5.05,2.26,7.4,5.24c1.06,1.34,2.53,8.57,2.53,8.57"/>
					</g>
				</g>
			</g>
			<g>
				<path class="st7" d="M336.27,196.46v0.1c0,0.52-0.13,0.74-0.43,0.74h-2.89c-0.3,0-0.43-0.22-0.43-0.74v-0.1
					c0-0.52,0.13-0.74,0.43-0.74h2.89C336.15,195.72,336.27,195.94,336.27,196.46z"/>
				<path class="st7" d="M342.99,192.45c0,2.06-1.14,2.49-2.13,2.49c-0.99,0-2.13-0.43-2.13-2.49c0-2.06,1.14-2.49,2.13-2.49
					C341.86,189.97,342.99,190.4,342.99,192.45z M340.18,192.45c0,0.58,0.13,1.27,0.68,1.27c0.55,0,0.67-0.7,0.67-1.27
					c0-0.58-0.11-1.21-0.67-1.21C340.31,191.24,340.18,191.88,340.18,192.45z M346.95,190.26c0,0.04-0.03,0.12-0.07,0.21l-5.07,9.59
					c-0.14,0.27-0.33,0.41-0.62,0.41h-0.62c-0.2,0-0.3-0.09-0.3-0.19c0-0.06,0.03-0.13,0.07-0.22l5.07-9.59
					c0.14-0.27,0.33-0.41,0.62-0.41h0.62C346.85,190.05,346.95,190.14,346.95,190.26z M348.48,198.08c0,2.06-1.14,2.49-2.13,2.49
					c-0.99,0-2.13-0.43-2.13-2.49c0-2.06,1.14-2.49,2.13-2.49C347.35,195.59,348.48,196.02,348.48,198.08z M345.67,198.08
					c0,0.58,0.13,1.27,0.68,1.27c0.55,0,0.67-0.7,0.67-1.27c0-0.58-0.11-1.21-0.67-1.21C345.8,196.86,345.67,197.5,345.67,198.08z"
					/>
			</g>
			<g>
				<g>
					<path class="st17" d="M396.97,244.83v0.98c1.39,0.02,3.86,0.59,3.86,1.39c0,0.37-0.54,1.29-0.78,1.29
						c-0.37,0-1.24-0.88-3.07-0.93v5.69c2.17,0.78,4.66,1.66,4.66,5.03c0,2.78-1.81,4.54-4.66,4.78v1.22c0,0.27-0.15,0.39-0.49,0.39
						s-0.49-0.12-0.49-0.39v-1.2c-2.76-0.07-4.83-1.12-4.83-1.78c0-0.39,0.59-1.32,0.85-1.32c0.29,0,1.61,1.27,3.98,1.34v-6.3
						c-2.15-0.83-4.51-1.68-4.51-4.83c0-2.39,1.76-4.05,4.51-4.34v-1.02c0-0.27,0.15-0.39,0.49-0.39S396.97,244.56,396.97,244.83z
						 M393.7,250.3c0,1.39,1,2.05,2.29,2.59v-5.25C394.6,247.88,393.7,248.76,393.7,250.3z M396.97,261.25
						c1.44-0.27,2.44-1.39,2.44-2.98c0-1.54-1.1-2.27-2.44-2.85V261.25z"/>
				</g>
				<path class="st17" d="M385.98,263.87h-39.02c-2.17,0-3.93-1.76-3.93-3.93v-0.58c0-2.17,1.76-3.93,3.93-3.93h39.02
					c2.17,0,3.93,1.76,3.93,3.93v0.58C389.91,262.11,388.15,263.87,385.98,263.87z"/>
			</g>
		</g>
		<g>
			<path class="st22" d="M670.98,447.31H79.02c-2.2,0-3.18-2.78-1.46-4.15l88.65-70.82c1.9-1.52,4.33-2.35,6.83-2.35h403.9
				c2.51,0,4.93,0.84,6.83,2.35l88.65,70.82C674.16,444.54,673.18,447.31,670.98,447.31z"/>
			<g>
				<path class="st23" d="M668.71,418.36H81.29l91.09-72.76c1.85-1.47,4.2-2.29,6.63-2.29h391.99c2.43,0,4.78,0.81,6.63,2.29
					L668.71,418.36z"/>
				<polygon class="st8" points="610.48,411.85 139.52,411.85 205.83,349.82 544.17,349.82 				"/>
				<polygon class="st0" points="604.71,411.85 145.29,411.85 209.98,352.48 540.03,352.48 				"/>
				<path class="st8" d="M654.39,437.88H95.61c-7.91,0-14.32-6.41-14.32-14.32v-5.2h587.42v5.2
					C668.71,431.47,662.3,437.88,654.39,437.88z"/>
				<line class="st24" x1="81.29" y1="425.95" x2="668.71" y2="425.95"/>
				<path class="st7" d="M278.69,431.65h-80.35c-2.64,0-4.78-2.14-4.78-4.78v-0.71c0-2.64,2.14-4.78,4.78-4.78h80.35
					c2.64,0,4.78,2.14,4.78,4.78v0.71C283.46,429.52,281.32,431.65,278.69,431.65z"/>
				<path class="st23" d="M279.22,431.65H197.8c-2.34,0-4.24-1.9-4.24-4.24v-0.63c0-2.34,1.9-4.24,4.24-4.24h81.43
					c2.34,0,4.24,1.9,4.24,4.24v0.63C283.46,429.76,281.56,431.65,279.22,431.65z"/>
				<g>
					<polygon class="st8" points="567.02,361.21 600.41,390.73 618.28,390.73 618.28,388.38 567.02,358.86 					"/>
					<polygon class="st25" points="567.02,358.86 600.41,388.38 618.28,388.38 581.18,358.86 					"/>
				</g>
				<ellipse class="st0" cx="159.34" cy="372.96" rx="14.04" ry="6.11"/>
				<path class="st7" d="M169.18,372.5c0,2.11-4.4,3.83-9.84,3.83c-5.43,0-9.84-1.71-9.84-3.83c0-2.11,4.4-3.83,9.84-3.83
					C164.77,368.67,169.18,370.39,169.18,372.5z"/>
				<path class="st0" d="M160.51,371.64c0,0.73-1.52,1.32-3.39,1.32s-3.39-0.59-3.39-1.32c0-0.73,1.52-1.32,3.39-1.32
					S160.51,370.91,160.51,371.64z"/>
			</g>
		</g>
		<g>
			<g>
				<g>
					<g>
						<path class="st23" d="M552.4,125.05H228.82c-7.39,0-13.38-5.99-13.38-13.38v-1.98c0-7.39,5.99-13.38,13.38-13.38H552.4
							c7.39,0,13.38,5.99,13.38,13.38v1.98C565.78,119.06,559.79,125.05,552.4,125.05z"/>
						<circle class="st23" cx="162.8" cy="110.68" r="14.37"/>
						<circle class="st23" cx="196.3" cy="110.68" r="14.37"/>
					</g>
				</g>
				<polygon class="st23" points="585.7,95.58 590.45,105.74 601.58,107.12 593.39,114.77 595.51,125.78 585.7,120.35
					575.89,125.78 578.02,114.77 569.83,107.12 580.95,105.74 				"/>
				<g>
					<g>
						<path class="st9" d="M552.4,120.08H228.82c-7.39,0-13.38-5.99-13.38-13.38v-1.98c0-7.39,5.99-13.38,13.38-13.38H552.4
							c7.39,0,13.38,5.99,13.38,13.38v1.98C565.78,114.09,559.79,120.08,552.4,120.08z"/>
						<g class="st26">
							<path class="st27" d="M300,100.41v0.53c1.27,0.05,2.5,0.52,2.5,1c0,0.36-0.42,1.18-0.72,1.18c-0.22,0-0.72-0.44-1.77-0.47
								v2.86c1.35,0.55,2.98,1.18,2.98,3.27c0,2.14-1.35,3.16-2.98,3.33v0.72c0,0.28-0.13,0.39-0.38,0.39
								c-0.3,0-0.42-0.11-0.42-0.39v-0.71c-2.03-0.06-3.27-0.8-3.27-1.29c0-0.41,0.55-1.21,0.82-1.21c0.25,0,1.11,0.77,2.45,0.79
								v-3.12c-1.38-0.52-3.05-1.11-3.05-3.28c0-1.87,1.37-2.86,3.05-3.05v-0.55c0-0.28,0.13-0.39,0.39-0.39
								C299.87,100.02,300,100.13,300,100.41z M298.14,103.9c0,0.61,0.44,0.97,1.05,1.27v-2.43
								C298.44,102.91,298.14,103.36,298.14,103.9z M300,110.29c0.58-0.17,1-0.63,1-1.32c0-0.64-0.42-1.04-1-1.32V110.29z"/>
							<path class="st27" d="M307.8,107.79v0.13c0,0.47-0.13,0.66-0.41,0.66h-3.12c-0.28,0-0.41-0.19-0.41-0.66v-0.13
								c0-0.47,0.13-0.68,0.41-0.68h3.12C307.67,107.12,307.8,107.32,307.8,107.79z"/>
							<path class="st27" d="M313.7,103.52c0,2.15-1.24,2.61-2.29,2.61c-1.05,0-2.28-0.46-2.28-2.61c0-2.15,1.21-2.61,2.28-2.61
								C312.46,100.92,313.7,101.37,313.7,103.52z M310.53,103.52c0,0.66,0.13,1.48,0.88,1.48c0.75,0,0.9-0.82,0.9-1.48
								c0-0.66-0.11-1.44-0.9-1.44C310.66,102.08,310.53,102.86,310.53,103.52z M318.05,101.17c0,0.05-0.03,0.11-0.08,0.19
								l-5.7,10.33c-0.13,0.25-0.35,0.39-0.66,0.39h-0.47c-0.22,0-0.35-0.08-0.35-0.19c0-0.05,0.03-0.13,0.08-0.2l5.68-10.33
								c0.14-0.25,0.36-0.38,0.67-0.38h0.47C317.93,100.98,318.05,101.06,318.05,101.17z M319.7,109.52c0,2.17-1.24,2.61-2.29,2.61
								c-1.05,0-2.28-0.44-2.28-2.61c0-2.15,1.21-2.61,2.28-2.61C318.46,106.91,319.7,107.37,319.7,109.52z M316.53,109.52
								c0,0.66,0.13,1.48,0.88,1.48c0.75,0,0.89-0.82,0.89-1.48c0-0.64-0.11-1.44-0.89-1.44
								C316.66,108.07,316.53,108.88,316.53,109.52z"/>
						</g>
						<text transform="matrix(1 0 0 1 406.2227 112.2246)" class="st28 st29">.Jibres.com</text>
						<path class="st30" d="M285.85,113.2h-28.2c-3.65,0-6.6-2.96-6.6-6.6l0,0c0-3.65,2.96-6.6,6.6-6.6h28.2
							c3.65,0,6.6,2.96,6.6,6.6l0,0C292.46,110.25,289.5,113.2,285.85,113.2z"/>
						<circle class="st9" cx="162.8" cy="105.71" r="14.37"/>
						<circle class="st9" cx="196.3" cy="105.71" r="14.37"/>
					</g>
				</g>
				<polygon class="st31" points="585.7,90.61 590.45,100.76 601.58,102.14 593.39,109.8 595.51,120.8 585.7,115.38 575.89,120.8
					578.02,109.8 569.83,102.14 580.95,100.76 				"/>
			</g>
			<polygon class="st32" points="164.57,96.95 155.48,105.96 164.57,115.14 166.31,113.41 158.94,105.96 166.31,98.68 			"/>
			<polygon class="st32" points="195,115.14 204.1,106.13 195,96.95 193.27,98.68 200.63,106.13 193.27,113.41 			"/>
			<path class="st7" d="M244.97,113.96l-5.8-5.73c0.81-1.21,1.25-2.66,1.24-4.11c-0.02-4.11-3.42-7.47-7.58-7.5
				c-1.96-0.01-3.93,0.78-5.34,2.17c-1.41,1.39-2.21,3.31-2.19,5.28c0.02,4.11,3.42,7.48,7.58,7.5c0.01,0,0.02,0,0.03,0
				c1.47,0,2.92-0.44,4.15-1.25l5.79,5.73L244.97,113.96z M238.16,104.12c0.01,1.37-0.55,2.72-1.53,3.69
				c-0.98,0.97-2.33,1.52-3.72,1.52c-0.01,0-0.01,0-0.02,0c-2.92-0.02-5.31-2.37-5.32-5.26c-0.01-1.37,0.55-2.72,1.53-3.69
				c0.98-0.97,2.34-1.53,3.74-1.52C235.76,98.88,238.15,101.24,238.16,104.12z"/>
			<path class="st33" d="M546.31,106.04l-3.26,3.28c-0.39,0.39-0.39,1.02,0,1.4c0.39,0.39,1.01,0.39,1.4,0l3.26-3.28l3.26,3.28
				c0.39,0.39,1.01,0.39,1.4,0c0.39-0.39,0.39-1.02,0-1.4l-3.26-3.28l3.26-3.28c0.39-0.39,0.39-1.02,0-1.4
				c-0.39-0.39-1.01-0.39-1.4,0l-3.26,3.28l-3.26-3.28c-0.39-0.39-1.01-0.39-1.4,0c-0.39,0.39-0.39,1.02,0,1.4L546.31,106.04z
				 M547.71,116.64c-5.82,0-10.54-4.74-10.54-10.59c0-5.85,4.72-10.59,10.54-10.59c5.82,0,10.54,4.74,10.54,10.59
				C558.24,111.89,553.53,116.64,547.71,116.64z"/>
		</g>
		<g>
			<path class="st17" d="M183.94,172.59c0-10.74-8.71-19.45-19.45-19.45c-10.74,0-19.45,8.71-19.45,19.45c0,0,0,0,0,0
				c0,4.47-1.34,7.39,19.45,44.7C185.36,179.81,183.92,174.89,183.94,172.59z"/>
			<path class="st0" d="M164.49,181.64c-4.75,0-8.59-3.85-8.59-8.59c0-4.75,3.85-8.59,8.59-8.59c4.75,0,8.59,3.85,8.59,8.59
				C173.08,177.8,169.23,181.64,164.49,181.64z"/>
		</g>
		<path class="st34" d="M433.06,258.44"/>
		<g>
			<g>
				<g>
					<path class="st22" d="M320.58,372.12l-7.89,13.67c-1.6,2.77,0.58,6.12,4,6.12h77.58c3.09,0,5.27-2.78,4.3-5.47l-4.92-13.67
						c-0.61-1.71-2.35-2.86-4.3-2.86h-64.78C322.9,369.9,321.36,370.76,320.58,372.12z"/>
					<g>
						<g>
							<path class="st7" d="M336.46,368.32c0,3.81-3.09,6.89-6.89,6.89s-6.89-3.09-6.89-6.89c0-3.81,3.09-6.89,6.89-6.89
								S336.46,364.51,336.46,368.32z"/>
							<circle class="st35" cx="329.57" cy="368.32" r="4.14"/>
							<path class="st36" d="M326.85,367.56l2.36-6.23c0.13-0.33,0.45-0.55,0.8-0.55h8.22c0.75,0,1.14,0.89,0.63,1.44l-7.4,7.99
								c-0.62,0.67-1.56,0.91-2.43,0.63l-0.74-0.24C327.04,370.18,326.38,368.8,326.85,367.56z"/>
							<circle class="st7" cx="329.57" cy="368.32" r="1.59"/>
						</g>
						<g>
							<path class="st7" d="M376.38,368.32c0,3.81,3.09,6.89,6.89,6.89c3.81,0,6.89-3.09,6.89-6.89c0-3.81-3.09-6.89-6.89-6.89
								C379.46,361.43,376.38,364.51,376.38,368.32z"/>
							<path class="st35" d="M379.13,368.32c0,2.29,1.86,4.14,4.14,4.14c2.29,0,4.14-1.86,4.14-4.14s-1.86-4.14-4.14-4.14
								C380.98,364.17,379.13,366.03,379.13,368.32z"/>
							<path class="st36" d="M385.99,367.56l-2.36-6.23c-0.13-0.33-0.45-0.55-0.8-0.55h-8.22c-0.75,0-1.14,0.89-0.63,1.44l7.4,7.99
								c0.62,0.67,1.56,0.91,2.43,0.63l0.74-0.24C385.8,370.18,386.46,368.8,385.99,367.56z"/>
							<circle class="st7" cx="383.27" cy="368.32" r="1.59"/>
						</g>
						<g>
							<path class="st17" d="M311.55,304.29c-0.4,0-0.77-0.23-0.94-0.62c-2.34-5.41-6.23-14.22-6.92-15.32
								c-1.04-0.76-8.91-3.56-16.03-5.87c-0.42-0.14-0.71-0.53-0.71-0.97c0-0.44,0.29-0.83,0.71-0.97l12.66-4.1
								c0.19-0.06,0.39-0.07,0.58-0.01c1.21,0.33,11.9,3.29,14.19,5.43c1.83,1.7,7.21,12.93,8.27,15.16
								c0.24,0.51,0.03,1.12-0.48,1.36c-0.51,0.24-1.12,0.02-1.36-0.48c-2.39-5.03-6.63-13.43-7.82-14.54
								c-1.42-1.32-8.63-3.65-13.05-4.87l-9.39,3.04c6.54,2.17,13.3,4.59,14.02,5.56c0.85,1.13,6.15,13.35,7.2,15.79
								c0.22,0.52-0.01,1.12-0.53,1.34C311.82,304.26,311.68,304.29,311.55,304.29z"/>
						</g>
						<polygon class="st37" points="308.78,299.12 320.3,291.97 409.17,296.31 411.21,301.88 						"/>
						<path class="st17" d="M307.94,299.3l13.45,44.35c0.4,1.33,1.65,2.22,3.04,2.18l74.39-2.3c1.38-0.04,2.57-1,2.89-2.35l9.5-39.3
							L307.94,299.3z"/>
						<path class="st38" d="M327.94,317.86c4.81,10,15.44,12.02,25.56,11.52c21.73-1.08,40.72-9.56,53.45-27.59
							c0,0-79.11-1.98-79.13-1.98c-1.17-0.02-1.74,7.57-1.8,8.56C325.83,311.64,326.53,314.92,327.94,317.86z"/>
						<path class="st17" d="M398.63,368.12c-0.91-3.63-2.78-7.27-4.13-9.11c-0.7-0.95-1.86-2.05-4.56-2.05h-61.6
							c-0.97,0-2.71-0.16-3.44-1.24c-0.69-1.01-0.3-2.61,0.16-3.77c1.82-4.65,3.44-7.6,3.45-7.63l-2.41,0.2
							c-0.07,0.12-1.08,1.89-2.95,6.68c-0.92,2.35-0.9,4.26,0.06,5.66c0.95,1.39,2.73,2.13,5.13,2.13h3.3v1.38
							c0,0.86,0.69,1.55,1.55,1.55h1.18c0.86,0,1.55-0.7,1.55-1.55v-1.38h40.73v1.38c0,0.86,0.69,1.55,1.55,1.55h1.18
							c0.86,0,1.55-0.7,1.55-1.55v-1.38h9c1.86,0,2.48,0.63,2.91,1.22c1.28,1.74,3,5.18,3.8,8.39c0.18,0.72,0.13,1.27-0.15,1.64
							c-0.56,0.73-1.97,0.82-2.39,0.83c-14.27,0.32-45.06,0.14-61.59,0.05c-4.92-0.03-8.64-0.05-10.41-0.05
							c-2.51,0-4.37-0.72-5.26-2.02c-0.85-1.26-0.82-3.1,0.07-5.33c1.97-4.91,7.76-19.52,7.76-19.52l-1.9-0.75
							c0,0-5.79,14.61-7.75,19.51c-1.46,3.65-0.74,5.95,0.13,7.23c1.27,1.88,3.74,2.92,6.95,2.92c1.16,0,3.18,0.01,5.81,0.02v1.34
							c0,0.86,0.7,1.55,1.55,1.55h1.18c0.86,0,1.55-0.69,1.55-1.55v-1c0.12-0.12,0.18-0.19,0.3-0.31
							c9.42,0.05,23.47,0.13,36.46,0.13c3.53,0,6.97-0.01,10.23-0.02v1.2c0,0.86,0.69,1.55,1.55,1.55h1.18
							c0.86,0,1.55-0.69,1.55-1.55v-1.22c4.08-0.03,7.73-0.07,10.68-0.14c1.03-0.02,2.92-0.27,3.96-1.63
							C398.8,370.61,398.97,369.48,398.63,368.12z"/>
						<g>
							<path class="st0" d="M408.23,301.05l-9.22,38.02c-0.25,1.05-1.18,1.8-2.26,1.84l-34.74,1.07c2.69-2.91,5.37-5.84,8.02-8.79
								c0.2-0.22,0.26-0.49,0.14-0.61c-0.13-0.13-0.4-0.06-0.62,0.16c-2.86,2.95-5.69,5.93-8.51,8.93l-0.01,0.01
								c-0.1,0.11-0.17,0.23-0.22,0.34l-30.66,0.95c2.86-3.09,5.7-6.19,8.52-9.33c0.2-0.23,0.27-0.51,0.15-0.63
								c-0.13-0.13-0.41-0.05-0.64,0.18c-2.99,3.09-5.96,6.21-8.9,9.35l-0.01,0.01c-0.13,0.15-0.22,0.3-0.27,0.45l-2.77,0.09
								c-1.07,0.04-2.06-0.67-2.37-1.7l-6.12-20.18c1.58-1.72,3.14-3.45,4.68-5.21c0.11-0.13,0.1-0.32-0.02-0.45
								c-0.13-0.13-0.34-0.13-0.46,0c-1.52,1.53-3.02,3.08-4.5,4.65l-6.58-21.68l-0.98,0.3l13,42.87c0.44,1.44,1.77,2.43,3.28,2.43
								c0.04,0,0.07,0,0.11,0l70.51-2.18c1.54-0.05,2.86-1.12,3.22-2.62l9.22-38.02L408.23,301.05z"/>
							<path class="st0" d="M323.23,315.15c0.28-0.17,0.49-0.4,0.72-0.62c0.2-0.24,0.41-0.47,0.57-0.76
								c0.06-0.11,0.06-0.25-0.02-0.37c-0.11-0.17-0.34-0.23-0.51-0.12c-0.28,0.17-0.49,0.4-0.72,0.62
								c-0.2,0.24-0.41,0.47-0.57,0.76c-0.06,0.11-0.06,0.26,0.02,0.37C322.83,315.2,323.06,315.26,323.23,315.15z"/>
							<path class="st0" d="M325.12,313.12c0.12,0,0.18-0.06,0.25-0.12c0.05-0.07,0.1-0.14,0.1-0.26c0,0,0-0.01,0-0.01
								c-0.01-0.28-0.25-0.49-0.53-0.48c-0.12,0-0.18,0.06-0.25,0.12c-0.05,0.07-0.1,0.14-0.1,0.26c0,0,0,0.01,0,0.01
								C324.61,312.91,324.85,313.13,325.12,313.12z"/>
							<path class="st0" d="M333.62,303.98c2.07-2.11,4.12-4.24,6.15-6.4l0,0c0.17-0.18,0.16-0.48-0.03-0.65
								c-0.19-0.17-0.48-0.16-0.65,0.02c-2.01,2.17-3.99,4.37-5.95,6.58c-0.11,0.13-0.11,0.33,0.02,0.45
								C333.29,304.11,333.5,304.11,333.62,303.98z"/>
							<path class="st0" d="M332.55,305.18c0.12,0,0.18-0.06,0.25-0.12c0.05-0.07,0.1-0.14,0.1-0.26c0,0,0-0.01,0-0.01
								c-0.02-0.28-0.25-0.49-0.53-0.48c-0.12,0-0.18,0.06-0.25,0.12c-0.05,0.07-0.1,0.14-0.1,0.26c0,0,0,0.01,0,0.01
								C332.04,304.97,332.28,305.19,332.55,305.18z"/>
							<path class="st0" d="M331.43,306.39c0.12,0,0.18-0.06,0.25-0.12c0.05-0.07,0.1-0.14,0.1-0.26c0,0,0-0.01,0-0.01
								c-0.02-0.28-0.25-0.49-0.53-0.48c-0.12,0-0.18,0.06-0.25,0.12c-0.05,0.07-0.1,0.14-0.1,0.26c0,0,0,0.01,0,0.01
								C330.91,306.18,331.15,306.4,331.43,306.39z"/>
							<path class="st0" d="M330.3,307.6c0.12,0,0.18-0.06,0.25-0.12c0.05-0.07,0.1-0.14,0.1-0.26c0,0,0-0.01,0-0.01
								c-0.02-0.28-0.25-0.49-0.53-0.48c-0.12,0-0.18,0.06-0.25,0.12c-0.05,0.07-0.1,0.14-0.1,0.26c0,0,0,0.01,0,0.01
								C329.78,307.39,330.02,307.61,330.3,307.6z"/>
							<path class="st0" d="M326.42,311.75c0.53-0.45,1.01-0.95,1.49-1.45c0.46-0.51,0.93-1.02,1.34-1.59
								c0.09-0.13,0.09-0.32-0.02-0.45c-0.13-0.15-0.36-0.17-0.51-0.05c-0.53,0.45-1.01,0.95-1.49,1.45
								c-0.46,0.51-0.93,1.02-1.34,1.59c-0.09,0.13-0.09,0.31,0.02,0.45C326.04,311.86,326.27,311.88,326.42,311.75z"/>
							<path class="st0" d="M339.47,332.14c0.08,0.21,0.38,0.19,0.66-0.03c0.45-0.36,0.84-0.77,1.24-1.18
								c0.38-0.42,0.76-0.84,1.09-1.31c0.13-0.19,0.18-0.39,0.13-0.53c-0.08-0.21-0.38-0.19-0.66,0.03
								c-0.45,0.36-0.84,0.77-1.24,1.18c-0.38,0.42-0.76,0.84-1.09,1.31C339.47,331.8,339.41,332,339.47,332.14z"/>
							<path class="st0" d="M343.56,328.42c0.17-0.06,0.28-0.16,0.39-0.27c0.1-0.12,0.2-0.24,0.24-0.41c0,0,0-0.01,0-0.01
								c0.09-0.39-0.15-0.61-0.53-0.48c-0.17,0.05-0.28,0.16-0.39,0.27c-0.1,0.12-0.2,0.24-0.24,0.41c0,0,0,0.01,0,0.02
								C342.93,328.34,343.17,328.55,343.56,328.42z"/>
							<path class="st0" d="M358.95,311.89c3.71-3.86,7.39-7.75,11.06-11.66l0,0c0.31-0.33,0.41-0.75,0.22-0.92s-0.59-0.04-0.9,0.29
								c-3.64,3.93-7.26,7.87-10.86,11.84c-0.21,0.23-0.28,0.51-0.16,0.64C358.44,312.21,358.73,312.13,358.95,311.89z"/>
							<path class="st0" d="M357,314.04c0.17-0.06,0.28-0.16,0.39-0.27c0.1-0.12,0.2-0.24,0.24-0.41c0,0,0-0.01,0-0.02
								c0.09-0.39-0.15-0.6-0.53-0.48c-0.17,0.06-0.28,0.16-0.39,0.27c-0.1,0.12-0.2,0.24-0.24,0.41c0,0,0,0.01,0,0.01
								C356.37,313.95,356.61,314.16,357,314.04z"/>
							<path class="st0" d="M354.95,316.23c0.17-0.06,0.28-0.16,0.39-0.27c0.1-0.12,0.2-0.24,0.24-0.41c0,0,0-0.01,0-0.02
								c0.09-0.39-0.15-0.6-0.53-0.48c-0.17,0.06-0.28,0.16-0.39,0.27c-0.1,0.12-0.2,0.24-0.24,0.41c0,0,0,0.01,0,0.01
								C354.33,316.14,354.57,316.36,354.95,316.23z"/>
							<path class="st0" d="M352.91,318.42c0.17-0.05,0.28-0.16,0.39-0.27c0.1-0.12,0.2-0.24,0.24-0.41c0,0,0-0.01,0-0.02
								c0.09-0.39-0.15-0.6-0.53-0.48c-0.17,0.06-0.28,0.16-0.39,0.27c-0.1,0.12-0.2,0.24-0.24,0.41c0,0,0,0.01,0,0.01
								C352.29,318.33,352.52,318.55,352.91,318.42z"/>
							<path class="st0" d="M345.9,325.94c0.92-0.86,1.77-1.77,2.64-2.68c0.84-0.92,1.69-1.84,2.49-2.82
								c0.18-0.23,0.25-0.49,0.15-0.63c-0.12-0.17-0.42-0.11-0.68,0.14c-0.92,0.86-1.77,1.77-2.64,2.68
								c-0.84,0.92-1.69,1.84-2.49,2.82c-0.18,0.23-0.25,0.49-0.15,0.63C345.33,326.25,345.64,326.19,345.9,325.94z"/>
							<path class="st0" d="M371.42,331.72c0.43-0.34,0.8-0.73,1.18-1.12c0.36-0.4,0.73-0.8,1.03-1.26
								c0.12-0.18,0.17-0.37,0.11-0.51c-0.08-0.2-0.37-0.19-0.64,0.02c-0.43,0.34-0.81,0.73-1.18,1.12c-0.36,0.4-0.73,0.8-1.03,1.26
								c-0.12,0.18-0.17,0.38-0.11,0.51C370.86,331.94,371.15,331.94,371.42,331.72z"/>
							<path class="st0" d="M374.7,328.21c0.16-0.05,0.27-0.15,0.38-0.25c0.09-0.12,0.19-0.23,0.23-0.39c0,0,0-0.01,0-0.01
								c0.08-0.38-0.16-0.59-0.53-0.48c-0.16,0.05-0.27,0.15-0.38,0.25c-0.09,0.12-0.19,0.23-0.23,0.39c0,0,0,0.01,0,0.02
								C374.08,328.11,374.32,328.33,374.7,328.21z"/>
							<path class="st0" d="M389.4,312.42c3.54-3.69,7.06-7.4,10.56-11.13l0,0c0.3-0.32,0.38-0.72,0.2-0.89
								c-0.19-0.17-0.58-0.05-0.88,0.26c-3.48,3.75-6.93,7.52-10.36,11.31c-0.2,0.22-0.26,0.49-0.14,0.62
								C388.91,312.72,389.18,312.65,389.4,312.42z"/>
							<path class="st0" d="M387.53,314.47c0.16-0.05,0.27-0.15,0.38-0.25c0.09-0.12,0.19-0.23,0.23-0.39c0,0,0-0.01,0-0.02
								c0.08-0.38-0.16-0.59-0.53-0.48c-0.16,0.05-0.27,0.15-0.38,0.25c-0.09,0.12-0.19,0.23-0.23,0.39c0,0,0,0.01,0,0.01
								C386.92,314.37,387.16,314.59,387.53,314.47z"/>
							<path class="st0" d="M385.58,316.57c0.16-0.05,0.27-0.15,0.38-0.25c0.09-0.12,0.19-0.23,0.23-0.39c0,0,0-0.01,0-0.02
								c0.08-0.38-0.16-0.59-0.53-0.48c-0.16,0.05-0.27,0.15-0.38,0.25c-0.09,0.12-0.19,0.23-0.23,0.39c0,0,0,0.01,0,0.01
								C384.97,316.47,385.21,316.68,385.58,316.57z"/>
							<path class="st0" d="M383.63,318.66c0.16-0.05,0.27-0.15,0.38-0.25c0.09-0.12,0.19-0.23,0.23-0.39c0,0,0-0.01,0-0.02
								c0.08-0.38-0.16-0.59-0.53-0.48c-0.16,0.05-0.27,0.15-0.38,0.25c-0.09,0.12-0.19,0.23-0.23,0.39c0,0,0,0.01,0,0.01
								C383.02,318.56,383.25,318.77,383.63,318.66z"/>
							<path class="st0" d="M376.93,325.84c0.88-0.82,1.7-1.69,2.52-2.55c0.81-0.88,1.62-1.76,2.37-2.69
								c0.17-0.22,0.24-0.47,0.14-0.61c-0.12-0.17-0.42-0.11-0.67,0.12c-0.88,0.82-1.7,1.69-2.52,2.55
								c-0.81,0.88-1.62,1.76-2.37,2.69c-0.17,0.22-0.24,0.47-0.14,0.61C376.38,326.13,376.68,326.07,376.93,325.84z"/>
						</g>
						<polygon class="st38" points="334.95,371.15 338.57,358.33 376.98,358.33 379.07,371.15 						"/>
						<g>
							<circle class="st7" cx="324.96" cy="383.81" r="8.1"/>
							<path class="st35" d="M329.83,383.81c0,2.69-2.18,4.87-4.87,4.87c-2.69,0-4.87-2.18-4.87-4.87s2.18-4.87,4.87-4.87
								C327.65,378.94,329.83,381.12,329.83,383.81z"/>
							<path class="st36" d="M321.76,382.92l2.78-7.32c0.15-0.39,0.52-0.65,0.94-0.65h9.66c0.88,0,1.34,1.05,0.74,1.7l-8.69,9.38
								c-0.72,0.78-1.84,1.07-2.85,0.74l-0.87-0.28C321.99,386,321.21,384.38,321.76,382.92z"/>
							<path class="st7" d="M326.83,383.81c0,1.03-0.83,1.86-1.86,1.86c-1.03,0-1.86-0.83-1.86-1.86c0-1.03,0.83-1.86,1.86-1.86
								C325.99,381.94,326.83,382.78,326.83,383.81z"/>
						</g>
						<g>
							<circle class="st7" cx="386.82" cy="383.81" r="8.1"/>
							<path class="st35" d="M381.95,383.81c0,2.69,2.18,4.87,4.87,4.87c2.69,0,4.87-2.18,4.87-4.87s-2.18-4.87-4.87-4.87
								C384.13,378.94,381.95,381.12,381.95,383.81z"/>
							<path class="st36" d="M390.02,382.92l-2.78-7.32c-0.15-0.39-0.52-0.65-0.94-0.65h-9.66c-0.88,0-1.34,1.05-0.74,1.7l8.69,9.38
								c0.72,0.78,1.84,1.07,2.85,0.74l0.87-0.28C389.8,386,390.58,384.38,390.02,382.92z"/>
							<path class="st7" d="M384.96,383.81c0,1.03,0.83,1.86,1.86,1.86c1.03,0,1.86-0.83,1.86-1.86c0-1.03-0.83-1.86-1.86-1.86
								C385.79,381.94,384.96,382.78,384.96,383.81z"/>
						</g>
					</g>
					<g>

							<ellipse transform="matrix(0.228 -0.9737 0.9737 0.228 24.6549 627.6399)" class="st4" cx="408.11" cy="298.27" rx="18.32" ry="18.32"/>
						<g>
							<path class="st7" d="M411.51,288.51v16.16h3.07c0.6,0,0.86,0.43,0.86,1.44v0.49c0,1-0.26,1.44-0.86,1.44h-11.14
								c-0.6,0-0.86-0.43-0.86-1.44v-0.49c0-1.01,0.26-1.44,0.86-1.44h3.82v-12.89l-3.9,0.57c-0.75,0-0.92-1.61-0.92-2.41
								c0-0.43,0.26-0.72,0.75-0.8l7.15-1.32C410.79,287.82,411.51,288.17,411.51,288.51z"/>
						</g>
					</g>
				</g>
				<g>
					<polygon class="st5" points="334.71,284.48 334.71,298.91 368.79,299.8 368.79,283 					"/>
					<polygon class="st39" points="368.79,283 368.79,299.8 385.03,300.32 385.03,285.94 					"/>
					<polygon class="st4" points="333.71,281.75 369.58,280.29 369.58,284.98 333.71,286.47 					"/>
					<polygon class="st5" points="369.58,284.98 386.21,287.82 386.21,283.38 369.58,280.29 					"/>
				</g>
			</g>
			<g>
				<ellipse class="st22" cx="255.93" cy="383.67" rx="49.29" ry="2.84"/>
			</g>
			<g>
				<g>
					<g>
						<path class="st34" d="M279.73,351.13c0.8,7.92,7.46,19.52,10.04,25.98c0.76,1.9,4.37,0.84,3.96-1.17
							c-1.39-6.85-2.34-20.72-2.97-27.79C290.01,339.83,278.97,343.59,279.73,351.13z"/>
						<g>
							<defs>
								<path id="SVGID_1_" d="M289.87,377.08c0,0-0.77,2.18,0.54,5.11c-0.24,0.11-0.06,1.08,0.37,1.29
									c0.51,0.24,4.16,0.18,4.9-0.39c0.16-0.28-0.02-0.66-0.02-0.66s0.91,0.35,3.51-0.14c2.6-0.49,3.99-1.24,5-1.88
									c0.31-0.19,0.09-0.89-0.25-0.78c0,0-0.22-1.8-1.73-1.71c-3.09,0.2-5.31-1.06-6.89-2.01c-0.78-0.47-1.57-0.87-2.06-0.89
									C292,374.95,290.38,375.68,289.87,377.08z"/>
							</defs>
							<use xlink:href="#SVGID_1_"  style="overflow:visible;fill:#ED0C37;"/>
							<clipPath id="SVGID_2_">
								<use xlink:href="#SVGID_1_"  style="overflow:visible;"/>
							</clipPath>
							<path class="st40" d="M290.41,382.19c2.19,0.25,5.26-0.08,5.26-0.08s5.92-0.1,8.25-2.48c2.33-2.38,4.35,0.16,4.35,0.16
								l-9.69,7.72l-6.33-0.49l-2.83-2.39C289.42,384.62,289.19,382.05,290.41,382.19z"/>
							<path class="st41" d="M289.4,377.25c0,0,0.85,1.48,2.59,1.11c1.74-0.37,1.92-1.44,1.53-3.3
								C293.13,373.2,287.57,374.43,289.4,377.25z"/>
						</g>
					</g>
					<g>
						<path class="st42" d="M253.81,294.43c0,0,11.39,20.49,15.15,28.86s8.52,29.05,8.52,29.05s9.36,1.97,14.27-2.42
							c0,0-1.57-21.82-4.24-31.62c-2.67-9.8-12.83-33.85-12.83-33.85C270.61,275.82,249.73,285.8,253.81,294.43z"/>
						<path class="st35" d="M263.13,310.46c0.13-0.13,0.91-3.74,3.22-7.77c2.01-3.51,6.86-6.27,7.39-5.84
							c0.91,0.74-6.32,6.11-7.72,9.99c0,0,8.05-5.86,8.61-5.08C275.15,302.46,266.3,307.3,263.13,310.46z"/>
					</g>
				</g>
				<g>
					<path class="st15" d="M261.93,243.93c1.88,8.66,4.8,20.2,11.22,25.83c6.43,5.63,20.38,8.76,21.05,8.76
						c1.55,0.36,3.22-7.84,1.99-8.79c-1.23-0.95-12.21-5.38-14.16-7.26c-3.48-3.36-2-23.82-5.94-28.28
						C272.14,229.73,259.74,233.84,261.93,243.93z"/>
					<path class="st43" d="M297.01,271.21c0,0,4.89,4.06,5.18,5.17c0.29,1.11,0.17,2.93-0.23,3.39c-0.4,0.46-3.39,1.96-4.53,1.18
						c-1.14-0.78-2.72-2.57-2.72-2.57l0.54-2c0,0-0.37,1.37-3.33-0.49C288.96,274.03,294.19,268.4,297.01,271.21z"/>
				</g>
				<g>
					<g>
						<path class="st34" d="M228.83,345.25c-5.9,5.35-11.27,17.59-14.94,23.51c-1.08,1.74,1.92,4.01,3.29,2.49
							c4.68-5.18,15.27-14.19,20.59-18.9C244.03,346.8,234.45,340.16,228.83,345.25z"/>
						<g>
							<defs>
								<path id="SVGID_3_" d="M214.56,368.16c0,0-2.24,0.54-3.99,3.24c-0.22-0.14-0.94,0.54-0.88,1.01c0.07,0.56,2.11,3.59,3,3.89
									c0.32-0.01,0.54-0.38,0.54-0.38s0.21,0.96,2.04,2.87c1.83,1.91,3.22,2.67,4.31,3.17c0.33,0.15,0.79-0.4,0.51-0.63
									c0,0,1.39-1.17,0.49-2.38c-1.85-2.48-2.01-5.03-2.07-6.87c-0.03-0.91-0.13-1.79-0.37-2.21
									C217.51,368.79,216.01,367.83,214.56,368.16z"/>
							</defs>
							<use xlink:href="#SVGID_3_"  style="overflow:visible;fill:#ED0C37;"/>
							<clipPath id="SVGID_4_">
								<use xlink:href="#SVGID_3_"  style="overflow:visible;"/>
							</clipPath>
							<path class="st44" d="M210.57,371.4c0.99,1.98,2.93,4.36,2.93,4.36s3.32,4.91,6.58,5.57c3.26,0.66,2.24,3.73,2.24,3.73
								l-11.75-3.92l-3.04-5.58l0.46-3.67C207.99,371.9,210.02,370.3,210.57,371.4z"/>
							<path class="st45" d="M214.16,367.87c0,0-0.78,1.52,0.48,2.78c1.26,1.26,2.25,0.82,3.6-0.52
								C219.59,368.78,215.53,364.79,214.16,367.87z"/>
						</g>
					</g>
					<g>
						<path class="st7" d="M241.75,286.75c0,0,1.58,30.04-1.79,37.91c-3.37,7.87-12.13,20.67-12.13,20.67s2.4,7.45,11.29,8.52
							c0,0,13.4-9.44,18.65-23.72c5.26-14.29,9.66-30.02,7.53-41.67C264.1,281.91,243.44,277.17,241.75,286.75z"/>
						<path class="st46" d="M245.67,286.47c0,0,0.19,25.01-0.98,34.69c-1.13,9.39-15.57,26.68-15.57,26.68"/>
					</g>
				</g>
				<g>
					<g>
						<path class="st0" d="M275.38,234.88c2.31,4.6-1.81,22.08-1.81,29.72c0,6.21,1.02,16.59,1.94,20.51
							c0.25,1.04-0.22,2.12-1.15,2.66c-3.57,2.1-8.33,3.2-11.26,3.49c-11.31,1.09-16.77-0.89-19.34-1.87c-1.39-0.53-2.22-1.94-2-3.4
							c0.57-3.82,2.18-13.16,0.8-21.75c-1.8-11.24-4.75-26.54,0.53-31.26c5.27-4.72,15.15-7.66,15.15-7.66
							S272.52,229.19,275.38,234.88z"/>
						<g>
							<path class="st35" d="M260.63,220.53c0,0-2.54-0.42-6.01-4.75c-2.28-2.83-5.45-15.65,4.6-17.59
								c10.05-1.94,13.02,4.86,13.47,9.3c0.46,4.44-4.53,8.11-6.79,9.71C263.65,218.8,260.63,220.53,260.63,220.53z"/>
							<path class="st34" d="M258.18,215.36c0,0-0.31,3.88-1.45,6.91c-1.15,3.03-2.38,3.96-3.82,5.25
								c-1.45,1.29,5.78,8.96,12.21,10.91c0,0,4.66-5.68,2.53-8.85c-2.14-3.17-3.83-3.45-3.07-7.67c0.67-3.69,1.07-5.73,1.07-5.73
								L258.18,215.36z"/>
							<g>
								<g>
									<g>
										<path class="st47" d="M258.18,215.36c0,0-0.32,2.87,0.83,4.1c1.16,1.23,3.23,4.2,7.95,3.86
											c6.31-0.46,3.86-10.47,3.86-10.47s0.66-3.85,0-7.01c-0.66-3.16-6.9-4.82-11.99-3.27c0,0-1.46,1.39-0.9,7.6
											c0,0-0.94-1.13-2.41-0.32c-1.12,0.61-1.24,2.05-0.86,3.42C255.11,214.9,256.82,216.3,258.18,215.36z"/>
									</g>
									<path class="st48" d="M257.65,214.76l-0.55-1.48l0.95-0.39c0,0-0.61-2.76-2.15-1.74
										C254.62,211.99,256.07,215.32,257.65,214.76z"/>
								</g>
								<path class="st35" d="M258.32,212.56c0,0-0.62,3.88-0.53,5.61c0.09,1.73,1.8,7.12,9.7,6.64c7.84-0.48,5.03-8.98,3.71-9.56
									c0.05,0.57-0.23,1.48-0.78,1.88c-0.32-0.79-1.24-1.36-2.53-1.09c-1.12-0.64-2.41-0.24-3.77,0.57l-0.98,0.68
									c-2.44-0.6-3.71-2.21-4.01-4.63L258.32,212.56z"/>
								<g>
									<path class="st0" d="M265.11,217.44c0,0,4.15,0,4.24,0.28c0.1,0.28-0.49,0.85-2.12,0.85
										C265.61,218.57,265.11,217.44,265.11,217.44z"/>
									<path class="st48" d="M265,217.37c0.22-0.12,0.2-0.04,0.26-0.06l0.15,0.01l0.29,0.01l0.58,0.03l1.16,0.04
										c0.39,0.02,0.77,0.04,1.16,0.08c0.19,0.02,0.39,0.04,0.58,0.09c0.05,0.02,0.1,0.03,0.15,0.05c0.08,0.05,0.11,0.12,0.1,0.18
										c-0.01,0.13-0.08,0.22-0.15,0.3c-0.65,0.53-1.49,0.56-2.26,0.56c-0.4-0.02-0.8-0.11-1.15-0.31
										c-0.18-0.09-0.35-0.21-0.5-0.35c-0.07-0.07-0.14-0.15-0.21-0.23l-0.09-0.13l-0.04-0.07l-0.02-0.04l-0.01-0.02
										C265,217.54,264.96,217.41,265,217.37z M265.23,217.52c0.05-0.03,0.01-0.15,0.02-0.12l0.01,0.01l0.01,0.03l0.03,0.06
										l0.07,0.11c0.05,0.07,0.11,0.14,0.17,0.21c0.12,0.13,0.27,0.25,0.43,0.34c0.32,0.19,0.69,0.28,1.06,0.31
										c0.74,0.02,1.58-0.01,2.16-0.47c0.37-0.37-0.28-0.31-0.61-0.37c-0.38-0.03-0.77-0.05-1.15-0.06l-1.16-0.02l-0.58,0.01
										l-0.29,0.01l-0.14,0C265.22,217.55,265.11,217.64,265.23,217.52z"/>
								</g>
								<g>
									<path class="st35" d="M265.65,212.32c-0.03,0.35-0.49,0.38-1.05,0.33c-0.56-0.05-1.01-0.15-0.98-0.5
										c0.03-0.35,0.51-0.6,1.07-0.55C265.25,211.65,265.68,211.97,265.65,212.32z"/>
									<path class="st35" d="M261.94,210.65c-0.02,0.05,1.6-0.51,2.11-0.5c0.51,0.01,2.44,0.31,2.6,0.13
										c0.16-0.19,0.29-0.83,0.29-0.83s-2.63-0.26-3.17-0.12C263.23,209.46,262.09,210.21,261.94,210.65z"/>
								</g>
								<g>
									<path class="st35" d="M270.79,212.75c-0.03,0.35-0.49,0.38-1.05,0.33c-0.56-0.05-1.01-0.15-0.98-0.5
										c0.03-0.35,0.51-0.6,1.07-0.55C270.39,212.08,270.82,212.4,270.79,212.75z"/>
									<path class="st35" d="M271.51,211.45c0,0.05-0.69-0.83-1.04-0.9c-0.35-0.07-2.02,0.08-2.1-0.13
										c-0.08-0.21-0.08-0.87-0.08-0.87s2.23,0.17,2.58,0.38C271.21,210.15,271.47,210.99,271.51,211.45z"/>
								</g>
								<g>
									<path class="st49" d="M267.91,215.74c0,0-1.3-0.04-1.27-0.4c0.03-0.36,2.74-0.75,2.89-0.49
										C269.68,215.11,268.49,215.58,267.91,215.74z"/>
									<path class="st48" d="M268.13,210.35c0,0-0.38,1.62-0.18,2.21c0.19,0.58,1.38,1.9,1.41,2.18c0.03,0.28-1.35,0.96-1.45,1
										c-0.1,0.04,1.96-0.27,1.9-0.91c-0.06-0.64-1.59-2.24-1.64-2.55C268.1,211.96,268.13,210.35,268.13,210.35z"/>
								</g>
								<path class="st35" d="M258.89,213.04c0.4-0.27,1.06-2.62,0.36-4.87c-0.63-2.02,0.96-3.51,2.09-3.64
									c1.29-0.14,5.46,1.04,7.11,0.84c3.61-0.44,6.42-1.51,6.41-2.18c-0.01-0.67-2.65,0.02-2.65,0.02s4.03-1.03,3.67-4.4
									c0,0-3.03,0.22-5.74-0.7c-2.71-0.93-9.18-2-12.63,0.56c-2.26,1.67-3.86,7.13-0.87,9.91
									C257.99,209.84,258.11,213.56,258.89,213.04z"/>
							</g>
						</g>
						<path class="st50" d="M268.28,234.95c0,0-1.72,34.21-1.34,37.43c0.38,3.22-0.25,15.58,7.56,17.96c0,0-3.49-17.85-3-28.57
							C272,251.05,268.28,234.95,268.28,234.95z"/>
					</g>
					<path class="st17" d="M265.79,227.21c0,0,3.36,10.71,3.17,24.68c-0.19,13.96-0.75,42.61,9.58,41.94c0,0-4.36-17.6-4.09-23.99
						c0.27-6.39,3.73-29.89,2.46-33.91C275.07,230.09,265.79,227.21,265.79,227.21z"/>
					<g>
						<path class="st17" d="M253.93,226.7c0,0,6.97,10.9,9.2,29.38c1.06,8.81-0.13,22.77-1.46,31.68
							c-1.53,10.26-21.62,10.25-22.91,7.56c-1.29-2.69,4.46-19.74,2.67-29.42c-1.79-9.69-2.85-25.5-0.71-30.7
							C242.87,230,253.93,226.7,253.93,226.7z"/>
						<path class="st51" d="M243.85,245.22c0,0,3.42,16.49,2.98,25.22c-0.44,8.73-3.22,26.36-3.22,26.36"/>
						<path class="st15" d="M241.45,236.53c-0.43,1.04-0.72,2.53-0.91,4.31c1.88,14.38,9.97,30.5,22.39,36.28
							c0.41-4.67,0.66-9.6,0.59-14.03c-8.32-8.29-14.69-19.07-19.56-29.69C242.83,234.34,241.91,235.39,241.45,236.53z"/>
					</g>
				</g>
				<g>
					<path class="st34" d="M290.1,274.08c0,0,6.19,1.45,6.95,2.31c0.75,0.86,2.02,3.8,1.87,4.4c-0.15,0.59-3.43,1.89-4.8,1.7
						c-1.37-0.19-2.86-0.96-2.86-0.96c0.21-0.73,0.15-1.39-0.61-1.62c-0.8-0.25-1.66,0.18-3.06,0.81
						C284.4,282.14,286.33,272.82,290.1,274.08z"/>
					<path class="st38" d="M240.44,244.11c1.67,9.23,13.47,22.99,18.52,27.33c4.43,3.8,26.29,10.24,27.25,10.3
						c2.24,0.48,5.09-7.59,3.35-8.63c-1.74-1.04-21.23-10.01-23.34-12.35c-2.11-2.35-9.85-23.19-15.34-27.95
						C245.39,228.04,238.56,233.69,240.44,244.11z"/>
				</g>
			</g>
		</g>
		<g>
			<g>
				<path class="st52" d="M596.09,229.26c8.96-12.91,18.2-10.11,21.6-4.67c3.4,5.44,0.95,13.53-6.13,20.21
					c-5.07,5.08-15.23,8.63-23.39,10.57c-5.71-6.14-12.19-14.73-13.58-21.77c-2.17-9.49,0.28-17.57,6.13-20.21
					C586.56,210.75,595.8,213.55,596.09,229.26z"/>
			</g>
			<g class="st53">
				<path class="st54" d="M617.68,224.6c-2.9-4.65-10.06-7.36-17.67-0.02c6.48-5.11,15.77-5.21,16.58,4.14
					c0.85,9.81-7.01,16.52-16.07,14.81c-11.89-2.25-8.97-12.22-14.61-17.1c-4.42-3.71-9.66,1.9-9.89,6.5
					c-0.11,2.09,0.12,4.18,0.47,6.16c2.68,5.68,7.4,11.67,11.68,16.28c8.16-1.94,18.31-5.48,23.39-10.57
					C618.63,238.12,621.08,230.04,617.68,224.6z"/>
			</g>
		</g>
		<g>
			<ellipse class="st22" cx="486.47" cy="382.68" rx="49.29" ry="2.84"/>
			<g>
				<g>
					<g>
						<g>
							<g>
								<g>
									<defs>
										<path id="SVGID_5_" d="M495.55,371.58c0,0,2.05,1.79,2.39,2.3c0.34,0.5,1.66,4.22,1.66,4.22
											c-0.28,0.54-1.2,1.32-2.06,1.42l-1.66-2.13c0,0-0.85,3.73-1.7,4.94c-1.04,1.46-6.97,3.15-7.86,2.71
											c0,0-1.09-2.17,0.77-3.37c3.43-2.2,3.52-6.82,3.52-6.82C490.1,372.13,493.08,370.05,495.55,371.58z"/>
									</defs>
									<use xlink:href="#SVGID_5_"  style="overflow:visible;fill:#FD6141;"/>
									<clipPath id="SVGID_6_">
										<use xlink:href="#SVGID_5_"  style="overflow:visible;"/>
									</clipPath>
									<path class="st55" d="M485.62,384.71c0.11-0.05,7.59-1.06,8.48-3.27c0.69-1.73,1.15-4.65,1.55-4.99
										c0.4-0.34,2.29-2.57,2.29-2.57l3,5.22l-11.28,9.49L485.62,384.71z"/>
								</g>
								<path class="st56" d="M489.21,379.73l1.02,0.22c0,0,0.73-1,0.66-1.89l-1-0.35c-0.18-0.06-0.38,0.03-0.45,0.21l-0.5,1.35
									C488.88,379.46,489,379.68,489.21,379.73z"/>
							</g>
							<path class="st34" d="M482.39,268.25c-0.02-0.36-9.51,41.87-9.17,53.22c0.21,7.07,13.43,39.62,17.38,53.38
								c0.76,2.64,4.86-0.46,4.54-3.2c-1.55-13.17-1.45-20.09-7.26-48.71c-0.91-4.46,15.09-44.4,13.82-53.75
								C500.44,259.83,487.39,254.74,482.39,268.25z"/>
							<path class="st57" d="M501.7,269.19c-1.27-9.36-14.32-14.45-19.31-0.94c-0.02-0.34-8.61,37.86-9.15,51.35
								c4.26-3.24,9.93-1.53,14.84,1.05C489.97,310.9,502.84,277.63,501.7,269.19z"/>
						</g>
						<g>
							<g>
								<g>
									<defs>
										<path id="SVGID_7_" d="M509.18,374.32c0,0,1.28,2.4,1.42,3c0.14,0.59,0.05,4.54,0.05,4.54c-0.45,0.4-1.59,0.81-2.43,0.6
											l-0.79-2.58c0,0-1.22,2.52-2.45,3.35c-1.49,1-6.79,2.23-7.68,1.79c0,0-1.22-2.36,0.74-3.37c4.92-2.53,5.36-6.01,5.36-6.01
											C503.88,372.9,507.41,372.02,509.18,374.32z"/>
									</defs>
									<use xlink:href="#SVGID_7_"  style="overflow:visible;fill:#FD6141;"/>
									<clipPath id="SVGID_8_">
										<use xlink:href="#SVGID_7_"  style="overflow:visible;"/>
									</clipPath>
									<path class="st58" d="M496.68,384.77c0.12-0.01,6.17-0.59,7.63-1.75c1.46-1.16,2.73-3.93,3.23-4.11
										c0.5-0.18,3.05-1.59,3.05-1.59l0.95,5.94l-13.91,4.86L496.68,384.77z"/>
								</g>
								<path class="st56" d="M500.59,380.05l0.88,0.57c0,0,1.03-0.67,1.29-1.54l-0.81-0.68c-0.15-0.12-0.37-0.11-0.49,0.04
									l-0.94,1.09C500.38,379.68,500.42,379.93,500.59,380.05z"/>
							</g>
							<path class="st34" d="M491.75,270.97c-0.07,3.68,0.49,42.88,3.89,53.61c2.12,6.69,6.56,38.78,8.06,49.75
								c0.55,4,4.89,4,5.21,0.18c1.17-14.2,5.76-33.95,0.55-51.31c-1.3-4.34,4.73-49.09,0.99-57.62
								C506.71,257.06,492.03,257.38,491.75,270.97z"/>
							<path class="st57" d="M509.27,320.3c0.12-11.07,4.5-47.15,1.18-54.71c-3.74-8.52-18.42-8.2-18.7,5.39
								c-0.07,3.38,0.41,36.86,3.13,50.53C499.13,319.11,504.48,318.91,509.27,320.3z"/>
						</g>
						<g>
							<path class="st17" d="M482.81,263.66l-0.42,3.85c0,0-6.9,17.48-9.87,45.85c7.35-2.04,21.24,4.75,41.84,1.86
								c0,0,8.15-36.34-6.03-52.5C494.16,246.56,483.56,255.1,482.81,263.66z"/>
							<path class="st15" d="M482.84,267.36c0,0-0.55,5.44,8.87,6.4c9.41,0.96,18.75-5.84,18.52-7.84
								C509.98,263.92,482.84,267.36,482.84,267.36z"/>
							<path class="st59" d="M506.07,264.67c0,0,10.78,17.93,4.15,49.94"/>
						</g>
					</g>
					<g>
						<g>
							<path class="st34" d="M444.49,253.4c-0.07-0.01-3.98-0.24-4.65-0.05c-0.63,0.17-2.22,0.94-2.69,1.18
								c-1.08,0.54-0.03,1.32,0.79,1.25c1.16-0.1,1.58-0.31,2.07-0.24c0.27,0.04,0.49,0.11,0.7,0.18c-0.43,0.36-2.2,1.61-3.57,2.14
								c-0.77,0.3-1.46,0.5-2.57,0.85c-0.49,0.16-0.41,0.81,0.15,0.92c0.4,0.07,1.77,0.08,2.97-0.38c0.48-0.18,0.96-0.38,1.4-0.58
								c0.01,0.04-1.02,0.65-1.52,0.87c-0.73,0.33-1.46,0.47-2.52,0.86c-0.49,0.18-0.36,0.75,0.21,0.83
								c0.15,0.02,0.44,0.05,0.81,0.04c-0.2,0.26-0.06,0.66,0.39,0.72c0.21,0.03,0.65-0.01,1.2-0.1c0.07,0.13,0.21,0.27,0.43,0.28
								c3.97,0.01,6.35-2.16,8.52-2.66C450.08,255.99,447.08,253.89,444.49,253.4z"/>
							<path class="st42" d="M490.72,225.08c-2.7-1.53-7.31-2.04-10.94,3.14c-3.63,5.18-5.23,17.35-9.09,21.47
								c-2.3,2.46-23.15,3.17-24.64,3.91c-0.97,0.48-0.39,5.13-0.07,5.99c0.66,1.8,23.24,2.77,29.38,0.35
								C481.51,257.51,496.52,228.37,490.72,225.08z"/>
						</g>
						<path class="st35" d="M481.99,202.03c0.17-1.89,0.16-5.03,2.41-7.75c2.25-2.72,11.03-5.45,15.62-2.27
							c5.65,3.91,3.81,7.58,10.85,10.42c7.05,2.84,4.92,6,2.9,9.22c-2.01,3.22-1.31,3.75,1.95,7.13c3.26,3.38,7.58,11.79,0,16.58
							c-7.58,4.8-24,1.66-30.57-4.68c-6.58-6.34,1.18-10.51-0.64-14.29c-1.83-3.78-3.97-2.94-3.97-6.96
							C480.55,206.36,481.73,204.94,481.99,202.03z"/>
						<path class="st7" d="M496.21,220.58c0,0-14.95,2.49-15.45,7.06c-0.21,1.91,2.4,5.77,1.72,7.73
							c-0.98,2.86-2.55,4.52,0.34,11.32c2.34,5.49-1.67,16.87-1.55,18.22c0.46,5.06,8.48,5.99,11.77,5.91
							c4.69-0.11,18.19-3.13,18.19-6.09c0-2.56-6.25-8.07-6.86-12.46c-0.61-4.39,10.83-22,8.56-25.84
							C508.54,219,496.21,220.58,496.21,220.58z"/>
						<g>
							<path class="st34" d="M510.56,267.73c-0.07,0.01-3.86,0.99-4.45,1.37c-0.54,0.35-1.83,1.58-2.2,1.94
								c-0.86,0.85,0.38,1.26,1.13,0.94c1.07-0.45,1.41-0.78,1.9-0.86c0.27-0.04,0.5-0.05,0.72-0.04c-0.3,0.48-1.61,2.21-2.74,3.12
								c-0.64,0.52-1.24,0.92-2.19,1.6c-0.42,0.3-0.15,0.9,0.42,0.83c0.4-0.05,1.71-0.46,2.71-1.27c0.4-0.32,0.8-0.66,1.15-0.98
								c0.02,0.04-0.78,0.93-1.18,1.3c-0.59,0.54-1.25,0.89-2.14,1.59c-0.41,0.32-0.11,0.82,0.46,0.72
								c0.15-0.03,0.44-0.09,0.78-0.21c-0.11,0.31,0.15,0.65,0.59,0.57c0.21-0.04,0.62-0.21,1.12-0.46c0.1,0.11,0.28,0.18,0.49,0.13
								c2.36-0.54,6.39-3.92,7.3-5.14C516.67,268.49,513.17,267.41,510.56,267.73z"/>
							<path class="st7" d="M507.29,222.75c-2.42,1.95-4.58,6.06-1.09,11.33c3.48,5.28,13.4,10.77,15.82,15.86
								c1.44,3.04-11.96,16.07-11.98,17.73c-0.03,1.66,2.52,5.71,3.5,6.18c1.73,0.84,20.55-17.43,20.55-24.04
								C534.09,243.22,512.48,218.56,507.29,222.75z"/>
						</g>
						<path class="st34" d="M498.49,209.05c0,0,0.31,3.88,1.45,6.91c1.15,3.03,2.38,3.96,3.82,5.25c1.45,1.29-5.78,8.96-12.21,10.91
							c0,0-4.66-5.68-2.53-8.85c2.14-3.17,3.83-3.45,3.07-7.67c-0.67-3.69-1.07-5.73-1.07-5.73L498.49,209.05z"/>
						<g>
							<g>
								<path class="st0" d="M488.55,211.02c0,1.82-0.75,3.29-1.66,3.29c-0.92,0-1.66-1.48-1.66-3.29c0-1.23,0.35-2.29,0.85-2.86
									c0.16-0.2-0.04-0.36-0.2-0.15c-0.54,0.62-0.9,1.72-0.9,3.01c0,1.99,0.84,3.54,1.91,3.54c1.07,0,1.91-1.56,1.91-3.54
									c0-1.04-0.16-1.83-0.53-2.48c-0.04,0.05-0.14,0.13-0.19,0.18C488.39,209.32,488.55,210.1,488.55,211.02z"/>
							</g>
							<g>
								<path class="st47" d="M498.49,209.05c0,0-1.04,7.9-8.46,7.34c-3.73-0.28-5.63-7.93-4.18-9.85c0,0-0.66-3.85,0-7.01
									c0.66-3.16,6.9-4.82,11.99-3.27c0,0,1.46,1.39,0.9,7.6c0,0,0.94-1.13,2.41-0.32c1.12,0.61,1.24,2.05,0.86,3.42
									C501.55,208.58,499.85,209.99,498.49,209.05z"/>
								<path class="st48" d="M499.02,208.45l0.55-1.48l-0.95-0.39c0,0,0.61-2.76,2.15-1.74
									C502.04,205.67,500.6,209.01,499.02,208.45z"/>
								<g>
									<path class="st0" d="M501.38,211.02c0,1.82-0.75,3.29-1.66,3.29s-1.66-1.48-1.66-3.29c0-1.23,0.35-2.29,0.85-2.86
										c0.16-0.2-0.04-0.36-0.2-0.15c-0.54,0.62-0.9,1.72-0.9,3.01c0,1.99,0.84,3.54,1.91,3.54s1.91-1.56,1.91-3.54
										c0-1.04-0.16-1.83-0.53-2.48c-0.04,0.05-0.14,0.13-0.19,0.18C501.21,209.32,501.38,210.1,501.38,211.02z"/>
								</g>
							</g>
							<g>
								<g>
									<path class="st17" d="M488.07,211.46c0,0,0.5-1.23,4.4-0.83C492.03,212.69,488.38,213.71,488.07,211.46z"/>
									<g>
										<path class="st48" d="M488.07,211.46c0,0,2.35,0.01,4.4-0.83"/>
										<path class="st48" d="M488.07,211.46c1.5-0.2,2.94-0.44,4.4-0.83c-0.66,0.38-1.4,0.58-2.14,0.73
											C489.58,211.48,488.83,211.55,488.07,211.46z"/>
									</g>
								</g>
								<g>
									<path class="st35" d="M485.88,206.44c0.03,0.35,0.49,0.38,1.05,0.33c0.56-0.05,1.01-0.15,0.98-0.5s-0.51-0.6-1.07-0.55
										C486.28,205.77,485.85,206.09,485.88,206.44z"/>
									<path class="st35" d="M484.71,204.98c-0.02,0.05,1.3-1.12,1.65-1.1c0.35,0.02,1.67,0.51,1.8,0.33
										c0.13-0.18,0.26-0.58,0.26-0.58s-1.85-0.35-2.24-0.23C485.79,203.52,484.86,204.54,484.71,204.98z"/>
								</g>
								<g>
									<path class="st35" d="M491.01,206.01c0.03,0.35,0.49,0.38,1.05,0.33c0.56-0.05,1.01-0.15,0.98-0.5
										c-0.03-0.35-0.51-0.6-1.07-0.55C491.41,205.34,490.98,205.66,491.01,206.01z"/>
									<path class="st35" d="M494.34,203.78c0.03,0.05-1.74-0.68-2.18-0.57c-0.44,0.11-1.86,0.83-2.04,0.68s-0.4-0.51-0.4-0.51
										s2.07-0.7,2.57-0.68C492.79,202.72,494.1,203.38,494.34,203.78z"/>
								</g>
								<g>
									<path class="st49" d="M488.76,209.43c0,0,1.3-0.04,1.27-0.4c-0.03-0.35-2.74-0.74-2.89-0.49
										C486.99,208.8,488.18,209.27,488.76,209.43z"/>
									<path class="st48" d="M488.54,204.04c0,0,0.38,1.62,0.18,2.21c-0.19,0.58-1.38,1.9-1.41,2.18c-0.03,0.28,1.35,0.96,1.45,1
										c0.1,0.04-1.96-0.27-1.9-0.91c0.06-0.64,1.59-2.24,1.64-2.55C488.57,205.65,488.54,204.04,488.54,204.04z"/>
								</g>
							</g>
						</g>
						<path class="st35" d="M496.21,196.83c-6.18,0.65-8.93,6.48-13.46,6.48c-2.8-4.87,5.76-17.23,15.87-7.64
							c4.63,4.4,0.45,7.77,0.45,7.77l-1.03,3.56c0,0,0.09-2.67-0.86-3.69C494.39,200.29,496.21,196.83,496.21,196.83z"/>
					</g>
				</g>
			</g>
		</g>
		<g>
			<path class="st60" d="M455.75,164.04l-63.54-15.64l0,0l-8.04-1.98c-3.13-0.77-6.29,1.14-7.06,4.27l-6.31,25.65l0,0l-0.36,1.46
				l-2.89,11.73c-0.77,3.13,1.14,6.29,4.27,7.06l70.44,17.34c3.13,0.77,6.29-1.14,7.06-4.27l0.84-3.43l0,0l2.4-9.76l0,0l3.5-14.24
				l0,0l3.09-12.55C459.78,167.18,458.25,164.66,455.75,164.04z"/>
			<g>
				<path class="st5" d="M441.13,211.61l-70.44-17.34c-3.13-0.77-5.04-3.93-4.27-7.06l9.56-38.84c0.77-3.13,3.93-5.04,7.06-4.27
					l70.44,17.34c3.13,0.77,5.04,3.93,4.27,7.06l-9.56,38.84C447.42,210.46,444.26,212.38,441.13,211.61z"/>
				<path class="st4" d="M380.82,158.1c-2.4,6.39-1.6,15.18,4.79,18.38c22.89,13.64,47.27,12.43,69.33,3.43l3.09-12.55
					c0.62-2.5-0.91-5.02-3.41-5.64l-63.54-15.64C386.32,148.79,382.89,153.44,380.82,158.1z"/>

					<rect x="367.25" y="183.94" transform="matrix(0.971 0.239 -0.239 0.971 57.0211 -92.3521)" class="st7" width="84.21" height="10.06"/>
				<path class="st7" d="M405.12,160.54l-24.71-6.08c-1.26-0.31-2.02-1.58-1.71-2.83l0.08-0.34c0.31-1.26,1.58-2.02,2.83-1.71
					l24.71,6.08c1.26,0.31,2.02,1.58,1.71,2.83l-0.08,0.34C407.65,160.08,406.38,160.85,405.12,160.54z"/>
				<path class="st7" d="M426.79,171.05l-48.71-11.99c-0.63-0.15-1.01-0.79-0.86-1.42l0.04-0.17c0.15-0.63,0.79-1.01,1.42-0.86
					l48.71,11.99c0.63,0.15,1.01,0.79,0.86,1.42l-0.04,0.17C428.05,170.82,427.42,171.2,426.79,171.05z"/>
				<g>
					<path class="st0" d="M416.81,180.31l-1.59-0.39c-0.88-0.22-1.42-1.11-1.2-1.99l0.06-0.24c0.22-0.88,1.11-1.42,1.99-1.2
						l1.59,0.39c0.88,0.22,1.42,1.11,1.2,1.99l-0.06,0.24C418.58,179.99,417.69,180.53,416.81,180.31z"/>
					<path class="st0" d="M422.89,181.81l-1.59-0.39c-0.88-0.22-1.42-1.11-1.2-1.99l0.06-0.24c0.22-0.88,1.11-1.42,1.99-1.2
						l1.59,0.39c0.88,0.22,1.42,1.11,1.2,1.99l-0.06,0.24C424.67,181.49,423.78,182.03,422.89,181.81z"/>
					<path class="st0" d="M428.98,183.31l-1.59-0.39c-0.88-0.22-1.42-1.11-1.2-1.99l0.06-0.24c0.22-0.88,1.11-1.42,1.99-1.2
						l1.59,0.39c0.88,0.22,1.42,1.11,1.2,1.99l-0.06,0.24C430.76,182.99,429.86,183.53,428.98,183.31z"/>
				</g>
				<g>
					<path class="st17" d="M443.37,165.3c-0.72-1.26-1.93-2.23-3.44-2.6c-2.94-0.72-5.91,1.07-6.63,4.01
						c-0.72,2.94,1.07,5.91,4.01,6.63c1.52,0.37,3.04,0.07,4.26-0.71c-0.67-1.18-0.92-2.6-0.57-4.03
						C441.35,167.18,442.23,166.03,443.37,165.3z"/>
					<path class="st17" d="M447.63,164.59c-1.52-0.37-3.04-0.07-4.26,0.71c0.67,1.18,0.92,2.6,0.57,4.03
						c-0.35,1.42-1.23,2.57-2.37,3.3c0.72,1.26,1.93,2.23,3.44,2.6c2.94,0.72,5.91-1.07,6.63-4.01S450.57,165.31,447.63,164.59z"/>
				</g>
			</g>
		</g>
	</g>
	<path class="st30" d="M315.99,113.2h-28.2c-3.65,0-6.6-2.96-6.6-6.6l0,0c0-3.65,2.96-6.6,6.6-6.6h28.2c3.65,0,6.6,2.96,6.6,6.6l0,0
		C322.59,110.25,319.64,113.2,315.99,113.2z"/>
	<path class="st30" d="M345.54,113.2h-28.2c-3.65,0-6.6-2.96-6.6-6.6l0,0c0-3.65,2.96-6.6,6.6-6.6h28.2c3.65,0,6.6,2.96,6.6,6.6l0,0
		C352.14,110.25,349.19,113.2,345.54,113.2z"/>
	<path class="st30" d="M375.88,113.2h-28.2c-3.65,0-6.6-2.96-6.6-6.6l0,0c0-3.65,2.96-6.6,6.6-6.6h28.2c3.65,0,6.6,2.96,6.6,6.6l0,0
		C382.48,110.25,379.52,113.2,375.88,113.2z"/>
	<path class="st30" d="M394.84,113.2h-28.2c-3.65,0-6.6-2.96-6.6-6.6l0,0c0-3.65,2.96-6.6,6.6-6.6h28.2c3.65,0,6.6,2.96,6.6,6.6l0,0
		C401.44,110.25,398.48,113.2,394.84,113.2z"/>
</g>
<g id="Layer_4">
</g>
<g id="DESIGNED_BY_FREEPIK" class="st26">
	<g class="st61">
		<g id="XMLID_319_">
			<g id="XMLID_338_">
				<path id="XMLID_346_" class="st62" d="M385.1,465.47c-0.43,0.44-0.8,0.93-1.11,1.45l-0.47-0.24c-0.07-0.3-0.35-0.5-0.66-0.47
					c-0.33,0.04-0.57,0.34-0.53,0.67c0.04,0.33,0.34,0.57,0.67,0.53c0.07-0.01,0.13-0.03,0.18-0.05l0.45,0.23
					c-0.25,0.55-0.43,1.14-0.54,1.74l0.75,0.13c0.23-1.31,0.85-2.51,1.79-3.47L385.1,465.47z"/>
				<path id="XMLID_345_" class="st62" d="M390.59,463.16c-0.17,0-0.34,0.01-0.51,0.02l-0.07-0.63c0.19-0.15,0.3-0.39,0.27-0.64
					c-0.05-0.39-0.4-0.67-0.8-0.63c-0.39,0.05-0.67,0.4-0.63,0.8c0.03,0.25,0.19,0.46,0.4,0.56l0.07,0.62
					c-0.71,0.12-1.4,0.33-2.06,0.65l0.33,0.68c0.93-0.45,1.94-0.67,3-0.67c0.5,0,0.99,0.05,1.48,0.16l0.16-0.74
					C391.69,463.22,391.14,463.16,390.59,463.16z"/>
				<path id="XMLID_344_" class="st62" d="M397.19,465.71c0.33-0.04,0.57-0.34,0.53-0.67c-0.04-0.33-0.34-0.57-0.67-0.53
					c-0.31,0.04-0.54,0.3-0.53,0.61l-0.42,0.36c-0.42-0.43-0.89-0.81-1.41-1.14l-0.4,0.64c1.13,0.71,2.02,1.73,2.56,2.93l0.69-0.31
					c-0.25-0.55-0.57-1.07-0.94-1.55l0.4-0.35C397.06,465.72,397.13,465.72,397.19,465.71z"/>
				<path id="XMLID_343_" class="st62" d="M390.04,473.37c-0.39,0.02-0.77,0.03-1.16,0.03c-0.88,0-1.73-0.06-2.48-0.18
					c-0.39-0.06-0.85-0.15-1.27-0.29c1.05,1.86,3.07,3.13,5.39,3.13c2.86,0,5.26-1.92,5.95-4.5c-0.68,0.45-1.51,0.83-2.46,1.12
					C392.84,473.05,391.46,473.29,390.04,473.37z"/>
				<path id="XMLID_339_" class="st62" d="M390.59,464.68c-3.35,0-6.08,2.67-6.08,5.94c0,0.43,0.05,0.85,0.14,1.26
					c0.67,0.48,2.71,0.89,5.35,0.73c2.88-0.17,5.3-0.96,6.67-2.16c-0.01-0.19-0.02-0.39-0.05-0.58
					C396.24,466.91,393.65,464.68,390.59,464.68z M388.43,471.19c-1.02,0-1.85-0.83-1.85-1.85c0-1.02,0.83-1.85,1.85-1.85
					c1.02,0,1.85,0.83,1.85,1.85C390.28,470.36,389.45,471.19,388.43,471.19z M393.17,470.29c-0.75,0-1.36-0.61-1.36-1.36
					s0.61-1.36,1.36-1.36c0.75,0,1.36,0.61,1.36,1.36S393.92,470.29,393.17,470.29z"/>
			</g>
			<path id="XMLID_336_" class="st62" d="M406.6,466.55c-0.29-0.12-0.81-0.31-1.38-0.24c-0.55,0.07-0.84,0.34-0.84,1.01v0.87h2.23
				v1.72h-2.23v5.45h-1.93v-5.45h-1.34v-1.72h1.34v-0.89c0-1.68,0.9-2.78,2.57-2.78c0.64,0,1.16,0.12,1.59,0.31L406.6,466.55z"/>
			<path id="XMLID_334_" class="st62" d="M411.3,469.88c-0.18-0.03-0.36-0.05-0.53-0.05c-0.9,0-1.51,0.55-1.51,1.61v3.91h-1.93
				v-7.17h1.87v0.78c0.45-0.67,1.14-0.98,2.02-0.98c0.41,0,0.85,0.13,1.09,0.34L411.3,469.88z"/>
			<path id="XMLID_331_" class="st62" d="M418.97,471.76c0,0.22-0.01,0.49-0.04,0.65h-5.08c0.21,1.04,0.93,1.49,1.84,1.49
				c0.62,0,1.3-0.25,1.81-0.69l1.13,1.24c-0.81,0.75-1.85,1.09-3.06,1.09c-2.2,0-3.72-1.5-3.72-3.75c0-2.26,1.48-3.8,3.63-3.8
				C417.54,467.99,418.96,469.52,418.97,471.76z M413.85,471.09h3.18c-0.18-0.92-0.73-1.44-1.56-1.44
				C414.55,469.65,414.02,470.2,413.85,471.09z"/>
			<path id="XMLID_328_" class="st62" d="M426.62,471.76c0,0.22-0.01,0.49-0.04,0.65h-5.08c0.21,1.04,0.93,1.49,1.84,1.49
				c0.62,0,1.3-0.25,1.81-0.69l1.13,1.24c-0.81,0.75-1.85,1.09-3.06,1.09c-2.2,0-3.72-1.5-3.72-3.75c0-2.26,1.48-3.8,3.63-3.8
				C425.2,467.99,426.61,469.52,426.62,471.76z M421.5,471.09h3.18c-0.18-0.92-0.73-1.44-1.56-1.44
				C422.21,469.65,421.67,470.2,421.5,471.09z"/>
			<path id="XMLID_325_" class="st62" d="M434.96,471.76c0,2.15-1.49,3.77-3.47,3.77c-0.96,0-1.64-0.38-2.11-0.93v3.71h-1.92v-10.13
				h1.89v0.79c0.47-0.58,1.15-0.98,2.14-0.98C433.47,467.99,434.96,469.61,434.96,471.76z M429.29,471.76
				c0,1.13,0.75,1.98,1.84,1.98c1.14,0,1.85-0.88,1.85-1.98c0-1.1-0.71-1.98-1.85-1.98C430.03,469.79,429.29,470.63,429.29,471.76z"
				/>
			<path id="XMLID_322_" class="st62" d="M438.07,465.84c0,0.7-0.54,1.23-1.24,1.23c-0.7,0-1.23-0.53-1.23-1.23
				c0-0.7,0.53-1.24,1.23-1.24C437.53,464.59,438.07,465.14,438.07,465.84z M437.81,475.35h-1.93v-7.17h1.93V475.35z"/>
			<path id="XMLID_320_" class="st62" d="M441.03,470.74l2.7-2.55h2.37l-3.48,3.38l3.5,3.8h-2.38l-2.72-2.9v2.9h-1.93V464.7h1.93
				V470.74z"/>
		</g>
		<g>
			<path class="st62" d="M309.41,475.29v-1.05c-0.53,0.72-1.39,1.23-2.39,1.23c-1.85,0-3.15-1.41-3.15-3.71
				c0-2.26,1.29-3.72,3.15-3.72c0.95,0,1.82,0.47,2.39,1.25v-3.76h1.1v9.77H309.41z M309.41,473.37v-3.21
				c-0.4-0.62-1.24-1.14-2.12-1.14c-1.42,0-2.27,1.17-2.27,2.74c0,1.57,0.85,2.72,2.27,2.72
				C308.17,474.48,309.02,473.99,309.41,473.37z"/>
			<path class="st62" d="M311.93,471.74c0-2.05,1.46-3.71,3.49-3.71c2.14,0,3.4,1.67,3.4,3.79v0.28h-5.73
				c0.09,1.33,1.03,2.45,2.55,2.45c0.81,0,1.63-0.32,2.18-0.89l0.53,0.72c-0.7,0.7-1.65,1.08-2.81,1.08
				C313.44,475.46,311.93,473.96,311.93,471.74z M315.4,468.95c-1.51,0-2.26,1.27-2.31,2.36h4.64
				C317.72,470.25,317.01,468.95,315.4,468.95z"/>
			<path class="st62" d="M319.61,474.35l0.57-0.79c0.47,0.54,1.36,1.01,2.33,1.01c1.08,0,1.67-0.51,1.67-1.22
				c0-1.71-4.38-0.66-4.38-3.28c0-1.1,0.95-2.04,2.64-2.04c1.2,0,2.05,0.45,2.62,1.03l-0.51,0.76c-0.42-0.51-1.2-0.89-2.11-0.89
				c-0.97,0-1.57,0.48-1.57,1.11c0,1.55,4.38,0.53,4.38,3.28c0,1.19-0.95,2.14-2.78,2.14C321.31,475.46,320.32,475.11,319.61,474.35
				z"/>
			<path class="st62" d="M326.48,466.47c0-0.41,0.34-0.75,0.73-0.75c0.41,0,0.75,0.34,0.75,0.75c0,0.41-0.34,0.73-0.75,0.73
				C326.81,467.2,326.48,466.88,326.48,466.47z M326.67,475.29v-7.07h1.1v7.07H326.67z"/>
			<path class="st62" d="M329.58,477.11l0.56-0.82c0.59,0.7,1.29,0.97,2.3,0.97c1.17,0,2.27-0.57,2.27-2.12v-1.01
				c-0.51,0.72-1.38,1.26-2.37,1.26c-1.85,0-3.15-1.38-3.15-3.66c0-2.27,1.29-3.68,3.15-3.68c0.95,0,1.8,0.47,2.37,1.25v-1.07h1.1
				v6.87c0,2.34-1.64,3.08-3.37,3.08C331.24,478.16,330.42,477.93,329.58,477.11z M334.71,473.25v-3.09
				c-0.38-0.62-1.23-1.14-2.11-1.14c-1.42,0-2.27,1.13-2.27,2.7c0,1.55,0.85,2.7,2.27,2.7
				C333.48,474.41,334.33,473.87,334.71,473.25z"/>
			<path class="st62" d="M342.41,475.29v-4.63c0-1.24-0.63-1.64-1.58-1.64c-0.86,0-1.68,0.53-2.09,1.1v5.17h-1.1v-7.07h1.1v1.03
				c0.5-0.59,1.46-1.2,2.52-1.2c1.48,0,2.26,0.75,2.26,2.29v4.97H342.41z"/>
			<path class="st62" d="M344.93,471.74c0-2.05,1.46-3.71,3.49-3.71c2.14,0,3.4,1.67,3.4,3.79v0.28h-5.73
				c0.09,1.33,1.03,2.45,2.55,2.45c0.81,0,1.63-0.32,2.18-0.89l0.53,0.72c-0.7,0.7-1.66,1.08-2.81,1.08
				C346.44,475.46,344.93,473.96,344.93,471.74z M348.4,468.95c-1.51,0-2.26,1.27-2.31,2.36h4.64
				C350.72,470.25,350.02,468.95,348.4,468.95z"/>
			<path class="st62" d="M358.35,475.29v-1.05c-0.53,0.72-1.39,1.23-2.39,1.23c-1.85,0-3.15-1.41-3.15-3.71
				c0-2.26,1.29-3.72,3.15-3.72c0.95,0,1.82,0.47,2.39,1.25v-3.76h1.1v9.77H358.35z M358.35,473.37v-3.21
				c-0.4-0.62-1.25-1.14-2.12-1.14c-1.42,0-2.27,1.17-2.27,2.74c0,1.57,0.85,2.72,2.27,2.72
				C357.1,474.48,357.95,473.99,358.35,473.37z"/>
			<path class="st62" d="M364.69,475.29v-9.77h1.1v3.76c0.57-0.78,1.42-1.25,2.39-1.25c1.85,0,3.15,1.46,3.15,3.72
				c0,2.3-1.3,3.71-3.15,3.71c-1,0-1.86-0.51-2.39-1.23v1.05H364.69z M367.9,474.48c1.44,0,2.29-1.16,2.29-2.72
				c0-1.57-0.85-2.74-2.29-2.74c-0.86,0-1.73,0.53-2.11,1.14v3.21C366.17,473.99,367.04,474.48,367.9,474.48z"/>
			<path class="st62" d="M372.53,477.06c0.16,0.07,0.42,0.12,0.6,0.12c0.48,0,0.81-0.16,1.05-0.75l0.47-1.07l-2.96-7.15h1.19
				l2.36,5.8l2.34-5.8h1.2l-3.54,8.51c-0.42,1.03-1.14,1.42-2.08,1.44c-0.23,0-0.6-0.04-0.81-0.1L372.53,477.06z"/>
		</g>
	</g>
</g>
</svg>
