<?xml version="1.0" encoding="utf-8"?>
<!-- Generator: Adobe Illustrator 23.0.6, SVG Export Plug-In . SVG Version: 6.00 Build 0)  -->
<svg version="1.1" xmlns="http://www.w3.org/2000/svg" xmlns:xlink="http://www.w3.org/1999/xlink" x="0px" y="0px"
	 viewBox="0 0 550 450" style="enable-background:new 0 0 550 450;" xml:space="preserve">
<style type="text/css">
	.st0{fill:#FFFFFF;}
	.st1{fill:#FFE1E5;}
	.st2{fill:#B4DFD5;}
	.st3{fill:#42B093;}
	.st4{fill:#2E9376;}
	.st5{fill:#FDD17A;}
	.st6{fill:#61BDA6;}
	.st7{fill:#40967D;}
	.st8{fill:#EC7772;}
	.st9{fill:#2A514A;}
	.st10{fill:#76A9B7;}
	.st11{fill:#E4F3F7;}
	.st12{fill:#527480;}
	.st13{fill:#E6E6CE;}
	.st14{font-family:'Montserrat-Black';}
	.st15{font-size:37.4198px;}
	.st16{fill:none;stroke:#1C1C38;stroke-linecap:round;stroke-linejoin:round;}
	.st17{fill:none;stroke:#1C1C38;stroke-linecap:round;stroke-linejoin:round;stroke-dasharray:2.965,3.9533;}
	.st18{fill:none;stroke:#1C1C38;stroke-linecap:round;stroke-linejoin:round;stroke-dasharray:2.8748,3.8331;}
	.st19{fill:#1C1C38;}
	.st20{opacity:0.4;}
	.st21{fill:#FAF9DD;}
	.st22{display:none;}
	.st23{display:inline;fill:#E27E5A;}
	.st24{display:inline;}
	.st25{fill:#CE422C;}
	.st26{fill:#7F1D13;}
	.st27{fill:#3B6472;}
	.st28{fill:#547989;}
	.st29{display:inline;fill:#F29D7E;}
	.st30{display:inline;fill:#E289A9;}
	.st31{display:inline;fill:#1B4E61;}
	.st32{fill:#B94A5B;}
	.st33{fill:#E8605C;}
	.st34{fill:#F8F8DC;}
	.st35{fill:#65BDA5;}
	.st36{fill:#F29D7E;}
	.st37{fill:#FFBDA9;}
	.st38{fill:#1B4E61;}
	.st39{fill:#DD5858;}
	.st40{fill:#F98A8A;}
	.st41{fill:#0F0F23;}
	.st42{fill:#165260;}
	.st43{fill:#1A5A6B;}
	.st44{fill:#F39E81;}
	.st45{fill:#F5B7A0;}
	.st46{fill:#0B3A47;}
	.st47{fill:#A5B7C6;}
</style>
<g id="BACKGROUND">
	<rect x="-99.88" y="-33.46" class="st0" width="750" height="500"/>
</g>
<g id="OBJECTS">
	<g>
		<ellipse class="st1" cx="275.12" cy="338.26" rx="261.09" ry="83.31"/>
		<g>
			<g>
				<path class="st2" d="M471.83,233.78c5.86-1.01,11.86-0.75,17.8-0.97c10.75-0.4,21.44-2.36,31.63-5.81
					c-2.18,7.76-4.36,15.53-6.54,23.29c-1.69,6-3.39,12.05-6.17,17.63c-2.66,5.33-6.28,10.18-10.64,14.23
					c-9.06,8.42-21.84,13.3-34.01,11.1c-10.64-1.92-20.62-9.37-23.72-19.97C434.27,253.08,453.68,236.89,471.83,233.78z"/>
				<path class="st3" d="M514.3,233.48c-8.21,3.67-16.45,7.36-24.45,11.5c1.33-2.76,2.91-5.36,4.79-7.8
					c0.72-0.93-0.63-2.18-1.35-1.24c-2.44,3.15-4.44,6.54-6,10.21c-0.03,0.07-0.03,0.14-0.04,0.21c-3.56,1.91-7.08,3.91-10.5,6.06
					c-4.94,3.11-9.95,6.53-14.41,10.5c1.85-6.94,4.02-13.78,6.57-20.51c0.41-1.09-1.21-1.96-1.63-0.85
					c-2.95,7.78-5.44,15.68-7.47,23.75c-4.21,4.19-7.74,8.96-9.92,14.57c-0.42,1.09,1.2,1.95,1.63,0.85
					c0.96-2.46,2.19-4.75,3.62-6.91c0.02,0,0.03,0.01,0.05,0.01c10.23,0.13,20.9-0.57,31.01,1.07c1.16,0.19,1.56-1.61,0.39-1.79
					c-9.87-1.6-20.19-1.04-30.19-1.1c5.7-7.69,14.01-13.5,22.08-18.49c0.01,0,0.02,0.01,0.03,0.01c9.48,0.48,19.33,0.27,28.63,2.34
					c1.15,0.26,1.55-1.54,0.39-1.79c-8.51-1.9-17.47-1.92-26.2-2.26c10.75-6.36,22.17-11.49,33.56-16.58
					C515.94,234.75,515.38,233,514.3,233.48z"/>
			</g>
			<g>
				<path class="st3" d="M427.08,202.85c5.95-8.82,15.22-15.34,25.53-17.95c6.89-1.74,14.34-1.86,20.55-5.31
					c6.42-3.57,10.51-10.13,15.84-15.18c4.91-4.67,11.25-8.17,18.02-8.39c6.77-0.22,13.87,3.37,16.55,9.6
					c3.47,8.05-1.48,17.81-8.95,22.4c-3.79,2.33-8.46,3.97-10.5,7.93c-1.07,2.06-1.23,4.46-1.37,6.77
					c-0.45,7.31-0.89,14.68-2.77,21.77c-2.52,9.52-7.74,18.43-15.3,24.75c-7.56,6.32-17.52,9.9-27.34,9.14
					c-5.09-0.39-10.03-1.9-14.82-3.67C419.37,246.18,413.29,223.3,427.08,202.85z"/>
				<path class="st4" d="M517.84,170.39c-4.23,0.89-8.49,1.57-12.79,2.02c2.75-2.3,5.55-4.57,8.41-6.76
					c0.88-0.67-0.29-1.93-1.16-1.26c-3.17,2.42-6.25,4.93-9.28,7.49c0.11-2.49,0.41-4.93,0.94-7.39c0.23-1.07-1.4-1.6-1.63-0.52
					c-0.67,3.11-1.03,6.21-1.07,9.39c-6.04,5.19-11.84,10.63-17.45,16.27c0.33-3.36,0.51-6.72,0.52-10.09c0-1.1-1.71-1.18-1.71-0.07
					c-0.01,4.06-0.26,8.1-0.74,12.13c-9.48,9.66-18.42,19.86-27.13,30.26c0.99-10.56,2.19-21.1,3.62-31.62
					c0.15-1.09-1.56-1.16-1.71-0.07c-1.54,11.29-2.83,22.62-3.85,33.97c0,0.01,0,0.01,0,0.02c-4.01,4.82-7.97,9.68-11.91,14.55
					c-0.37-0.49-0.66-1.21-0.88-2.23c-0.57-2.69-1.07-5.39-1.5-8.1c-0.99-6.17-1.59-12.38-1.89-18.62
					c-0.05-1.09-1.76-1.17-1.71-0.07c0.51,10.49,1.94,20.86,4.31,31.1c-0.95,1.17-1.9,2.34-2.85,3.52
					c-0.69,0.86,0.76,1.77,1.44,0.93c1-1.24,2.02-2.49,3.02-3.73c12.04-0.87,23.49-5.57,35.63-5.5c1.1,0.01,1.18-1.71,0.07-1.71
					c-10.19-0.06-19.8,3.26-29.77,4.85c-1.84,0.29-3.29,0.67-4.4,0.48c3.99-4.92,7.99-9.84,12.06-14.71l36.19-7.92
					c1.08-0.24,0.69-1.91-0.39-1.67c-11.33,2.48-22.66,4.96-34,7.44c8.59-10.25,17.42-20.29,26.75-29.82
					c5.26-0.06,10.47-0.51,15.66-1.39c1.09-0.18,0.7-1.85-0.39-1.67c-4.5,0.76-9.01,1.18-13.56,1.3
					c5.79-5.83,11.78-11.46,18.03-16.81c5.21-0.46,10.37-1.21,15.49-2.29C519.3,171.83,518.92,170.16,517.84,170.39z"/>
			</g>
			<path class="st5" d="M514.5,141.67c-13.66,0.59-27.88,3.65-37.72,12.91c4.2-8.32,8.34-16.67,12.33-25.1
				c1.36,0.62,2.94,0.78,4.44,0.59c6.88-0.87,9.16-7.01,9.64-13.14c0.26-3.25,0.09-6.51,0-9.77c-0.06-2.26,1.5-13.62-3.93-10.03
				c-2.59,1.71-4.68,4.11-6.92,6.23c-3.45,3.24-6.18,7.11-7.32,11.4c-0.86,3.2-0.83,6.64,0.45,10.21c0.48,1.34,1.14,2.66,2.21,3.6
				c0.05,0.04,0.1,0.07,0.15,0.11c-4.64,9.8-9.49,19.51-14.41,29.19c0.01-0.06,0.02-0.12,0.03-0.17c0.67-4.07,0.98-8.24,0.3-12.33
				c-1.17-6.96-5.2-12.97-10.96-16.97c-0.42-0.29-1.14-0.22-1.23,0.4c-0.03,0.2-4.32,17.27-1.35,25.03
				c1.13,2.95,2.84,5.72,5.15,7.89c1.14,1.07,2.97,2.83,4.74,2.71c-5.15,10.08-10.33,20.16-15.37,30.29
				c0.17-1.9,0.01-3.97-0.15-5.44c-0.61-5.86-3.34-11.55-7.78-15.47c-1.79-1.58-3.86-2.9-6.16-3.51c-2.5,4.28-2.86,9.48-2.47,14.41
				c0.21,2.72,0.66,5.49,2.02,7.84c1.25,2.16,3.23,3.85,5.46,4.97c1.65,0.83,4.93,2.18,6.93,1.53
				c-6.09,12.37-11.91,24.86-17.18,37.6c-0.74-3.2-2.81-5.98-5.35-8.07c-2.55-2.1-5.56-3.56-8.6-4.83
				c-2.03-0.85-4.21-1.71-5.47-3.51c0.95,2.37,0.86,5,1.2,7.52c0.46,3.38,1.74,6.65,3.7,9.45c1.3,1.86,2.94,3.54,4.98,4.51
				c2.36,1.12,5.19,1.48,7.19,0.7c-1.87,4.7-3.66,9.43-5.34,14.21c-4.7,13.33-8.54,26.94-11.26,40.81
				c-0.19,0.95,1.28,1.27,1.47,0.32c4.02-20.49,10.54-40.15,18.4-59.32c0.07,2.45,1.39,4.86,4.37,6.44c1.32,0.7,2.82,1.04,4.31,1.18
				c4.55,0.44,9.25-0.92,12.86-3.72c3.61-2.8,6.1-7.01,6.81-11.53c0.08-0.51,0.08-1.14-0.37-1.4c-0.3-0.17-0.67-0.08-1,0
				c-3.26,0.78-6.67,0.44-10.01,0.12c-3.34-0.32-6.76-0.61-9.99,0.26c-1.78,0.48-3.29,1.41-4.45,2.58
				c4.7-11.02,9.81-21.88,15.1-32.66c0.7,1.47,2.77,2.47,4.09,3.07c6.51,2.95,14.24,3.07,20.84,0.32
				c6.59-2.75,11.95-8.33,14.43-15.03c-6.79-2.74-14.45-3.26-21.55-1.46c-4.71,1.19-9.15,3.4-12.97,6.4
				c-0.62,0.49-1.57,1.17-2.48,1.94c5.25-10.56,10.65-21.04,15.99-31.51c4.65,9.43,19.08,8.05,27.51,4.48
				c10.25-4.33,17.67-14.35,15.47-25.77C515.19,141.86,514.8,141.66,514.5,141.67z"/>
		</g>
		<g>
			<g>
				<path class="st6" d="M65.21,210.04c-5.88-0.87-11.87-0.47-17.82-0.55c-10.76-0.14-21.49-1.85-31.76-5.05
					c2.36,7.71,4.73,15.42,7.09,23.13c1.83,5.96,3.67,11.97,6.58,17.48c2.78,5.27,6.52,10.02,10.98,13.97
					c9.25,8.2,22.15,12.78,34.26,10.29c10.59-2.17,20.39-9.86,23.24-20.53C103.21,228.44,83.43,212.72,65.21,210.04z"/>
				<path class="st7" d="M22.74,210.74c8.3,3.47,16.62,6.96,24.71,10.92c-1.4-2.73-3.04-5.29-4.98-7.69
					c-0.74-0.91,0.58-2.19,1.32-1.27c2.51,3.1,4.6,6.44,6.24,10.07c0.03,0.07,0.03,0.14,0.05,0.21c3.61,1.82,7.17,3.74,10.64,5.81
					c5.01,2.99,10.11,6.3,14.66,10.16c-2.01-6.9-4.34-13.68-7.05-20.35c-0.44-1.08,1.16-1.99,1.61-0.89
					c3.13,7.71,5.81,15.55,8.03,23.56c4.31,4.09,7.95,8.78,10.27,14.33c0.45,1.08-1.15,1.98-1.61,0.89c-1.02-2.44-2.3-4.7-3.78-6.82
					c-0.02,0-0.03,0.01-0.05,0.01c-10.22,0.37-20.9-0.07-30.98,1.8c-1.16,0.22-1.6-1.57-0.43-1.78c9.83-1.83,20.16-1.52,30.15-1.82
					c-5.88-7.55-14.32-13.16-22.51-17.96c-0.01,0-0.02,0.01-0.03,0.01c-9.47,0.7-19.32,0.73-28.56,3.02
					c-1.15,0.28-1.58-1.5-0.43-1.78c8.47-2.1,17.42-2.33,26.14-2.88c-10.89-6.11-22.43-10.97-33.94-15.78
					C21.14,212.05,21.65,210.29,22.74,210.74z"/>
			</g>
			<g>
				<path class="st2" d="M150.09,195.85c-7.19-10.72-18.43-18.66-30.94-21.86c-8.36-2.14-17.4-2.3-24.93-6.51
					c-7.79-4.35-12.73-12.32-19.18-18.48c-5.95-5.68-13.63-9.95-21.85-10.24c-8.22-0.29-16.85,4.05-20.12,11.6
					c-4.24,9.77,1.74,21.62,10.79,27.22c4.6,2.84,10.25,4.85,12.72,9.65c1.29,2.51,1.48,5.41,1.65,8.23
					c0.52,8.88,1.04,17.82,3.29,26.43c3.03,11.57,9.33,22.39,18.49,30.08c9.16,7.69,21.23,12.07,33.16,11.18
					c6.18-0.46,12.18-2.28,18-4.4C159.32,248.46,166.77,220.71,150.09,195.85z"/>
				<path class="st6" d="M40.03,156.16c5.13,1.1,10.3,1.93,15.52,2.5c-3.34-2.8-6.72-5.56-10.18-8.23
					c-1.06-0.82,0.36-2.34,1.41-1.53c3.83,2.95,7.57,6,11.24,9.12c-0.13-3.02-0.48-5.98-1.11-8.97c-0.28-1.3,1.7-1.94,1.98-0.63
					c0.8,3.78,1.23,7.55,1.26,11.41c7.32,6.32,14.33,12.94,21.13,19.8c-0.39-4.07-0.59-8.15-0.6-12.25c0-1.33,2.08-1.42,2.08-0.08
					c0,4.93,0.29,9.83,0.85,14.73c11.47,11.76,22.3,24.17,32.84,36.81c-1.16-12.83-2.59-25.62-4.3-38.39
					c-0.18-1.33,1.9-1.4,2.08-0.08c1.84,13.71,3.36,27.46,4.57,41.25c0,0.01,0,0.01,0,0.02c4.85,5.86,9.64,11.78,14.42,17.7
					c0.45-0.59,0.81-1.46,1.08-2.71c0.7-3.26,1.31-6.54,1.85-9.83c1.22-7.49,1.97-15.03,2.35-22.6c0.07-1.33,2.15-1.42,2.08-0.08
					c-0.65,12.73-2.42,25.32-5.33,37.73c1.15,1.43,2.3,2.85,3.45,4.28c0.84,1.04-0.92,2.15-1.75,1.12
					c-1.22-1.51-2.44-3.02-3.66-4.54c-14.61-1.09-28.49-6.84-43.23-6.79c-1.33,0-1.42-2.07-0.08-2.08
					c12.37-0.04,24.03,4.02,36.12,5.99c2.24,0.36,4,0.83,5.34,0.6c-4.83-5.99-9.67-11.97-14.59-17.89l-43.9-9.73
					c-1.3-0.29-0.84-2.31,0.47-2.02c13.75,3.05,27.49,6.09,41.24,9.14c-10.4-12.46-21.07-24.69-32.38-36.28
					c-6.39-0.08-12.71-0.66-19.01-1.73c-1.32-0.23-0.84-2.25,0.47-2.02c5.45,0.93,10.93,1.46,16.45,1.62
					c-7.01-7.09-14.26-13.95-21.83-20.46c-6.33-0.57-12.58-1.5-18.8-2.83C38.25,157.91,38.72,155.88,40.03,156.16z"/>
			</g>
			<path class="st8" d="M66.21,148.64c11.87,1.58,24.05,5.35,31.92,14.2c-3.02-7.59-5.98-15.2-8.81-22.86
				c-1.23,0.44-2.63,0.45-3.92,0.17c-5.94-1.29-7.45-6.83-7.4-12.21c0.03-2.86,0.43-5.69,0.75-8.52c0.23-1.97-0.25-12.01,4.21-8.45
				c2.13,1.7,3.76,3.95,5.56,5.97c2.76,3.1,4.84,6.69,5.51,10.51c0.5,2.86,0.21,5.86-1.19,8.88c-0.52,1.13-1.2,2.23-2.21,2.97
				c-0.04,0.03-0.09,0.06-0.14,0.09c3.29,8.91,6.77,17.76,10.32,26.59c0-0.05-0.01-0.1-0.01-0.15c-0.27-3.61-0.22-7.27,0.7-10.78
				c1.56-5.98,5.55-10.92,10.89-13.97c0.39-0.22,1.01-0.1,1.05,0.44c0.01,0.18,2.44,15.41-0.76,21.96c-1.21,2.48-2.92,4.77-5.1,6.48
				c-1.07,0.84-2.81,2.24-4.35,2c3.72,9.2,7.46,18.39,11.07,27.63c0-1.67,0.3-3.46,0.55-4.73c0.99-5.07,3.81-9.82,7.99-12.9
				c1.68-1.24,3.59-2.23,5.65-2.59c1.85,3.93,1.76,8.49,1.04,12.77c-0.4,2.35-1,4.74-2.37,6.69c-1.26,1.79-3.12,3.11-5.15,3.91
				c-1.51,0.59-4.47,1.52-6.16,0.8c4.35,11.27,8.47,22.62,12.08,34.15c0.9-2.74,2.92-5,5.3-6.63c2.39-1.63,5.13-2.67,7.88-3.55
				c1.84-0.58,3.8-1.17,5.05-2.64c-1.01,1.99-1.14,4.29-1.63,6.47c-0.67,2.92-2.04,5.67-3.96,7.96c-1.28,1.52-2.84,2.86-4.7,3.55
				c-2.14,0.79-4.64,0.89-6.33,0.06c1.26,4.25,2.46,8.52,3.56,12.82c3.07,12,5.36,24.17,6.66,36.49c0.09,0.84-1.22,1.01-1.3,0.17
				c-1.92-18.2-6.08-35.86-11.46-53.2c-0.25,2.14-1.59,4.14-4.31,5.29c-1.21,0.51-2.54,0.69-3.85,0.7c-4.01,0.03-8-1.52-10.94-4.25
				c-2.94-2.73-4.78-6.6-5.05-10.59c-0.03-0.45,0.02-1,0.43-1.19c0.27-0.12,0.59-0.02,0.88,0.08c2.78,0.94,5.79,0.9,8.72,0.88
				c2.94-0.02,5.95-0.01,8.7,1c1.51,0.56,2.76,1.48,3.68,2.6c-3.25-9.98-6.86-19.86-10.65-29.68c-0.72,1.23-2.61,1.94-3.81,2.36
				c-5.91,2.07-12.67,1.57-18.21-1.34c-5.54-2.91-9.79-8.2-11.43-14.24c6.14-1.86,12.87-1.72,18.92,0.4
				c4.02,1.41,7.72,3.68,10.82,6.59c0.5,0.47,1.28,1.14,2.02,1.88c-3.77-9.62-7.67-19.19-11.51-28.74
				c-4.79,7.87-17.28,5.55-24.36,1.78c-8.61-4.57-14.31-13.89-11.5-23.69C65.59,148.75,65.95,148.6,66.21,148.64z"/>
		</g>
		<g>
			<g>
				<path class="st6" d="M305.97,56.83c5.91-0.7,11.88-0.13,17.83-0.03c10.75,0.17,21.53-1.23,31.89-4.13
					c-2.59,7.64-5.17,15.28-7.76,22.91c-2,5.91-4.02,11.86-7.09,17.28c-2.93,5.18-6.81,9.83-11.38,13.65
					c-9.49,7.93-22.51,12.13-34.54,9.3c-10.52-2.48-20.1-10.44-22.64-21.19C267.45,74.12,287.69,58.98,305.97,56.83z"/>
				<path class="st7" d="M348.4,58.76c-8.4,3.23-16.82,6.48-25.02,10.2c1.47-2.68,3.19-5.2,5.2-7.54c0.77-0.89-0.51-2.21-1.29-1.31
					c-2.6,3.02-4.78,6.3-6.53,9.88c-0.03,0.07-0.04,0.14-0.05,0.21c-3.66,1.72-7.27,3.53-10.81,5.5c-5.09,2.84-10.28,6-14.94,9.73
					c2.21-6.84,4.74-13.55,7.64-20.14c0.47-1.07-1.1-2.02-1.58-0.94c-3.35,7.61-6.25,15.37-8.71,23.32
					c-4.43,3.96-8.2,8.54-10.68,14.03c-0.48,1.07,1.09,2.01,1.58,0.94c1.09-2.41,2.44-4.63,3.98-6.71c0.02,0,0.03,0.01,0.05,0.01
					c10.21,0.67,20.9,0.53,30.91,2.7c1.15,0.25,1.64-1.52,0.48-1.77c-9.77-2.11-20.1-2.1-30.09-2.69c6.1-7.38,14.7-12.74,23.02-17.3
					c0.01,0,0.02,0.01,0.03,0.01c9.45,0.98,19.29,1.29,28.46,3.84c1.14,0.32,1.62-1.45,0.48-1.77c-8.4-2.34-17.34-2.83-26.05-3.63
					c11.07-5.79,22.74-10.31,34.38-14.8C349.97,60.12,349.51,58.34,348.4,58.76z"/>
			</g>
			<path class="st9" d="M331,27.71c0-0.22-0.24-0.41-0.44-0.44c-9.2-1.32-19.08-1.07-26.82,3.88c4.75-6.2,9.45-12.45,13.99-18.81
				c0.38-0.53-0.42-1.16-0.8-0.63c-5.12,7.18-10.46,14.21-15.86,21.2c0.01-0.04,0.03-0.07,0.04-0.11c0.96-2.64,1.69-5.38,1.75-8.2
				c0.1-4.8-1.84-9.32-5.19-12.72c-0.25-0.25-0.73-0.29-0.87,0.11c-0.05,0.13-5.06,10.99-4.06,16.55c0.38,2.11,1.18,4.18,2.45,5.91
				c0.62,0.86,1.63,2.27,2.82,2.41c-4.71,6.09-9.44,12.16-14.08,18.3c0.35-1.25,0.5-2.65,0.59-3.65c0.33-3.99-0.78-8.14-3.25-11.31
				c-1-1.28-2.21-2.42-3.67-3.12c-2.21,2.54-3.1,5.97-3.46,9.32c-0.2,1.84-0.25,3.75,0.36,5.49c0.56,1.6,1.67,2.98,3.02,4.01
				c1,0.76,3.02,2.08,4.43,1.89c-5.62,7.5-11.09,15.11-16.21,22.95c-0.09-2.23-1.13-4.35-2.56-6.06c-1.44-1.72-3.26-3.07-5.14-4.31
				c-1.25-0.82-2.59-1.67-3.21-3.03c0.33,1.7-0.06,3.45-0.14,5.18c-0.12,2.32,0.33,4.66,1.28,6.78c0.63,1.4,1.52,2.73,2.76,3.64
				c1.43,1.04,3.28,1.64,4.72,1.38c-1.84,2.9-3.63,5.84-5.36,8.82c-4.82,8.31-9.1,16.92-12.66,25.84c-0.24,0.61,0.7,1.01,0.94,0.4
				c5.26-13.18,12.09-25.49,19.76-37.3c-0.27,1.65,0.32,3.42,2.11,4.85c0.8,0.64,1.75,1.05,2.73,1.33c2.98,0.87,6.3,0.55,9.06-0.87
				c2.77-1.42,4.96-3.92,6-6.84c0.12-0.33,0.2-0.75-0.07-0.98c-0.18-0.15-0.44-0.14-0.67-0.13c-2.28,0.11-4.51-0.54-6.7-1.18
				c-2.19-0.64-4.44-1.26-6.71-1.08c-1.25,0.1-2.37,0.52-3.3,1.17c4.53-6.77,9.31-13.38,14.2-19.91c0.28,1.07,1.54,2,2.34,2.57
				c3.98,2.79,9.13,3.84,13.88,2.84c4.75-1.01,9.03-4.06,11.53-8.22c-4.19-2.68-9.24-4-14.21-3.69c-3.3,0.2-6.54,1.12-9.47,2.64
				c-0.48,0.25-1.2,0.58-1.9,0.98c4.84-6.39,9.76-12.71,14.65-19.03c1.92,6.88,11.73,7.78,17.81,6.46
				C324.81,41.37,331.03,35.61,331,27.71z"/>
		</g>
		<g>
			<g>
				<path class="st10" d="M130.26,234.41V107.47c0-14.35,11.63-25.98,25.98-25.98h248.48c12.14,0,21.98,9.84,21.98,21.98v130.94
					c0,14.35-11.63,25.98-25.98,25.98H156.24C141.89,260.4,130.26,248.76,130.26,234.41z"/>
				<path class="st11" d="M403.41,253.35H153.56c-9.08,0-16.44-7.36-16.44-16.44V104.98c0-9.08,7.36-16.44,16.44-16.44h249.85
					c9.08,0,16.44,7.36,16.44,16.44V236.9C419.85,245.98,412.49,253.35,403.41,253.35z"/>
			</g>
			<path class="st10" d="M340.81,291.92H216.15c-1.33,0-2.41-1.08-2.41-2.41l0,0c0-1.33,1.08-2.41,2.41-2.41h124.66
				c1.33,0,2.41,1.08,2.41,2.41l0,0C343.22,290.84,342.14,291.92,340.81,291.92z"/>
			<polygon class="st12" points="341.51,287.1 215.46,287.1 226.2,260.4 330.76,260.4 			"/>
			<g>
				<rect x="149.59" y="119.37" class="st2" width="257.78" height="123.55"/>
				<g>
					<rect x="149.59" y="101.23" class="st13" width="257.78" height="18.27"/>
					<g>
						<circle class="st8" cx="157.89" cy="110.37" r="3.54"/>
						<path class="st5" d="M174.48,110.37c0-1.95-1.58-3.54-3.54-3.54c-1.95,0-3.54,1.58-3.54,3.54c0,1.95,1.58,3.54,3.54,3.54
							C172.89,113.9,174.48,112.32,174.48,110.37z"/>
						<circle class="st6" cx="183.99" cy="110.37" r="3.54"/>
					</g>
				</g>
				<text transform="matrix(1 0 0 1 243.4563 192.1284)" class="st0 st14 st15">Jibres</text>
				<rect x="161.6" y="133.14" class="st6" width="30.53" height="89.92"/>
				<g>
					<rect x="164.17" y="136.05" class="st2" width="11.48" height="11.48"/>
					<rect x="178.08" y="136.05" class="st2" width="11.48" height="11.48"/>
				</g>
				<g>
					<rect x="164.17" y="150.85" class="st2" width="11.48" height="11.48"/>
					<rect x="178.08" y="150.85" class="st2" width="11.48" height="11.48"/>
				</g>
				<g>
					<rect x="164.17" y="165.65" class="st2" width="11.48" height="11.48"/>
					<rect x="178.08" y="165.65" class="st2" width="11.48" height="11.48"/>
				</g>
				<g>
					<rect x="164.17" y="180.45" class="st2" width="11.48" height="11.48"/>
					<rect x="178.08" y="180.45" class="st2" width="11.48" height="11.48"/>
				</g>
				<g>
					<rect x="164.17" y="195.26" class="st2" width="11.48" height="11.48"/>
					<rect x="178.08" y="195.26" class="st2" width="11.48" height="11.48"/>
				</g>
				<g>
					<g>
						<g>
							<polyline class="st16" points="374.8,208 374.8,209.5 373.3,209.5 							"/>
							<line class="st17" x1="369.35" y1="209.5" x2="205.28" y2="209.5"/>
							<polyline class="st16" points="203.31,209.5 201.81,209.5 201.81,208 							"/>
							<line class="st18" x1="201.81" y1="204.17" x2="201.81" y2="152.43"/>
							<polyline class="st16" points="201.81,150.51 201.81,149.01 203.31,149.01 							"/>
							<line class="st17" x1="207.26" y1="149.01" x2="371.32" y2="149.01"/>
							<polyline class="st16" points="373.3,149.01 374.8,149.01 374.8,150.51 							"/>
							<line class="st18" x1="374.8" y1="154.34" x2="374.8" y2="206.09"/>
						</g>
					</g>
					<g>
						<rect x="197.05" y="144.26" class="st19" width="9.51" height="9.51"/>
						<rect x="370.05" y="144.26" class="st19" width="9.51" height="9.51"/>
					</g>
					<g>
						<rect x="197.05" y="204.75" class="st19" width="9.51" height="9.51"/>
						<rect x="370.05" y="204.75" class="st19" width="9.51" height="9.51"/>
					</g>
				</g>
				<rect x="202.8" y="133.14" class="st6" width="172" height="4.2"/>
				<rect x="202.8" y="221.01" class="st6" width="172" height="4.2"/>
			</g>
			<g class="st20">
				<path class="st21" d="M419.42,98.52c-2.05-5.81-7.57-9.98-14.08-9.98h-2.12L238.41,253.35h26.18L419.42,98.52z"/>
				<path class="st21" d="M299.19,88.54L140.46,247.26c2.72,3.69,7.08,6.09,12.02,6.09h71.75L389.04,88.54H299.19z"/>
				<polygon class="st21" points="137.54,183.4 137.54,228.66 277.67,88.54 232.4,88.54 				"/>
			</g>
		</g>
		<g class="st22">
			<path class="st23" d="M168.65,195.75c2.38,0.89,4.87,1.46,7.35,2.03c4.36,0.99,8.72,1.99,13.08,2.98
				c1.15,0.26,2.36,0.53,3.5,0.23c1.67-0.42,3.54-1.17,4.9-2.22c1.51-1.16,2.1-6.95,3.1-8.56c0.61-0.97,1.95-1.37,1.82-0.77
				c-0.2,0.87,0.42,9.66,0.21,10.54c-0.47,1.89-2.01,3.36-3.77,4.19c-1.7,0.8-3.6,1.07-5.48,1.25c-5.22,0.49-10.48,0.61-15.72,0.29
				c-4.68-0.28-9.49-0.15-14.09-1.2c-4.47-1.02-8.69-1.94-12.77-4.02c-1.6-0.82-3.15-2.85-4.33-4.19c-3.4-3.84,1.19-10.69,5.97-9.73
				c2.66,0.53,5.38,3.19,7.64,4.63C162.79,192.93,165.6,194.6,168.65,195.75z"/>
			<g class="st24">
				<g>
					<path class="st25" d="M132.58,365.07c0,1.22-0.98,2.27-2.1,2.74c-1.12,0.48-2.38,0.5-3.59,0.51
						c-9.34,0.11-18.68,0.21-28.01,0.32c-3.16,0.03-6.41,0.06-9.39-1c-0.31-1.41-0.16-2.8,0.19-4.19c0.59-2.4,1.77-4.8,2.21-7.25
						c0.5-2.77,0.05-5.62,0.17-8.43c0.01-0.25,0.04-0.52,0.24-0.67c0.14-0.1,0.32-0.11,0.49-0.12c2.92-0.1,5.85-0.21,8.78-0.3
						c0.93-0.03,6.35-0.01,6.56,0.7c0.78,2.68,2.76,4.86,4.9,6.66c2.15,1.79,4.54,3.3,6.56,5.24c0.89,0.84,1.73,1.79,2.85,2.29
						c1.8,0.81,3.87,0.32,5.84,0.37c1.33,0.03,2.81,0.55,3.64,1.49C132.32,363.87,132.58,364.42,132.58,365.07z"/>
					<path class="st26" d="M132.58,365.07c0,1.22-0.98,2.27-2.1,2.74c-1.12,0.48-2.38,0.5-3.59,0.51
						c-9.34,0.11-18.68,0.21-28.01,0.32c-3.16,0.03-6.41,0.06-9.39-1c-0.31-1.41-0.16-2.8,0.19-4.19c0.3-0.14,0.64-0.23,1.01-0.26
						c2.93-0.23,6.45,0.86,9.41,1.1c3.12,0.26,6.32,0.6,9.45,0.6c7.5,0.41,15.27,0.78,22.38-1.49
						C132.32,363.87,132.58,364.42,132.58,365.07z"/>
				</g>
				<path class="st27" d="M112.57,286.65c1.99,2.62,4.12,5.79,3.15,8.93c-0.43,1.39-1.41,2.52-2.31,3.65
					c-9.91,12.35-13.5,28.46-16.8,43.95c-0.15,0.7-0.27,1.51,0.19,2.05c0.31,0.37,0.81,0.5,1.28,0.62c2.82,0.7,5.65,1.4,8.47,2.1
					c0.51,0.13,1.04,0.25,1.56,0.14c1.5-0.33,1.83-2.27,2.13-3.78c0.42-2.15,1.38-4.15,2.34-6.13c3.81-7.86,7.62-15.71,11.43-23.57
					c2.57-5.3,5.24-10.73,9.59-14.71c1.04-0.95,2.21-1.86,2.75-3.17c0.58-1.42,0.29-3.02-0.05-4.51
					c-1.48-6.39-3.87-12.52-6.25-18.63c-5.13-13.13-10.25-26.26-15.38-39.39c-0.39-1-0.82-2.05-1.67-2.7
					c-1.67-1.29-4.09-0.48-5.97,0.49c-6.39,3.31-12.05,8.02-16.44,13.72c-2.17,2.81-3.75,6.03-1.52,9.12
					c2.35,3.25,4.97,6.36,7.3,9.68C101.63,271.98,107.03,279.37,112.57,286.65z"/>
			</g>
			<g class="st24">
				<g>
					<path class="st25" d="M53.32,336.58c0.51,1.66,0.03,3.44-0.24,5.16c-0.61,3.79-0.18,7.66,0.26,11.48
						c0.24,2.15,0.5,4.32,1.31,6.33c0.59,1.44,1.46,2.76,2.01,4.21c0.31,0.79,0.5,1.65,0.51,2.49c0.01,0.72-0.13,1.41-0.46,2.05
						c-0.78,1.48-2.51,2.26-4.18,2.26c-1.67-0.01-3.27-0.7-4.67-1.59c-4.6-2.9-7.53-7.8-9.73-12.77c-2.21-4.96-3.87-10.21-6.77-14.8
						c-0.66-1.05-1.4-2.1-1.58-3.33c-0.18-1.22,0.42-2.67,1.63-2.97c0.6-0.14,1.17-0.31,1.73-0.5c3.79-1.28,6.67-3.49,10.17-5.54
						c3.55-2.09,6.37,2.33,8.42,4.84C52.37,334.72,53.01,335.58,53.32,336.58z"/>
					<path class="st26" d="M55.86,366.73c0.43-0.13,0.87-0.32,1.3-0.48c0.01,0.72-0.13,1.41-0.46,2.05
						c-0.78,1.48-2.51,2.26-4.18,2.26c-1.67-0.01-3.27-0.7-4.67-1.59c-4.6-2.9-7.53-7.8-9.73-12.77c-2.21-4.96-3.87-10.21-6.77-14.8
						c-0.66-1.05-1.4-2.1-1.58-3.33c-0.18-1.22,0.42-2.67,1.63-2.97c0.6-0.14,1.17-0.31,1.73-0.5c0.41,0.85,0.55,1.95,0.77,2.9
						c1.22,5.17,3.62,9.96,6.03,14.65c2.28,4.42,4.68,8.94,8.44,12.18C50.44,366.12,53.24,367.51,55.86,366.73z"/>
				</g>
				<path class="st28" d="M108.94,220.43c0.73,1.12,0.24,2.6-0.31,3.81c-4.39,9.59-12.02,18.36-11.96,28.91
					c0.01,2.58,0.5,5.13,1.07,7.65c0.11,0.51,0.22,1,0.34,1.5c3.13,13.67,6.17,27.68,4.36,41.59c-0.17,1.35-0.41,2.72-1.1,3.9
					c-0.72,1.25-1.9,2.17-3.09,2.98c-9.9,6.78-22.67,8.57-32.16,15.91c-4.37,3.37-7.89,7.81-12.53,10.8
					c-3.46-2.48-6.44-5.63-8.72-9.22c7.91-4.36,12.62-12.85,19.67-18.51c4.14-3.33,9-5.61,13.78-7.95c1.08-0.54,2.26-1.17,2.7-2.29
					c0.29-0.74,0.21-1.56,0.11-2.34c-1.28-9.96-5.23-19.34-8.94-28.68c-0.88-2.21-1.75-4.44-2.57-6.69
					c-2.64-7.22-4.78-14.64-5.07-22.29c-0.17-4.46,0.37-8.98,1.71-13.25c1.2-3.8,3.03-7.49,5.66-10.5c2.65-3.06,4.74-2.99,8.59-2.6
					c8.97,0.9,17.81,2.87,26.3,5.9C107.58,219.34,108.46,219.69,108.94,220.43z"/>
			</g>
			<path class="st29" d="M144.33,212.95c2.06,1.33,4.25,2.53,6.61,3.2c5.17,1.45,10.66,0.27,15.92-0.83
				c7.49-1.57,15.01-2.95,22.57-4.16c2.31-0.37,4.67-0.72,6.96-0.27c1.7,0.33,3.79,0.98,4.92-0.34c0.49-0.57,1.01-0.97,1.09-1.72
				c0.49-4.39,0.58-15.01,0-19.39c-1.02,0.36-2,7.33-2.17,8.4c-0.17,1.07-0.23,2.24-0.94,3.06c-0.35,0.4-0.82,0.67-1.2,1.03
				c-0.58,0.56-0.93,1.33-1.5,1.9c-0.85,0.85-2.08,1.17-3.26,1.38c-5.39,0.98-10.92,0.48-16.37-0.11c-5.61-0.6-11.2-1.3-16.76-2.28
				c-3.12-0.55-6.35-1.26-8.83-3.25c-2.77-2.22-4.15-5.69-6.09-8.66c-0.39-0.6-0.83-1.2-1.46-1.54c-0.74-0.39-1.63-0.37-2.46-0.28
				c-2.95,0.29-5.9,1.12-8.3,2.86c-1.67,1.2-3.98,3.49-3.85,5.75c0.12,1.98,3.47,2.19,4.67,3.58
				C137.31,205.19,139.94,210.11,144.33,212.95z"/>
			<path class="st30" d="M111.91,174.52c-1.84,2.45-3.67,4.89-5.51,7.34c-2.1,2.8-4.21,5.6-6.46,8.29
				c-7.21,8.59-15.94,15.9-25.65,21.5c-0.99,0.57-2.06,1.22-2.39,2.31c-0.33,1.1,0.21,2.25,0.77,3.25
				c6.54,11.77,16.66,21.25,27.88,28.69c0.91,0.6,1.9,1.21,2.99,1.15c1.07-0.06,1.99-0.77,2.82-1.46
				c8.22-6.85,15.45-14.88,21.41-23.77c2.58-3.85,5.04-7.97,8.88-10.56c1.29-0.87,2.94-2.05,2.49-3.54
				c-0.12-0.4-0.39-0.74-0.66-1.07c-2.34-2.88-4.78-5.67-7.32-8.37c3.63-0.89,5.36-5.32,8.86-6.64c2.47-0.94,5.53,0.08,6.96,2.3
				c1.16-2.64,3.3-4.83,5.91-6.05c-1.46-2.64-3.05-5.21-4.75-7.7c-2.05-3-4.3-5.9-7.06-8.25c-4.83-4.1-11.2-6.44-17.46-7.16
				C117.66,164.1,115.04,170.36,111.91,174.52z"/>
			<path class="st23" d="M136.67,161.41c-1.37,1.98-3.11,3.66-4.84,5.33c1.57,0.74,3.19,1.53,4.28,2.89
				c2.47,3.1,1.35,8.14,4.08,11.01c-0.19-1.08,0.61-2.07,1.35-2.88c1.39-1.53,2.78-3.05,4.18-4.58c0.9-0.98,1.85-2,3.11-2.43
				c1.15-0.39,2.4-0.24,3.6-0.08c-2.43-4.65-4.92-9.38-8.61-13.11c-0.95-0.96-3.18-3.22-4.58-1.8c-0.63,0.64-0.69,2.02-1.02,2.83
				C137.8,159.59,137.27,160.53,136.67,161.41z"/>
			<path class="st29" d="M157.67,137.91c1.08,1.75,3.29,6.33,3.26,7.76c-0.03,1.57-0.39,1.8-0.38,3.36
				c0.01,2.67,2.54,3.44,3.28,6.27c0,0.72-1.3,0.84-2.06,0.91c-0.29,0.03-0.6,0.06-0.82,0.24c-0.72,0.58,0.1,1.79-0.22,2.65
				c-0.43,1.12-2.34,0.83-2.95,1.87c-0.39,0.68-0.01,1.53,0.44,2.17c0.44,0.64,0.98,1.34,0.87,2.11c-0.14,1.02-1.37,1.74-1.26,2.76
				c0.06,0.58,0.35,1.26,0.08,1.78c-0.43,0.84-0.96,1.07-1.94,1.41c-1.61,0.55-5.63-0.73-6.94-1.81c-5.17-4.31-8.1-8.09-7.86-9.05
				c0.18-0.7,0.99-1.23,0.83-1.94c-0.18-0.81-1.32-0.8-2.02-1.23c-0.65-0.39-0.91-1.18-1.13-1.9c-0.23-0.76-0.46-1.51-0.69-2.27
				c-0.28-0.93-0.57-1.89-0.49-2.86c0.09-0.97,0.64-1.97,1.56-2.28c0.75-0.25,1.59-0.02,2.24,0.43s1.14,1.08,1.62,1.7
				c1.05-1.16,2.04-2.37,2.98-3.62c0.17-0.23,0.34-0.46,0.4-0.74c0.07-0.33-0.04-0.66-0.13-0.98c-0.37-1.28-0.64-2.58-0.79-3.9
				c-0.11-0.97-0.15-1.97,0.18-2.88c0.73-2.01,3.14-2.99,5.27-2.78c2.13,0.21,4.04,1.33,5.88,2.43
				C157.3,137.66,157.67,137.91,157.67,137.91z"/>
			<path class="st31" d="M140.96,150.39c1.17-0.75,2.32-0.09,2.97,0.8c0.21,0.29,0.49,0.61,0.84,0.57c0.29-0.03,0.49-0.3,0.65-0.54
				c0.94-1.38,0.15-2.14,1.09-3.52c0.28-0.41,1.93-1.78,2.4-1.93c8.97-2.95,9.97-5.52,9.96-5.72c-0.05-0.93-0.95-4.96-5.43-7.5
				c-2.72-1.55-6.63-3.31-12.99-2.88c-2.3,0.16-4.83,1.56-6.99,2.36c-1.15-1.25-2.48-2.59-4.18-2.71c-1.23-0.08-2.39,0.5-3.45,1.14
				c-2.39,1.43-4.7,3.32-5.66,5.93c-1.6,4.34,0.94,9.15,0.39,13.74c-0.18,1.49-0.67,3.05-0.09,4.43c0.49,1.17,1.66,1.94,2.24,3.06
				c0.75,1.45,0.42,3.21,0.74,4.81c0.36,1.8,1.62,3.4,3.28,4.17c1.77,0.82,4.07,0.86,5.21,2.45c0.9,1.26,0.66,2.97,0.99,4.49
				c0.33,1.5,1.28,2.86,2.57,3.68c0.46,0.29,0.96,0.52,1.36,0.89c0.92,0.84,1.11,2.18,1.39,3.39c0.28,1.21,0.87,2.54,2.07,2.87
				c1.13,0.31,2.35-0.51,2.8-1.59c0.45-1.08-0.11-6.38-0.13-7.21c-0.06-2.42-3.62-9.67-3.81-11.81c-0.12-1.32-0.91-2.69-0.36-3.9
				c0.15-0.33,0.4-0.62,0.56-0.95c0.49-1.03,0.08-2.23-0.07-3.36C139.03,153.37,140.96,150.39,140.96,150.39z"/>
		</g>
		<g>
			<g>
				<g>
					<g>
						<path class="st32" d="M406.24,238.92c-5.14,15.45-6.18,31.92-7.19,48.18c-0.21,3.39-0.42,6.77-0.63,10.16
							c-0.09,1.41-0.17,2.85,0.1,4.24c0.27,1.37,0.87,2.65,1.34,3.97c1.72,4.83,1.62,10.1,1.49,15.23
							c-0.24,10.03-0.49,20.08-1.93,30c-0.42,2.93-0.95,5.84-1.58,8.73c-0.17,0.8-0.34,1.68,0.06,2.39
							c0.41,0.72,1.28,1.02,2.07,1.26c2.54,0.78,5.08,1.56,7.61,2.33c2.3,0.71,5.29,1.2,6.7-0.75c2.22-3.08-2.62-7.5-0.92-10.89
							c0.36-0.73,0.99-1.29,1.36-2.01c0.37-0.71,0.46-1.52,0.56-2.32c0.77-6.69,1.53-13.39,2.3-20.08
							c0.58-5.08,1.16-10.19,0.76-15.28c-0.24-2.99-0.81-5.96-0.86-8.96c-0.14-8.61,4-16.63,7.99-24.27
							c1.86-3.57,3.74-7.21,4.51-11.17c0.84-4.32,0.33-8.77-0.19-13.14c-0.72-6.06-1.44-12.12-2.15-18.18
							c-0.24-2.02-0.5-4.11-1.52-5.88c-2.31-3.99-8.09-5.3-12.4-4.95C408.41,227.96,407.7,234.55,406.24,238.92z"/>
						<path class="st33" d="M416.36,244.96c1.64,5.34,4.35,10.28,6.48,15.44c3.97,9.65,5.87,20,8.06,30.2
							c0.89,4.17,1.84,8.34,3.38,12.32c1.44,3.73,3.4,7.26,4.59,11.08c1.52,4.84,1.77,9.97,1.77,15.04
							c0,11.39-1.24,22.79-3.69,33.92c4.89,1.2,9.78,2.39,14.67,3.59c-1.48-5.31-0.31-10.94,0.53-16.39
							c1.7-11.03,2.04-22.21,2.37-33.36c0.07-2.23,0.13-4.48-0.25-6.68c-0.66-3.79-2.61-7.23-3.52-10.96c-0.98-4-0.74-8.19-0.5-12.3
							c0.4-6.76,0.8-13.53,1.21-20.29c0.14-2.3,0.28-4.61,0.89-6.83c0.59-2.13,1.61-4.11,2.32-6.2c1.75-5.14,1.61-10.72,1.11-16.13
							c-0.12-1.32-0.29-2.71-1.09-3.77c-0.97-1.29-2.64-1.8-4.19-2.23c-8.73-2.43-17.84-4.92-26.99-4.1
							c-3.99,0.36-6.69,0.42-8.02,4.3C414.11,235.71,415.13,240.96,416.36,244.96z"/>
						<path class="st34" d="M414.99,373.43c-0.11,1.04-0.97,1.86-1.95,2.24c-0.97,0.37-2.04,0.38-3.09,0.38
							c-1.49-0.01-2.98-0.01-4.47-0.01c-3.87-0.01-7.74-0.01-11.6,0.25c-6.86,0.46-13.99,1.73-20.44-0.67
							c-0.28-0.11-0.57-0.22-0.79-0.42c-0.41-0.37-0.56-0.98-0.48-1.53c0.08-0.55,0.36-1.04,0.75-1.44c0.2-0.22,0.44-0.41,0.68-0.57
							c0.71-0.46,1.54-0.71,2.35-0.94c2.1-0.58,4.22-1.05,6.36-1.4c0.38-0.06,0.76-0.12,1.11-0.29c0.48-0.24,0.84-0.66,1.24-1.02
							c0.84-0.75,1.87-1.23,2.85-1.8c2.79-1.61,5.1-3.91,7.48-6.07c0.82-0.73,2.63-2.08,3.14-0.53c0.21,0.65,0.03,1.1,0.52,1.68
							c0.52,0.61,1.39,0.98,2.11,1.28c2.8,1.16,5.65,2.34,8.67,2.59c1.55,0.12,3.11,0,4.66-0.12c-0.09,2.1-0.17,4.24,0.45,6.24
							c0.1,0.33,0.22,0.66,0.31,0.99C414.96,372.64,415.04,373.03,414.99,373.43z"/>
						<path class="st35" d="M414.99,373.43c-0.11,1.04-0.97,1.86-1.95,2.24c-0.97,0.37-2.04,0.38-3.09,0.38
							c-1.49-0.01-2.98-0.01-4.47-0.01c-3.87-0.01-7.74-0.01-11.6,0.25c-6.86,0.46-13.99,1.73-20.44-0.67
							c-0.28-0.11-0.57-0.22-0.79-0.42c-0.41-0.37-0.56-0.98-0.48-1.53c0.08-0.55,0.36-1.04,0.75-1.44c0.13,0.63-0.25,1.28,0.7,1.82
							c0.7,0.4,1.55,0.4,2.36,0.4c10.6-0.11,21.19-0.23,31.78-0.34c1.41-0.02,2.84-0.03,4.2-0.41c1.01-0.28,1.96-0.75,2.79-1.38
							c0.03-0.02,0.06-0.04,0.08-0.07C414.96,372.64,415.04,373.03,414.99,373.43z"/>
						<path class="st34" d="M451.99,374.63c-0.03,0.47-0.14,0.96-0.45,1.31c-0.22,0.25-0.51,0.41-0.8,0.57
							c-1.42,0.76-2.83,1.53-4.24,2.29c-1.38,0.75-2.78,1.5-4.28,1.95c-1.04,0.31-2.12,0.47-3.2,0.63
							c-2.18,0.32-4.36,0.65-6.55,0.63c-2.31-0.02-4.62-0.43-6.8-1.21c-0.4-0.14-0.84-0.34-1.01-0.74
							c-0.13-0.29-0.07-0.64,0.01-0.95c0.1-0.39,0.23-0.76,0.38-1.12c0.49-1.17,1.25-2.24,2.21-3.07c0.92-0.8,2.04-1.41,2.72-2.42
							c0.36-0.53,0.59-1.14,0.97-1.66c0.33-0.44,0.75-0.78,1.16-1.16c1.52-1.43,2.49-3.12,3.05-5.1c0.5-1.77,1.82-3.13,3.77-3.27
							c0.82-0.06,1.63,0.12,2.42,0.33c1.43,0.4,2.88,0.96,3.92,2.02c0.37,0.37,0.68,0.81,1.1,1.12c0.81,0.61,1.88,0.68,2.88,0.79
							c0.26,0.03,0.53,0.07,0.73,0.24c0.19,0.17,0.26,0.43,0.32,0.67c0.42,1.7,0.84,3.4,1.27,5.1c0.12,0.52,0.25,1.04,0.34,1.56
							C451.98,373.64,452.02,374.13,451.99,374.63z"/>
						<path class="st35" d="M451.99,374.63c-0.03,0.47-0.14,0.96-0.45,1.31c-0.22,0.25-0.51,0.41-0.8,0.57
							c-1.42,0.76-2.83,1.53-4.24,2.29c-1.38,0.75-2.78,1.5-4.28,1.95c-1.04,0.31-2.12,0.47-3.2,0.63
							c-2.18,0.32-4.36,0.65-6.55,0.63c-2.31-0.02-4.62-0.43-6.8-1.21c-0.4-0.14-0.84-0.34-1.01-0.74
							c-0.13-0.29-0.07-0.64,0.01-0.95c0.1-0.39,0.23-0.76,0.38-1.12c0.18,0.06,0.34,0.13,0.5,0.19c1.23,0.45,2.4,0.75,3.7,0.88
							c3.02,0.3,6.07,0.6,9.1,0.37c3.03-0.24,6.08-1.04,8.58-2.77c1.66-1.16,3.16-2.74,4.97-3.51
							C451.98,373.64,452.02,374.13,451.99,374.63z"/>
					</g>
					<g>
						<path class="st36" d="M398.27,179c-2.16,1.14-4.37,2.18-6.48,3.41c-6.11,3.56-11.57,8.74-18.51,10.06
							c-2.04,0.39-4.23,0.4-6.09-0.52c-1.23-0.61-2.31-1.62-3.67-1.85c-3.48-0.58-1.71,2.64-2.16,4c-0.71,2.17-3.15,2.91-4.05,4.89
							c-1.12,2.44,0.72,5.24,2.62,6.75c1.51,1.21,3.56,1.81,5.44,1.35c3.79-0.92,6.97-4.05,10.88-5.16
							c4.18-1.19,8.52-1.71,12.75-2.71c7.14-1.7,14.29-3.41,21.26-5.7c2.81-0.92,5.62-1.96,8-3.72c1.52-1.12,2.81-2.51,4.1-3.89
							c1.29-1.38,2.57-2.76,3.86-4.14c0.23-0.25,0.48-0.53,0.48-0.87c0-0.38-0.31-0.69-0.6-0.94c-2.83-2.49-5.8-4.83-8.88-7
							c-3.28-2.31-5.18-3.05-8.35-0.65C405.54,174.82,401.97,177.05,398.27,179z"/>
						<path class="st37" d="M387.33,143.84c-1.97-3.54-4.81-6.93-8.72-8c-1.13-0.31-2.67-0.21-3.07,0.9
							c-0.31,0.86,0.32,1.78,1.04,2.34c0.72,0.56,1.6,0.97,2.11,1.72c0.08,0.12,0.16,0.26,0.17,0.41c0.01,0.3-0.23,0.54-0.46,0.73
							c-1.34,1.15-2.74,2.38-3.32,4.05c-1.08,3.08,0.96,6.29,2.9,8.91c0.88,1.2,1.84,2.45,3.21,3.01c1.13,0.46,2.42,0.39,3.54,0.88
							c1.09,0.47,1.9,1.42,2.6,2.39c2.08,2.86,3.55,6.1,5.5,9.05c2.71,4.11,6.29,7.57,10.08,10.71c6.35,5.25,13.83,9.81,22.06,10.12
							c7.58,0.28,14.78-3.05,21.63-6.32c0.61-0.29,1.24-0.6,1.65-1.13c0.29-0.38,0.45-0.84,0.6-1.29c1.08-3.45,1.44-7.23,0.36-10.68
							c-1.08-3.45-3.75-6.52-7.24-7.48c-4.8-1.32-9.66,1.39-14.39,2.95c-3.57,1.18-7.38,1.72-11.12,1.3
							c-5.12-0.58-9.82-2.93-13.97-5.9c-3.91-2.8-8.55-6.25-10.98-10.46C389.97,149.39,388.82,146.52,387.33,143.84z"/>
						<path class="st11" d="M411.57,167.1c3.16,1.1,6.18,2.6,8.98,4.43c0.49,0.32,1.01,0.67,1.59,0.74c0.7,0.08,1.38-0.25,2.01-0.57
							c3.99-2.05,7.98-4.09,11.98-6.14c0.69-0.35,1.43-0.72,2.2-0.68c0.62,0.03,1.21,0.32,1.75,0.63c5.36,3.1,8.72,9.35,8.35,15.53
							c-0.04,0.68-0.13,1.38-0.51,1.94c-0.57,0.86-1.65,1.19-2.64,1.46c-5.4,1.49-10.79,2.97-16.19,4.46
							c-1.69,0.47-3.46,0.94-5.19,0.63c-1.71-0.3-3.32-1.35-5.05-1.15c-1.33,3.56-2.48,7.19-3.43,10.88
							c-0.28,1.09-0.55,2.2-0.55,3.33c0.01,1.14,0.3,2.27,0.39,3.41c0.66,8.28-8.98,14.48-8.93,22.78c12.5,2,25.29,1.52,37.81,3.4
							c4.65,0.7,9.41,1.79,13.19,4.58c-1.26-3.73-0.75-7.79-0.22-11.69c1.5-10.85,3.13-21.74,6.49-32.17
							c1.85-5.75,4.23-11.35,5.68-17.21c1.45-5.87,1.94-12.16,0.01-17.89c-1.93-5.73-6.63-10.77-12.58-11.85
							c-7.25-1.32-13.37,3.13-19.99,5.15c-3.51,1.07-6.97,1.57-10.03,3.72c-2.58,1.81-4.7,4.19-6.93,6.41
							C418.53,162.45,413.59,167.81,411.57,167.1z"/>
					</g>
					<g>
						<path class="st36" d="M439.27,152.45c-0.44,1.21-1.03,2.37-1.39,3.61c-0.16,0.55-0.15,1.34,0.4,1.5
							c0.36,0.11,0.72-0.15,1.02-0.39c6.19-4.98,13.84-7.68,21.34-10.3c-1.98-1.04-2.75-3.43-3.35-5.58
							c-0.52-1.88-1.04-3.79-1.14-5.74c-0.05-0.86-0.01-1.73-0.16-2.58c-0.14-0.82-0.45-1.59-0.76-2.36
							c-0.13-0.33-0.27-0.67-0.56-0.87c-0.25-0.18-0.57-0.22-0.87-0.23c-1.49-0.03-2.88,0.72-4.15,1.51
							c-2.23,1.38-4.36,2.92-6.36,4.61c-2.15,1.81-4.29,4.07-3.65,7.03C440.35,145.97,440.46,149.2,439.27,152.45z"/>
						<path class="st37" d="M425.54,129.99c-0.25,1.81-1.59,3.55-1.08,5.31c0.62,0,1.25,0,1.87,0c0.65,1.14,1.3,2.28,1.95,3.43
							c0.6,1.06,1.9,2.25,2.8,1.44c-0.85,1.53,0.24,3.55,1.82,4.32c1.57,0.77,3.42,0.64,5.16,0.49c0.58-0.05,1.2-0.11,1.65-0.48
							c0.44-0.35,0.64-0.91,0.84-1.43c2.15-5.56,6.9-10.05,12.58-11.89c0.36-0.12,0.77-0.27,0.88-0.62
							c0.08-0.26-0.02-0.54-0.13-0.79c-0.59-1.44-1.19-2.87-1.78-4.31c-0.71-1.73-1.78-3.72-3.65-3.85c0.48-1.6-0.81-3.24-2.29-4
							c-1.48-0.76-3.2-0.98-4.7-1.71c-1.86-0.9-3.27-2.49-4.82-3.86c-4.16-3.66-9.69-2.47-11.9,2.78c-0.72,1.71-0.58,3.79-0.59,5.6
							C424.13,123.6,425.97,126.91,425.54,129.99z"/>
						<path class="st38" d="M418.18,112.45c0.14,2.2,1.85,4.32,4.04,4.57c3.1,0.36,5.58-2.69,8.66-3.19
							c0.47-0.08,0.98-0.08,1.39,0.15c0.37,0.21,0.62,0.59,0.8,0.98c1.01,2.14,0.52,4.84,1.84,6.81c0.59,0.88,1.49,1.53,1.97,2.48
							c0.47,0.93,0.47,2.05,0.95,2.98c0.48,0.93,1.88,1.54,2.54,0.73c-0.32-1.46-0.52-2.97-0.22-4.43c0.3-1.46,1.16-2.87,2.5-3.51
							c1.34-0.65,3.17-0.34,4,0.9c0.95,1.4,0.41,3.42,1.3,4.86c0.55,0.89,1.56,1.41,2.2,2.24c0.61,0.79,0.85,1.82,1.47,2.61
							c0.92,1.16,2.66,1.58,4.01,0.97c-0.15-1.91-0.3-3.82-0.15-5.73c0.22-2.79,1.08-5.49,1.61-8.24c0.53-2.75,0.72-5.69-0.36-8.28
							c-1.49-3.58-5.5-5.92-9.35-5.47c0-1.09-0.74-2.07-1.67-2.63c-0.93-0.56-2.02-0.77-3.1-0.91c-5.13-0.65-10.43,0.22-15.12,2.39
							C423.76,104.45,417.87,107.58,418.18,112.45z"/>
					</g>
				</g>
			</g>
			<g>
				
					<rect x="292.88" y="266.95" transform="matrix(6.123234e-17 -1 1 6.123234e-17 84.0777 642.4881)" class="st8" width="140.8" height="24.5"/>
				<path class="st32" d="M375.53,208.8v-2.22c0-6.77-5.49-12.25-12.25-12.25l0,0c-6.77,0-12.25,5.49-12.25,12.25v2.22H375.53z"/>
				
					<rect x="284.74" y="275.09" transform="matrix(6.123234e-17 -1 1 6.123234e-17 75.9416 634.3519)" class="st39" width="140.8" height="8.23"/>
				
					<rect x="292.88" y="275.18" transform="matrix(6.123234e-17 -1 1 6.123234e-17 84.0777 642.488)" class="st40" width="140.8" height="8.04"/>
				<polygon class="st25" points="375.53,349.61 351.03,349.61 363.84,370.19 				"/>
				
					<rect x="361.58" y="198.26" transform="matrix(6.123234e-17 -1 1 6.123234e-17 152.7736 573.7922)" class="st5" width="3.41" height="24.5"/>
			</g>
		</g>
		<g>
			<g>
				<path class="st41" d="M255.64,352.37c1.61,0.18,3.23,0.01,4.83-0.17c1.77-0.19,3.55-0.39,5.32-0.58
					c0.86-0.09,1.74-0.18,2.56,0.07c0.82,0.25,1.58,0.94,1.62,1.8c0.06,1.15-1.07,1.98-2.09,2.52c-4.22,2.25-9.05,3.71-13.78,2.99
					c-2.14-0.33-4.35-1.21-5.53-3.02c-0.91-1.39-1.12-4.62,0.77-5.44c1.01-0.44,1.84,0.37,2.72,0.79
					C253.2,351.87,254.4,352.23,255.64,352.37z"/>
				<path class="st19" d="M259.91,355.7c3.12,0.07,6.28,0.14,9.29-0.67c1.26-0.34,2.49-0.82,3.79-0.95c1.3-0.12,2.73,0.19,3.56,1.2
					c0.89,1.08,0.86,2.7,0.27,3.96c-0.59,1.27-1.64,2.25-2.7,3.16c-5.77,4.96-12.86,8.8-20.46,9.16c-2.08,0.1-4.21-0.06-6.18,0.59
					c-2.26,0.74-4.41,2.5-6.72,1.97c-0.81-0.19-1.52-0.64-2.22-1.09c-0.45-0.29-0.93-0.62-1.05-1.14c-0.14-0.57,0.22-1.13,0.53-1.63
					c1.7-2.69,2.7-5.75,3.64-8.8c0.55-1.8,1.1-3.62,2.11-5.21c0.74-1.18,1.81-2.3,3.11-2.86c1.5-0.65,2.3,0.38,3.69,0.95
					C253.51,355.54,256.77,355.63,259.91,355.7z"/>
				<path class="st42" d="M225.05,337.41c2.09,1.17,4.2,2.32,6.39,3.3c6.38,2.85,13.49,4.3,19.13,8.43
					c-0.85,1.76-1.7,3.52-2.55,5.28c-0.57,1.17-1.27,2.46-2.51,2.84c-1.01,0.3-2.08-0.1-3.06-0.49c-6.89-2.76-13.78-5.52-20.66-8.28
					c-14.23-5.7-28.48-11.41-42.33-17.97c-1.96-0.93-3.95-1.9-5.47-3.45c-1.52-1.55-2.49-3.8-1.96-5.9c0.77-3.02,4.1-4.49,7.03-5.54
					c1.57-0.56,2.78-1.3,4.37-0.92c1.56,0.38,3.17,1.35,4.63,2.02c3.11,1.43,6.16,2.98,9.18,4.6c6.1,3.28,12.03,6.85,17.98,10.38
					C218.47,333.63,221.74,335.55,225.05,337.41z"/>
				<path class="st43" d="M238.83,371.92c-1.01,1.6-5.64-2.83-7.27-3.43c-4.84-1.79-9.71-4.21-14.86-6.32
					c-10.37-4.26-20.75-8.52-31.12-12.78c-2.89-1.19-5.89-2.4-9.02-2.26c-3.51,0.15-6.7,1.97-9.73,3.74
					c-9.28,5.42-18.57,10.84-27.85,16.26c-4.46,2.6-8.97,5.23-13.93,6.67c-3.51,1.02-7.16,1.42-10.8,1.75
					c-3.53,0.32-7.19,0.58-10.56-0.53c-3.91-1.29-7-4.25-9.95-7.13c-0.71-0.7-1.47-1.48-1.55-2.48c-0.06-0.7,0.24-1.38,0.54-2.01
					c1.91-4.06,4.14-7.97,6.65-11.68c0.98-1.45,2.02-2.89,3.36-4.02c1.67-1.41,3.71-2.29,5.72-3.14c7-2.96,13.08-7.48,20.29-9.87
					c11.31-3.74,24.18-4.54,34.48-10.53c3.69-2.14,7.45-4.82,11.71-4.63c2.88,0.13,5.52,1.59,8.03,3.01
					c9.31,5.26,18.61,10.52,27.92,15.78c5.69,3.21,11.52,6.48,17.95,7.57c4.31,0.73,11.08,3.75,16.46,5.57
					C250.33,353.15,241.32,367.97,238.83,371.92z"/>
			</g>
			<g>
				<path class="st44" d="M125.27,318.65c0.08,0.99,0.2,2.04,0.77,2.86c0.82,1.18,2.36,1.61,3.79,1.74c2.54,0.24,5.08-0.16,7.6-0.56
					c-0.58,1.66-2,2.88-3.44,3.89c-2.03,1.42-4.24,2.63-6.65,3.2c-1.9,0.45-4.11,0.42-5.56-0.89c-0.76-0.69-1.21-1.65-1.62-2.59
					c-2.78-6.43-4.43-13.55-3.28-20.46c0.34-2.07,0.99-4.2,2.48-5.66c1.45-1.43,5.98-2.63,6.11,0.49c0.07,1.81-0.33,3.74-0.41,5.55
					c-0.09,1.94-0.12,3.88-0.1,5.82C124.98,314.25,125.08,316.45,125.27,318.65z"/>
				<path class="st44" d="M147.46,319.54c1.1-0.75,2.32-1.39,3.64-1.53c1.74-0.17,3.53,0.55,5.22,0.1c0.58-0.15,1.12-0.44,1.71-0.53
					c0.96-0.14,1.9,0.27,2.79,0.66c0.19,0.09,0.4,0.19,0.48,0.39c0.15,0.36-0.23,0.7-0.56,0.9c-4.08,2.51-8.51,4.44-13.13,5.72
					c-1.43,0.4-3.28-0.27-3.41-1.99C144.08,321.67,146.34,320.3,147.46,319.54z"/>
				<path class="st5" d="M104,346.96c-2.31,3.7-4.62,7.41-7.32,10.83c-1.25,1.58-2.6,3.13-3.39,4.99c-0.53,1.26-0.99,2.84-2.31,3.19
					c-0.73,0.2-1.51-0.07-2.19-0.4c-1.71-0.81-3.25-1.98-4.5-3.4c-0.87-1-1.6-2.13-2.46-3.15c-0.93-1.1-2.02-2.06-2.84-3.25
					c-0.86-1.24-1.39-2.67-1.85-4.1c-1.77-5.56-2.49-11.44-2.13-17.26c0.02-0.29,0.06-0.62,0.28-0.81c0.18-0.15,0.42-0.17,0.65-0.17
					c1.16-0.03,2.32,0.12,3.46,0.31c4.94,0.82,9.75,2.35,14.26,4.53c2.68,1.29,5.23,2.81,7.79,4.33c0.95,0.56,2.26,1.07,3.06,1.82
					C105.49,345.34,104.71,345.83,104,346.96z"/>
				<path class="st45" d="M73.99,336.06c0.48,3.84,1.26,8.09,4.35,10.43c2.54,1.93,5.99,2.04,9.18,2.07
					c3.39,0.03,6.79,0.06,10.14-0.48c3.21-0.51,6.32-1.54,9.35-2.74c9.49-3.76,18.22-9.21,27.52-13.42c6.05-2.74,12.41-5,17.93-8.63
					c0.74-0.49,0.45-1.64-0.44-1.73l-5.97-0.61c-1.04-0.11-2.1-0.21-3.14-0.13c-1.62,0.13-3.16,0.72-4.68,1.3
					c-2.09,0.8-4.18,1.61-6.17,2.64c-1.8,0.93-3.53,2.05-5.46,2.66c-1.45,0.45-2.98,0.61-4.49,0.74
					c-7.37,0.67-14.77,1.06-22.17,1.19c-1.13,0.02-2.29,0.02-3.34-0.41c-2.49-1.04-3.36-4.11-3.53-6.8
					c-0.2-3.17,0.12-6.36-0.21-9.51c-0.33-3.16-1.43-6.42-3.89-8.42c-2.09-1.7-4.94-2.27-7.62-2.03c-3.12,0.29-6.64,1.03-8.73,3.57
					c-2.01,2.44-0.83,3.26-0.86,6.73c-0.03,3.58,0.69,7.92,0.99,11.48C73.06,328,73.48,332.03,73.99,336.06z"/>
				<path class="st5" d="M117.24,277.47c1.49,0.75,3.01,1.51,4.17,2.7c1.56,1.59,2.33,3.78,2.93,5.93
					c1.28,4.58,2.01,9.32,2.14,14.08c-1.48,0.26-2.97,0.52-4.45,0.78c-0.31,0.05-0.64,0.12-0.84,0.36
					c-0.18,0.21-0.21,0.51-0.23,0.79c-0.42,5.98,0.12,12.03,1.6,17.84c0.56,2.19,1.25,4.38,1.28,6.64c0,0.36-0.01,0.73-0.18,1.04
					c-0.42,0.77-1.5,0.8-2.38,0.8c-4.44-0.01-8.65,1.82-12.98,2.79c-4.56,1.02-9.33,1.09-13.92,0.21c-0.79-0.15-1.61-0.35-2.21-0.89
					c-0.83-0.74-1.03-1.93-1.18-3.03c-0.89-6.49-1.51-13.01-1.87-19.55c-0.02-0.4-0.06-0.83-0.33-1.13
					c-0.29-0.31-0.75-0.36-1.17-0.4c-2.88-0.25-5.8-0.51-8.63,0.11c-2.82,0.61-5.57,2.23-6.84,4.83c-0.25,0.51-0.71,1.16-1.21,0.91
					c-0.32-0.16-0.37-0.59-0.38-0.94c-0.07-2.65-0.15-5.3-0.22-7.94c-0.06-2.3-0.13-4.6,0.1-6.89c0.63-6.25,3.52-12.26,8.03-16.64
					c1.86-1.81,3.97-3.35,5.77-5.22c1.48-1.55,2.87-3.39,4.92-4c1.44-0.43,2.99-0.16,4.47,0.11c4.44,0.82,8.88,2.02,13.34,2.68
					C110.77,273.97,113.79,275.74,117.24,277.47z"/>
			</g>
			<g>
				<path class="st45" d="M111.04,236.26c0.25,0.49,0.41,1.02,0.65,1.51c0.52,1.06,1.43,1.91,2.48,2.46
					c0.71,0.37,1.49,0.63,2.12,1.12c0.63,0.5,1.08,1.35,0.8,2.1c-0.33,0.89-1.58,1.53-1.24,2.42c0.1,0.27,0.34,0.46,0.56,0.66
					c0.98,0.9,1.57,2.22,1.58,3.56c0,0.56-0.07,1.16,0.23,1.62c0.16,0.23,0.4,0.4,0.6,0.59c1.23,1.13,1.19,3.35-0.09,4.43
					c-0.77,0.65-1.81,0.87-2.81,1.03c-3.99,0.64-8.11,0.8-11.88,2.27c-1.01,0.4-2.08,0.89-3.15,0.66c-2.17-0.48-3.14-3.7-5.36-3.63
					c-0.76,0.02-1.45,0.46-2.19,0.62c-1.19,0.25-2.43-0.27-3.32-1.1c-0.88-0.83-1.46-1.93-1.94-3.04c-0.65-1.51-1.16-3.14-1.01-4.77
					c0.15-1.64,1.09-3.28,2.63-3.87c0.67-0.26,1.41-0.3,2.11-0.47c2.9-0.69,4.83-3.36,6.51-5.83c1.47-2.17,3.55-5.23,6.35-5.74
					C106.85,232.46,110.06,234.36,111.04,236.26z"/>
				<path class="st44" d="M112.19,260.93c-1.1,1.78-1.67,3.82-2.22,5.84c-0.82,2.96-1.63,5.95-1.86,9.02
					c-0.06,0.82-0.1,1.71-0.62,2.35c-0.66,0.81-1.91,0.91-2.89,0.56c-0.99-0.35-1.8-1.06-2.63-1.69c-3.92-2.93-8.78-4.22-13.37-5.9
					c-0.39-0.14-0.84-0.38-0.84-0.79c2.15-0.57,4.62-1.42,5.35-3.52c0.31-0.9,0.24-1.87,0.17-2.82c-0.18-2.34-0.36-4.68-0.55-7.02
					c-0.03-0.32-0.05-0.66,0.08-0.96c0.24-0.56,0.91-0.78,1.51-0.88c3.16-0.53,6.36,0.4,9.55,0.6c3.71,0.24,7.5-0.51,11.13,0.3
					c0.4,0.09,1.83,0.39,1.86,0.95c0.02,0.55-1.23,0.76-1.64,0.98C113.96,258.63,112.93,259.72,112.19,260.93z"/>
				<path class="st46" d="M104.42,224.81c2.24-0.49,4.75,0.9,5.51,3.06c0.23,0.65,0.32,1.35,0.39,2.04
					c0.12,1.09,0.21,2.21-0.07,3.28c-0.27,1.07-0.97,2.08-2,2.45c-0.68,0.25-1.48,0.22-2.03,0.68c-0.57,0.48-0.66,1.31-0.9,2.02
					c-0.52,1.58-2,2.79-3.65,3c-0.5,0.06-1.08,0.08-1.39,0.47c-0.21,0.26-0.23,0.62-0.29,0.95c-0.22,1.19-1.11,2.22-2.25,2.62
					c-0.58,0.2-1.21,0.25-1.79,0.46c-0.58,0.21-1.14,0.67-1.19,1.29c-0.07,0.8,0.68,1.39,1.26,1.94c0.58,0.56,1.02,1.57,0.41,2.09
					c-0.46,0.39-1.17,0.15-1.67-0.18c-0.5-0.34-0.99-0.78-1.59-0.79c-0.69,0-1.25,0.59-1.54,1.21c-0.6,1.28-0.45,2.89,0.39,4.03
					c0.27,0.37,0.62,0.71,0.8,1.13c0.43,1.01-0.12,2.35,0.61,3.16c0.31,0.34,0.8,0.52,1,0.94c0.23,0.49-0.05,1.09,0.11,1.61
					c0.12,0.4,0.48,0.67,0.75,0.99c1.14,1.3,0.78,3.61-0.71,4.49c-0.28,0.17-0.59,0.29-0.83,0.51c-0.23,0.22-0.37,0.52-0.56,0.76
					c-0.89,1.11-2.62,1.92-4.01,1.58c-1.69,2.01-5.23,0.95-6.91-1.07c-0.26-0.32-0.49-0.68-0.85-0.88
					c-0.24-0.14-0.51-0.19-0.78-0.27c-2.46-0.7-4.02-3.65-3.21-6.08c-2.48-0.85-4.16-3.3-4.78-5.85c-0.24-0.99-0.34-2.06,0.03-3
					c0.09-0.23,0.21-0.46,0.21-0.71c0-0.33-0.22-0.61-0.42-0.88c-1.34-1.82-2.09-4.07-2.09-6.33c0-0.97,0.14-1.98,0.65-2.81
					c0.51-0.83,1.43-1.46,2.41-1.39c0.12-1.72-0.57-3.47-0.2-5.16c0.51-2.35,3.34-3.89,5.59-3.04c-0.47-1.53-0.05-3.3,1.06-4.45
					c1.11-1.15,2.86-1.64,4.41-1.24c-0.05-0.99,0.75-1.87,1.68-2.21c0.93-0.34,1.96-0.27,2.95-0.17c0.09-1.43,1-2.77,2.3-3.38
					c1.29-0.61,2.91-0.47,4.07,0.36c-0.14-0.1,2.19-0.93,2.47-0.94c0.82-0.03,1.75,0.14,2.57,0.26
					C102.44,221.69,103.47,223.01,104.42,224.81z"/>
			</g>
			<polygon class="st46" points="202.13,273.06 181.01,276.2 161.05,317.99 183.62,311.62 			"/>
			<polygon class="st28" points="183.62,311.62 183.84,315.03 129.09,339.45 126.76,335.71 160.9,319.27 161.05,317.99 			"/>
		</g>
	</g>
</g>
<g id="DESIGNED_BY_FREEPIK" class="st22">
	<g class="st24">
		<g id="XMLID_319_">
			<g id="XMLID_338_">
				<path id="XMLID_346_" class="st47" d="M285.23,432c-0.43,0.44-0.8,0.93-1.11,1.45l-0.47-0.24c-0.07-0.3-0.35-0.5-0.66-0.47
					c-0.33,0.04-0.57,0.34-0.53,0.67c0.04,0.33,0.34,0.57,0.67,0.53c0.07-0.01,0.13-0.03,0.18-0.05l0.45,0.23
					c-0.25,0.55-0.43,1.14-0.54,1.74l0.75,0.13c0.23-1.31,0.85-2.51,1.79-3.47L285.23,432z"/>
				<path id="XMLID_345_" class="st47" d="M290.71,429.7c-0.17,0-0.34,0.01-0.51,0.02l-0.07-0.63c0.19-0.15,0.3-0.39,0.27-0.64
					c-0.05-0.39-0.4-0.67-0.8-0.63c-0.39,0.05-0.67,0.4-0.63,0.8c0.03,0.25,0.19,0.46,0.4,0.56l0.07,0.62
					c-0.71,0.12-1.4,0.33-2.06,0.65l0.33,0.68c0.93-0.45,1.94-0.67,3-0.67c0.5,0,0.99,0.05,1.48,0.16l0.16-0.74
					C291.81,429.76,291.26,429.7,290.71,429.7z"/>
				<path id="XMLID_344_" class="st47" d="M297.32,432.25c0.33-0.04,0.57-0.34,0.53-0.67c-0.04-0.33-0.34-0.57-0.67-0.53
					c-0.31,0.04-0.54,0.3-0.53,0.61l-0.42,0.36c-0.42-0.43-0.89-0.81-1.41-1.14l-0.4,0.64c1.13,0.71,2.02,1.73,2.56,2.93l0.69-0.31
					c-0.25-0.55-0.57-1.07-0.94-1.54l0.4-0.35C297.19,432.25,297.25,432.26,297.32,432.25z"/>
				<path id="XMLID_343_" class="st47" d="M290.17,439.91c-0.39,0.02-0.77,0.03-1.16,0.03c-0.88,0-1.73-0.06-2.48-0.18
					c-0.39-0.06-0.85-0.15-1.27-0.29c1.05,1.86,3.07,3.13,5.39,3.13c2.86,0,5.26-1.92,5.95-4.5c-0.68,0.45-1.51,0.83-2.46,1.12
					C292.96,439.59,291.59,439.82,290.17,439.91z"/>
				<path id="XMLID_339_" class="st47" d="M290.71,431.22c-3.35,0-6.08,2.67-6.08,5.94c0,0.43,0.05,0.85,0.14,1.26
					c0.67,0.48,2.71,0.89,5.35,0.73c2.88-0.17,5.3-0.96,6.67-2.16c-0.01-0.2-0.02-0.39-0.05-0.58
					C296.37,433.45,293.77,431.22,290.71,431.22z M288.55,437.73c-1.02,0-1.85-0.83-1.85-1.85c0-1.02,0.83-1.85,1.85-1.85
					c1.02,0,1.85,0.83,1.85,1.85C290.4,436.9,289.57,437.73,288.55,437.73z M293.29,436.82c-0.75,0-1.36-0.61-1.36-1.36
					s0.61-1.36,1.36-1.36c0.75,0,1.36,0.61,1.36,1.36S294.04,436.82,293.29,436.82z"/>
			</g>
			<path id="XMLID_336_" class="st47" d="M306.72,433.09c-0.29-0.12-0.81-0.31-1.38-0.24c-0.55,0.07-0.84,0.34-0.84,1.01v0.87h2.23
				v1.72h-2.23v5.45h-1.93v-5.45h-1.34v-1.72h1.34v-0.89c0-1.68,0.9-2.78,2.57-2.78c0.64,0,1.16,0.12,1.59,0.31L306.72,433.09z"/>
			<path id="XMLID_334_" class="st47" d="M311.42,436.42c-0.18-0.03-0.36-0.05-0.53-0.05c-0.9,0-1.51,0.55-1.51,1.61v3.91h-1.93
				v-7.17h1.87v0.78c0.45-0.67,1.14-0.98,2.02-0.98c0.41,0,0.85,0.13,1.09,0.34L311.42,436.42z"/>
			<path id="XMLID_331_" class="st47" d="M319.09,438.3c0,0.22-0.01,0.49-0.04,0.65h-5.08c0.21,1.04,0.93,1.49,1.84,1.49
				c0.62,0,1.3-0.25,1.81-0.69l1.13,1.24c-0.81,0.75-1.85,1.09-3.06,1.09c-2.2,0-3.72-1.5-3.72-3.75c0-2.26,1.48-3.8,3.63-3.8
				C317.67,434.53,319.08,436.06,319.09,438.3z M313.97,437.63h3.18c-0.18-0.92-0.73-1.44-1.56-1.44
				C314.68,436.19,314.14,436.74,313.97,437.63z"/>
			<path id="XMLID_328_" class="st47" d="M326.74,438.3c0,0.22-0.01,0.49-0.04,0.65h-5.08c0.21,1.04,0.93,1.49,1.84,1.49
				c0.62,0,1.3-0.25,1.81-0.69l1.13,1.24c-0.81,0.75-1.85,1.09-3.06,1.09c-2.2,0-3.72-1.5-3.72-3.75c0-2.26,1.48-3.8,3.63-3.8
				C325.32,434.53,326.73,436.06,326.74,438.3z M321.63,437.63h3.18c-0.18-0.92-0.73-1.44-1.56-1.44
				C322.33,436.19,321.8,436.74,321.63,437.63z"/>
			<path id="XMLID_325_" class="st47" d="M335.09,438.3c0,2.15-1.5,3.77-3.47,3.77c-0.96,0-1.64-0.38-2.11-0.93v3.71h-1.92v-10.13
				h1.89v0.79c0.47-0.58,1.15-0.98,2.14-0.98C333.59,434.53,335.09,436.15,335.09,438.3z M329.41,438.3c0,1.13,0.75,1.98,1.84,1.98
				c1.14,0,1.85-0.88,1.85-1.98c0-1.1-0.71-1.98-1.85-1.98C330.16,436.33,329.41,437.17,329.41,438.3z"/>
			<path id="XMLID_322_" class="st47" d="M338.19,432.37c0,0.7-0.54,1.23-1.24,1.23c-0.7,0-1.23-0.53-1.23-1.23
				c0-0.7,0.53-1.24,1.23-1.24C337.65,431.13,338.19,431.68,338.19,432.37z M337.93,441.89H336v-7.17h1.93V441.89z"/>
			<path id="XMLID_320_" class="st47" d="M341.15,437.27l2.7-2.55h2.37l-3.48,3.38l3.5,3.8h-2.38l-2.72-2.9v2.9h-1.93v-10.66h1.93
				V437.27z"/>
		</g>
		<g>
			<path class="st47" d="M209.53,441.83v-1.05c-0.53,0.72-1.39,1.23-2.39,1.23c-1.85,0-3.15-1.41-3.15-3.71
				c0-2.26,1.29-3.72,3.15-3.72c0.95,0,1.82,0.47,2.39,1.25v-3.76h1.1v9.77H209.53z M209.53,439.91v-3.21
				c-0.4-0.62-1.24-1.14-2.12-1.14c-1.42,0-2.27,1.17-2.27,2.74c0,1.57,0.85,2.72,2.27,2.72
				C208.29,441.02,209.14,440.52,209.53,439.91z"/>
			<path class="st47" d="M212.05,438.28c0-2.05,1.46-3.71,3.49-3.71c2.14,0,3.4,1.67,3.4,3.79v0.28h-5.73
				c0.09,1.33,1.03,2.45,2.55,2.45c0.81,0,1.63-0.32,2.18-0.89l0.53,0.72c-0.7,0.7-1.65,1.08-2.81,1.08
				C213.56,442,212.05,440.49,212.05,438.28z M215.53,435.49c-1.51,0-2.26,1.27-2.31,2.36h4.64
				C217.84,436.79,217.14,435.49,215.53,435.49z"/>
			<path class="st47" d="M219.73,440.89l0.57-0.79c0.47,0.54,1.36,1.01,2.33,1.01c1.08,0,1.67-0.51,1.67-1.22
				c0-1.71-4.38-0.66-4.38-3.28c0-1.1,0.95-2.04,2.64-2.04c1.2,0,2.05,0.45,2.62,1.03l-0.51,0.76c-0.42-0.51-1.2-0.89-2.11-0.89
				c-0.97,0-1.57,0.48-1.57,1.11c0,1.55,4.38,0.53,4.38,3.28c0,1.19-0.95,2.14-2.78,2.14C221.43,442,220.45,441.65,219.73,440.89z"
				/>
			<path class="st47" d="M226.6,433.01c0-0.41,0.34-0.75,0.73-0.75c0.41,0,0.75,0.34,0.75,0.75c0,0.41-0.34,0.73-0.75,0.73
				C226.94,433.74,226.6,433.42,226.6,433.01z M226.79,441.83v-7.07h1.1v7.07H226.79z"/>
			<path class="st47" d="M229.7,443.64l0.56-0.82c0.59,0.7,1.29,0.97,2.3,0.97c1.17,0,2.27-0.57,2.27-2.12v-1.01
				c-0.51,0.72-1.38,1.26-2.37,1.26c-1.85,0-3.15-1.38-3.15-3.66c0-2.27,1.29-3.68,3.15-3.68c0.95,0,1.8,0.47,2.37,1.25v-1.07h1.1
				v6.87c0,2.34-1.64,3.08-3.37,3.08C231.36,444.7,230.54,444.46,229.7,443.64z M234.83,439.79v-3.09
				c-0.38-0.62-1.23-1.14-2.11-1.14c-1.42,0-2.27,1.13-2.27,2.7c0,1.55,0.85,2.7,2.27,2.7C233.6,440.95,234.45,440.41,234.83,439.79
				z"/>
			<path class="st47" d="M242.54,441.83v-4.63c0-1.24-0.63-1.64-1.58-1.64c-0.86,0-1.68,0.53-2.09,1.1v5.17h-1.1v-7.07h1.1v1.03
				c0.5-0.59,1.46-1.2,2.52-1.2c1.48,0,2.26,0.75,2.26,2.29v4.97H242.54z"/>
			<path class="st47" d="M245.05,438.28c0-2.05,1.46-3.71,3.49-3.71c2.14,0,3.4,1.67,3.4,3.79v0.28h-5.73
				c0.09,1.33,1.03,2.45,2.55,2.45c0.81,0,1.63-0.32,2.18-0.89l0.53,0.72c-0.7,0.7-1.66,1.08-2.81,1.08
				C246.56,442,245.05,440.49,245.05,438.28z M248.53,435.49c-1.51,0-2.26,1.27-2.31,2.36h4.64
				C250.84,436.79,250.14,435.49,248.53,435.49z"/>
			<path class="st47" d="M258.47,441.83v-1.05c-0.53,0.72-1.39,1.23-2.39,1.23c-1.85,0-3.15-1.41-3.15-3.71
				c0-2.26,1.29-3.72,3.15-3.72c0.95,0,1.82,0.47,2.39,1.25v-3.76h1.1v9.77H258.47z M258.47,439.91v-3.21
				c-0.4-0.62-1.25-1.14-2.12-1.14c-1.42,0-2.27,1.17-2.27,2.74c0,1.57,0.85,2.72,2.27,2.72
				C257.23,441.02,258.08,440.52,258.47,439.91z"/>
			<path class="st47" d="M264.81,441.83v-9.77h1.1v3.76c0.57-0.78,1.42-1.25,2.39-1.25c1.85,0,3.15,1.46,3.15,3.72
				c0,2.3-1.3,3.71-3.15,3.71c-1,0-1.86-0.51-2.39-1.23v1.05H264.81z M268.02,441.02c1.44,0,2.29-1.16,2.29-2.72
				c0-1.57-0.85-2.74-2.29-2.74c-0.86,0-1.73,0.53-2.11,1.14v3.21C266.29,440.52,267.16,441.02,268.02,441.02z"/>
			<path class="st47" d="M272.65,443.6c0.16,0.07,0.43,0.12,0.6,0.12c0.48,0,0.81-0.16,1.05-0.75l0.47-1.07l-2.96-7.15H273l2.36,5.8
				l2.34-5.8h1.2l-3.54,8.51c-0.42,1.03-1.14,1.42-2.08,1.44c-0.23,0-0.6-0.04-0.81-0.1L272.65,443.6z"/>
		</g>
	</g>
</g>
</svg>
