<svg id="Capa_1" data-name="Capa 1" xmlns="http://www.w3.org/2000/svg" viewBox="0 0 432.59 432.59"><title>Artboard ۱</title><polygon points="254.79 314.05 263.85 382.94 168.75 382.94 177.81 314.05 254.79 314.05" fill="gray"/><path d="M432.59,273.1V302A12.08,12.08,0,0,1,420.51,314H12.08A12.08,12.08,0,0,1,0,302V273.1H432.59Z" fill="#999"/><path d="M432.59,51.74V273.1H0V51.74A12.08,12.08,0,0,1,12.08,39.65H420.51A12.08,12.08,0,0,1,432.59,51.74Z" fill="#e2e0d0"/><rect x="132.47" y="372.93" width="167.65" height="20" fill="#999"/><path d="M174.39,39.65,33.16,273.1H430.29V43.73a12,12,0,0,0-9-4.07Z" fill="#eae8dc"/><path d="M104.4,57.93H45.48a4.91,4.91,0,0,0-4.91,4.91v78.57a4.91,4.91,0,0,0,4.91,4.91H104.4a4.91,4.91,0,0,0,4.91-4.91V62.84A4.91,4.91,0,0,0,104.4,57.93Z" fill="#fff"/><path d="M87,122.74c.67,4.45-1.78,10.46-1.78,10.24-2.45-5.34-10.24-5.79-10.24-5.79s-8,.44-10.24,5.79c0,0-2.23-5.79-1.78-10.24C57.14,124.07,42.39,129,41,143.37a4.91,4.91,0,0,0,4.5,3H104.4a4.9,4.9,0,0,0,4.16-2.3C108.56,126.75,92.52,124.07,87,122.74Z" fill="#84dbff"/><path d="M84.51,118.51c0,.89-.67,4.9-9.35,8.23h-.45c-8.68-3.34-9.35-7.34-9.35-8.23h0a12,12,0,0,1,1.11-4.67c2.45,2.67,5.34,4.45,8.46,4.45s6-1.78,8.46-4.45A12,12,0,0,1,84.51,118.51Z" fill="#ffd05b"/><path d="M84.51,118.51s.45,4.9-9.57,8.46c0,0,7.79.45,10.24,5.79C85.18,133,89.63,121.18,84.51,118.51Z" fill="#54c0eb"/><path d="M65.37,118.51c-5.12,2.89-.67,14.46-.67,14.46,2.23-5.34,10.24-5.79,10.24-5.79C64.93,123.18,65.37,118.51,65.37,118.51Z" fill="#54c0eb"/><path d="M83.84,115.17c-2.67,2.67-5.56,4.45-8.9,4.45s-6.45-1.78-8.9-4.45c.22-.45.22-.89.45-1.34,2.45,2.67,5.34,4.45,8.46,4.45s6-1.78,8.46-4.45A3.16,3.16,0,0,1,83.84,115.17Z" fill="#f9b54c"/><path d="M91.41,105.83c-1.34,2.23-3.12,3.34-4.67,3.12-2.89,5.34-7.12,9.35-11.79,9.35s-8.9-4-11.79-9.35c-1.56.22-3.34-1.11-4.67-3.12-1.56-2.45-1.56-5.34,0-6.23a1.67,1.67,0,0,1,1.11-.22,14.13,14.13,0,0,0,2.23,4c-1.34-7.79,4.23-8.46,3.34-16,0,0,3.56,8,13.8,2.45l-.89,1.56c14-3.12,9.57,13.13,9.35,14a20.34,20.34,0,0,0,3.34-6,.82.82,0,0,1,.67.22C93,100.71,93,103.38,91.41,105.83Z" fill="#ffd05b"/><path d="M59.59,81.58s2.89-.45,3.78,1.78c0,0-.89-3.12,0-4.45s0-.45,0-.45-.45,2,.45,3.12c0,0,2-7.34,14.24-5.34,0,0-2.45-.22-5.34,2.23,0,0,8.46-3.78,13.57,2a10.81,10.81,0,0,0-3.12-.89s10.9,4.23,9.35,15.13l-.67-2.45a19,19,0,0,1-4.45,13.35s5.12-17.36-9.35-14L78.95,90c-10.24,5.56-13.8-2.45-13.8-2.45.89,7.34-4.67,8.23-3.34,16,0,0-4.9-5.56-2.89-12.91l-1.56,1.78s-1.11-6.68,5.34-8.9A4.73,4.73,0,0,0,59.59,81.58Z" fill="#324a5e"/><path d="M198,57.93H139.05a4.91,4.91,0,0,0-4.91,4.91v78.57a4.91,4.91,0,0,0,4.91,4.91H198a4.91,4.91,0,0,0,4.91-4.91V62.84A4.91,4.91,0,0,0,198,57.93Z" fill="#fff"/><path d="M180.53,122.74c.67,4.45-1.78,10.46-1.78,10.24-2.45-5.34-10.24-5.79-10.24-5.79s-8,.44-10.24,5.79c0,0-2.23-5.79-1.78-10.24-5.79,1.33-20.53,6.22-21.95,20.63a4.91,4.91,0,0,0,4.5,3H198a4.9,4.9,0,0,0,4.16-2.3C202.13,126.75,186.09,124.07,180.53,122.74Z" fill="#84dbff"/><path d="M178.08,118.51c0,.89-.67,4.9-9.35,8.23h-.45c-8.68-3.34-9.35-7.34-9.35-8.23h0a12,12,0,0,1,1.11-4.67c2.45,2.67,5.34,4.45,8.46,4.45s6-1.78,8.46-4.45A12,12,0,0,1,178.08,118.51Z" fill="#ffd05b"/><path d="M178.08,118.51s.45,4.9-9.57,8.46c0,0,7.79.45,10.24,5.79C178.75,133,183.2,121.18,178.08,118.51Z" fill="#54c0eb"/><path d="M158.95,118.51c-5.12,2.89-.67,14.46-.67,14.46,2.23-5.34,10.24-5.79,10.24-5.79C158.5,123.18,158.95,118.51,158.95,118.51Z" fill="#54c0eb"/><path d="M177.41,115.17c-2.67,2.67-5.56,4.45-8.9,4.45s-6.45-1.78-8.9-4.45c.22-.45.22-.89.45-1.34,2.45,2.67,5.34,4.45,8.46,4.45s6-1.78,8.46-4.45A3.16,3.16,0,0,1,177.41,115.17Z" fill="#f9b54c"/><path d="M185,105.83c-1.34,2.23-3.12,3.34-4.67,3.12-2.89,5.34-7.12,9.35-11.79,9.35s-8.9-4-11.79-9.35c-1.56.22-3.34-1.11-4.67-3.12-1.56-2.45-1.56-5.34,0-6.23a1.67,1.67,0,0,1,1.11-.22,14.13,14.13,0,0,0,2.23,4c-1.34-7.79,4.23-8.46,3.34-16,0,0,3.56,8,13.8,2.45l-.89,1.56c14-3.12,9.57,13.13,9.35,14a20.34,20.34,0,0,0,3.34-6,.82.82,0,0,1,.67.22C186.54,100.71,186.54,103.38,185,105.83Z" fill="#ffd05b"/><path d="M153.16,81.58s2.89-.45,3.78,1.78c0,0-.89-3.12,0-4.45s0-.45,0-.45-.45,2,.45,3.12c0,0,2-7.34,14.24-5.34,0,0-2.45-.22-5.34,2.23,0,0,8.46-3.78,13.57,2a10.81,10.81,0,0,0-3.12-.89s10.9,4.23,9.35,15.13l-.67-2.45A19,19,0,0,1,181,105.61s5.12-17.36-9.35-14l.89-1.56c-10.24,5.56-13.8-2.45-13.8-2.45.89,7.34-4.67,8.23-3.34,16,0,0-4.9-5.56-2.89-12.91l-1.56,1.78s-1.11-6.68,5.34-8.9A4.73,4.73,0,0,0,153.16,81.58Z" fill="#324a5e"/><path d="M291.55,57.93H232.62a4.91,4.91,0,0,0-4.91,4.91v78.57a4.91,4.91,0,0,0,4.91,4.91h58.92a4.91,4.91,0,0,0,4.91-4.91V62.84A4.91,4.91,0,0,0,291.55,57.93Z" fill="#fff"/><path d="M274.1,122.74c.67,4.45-1.78,10.46-1.78,10.24-2.45-5.34-10.24-5.79-10.24-5.79s-8,.44-10.24,5.79c0,0-2.23-5.79-1.78-10.24-5.79,1.33-20.53,6.22-21.95,20.63a4.91,4.91,0,0,0,4.5,3h58.92a4.9,4.9,0,0,0,4.16-2.3C295.7,126.75,279.66,124.07,274.1,122.74Z" fill="#84dbff"/><path d="M271.65,118.51c0,.89-.67,4.9-9.35,8.23h-.45c-8.68-3.34-9.35-7.34-9.35-8.23h0a12,12,0,0,1,1.11-4.67c2.45,2.67,5.34,4.45,8.46,4.45s6-1.78,8.46-4.45A12,12,0,0,1,271.65,118.51Z" fill="#ffd05b"/><path d="M271.65,118.51s.45,4.9-9.57,8.46c0,0,7.79.45,10.24,5.79C272.32,133,276.77,121.18,271.65,118.51Z" fill="#54c0eb"/><path d="M252.52,118.51c-5.12,2.89-.67,14.46-.67,14.46,2.23-5.34,10.24-5.79,10.24-5.79C252.07,123.18,252.52,118.51,252.52,118.51Z" fill="#54c0eb"/><path d="M271,115.17c-2.67,2.67-5.56,4.45-8.9,4.45s-6.45-1.78-8.9-4.45c.22-.45.22-.89.45-1.34,2.45,2.67,5.34,4.45,8.46,4.45s6-1.78,8.46-4.45A3.16,3.16,0,0,1,271,115.17Z" fill="#f9b54c"/><path d="M278.55,105.83c-1.34,2.23-3.12,3.34-4.67,3.12-2.89,5.34-7.12,9.35-11.79,9.35s-8.9-4-11.79-9.35c-1.56.22-3.34-1.11-4.67-3.12-1.56-2.45-1.56-5.34,0-6.23a1.67,1.67,0,0,1,1.11-.22,14.13,14.13,0,0,0,2.23,4c-1.34-7.79,4.23-8.46,3.34-16,0,0,3.56,8,13.8,2.45l-.89,1.56c14-3.12,9.57,13.13,9.35,14a20.34,20.34,0,0,0,3.34-6,.82.82,0,0,1,.67.22C280.11,100.71,280.11,103.38,278.55,105.83Z" fill="#ffd05b"/><path d="M246.73,81.58s2.89-.45,3.78,1.78c0,0-.89-3.12,0-4.45s0-.45,0-.45-.45,2,.45,3.12c0,0,2-7.34,14.24-5.34,0,0-2.45-.22-5.34,2.23,0,0,8.46-3.78,13.57,2a10.81,10.81,0,0,0-3.12-.89s10.9,4.23,9.35,15.13L279,92.26a19,19,0,0,1-4.45,13.35s5.12-17.36-9.35-14l.89-1.56c-10.24,5.56-13.8-2.45-13.8-2.45.89,7.34-4.67,8.23-3.34,16,0,0-4.9-5.56-2.89-12.91l-1.56,1.78s-1.11-6.68,5.34-8.9A4.73,4.73,0,0,0,246.73,81.58Z" fill="#324a5e"/><path d="M385.12,57.93H326.2a4.91,4.91,0,0,0-4.91,4.91v78.57a4.91,4.91,0,0,0,4.91,4.91h58.92a4.91,4.91,0,0,0,4.91-4.91V62.84A4.91,4.91,0,0,0,385.12,57.93Z" fill="#fff"/><path d="M367.67,122.74c.67,4.45-1.78,10.46-1.78,10.24-2.45-5.34-10.24-5.79-10.24-5.79s-8,.44-10.24,5.79c0,0-2.23-5.79-1.78-10.24-5.79,1.33-20.53,6.22-21.95,20.63a4.91,4.91,0,0,0,4.5,3h58.92a4.9,4.9,0,0,0,4.16-2.3C389.28,126.75,373.24,124.07,367.67,122.74Z" fill="#84dbff"/><path d="M365.23,118.51c0,.89-.67,4.9-9.35,8.23h-.45c-8.68-3.34-9.35-7.34-9.35-8.23h0a12,12,0,0,1,1.11-4.67c2.45,2.67,5.34,4.45,8.46,4.45s6-1.78,8.46-4.45A12,12,0,0,1,365.23,118.51Z" fill="#ffd05b"/><path d="M365.23,118.51s.45,4.9-9.57,8.46c0,0,7.79.45,10.24,5.79C365.89,133,370.34,121.18,365.23,118.51Z" fill="#54c0eb"/><path d="M346.09,118.51c-5.12,2.89-.67,14.46-.67,14.46,2.23-5.34,10.24-5.79,10.24-5.79C345.65,123.18,346.09,118.51,346.09,118.51Z" fill="#54c0eb"/><path d="M364.56,115.17c-2.67,2.67-5.56,4.45-8.9,4.45s-6.45-1.78-8.9-4.45c.22-.45.22-.89.45-1.34,2.45,2.67,5.34,4.45,8.46,4.45s6-1.78,8.46-4.45A3.16,3.16,0,0,1,364.56,115.17Z" fill="#f9b54c"/><path d="M372.12,105.83c-1.34,2.23-3.12,3.34-4.67,3.12-2.89,5.34-7.12,9.35-11.79,9.35s-8.9-4-11.79-9.35c-1.56.22-3.34-1.11-4.67-3.12-1.56-2.45-1.56-5.34,0-6.23a1.67,1.67,0,0,1,1.11-.22,14.13,14.13,0,0,0,2.23,4c-1.34-7.79,4.23-8.46,3.34-16,0,0,3.56,8,13.8,2.45l-.89,1.56c14-3.12,9.57,13.13,9.35,14a20.34,20.34,0,0,0,3.34-6,.82.82,0,0,1,.67.22C373.68,100.71,373.68,103.38,372.12,105.83Z" fill="#ffd05b"/><path d="M340.31,81.58s2.89-.45,3.78,1.78c0,0-.89-3.12,0-4.45s0-.45,0-.45-.45,2,.45,3.12c0,0,2-7.34,14.24-5.34,0,0-2.45-.22-5.34,2.23,0,0,8.46-3.78,13.57,2a10.81,10.81,0,0,0-3.12-.89s10.9,4.23,9.35,15.13l-.67-2.45a19,19,0,0,1-4.45,13.35s5.12-17.36-9.35-14l.89-1.56c-10.24,5.56-13.8-2.45-13.8-2.45.89,7.34-4.67,8.23-3.34,16,0,0-4.9-5.56-2.89-12.91l-1.56,1.78s-1.11-6.68,5.34-8.9A4.73,4.73,0,0,0,340.31,81.58Z" fill="#324a5e"/><path d="M385.12,165.33H326.2a4.91,4.91,0,0,0-4.91,4.91v78.57a4.91,4.91,0,0,0,4.91,4.91h58.92a4.91,4.91,0,0,0,4.91-4.91V170.24A4.91,4.91,0,0,0,385.12,165.33Z" fill="#fff"/><path d="M367.67,230.14c.67,4.45-1.78,10.46-1.78,10.24-2.45-5.34-10.24-5.79-10.24-5.79s-8,.44-10.24,5.79c0,0-2.23-5.79-1.78-10.24-5.79,1.33-20.53,6.22-21.95,20.63a4.91,4.91,0,0,0,4.5,3h58.92a4.9,4.9,0,0,0,4.16-2.3C389.28,234.15,373.24,231.48,367.67,230.14Z" fill="#84dbff"/><path d="M365.23,225.92c0,.89-.67,4.9-9.35,8.23h-.45c-8.68-3.34-9.35-7.34-9.35-8.23h0a12,12,0,0,1,1.11-4.67c2.45,2.67,5.34,4.45,8.46,4.45s6-1.78,8.46-4.45A12,12,0,0,1,365.23,225.92Z" fill="#ffd05b"/><path d="M365.23,225.92s.45,4.9-9.57,8.46c0,0,7.79.45,10.24,5.79C365.89,240.38,370.34,228.59,365.23,225.92Z" fill="#54c0eb"/><path d="M346.09,225.92c-5.12,2.89-.67,14.46-.67,14.46,2.23-5.34,10.24-5.79,10.24-5.79C345.65,230.59,346.09,225.92,346.09,225.92Z" fill="#54c0eb"/><path d="M364.56,222.58c-2.67,2.67-5.56,4.45-8.9,4.45s-6.45-1.78-8.9-4.45c.22-.45.22-.89.45-1.34,2.45,2.67,5.34,4.45,8.46,4.45s6-1.78,8.46-4.45A3.16,3.16,0,0,1,364.56,222.58Z" fill="#f9b54c"/><path d="M372.12,213.23c-1.34,2.23-3.12,3.34-4.67,3.12-2.89,5.34-7.12,9.35-11.79,9.35s-8.9-4-11.79-9.35c-1.56.22-3.34-1.11-4.67-3.12-1.56-2.45-1.56-5.34,0-6.23a1.67,1.67,0,0,1,1.11-.22,14.13,14.13,0,0,0,2.23,4c-1.34-7.79,4.23-8.46,3.34-16,0,0,3.56,8,13.8,2.45l-.89,1.56c14-3.12,9.57,13.13,9.35,14a20.34,20.34,0,0,0,3.34-6,.82.82,0,0,1,.67.22C373.68,208.12,373.68,210.79,372.12,213.23Z" fill="#ffd05b"/><path d="M340.31,189s2.89-.45,3.78,1.78c0,0-.89-3.12,0-4.45s0-.45,0-.45-.45,2,.45,3.12c0,0,2-7.34,14.24-5.34,0,0-2.45-.22-5.34,2.23,0,0,8.46-3.78,13.57,2a10.81,10.81,0,0,0-3.12-.89s10.9,4.23,9.35,15.13l-.67-2.45A19,19,0,0,1,368.12,213s5.12-17.36-9.35-14l.89-1.56c-10.24,5.56-13.8-2.45-13.8-2.45.89,7.34-4.67,8.23-3.34,16,0,0-4.9-5.56-2.89-12.91l-1.56,1.78s-1.11-6.68,5.34-8.9A4.73,4.73,0,0,0,340.31,189Z" fill="#324a5e"/><path d="M291.55,165.33H232.62a4.91,4.91,0,0,0-4.91,4.91v78.57a4.91,4.91,0,0,0,4.91,4.91h58.92a4.91,4.91,0,0,0,4.91-4.91V170.24A4.91,4.91,0,0,0,291.55,165.33Z" fill="#fff"/><path d="M274.1,230.14c.67,4.45-1.78,10.46-1.78,10.24-2.45-5.34-10.24-5.79-10.24-5.79s-8,.44-10.24,5.79c0,0-2.23-5.79-1.78-10.24-5.79,1.33-20.53,6.22-21.95,20.63a4.91,4.91,0,0,0,4.5,3h58.92a4.9,4.9,0,0,0,4.16-2.3C295.7,234.15,279.66,231.48,274.1,230.14Z" fill="#84dbff"/><path d="M271.65,225.92c0,.89-.67,4.9-9.35,8.23h-.45c-8.68-3.34-9.35-7.34-9.35-8.23h0a12,12,0,0,1,1.11-4.67c2.45,2.67,5.34,4.45,8.46,4.45s6-1.78,8.46-4.45A12,12,0,0,1,271.65,225.92Z" fill="#ffd05b"/><path d="M271.65,225.92s.45,4.9-9.57,8.46c0,0,7.79.45,10.24,5.79C272.32,240.38,276.77,228.59,271.65,225.92Z" fill="#54c0eb"/><path d="M252.52,225.92c-5.12,2.89-.67,14.46-.67,14.46,2.23-5.34,10.24-5.79,10.24-5.79C252.07,230.59,252.52,225.92,252.52,225.92Z" fill="#54c0eb"/><path d="M271,222.58c-2.67,2.67-5.56,4.45-8.9,4.45s-6.45-1.78-8.9-4.45c.22-.45.22-.89.45-1.34,2.45,2.67,5.34,4.45,8.46,4.45s6-1.78,8.46-4.45A3.16,3.16,0,0,1,271,222.58Z" fill="#f9b54c"/><path d="M278.55,213.23c-1.34,2.23-3.12,3.34-4.67,3.12-2.89,5.34-7.12,9.35-11.79,9.35s-8.9-4-11.79-9.35c-1.56.22-3.34-1.11-4.67-3.12-1.56-2.45-1.56-5.34,0-6.23a1.67,1.67,0,0,1,1.11-.22,14.13,14.13,0,0,0,2.23,4c-1.34-7.79,4.23-8.46,3.34-16,0,0,3.56,8,13.8,2.45l-.89,1.56c14-3.12,9.57,13.13,9.35,14a20.34,20.34,0,0,0,3.34-6,.82.82,0,0,1,.67.22C280.11,208.12,280.11,210.79,278.55,213.23Z" fill="#ffd05b"/><path d="M246.73,189s2.89-.45,3.78,1.78c0,0-.89-3.12,0-4.45s0-.45,0-.45-.45,2,.45,3.12c0,0,2-7.34,14.24-5.34,0,0-2.45-.22-5.34,2.23,0,0,8.46-3.78,13.57,2a10.81,10.81,0,0,0-3.12-.89s10.9,4.23,9.35,15.13l-.67-2.45A19,19,0,0,1,274.55,213s5.12-17.36-9.35-14l.89-1.56C255.86,203,252.3,195,252.3,195c.89,7.34-4.67,8.23-3.34,16,0,0-4.9-5.56-2.89-12.91l-1.56,1.78s-1.11-6.68,5.34-8.9A4.73,4.73,0,0,0,246.73,189Z" fill="#324a5e"/><path d="M198,165.33H139.05a4.91,4.91,0,0,0-4.91,4.91v78.57a4.91,4.91,0,0,0,4.91,4.91H198a4.91,4.91,0,0,0,4.91-4.91V170.24A4.91,4.91,0,0,0,198,165.33Z" fill="#fff"/><path d="M180.53,230.14c.67,4.45-1.78,10.46-1.78,10.24-2.45-5.34-10.24-5.79-10.24-5.79s-8,.44-10.24,5.79c0,0-2.23-5.79-1.78-10.24-5.79,1.33-20.53,6.22-21.95,20.63a4.91,4.91,0,0,0,4.5,3H198a4.9,4.9,0,0,0,4.16-2.3C202.13,234.15,186.09,231.48,180.53,230.14Z" fill="#84dbff"/><path d="M178.08,225.92c0,.89-.67,4.9-9.35,8.23h-.45c-8.68-3.34-9.35-7.34-9.35-8.23h0a12,12,0,0,1,1.11-4.67c2.45,2.67,5.34,4.45,8.46,4.45s6-1.78,8.46-4.45A12,12,0,0,1,178.08,225.92Z" fill="#ffd05b"/><path d="M178.08,225.92s.45,4.9-9.57,8.46c0,0,7.79.45,10.24,5.79C178.75,240.38,183.2,228.59,178.08,225.92Z" fill="#54c0eb"/><path d="M158.95,225.92c-5.12,2.89-.67,14.46-.67,14.46,2.23-5.34,10.24-5.79,10.24-5.79C158.5,230.59,158.95,225.92,158.95,225.92Z" fill="#54c0eb"/><path d="M177.41,222.58c-2.67,2.67-5.56,4.45-8.9,4.45s-6.45-1.78-8.9-4.45c.22-.45.22-.89.45-1.34,2.45,2.67,5.34,4.45,8.46,4.45s6-1.78,8.46-4.45A3.16,3.16,0,0,1,177.41,222.58Z" fill="#f9b54c"/><path d="M185,213.23c-1.34,2.23-3.12,3.34-4.67,3.12-2.89,5.34-7.12,9.35-11.79,9.35s-8.9-4-11.79-9.35c-1.56.22-3.34-1.11-4.67-3.12-1.56-2.45-1.56-5.34,0-6.23a1.67,1.67,0,0,1,1.11-.22,14.13,14.13,0,0,0,2.23,4c-1.34-7.79,4.23-8.46,3.34-16,0,0,3.56,8,13.8,2.45l-.89,1.56c14-3.12,9.57,13.13,9.35,14a20.34,20.34,0,0,0,3.34-6,.82.82,0,0,1,.67.22C186.54,208.12,186.54,210.79,185,213.23Z" fill="#ffd05b"/><path d="M153.16,189s2.89-.45,3.78,1.78c0,0-.89-3.12,0-4.45s0-.45,0-.45-.45,2,.45,3.12c0,0,2-7.34,14.24-5.34,0,0-2.45-.22-5.34,2.23,0,0,8.46-3.78,13.57,2a10.81,10.81,0,0,0-3.12-.89s10.9,4.23,9.35,15.13l-.67-2.45A19,19,0,0,1,181,213s5.12-17.36-9.35-14l.89-1.56c-10.24,5.56-13.8-2.45-13.8-2.45.89,7.34-4.67,8.23-3.34,16,0,0-4.9-5.56-2.89-12.91l-1.56,1.78s-1.11-6.68,5.34-8.9A4.73,4.73,0,0,0,153.16,189Z" fill="#324a5e"/><path d="M104.4,165.33H45.48a4.91,4.91,0,0,0-4.91,4.91v78.57a4.91,4.91,0,0,0,4.91,4.91H104.4a4.91,4.91,0,0,0,4.91-4.91V170.24A4.91,4.91,0,0,0,104.4,165.33Z" fill="#fff"/><path d="M87,230.14c.67,4.45-1.78,10.46-1.78,10.24-2.45-5.34-10.24-5.79-10.24-5.79s-8,.44-10.24,5.79c0,0-2.23-5.79-1.78-10.24-5.79,1.33-20.53,6.22-21.95,20.63a4.91,4.91,0,0,0,4.5,3H104.4a4.9,4.9,0,0,0,4.16-2.3C108.56,234.15,92.52,231.48,87,230.14Z" fill="#84dbff"/><path d="M84.51,225.92c0,.89-.67,4.9-9.35,8.23h-.45c-8.68-3.34-9.35-7.34-9.35-8.23h0a12,12,0,0,1,1.11-4.67c2.45,2.67,5.34,4.45,8.46,4.45s6-1.78,8.46-4.45A12,12,0,0,1,84.51,225.92Z" fill="#ffd05b"/><path d="M84.51,225.92s.45,4.9-9.57,8.46c0,0,7.79.45,10.24,5.79C85.18,240.38,89.63,228.59,84.51,225.92Z" fill="#54c0eb"/><path d="M65.37,225.92c-5.12,2.89-.67,14.46-.67,14.46,2.23-5.34,10.24-5.79,10.24-5.79C64.93,230.59,65.37,225.92,65.37,225.92Z" fill="#54c0eb"/><path d="M83.84,222.58c-2.67,2.67-5.56,4.45-8.9,4.45s-6.45-1.78-8.9-4.45c.22-.45.22-.89.45-1.34,2.45,2.67,5.34,4.45,8.46,4.45s6-1.78,8.46-4.45A3.16,3.16,0,0,1,83.84,222.58Z" fill="#f9b54c"/><path d="M91.41,213.23c-1.34,2.23-3.12,3.34-4.67,3.12-2.89,5.34-7.12,9.35-11.79,9.35s-8.9-4-11.79-9.35c-1.56.22-3.34-1.11-4.67-3.12-1.56-2.45-1.56-5.34,0-6.23a1.67,1.67,0,0,1,1.11-.22,14.13,14.13,0,0,0,2.23,4c-1.34-7.79,4.23-8.46,3.34-16,0,0,3.56,8,13.8,2.45l-.89,1.56c14-3.12,9.57,13.13,9.35,14a20.34,20.34,0,0,0,3.34-6,.82.82,0,0,1,.67.22C93,208.12,93,210.79,91.41,213.23Z" fill="#ffd05b"/><path d="M59.59,189s2.89-.45,3.78,1.78c0,0-.89-3.12,0-4.45s0-.45,0-.45-.45,2,.45,3.12c0,0,2-7.34,14.24-5.34,0,0-2.45-.22-5.34,2.23,0,0,8.46-3.78,13.57,2a10.81,10.81,0,0,0-3.12-.89s10.9,4.23,9.35,15.13l-.67-2.45A19,19,0,0,1,87.4,213s5.12-17.36-9.35-14l.89-1.56C68.71,203,65.15,195,65.15,195c.89,7.34-4.67,8.23-3.34,16,0,0-4.9-5.56-2.89-12.91l-1.56,1.78s-1.11-6.68,5.34-8.9A4.73,4.73,0,0,0,59.59,189Z" fill="#324a5e"/><polygon points="132.26 120.19 128.8 116.73 103.99 141.54 94.93 130.86 90.86 133.58 103.23 149.22 132.26 120.19" fill="#66d866" stroke="#2b6d2b" stroke-miterlimit="10" stroke-width="0.25"/><polygon points="223.59 121.75 220.13 118.29 195.32 143.09 186.26 132.41 182.19 135.13 194.56 150.77 223.59 121.75" fill="#66d866" stroke="#2b6d2b" stroke-miterlimit="10" stroke-width="0.25"/><polygon points="410.73 121.75 407.27 118.29 382.46 143.09 373.41 132.41 369.33 135.13 381.7 150.77 410.73 121.75" fill="#66d866" stroke="#2b6d2b" stroke-miterlimit="10" stroke-width="0.25"/><polygon points="131.37 229.15 127.91 225.69 103.1 250.5 94.04 239.82 89.97 242.53 102.34 258.18 131.37 229.15" fill="#66d866" stroke="#2b6d2b" stroke-miterlimit="10" stroke-width="0.25"/><polygon points="317.16 229.15 313.7 225.69 288.89 250.5 279.83 239.82 275.76 242.53 288.13 258.18 317.16 229.15" fill="#66d866" stroke="#2b6d2b" stroke-miterlimit="10" stroke-width="0.25"/><polygon points="410.27 229.15 406.81 225.69 382 250.5 372.94 239.82 368.87 242.53 381.24 258.18 410.27 229.15" fill="#66d866" stroke="#2b6d2b" stroke-miterlimit="10" stroke-width="0.25"/><polygon points="308.59 127.31 304.83 123.54 292.68 135.7 280.52 123.54 276.76 127.31 288.92 139.46 276.76 151.61 280.52 155.38 292.68 143.22 304.83 155.38 308.59 151.61 296.44 139.46 308.59 127.31" fill="#d66767" stroke="#6b2b2b" stroke-miterlimit="10" stroke-width="0.25"/><polygon points="214.02 233.91 210.26 230.14 198.1 242.3 185.95 230.14 182.19 233.91 194.34 246.06 182.19 258.21 185.95 261.98 198.1 249.82 210.26 261.98 214.02 258.21 201.87 246.06 214.02 233.91" fill="#d66767" stroke="#6b2b2b" stroke-miterlimit="10" stroke-width="0.25"/></svg>