<svg id="Capa_1" data-name="Capa 1" xmlns="http://www.w3.org/2000/svg" viewBox="0 0 432.59 432.59"><title>Artboard ۱</title><polygon points="254.79 314.05 263.85 382.94 168.75 382.94 177.81 314.05 254.79 314.05" fill="gray"/><path d="M432.59,273.1V302A12.08,12.08,0,0,1,420.51,314H12.08A12.08,12.08,0,0,1,0,302V273.1H432.59Z" fill="#999"/><path d="M432.59,51.74V273.1H0V51.74A12.08,12.08,0,0,1,12.08,39.65H420.51A12.08,12.08,0,0,1,432.59,51.74Z" fill="#e2e0d0"/><rect x="132.47" y="372.93" width="167.65" height="20" fill="#999"/><path d="M174.39,39.65,33.16,273.1H430.29V43.73a12,12,0,0,0-9-4.07Z" fill="#eae8dc"/><path d="M297.27,247.86a6.47,6.47,0,0,1-6.47-6.47V222a6.47,6.47,0,0,1,12.95,0v19.42a6.47,6.47,0,0,1-6.47,6.47" fill="#25ae88"/><path d="M323.16,247.86a6.47,6.47,0,0,1-6.47-6.47V196.07a6.47,6.47,0,1,1,12.95,0v45.32a6.47,6.47,0,0,1-6.47,6.47" fill="#25ae88"/><path d="M349.06,247.86a6.47,6.47,0,0,1-6.47-6.47V209a6.47,6.47,0,1,1,12.95,0v32.37a6.47,6.47,0,0,1-6.47,6.47" fill="#25ae88"/><path d="M375,247.86a6.47,6.47,0,0,1-6.47-6.47V163.7a6.47,6.47,0,1,1,12.95,0v77.69a6.47,6.47,0,0,1-6.47,6.47" fill="#25ae88"/><path d="M400.85,247.86a6.47,6.47,0,0,1-6.47-6.47V189.59a6.47,6.47,0,0,1,12.95,0v51.79a6.47,6.47,0,0,1-6.47,6.47" fill="#25ae88"/><path d="M254,157.22a57,57,0,1,1-57-57,57,57,0,0,1,57,57" fill="#c01541"/><path d="M194.36,100.28l-.08.08v59.38a.2.2,0,0,0,.2.2h59.38l.08-.08a57,57,0,0,0-59.58-59.58" fill="#84dbff"/><path d="M368.48,127.46H316.69a6.2,6.2,0,1,1,0-12.39h51.79a6.2,6.2,0,1,1,0,12.39" fill="#95a6c9"/><path d="M400.85,127.46a7,7,0,0,1-4.6-1.8,9.87,9.87,0,0,1-.78-.93,4.6,4.6,0,0,1-.58-1.12,3.83,3.83,0,0,1-.39-1.12,9,9,0,0,1-.13-1.24,8.85,8.85,0,0,1,.13-1.24,3.81,3.81,0,0,1,.39-1.12,4.63,4.63,0,0,1,.58-1.12,9.88,9.88,0,0,1,.78-.93,7,7,0,0,1,9.19,0,6.09,6.09,0,0,1,0,8.8,7,7,0,0,1-4.6,1.8" fill="#95a6c9"/><path d="M400.85,96.49H381.43a6.2,6.2,0,1,1,0-12.39h19.42a6.2,6.2,0,1,1,0,12.39" fill="#95a6c9"/><path d="M329.64,96.49H316.69a6.2,6.2,0,1,1,0-12.39h12.95a6.2,6.2,0,1,1,0,12.39" fill="#95a6c9"/><path d="M355.53,96.49a7,7,0,0,1-4.6-1.8,6.09,6.09,0,0,1,0-8.8,6.9,6.9,0,0,1,9.19,0,6.09,6.09,0,0,1,0,8.8,7,7,0,0,1-4.6,1.8" fill="#95a6c9"/><path d="M33.16,232.26A6.18,6.18,0,0,1,27,226.08V90.13a6.18,6.18,0,1,1,12.36,0V226.08a6.18,6.18,0,0,1-6.18,6.18" fill="#ea6148"/><path d="M70.24,102.49H57.88a6.18,6.18,0,0,1,0-12.36H70.24a6.18,6.18,0,0,1,0,12.36" fill="#ea6148"/><path d="M82.6,127.21H57.88a6.18,6.18,0,1,1,0-12.36H82.6a6.18,6.18,0,1,1,0,12.36" fill="#ea6148"/><path d="M70.24,151.93H57.88a6.18,6.18,0,1,1,0-12.36H70.24a6.18,6.18,0,1,1,0,12.36" fill="#ea6148"/><path d="M82.6,176.64H57.88a6.18,6.18,0,1,1,0-12.36H82.6a6.18,6.18,0,1,1,0,12.36" fill="#ea6148"/><path d="M70.24,201.36H57.88a6.18,6.18,0,1,1,0-12.36H70.24a6.18,6.18,0,1,1,0,12.36" fill="#ea6148"/><path d="M82.6,226.08H57.88a6.18,6.18,0,1,1,0-12.36H82.59a6.18,6.18,0,1,1,0,12.36" fill="#ea6148"/></svg>