<svg id="Capa_1" data-name="Capa 1" xmlns="http://www.w3.org/2000/svg" viewBox="0 0 512 512"><title>Artboard ۱</title><path d="M337.84,287.8H103.93A26.94,26.94,0,0,1,77,260.86V26.94A26.94,26.94,0,0,1,103.93,0H337.84a26.94,26.94,0,0,1,26.94,26.94V260.86A26.94,26.94,0,0,1,337.84,287.8Z" fill="#e0e0e2"/><path d="M220.88,107A208,208,0,0,0,77,164.69v96.17a26.94,26.94,0,0,0,26.94,26.94H337.84a26.94,26.94,0,0,0,26.94-26.94V164.69A208,208,0,0,0,220.88,107Z" fill="#d8d7da"/><path d="M145.49,234.62a47,47,0,0,1-46.93-46.93V80.52a47,47,0,0,1,46.93-46.93H296.28a47,47,0,0,1,46.93,46.93V187.68a47,47,0,0,1-46.93,46.93H145.49Z" fill="#d8d7da"/><path d="M459.7,316c0-131.68-107.13-238.81-238.81-238.81-1.67,0-1.5,23.43,0,23.43,118.76,0,215.38,96.62,215.38,215.38C436.27,317.31,459.7,317.45,459.7,316Z" fill="#ffda44"/><path d="M219.79,83.61c-.3,6.94.11,17,1.09,17,118.76,0,215.38,96.62,215.38,215.38,0,.82,9.09,1.18,15.94,1C448.08,190.46,346.18,88.25,219.79,83.61Z" fill="#ffcd00"/><path d="M459.3,342.49h-22A20.27,20.27,0,0,1,417,322.28h0a20.27,20.27,0,0,1,20.21-20.21h22a20.27,20.27,0,0,1,20.21,20.21h0A20.27,20.27,0,0,1,459.3,342.49Z" fill="#ffe477"/><path d="M459.3,302.07h-22A20.27,20.27,0,0,0,417,322.28h0a20,20,0,0,0,2.75,10.1,20.24,20.24,0,0,1,17.46-10.1h22a20.23,20.23,0,0,1,17.46,10.1,20,20,0,0,0,2.75-10.1h0A20.27,20.27,0,0,0,459.3,302.07Z" fill="#ffda44"/><path d="M296.28,214.32H145.49a26.71,26.71,0,0,1-26.63-26.63V80.52a26.71,26.71,0,0,1,26.63-26.63H296.28a26.71,26.71,0,0,1,26.63,26.63V187.68A26.71,26.71,0,0,1,296.28,214.32Z" fill="#4747c9"/><path d="M220.88,107a207.39,207.39,0,0,0-102,26.7v54a26.71,26.71,0,0,0,26.63,26.63H296.27a26.71,26.71,0,0,0,26.63-26.63v-54A207.37,207.37,0,0,0,220.88,107Z" fill="#3535aa"/><path d="M155.6,167.78V100.42a9.8,9.8,0,0,1,9.8-9.8h111a9.8,9.8,0,0,1,9.8,9.8v67.36a9.8,9.8,0,0,1-9.8,9.8h-111A9.8,9.8,0,0,1,155.6,167.78Z" fill="#3535aa"/><path d="M220.88,107a207.83,207.83,0,0,0-65.28,10.47v50.3a9.8,9.8,0,0,0,9.8,9.8h111a9.8,9.8,0,0,0,9.8-9.8v-50.3A207.81,207.81,0,0,0,220.88,107Z" fill="#2a2a93"/><circle cx="220.89" cy="323.61" r="188.39" fill="#ff3f62"/><path d="M122.36,328c0-91.7,65.53-168.09,152.31-184.92a188.41,188.41,0,0,0-53.79-7.8c-104,0-188.39,84.35-188.39,188.39S116.84,512,220.89,512A189.3,189.3,0,0,0,257,508.54,188.46,188.46,0,0,1,122.36,328Z" fill="#ff0c38"/><circle cx="220.89" cy="323.92" r="29.39" fill="#ffe477"/><path d="M220.88,323.92a29.38,29.38,0,0,1,14.7-25.45,29.39,29.39,0,1,0,0,50.9A29.38,29.38,0,0,1,220.88,323.92Z" fill="#ffda44"/></svg>