<svg id="Layer_1" data-name="Layer 1" xmlns="http://www.w3.org/2000/svg" viewBox="0 0 512 512"><title>Artboard ۱</title><path d="M211.18,55H423A35.41,35.41,0,0,1,458.36,90.3V213.89A35.41,35.41,0,0,1,423,249.2H308.29v33.48a4.41,4.41,0,0,1-7.53,3.12l-36.6-36.6h-53a35.41,35.41,0,0,1-35.31-35.31V90.3A35.42,35.42,0,0,1,211.18,55Z" fill="#c7cfe2"/><path d="M413.92,125.61H281.8V108h70.32a9,9,0,0,0,9.11-8.24,8.83,8.83,0,0,0-8.81-9.42H281.8V55H264.15V178.58a35.41,35.41,0,0,1-35.31,35.31h-53a34.82,34.82,0,0,0,4.93,17.65h48a53,53,0,0,0,53-53h35a9,9,0,0,0,9-7.52,8.83,8.83,0,0,0-8.73-10.14H281.81V143.26H414.22a8.83,8.83,0,0,0,8.81-9.42A9,9,0,0,0,413.92,125.61Z" fill="#afb9d2"/><path d="M414.22,108H387.73a8.83,8.83,0,1,1,0-17.66h26.48a8.83,8.83,0,0,1,0,17.66Z" fill="#959cb3"/><path d="M414.22,178.58H352.42a8.83,8.83,0,0,1,0-17.66h61.79a8.83,8.83,0,1,1,0,17.66Z" fill="#959cb3"/><path d="M414.22,213.89H290.63a8.83,8.83,0,0,1,0-17.66H414.22a8.83,8.83,0,0,1,0,17.66Z" fill="#afb9d2"/><path d="M228.84,19.68H17A35.41,35.41,0,0,0-18.33,55V178.58A35.41,35.41,0,0,0,17,213.89H131.74v33.48a4.41,4.41,0,0,0,7.53,3.12l36.6-36.6h53a35.41,35.41,0,0,0,35.31-35.31V55A35.42,35.42,0,0,0,228.84,19.68Z" fill="#e4eaf6"/><path d="M52.29,72.65H25.8A8.83,8.83,0,0,1,25.8,55H52.29a8.83,8.83,0,1,1,0,17.66Z" fill="#afb9d2"/><path d="M220,72.65H87.6A8.83,8.83,0,1,1,87.6,55H220a8.83,8.83,0,1,1,0,17.66Z" fill="#c7cfe2"/><path d="M220,108H25.8a8.83,8.83,0,0,1,0-17.66H220A8.83,8.83,0,1,1,220,108Z" fill="#c7cfe2"/><path d="M220,143.27H193.53a8.83,8.83,0,0,1,0-17.66H220a8.83,8.83,0,1,1,0,17.66Z" fill="#afb9d2"/><path d="M158.22,143.27H25.8a8.83,8.83,0,0,1,0-17.66H158.22a8.83,8.83,0,1,1,0,17.66Z" fill="#c7cfe2"/><path d="M220,178.58H25.8a8.83,8.83,0,0,1,0-17.66H220a8.83,8.83,0,1,1,0,17.66Z" fill="#c7cfe2"/><polygon points="133.09 462.42 133.09 433.9 59.76 433.9 59.76 462.42 96.42 495.01 133.09 462.42" fill="#e6af78"/><path d="M189.79,475.76,139.38,463.9a8.06,8.06,0,0,1-2.12-.85L96.43,486.86l-39.24-25a8.1,8.1,0,0,1-3.71,2L3.06,475.76A16.3,16.3,0,0,0-9.51,491.62v31.91a8.15,8.15,0,0,0,8.15,8.15H194.21a8.15,8.15,0,0,0,8.15-8.15V491.62A16.3,16.3,0,0,0,189.79,475.76Z" fill="#eff2fa"/><path d="M59.76,433.9V464c46.19,16.64,73.34-25,73.34-25V433.9Z" fill="#d29b6e"/><path d="M43.46,340.19,47,418.3a24.45,24.45,0,0,0,9.75,18.45l16.85,12.63a24.44,24.44,0,0,0,14.67,4.89h16.3a24.45,24.45,0,0,0,14.67-4.89l16.85-12.63a24.45,24.45,0,0,0,9.75-18.45l3.55-78.11H43.46Z" fill="#f0c087"/><path d="M84.2,356.49c16.3,0,40.74-4.07,46.54-16.3H43.46L47,418.3a24.45,24.45,0,0,0,9.75,18.45l16.85,12.64a24.44,24.44,0,0,0,14.67,4.89h8.15C88.28,454.27,72,438,72,417.6V368.71C72,364.63,76.05,356.49,84.2,356.49Z" fill="#e6af78"/><path d="M172.45,505.24l26.4-23.72a16.27,16.27,0,0,1,3.51,10.1v31.91a8.15,8.15,0,0,1-8.15,8.15H165.69V520.39A20.37,20.37,0,0,1,172.45,505.24Z" fill="#e4eaf6"/><path d="M20.4,505.24-6,481.52a16.27,16.27,0,0,0-3.51,10.1v31.91a8.15,8.15,0,0,0,8.15,8.15H27.16V520.39A20.36,20.36,0,0,0,20.4,505.24Z" fill="#e4eaf6"/><path d="M59.18,453.35l37.24,33.52a140.53,140.53,0,0,0-23.3,15.88,5.23,5.23,0,0,1-8.1-1.83l-17.5-38.49,5.54-8.3A4.08,4.08,0,0,1,59.18,453.35Z" fill="#e4eaf6"/><path d="M133.67,453.35,96.43,486.86a140.53,140.53,0,0,1,23.3,15.88,5.23,5.23,0,0,0,8.1-1.83l17.5-38.49-5.54-8.3A4.08,4.08,0,0,0,133.67,453.35Z" fill="#e4eaf6"/><path d="M121.13,313.2l3.82,27c17.44,3.49,19.95,30.85,20.31,38.67a8,8,0,0,0,1.29,4l6.65,10.32s-2.28-17.06,8.15-28.52C161.34,364.63,164.92,296.9,121.13,313.2Z" fill="#785550"/><path d="M157.28,391.41l-4.6,18.4a4.9,4.9,0,0,1-4.75,3.71h0a4.9,4.9,0,0,1-4.86-4.29l-2.35-18.82a8.43,8.43,0,0,1,8.37-9.48h0A8.44,8.44,0,0,1,157.28,391.41Z" fill="#f0c087"/><path d="M47.36,305.9l6,4.12c-27.25,20.12-22.15,54.62-22.15,54.62,8.15,8.15,8.15,28.52,8.15,28.52L47.53,385s-3.14-23.54,12.22-32.59C74,344,86.5,348.34,99.23,348.34c34.12,0,43.67-12.86,42-28.52-.86-8.1-13.25-25-44.82-24.45C83.68,295.59,59.76,299.45,47.36,305.9Z" fill="#694b4b"/><path d="M45,344.77s-4.33-17.06,8.4-34.76c-27.25,20.12-22.15,54.62-22.15,54.62,8.15,8.15,8.15,28.52,8.15,28.52L47.53,385s-3.14-23.54,12.22-32.59C74,344,86.5,348.34,99.23,348.34a100.08,100.08,0,0,0,14.69-1C87.64,348.21,72.15,328.31,45,344.77Z" fill="#5a4146"/><path d="M35.57,391.41l4.6,18.4a4.9,4.9,0,0,0,4.75,3.71h0a4.9,4.9,0,0,0,4.86-4.29l2.35-18.82a8.43,8.43,0,0,0-8.37-9.48h0A8.44,8.44,0,0,0,35.57,391.41Z" fill="#e6af78"/><path d="M325.94,298c-82.19,0-73.08,100-72.7,172.38A7.73,7.73,0,0,0,257,477c9.11,5.49,34.12,18.33,68.91,18.33s59.8-12.84,68.91-18.33a7.73,7.73,0,0,0,3.79-6.61C399,398,408.13,298,325.94,298Z" fill="#694b4b"/><path d="M320.65,298.21c-76.44,4.29-67.77,101.36-67.41,172.18A7.73,7.73,0,0,0,257,477c9.11,5.49,34.12,18.33,68.91,18.33l20.77-145.4" fill="#5a4146"/><path d="M325.94,298c-46.73,0-50,56.47-50,56.47,26.94-4.54,43.49,6.82,70.75-4.54l-20.77,145.4c34.79,0,59.8-12.84,68.91-18.33a7.73,7.73,0,0,0,3.79-6.61C399,398,408.13,298,325.94,298Z" fill="#694b4b"/><path d="M398.64,470.39c.32-62.24,7-144.74-43.21-166.74-.88,4.55-2.46,17.26,1.66,25.51,10.39,20.77,20.77,20.77,31.16,36.35,10.39,57.12-19.84,117.75-29.88,126h0A130.62,130.62,0,0,0,394.85,477,7.73,7.73,0,0,0,398.64,470.39Z" fill="#785550"/><path d="M404.63,486.14,358.3,466.84a10.39,10.39,0,0,1-6.39-9.59V444.7H300v12.55a10.39,10.39,0,0,1-6.39,9.59l-46.33,19.31a15.58,15.58,0,0,0-9.59,14.38v20.77a10.39,10.39,0,0,0,10.39,10.39H403.83a10.39,10.39,0,0,0,10.39-10.39V500.52A15.58,15.58,0,0,0,404.63,486.14Z" fill="#e6af78"/><path d="M404.63,486.14l-44.8-18.67L325.94,482.1l-33.89-14.63-44.8,18.67a15.58,15.58,0,0,0-9.59,14.38v20.77a10.39,10.39,0,0,0,10.39,10.39H403.83a10.39,10.39,0,0,0,10.39-10.39V500.52A15.58,15.58,0,0,0,404.63,486.14Z" fill="#b4e1fa"/><path d="M351.91,444.7H300v12.55a10.39,10.39,0,0,1-6.39,9.59l-7.24,3C341.73,484,351.91,444.7,351.91,444.7Z" fill="#d29b6e"/><path d="M263,506.23l-20.84-16.58a15.54,15.54,0,0,0-4.47,10.87v20.77a10.39,10.39,0,0,0,10.39,10.39h20.77V518.4A15.58,15.58,0,0,0,263,506.23Z" fill="#a0d2f0"/><path d="M414.22,521.29V500.52a15.54,15.54,0,0,0-4.4-10.81l-20.91,16.51a15.58,15.58,0,0,0-5.85,12.16v13.28h20.77A10.38,10.38,0,0,0,414.22,521.29Z" fill="#a0d2f0"/><path d="M326.72,521.29h-1.56a4.41,4.41,0,0,1-4.41-4.41V482.11h10.39v34.77A4.41,4.41,0,0,1,326.72,521.29Z" fill="#a0d2f0"/><path d="M325.94,482.1l-29.72-22.29a4.15,4.15,0,0,0-5.95,1l-5.87,8.81,18.22,25.51a4.15,4.15,0,0,0,6,.83Z" fill="#a0d2f0"/><path d="M325.94,482.1l29.72-22.29a4.15,4.15,0,0,1,5.95,1l5.87,8.81-18.22,25.51a4.15,4.15,0,0,1-6,.83Z" fill="#a0d2f0"/><path d="M351.91,344.74c-26,26-76.92,5.19-76.92,46.73l3.22,30.6a20.77,20.77,0,0,0,10.6,16.28l29.57,16.42a15.58,15.58,0,0,0,15.13,0l29.57-16.42a20.77,20.77,0,0,0,10.6-16.28l3.72-36.34a57.33,57.33,0,0,0,.23-7.77C375.69,364.74,357.1,355.13,351.91,344.74Z" fill="#f0c087"/><path d="M275,391.48l3.22,30.6a20.77,20.77,0,0,0,10.6,16.28l29.57,16.42a15.51,15.51,0,0,0,10.57,1.58h0s-14.91-4.52-23.78-28.53c-2.72-7.36-6.49-46.3-3.24-51.06,6.42-9.41,42.19-10.39,52.76-27.84q-.78-1-1.44-1.95l-.11-.16a20,20,0,0,1-1.22-2.08C325.94,370.71,275,349.93,275,391.48Z" fill="#e6af78"/></svg>