<svg id="Capa_1" data-name="Capa 1" xmlns="http://www.w3.org/2000/svg" viewBox="0 0 512 512"><title>Artboard ۱</title><path d="M512,256a255.14,255.14,0,0,1-71.77,177.74,257.2,257.2,0,0,1-66.63,49.72l0,0a259.77,259.77,0,0,1-25.25,11.37s0,0,0,0A255.79,255.79,0,0,1,84.41,446h0q-6.51-5.9-12.6-12.2h0A255.12,255.12,0,0,1,0,256C0,114.61,114.62,0,256,0S512,114.61,512,256Z" fill="#27536b"/><polygon points="446.13 207.27 494.33 201.94 446.13 196.61 440.8 148.41 435.47 196.61 387.27 201.94 435.47 207.27 440.8 255.47 446.13 207.27" fill="#fff"/><path d="M470.3,324.21a213.29,213.29,0,0,1-30.07,109.52,256,256,0,0,1-368.44,0A213.24,213.24,0,0,1,41.9,333.21l0-.83q-.15-4.06-.15-8.16a216.21,216.21,0,0,1,1.82-28,212.85,212.85,0,0,1,8.56-38.06C80,172.11,160.72,109.92,256,109.92a215.2,215.2,0,0,1,34.49,2.76A214.21,214.21,0,0,1,470.3,324.21Z" fill="#51bee5"/><path d="M416.52,455.41A256,256,0,0,1,71.8,433.76h0A213.18,213.18,0,0,1,41.86,332.37q-.15-4.06-.15-8.16a216.21,216.21,0,0,1,1.82-28,213.63,213.63,0,0,1,91.42-148.81,212.64,212.64,0,0,0-35.63,93,216.21,216.21,0,0,0-1.82,28q0,4.1.15,8.16a213.27,213.27,0,0,0,44.63,123,214.42,214.42,0,0,0,274.24,55.87Z" fill="#3eaecc"/><path d="M290.49,112.68l-9.36,16.42s-19.75,31.19-47.82,36.38-30.15,7.27-36.91,14-18.19,7.79-18.19-4.67,8.32-23.92-5.72-18.2-24.43,8.84-14,19.23S140.79,180,146,196.68s10.13,19,2.6,26.5-12-3.64-19.75-3.64-1.3,12.74-6.76,18.2c-4,4-15.06-.3-23,4.84-3,1.93-5.55,5.21-7.12,10.75C87.46,269.19,72.47,282.84,56.19,291a85.83,85.83,0,0,1-12.67,5.16,213.62,213.62,0,0,1,91.41-148.8,0,0,0,0,0,0,0,214.87,214.87,0,0,1,155.54-34.68Z" fill="#35bc58"/><path d="M173.61,432.2c1.42,8.67,6.58,22.13-.33,29-7.93,7.93-17.8,5.85-23.65,17.68a17.7,17.7,0,0,0-1.76,9.17A256.76,256.76,0,0,1,84.41,446h0c-5.75-18.72-17.22-18.54-21.05-36.18s-7.13-50.59-21.48-77.41q-.15-4.06-.15-8.16a216.21,216.21,0,0,1,1.82-28,212.85,212.85,0,0,1,8.56-38.06c4-1.74,6.58-2.7,6.58-2.7l.52,24.95a86.39,86.39,0,0,0-3,10.65c-2.75,12.5-4.72,33.1,7.67,45.49,5.2,5.2,12.47-3.12,21.83,1,6.47,2.88,20.54,11.86,30.91,19.44a100.73,100.73,0,0,1,10.67,8.63c7,7,3.39,12.73,13,17.68s41.58,14,41.58,25.47-8.58,11.95-8.58,20A21.22,21.22,0,0,0,173.61,432.2Z" fill="#35bc58"/><path d="M468.93,300c-3,3.06-12.6,13.25-15.23,19.38-3.12,7.27-16.63,3.63-13,12.47s5.2,28.59-5.72,39.51-16.11,20.27-16.11,36.91-12.48,35.86-25.74,54.32c-1.44,2-3,4-4.73,6.05a124.83,124.83,0,0,1-14.81,14.86l0,0a259.77,259.77,0,0,1-25.25,11.37s0,0,0,0a4.64,4.64,0,0,1-1.17-.86c-2.25-2.25-4.76-7.11-7.15-13.12-5.3-13.37-10-32.49-10-41.45,0-13,6.75-16.12,6.75-27.55s-10.91-14.56-10.91-25.47-6.24-16.63-12-22.35-25.46,8.84-37.94,8.84-28.59-17.15-36.38-29.63-5.46-54.84,10.39-66.53,20.27-24.43,20.27-24.43c-20.27-13-4.15-35.86,2.6-42.62s26.51-3.64,30.67-7.79,0-11.44,0-18.71,14-14,24.43-17.68S356,144.17,356,144.17l6.78-5.81A214.32,214.32,0,0,1,468.93,300Z" fill="#35bc58"/><path d="M173.28,461.24c-7.93,7.93-17.8,5.85-23.65,17.68a17.7,17.7,0,0,0-1.76,9.17A256.55,256.55,0,0,1,84.4,446c-5.75-18.72-17.22-18.54-21.05-36.18s-7.13-50.59-21.48-77.41q-.15-4.06-.15-8.16a216.21,216.21,0,0,1,1.82-28,213.62,213.62,0,0,1,91.41-148.8,212.68,212.68,0,0,0-35.62,93q-.15,1.1-.27,2.2c-3,1.93-5.55,5.21-7.12,10.75C87.46,269.19,72.47,282.84,56.2,291c-2.75,12.5-4.72,33.1,7.67,45.49,5.2,5.2,12.47-3.12,21.83,1,6.47,2.88,20.54,11.86,30.91,19.44a214.56,214.56,0,0,0,57,75.22C175,440.87,180.19,454.33,173.28,461.24Z" fill="#28a044"/><path d="M388.41,468.59a124.83,124.83,0,0,1-14.81,14.86h0a259.9,259.9,0,0,1-25.27,11.38s0,0,0,0a4.64,4.64,0,0,1-1.17-.86c-2.25-2.25-4.76-7.11-7.15-13.12A212.25,212.25,0,0,0,388.41,468.59Z" fill="#28a044"/><polygon points="122.38 89.13 170.58 83.81 122.38 78.48 117.05 30.28 111.72 78.48 63.52 83.81 111.72 89.13 117.05 137.33 122.38 89.13" fill="#fff"/><rect x="284.88" y="68.35" width="10.36" height="10.36" transform="translate(32.97 226.64) rotate(-45)" fill="#fff"/><rect x="384.42" y="85.69" width="10.36" height="10.36" transform="translate(49.86 302.1) rotate(-45)" fill="#fff"/><rect x="486.21" y="259.17" width="10.36" height="10.36" transform="translate(-43 424.89) rotate(-45)" fill="#fff"/><rect x="31.73" y="220.02" width="10.36" height="10.36" transform="translate(-148.43 92.06) rotate(-45)" fill="#fff"/><rect x="238.79" y="34.24" width="10.36" height="10.36" transform="translate(43.58 184.06) rotate(-45)" fill="#fff"/><path d="M305.49,260.33l-35.81,56S146.52,447.52,45,356.22q-1.87-1.68-3.73-3.46C21.85,334.25,9.84,309.1,8.83,282.32c-2.22-58.26,45.72-102.18,91.24-105.08a213.79,213.79,0,0,0-33.93,47.54,55.9,55.9,0,0,0-6.91,14.44,56.64,56.64,0,0,0,2.38,40.33l.37.81c12.41,27,87.17,80,187.48,15.77Z" fill="#fff"/><ellipse cx="393" cy="234.2" rx="24.15" ry="40.8" transform="translate(-50.5 346.49) rotate(-45)" fill="#6fdd89"/><polyline points="283.85 236.9 262.39 236.01 215.88 278.04 261.04 282.96" fill="#f77759"/><polyline points="328.92 281.97 329.81 303.43 287.77 349.94 282.86 304.77" fill="#f77759"/><path d="M340.32,277.82l-2,2c-19,18.42-40.09,30.64-58.06,35a61.25,61.25,0,0,1-10.61,1.65,27.63,27.63,0,0,0-20.24-20.24A60.92,60.92,0,0,1,251,285.79c4.26-18,16.51-39.22,35-58.32l2-2q4.93-4.93,10-9.28c28.54-24.4,60-35,78-26.43,8.57,18-2,49.48-26.44,78Q345.25,272.88,340.32,277.82Z" fill="#e6e6e6"/><path d="M312.42,230.6q-4.89,4.57-9.83,9.49l-2,2C282,261,267.21,279.7,259.11,293.88q-1.5,2.63-2.68,5a27.46,27.46,0,0,0-7-2.76A60.92,60.92,0,0,1,251,285.79c4.26-18,16.51-39.22,35-58.32l2-2q4.93-4.93,10-9.28c28.54-24.4,60-35,78-26.43C365.45,188.62,339.8,205,312.42,230.6Z" fill="#ccc"/><path d="M280.29,314.72a61.25,61.25,0,0,1-10.61,1.65,27.63,27.63,0,0,0-20.24-20.24A60.92,60.92,0,0,1,251,285.79l.19-.15Z" fill="#27536b"/><path d="M340.32,277.82l-2,2L286,227.47l2-2q4.93-4.93,10-9.28l51.58,51.58Q345.25,272.88,340.32,277.82Z" fill="#f77759"/><path d="M279.22,292c-16,16-22.79,20.39-24.27,18.9s2.92-8.28,18.9-24.27,30.15-27.74,31.63-26.26S295.21,276,279.22,292Z" fill="#f77759"/></svg>