<svg id="Layer_1" data-name="Layer 1" xmlns="http://www.w3.org/2000/svg" viewBox="0 0 505 505"><title>Artboard ۱</title><circle cx="252.5" cy="252.5" r="252.5" fill="#7fe58d"/><path d="M408.9,286.1c21.8,21.8,20.7,31.2,14.2,37.7s-15.9,7.6-37.7-14.2-47.8-58.4-41.3-64.9S387.1,264.2,408.9,286.1Z" fill="#f1543f"/><path d="M345.5,218.1l-28.2,28.2,18.1,18.1a3,3,0,0,0,4.1,0l24.1-24.1a3,3,0,0,0,0-4.1Z" fill="#fff"/><circle cx="280" cy="179.4" r="83" fill="#324a5e"/><circle cx="280" cy="179.4" r="67.3" fill="#84dbff"/><path d="M303.1,139.3l-63.2,46.6,21.9,8.4-30.7,91.8-62.7-21.5-1.1-.4-.4-.1a8.59,8.59,0,0,0-10.6,5.8L126.2,373.8l43.3-88.5,64.9,27.9a11.82,11.82,0,0,0,15.5-6.1l.4-1L294,206.6l24.5,9.5Z" fill="#ff7058"/><polygon points="408.4 372.1 132.7 372.1 132.7 96.3 116.9 96.3 116.9 119.1 96.1 119.1 96.1 134.9 116.9 134.9 116.9 174.7 96.1 174.7 96.1 190.4 116.9 190.4 116.9 230.2 96.1 230.2 96.1 246 116.9 246 116.9 285.8 96.1 285.8 96.1 301.6 116.9 301.6 116.9 341.4 96.1 341.4 96.1 357.2 116.9 357.2 116.9 387.8 147.5 387.8 147.5 408.7 163.3 408.7 163.3 387.8 203.1 387.8 203.1 408.7 218.9 408.7 218.9 387.8 258.7 387.8 258.7 408.7 274.5 408.7 274.5 387.8 314.3 387.8 314.3 408.7 330.1 408.7 330.1 387.8 369.9 387.8 369.9 408.7 385.7 408.7 385.7 387.8 408.4 387.8 408.4 372.1" fill="#fff"/></svg>