<svg id="Layer_1" data-name="Layer 1" xmlns="http://www.w3.org/2000/svg" viewBox="0 0 512 512"><title>Artboard ۱</title><path d="M426.11,106.63A149.94,149.94,0,0,0,164.83,57.09a70.46,70.46,0,0,0-94.21,66.5c0,.59.07,1.17.09,1.76A88.28,88.28,0,0,0,88.28,300.14H414.9a97.08,97.08,0,0,0,11.21-193.51Z" fill="#d9f3ff"/><path d="M79.45,229.52a88.3,88.3,0,0,1,62.29-84.37,44,44,0,0,1,43.64-39.21,43.32,43.32,0,0,1,4.78.48A132.08,132.08,0,0,1,336.61,10.19,149.5,149.5,0,0,0,164.83,57.09a70.46,70.46,0,0,0-94.21,66.5c0,.59.07,1.17.09,1.76A88.28,88.28,0,0,0,88.28,300.14h26.64A88,88,0,0,1,79.45,229.52Z" fill="#b8e9ff"/><circle cx="229.52" cy="494.35" r="17.65" fill="#b8e9ff"/><circle cx="229.52" cy="414.9" r="8.83" fill="#00d2ff"/><circle cx="229.52" cy="450.21" r="8.83" fill="#00d2ff"/><circle cx="229.52" cy="344.28" r="8.83" fill="#00d2ff"/><circle cx="229.52" cy="379.59" r="8.83" fill="#00d2ff"/><path d="M220.69,300.14V309a8.83,8.83,0,0,0,17.66,0v-8.83Z" fill="#00d2ff"/><circle cx="282.48" cy="494.35" r="17.65" fill="#b8e9ff"/><circle cx="282.48" cy="414.9" r="8.83" fill="#00d2ff"/><circle cx="282.48" cy="450.21" r="8.83" fill="#00d2ff"/><circle cx="282.48" cy="344.28" r="8.83" fill="#00d2ff"/><circle cx="282.48" cy="379.59" r="8.83" fill="#00d2ff"/><path d="M273.65,300.14V309a8.83,8.83,0,0,0,17.66,0v-8.83Z" fill="#00d2ff"/><circle cx="335.45" cy="494.35" r="17.65" fill="#b8e9ff"/><circle cx="335.45" cy="414.9" r="8.83" fill="#00d2ff"/><circle cx="335.45" cy="450.21" r="8.83" fill="#00d2ff"/><circle cx="335.45" cy="344.28" r="8.83" fill="#00d2ff"/><circle cx="335.45" cy="379.59" r="8.83" fill="#00d2ff"/><path d="M326.62,300.14V309a8.83,8.83,0,0,0,17.66,0v-8.83Z" fill="#00d2ff"/><circle cx="176.55" cy="494.35" r="17.65" fill="#b8e9ff"/><circle cx="176.55" cy="414.9" r="8.83" fill="#00d2ff"/><circle cx="176.55" cy="450.21" r="8.83" fill="#00d2ff"/><circle cx="176.55" cy="344.28" r="8.83" fill="#00d2ff"/><circle cx="176.55" cy="379.59" r="8.83" fill="#00d2ff"/><path d="M167.72,300.14V309a8.83,8.83,0,0,0,17.66,0v-8.83Z" fill="#00d2ff"/><circle cx="467.86" cy="414.9" r="17.65" fill="#b8e9ff"/><circle cx="388.41" cy="414.9" r="8.83" fill="#00d2ff"/><circle cx="423.72" cy="414.9" r="8.83" fill="#00d2ff"/><circle cx="388.41" cy="344.28" r="8.83" fill="#00d2ff"/><circle cx="388.41" cy="379.59" r="8.83" fill="#00d2ff"/><path d="M397.24,300.14V309a8.83,8.83,0,0,1-17.66,0v-8.83Z" fill="#00d2ff"/><circle cx="44.14" cy="414.9" r="17.65" fill="#b8e9ff"/><circle cx="123.59" cy="414.9" r="8.83" fill="#00d2ff"/><circle cx="88.28" cy="414.9" r="8.83" fill="#00d2ff"/><circle cx="123.59" cy="344.28" r="8.83" fill="#00d2ff"/><circle cx="123.59" cy="379.59" r="8.83" fill="#00d2ff"/><path d="M114.76,300.14V309a8.83,8.83,0,0,0,17.66,0v-8.83Z" fill="#00d2ff"/><path d="M256,397.24h0A123.59,123.59,0,0,1,132.41,273.65h0A123.59,123.59,0,0,1,256,150.07h0A123.59,123.59,0,0,1,379.59,273.65h0A123.59,123.59,0,0,1,256,397.24Z" fill="#5b5d6e"/><path d="M329.49,256.92c0-14.71-10.26-27.25-24.58-32a25.26,25.26,0,0,0,.33-3.95c0-14.77-13-26.79-29-26.79A30.22,30.22,0,0,0,256,201.79a30.24,30.24,0,0,0-20.21-7.58c-16,0-29,12-29,26.79a25.15,25.15,0,0,0,.33,3.95c-14.31,4.72-24.58,17.27-24.58,32a32.15,32.15,0,0,0,8.54,21.56A32.14,32.14,0,0,0,182.51,300c0,11.36,6.26,21.88,16.33,28.13,1.64,15.36,15.77,27.4,32.92,27.4A34.39,34.39,0,0,0,256,345.81a34.39,34.39,0,0,0,24.25,9.75c17.83,0,32.39-13,33-29.25,10.11-7,16.2-18.08,16.2-29.87A35.19,35.19,0,0,0,323,276.1,31.48,31.48,0,0,0,329.49,256.92Zm-97.74,81c-8.5,0-15.42-5.71-15.42-12.73,0-5.24,4-10,10-11.9A8.83,8.83,0,0,0,221,296.42a32.64,32.64,0,0,0-17.45,12.83,14.48,14.48,0,0,1-3.41-9.23c0-5.56,3.45-10.69,9.22-13.75a8.83,8.83,0,0,0,0-15.61c-5.77-3.05-9.22-8.19-9.22-13.75,0-9,8.64-16.24,19.3-16.31h.39a22.19,22.19,0,0,1,8.46,1.71,8.83,8.83,0,1,0,6.86-16.27,39.38,39.38,0,0,0-10.39-2.77,7.27,7.27,0,0,1-.37-2.28c0-5,5.1-9.13,11.38-9.13s11.38,4.1,11.38,9.13v41.39a35.23,35.23,0,0,0-15.42-3.52,8.83,8.83,0,0,0,0,17.66c8.5,0,15.42,5.71,15.42,12.72v35.92C247.17,332.19,240.25,337.9,231.75,337.9Zm48.5,0c-8.5,0-15.42-5.71-15.42-12.73V318c0-5.25,4-10,10-11.9a8.83,8.83,0,1,0-5.29-16.84,34.74,34.74,0,0,0-4.69,1.86V221c0-5,5.1-9.13,11.38-9.13s11.38,4.1,11.38,9.13a7.89,7.89,0,0,1-2,5.09l0,0c-.12.14-.23.29-.34.44l-.2.27-.1.16a8.82,8.82,0,0,0,7.58,13.61c10.66.07,19.3,7.36,19.3,16.31a13.83,13.83,0,0,1-2.17,7.36A43.34,43.34,0,0,0,298.4,260a8.83,8.83,0,0,0-3.95,17.21c10.23,2.35,17.38,10.25,17.38,19.22a17.94,17.94,0,0,1-4.36,11.48,31.11,31.11,0,0,0-2.93-3.36,8.83,8.83,0,1,0-12.45,12.52,11.42,11.42,0,0,1,3.57,8.1C295.67,332.19,288.75,337.9,280.25,337.9Z" fill="#00d2ff"/></svg>