<svg id="Layer_1" data-name="Layer 1" xmlns="http://www.w3.org/2000/svg" viewBox="0 0 508 508"><title>Artboard ۱</title><circle cx="254" cy="254" r="254" fill="#84dbff"/><path d="M79.2,438.4a254.3,254.3,0,0,0,349.6,0Z" fill="#54c0eb"/><ellipse cx="254" cy="240.8" rx="26.4" ry="45.2" fill="#f9b54c"/><path d="M347.2,392c4.4-18,7.2-36,7.2-52.8C354.4,268,309.6,246,254,246c-55.2,0-100.4,21.6-100.4,93.2a206.77,206.77,0,0,0,7.2,52.8Z" fill="#ff7058"/><path d="M280,238.4s-15.2,9.2-26,9.2L268,278l20-28.4Z" fill="#fff"/><path d="M228,238.4s15.2,9.2,26,9.2L240,278l-20-28.4Z" fill="#fff"/><path d="M327.2,111.2c0,42.4-32.8,101.6-73.2,101.6s-73.2-59.2-73.2-101.6S213.6,50.4,254,50.4,327.2,68.8,327.2,111.2Z" fill="#324a5e"/><path d="M308.4,153.6c0,43.2-24.4,78-54.4,78s-54.4-34.8-54.4-78c0-25.6,8.8-48.4,22-62.8A182.89,182.89,0,0,0,256,117.6c17.6,10.8,35.2,18.4,51.2,22.8A73.65,73.65,0,0,1,308.4,153.6Z" fill="#ffd05b"/><path d="M351.6,437.6H156.4c-6.8,0-12.8-3.2-13.6-7.6L118.4,310c-1.2-6.4,4.4-11.6,12.8-11.6H376.8c8.4,0,14,5.2,12.8,11.6L365.2,430C364.4,434,358.4,437.6,351.6,437.6Z" fill="#324a5e"/><ellipse cx="254" cy="362.4" rx="30" ry="12.8" fill="#2b3b4e"/></svg>