<svg id="Capa_1" data-name="Capa 1" xmlns="http://www.w3.org/2000/svg" viewBox="0 0 432.59 432.59"><title>Artboard ۱</title><polygon points="254.79 314.05 263.85 382.94 168.75 382.94 177.81 314.05 254.79 314.05" fill="gray"/><path d="M432.59,273.1V302A12.08,12.08,0,0,1,420.51,314H12.08A12.08,12.08,0,0,1,0,302V273.1H432.59Z" fill="#999"/><path d="M432.59,51.74V273.1H0V51.74A12.08,12.08,0,0,1,12.08,39.65H420.51A12.08,12.08,0,0,1,432.59,51.74Z" fill="#e2e0d0"/><rect x="132.47" y="372.93" width="167.65" height="20" fill="#999"/><path d="M174.39,39.65,33.16,273.1H430.29V43.73a12,12,0,0,0-9-4.07Z" fill="#eae8dc"/><path d="M300.21,179.6H232.69a5.63,5.63,0,0,1-5.63-5.63h0a5.63,5.63,0,0,1,5.63-5.63h67.51a5.63,5.63,0,0,1,5.63,5.63h0A5.63,5.63,0,0,1,300.21,179.6Z" fill="#bcc6d8"/><path d="M412.73,179.6h-90a5.63,5.63,0,0,1-5.63-5.63h0a5.63,5.63,0,0,1,5.63-5.63h90a5.63,5.63,0,0,1,5.63,5.63h0A5.63,5.63,0,0,1,412.73,179.6Z" fill="#bcc6d8"/><path d="M322.71,213.36h-45a5.63,5.63,0,0,1-5.63-5.63h0a5.63,5.63,0,0,1,5.63-5.63h45a5.63,5.63,0,0,1,5.63,5.63h0A5.63,5.63,0,0,1,322.71,213.36Z" fill="#bcc6d8"/><path d="M300.21,235.86H232.69a5.63,5.63,0,0,1-5.63-5.63h0a5.63,5.63,0,0,1,5.63-5.63h67.51a5.63,5.63,0,0,1,5.63,5.63h0A5.63,5.63,0,0,1,300.21,235.86Z" fill="#bcc6d8"/><path d="M412.73,235.86h-90a5.63,5.63,0,0,1-5.63-5.63h0a5.63,5.63,0,0,1,5.63-5.63h90a5.63,5.63,0,0,1,5.63,5.63h0A5.63,5.63,0,0,1,412.73,235.86Z" fill="#bcc6d8"/><path d="M356.47,213.36H345.21a5.63,5.63,0,0,1-5.63-5.63h0a5.63,5.63,0,0,1,5.63-5.63h11.25a5.63,5.63,0,0,1,5.63,5.63h0A5.63,5.63,0,0,1,356.47,213.36Z" fill="#bcc6d8"/><path d="M255.2,213.36h-22.5a5.63,5.63,0,0,1-5.63-5.63h0a5.63,5.63,0,0,1,5.63-5.63h22.5a5.63,5.63,0,0,1,5.63,5.63h0A5.63,5.63,0,0,1,255.2,213.36Z" fill="#95a6c9"/><path d="M89.41,78.48H21.9a5.63,5.63,0,0,0-5.63,5.63v90a5.63,5.63,0,0,0,5.63,5.63H89.41A5.63,5.63,0,0,0,95,174.12v-90A5.63,5.63,0,0,0,89.41,78.48Z" fill="#fff"/><path d="M201.91,89.73H123.14a5.63,5.63,0,0,1-5.63-5.63h0a5.63,5.63,0,0,1,5.63-5.63h78.76a5.63,5.63,0,0,1,5.63,5.63h0A5.63,5.63,0,0,1,201.91,89.73Z" fill="#c01541"/><path d="M201.91,134.74H123.14a5.63,5.63,0,0,1-5.63-5.63h0a5.63,5.63,0,0,1,5.63-5.63h78.76a5.63,5.63,0,0,1,5.63,5.63h0A5.63,5.63,0,0,1,201.91,134.74Z" fill="#b2c6ea"/><path d="M201.91,179.74H123.14a5.63,5.63,0,0,1-5.63-5.63h0a5.63,5.63,0,0,1,5.63-5.63h78.76a5.63,5.63,0,0,1,5.63,5.63h0A5.63,5.63,0,0,1,201.91,179.74Z" fill="#b2c6ea"/><path d="M111.89,213.5h-45a5.63,5.63,0,0,1-5.63-5.63h0a5.63,5.63,0,0,1,5.63-5.63h45a5.63,5.63,0,0,1,5.63,5.63h0A5.63,5.63,0,0,1,111.89,213.5Z" fill="#bcc6d8"/><path d="M89.39,236H21.87a5.63,5.63,0,0,1-5.63-5.63h0a5.63,5.63,0,0,1,5.63-5.63H89.39A5.63,5.63,0,0,1,95,230.38h0A5.63,5.63,0,0,1,89.39,236Z" fill="#bcc6d8"/><path d="M201.91,236h-90a5.63,5.63,0,0,1-5.63-5.63h0a5.63,5.63,0,0,1,5.63-5.63h90a5.63,5.63,0,0,1,5.63,5.63h0A5.63,5.63,0,0,1,201.91,236Z" fill="#bcc6d8"/><path d="M145.65,213.5H134.39a5.63,5.63,0,0,1-5.63-5.63h0a5.63,5.63,0,0,1,5.63-5.63h11.25a5.63,5.63,0,0,1,5.63,5.63h0A5.63,5.63,0,0,1,145.65,213.5Z" fill="#bcc6d8"/><path d="M44.38,213.5H21.87a5.63,5.63,0,0,1-5.63-5.63h0a5.63,5.63,0,0,1,5.63-5.63h22.5A5.63,5.63,0,0,1,50,207.87h0A5.63,5.63,0,0,1,44.38,213.5Z" fill="#95a6c9"/><path d="M201.91,157.24H123.14a5.63,5.63,0,0,1-5.63-5.63h0a5.63,5.63,0,0,1,5.63-5.63h78.76a5.63,5.63,0,0,1,5.63,5.63h0A5.63,5.63,0,0,1,201.91,157.24Z" fill="#b2c6ea"/><path d="M201.91,112.23H123.14a5.63,5.63,0,0,1-5.63-5.63h0a5.63,5.63,0,0,1,5.63-5.63h78.76a5.63,5.63,0,0,1,5.63,5.63h0A5.63,5.63,0,0,1,201.91,112.23Z" fill="#c01541"/><path d="M69.42,152.73c.76,5.1-2,12-2,11.73-2.8-6.12-11.73-6.63-11.73-6.63s-9.18.51-11.73,6.63c0,0-2.55-6.63-2-11.73-6.63,1.53-23.52,7.13-25.15,23.63a5.63,5.63,0,0,0,5.16,3.38H89.41a5.62,5.62,0,0,0,4.76-2.64C94.17,157.32,75.79,154.26,69.42,152.73Z" fill="#84dbff"/><path d="M66.61,147.89c0,1-.76,5.61-10.71,9.43H55.4c-9.94-3.82-10.71-8.41-10.71-9.43h0A13.7,13.7,0,0,1,46,142.53c2.8,3.06,6.12,5.1,9.69,5.1s6.88-2,9.69-5.1A13.7,13.7,0,0,1,66.61,147.89Z" fill="#ffd05b"/><path d="M66.61,147.89s.51,5.61-11,9.69c0,0,8.92.51,11.73,6.63C67.38,164.46,72.48,150.94,66.61,147.89Z" fill="#54c0eb"/><path d="M44.69,147.89c-5.86,3.31-.76,16.57-.76,16.57,2.55-6.12,11.73-6.63,11.73-6.63C44.18,153.24,44.69,147.89,44.69,147.89Z" fill="#54c0eb"/><path d="M65.85,144.06c-3.06,3.06-6.37,5.1-10.2,5.1s-7.39-2-10.2-5.1c.25-.51.25-1,.51-1.53,2.8,3.06,6.12,5.1,9.69,5.1s6.88-2,9.69-5.1A3.62,3.62,0,0,1,65.85,144.06Z" fill="#f9b54c"/><path d="M74.52,133.35c-1.53,2.55-3.57,3.82-5.35,3.57C65.85,143,61,147.63,55.65,147.63S45.46,143,42.14,136.92c-1.78.25-3.82-1.27-5.35-3.57-1.78-2.8-1.78-6.12,0-7.14a1.91,1.91,0,0,1,1.27-.25,16.19,16.19,0,0,0,2.55,4.59c-1.53-8.92,4.84-9.69,3.82-18.35,0,0,4.08,9.18,15.81,2.8l-1,1.78c16.06-3.57,11,15,10.71,16.06A23.3,23.3,0,0,0,73.75,126a.94.94,0,0,1,.76.25C76.3,127.49,76.3,130.55,74.52,133.35Z" fill="#ffd05b"/><path d="M38.06,105.57s3.31-.51,4.33,2c0,0-1-3.57,0-5.1s0-.51,0-.51-.51,2.29.51,3.57c0,0,2.29-8.41,16.32-6.12,0,0-2.8-.25-6.12,2.55,0,0,9.69-4.33,15.55,2.29a12.39,12.39,0,0,0-3.57-1s12.49,4.84,10.71,17.34L75,117.8s1,7.65-5.1,15.3c0,0,5.86-19.88-10.71-16.06l1-1.78c-11.73,6.37-15.81-2.8-15.81-2.8,1,8.41-5.35,9.43-3.82,18.35,0,0-5.61-6.37-3.31-14.79l-1.78,2s-1.27-7.65,6.12-10.2C41.38,107.86,40.87,106.08,38.06,105.57Z" fill="#324a5e"/><polygon points="254.18 155.97 272.75 155.97 272.75 140.5 254.18 140.5 254.18 155.97" fill="#dd691d"/><polygon points="282.04 155.97 300.62 155.97 300.62 140.5 282.04 140.5 282.04 155.97" fill="#dd691d"/><polygon points="309.91 155.97 328.49 155.97 328.49 140.5 309.91 140.5 309.91 155.97" fill="#dd691d"/><polygon points="337.77 155.97 356.35 155.97 356.35 140.5 337.77 140.5 337.77 155.97" fill="#dd691d"/><polygon points="365.64 155.97 384.21 155.97 384.21 140.5 365.64 140.5 365.64 155.97" fill="#dd691d"/><polygon points="254.18 140.5 272.75 140.5 272.75 125.01 254.18 125.01 254.18 140.5" fill="#ecba16"/><polygon points="282.04 140.5 300.62 140.5 300.62 112.63 282.04 112.63 282.04 140.5" fill="#ecba16"/><polygon points="309.91 140.5 328.49 140.5 328.49 94.05 309.91 94.05 309.91 140.5" fill="#ecba16"/><polygon points="337.77 140.5 356.35 140.5 356.35 115.73 337.77 115.73 337.77 140.5" fill="#ecba16"/><polygon points="365.64 140.5 384.21 140.5 384.21 75.48 365.64 75.48 365.64 140.5" fill="#ecba16"/><path d="M251.08,103.34a3.1,3.1,0,0,1-2.19-5.28l21.67-21.67a3.1,3.1,0,1,1,4.38,4.38l-21.67,21.67a3.09,3.09,0,0,1-2.19.91" fill="#25ae88"/><path d="M272.75,97.15a3.1,3.1,0,0,1-3.1-3.1V78.57a3.1,3.1,0,0,1,6.19,0V94.05a3.1,3.1,0,0,1-3.1,3.1" fill="#25ae88"/><path d="M272.75,81.67H257.27a3.1,3.1,0,1,1,0-6.19h15.48a3.1,3.1,0,1,1,0,6.19" fill="#25ae88"/></svg>