<svg id="Layer_1" data-name="Layer 1" xmlns="http://www.w3.org/2000/svg" viewBox="0 0 454.19 454.19"><title>Artboard ۱</title><path d="M308.57,16.23V186.06a16.21,16.21,0,0,1-16.22,16.22H18.68A16.22,16.22,0,0,1,2.46,186.05V16.23A16.22,16.22,0,0,1,18.68,0H292.35a16.21,16.21,0,0,1,16.22,16.22Z" fill="#e6e6e6"/><path d="M308.57,16.22V32.36H2.46V16.22A16.22,16.22,0,0,1,18.68,0H292.34A16.22,16.22,0,0,1,308.57,16.22Z" fill="#b3b3b3"/><circle cx="24.71" cy="16.18" r="10.11" fill="#fc7a51"/><circle cx="51.68" cy="16.18" r="10.11" fill="#f9de58"/><rect x="32.68" y="61.82" width="235" height="11" fill="gray"/><rect x="32.68" y="85.91" width="235" height="11" fill="gray"/><rect x="32.68" y="110" width="235" height="11" fill="gray"/><rect x="32.68" y="134.09" width="235" height="11" fill="gray"/><rect x="32.68" y="158.18" width="235" height="11" fill="gray"/><path d="M307.57,222.2,266.64,260a48.15,48.15,0,0,1-65.29,0L160.43,222.2a49.26,49.26,0,0,1-15.72-39.89l2.38-49a85.71,85.71,0,0,1,1.28-9.7A87.2,87.2,0,0,1,293.27,76a88.46,88.46,0,0,1,7.38,7.74,86.72,86.72,0,0,1,19,39.92,85.71,85.71,0,0,1,1.28,9.7l2.37,49A49.26,49.26,0,0,1,307.57,222.2Z" fill="#fcd18b"/><path d="M263.83,209.69a29.83,29.83,0,1,1-59.66,0Z" fill="#fff"/><path d="M345.49,124.92h-13a98.49,98.49,0,1,0-197,0h-13a111.49,111.49,0,1,1,223,0Z" fill="#f9de58"/><path d="M319.63,123.61a86.72,86.72,0,0,0-19-39.92A88.45,88.45,0,0,0,293.27,76q-1.57-1.45-3.21-2.82l-.67-.54c-.89-.74-1.8-1.46-2.72-2.16l-.17-.14h0a87.11,87.11,0,0,0-105,0h0l-.06.05q-1.81,1.37-3.55,2.83l-.34.28q-1.66,1.41-3.25,2.91l-.38.36q-1.6,1.52-3.12,3.13l-.28.29q-1.63,1.73-3.17,3.56a86.73,86.73,0,0,0-19,39.91,73.37,73.37,0,0,0,33.12-19.5,73.46,73.46,0,0,0,105,0A73.36,73.36,0,0,0,319.63,123.61Z" fill="gray"/><circle cx="194.99" cy="163.95" r="10" fill="gray"/><circle cx="272.99" cy="163.95" r="10" fill="gray"/><polygon points="180.09 250.95 231.09 301.95 207.09 340.95 167.09 260.95 180.09 250.95" fill="#e6e6e6"/><polygon points="287.89 250.95 236.9 301.95 260.89 340.95 300.89 260.95 287.89 250.95" fill="#e6e6e6"/><path d="M185,225a6.49,6.49,0,0,1-6.5,6.5H147.73a26.11,26.11,0,0,1-26.11-26.11V188h13v17.39a13.11,13.11,0,0,0,13.11,13.11h30.73A6.5,6.5,0,0,1,185,225Z" fill="#fc7a51"/><path d="M137.46,113.85a40.84,40.84,0,0,0,0,81.68" fill="#29abe2"/><path d="M330.53,113.85a40.84,40.84,0,0,1,0,81.68" fill="#29abe2"/><path d="M185,225a6.49,6.49,0,0,1-6.5,6.5h-19v-13h19A6.5,6.5,0,0,1,185,225Z" fill="gray"/><path d="M439.85,424.85H319.62A11.89,11.89,0,0,1,307.73,413V257.74a11.89,11.89,0,0,1,11.89-11.89H439.85a11.89,11.89,0,0,1,11.89,11.89V413A11.89,11.89,0,0,1,439.85,424.85Z" fill="gray"/><rect x="322.73" y="260.85" width="114" height="149" fill="#e6e6e6"/><path d="M393.16,237.85H366.31a7.57,7.57,0,0,0-7.57,7.57v25.43h42V245.43A7.57,7.57,0,0,0,393.16,237.85Z" fill="#29abe2"/><rect x="336.73" y="285.85" width="86" height="11" fill="#29abe2"/><rect x="336.73" y="309.95" width="86" height="11" fill="#29abe2"/><rect x="336.73" y="334.04" width="86" height="11" fill="#29abe2"/><rect x="336.73" y="358.13" width="86" height="11" fill="#29abe2"/><rect x="336.73" y="382.22" width="43" height="11" fill="#29abe2"/><path d="M58.28,239.37a55,55,0,0,0-35,97.37L12.12,367.91,40.8,346.5v0a55,55,0,1,0,17.5-107.11Z" fill="#fc7a51"/><path d="M49.94,303.3a23,23,0,0,1,1.6-8.79q1.6-3.9,6.59-6.79,1.5-.9,3.7-2a30.08,30.08,0,0,0,4.3-2.75,15.76,15.76,0,0,0,3.55-3.75,8.64,8.64,0,0,0,1.45-4.95,8.18,8.18,0,0,0-.8-3.7,8.45,8.45,0,0,0-2.1-2.7,8.74,8.74,0,0,0-3-1.65,11.81,11.81,0,0,0-3.55-.55,10.31,10.31,0,0,0-4,.75,13.62,13.62,0,0,0-3.25,1.9,16,16,0,0,0-2.6,2.6,28.51,28.51,0,0,0-1.95,2.75l-8.69-6a19.39,19.39,0,0,1,3.45-5.49,21.1,21.1,0,0,1,4.9-4,22.89,22.89,0,0,1,5.94-2.5,25.62,25.62,0,0,1,6.59-.85,26.2,26.2,0,0,1,7.49,1.1,19,19,0,0,1,6.64,3.5A18.14,18.14,0,0,1,81,265.48a20,20,0,0,1,1.85,8.94,19.3,19.3,0,0,1-.75,5.64,15.73,15.73,0,0,1-2.15,4.45,18.75,18.75,0,0,1-3.3,3.6,37.63,37.63,0,0,1-4.3,3.1q-2,1.2-4,2.3A24.09,24.09,0,0,0,64.68,296a11.91,11.91,0,0,0-2.7,3.1,8.12,8.12,0,0,0-1,4.25h-11Zm.2,23.28V312.79H61.23v13.79Z" fill="#fff"/><path d="M186.36,321.12,197.49,290l-28.67,21.41v0a55,55,0,1,0,17.53,9.74Z" fill="#29abe2"/><path d="M145.49,371.66V332.42h11.69v39.24Zm0,23.29V381.78h11.69v13.17Z" fill="#fff"/></svg>