<svg id="Layer_1" data-name="Layer 1" xmlns="http://www.w3.org/2000/svg" viewBox="0 0 512 512"><title>Artboard ۱</title><path d="M323.56,349.79H188.44a94.59,94.59,0,0,0-94.59,94.59V512H418.15V444.38A94.59,94.59,0,0,0,323.56,349.79Z" fill="#4da3ff"/><path d="M152.54,86.75A54.84,54.84,0,0,0,97.7,141.6v38.5h54.84V86.75Z" fill="#85a1a6"/><path d="M359.46,86.75A54.84,54.84,0,0,1,414.3,141.6v38.5H359.46V86.75Z" fill="#85a1a6"/><path d="M134.08,148a40.23,40.23,0,0,0-40.23,40.23h0a40.23,40.23,0,0,0,40.23,40.23h18.46V148Z" fill="#f4c49d"/><path d="M377.92,148a40.23,40.23,0,0,1,40.23,40.23h0a40.23,40.23,0,0,1-40.23,40.23H359.46V148Z" fill="#f4c49d"/><rect x="221.33" y="282.19" width="69.34" height="78.6" fill="#f4c49d"/><path d="M221.33,330.57a147.69,147.69,0,0,0,69.34,0V278.89H221.33v51.67Z" fill="#333" opacity="0.1" style="isolation:isolate"/><path d="M256,0h0A125.45,125.45,0,0,0,130.55,125.45v65.09A125.45,125.45,0,0,0,256,316h0A125.45,125.45,0,0,0,381.45,190.54V125.45A125.45,125.45,0,0,0,256,0Z" fill="#fccda2"/><path d="M151.08,190.54V125.45A125.46,125.46,0,0,1,266.27.42Q261.19,0,256,0h0A125.45,125.45,0,0,0,130.55,125.45v65.09A125.45,125.45,0,0,0,256,316h0c3.46,0,6.88-.15,10.27-.42A125.46,125.46,0,0,1,151.08,190.54Z" fill="#333" opacity="0.1" style="isolation:isolate"/><circle cx="197.18" cy="170.88" r="16.24" fill="#293133"/><circle cx="314.82" cy="170.88" r="16.24" fill="#293133"/><path d="M152.54,356.86a94.6,94.6,0,0,0-58.69,87.52V512h58.69Z" fill="#fff9f2"/><path d="M359.46,356.86a94.6,94.6,0,0,1,58.69,87.52V512H359.46Z" fill="#fff9f2"/><path d="M256,466.11l82.09-115.2a95.35,95.35,0,0,0-14.53-1.11H188.44a95.41,95.41,0,0,0-14.52,1.11Z" fill="#fff9f2"/><path d="M256,253.63c44.44,30.53,72.38-8.08,72.38-8.08S309,246,302,230.74c-18.2-41.68-46-29.94-46-29.94s-27.76-11.74-46,29.94c-7,15.26-26.42,14.81-26.42,14.81S211.56,284.16,256,253.63Z" fill="#85a1a6"/><path d="M304.55,85.92H207.45a8.25,8.25,0,0,1,0-16.5h97.1a8.25,8.25,0,0,1,0,16.5Z" fill="#f4c49d"/><path d="M317.47,115.27H194.53a8.25,8.25,0,0,1,0-16.5H317.47a8.25,8.25,0,0,1,0,16.5Z" fill="#f4c49d"/><polygon points="290.67 349.79 256 370.39 221.33 349.79 290.67 349.79" fill="#f4c49d"/></svg>