<svg id="Layer_1" data-name="Layer 1" xmlns="http://www.w3.org/2000/svg" viewBox="0 0 505 505"><title>Artboard ۱</title><circle cx="252.5" cy="252.5" r="252.5" fill="#90dfaa"/><path d="M366.7,426.7h-238a2.65,2.65,0,0,1-2.6-2.6V80.9a2.65,2.65,0,0,1,2.6-2.6h238a2.65,2.65,0,0,1,2.6,2.6V424.1A2.65,2.65,0,0,1,366.7,426.7Z" fill="#324a5e"/><rect x="154.3" y="114.6" width="186.8" height="258.4" fill="#fff"/><circle cx="247.7" cy="397.5" r="13.1" fill="#2b3b4e"/><path d="M291.4,102.4H233.7a5.48,5.48,0,0,1-5.5-5.5h0a5.48,5.48,0,0,1,5.5-5.5h57.7a5.48,5.48,0,0,1,5.5,5.5h0A5.55,5.55,0,0,1,291.4,102.4Z" fill="#2b3b4e"/><path d="M213.2,102.4H204a5.48,5.48,0,0,1-5.5-5.5h0a5.48,5.48,0,0,1,5.5-5.5h9.2a5.48,5.48,0,0,1,5.5,5.5h0A5.48,5.48,0,0,1,213.2,102.4Z" fill="#2b3b4e"/><rect x="175" y="275.3" width="145.3" height="11.2" fill="#e6e9ee"/><rect x="175" y="298.8" width="145.3" height="11.2" fill="#e6e9ee"/><rect x="175" y="322.3" width="86.1" height="11.2" fill="#e6e9ee"/><path d="M289.7,199.1a47,47,0,1,1-47-47v47Z" fill="#4cdbc4"/><path d="M300.3,188.5h-47v-47A47,47,0,0,1,300.3,188.5Z" fill="#ff7058"/></svg>