<svg id="Layer_1" data-name="Layer 1" xmlns="http://www.w3.org/2000/svg" viewBox="0 0 505 505"><title>Artboard ۱</title><circle cx="252.5" cy="252.5" r="252.5" fill="#324a5e"/><path d="M79.9,175V376.4a2.8,2.8,0,0,0,2.8,2.8H422.2a2.8,2.8,0,0,0,2.8-2.8V175Z" fill="#fff"/><path d="M425.1,177.7V143.5a17.63,17.63,0,0,0-17.6-17.6H97.5a17.63,17.63,0,0,0-17.6,17.6v34.2Z" fill="#4cdbc4"/><path d="M284.7,164.3H115.4a12.5,12.5,0,0,1-12.5-12.5h0a12.5,12.5,0,0,1,12.5-12.5H284.7a12.5,12.5,0,0,1,12.5,12.5h0A12.5,12.5,0,0,1,284.7,164.3Z" fill="#fff"/><circle cx="389.3" cy="152" r="12.8" fill="#2c9984"/><circle cx="352.5" cy="152" r="12.8" fill="#2c9984"/><path d="M116.3,156.4h-2.5l-3-8.7h2.5L115,153l1.7-5.3h2.4l1.7,5.3,1.7-5.3H125l-3,8.7h-2.5l-1.6-4.8Z" fill="#324a5e"/><path d="M131,156.4h-2.5l-3-8.7H128l1.7,5.3,1.7-5.3h2.4l1.7,5.3,1.7-5.3h2.5l-3,8.7h-2.5l-1.6-4.8Z" fill="#324a5e"/><path d="M145.6,156.4h-2.5l-3-8.7h2.5l1.7,5.3,1.7-5.3h2.4l1.7,5.3,1.7-5.3h2.5l-3,8.7h-2.5l-1.6-4.8Z" fill="#324a5e"/><path d="M130.8,243.2h-9.2l-10.7-31.7h9.2l6.2,19.2,6.2-19.2h8.6l6.2,19.2,6.2-19.2h9.2l-10.8,31.8h-9.2L136.9,226Z" fill="#acb3ba"/><path d="M184.1,243.2h-9.2l-10.8-31.7h9.2l6.2,19.2,6.2-19.2h8.6l6.2,19.2,6.2-19.2h9.2l-10.8,31.8h-9.2L190.1,226Z" fill="#acb3ba"/><path d="M237.4,243.2h-9.2l-10.8-31.7h9.2l6.2,19.2,6.2-19.2h8.6l6.2,19.2,6.2-19.2h9.2l-10.8,31.8h-9.2L243.4,226Z" fill="#acb3ba"/><polygon points="371 344.6 389.3 326.3 359.3 296.2 386.7 276.2 302.1 257.4 320.9 342 341 314.5 371 344.6" fill="#ff7058"/></svg>