<svg id="Capa_1" data-name="Capa 1" xmlns="http://www.w3.org/2000/svg" viewBox="0 0 432.59 432.59"><title>Artboard ۱</title><polygon points="254.79 314.05 263.85 382.94 168.75 382.94 177.81 314.05 254.79 314.05" fill="gray"/><path d="M432.59,273.1V302A12.08,12.08,0,0,1,420.51,314H12.08A12.08,12.08,0,0,1,0,302V273.1H432.59Z" fill="#999"/><path d="M432.59,51.74V273.1H0V51.74A12.08,12.08,0,0,1,12.08,39.65H420.51A12.08,12.08,0,0,1,432.59,51.74Z" fill="#e2e0d0"/><rect x="132.47" y="372.93" width="167.65" height="20" fill="#999"/><path d="M174.39,39.65,33.16,273.1H430.29V43.73a12,12,0,0,0-9-4.07Z" fill="#eae8dc"/><path d="M72,57H35.41a3,3,0,0,0-3,3v48.72a3,3,0,0,0,3,3H72a3,3,0,0,0,3-3V60A3,3,0,0,0,72,57Z" fill="#fff"/><path d="M61.13,97.16a13.9,13.9,0,0,1-1.1,6.35c-1.52-3.31-6.35-3.59-6.35-3.59s-5,.28-6.35,3.59a17,17,0,0,1-1.1-6.35C42.64,98,33.5,101,32.62,110a3,3,0,0,0,2.79,1.83H72a3,3,0,0,0,2.58-1.43C74.53,99.64,64.58,98,61.13,97.16Z" fill="#84dbff"/><path d="M59.62,94.54c0,.55-.41,3-5.8,5.11h-.28c-5.38-2.07-5.8-4.55-5.8-5.11h0a7.42,7.42,0,0,1,.69-2.9,7.35,7.35,0,0,0,5.24,2.76,7.35,7.35,0,0,0,5.24-2.76A7.42,7.42,0,0,1,59.62,94.54Z" fill="#ffd05b"/><path d="M59.62,94.54s.28,3-5.93,5.24c0,0,4.83.28,6.35,3.59C60,103.51,62.79,96.19,59.62,94.54Z" fill="#54c0eb"/><path d="M47.75,94.54c-3.17,1.79-.41,9-.41,9,1.38-3.31,6.35-3.59,6.35-3.59C47.47,97.43,47.75,94.54,47.75,94.54Z" fill="#54c0eb"/><path d="M59.2,92.47c-1.66,1.66-3.45,2.76-5.52,2.76a7.66,7.66,0,0,1-5.52-2.76c.14-.28.14-.55.28-.83a7.35,7.35,0,0,0,5.24,2.76,7.35,7.35,0,0,0,5.24-2.76A2,2,0,0,1,59.2,92.47Z" fill="#f9b54c"/><path d="M63.89,86.67C63.07,88.05,62,88.74,61,88.6c-1.79,3.31-4.42,5.8-7.31,5.8s-5.52-2.48-7.31-5.8c-1,.14-2.07-.69-2.9-1.93-1-1.52-1-3.31,0-3.86a1,1,0,0,1,.69-.14,8.76,8.76,0,0,0,1.38,2.48c-.83-4.83,2.62-5.24,2.07-9.94,0,0,2.21,5,8.56,1.52l-.55,1c8.69-1.93,5.93,8.14,5.8,8.69a12.61,12.61,0,0,0,2.07-3.73.51.51,0,0,1,.41.14C64.86,83.5,64.86,85.15,63.89,86.67Z" fill="#ffd05b"/><path d="M44.16,71.63s1.79-.28,2.35,1.1c0,0-.55-1.93,0-2.76s0-.28,0-.28a2.69,2.69,0,0,0,.28,1.93s1.24-4.55,8.83-3.31A4.92,4.92,0,0,0,52.3,69.7s5.24-2.35,8.42,1.24a6.7,6.7,0,0,0-1.93-.55s6.76,2.62,5.8,9.38l-.41-1.52a11.81,11.81,0,0,1-2.76,8.28s3.17-10.76-5.8-8.69l.55-1c-6.35,3.45-8.56-1.52-8.56-1.52.55,4.55-2.9,5.11-2.07,9.94a9.23,9.23,0,0,1-1.79-8l-1,1.1a5,5,0,0,1,3.31-5.52A2.93,2.93,0,0,0,44.16,71.63Z" fill="#324a5e"/><path d="M106.35,74.92h21.82c2.76,0,5,1.77,5,3.94v1.33c0,2.18-2.24,3.94-5,3.94H106.35c-2.76,0-5-1.77-5-3.94V78.87C101.35,76.69,103.59,74.92,106.35,74.92Z" fill="#95a6c9"/><path d="M150.7,74.92H390.82c3.23,0,5.84,2.06,5.84,4.61h0c0,2.54-2.62,4.61-5.84,4.61H150.7c-3.23,0-5.84-2.06-5.84-4.61h0C144.86,77,147.48,74.92,150.7,74.92Z" fill="#bcc6d8"/><path d="M107.2,102.57H347.43c3.23,0,5.84,2.06,5.84,4.61h0c0,2.54-2.62,4.61-5.84,4.61H107.2c-3.23,0-5.84-2.06-5.84-4.61h0C101.35,104.63,104,102.57,107.2,102.57Z" fill="#bcc6d8"/><path d="M370,102.57h21.69c2.76,0,5,1.77,5,3.94v1.33c0,2.18-2.24,3.94-5,3.94H370c-2.76,0-5-1.77-5-3.94v-1.33C365,104.33,367.21,102.57,370,102.57Z" fill="#95a6c9"/><path d="M109.35,147.4h21.82c2.76,0,5,1.77,5,3.94v1.33c0,2.18-2.24,3.94-5,3.94H109.35c-2.76,0-5-1.77-5-3.94v-1.33C104.35,149.17,106.59,147.4,109.35,147.4Z" fill="#95a6c9"/><path d="M153.7,147.4H393.82c3.23,0,5.84,2.06,5.84,4.61h0c0,2.54-2.62,4.61-5.84,4.61H153.7c-3.23,0-5.84-2.06-5.84-4.61h0C147.86,149.47,150.48,147.4,153.7,147.4Z" fill="#bcc6d8"/><path d="M110.2,175H350.43c3.23,0,5.84,2.06,5.84,4.61h0c0,2.54-2.62,4.61-5.84,4.61H110.2c-3.23,0-5.84-2.06-5.84-4.61h0C104.35,177.11,107,175,110.2,175Z" fill="#bcc6d8"/><path d="M373,175h21.69c2.76,0,5,1.77,5,3.94v1.33c0,2.18-2.24,3.94-5,3.94H373c-2.76,0-5-1.77-5-3.94V179C368,176.81,370.21,175,373,175Z" fill="#95a6c9"/><path d="M109.35,219.88h21.82c2.76,0,5,1.77,5,3.94v1.33c0,2.18-2.24,3.94-5,3.94H109.35c-2.76,0-5-1.77-5-3.94v-1.33C104.35,221.65,106.59,219.88,109.35,219.88Z" fill="#95a6c9"/><path d="M153.7,219.88H393.82c3.23,0,5.84,2.06,5.84,4.61h0c0,2.54-2.62,4.61-5.84,4.61H153.7c-3.23,0-5.84-2.06-5.84-4.61h0C147.86,221.95,150.48,219.88,153.7,219.88Z" fill="#bcc6d8"/><path d="M110.2,247.53H350.43c3.23,0,5.84,2.06,5.84,4.61h0c0,2.54-2.62,4.61-5.84,4.61H110.2c-3.23,0-5.84-2.06-5.84-4.61h0C104.35,249.59,107,247.53,110.2,247.53Z" fill="#bcc6d8"/><path d="M373,247.53h21.69c2.76,0,5,1.77,5,3.94v1.33c0,2.18-2.24,3.94-5,3.94H373c-2.76,0-5-1.77-5-3.94v-1.33C368,249.29,370.21,247.53,373,247.53Z" fill="#95a6c9"/><path d="M72,129.45H35.41a3,3,0,0,0-3,3v48.72a3,3,0,0,0,3,3H72a3,3,0,0,0,3-3V132.49A3,3,0,0,0,72,129.45Z" fill="#fff"/><path d="M61.13,169.64A13.9,13.9,0,0,1,60,176c-1.52-3.31-6.35-3.59-6.35-3.59s-5,.28-6.35,3.59a17,17,0,0,1-1.1-6.35c-3.59.83-12.73,3.86-13.61,12.79a3,3,0,0,0,2.79,1.83H72a3,3,0,0,0,2.58-1.43C74.53,172.12,64.58,170.47,61.13,169.64Z" fill="#84dbff"/><path d="M59.62,167c0,.55-.41,3-5.8,5.11h-.28c-5.38-2.07-5.8-4.55-5.8-5.11h0a7.42,7.42,0,0,1,.69-2.9,7.35,7.35,0,0,0,5.24,2.76,7.35,7.35,0,0,0,5.24-2.76A7.42,7.42,0,0,1,59.62,167Z" fill="#ffd05b"/><path d="M59.62,167s.28,3-5.93,5.24c0,0,4.83.28,6.35,3.59C60,176,62.79,168.67,59.62,167Z" fill="#54c0eb"/><path d="M47.75,167c-3.17,1.79-.41,9-.41,9,1.38-3.31,6.35-3.59,6.35-3.59C47.47,169.92,47.75,167,47.75,167Z" fill="#54c0eb"/><path d="M59.2,164.95c-1.66,1.66-3.45,2.76-5.52,2.76a7.66,7.66,0,0,1-5.52-2.76c.14-.28.14-.55.28-.83a7.35,7.35,0,0,0,5.24,2.76,7.35,7.35,0,0,0,5.24-2.76A2,2,0,0,1,59.2,164.95Z" fill="#f9b54c"/><path d="M63.89,159.15c-.83,1.38-1.93,2.07-2.9,1.93-1.79,3.31-4.42,5.8-7.31,5.8s-5.52-2.48-7.31-5.8c-1,.14-2.07-.69-2.9-1.93-1-1.52-1-3.31,0-3.86a1,1,0,0,1,.69-.14,8.76,8.76,0,0,0,1.38,2.48c-.83-4.83,2.62-5.24,2.07-9.94,0,0,2.21,5,8.56,1.52l-.55,1c8.69-1.93,5.93,8.14,5.8,8.69a12.61,12.61,0,0,0,2.07-3.73.51.51,0,0,1,.41.14C64.86,156,64.86,157.63,63.89,159.15Z" fill="#ffd05b"/><path d="M44.16,144.11s1.79-.28,2.35,1.1c0,0-.55-1.93,0-2.76s0-.28,0-.28a2.69,2.69,0,0,0,.28,1.93s1.24-4.55,8.83-3.31a4.92,4.92,0,0,0-3.31,1.38s5.24-2.35,8.42,1.24a6.7,6.7,0,0,0-1.93-.55s6.76,2.62,5.8,9.38l-.41-1.52A11.81,11.81,0,0,1,61.41,159s3.17-10.76-5.8-8.69l.55-1c-6.35,3.45-8.56-1.52-8.56-1.52.55,4.55-2.9,5.11-2.07,9.94a9.23,9.23,0,0,1-1.79-8l-1,1.1a5,5,0,0,1,3.31-5.52A2.93,2.93,0,0,0,44.16,144.11Z" fill="#324a5e"/><path d="M72,201.93H35.41a3,3,0,0,0-3,3V253.7a3,3,0,0,0,3,3H72a3,3,0,0,0,3-3V205A3,3,0,0,0,72,201.93Z" fill="#fff"/><path d="M61.13,242.12a13.9,13.9,0,0,1-1.1,6.35c-1.52-3.31-6.35-3.59-6.35-3.59s-5,.28-6.35,3.59a17,17,0,0,1-1.1-6.35c-3.59.83-12.73,3.86-13.61,12.79a3,3,0,0,0,2.79,1.83H72a3,3,0,0,0,2.58-1.43C74.53,244.6,64.58,242.95,61.13,242.12Z" fill="#84dbff"/><path d="M59.62,239.5c0,.55-.41,3-5.8,5.11h-.28c-5.38-2.07-5.8-4.55-5.8-5.11h0a7.42,7.42,0,0,1,.69-2.9,7.35,7.35,0,0,0,5.24,2.76,7.35,7.35,0,0,0,5.24-2.76A7.42,7.42,0,0,1,59.62,239.5Z" fill="#ffd05b"/><path d="M59.62,239.5s.28,3-5.93,5.24c0,0,4.83.28,6.35,3.59C60,248.47,62.79,241.16,59.62,239.5Z" fill="#54c0eb"/><path d="M47.75,239.5c-3.17,1.79-.41,9-.41,9,1.38-3.31,6.35-3.59,6.35-3.59C47.47,242.4,47.75,239.5,47.75,239.5Z" fill="#54c0eb"/><path d="M59.2,237.43c-1.66,1.66-3.45,2.76-5.52,2.76a7.66,7.66,0,0,1-5.52-2.76c.14-.28.14-.55.28-.83a7.35,7.35,0,0,0,5.24,2.76,7.35,7.35,0,0,0,5.24-2.76A2,2,0,0,1,59.2,237.43Z" fill="#f9b54c"/><path d="M63.89,231.63C63.07,233,62,233.7,61,233.57c-1.79,3.31-4.42,5.8-7.31,5.8s-5.52-2.48-7.31-5.8c-1,.14-2.07-.69-2.9-1.93-1-1.52-1-3.31,0-3.86a1,1,0,0,1,.69-.14,8.76,8.76,0,0,0,1.38,2.48c-.83-4.83,2.62-5.24,2.07-9.94,0,0,2.21,5,8.56,1.52l-.55,1c8.69-1.93,5.93,8.14,5.8,8.69a12.61,12.61,0,0,0,2.07-3.73.51.51,0,0,1,.41.14C64.86,228.46,64.86,230.12,63.89,231.63Z" fill="#ffd05b"/><path d="M44.16,216.59s1.79-.28,2.35,1.1c0,0-.55-1.93,0-2.76s0-.28,0-.28a2.69,2.69,0,0,0,.28,1.93S48,212,55.61,213.28a4.92,4.92,0,0,0-3.31,1.38s5.24-2.35,8.42,1.24a6.7,6.7,0,0,0-1.93-.55s6.76,2.62,5.8,9.38l-.41-1.52a11.81,11.81,0,0,1-2.76,8.28s3.17-10.76-5.8-8.69l.55-1c-6.35,3.45-8.56-1.52-8.56-1.52.55,4.55-2.9,5.11-2.07,9.94a9.23,9.23,0,0,1-1.79-8l-1,1.1a5,5,0,0,1,3.31-5.52A2.93,2.93,0,0,0,44.16,216.59Z" fill="#324a5e"/></svg>