<svg xmlns="http://www.w3.org/2000/svg" viewBox="0 0 5800 2500"><defs><style>.cls-1{fill:#fff;}</style></defs><title>Jibres-Logo-en-white-safe</title><g id="Jibres-icon"><path class="cls-1" d="M1250,500c-414.21,0-750,335.79-750,750s335.79,750,750,750,750-335.79,750-750S1664.21,500,1250,500Zm509.78,888.89a100,100,0,0,1-100,100h-800a100,100,0,0,1-100-100v-400h100v400h800v-400h100Z"/></g><g id="Jibres-wordmark"><path class="cls-1" d="M2500,1618.79l64.55-79c32.82,35.6,73.3,57.85,111.59,57.85,77.67,0,105-51.18,105-126.83V909H2884v560.71c0,135.73-61.26,230.29-206.77,230.29C2609.4,1700,2543.76,1666.62,2500,1618.79Z"/><path class="cls-1" d="M3038,953.91c0-38.29,29.53-68.91,70-68.91s70,30.62,70,68.91c0,40.47-29.53,71.09-70,71.09S3038,994.38,3038,953.91Z"/><rect class="cls-1" x="3058" y="1133" width="100" height="557"/><path class="cls-1" d="M3888,1412.7c0,160.41-103.93,286.29-256,286.29-80.95,0-145.5-40.1-188.16-99.14v91.34H3341V800h102.84v424.43c42.66-57.93,107.21-98,188.16-98C3784.07,1126.4,3888,1252.28,3888,1412.7Zm-106.12,0c0-102.49-68.92-184.93-167.38-184.93s-169.57,86.89-169.57,184.93,71.11,183.8,169.57,183.8S3781.88,1514.07,3781.88,1412.7Z"/><path class="cls-1" d="M4277,1121v123.41c-77.54-13.35-157.26,28.9-157.26,149l-1.09-4.44V1688H4016V1132.12h102.65v95.61C4148.14,1171,4203.83,1121,4277,1121Z"/><path class="cls-1" d="M4843,1452.22H4425.11c16.41,87.9,84.24,143.53,178.32,143.53,72.2,0,128-23.36,180.5-60.08v105.7c-46,34.49-111.58,55.63-186,55.63-173.94,0-279-131.29-279-287.06,0-154.65,107.21-285.94,268-285.94C4757.67,1124,4855,1276.43,4843,1452.22Zm-416.79-86.78H4734.7c-15.31-81.22-71.11-136.85-149.87-136.85C4501.69,1228.59,4442.62,1285.33,4426.21,1365.44Z"/><path class="cls-1" d="M4916,1610.12l64.55-77.86c33.91,33.37,80.95,64.52,132.37,64.52,45.95,0,79.87-24.48,79.87-61.18,0-107.9-261.47-67.86-260.38-257,0-84.54,68.92-154.62,176.14-154.62,76.58-1.11,141.13,40,175,79l-60.17,76.75c-24.07-22.24-67.83-54.5-113.78-54.5-41.57,0-71.11,22.24-71.11,55.61-1.09,100.12,261.47,63.41,261.47,257C5298.91,1629,5223.42,1698,5109.64,1698,5040.72,1698,4960.86,1661.29,4916,1610.12Z"/></g></svg>