<?xml version="1.0" encoding="UTF-8" standalone="no"?>
<svg xmlns="http://www.w3.org/2000/svg" height="38px" width="36px" version="1.1" xmlns:xlink="http://www.w3.org/1999/xlink" viewBox="0 0 36 38"><!-- Generator: Sketch 53.2 (72643) - https://sketchapp.com -->
 <title>share</title>
 <desc>Created with Sketch.</desc>
 <defs>
  <rect id="path-1" rx="4" height="30" width="28" y="0" x="0"/>
  <filter id="filter-2" height="140%" width="142.9%" y="-20%" x="-21.4%" filterUnits="objectBoundingBox">
   <feOffset in="SourceAlpha" result="shadowOffsetOuter1" dx="0" dy="0"/>
   <feGaussianBlur stdDeviation="2" result="shadowBlurOuter1" in="shadowOffsetOuter1"/>
   <feColorMatrix type="matrix" values="0 0 0 0 0   0 0 0 0 0   0 0 0 0 0  0 0 0 0.1 0" in="shadowBlurOuter1"/>
  </filter>
 </defs>
 <g id="Welcome" fill-rule="evenodd" fill="none">
  <g id="PWA-Guid" transform="translate(-127 -245)">
   <g id="Group-3" transform="translate(42 249)">
    <g id="share" transform="translate(89)">
     <g id="Rectangle">
      <use filter="url(#filter-2)" xlink:href="#path-1" fill="black"/>
      <use xlink:href="#path-1" fill-rule="evenodd" fill="#FFFFFF"/>
     </g>
     <g id="upload" fill-rule="nonzero" fill="#0076FF" transform="translate(6 4)">
      <path id="Path" d="m4.437 4.2734c0.091 0 0.182-0.0348 0.2514-0.1042l2.9557-2.9557v12.652c0 0.197 0.1589 0.356 0.3555 0.356 0.1967 0 0.3556-0.159 0.3556-0.356v-12.652l2.9408 2.9407c0.139 0.139 0.364 0.139 0.503 0 0.139-0.1391 0.139-0.3638 0-0.5028l-3.5476-3.5477c-0.0327-0.033089-0.0722-0.059044-0.1163-0.077178-0.0867-0.035911-0.1845-0.035911-0.2716 0-0.0438 0.018134-0.0832 0.044445-0.1159 0.077158l-3.562 3.5623c-0.139 0.139-0.139 0.3637 0 0.5027 0.0693 0.0697 0.1604 0.1042 0.2514 0.1042z"/>
      <path id="Path" d="m10.489 5.6885c-0.197 0-0.356 0.159-0.356 0.3556s0.159 0.3555 0.356 0.3555h4.622v13.866h-14.222l-0.00047-13.866 4.6223-0.0004c0.1966 0 0.3555-0.1589 0.3555-0.3555s-0.1589-0.3556-0.3555-0.3556h-5.3334l0.00002 15.288 15.645 0.001v-15.288l-5.333-0.0005z"/>
     </g>
    </g>
   </g>
  </g>
 </g>
</svg>
